G75*
%MOIN*%
%OFA0B0*%
%FSLAX25Y25*%
%IPPOS*%
%LPD*%
%AMOC8*
5,1,8,0,0,1.08239X$1,22.5*
%
%ADD10C,0.07600*%
%ADD11R,0.07600X0.07600*%
%ADD12C,0.05937*%
%ADD13C,0.06000*%
%ADD14R,0.05150X0.05150*%
%ADD15C,0.05000*%
D10*
X0021000Y0151000D03*
X0101000Y0151000D03*
X0181000Y0151000D03*
D11*
X0201000Y0151000D03*
X0121000Y0151000D03*
X0041000Y0151000D03*
D12*
X0036000Y0028969D02*
X0036000Y0023031D01*
X0026000Y0023031D02*
X0026000Y0028969D01*
X0016000Y0028969D02*
X0016000Y0023031D01*
X0186000Y0023031D02*
X0186000Y0028969D01*
X0196000Y0028969D02*
X0196000Y0023031D01*
X0206000Y0023031D02*
X0206000Y0028969D01*
D13*
X0121000Y0026000D03*
X0111000Y0026000D03*
X0101000Y0026000D03*
X0096000Y0186000D03*
X0096000Y0196000D03*
X0096000Y0206000D03*
X0061000Y0206000D03*
X0061000Y0196000D03*
X0061000Y0186000D03*
X0026000Y0186000D03*
X0026000Y0196000D03*
X0026000Y0206000D03*
X0131000Y0206000D03*
X0131000Y0196000D03*
X0131000Y0186000D03*
X0166000Y0186000D03*
X0166000Y0196000D03*
X0166000Y0206000D03*
X0201000Y0206000D03*
X0201000Y0196000D03*
X0201000Y0186000D03*
D14*
X0206000Y0121000D03*
X0156000Y0121000D03*
X0136000Y0121000D03*
X0086000Y0121000D03*
X0066000Y0121000D03*
X0016000Y0121000D03*
X0016000Y0051000D03*
X0066000Y0051000D03*
X0086000Y0051000D03*
X0136000Y0051000D03*
X0156000Y0051000D03*
X0206000Y0051000D03*
D15*
X0026000Y0011000D02*
X0016000Y0021000D01*
X0016000Y0026000D01*
X0016000Y0051000D01*
X0026000Y0081000D02*
X0091000Y0081000D01*
X0101000Y0071000D01*
X0101000Y0026000D01*
X0091000Y0011000D02*
X0091000Y0046000D01*
X0086000Y0051000D01*
X0091000Y0011000D02*
X0181000Y0011000D01*
X0186000Y0016000D01*
X0186000Y0026000D01*
X0186000Y0041000D01*
X0176000Y0051000D01*
X0156000Y0051000D01*
X0091000Y0011000D02*
X0026000Y0011000D01*
X0026000Y0081000D02*
X0016000Y0091000D01*
X0016000Y0121000D01*
X0016000Y0146000D01*
X0021000Y0151000D01*
X0021000Y0171000D01*
X0031000Y0181000D01*
X0026000Y0186000D01*
X0031000Y0181000D02*
X0056000Y0181000D01*
X0061000Y0186000D01*
X0096000Y0186000D02*
X0101000Y0181000D01*
X0106000Y0186000D01*
X0131000Y0186000D01*
X0101000Y0181000D02*
X0101000Y0151000D01*
X0086000Y0136000D01*
X0086000Y0121000D01*
X0156000Y0121000D02*
X0161000Y0121000D01*
X0181000Y0141000D01*
X0181000Y0151000D01*
X0181000Y0171000D01*
X0196000Y0186000D01*
X0201000Y0186000D01*
X0181000Y0171000D02*
X0166000Y0186000D01*
M02*
