G75*
%MOIN*%
%OFA0B0*%
%FSLAX25Y25*%
%IPPOS*%
%LPD*%
%AMOC8*
5,1,8,0,0,1.08239X$1,22.5*
%
%ADD10C,0.00000*%
%ADD11C,0.00300*%
%ADD12C,0.00400*%
%ADD13C,0.01000*%
D10*
X0002200Y0002200D02*
X0002200Y0237161D01*
X0272200Y0237200D01*
X0272200Y0002200D01*
X0002200Y0002200D01*
X0059129Y0047200D02*
X0059131Y0047398D01*
X0059139Y0047596D01*
X0059151Y0047794D01*
X0059168Y0047991D01*
X0059190Y0048188D01*
X0059216Y0048384D01*
X0059248Y0048580D01*
X0059284Y0048775D01*
X0059325Y0048968D01*
X0059371Y0049161D01*
X0059421Y0049353D01*
X0059477Y0049543D01*
X0059536Y0049732D01*
X0059601Y0049919D01*
X0059670Y0050105D01*
X0059743Y0050289D01*
X0059821Y0050471D01*
X0059904Y0050651D01*
X0059991Y0050829D01*
X0060082Y0051005D01*
X0060178Y0051178D01*
X0060277Y0051349D01*
X0060381Y0051518D01*
X0060489Y0051684D01*
X0060601Y0051847D01*
X0060717Y0052008D01*
X0060837Y0052166D01*
X0060961Y0052320D01*
X0061089Y0052472D01*
X0061220Y0052620D01*
X0061355Y0052765D01*
X0061493Y0052907D01*
X0061635Y0053045D01*
X0061780Y0053180D01*
X0061928Y0053311D01*
X0062080Y0053439D01*
X0062234Y0053563D01*
X0062392Y0053683D01*
X0062553Y0053799D01*
X0062716Y0053911D01*
X0062882Y0054019D01*
X0063051Y0054123D01*
X0063222Y0054222D01*
X0063395Y0054318D01*
X0063571Y0054409D01*
X0063749Y0054496D01*
X0063929Y0054579D01*
X0064111Y0054657D01*
X0064295Y0054730D01*
X0064481Y0054799D01*
X0064668Y0054864D01*
X0064857Y0054923D01*
X0065047Y0054979D01*
X0065239Y0055029D01*
X0065432Y0055075D01*
X0065625Y0055116D01*
X0065820Y0055152D01*
X0066016Y0055184D01*
X0066212Y0055210D01*
X0066409Y0055232D01*
X0066606Y0055249D01*
X0066804Y0055261D01*
X0067002Y0055269D01*
X0067200Y0055271D01*
X0067398Y0055269D01*
X0067596Y0055261D01*
X0067794Y0055249D01*
X0067991Y0055232D01*
X0068188Y0055210D01*
X0068384Y0055184D01*
X0068580Y0055152D01*
X0068775Y0055116D01*
X0068968Y0055075D01*
X0069161Y0055029D01*
X0069353Y0054979D01*
X0069543Y0054923D01*
X0069732Y0054864D01*
X0069919Y0054799D01*
X0070105Y0054730D01*
X0070289Y0054657D01*
X0070471Y0054579D01*
X0070651Y0054496D01*
X0070829Y0054409D01*
X0071005Y0054318D01*
X0071178Y0054222D01*
X0071349Y0054123D01*
X0071518Y0054019D01*
X0071684Y0053911D01*
X0071847Y0053799D01*
X0072008Y0053683D01*
X0072166Y0053563D01*
X0072320Y0053439D01*
X0072472Y0053311D01*
X0072620Y0053180D01*
X0072765Y0053045D01*
X0072907Y0052907D01*
X0073045Y0052765D01*
X0073180Y0052620D01*
X0073311Y0052472D01*
X0073439Y0052320D01*
X0073563Y0052166D01*
X0073683Y0052008D01*
X0073799Y0051847D01*
X0073911Y0051684D01*
X0074019Y0051518D01*
X0074123Y0051349D01*
X0074222Y0051178D01*
X0074318Y0051005D01*
X0074409Y0050829D01*
X0074496Y0050651D01*
X0074579Y0050471D01*
X0074657Y0050289D01*
X0074730Y0050105D01*
X0074799Y0049919D01*
X0074864Y0049732D01*
X0074923Y0049543D01*
X0074979Y0049353D01*
X0075029Y0049161D01*
X0075075Y0048968D01*
X0075116Y0048775D01*
X0075152Y0048580D01*
X0075184Y0048384D01*
X0075210Y0048188D01*
X0075232Y0047991D01*
X0075249Y0047794D01*
X0075261Y0047596D01*
X0075269Y0047398D01*
X0075271Y0047200D01*
X0075269Y0047002D01*
X0075261Y0046804D01*
X0075249Y0046606D01*
X0075232Y0046409D01*
X0075210Y0046212D01*
X0075184Y0046016D01*
X0075152Y0045820D01*
X0075116Y0045625D01*
X0075075Y0045432D01*
X0075029Y0045239D01*
X0074979Y0045047D01*
X0074923Y0044857D01*
X0074864Y0044668D01*
X0074799Y0044481D01*
X0074730Y0044295D01*
X0074657Y0044111D01*
X0074579Y0043929D01*
X0074496Y0043749D01*
X0074409Y0043571D01*
X0074318Y0043395D01*
X0074222Y0043222D01*
X0074123Y0043051D01*
X0074019Y0042882D01*
X0073911Y0042716D01*
X0073799Y0042553D01*
X0073683Y0042392D01*
X0073563Y0042234D01*
X0073439Y0042080D01*
X0073311Y0041928D01*
X0073180Y0041780D01*
X0073045Y0041635D01*
X0072907Y0041493D01*
X0072765Y0041355D01*
X0072620Y0041220D01*
X0072472Y0041089D01*
X0072320Y0040961D01*
X0072166Y0040837D01*
X0072008Y0040717D01*
X0071847Y0040601D01*
X0071684Y0040489D01*
X0071518Y0040381D01*
X0071349Y0040277D01*
X0071178Y0040178D01*
X0071005Y0040082D01*
X0070829Y0039991D01*
X0070651Y0039904D01*
X0070471Y0039821D01*
X0070289Y0039743D01*
X0070105Y0039670D01*
X0069919Y0039601D01*
X0069732Y0039536D01*
X0069543Y0039477D01*
X0069353Y0039421D01*
X0069161Y0039371D01*
X0068968Y0039325D01*
X0068775Y0039284D01*
X0068580Y0039248D01*
X0068384Y0039216D01*
X0068188Y0039190D01*
X0067991Y0039168D01*
X0067794Y0039151D01*
X0067596Y0039139D01*
X0067398Y0039131D01*
X0067200Y0039129D01*
X0067002Y0039131D01*
X0066804Y0039139D01*
X0066606Y0039151D01*
X0066409Y0039168D01*
X0066212Y0039190D01*
X0066016Y0039216D01*
X0065820Y0039248D01*
X0065625Y0039284D01*
X0065432Y0039325D01*
X0065239Y0039371D01*
X0065047Y0039421D01*
X0064857Y0039477D01*
X0064668Y0039536D01*
X0064481Y0039601D01*
X0064295Y0039670D01*
X0064111Y0039743D01*
X0063929Y0039821D01*
X0063749Y0039904D01*
X0063571Y0039991D01*
X0063395Y0040082D01*
X0063222Y0040178D01*
X0063051Y0040277D01*
X0062882Y0040381D01*
X0062716Y0040489D01*
X0062553Y0040601D01*
X0062392Y0040717D01*
X0062234Y0040837D01*
X0062080Y0040961D01*
X0061928Y0041089D01*
X0061780Y0041220D01*
X0061635Y0041355D01*
X0061493Y0041493D01*
X0061355Y0041635D01*
X0061220Y0041780D01*
X0061089Y0041928D01*
X0060961Y0042080D01*
X0060837Y0042234D01*
X0060717Y0042392D01*
X0060601Y0042553D01*
X0060489Y0042716D01*
X0060381Y0042882D01*
X0060277Y0043051D01*
X0060178Y0043222D01*
X0060082Y0043395D01*
X0059991Y0043571D01*
X0059904Y0043749D01*
X0059821Y0043929D01*
X0059743Y0044111D01*
X0059670Y0044295D01*
X0059601Y0044481D01*
X0059536Y0044668D01*
X0059477Y0044857D01*
X0059421Y0045047D01*
X0059371Y0045239D01*
X0059325Y0045432D01*
X0059284Y0045625D01*
X0059248Y0045820D01*
X0059216Y0046016D01*
X0059190Y0046212D01*
X0059168Y0046409D01*
X0059151Y0046606D01*
X0059139Y0046804D01*
X0059131Y0047002D01*
X0059129Y0047200D01*
X0084129Y0162200D02*
X0084131Y0162398D01*
X0084139Y0162596D01*
X0084151Y0162794D01*
X0084168Y0162991D01*
X0084190Y0163188D01*
X0084216Y0163384D01*
X0084248Y0163580D01*
X0084284Y0163775D01*
X0084325Y0163968D01*
X0084371Y0164161D01*
X0084421Y0164353D01*
X0084477Y0164543D01*
X0084536Y0164732D01*
X0084601Y0164919D01*
X0084670Y0165105D01*
X0084743Y0165289D01*
X0084821Y0165471D01*
X0084904Y0165651D01*
X0084991Y0165829D01*
X0085082Y0166005D01*
X0085178Y0166178D01*
X0085277Y0166349D01*
X0085381Y0166518D01*
X0085489Y0166684D01*
X0085601Y0166847D01*
X0085717Y0167008D01*
X0085837Y0167166D01*
X0085961Y0167320D01*
X0086089Y0167472D01*
X0086220Y0167620D01*
X0086355Y0167765D01*
X0086493Y0167907D01*
X0086635Y0168045D01*
X0086780Y0168180D01*
X0086928Y0168311D01*
X0087080Y0168439D01*
X0087234Y0168563D01*
X0087392Y0168683D01*
X0087553Y0168799D01*
X0087716Y0168911D01*
X0087882Y0169019D01*
X0088051Y0169123D01*
X0088222Y0169222D01*
X0088395Y0169318D01*
X0088571Y0169409D01*
X0088749Y0169496D01*
X0088929Y0169579D01*
X0089111Y0169657D01*
X0089295Y0169730D01*
X0089481Y0169799D01*
X0089668Y0169864D01*
X0089857Y0169923D01*
X0090047Y0169979D01*
X0090239Y0170029D01*
X0090432Y0170075D01*
X0090625Y0170116D01*
X0090820Y0170152D01*
X0091016Y0170184D01*
X0091212Y0170210D01*
X0091409Y0170232D01*
X0091606Y0170249D01*
X0091804Y0170261D01*
X0092002Y0170269D01*
X0092200Y0170271D01*
X0092398Y0170269D01*
X0092596Y0170261D01*
X0092794Y0170249D01*
X0092991Y0170232D01*
X0093188Y0170210D01*
X0093384Y0170184D01*
X0093580Y0170152D01*
X0093775Y0170116D01*
X0093968Y0170075D01*
X0094161Y0170029D01*
X0094353Y0169979D01*
X0094543Y0169923D01*
X0094732Y0169864D01*
X0094919Y0169799D01*
X0095105Y0169730D01*
X0095289Y0169657D01*
X0095471Y0169579D01*
X0095651Y0169496D01*
X0095829Y0169409D01*
X0096005Y0169318D01*
X0096178Y0169222D01*
X0096349Y0169123D01*
X0096518Y0169019D01*
X0096684Y0168911D01*
X0096847Y0168799D01*
X0097008Y0168683D01*
X0097166Y0168563D01*
X0097320Y0168439D01*
X0097472Y0168311D01*
X0097620Y0168180D01*
X0097765Y0168045D01*
X0097907Y0167907D01*
X0098045Y0167765D01*
X0098180Y0167620D01*
X0098311Y0167472D01*
X0098439Y0167320D01*
X0098563Y0167166D01*
X0098683Y0167008D01*
X0098799Y0166847D01*
X0098911Y0166684D01*
X0099019Y0166518D01*
X0099123Y0166349D01*
X0099222Y0166178D01*
X0099318Y0166005D01*
X0099409Y0165829D01*
X0099496Y0165651D01*
X0099579Y0165471D01*
X0099657Y0165289D01*
X0099730Y0165105D01*
X0099799Y0164919D01*
X0099864Y0164732D01*
X0099923Y0164543D01*
X0099979Y0164353D01*
X0100029Y0164161D01*
X0100075Y0163968D01*
X0100116Y0163775D01*
X0100152Y0163580D01*
X0100184Y0163384D01*
X0100210Y0163188D01*
X0100232Y0162991D01*
X0100249Y0162794D01*
X0100261Y0162596D01*
X0100269Y0162398D01*
X0100271Y0162200D01*
X0100269Y0162002D01*
X0100261Y0161804D01*
X0100249Y0161606D01*
X0100232Y0161409D01*
X0100210Y0161212D01*
X0100184Y0161016D01*
X0100152Y0160820D01*
X0100116Y0160625D01*
X0100075Y0160432D01*
X0100029Y0160239D01*
X0099979Y0160047D01*
X0099923Y0159857D01*
X0099864Y0159668D01*
X0099799Y0159481D01*
X0099730Y0159295D01*
X0099657Y0159111D01*
X0099579Y0158929D01*
X0099496Y0158749D01*
X0099409Y0158571D01*
X0099318Y0158395D01*
X0099222Y0158222D01*
X0099123Y0158051D01*
X0099019Y0157882D01*
X0098911Y0157716D01*
X0098799Y0157553D01*
X0098683Y0157392D01*
X0098563Y0157234D01*
X0098439Y0157080D01*
X0098311Y0156928D01*
X0098180Y0156780D01*
X0098045Y0156635D01*
X0097907Y0156493D01*
X0097765Y0156355D01*
X0097620Y0156220D01*
X0097472Y0156089D01*
X0097320Y0155961D01*
X0097166Y0155837D01*
X0097008Y0155717D01*
X0096847Y0155601D01*
X0096684Y0155489D01*
X0096518Y0155381D01*
X0096349Y0155277D01*
X0096178Y0155178D01*
X0096005Y0155082D01*
X0095829Y0154991D01*
X0095651Y0154904D01*
X0095471Y0154821D01*
X0095289Y0154743D01*
X0095105Y0154670D01*
X0094919Y0154601D01*
X0094732Y0154536D01*
X0094543Y0154477D01*
X0094353Y0154421D01*
X0094161Y0154371D01*
X0093968Y0154325D01*
X0093775Y0154284D01*
X0093580Y0154248D01*
X0093384Y0154216D01*
X0093188Y0154190D01*
X0092991Y0154168D01*
X0092794Y0154151D01*
X0092596Y0154139D01*
X0092398Y0154131D01*
X0092200Y0154129D01*
X0092002Y0154131D01*
X0091804Y0154139D01*
X0091606Y0154151D01*
X0091409Y0154168D01*
X0091212Y0154190D01*
X0091016Y0154216D01*
X0090820Y0154248D01*
X0090625Y0154284D01*
X0090432Y0154325D01*
X0090239Y0154371D01*
X0090047Y0154421D01*
X0089857Y0154477D01*
X0089668Y0154536D01*
X0089481Y0154601D01*
X0089295Y0154670D01*
X0089111Y0154743D01*
X0088929Y0154821D01*
X0088749Y0154904D01*
X0088571Y0154991D01*
X0088395Y0155082D01*
X0088222Y0155178D01*
X0088051Y0155277D01*
X0087882Y0155381D01*
X0087716Y0155489D01*
X0087553Y0155601D01*
X0087392Y0155717D01*
X0087234Y0155837D01*
X0087080Y0155961D01*
X0086928Y0156089D01*
X0086780Y0156220D01*
X0086635Y0156355D01*
X0086493Y0156493D01*
X0086355Y0156635D01*
X0086220Y0156780D01*
X0086089Y0156928D01*
X0085961Y0157080D01*
X0085837Y0157234D01*
X0085717Y0157392D01*
X0085601Y0157553D01*
X0085489Y0157716D01*
X0085381Y0157882D01*
X0085277Y0158051D01*
X0085178Y0158222D01*
X0085082Y0158395D01*
X0084991Y0158571D01*
X0084904Y0158749D01*
X0084821Y0158929D01*
X0084743Y0159111D01*
X0084670Y0159295D01*
X0084601Y0159481D01*
X0084536Y0159668D01*
X0084477Y0159857D01*
X0084421Y0160047D01*
X0084371Y0160239D01*
X0084325Y0160432D01*
X0084284Y0160625D01*
X0084248Y0160820D01*
X0084216Y0161016D01*
X0084190Y0161212D01*
X0084168Y0161409D01*
X0084151Y0161606D01*
X0084139Y0161804D01*
X0084131Y0162002D01*
X0084129Y0162200D01*
X0174129Y0162200D02*
X0174131Y0162398D01*
X0174139Y0162596D01*
X0174151Y0162794D01*
X0174168Y0162991D01*
X0174190Y0163188D01*
X0174216Y0163384D01*
X0174248Y0163580D01*
X0174284Y0163775D01*
X0174325Y0163968D01*
X0174371Y0164161D01*
X0174421Y0164353D01*
X0174477Y0164543D01*
X0174536Y0164732D01*
X0174601Y0164919D01*
X0174670Y0165105D01*
X0174743Y0165289D01*
X0174821Y0165471D01*
X0174904Y0165651D01*
X0174991Y0165829D01*
X0175082Y0166005D01*
X0175178Y0166178D01*
X0175277Y0166349D01*
X0175381Y0166518D01*
X0175489Y0166684D01*
X0175601Y0166847D01*
X0175717Y0167008D01*
X0175837Y0167166D01*
X0175961Y0167320D01*
X0176089Y0167472D01*
X0176220Y0167620D01*
X0176355Y0167765D01*
X0176493Y0167907D01*
X0176635Y0168045D01*
X0176780Y0168180D01*
X0176928Y0168311D01*
X0177080Y0168439D01*
X0177234Y0168563D01*
X0177392Y0168683D01*
X0177553Y0168799D01*
X0177716Y0168911D01*
X0177882Y0169019D01*
X0178051Y0169123D01*
X0178222Y0169222D01*
X0178395Y0169318D01*
X0178571Y0169409D01*
X0178749Y0169496D01*
X0178929Y0169579D01*
X0179111Y0169657D01*
X0179295Y0169730D01*
X0179481Y0169799D01*
X0179668Y0169864D01*
X0179857Y0169923D01*
X0180047Y0169979D01*
X0180239Y0170029D01*
X0180432Y0170075D01*
X0180625Y0170116D01*
X0180820Y0170152D01*
X0181016Y0170184D01*
X0181212Y0170210D01*
X0181409Y0170232D01*
X0181606Y0170249D01*
X0181804Y0170261D01*
X0182002Y0170269D01*
X0182200Y0170271D01*
X0182398Y0170269D01*
X0182596Y0170261D01*
X0182794Y0170249D01*
X0182991Y0170232D01*
X0183188Y0170210D01*
X0183384Y0170184D01*
X0183580Y0170152D01*
X0183775Y0170116D01*
X0183968Y0170075D01*
X0184161Y0170029D01*
X0184353Y0169979D01*
X0184543Y0169923D01*
X0184732Y0169864D01*
X0184919Y0169799D01*
X0185105Y0169730D01*
X0185289Y0169657D01*
X0185471Y0169579D01*
X0185651Y0169496D01*
X0185829Y0169409D01*
X0186005Y0169318D01*
X0186178Y0169222D01*
X0186349Y0169123D01*
X0186518Y0169019D01*
X0186684Y0168911D01*
X0186847Y0168799D01*
X0187008Y0168683D01*
X0187166Y0168563D01*
X0187320Y0168439D01*
X0187472Y0168311D01*
X0187620Y0168180D01*
X0187765Y0168045D01*
X0187907Y0167907D01*
X0188045Y0167765D01*
X0188180Y0167620D01*
X0188311Y0167472D01*
X0188439Y0167320D01*
X0188563Y0167166D01*
X0188683Y0167008D01*
X0188799Y0166847D01*
X0188911Y0166684D01*
X0189019Y0166518D01*
X0189123Y0166349D01*
X0189222Y0166178D01*
X0189318Y0166005D01*
X0189409Y0165829D01*
X0189496Y0165651D01*
X0189579Y0165471D01*
X0189657Y0165289D01*
X0189730Y0165105D01*
X0189799Y0164919D01*
X0189864Y0164732D01*
X0189923Y0164543D01*
X0189979Y0164353D01*
X0190029Y0164161D01*
X0190075Y0163968D01*
X0190116Y0163775D01*
X0190152Y0163580D01*
X0190184Y0163384D01*
X0190210Y0163188D01*
X0190232Y0162991D01*
X0190249Y0162794D01*
X0190261Y0162596D01*
X0190269Y0162398D01*
X0190271Y0162200D01*
X0190269Y0162002D01*
X0190261Y0161804D01*
X0190249Y0161606D01*
X0190232Y0161409D01*
X0190210Y0161212D01*
X0190184Y0161016D01*
X0190152Y0160820D01*
X0190116Y0160625D01*
X0190075Y0160432D01*
X0190029Y0160239D01*
X0189979Y0160047D01*
X0189923Y0159857D01*
X0189864Y0159668D01*
X0189799Y0159481D01*
X0189730Y0159295D01*
X0189657Y0159111D01*
X0189579Y0158929D01*
X0189496Y0158749D01*
X0189409Y0158571D01*
X0189318Y0158395D01*
X0189222Y0158222D01*
X0189123Y0158051D01*
X0189019Y0157882D01*
X0188911Y0157716D01*
X0188799Y0157553D01*
X0188683Y0157392D01*
X0188563Y0157234D01*
X0188439Y0157080D01*
X0188311Y0156928D01*
X0188180Y0156780D01*
X0188045Y0156635D01*
X0187907Y0156493D01*
X0187765Y0156355D01*
X0187620Y0156220D01*
X0187472Y0156089D01*
X0187320Y0155961D01*
X0187166Y0155837D01*
X0187008Y0155717D01*
X0186847Y0155601D01*
X0186684Y0155489D01*
X0186518Y0155381D01*
X0186349Y0155277D01*
X0186178Y0155178D01*
X0186005Y0155082D01*
X0185829Y0154991D01*
X0185651Y0154904D01*
X0185471Y0154821D01*
X0185289Y0154743D01*
X0185105Y0154670D01*
X0184919Y0154601D01*
X0184732Y0154536D01*
X0184543Y0154477D01*
X0184353Y0154421D01*
X0184161Y0154371D01*
X0183968Y0154325D01*
X0183775Y0154284D01*
X0183580Y0154248D01*
X0183384Y0154216D01*
X0183188Y0154190D01*
X0182991Y0154168D01*
X0182794Y0154151D01*
X0182596Y0154139D01*
X0182398Y0154131D01*
X0182200Y0154129D01*
X0182002Y0154131D01*
X0181804Y0154139D01*
X0181606Y0154151D01*
X0181409Y0154168D01*
X0181212Y0154190D01*
X0181016Y0154216D01*
X0180820Y0154248D01*
X0180625Y0154284D01*
X0180432Y0154325D01*
X0180239Y0154371D01*
X0180047Y0154421D01*
X0179857Y0154477D01*
X0179668Y0154536D01*
X0179481Y0154601D01*
X0179295Y0154670D01*
X0179111Y0154743D01*
X0178929Y0154821D01*
X0178749Y0154904D01*
X0178571Y0154991D01*
X0178395Y0155082D01*
X0178222Y0155178D01*
X0178051Y0155277D01*
X0177882Y0155381D01*
X0177716Y0155489D01*
X0177553Y0155601D01*
X0177392Y0155717D01*
X0177234Y0155837D01*
X0177080Y0155961D01*
X0176928Y0156089D01*
X0176780Y0156220D01*
X0176635Y0156355D01*
X0176493Y0156493D01*
X0176355Y0156635D01*
X0176220Y0156780D01*
X0176089Y0156928D01*
X0175961Y0157080D01*
X0175837Y0157234D01*
X0175717Y0157392D01*
X0175601Y0157553D01*
X0175489Y0157716D01*
X0175381Y0157882D01*
X0175277Y0158051D01*
X0175178Y0158222D01*
X0175082Y0158395D01*
X0174991Y0158571D01*
X0174904Y0158749D01*
X0174821Y0158929D01*
X0174743Y0159111D01*
X0174670Y0159295D01*
X0174601Y0159481D01*
X0174536Y0159668D01*
X0174477Y0159857D01*
X0174421Y0160047D01*
X0174371Y0160239D01*
X0174325Y0160432D01*
X0174284Y0160625D01*
X0174248Y0160820D01*
X0174216Y0161016D01*
X0174190Y0161212D01*
X0174168Y0161409D01*
X0174151Y0161606D01*
X0174139Y0161804D01*
X0174131Y0162002D01*
X0174129Y0162200D01*
X0199129Y0047200D02*
X0199131Y0047398D01*
X0199139Y0047596D01*
X0199151Y0047794D01*
X0199168Y0047991D01*
X0199190Y0048188D01*
X0199216Y0048384D01*
X0199248Y0048580D01*
X0199284Y0048775D01*
X0199325Y0048968D01*
X0199371Y0049161D01*
X0199421Y0049353D01*
X0199477Y0049543D01*
X0199536Y0049732D01*
X0199601Y0049919D01*
X0199670Y0050105D01*
X0199743Y0050289D01*
X0199821Y0050471D01*
X0199904Y0050651D01*
X0199991Y0050829D01*
X0200082Y0051005D01*
X0200178Y0051178D01*
X0200277Y0051349D01*
X0200381Y0051518D01*
X0200489Y0051684D01*
X0200601Y0051847D01*
X0200717Y0052008D01*
X0200837Y0052166D01*
X0200961Y0052320D01*
X0201089Y0052472D01*
X0201220Y0052620D01*
X0201355Y0052765D01*
X0201493Y0052907D01*
X0201635Y0053045D01*
X0201780Y0053180D01*
X0201928Y0053311D01*
X0202080Y0053439D01*
X0202234Y0053563D01*
X0202392Y0053683D01*
X0202553Y0053799D01*
X0202716Y0053911D01*
X0202882Y0054019D01*
X0203051Y0054123D01*
X0203222Y0054222D01*
X0203395Y0054318D01*
X0203571Y0054409D01*
X0203749Y0054496D01*
X0203929Y0054579D01*
X0204111Y0054657D01*
X0204295Y0054730D01*
X0204481Y0054799D01*
X0204668Y0054864D01*
X0204857Y0054923D01*
X0205047Y0054979D01*
X0205239Y0055029D01*
X0205432Y0055075D01*
X0205625Y0055116D01*
X0205820Y0055152D01*
X0206016Y0055184D01*
X0206212Y0055210D01*
X0206409Y0055232D01*
X0206606Y0055249D01*
X0206804Y0055261D01*
X0207002Y0055269D01*
X0207200Y0055271D01*
X0207398Y0055269D01*
X0207596Y0055261D01*
X0207794Y0055249D01*
X0207991Y0055232D01*
X0208188Y0055210D01*
X0208384Y0055184D01*
X0208580Y0055152D01*
X0208775Y0055116D01*
X0208968Y0055075D01*
X0209161Y0055029D01*
X0209353Y0054979D01*
X0209543Y0054923D01*
X0209732Y0054864D01*
X0209919Y0054799D01*
X0210105Y0054730D01*
X0210289Y0054657D01*
X0210471Y0054579D01*
X0210651Y0054496D01*
X0210829Y0054409D01*
X0211005Y0054318D01*
X0211178Y0054222D01*
X0211349Y0054123D01*
X0211518Y0054019D01*
X0211684Y0053911D01*
X0211847Y0053799D01*
X0212008Y0053683D01*
X0212166Y0053563D01*
X0212320Y0053439D01*
X0212472Y0053311D01*
X0212620Y0053180D01*
X0212765Y0053045D01*
X0212907Y0052907D01*
X0213045Y0052765D01*
X0213180Y0052620D01*
X0213311Y0052472D01*
X0213439Y0052320D01*
X0213563Y0052166D01*
X0213683Y0052008D01*
X0213799Y0051847D01*
X0213911Y0051684D01*
X0214019Y0051518D01*
X0214123Y0051349D01*
X0214222Y0051178D01*
X0214318Y0051005D01*
X0214409Y0050829D01*
X0214496Y0050651D01*
X0214579Y0050471D01*
X0214657Y0050289D01*
X0214730Y0050105D01*
X0214799Y0049919D01*
X0214864Y0049732D01*
X0214923Y0049543D01*
X0214979Y0049353D01*
X0215029Y0049161D01*
X0215075Y0048968D01*
X0215116Y0048775D01*
X0215152Y0048580D01*
X0215184Y0048384D01*
X0215210Y0048188D01*
X0215232Y0047991D01*
X0215249Y0047794D01*
X0215261Y0047596D01*
X0215269Y0047398D01*
X0215271Y0047200D01*
X0215269Y0047002D01*
X0215261Y0046804D01*
X0215249Y0046606D01*
X0215232Y0046409D01*
X0215210Y0046212D01*
X0215184Y0046016D01*
X0215152Y0045820D01*
X0215116Y0045625D01*
X0215075Y0045432D01*
X0215029Y0045239D01*
X0214979Y0045047D01*
X0214923Y0044857D01*
X0214864Y0044668D01*
X0214799Y0044481D01*
X0214730Y0044295D01*
X0214657Y0044111D01*
X0214579Y0043929D01*
X0214496Y0043749D01*
X0214409Y0043571D01*
X0214318Y0043395D01*
X0214222Y0043222D01*
X0214123Y0043051D01*
X0214019Y0042882D01*
X0213911Y0042716D01*
X0213799Y0042553D01*
X0213683Y0042392D01*
X0213563Y0042234D01*
X0213439Y0042080D01*
X0213311Y0041928D01*
X0213180Y0041780D01*
X0213045Y0041635D01*
X0212907Y0041493D01*
X0212765Y0041355D01*
X0212620Y0041220D01*
X0212472Y0041089D01*
X0212320Y0040961D01*
X0212166Y0040837D01*
X0212008Y0040717D01*
X0211847Y0040601D01*
X0211684Y0040489D01*
X0211518Y0040381D01*
X0211349Y0040277D01*
X0211178Y0040178D01*
X0211005Y0040082D01*
X0210829Y0039991D01*
X0210651Y0039904D01*
X0210471Y0039821D01*
X0210289Y0039743D01*
X0210105Y0039670D01*
X0209919Y0039601D01*
X0209732Y0039536D01*
X0209543Y0039477D01*
X0209353Y0039421D01*
X0209161Y0039371D01*
X0208968Y0039325D01*
X0208775Y0039284D01*
X0208580Y0039248D01*
X0208384Y0039216D01*
X0208188Y0039190D01*
X0207991Y0039168D01*
X0207794Y0039151D01*
X0207596Y0039139D01*
X0207398Y0039131D01*
X0207200Y0039129D01*
X0207002Y0039131D01*
X0206804Y0039139D01*
X0206606Y0039151D01*
X0206409Y0039168D01*
X0206212Y0039190D01*
X0206016Y0039216D01*
X0205820Y0039248D01*
X0205625Y0039284D01*
X0205432Y0039325D01*
X0205239Y0039371D01*
X0205047Y0039421D01*
X0204857Y0039477D01*
X0204668Y0039536D01*
X0204481Y0039601D01*
X0204295Y0039670D01*
X0204111Y0039743D01*
X0203929Y0039821D01*
X0203749Y0039904D01*
X0203571Y0039991D01*
X0203395Y0040082D01*
X0203222Y0040178D01*
X0203051Y0040277D01*
X0202882Y0040381D01*
X0202716Y0040489D01*
X0202553Y0040601D01*
X0202392Y0040717D01*
X0202234Y0040837D01*
X0202080Y0040961D01*
X0201928Y0041089D01*
X0201780Y0041220D01*
X0201635Y0041355D01*
X0201493Y0041493D01*
X0201355Y0041635D01*
X0201220Y0041780D01*
X0201089Y0041928D01*
X0200961Y0042080D01*
X0200837Y0042234D01*
X0200717Y0042392D01*
X0200601Y0042553D01*
X0200489Y0042716D01*
X0200381Y0042882D01*
X0200277Y0043051D01*
X0200178Y0043222D01*
X0200082Y0043395D01*
X0199991Y0043571D01*
X0199904Y0043749D01*
X0199821Y0043929D01*
X0199743Y0044111D01*
X0199670Y0044295D01*
X0199601Y0044481D01*
X0199536Y0044668D01*
X0199477Y0044857D01*
X0199421Y0045047D01*
X0199371Y0045239D01*
X0199325Y0045432D01*
X0199284Y0045625D01*
X0199248Y0045820D01*
X0199216Y0046016D01*
X0199190Y0046212D01*
X0199168Y0046409D01*
X0199151Y0046606D01*
X0199139Y0046804D01*
X0199131Y0047002D01*
X0199129Y0047200D01*
D11*
X0258350Y0047357D02*
X0258350Y0046122D01*
X0258350Y0046739D02*
X0262053Y0046739D01*
X0262053Y0046122D02*
X0262053Y0047357D01*
X0262053Y0048578D02*
X0258350Y0048578D01*
X0258350Y0051046D02*
X0262053Y0051046D01*
X0262053Y0048578D02*
X0258350Y0051046D01*
X0259584Y0044908D02*
X0258350Y0043674D01*
X0259584Y0042439D01*
X0262053Y0042439D01*
X0262053Y0044908D02*
X0259584Y0044908D01*
X0262053Y0036660D02*
X0262053Y0034192D01*
X0262053Y0035426D02*
X0258350Y0035426D01*
X0258350Y0032977D02*
X0260819Y0032977D01*
X0262053Y0031743D01*
X0260819Y0030508D01*
X0258350Y0030508D01*
X0258967Y0029294D02*
X0261436Y0029294D01*
X0262053Y0028677D01*
X0262053Y0026825D01*
X0258350Y0026825D01*
X0258350Y0028677D01*
X0258967Y0029294D01*
X0260202Y0030508D02*
X0260202Y0032977D01*
X0258967Y0021660D02*
X0261436Y0021660D01*
X0262053Y0021043D01*
X0262053Y0019192D01*
X0258350Y0019192D01*
X0258350Y0021043D01*
X0258967Y0021660D01*
X0258350Y0017977D02*
X0262053Y0017977D01*
X0262053Y0015508D02*
X0258350Y0015508D01*
X0258967Y0014294D02*
X0260202Y0014294D01*
X0260202Y0013060D01*
X0261436Y0014294D02*
X0262053Y0013677D01*
X0262053Y0012442D01*
X0261436Y0011825D01*
X0258967Y0011825D01*
X0258350Y0012442D01*
X0258350Y0013677D01*
X0258967Y0014294D01*
X0262053Y0015508D02*
X0258350Y0017977D01*
X0258892Y0213350D02*
X0258892Y0217053D01*
X0256423Y0213350D01*
X0256423Y0217053D01*
X0255208Y0217053D02*
X0253357Y0217053D01*
X0252740Y0216436D01*
X0252740Y0213967D01*
X0253357Y0213350D01*
X0255208Y0213350D01*
X0255208Y0217053D01*
X0260106Y0216436D02*
X0260723Y0217053D01*
X0261958Y0217053D01*
X0262575Y0216436D01*
X0262575Y0213967D01*
X0261958Y0213350D01*
X0260723Y0213350D01*
X0260106Y0213967D01*
X0260106Y0215202D01*
X0261340Y0215202D01*
X0251961Y0228350D02*
X0250109Y0228350D01*
X0249492Y0228967D01*
X0249492Y0231436D01*
X0250109Y0232053D01*
X0251961Y0232053D01*
X0251961Y0228350D01*
X0248278Y0228350D02*
X0247043Y0228350D01*
X0247661Y0228350D02*
X0247661Y0232053D01*
X0248278Y0232053D02*
X0247043Y0232053D01*
X0245822Y0232053D02*
X0243354Y0228350D01*
X0243354Y0232053D01*
X0245822Y0232053D02*
X0245822Y0228350D01*
X0238892Y0217053D02*
X0236423Y0217053D01*
X0235208Y0217053D02*
X0235208Y0214584D01*
X0233974Y0213350D01*
X0232740Y0214584D01*
X0232740Y0217053D01*
X0236423Y0215202D02*
X0236423Y0213967D01*
X0237040Y0213350D01*
X0238274Y0213350D01*
X0238892Y0213967D01*
X0238892Y0215202D02*
X0237657Y0215819D01*
X0237040Y0215819D01*
X0236423Y0215202D01*
X0238892Y0215202D02*
X0238892Y0217053D01*
X0240106Y0215202D02*
X0242575Y0215202D01*
X0241340Y0216436D02*
X0241340Y0213967D01*
X0222575Y0213967D02*
X0221958Y0213350D01*
X0220723Y0213350D01*
X0220106Y0213967D01*
X0220106Y0215202D01*
X0221340Y0215202D01*
X0220106Y0216436D02*
X0220723Y0217053D01*
X0221958Y0217053D01*
X0222575Y0216436D01*
X0222575Y0213967D01*
X0218892Y0213350D02*
X0218892Y0217053D01*
X0216423Y0213350D01*
X0216423Y0217053D01*
X0215208Y0217053D02*
X0213357Y0217053D01*
X0212740Y0216436D01*
X0212740Y0213967D01*
X0213357Y0213350D01*
X0215208Y0213350D01*
X0215208Y0217053D01*
X0214416Y0228350D02*
X0212565Y0228350D01*
X0211948Y0228967D01*
X0211948Y0231436D01*
X0212565Y0232053D01*
X0214416Y0232053D01*
X0214416Y0228350D01*
X0210733Y0228967D02*
X0210116Y0228350D01*
X0208882Y0228350D01*
X0208264Y0228967D01*
X0208264Y0231436D01*
X0208882Y0232053D01*
X0210116Y0232053D01*
X0210733Y0231436D01*
X0210733Y0228967D01*
X0207050Y0228967D02*
X0206433Y0228350D01*
X0205198Y0228350D01*
X0204581Y0228967D01*
X0204581Y0232053D01*
X0203367Y0232053D02*
X0200898Y0232053D01*
X0202132Y0232053D02*
X0202132Y0228350D01*
X0207050Y0228967D02*
X0207050Y0232053D01*
X0198892Y0217053D02*
X0196423Y0217053D01*
X0195208Y0217053D02*
X0195208Y0214584D01*
X0193974Y0213350D01*
X0192740Y0214584D01*
X0192740Y0217053D01*
X0196423Y0215202D02*
X0196423Y0213967D01*
X0197040Y0213350D01*
X0198274Y0213350D01*
X0198892Y0213967D01*
X0198892Y0215202D02*
X0197657Y0215819D01*
X0197040Y0215819D01*
X0196423Y0215202D01*
X0198892Y0215202D02*
X0198892Y0217053D01*
X0200106Y0215202D02*
X0202575Y0215202D01*
X0201340Y0216436D02*
X0201340Y0213967D01*
X0172575Y0213967D02*
X0171958Y0213350D01*
X0170723Y0213350D01*
X0170106Y0213967D01*
X0170106Y0215202D01*
X0171340Y0215202D01*
X0170106Y0216436D02*
X0170723Y0217053D01*
X0171958Y0217053D01*
X0172575Y0216436D01*
X0172575Y0213967D01*
X0168892Y0213350D02*
X0168892Y0217053D01*
X0166423Y0213350D01*
X0166423Y0217053D01*
X0165208Y0217053D02*
X0163357Y0217053D01*
X0162740Y0216436D01*
X0162740Y0213967D01*
X0163357Y0213350D01*
X0165208Y0213350D01*
X0165208Y0217053D01*
X0161961Y0228350D02*
X0160109Y0228350D01*
X0159492Y0228967D01*
X0159492Y0231436D01*
X0160109Y0232053D01*
X0161961Y0232053D01*
X0161961Y0228350D01*
X0158278Y0228350D02*
X0157043Y0228350D01*
X0157661Y0228350D02*
X0157661Y0232053D01*
X0158278Y0232053D02*
X0157043Y0232053D01*
X0155822Y0232053D02*
X0153354Y0228350D01*
X0153354Y0232053D01*
X0155822Y0232053D02*
X0155822Y0228350D01*
X0148892Y0217053D02*
X0146423Y0217053D01*
X0145208Y0217053D02*
X0145208Y0214584D01*
X0143974Y0213350D01*
X0142740Y0214584D01*
X0142740Y0217053D01*
X0146423Y0215202D02*
X0146423Y0213967D01*
X0147040Y0213350D01*
X0148274Y0213350D01*
X0148892Y0213967D01*
X0148892Y0215202D02*
X0147657Y0215819D01*
X0147040Y0215819D01*
X0146423Y0215202D01*
X0148892Y0215202D02*
X0148892Y0217053D01*
X0150106Y0215202D02*
X0152575Y0215202D01*
X0151340Y0216436D02*
X0151340Y0213967D01*
X0132575Y0213967D02*
X0131958Y0213350D01*
X0130723Y0213350D01*
X0130106Y0213967D01*
X0130106Y0215202D01*
X0131340Y0215202D01*
X0130106Y0216436D02*
X0130723Y0217053D01*
X0131958Y0217053D01*
X0132575Y0216436D01*
X0132575Y0213967D01*
X0128892Y0213350D02*
X0128892Y0217053D01*
X0126423Y0213350D01*
X0126423Y0217053D01*
X0125208Y0217053D02*
X0123357Y0217053D01*
X0122740Y0216436D01*
X0122740Y0213967D01*
X0123357Y0213350D01*
X0125208Y0213350D01*
X0125208Y0217053D01*
X0124416Y0228350D02*
X0122565Y0228350D01*
X0121948Y0228967D01*
X0121948Y0231436D01*
X0122565Y0232053D01*
X0124416Y0232053D01*
X0124416Y0228350D01*
X0120733Y0228967D02*
X0120116Y0228350D01*
X0118882Y0228350D01*
X0118264Y0228967D01*
X0118264Y0231436D01*
X0118882Y0232053D01*
X0120116Y0232053D01*
X0120733Y0231436D01*
X0120733Y0228967D01*
X0117050Y0228967D02*
X0116433Y0228350D01*
X0115198Y0228350D01*
X0114581Y0228967D01*
X0114581Y0232053D01*
X0113367Y0232053D02*
X0110898Y0232053D01*
X0112132Y0232053D02*
X0112132Y0228350D01*
X0117050Y0228967D02*
X0117050Y0232053D01*
X0108892Y0217053D02*
X0106423Y0217053D01*
X0105208Y0217053D02*
X0105208Y0214584D01*
X0103974Y0213350D01*
X0102740Y0214584D01*
X0102740Y0217053D01*
X0106423Y0215202D02*
X0106423Y0213967D01*
X0107040Y0213350D01*
X0108274Y0213350D01*
X0108892Y0213967D01*
X0108892Y0215202D02*
X0107657Y0215819D01*
X0107040Y0215819D01*
X0106423Y0215202D01*
X0108892Y0215202D02*
X0108892Y0217053D01*
X0110106Y0215202D02*
X0112575Y0215202D01*
X0111340Y0216436D02*
X0111340Y0213967D01*
X0082575Y0213967D02*
X0081958Y0213350D01*
X0080723Y0213350D01*
X0080106Y0213967D01*
X0080106Y0215202D01*
X0081340Y0215202D01*
X0080106Y0216436D02*
X0080723Y0217053D01*
X0081958Y0217053D01*
X0082575Y0216436D01*
X0082575Y0213967D01*
X0078892Y0213350D02*
X0078892Y0217053D01*
X0076423Y0213350D01*
X0076423Y0217053D01*
X0075208Y0217053D02*
X0073357Y0217053D01*
X0072740Y0216436D01*
X0072740Y0213967D01*
X0073357Y0213350D01*
X0075208Y0213350D01*
X0075208Y0217053D01*
X0071961Y0228350D02*
X0070109Y0228350D01*
X0069492Y0228967D01*
X0069492Y0231436D01*
X0070109Y0232053D01*
X0071961Y0232053D01*
X0071961Y0228350D01*
X0068278Y0228350D02*
X0067043Y0228350D01*
X0067661Y0228350D02*
X0067661Y0232053D01*
X0068278Y0232053D02*
X0067043Y0232053D01*
X0065822Y0232053D02*
X0063354Y0228350D01*
X0063354Y0232053D01*
X0065822Y0232053D02*
X0065822Y0228350D01*
X0058892Y0217053D02*
X0056423Y0217053D01*
X0055208Y0217053D02*
X0055208Y0214584D01*
X0053974Y0213350D01*
X0052740Y0214584D01*
X0052740Y0217053D01*
X0056423Y0215202D02*
X0056423Y0213967D01*
X0057040Y0213350D01*
X0058274Y0213350D01*
X0058892Y0213967D01*
X0058892Y0215202D02*
X0057657Y0215819D01*
X0057040Y0215819D01*
X0056423Y0215202D01*
X0058892Y0215202D02*
X0058892Y0217053D01*
X0060106Y0215202D02*
X0062575Y0215202D01*
X0061340Y0216436D02*
X0061340Y0213967D01*
X0042575Y0213967D02*
X0041958Y0213350D01*
X0040723Y0213350D01*
X0040106Y0213967D01*
X0040106Y0215202D01*
X0041340Y0215202D01*
X0040106Y0216436D02*
X0040723Y0217053D01*
X0041958Y0217053D01*
X0042575Y0216436D01*
X0042575Y0213967D01*
X0038892Y0213350D02*
X0038892Y0217053D01*
X0036423Y0213350D01*
X0036423Y0217053D01*
X0035208Y0217053D02*
X0033357Y0217053D01*
X0032740Y0216436D01*
X0032740Y0213967D01*
X0033357Y0213350D01*
X0035208Y0213350D01*
X0035208Y0217053D01*
X0034416Y0228350D02*
X0032565Y0228350D01*
X0031948Y0228967D01*
X0031948Y0231436D01*
X0032565Y0232053D01*
X0034416Y0232053D01*
X0034416Y0228350D01*
X0030733Y0228967D02*
X0030116Y0228350D01*
X0028882Y0228350D01*
X0028264Y0228967D01*
X0028264Y0231436D01*
X0028882Y0232053D01*
X0030116Y0232053D01*
X0030733Y0231436D01*
X0030733Y0228967D01*
X0027050Y0228967D02*
X0026433Y0228350D01*
X0025198Y0228350D01*
X0024581Y0228967D01*
X0024581Y0232053D01*
X0023367Y0232053D02*
X0020898Y0232053D01*
X0022132Y0232053D02*
X0022132Y0228350D01*
X0027050Y0228967D02*
X0027050Y0232053D01*
X0018892Y0217053D02*
X0018892Y0215202D01*
X0017657Y0215819D01*
X0017040Y0215819D01*
X0016423Y0215202D01*
X0016423Y0213967D01*
X0017040Y0213350D01*
X0018274Y0213350D01*
X0018892Y0213967D01*
X0020106Y0215202D02*
X0022575Y0215202D01*
X0021340Y0216436D02*
X0021340Y0213967D01*
X0018892Y0217053D02*
X0016423Y0217053D01*
X0015208Y0217053D02*
X0015208Y0214584D01*
X0013974Y0213350D01*
X0012740Y0214584D01*
X0012740Y0217053D01*
X0012053Y0051046D02*
X0008350Y0051046D01*
X0012053Y0048578D01*
X0008350Y0048578D01*
X0008350Y0047357D02*
X0008350Y0046122D01*
X0008350Y0046739D02*
X0012053Y0046739D01*
X0012053Y0046122D02*
X0012053Y0047357D01*
X0012053Y0044908D02*
X0009584Y0044908D01*
X0008350Y0043674D01*
X0009584Y0042439D01*
X0012053Y0042439D01*
X0012053Y0036660D02*
X0012053Y0034192D01*
X0012053Y0035426D02*
X0008350Y0035426D01*
X0008350Y0032977D02*
X0010819Y0032977D01*
X0012053Y0031743D01*
X0010819Y0030508D01*
X0008350Y0030508D01*
X0008967Y0029294D02*
X0011436Y0029294D01*
X0012053Y0028677D01*
X0012053Y0026825D01*
X0008350Y0026825D01*
X0008350Y0028677D01*
X0008967Y0029294D01*
X0010202Y0030508D02*
X0010202Y0032977D01*
X0008967Y0021660D02*
X0011436Y0021660D01*
X0012053Y0021043D01*
X0012053Y0019192D01*
X0008350Y0019192D01*
X0008350Y0021043D01*
X0008967Y0021660D01*
X0008350Y0017977D02*
X0012053Y0017977D01*
X0012053Y0015508D02*
X0008350Y0015508D01*
X0008967Y0014294D02*
X0010202Y0014294D01*
X0010202Y0013060D01*
X0011436Y0014294D02*
X0012053Y0013677D01*
X0012053Y0012442D01*
X0011436Y0011825D01*
X0008967Y0011825D01*
X0008350Y0012442D01*
X0008350Y0013677D01*
X0008967Y0014294D01*
X0012053Y0015508D02*
X0008350Y0017977D01*
D12*
X0047224Y0080865D02*
X0046456Y0081633D01*
X0046456Y0085469D01*
X0048758Y0085469D01*
X0049526Y0084702D01*
X0049526Y0083167D01*
X0048758Y0082400D01*
X0046456Y0082400D01*
X0044922Y0082400D02*
X0041852Y0084702D01*
X0044922Y0087004D01*
X0051060Y0085469D02*
X0051828Y0085469D01*
X0053362Y0083935D01*
X0053362Y0085469D02*
X0053362Y0082400D01*
X0054897Y0083167D02*
X0054897Y0084702D01*
X0055664Y0085469D01*
X0057199Y0085469D01*
X0057966Y0084702D01*
X0057966Y0083167D01*
X0057199Y0082400D01*
X0055664Y0082400D01*
X0054897Y0083167D01*
X0059501Y0083167D02*
X0059501Y0082400D01*
X0060268Y0082400D01*
X0060268Y0083167D01*
X0059501Y0083167D01*
X0061803Y0082400D02*
X0064105Y0082400D01*
X0064872Y0083167D01*
X0064872Y0085469D01*
X0066407Y0084702D02*
X0066407Y0083935D01*
X0069476Y0083935D01*
X0069476Y0084702D02*
X0068709Y0085469D01*
X0067174Y0085469D01*
X0066407Y0084702D01*
X0067174Y0082400D02*
X0068709Y0082400D01*
X0069476Y0083167D01*
X0069476Y0084702D01*
X0071011Y0082400D02*
X0072545Y0082400D01*
X0071778Y0082400D02*
X0071778Y0087004D01*
X0072545Y0087004D01*
X0074080Y0087004D02*
X0074080Y0082400D01*
X0076382Y0082400D01*
X0077149Y0083167D01*
X0077149Y0084702D01*
X0076382Y0085469D01*
X0074080Y0085469D01*
X0078684Y0085469D02*
X0079451Y0085469D01*
X0080986Y0083935D01*
X0080986Y0085469D02*
X0080986Y0082400D01*
X0082520Y0082400D02*
X0082520Y0084702D01*
X0083288Y0085469D01*
X0084822Y0085469D01*
X0084822Y0083935D02*
X0082520Y0083935D01*
X0082520Y0082400D02*
X0084822Y0082400D01*
X0085590Y0083167D01*
X0084822Y0083935D01*
X0087124Y0083167D02*
X0087124Y0085469D01*
X0087124Y0083167D02*
X0087892Y0082400D01*
X0088659Y0083167D01*
X0089426Y0082400D01*
X0090194Y0083167D01*
X0090194Y0085469D01*
X0091728Y0084702D02*
X0092496Y0083935D01*
X0092496Y0085469D01*
X0094030Y0085469D01*
X0094030Y0083935D01*
X0092496Y0083935D01*
X0091728Y0084702D02*
X0091728Y0086237D01*
X0092496Y0087004D01*
X0094030Y0087004D01*
X0094798Y0086237D01*
X0094798Y0083167D01*
X0094030Y0082400D01*
X0092496Y0082400D01*
X0091728Y0083167D01*
X0096332Y0083167D02*
X0096332Y0085469D01*
X0096332Y0083167D02*
X0097100Y0082400D01*
X0097867Y0083167D01*
X0098634Y0082400D01*
X0099402Y0083167D01*
X0099402Y0085469D01*
X0100936Y0084702D02*
X0101703Y0085469D01*
X0104005Y0085469D01*
X0104005Y0087004D02*
X0104005Y0082400D01*
X0101703Y0082400D01*
X0100936Y0083167D01*
X0100936Y0084702D01*
X0105540Y0084702D02*
X0105540Y0082400D01*
X0107842Y0082400D01*
X0108609Y0083167D01*
X0107842Y0083935D01*
X0105540Y0083935D01*
X0105540Y0084702D02*
X0106307Y0085469D01*
X0107842Y0085469D01*
X0110144Y0087004D02*
X0113213Y0084702D01*
X0110144Y0082400D01*
X0119352Y0084702D02*
X0122421Y0084702D01*
X0128560Y0085469D02*
X0128560Y0081633D01*
X0129327Y0080865D01*
X0130094Y0080865D01*
X0130862Y0082400D02*
X0128560Y0082400D01*
X0130862Y0082400D02*
X0131629Y0083167D01*
X0131629Y0085469D01*
X0133164Y0084702D02*
X0133164Y0083935D01*
X0136233Y0083935D01*
X0136233Y0084702D02*
X0135466Y0085469D01*
X0133931Y0085469D01*
X0133164Y0084702D01*
X0133931Y0082400D02*
X0135466Y0082400D01*
X0136233Y0083167D01*
X0136233Y0084702D01*
X0137768Y0082400D02*
X0139302Y0082400D01*
X0138535Y0082400D02*
X0138535Y0087004D01*
X0139302Y0087004D01*
X0140837Y0087004D02*
X0140837Y0082400D01*
X0143139Y0082400D01*
X0143906Y0083167D01*
X0143906Y0084702D01*
X0143139Y0085469D01*
X0140837Y0085469D01*
X0145441Y0085469D02*
X0146208Y0085469D01*
X0147743Y0083935D01*
X0147743Y0085469D02*
X0147743Y0082400D01*
X0149277Y0082400D02*
X0151579Y0082400D01*
X0152347Y0083167D01*
X0151579Y0083935D01*
X0149277Y0083935D01*
X0149277Y0084702D02*
X0149277Y0082400D01*
X0149277Y0084702D02*
X0150045Y0085469D01*
X0151579Y0085469D01*
X0153881Y0087004D02*
X0153881Y0082400D01*
X0155416Y0083935D01*
X0156951Y0082400D01*
X0156951Y0087004D01*
X0163089Y0085469D02*
X0163089Y0081633D01*
X0163856Y0080865D01*
X0164624Y0080865D01*
X0165391Y0082400D02*
X0163089Y0082400D01*
X0165391Y0082400D02*
X0166158Y0083167D01*
X0166158Y0085469D01*
X0167693Y0085469D02*
X0169995Y0085469D01*
X0170762Y0084702D01*
X0170762Y0083167D01*
X0169995Y0082400D01*
X0167693Y0082400D01*
X0167693Y0087004D01*
X0172297Y0084702D02*
X0172297Y0082400D01*
X0172297Y0084702D02*
X0173064Y0085469D01*
X0175366Y0085469D01*
X0175366Y0082400D01*
X0176901Y0082400D02*
X0176901Y0085469D01*
X0178436Y0087004D01*
X0179970Y0085469D01*
X0179970Y0082400D01*
X0179970Y0084702D02*
X0176901Y0084702D01*
X0186109Y0085469D02*
X0186109Y0081633D01*
X0186876Y0080865D01*
X0187643Y0080865D01*
X0188411Y0082400D02*
X0186109Y0082400D01*
X0188411Y0082400D02*
X0189178Y0083167D01*
X0189178Y0085469D01*
X0190713Y0084702D02*
X0191480Y0085469D01*
X0193782Y0085469D01*
X0193782Y0087004D02*
X0193782Y0082400D01*
X0191480Y0082400D01*
X0190713Y0083167D01*
X0190713Y0084702D01*
X0199921Y0085469D02*
X0202222Y0085469D01*
X0202990Y0084702D01*
X0202990Y0083167D01*
X0202222Y0082400D01*
X0199921Y0082400D01*
X0199921Y0087004D01*
X0204524Y0084702D02*
X0204524Y0083935D01*
X0207594Y0083935D01*
X0207594Y0084702D02*
X0206826Y0085469D01*
X0205292Y0085469D01*
X0204524Y0084702D01*
X0205292Y0082400D02*
X0206826Y0082400D01*
X0207594Y0083167D01*
X0207594Y0084702D01*
X0209128Y0084702D02*
X0209128Y0082400D01*
X0209128Y0084702D02*
X0209896Y0085469D01*
X0212198Y0085469D01*
X0212198Y0082400D01*
X0213732Y0082400D02*
X0216034Y0082400D01*
X0216802Y0083167D01*
X0216802Y0084702D01*
X0216034Y0085469D01*
X0213732Y0085469D01*
X0213732Y0081633D01*
X0214500Y0080865D01*
X0215267Y0080865D01*
X0218336Y0082400D02*
X0219871Y0082400D01*
X0219104Y0082400D02*
X0219104Y0085469D01*
X0219871Y0085469D01*
X0221405Y0085469D02*
X0223707Y0085469D01*
X0224475Y0084702D01*
X0223707Y0083935D01*
X0222173Y0083935D01*
X0221405Y0083167D01*
X0222173Y0082400D01*
X0224475Y0082400D01*
X0226009Y0083935D02*
X0229079Y0083935D01*
X0229079Y0084702D02*
X0228311Y0085469D01*
X0226777Y0085469D01*
X0226009Y0084702D01*
X0226009Y0083935D01*
X0226777Y0082400D02*
X0228311Y0082400D01*
X0229079Y0083167D01*
X0229079Y0084702D01*
X0230613Y0083167D02*
X0230613Y0086237D01*
X0231381Y0087004D01*
X0233683Y0087004D01*
X0233683Y0082400D01*
X0231381Y0082400D01*
X0230613Y0083167D01*
X0219104Y0087004D02*
X0219104Y0087771D01*
X0063337Y0080865D02*
X0062570Y0080865D01*
X0061803Y0081633D01*
X0061803Y0085469D01*
X0047991Y0080865D02*
X0047224Y0080865D01*
D13*
X0047200Y0097200D02*
X0087200Y0097200D01*
X0087442Y0097203D01*
X0087683Y0097212D01*
X0087924Y0097226D01*
X0088165Y0097247D01*
X0088405Y0097273D01*
X0088645Y0097305D01*
X0088884Y0097343D01*
X0089121Y0097386D01*
X0089358Y0097436D01*
X0089593Y0097491D01*
X0089827Y0097551D01*
X0090059Y0097618D01*
X0090290Y0097689D01*
X0090519Y0097767D01*
X0090746Y0097850D01*
X0090971Y0097938D01*
X0091194Y0098032D01*
X0091414Y0098131D01*
X0091632Y0098236D01*
X0091847Y0098345D01*
X0092060Y0098460D01*
X0092270Y0098580D01*
X0092476Y0098705D01*
X0092680Y0098835D01*
X0092881Y0098970D01*
X0093078Y0099110D01*
X0093272Y0099254D01*
X0093462Y0099403D01*
X0093648Y0099557D01*
X0093831Y0099715D01*
X0094010Y0099877D01*
X0094185Y0100044D01*
X0094356Y0100215D01*
X0094523Y0100390D01*
X0094685Y0100569D01*
X0094843Y0100752D01*
X0094997Y0100938D01*
X0095146Y0101128D01*
X0095290Y0101322D01*
X0095430Y0101519D01*
X0095565Y0101720D01*
X0095695Y0101924D01*
X0095820Y0102130D01*
X0095940Y0102340D01*
X0096055Y0102553D01*
X0096164Y0102768D01*
X0096269Y0102986D01*
X0096368Y0103206D01*
X0096462Y0103429D01*
X0096550Y0103654D01*
X0096633Y0103881D01*
X0096711Y0104110D01*
X0096782Y0104341D01*
X0096849Y0104573D01*
X0096909Y0104807D01*
X0096964Y0105042D01*
X0097014Y0105279D01*
X0097057Y0105516D01*
X0097095Y0105755D01*
X0097127Y0105995D01*
X0097153Y0106235D01*
X0097174Y0106476D01*
X0097188Y0106717D01*
X0097197Y0106958D01*
X0097200Y0107200D01*
X0097200Y0132200D01*
X0097198Y0132340D01*
X0097192Y0132480D01*
X0097182Y0132620D01*
X0097169Y0132760D01*
X0097151Y0132899D01*
X0097129Y0133038D01*
X0097104Y0133175D01*
X0097075Y0133313D01*
X0097042Y0133449D01*
X0097005Y0133584D01*
X0096964Y0133718D01*
X0096919Y0133851D01*
X0096871Y0133983D01*
X0096819Y0134113D01*
X0096764Y0134242D01*
X0096705Y0134369D01*
X0096642Y0134495D01*
X0096576Y0134619D01*
X0096507Y0134740D01*
X0096434Y0134860D01*
X0096357Y0134978D01*
X0096278Y0135093D01*
X0096195Y0135207D01*
X0096109Y0135317D01*
X0096020Y0135426D01*
X0095928Y0135532D01*
X0095833Y0135635D01*
X0095736Y0135736D01*
X0095635Y0135833D01*
X0095532Y0135928D01*
X0095426Y0136020D01*
X0095317Y0136109D01*
X0095207Y0136195D01*
X0095093Y0136278D01*
X0094978Y0136357D01*
X0094860Y0136434D01*
X0094740Y0136507D01*
X0094619Y0136576D01*
X0094495Y0136642D01*
X0094369Y0136705D01*
X0094242Y0136764D01*
X0094113Y0136819D01*
X0093983Y0136871D01*
X0093851Y0136919D01*
X0093718Y0136964D01*
X0093584Y0137005D01*
X0093449Y0137042D01*
X0093313Y0137075D01*
X0093175Y0137104D01*
X0093038Y0137129D01*
X0092899Y0137151D01*
X0092760Y0137169D01*
X0092620Y0137182D01*
X0092480Y0137192D01*
X0092340Y0137198D01*
X0092200Y0137200D01*
X0092060Y0137198D01*
X0091920Y0137192D01*
X0091780Y0137182D01*
X0091640Y0137169D01*
X0091501Y0137151D01*
X0091362Y0137129D01*
X0091225Y0137104D01*
X0091087Y0137075D01*
X0090951Y0137042D01*
X0090816Y0137005D01*
X0090682Y0136964D01*
X0090549Y0136919D01*
X0090417Y0136871D01*
X0090287Y0136819D01*
X0090158Y0136764D01*
X0090031Y0136705D01*
X0089905Y0136642D01*
X0089781Y0136576D01*
X0089660Y0136507D01*
X0089540Y0136434D01*
X0089422Y0136357D01*
X0089307Y0136278D01*
X0089193Y0136195D01*
X0089083Y0136109D01*
X0088974Y0136020D01*
X0088868Y0135928D01*
X0088765Y0135833D01*
X0088664Y0135736D01*
X0088567Y0135635D01*
X0088472Y0135532D01*
X0088380Y0135426D01*
X0088291Y0135317D01*
X0088205Y0135207D01*
X0088122Y0135093D01*
X0088043Y0134978D01*
X0087966Y0134860D01*
X0087893Y0134740D01*
X0087824Y0134619D01*
X0087758Y0134495D01*
X0087695Y0134369D01*
X0087636Y0134242D01*
X0087581Y0134113D01*
X0087529Y0133983D01*
X0087481Y0133851D01*
X0087436Y0133718D01*
X0087395Y0133584D01*
X0087358Y0133449D01*
X0087325Y0133313D01*
X0087296Y0133175D01*
X0087271Y0133038D01*
X0087249Y0132899D01*
X0087231Y0132760D01*
X0087218Y0132620D01*
X0087208Y0132480D01*
X0087202Y0132340D01*
X0087200Y0132200D01*
X0087200Y0112200D01*
X0087198Y0112060D01*
X0087192Y0111920D01*
X0087182Y0111780D01*
X0087169Y0111640D01*
X0087151Y0111501D01*
X0087129Y0111362D01*
X0087104Y0111225D01*
X0087075Y0111087D01*
X0087042Y0110951D01*
X0087005Y0110816D01*
X0086964Y0110682D01*
X0086919Y0110549D01*
X0086871Y0110417D01*
X0086819Y0110287D01*
X0086764Y0110158D01*
X0086705Y0110031D01*
X0086642Y0109905D01*
X0086576Y0109781D01*
X0086507Y0109660D01*
X0086434Y0109540D01*
X0086357Y0109422D01*
X0086278Y0109307D01*
X0086195Y0109193D01*
X0086109Y0109083D01*
X0086020Y0108974D01*
X0085928Y0108868D01*
X0085833Y0108765D01*
X0085736Y0108664D01*
X0085635Y0108567D01*
X0085532Y0108472D01*
X0085426Y0108380D01*
X0085317Y0108291D01*
X0085207Y0108205D01*
X0085093Y0108122D01*
X0084978Y0108043D01*
X0084860Y0107966D01*
X0084740Y0107893D01*
X0084619Y0107824D01*
X0084495Y0107758D01*
X0084369Y0107695D01*
X0084242Y0107636D01*
X0084113Y0107581D01*
X0083983Y0107529D01*
X0083851Y0107481D01*
X0083718Y0107436D01*
X0083584Y0107395D01*
X0083449Y0107358D01*
X0083313Y0107325D01*
X0083175Y0107296D01*
X0083038Y0107271D01*
X0082899Y0107249D01*
X0082760Y0107231D01*
X0082620Y0107218D01*
X0082480Y0107208D01*
X0082340Y0107202D01*
X0082200Y0107200D01*
X0072200Y0107200D01*
X0072200Y0117200D01*
X0072198Y0117340D01*
X0072192Y0117480D01*
X0072182Y0117620D01*
X0072169Y0117760D01*
X0072151Y0117899D01*
X0072129Y0118038D01*
X0072104Y0118175D01*
X0072075Y0118313D01*
X0072042Y0118449D01*
X0072005Y0118584D01*
X0071964Y0118718D01*
X0071919Y0118851D01*
X0071871Y0118983D01*
X0071819Y0119113D01*
X0071764Y0119242D01*
X0071705Y0119369D01*
X0071642Y0119495D01*
X0071576Y0119619D01*
X0071507Y0119740D01*
X0071434Y0119860D01*
X0071357Y0119978D01*
X0071278Y0120093D01*
X0071195Y0120207D01*
X0071109Y0120317D01*
X0071020Y0120426D01*
X0070928Y0120532D01*
X0070833Y0120635D01*
X0070736Y0120736D01*
X0070635Y0120833D01*
X0070532Y0120928D01*
X0070426Y0121020D01*
X0070317Y0121109D01*
X0070207Y0121195D01*
X0070093Y0121278D01*
X0069978Y0121357D01*
X0069860Y0121434D01*
X0069740Y0121507D01*
X0069619Y0121576D01*
X0069495Y0121642D01*
X0069369Y0121705D01*
X0069242Y0121764D01*
X0069113Y0121819D01*
X0068983Y0121871D01*
X0068851Y0121919D01*
X0068718Y0121964D01*
X0068584Y0122005D01*
X0068449Y0122042D01*
X0068313Y0122075D01*
X0068175Y0122104D01*
X0068038Y0122129D01*
X0067899Y0122151D01*
X0067760Y0122169D01*
X0067620Y0122182D01*
X0067480Y0122192D01*
X0067340Y0122198D01*
X0067200Y0122200D01*
X0067060Y0122198D01*
X0066920Y0122192D01*
X0066780Y0122182D01*
X0066640Y0122169D01*
X0066501Y0122151D01*
X0066362Y0122129D01*
X0066225Y0122104D01*
X0066087Y0122075D01*
X0065951Y0122042D01*
X0065816Y0122005D01*
X0065682Y0121964D01*
X0065549Y0121919D01*
X0065417Y0121871D01*
X0065287Y0121819D01*
X0065158Y0121764D01*
X0065031Y0121705D01*
X0064905Y0121642D01*
X0064781Y0121576D01*
X0064660Y0121507D01*
X0064540Y0121434D01*
X0064422Y0121357D01*
X0064307Y0121278D01*
X0064193Y0121195D01*
X0064083Y0121109D01*
X0063974Y0121020D01*
X0063868Y0120928D01*
X0063765Y0120833D01*
X0063664Y0120736D01*
X0063567Y0120635D01*
X0063472Y0120532D01*
X0063380Y0120426D01*
X0063291Y0120317D01*
X0063205Y0120207D01*
X0063122Y0120093D01*
X0063043Y0119978D01*
X0062966Y0119860D01*
X0062893Y0119740D01*
X0062824Y0119619D01*
X0062758Y0119495D01*
X0062695Y0119369D01*
X0062636Y0119242D01*
X0062581Y0119113D01*
X0062529Y0118983D01*
X0062481Y0118851D01*
X0062436Y0118718D01*
X0062395Y0118584D01*
X0062358Y0118449D01*
X0062325Y0118313D01*
X0062296Y0118175D01*
X0062271Y0118038D01*
X0062249Y0117899D01*
X0062231Y0117760D01*
X0062218Y0117620D01*
X0062208Y0117480D01*
X0062202Y0117340D01*
X0062200Y0117200D01*
X0062200Y0107200D01*
X0052200Y0107200D01*
X0052060Y0107202D01*
X0051920Y0107208D01*
X0051780Y0107218D01*
X0051640Y0107231D01*
X0051501Y0107249D01*
X0051362Y0107271D01*
X0051225Y0107296D01*
X0051087Y0107325D01*
X0050951Y0107358D01*
X0050816Y0107395D01*
X0050682Y0107436D01*
X0050549Y0107481D01*
X0050417Y0107529D01*
X0050287Y0107581D01*
X0050158Y0107636D01*
X0050031Y0107695D01*
X0049905Y0107758D01*
X0049781Y0107824D01*
X0049660Y0107893D01*
X0049540Y0107966D01*
X0049422Y0108043D01*
X0049307Y0108122D01*
X0049193Y0108205D01*
X0049083Y0108291D01*
X0048974Y0108380D01*
X0048868Y0108472D01*
X0048765Y0108567D01*
X0048664Y0108664D01*
X0048567Y0108765D01*
X0048472Y0108868D01*
X0048380Y0108974D01*
X0048291Y0109083D01*
X0048205Y0109193D01*
X0048122Y0109307D01*
X0048043Y0109422D01*
X0047966Y0109540D01*
X0047893Y0109660D01*
X0047824Y0109781D01*
X0047758Y0109905D01*
X0047695Y0110031D01*
X0047636Y0110158D01*
X0047581Y0110287D01*
X0047529Y0110417D01*
X0047481Y0110549D01*
X0047436Y0110682D01*
X0047395Y0110816D01*
X0047358Y0110951D01*
X0047325Y0111087D01*
X0047296Y0111225D01*
X0047271Y0111362D01*
X0047249Y0111501D01*
X0047231Y0111640D01*
X0047218Y0111780D01*
X0047208Y0111920D01*
X0047202Y0112060D01*
X0047200Y0112200D01*
X0047200Y0132200D01*
X0047198Y0132340D01*
X0047192Y0132480D01*
X0047182Y0132620D01*
X0047169Y0132760D01*
X0047151Y0132899D01*
X0047129Y0133038D01*
X0047104Y0133175D01*
X0047075Y0133313D01*
X0047042Y0133449D01*
X0047005Y0133584D01*
X0046964Y0133718D01*
X0046919Y0133851D01*
X0046871Y0133983D01*
X0046819Y0134113D01*
X0046764Y0134242D01*
X0046705Y0134369D01*
X0046642Y0134495D01*
X0046576Y0134619D01*
X0046507Y0134740D01*
X0046434Y0134860D01*
X0046357Y0134978D01*
X0046278Y0135093D01*
X0046195Y0135207D01*
X0046109Y0135317D01*
X0046020Y0135426D01*
X0045928Y0135532D01*
X0045833Y0135635D01*
X0045736Y0135736D01*
X0045635Y0135833D01*
X0045532Y0135928D01*
X0045426Y0136020D01*
X0045317Y0136109D01*
X0045207Y0136195D01*
X0045093Y0136278D01*
X0044978Y0136357D01*
X0044860Y0136434D01*
X0044740Y0136507D01*
X0044619Y0136576D01*
X0044495Y0136642D01*
X0044369Y0136705D01*
X0044242Y0136764D01*
X0044113Y0136819D01*
X0043983Y0136871D01*
X0043851Y0136919D01*
X0043718Y0136964D01*
X0043584Y0137005D01*
X0043449Y0137042D01*
X0043313Y0137075D01*
X0043175Y0137104D01*
X0043038Y0137129D01*
X0042899Y0137151D01*
X0042760Y0137169D01*
X0042620Y0137182D01*
X0042480Y0137192D01*
X0042340Y0137198D01*
X0042200Y0137200D01*
X0042060Y0137198D01*
X0041920Y0137192D01*
X0041780Y0137182D01*
X0041640Y0137169D01*
X0041501Y0137151D01*
X0041362Y0137129D01*
X0041225Y0137104D01*
X0041087Y0137075D01*
X0040951Y0137042D01*
X0040816Y0137005D01*
X0040682Y0136964D01*
X0040549Y0136919D01*
X0040417Y0136871D01*
X0040287Y0136819D01*
X0040158Y0136764D01*
X0040031Y0136705D01*
X0039905Y0136642D01*
X0039781Y0136576D01*
X0039660Y0136507D01*
X0039540Y0136434D01*
X0039422Y0136357D01*
X0039307Y0136278D01*
X0039193Y0136195D01*
X0039083Y0136109D01*
X0038974Y0136020D01*
X0038868Y0135928D01*
X0038765Y0135833D01*
X0038664Y0135736D01*
X0038567Y0135635D01*
X0038472Y0135532D01*
X0038380Y0135426D01*
X0038291Y0135317D01*
X0038205Y0135207D01*
X0038122Y0135093D01*
X0038043Y0134978D01*
X0037966Y0134860D01*
X0037893Y0134740D01*
X0037824Y0134619D01*
X0037758Y0134495D01*
X0037695Y0134369D01*
X0037636Y0134242D01*
X0037581Y0134113D01*
X0037529Y0133983D01*
X0037481Y0133851D01*
X0037436Y0133718D01*
X0037395Y0133584D01*
X0037358Y0133449D01*
X0037325Y0133313D01*
X0037296Y0133175D01*
X0037271Y0133038D01*
X0037249Y0132899D01*
X0037231Y0132760D01*
X0037218Y0132620D01*
X0037208Y0132480D01*
X0037202Y0132340D01*
X0037200Y0132200D01*
X0037200Y0107200D01*
X0037203Y0106958D01*
X0037212Y0106717D01*
X0037226Y0106476D01*
X0037247Y0106235D01*
X0037273Y0105995D01*
X0037305Y0105755D01*
X0037343Y0105516D01*
X0037386Y0105279D01*
X0037436Y0105042D01*
X0037491Y0104807D01*
X0037551Y0104573D01*
X0037618Y0104341D01*
X0037689Y0104110D01*
X0037767Y0103881D01*
X0037850Y0103654D01*
X0037938Y0103429D01*
X0038032Y0103206D01*
X0038131Y0102986D01*
X0038236Y0102768D01*
X0038345Y0102553D01*
X0038460Y0102340D01*
X0038580Y0102130D01*
X0038705Y0101924D01*
X0038835Y0101720D01*
X0038970Y0101519D01*
X0039110Y0101322D01*
X0039254Y0101128D01*
X0039403Y0100938D01*
X0039557Y0100752D01*
X0039715Y0100569D01*
X0039877Y0100390D01*
X0040044Y0100215D01*
X0040215Y0100044D01*
X0040390Y0099877D01*
X0040569Y0099715D01*
X0040752Y0099557D01*
X0040938Y0099403D01*
X0041128Y0099254D01*
X0041322Y0099110D01*
X0041519Y0098970D01*
X0041720Y0098835D01*
X0041924Y0098705D01*
X0042130Y0098580D01*
X0042340Y0098460D01*
X0042553Y0098345D01*
X0042768Y0098236D01*
X0042986Y0098131D01*
X0043206Y0098032D01*
X0043429Y0097938D01*
X0043654Y0097850D01*
X0043881Y0097767D01*
X0044110Y0097689D01*
X0044341Y0097618D01*
X0044573Y0097551D01*
X0044807Y0097491D01*
X0045042Y0097436D01*
X0045279Y0097386D01*
X0045516Y0097343D01*
X0045755Y0097305D01*
X0045995Y0097273D01*
X0046235Y0097247D01*
X0046476Y0097226D01*
X0046717Y0097212D01*
X0046958Y0097203D01*
X0047200Y0097200D01*
X0107200Y0107200D02*
X0107200Y0127200D01*
X0107203Y0127442D01*
X0107212Y0127683D01*
X0107226Y0127924D01*
X0107247Y0128165D01*
X0107273Y0128405D01*
X0107305Y0128645D01*
X0107343Y0128884D01*
X0107386Y0129121D01*
X0107436Y0129358D01*
X0107491Y0129593D01*
X0107551Y0129827D01*
X0107618Y0130059D01*
X0107689Y0130290D01*
X0107767Y0130519D01*
X0107850Y0130746D01*
X0107938Y0130971D01*
X0108032Y0131194D01*
X0108131Y0131414D01*
X0108236Y0131632D01*
X0108345Y0131847D01*
X0108460Y0132060D01*
X0108580Y0132270D01*
X0108705Y0132476D01*
X0108835Y0132680D01*
X0108970Y0132881D01*
X0109110Y0133078D01*
X0109254Y0133272D01*
X0109403Y0133462D01*
X0109557Y0133648D01*
X0109715Y0133831D01*
X0109877Y0134010D01*
X0110044Y0134185D01*
X0110215Y0134356D01*
X0110390Y0134523D01*
X0110569Y0134685D01*
X0110752Y0134843D01*
X0110938Y0134997D01*
X0111128Y0135146D01*
X0111322Y0135290D01*
X0111519Y0135430D01*
X0111720Y0135565D01*
X0111924Y0135695D01*
X0112130Y0135820D01*
X0112340Y0135940D01*
X0112553Y0136055D01*
X0112768Y0136164D01*
X0112986Y0136269D01*
X0113206Y0136368D01*
X0113429Y0136462D01*
X0113654Y0136550D01*
X0113881Y0136633D01*
X0114110Y0136711D01*
X0114341Y0136782D01*
X0114573Y0136849D01*
X0114807Y0136909D01*
X0115042Y0136964D01*
X0115279Y0137014D01*
X0115516Y0137057D01*
X0115755Y0137095D01*
X0115995Y0137127D01*
X0116235Y0137153D01*
X0116476Y0137174D01*
X0116717Y0137188D01*
X0116958Y0137197D01*
X0117200Y0137200D01*
X0142200Y0137200D01*
X0142340Y0137198D01*
X0142480Y0137192D01*
X0142620Y0137182D01*
X0142760Y0137169D01*
X0142899Y0137151D01*
X0143038Y0137129D01*
X0143175Y0137104D01*
X0143313Y0137075D01*
X0143449Y0137042D01*
X0143584Y0137005D01*
X0143718Y0136964D01*
X0143851Y0136919D01*
X0143983Y0136871D01*
X0144113Y0136819D01*
X0144242Y0136764D01*
X0144369Y0136705D01*
X0144495Y0136642D01*
X0144619Y0136576D01*
X0144740Y0136507D01*
X0144860Y0136434D01*
X0144978Y0136357D01*
X0145093Y0136278D01*
X0145207Y0136195D01*
X0145317Y0136109D01*
X0145426Y0136020D01*
X0145532Y0135928D01*
X0145635Y0135833D01*
X0145736Y0135736D01*
X0145833Y0135635D01*
X0145928Y0135532D01*
X0146020Y0135426D01*
X0146109Y0135317D01*
X0146195Y0135207D01*
X0146278Y0135093D01*
X0146357Y0134978D01*
X0146434Y0134860D01*
X0146507Y0134740D01*
X0146576Y0134619D01*
X0146642Y0134495D01*
X0146705Y0134369D01*
X0146764Y0134242D01*
X0146819Y0134113D01*
X0146871Y0133983D01*
X0146919Y0133851D01*
X0146964Y0133718D01*
X0147005Y0133584D01*
X0147042Y0133449D01*
X0147075Y0133313D01*
X0147104Y0133175D01*
X0147129Y0133038D01*
X0147151Y0132899D01*
X0147169Y0132760D01*
X0147182Y0132620D01*
X0147192Y0132480D01*
X0147198Y0132340D01*
X0147200Y0132200D01*
X0147198Y0132060D01*
X0147192Y0131920D01*
X0147182Y0131780D01*
X0147169Y0131640D01*
X0147151Y0131501D01*
X0147129Y0131362D01*
X0147104Y0131225D01*
X0147075Y0131087D01*
X0147042Y0130951D01*
X0147005Y0130816D01*
X0146964Y0130682D01*
X0146919Y0130549D01*
X0146871Y0130417D01*
X0146819Y0130287D01*
X0146764Y0130158D01*
X0146705Y0130031D01*
X0146642Y0129905D01*
X0146576Y0129781D01*
X0146507Y0129660D01*
X0146434Y0129540D01*
X0146357Y0129422D01*
X0146278Y0129307D01*
X0146195Y0129193D01*
X0146109Y0129083D01*
X0146020Y0128974D01*
X0145928Y0128868D01*
X0145833Y0128765D01*
X0145736Y0128664D01*
X0145635Y0128567D01*
X0145532Y0128472D01*
X0145426Y0128380D01*
X0145317Y0128291D01*
X0145207Y0128205D01*
X0145093Y0128122D01*
X0144978Y0128043D01*
X0144860Y0127966D01*
X0144740Y0127893D01*
X0144619Y0127824D01*
X0144495Y0127758D01*
X0144369Y0127695D01*
X0144242Y0127636D01*
X0144113Y0127581D01*
X0143983Y0127529D01*
X0143851Y0127481D01*
X0143718Y0127436D01*
X0143584Y0127395D01*
X0143449Y0127358D01*
X0143313Y0127325D01*
X0143175Y0127296D01*
X0143038Y0127271D01*
X0142899Y0127249D01*
X0142760Y0127231D01*
X0142620Y0127218D01*
X0142480Y0127208D01*
X0142340Y0127202D01*
X0142200Y0127200D01*
X0122200Y0127200D01*
X0122060Y0127198D01*
X0121920Y0127192D01*
X0121780Y0127182D01*
X0121640Y0127169D01*
X0121501Y0127151D01*
X0121362Y0127129D01*
X0121225Y0127104D01*
X0121087Y0127075D01*
X0120951Y0127042D01*
X0120816Y0127005D01*
X0120682Y0126964D01*
X0120549Y0126919D01*
X0120417Y0126871D01*
X0120287Y0126819D01*
X0120158Y0126764D01*
X0120031Y0126705D01*
X0119905Y0126642D01*
X0119781Y0126576D01*
X0119660Y0126507D01*
X0119540Y0126434D01*
X0119422Y0126357D01*
X0119307Y0126278D01*
X0119193Y0126195D01*
X0119083Y0126109D01*
X0118974Y0126020D01*
X0118868Y0125928D01*
X0118765Y0125833D01*
X0118664Y0125736D01*
X0118567Y0125635D01*
X0118472Y0125532D01*
X0118380Y0125426D01*
X0118291Y0125317D01*
X0118205Y0125207D01*
X0118122Y0125093D01*
X0118043Y0124978D01*
X0117966Y0124860D01*
X0117893Y0124740D01*
X0117824Y0124619D01*
X0117758Y0124495D01*
X0117695Y0124369D01*
X0117636Y0124242D01*
X0117581Y0124113D01*
X0117529Y0123983D01*
X0117481Y0123851D01*
X0117436Y0123718D01*
X0117395Y0123584D01*
X0117358Y0123449D01*
X0117325Y0123313D01*
X0117296Y0123175D01*
X0117271Y0123038D01*
X0117249Y0122899D01*
X0117231Y0122760D01*
X0117218Y0122620D01*
X0117208Y0122480D01*
X0117202Y0122340D01*
X0117200Y0122200D01*
X0117200Y0112200D01*
X0107200Y0107200D02*
X0107203Y0106958D01*
X0107212Y0106717D01*
X0107226Y0106476D01*
X0107247Y0106235D01*
X0107273Y0105995D01*
X0107305Y0105755D01*
X0107343Y0105516D01*
X0107386Y0105279D01*
X0107436Y0105042D01*
X0107491Y0104807D01*
X0107551Y0104573D01*
X0107618Y0104341D01*
X0107689Y0104110D01*
X0107767Y0103881D01*
X0107850Y0103654D01*
X0107938Y0103429D01*
X0108032Y0103206D01*
X0108131Y0102986D01*
X0108236Y0102768D01*
X0108345Y0102553D01*
X0108460Y0102340D01*
X0108580Y0102130D01*
X0108705Y0101924D01*
X0108835Y0101720D01*
X0108970Y0101519D01*
X0109110Y0101322D01*
X0109254Y0101128D01*
X0109403Y0100938D01*
X0109557Y0100752D01*
X0109715Y0100569D01*
X0109877Y0100390D01*
X0110044Y0100215D01*
X0110215Y0100044D01*
X0110390Y0099877D01*
X0110569Y0099715D01*
X0110752Y0099557D01*
X0110938Y0099403D01*
X0111128Y0099254D01*
X0111322Y0099110D01*
X0111519Y0098970D01*
X0111720Y0098835D01*
X0111924Y0098705D01*
X0112130Y0098580D01*
X0112340Y0098460D01*
X0112553Y0098345D01*
X0112768Y0098236D01*
X0112986Y0098131D01*
X0113206Y0098032D01*
X0113429Y0097938D01*
X0113654Y0097850D01*
X0113881Y0097767D01*
X0114110Y0097689D01*
X0114341Y0097618D01*
X0114573Y0097551D01*
X0114807Y0097491D01*
X0115042Y0097436D01*
X0115279Y0097386D01*
X0115516Y0097343D01*
X0115755Y0097305D01*
X0115995Y0097273D01*
X0116235Y0097247D01*
X0116476Y0097226D01*
X0116717Y0097212D01*
X0116958Y0097203D01*
X0117200Y0097200D01*
X0157200Y0097200D01*
X0157442Y0097203D01*
X0157683Y0097212D01*
X0157924Y0097226D01*
X0158165Y0097247D01*
X0158405Y0097273D01*
X0158645Y0097305D01*
X0158884Y0097343D01*
X0159121Y0097386D01*
X0159358Y0097436D01*
X0159593Y0097491D01*
X0159827Y0097551D01*
X0160059Y0097618D01*
X0160290Y0097689D01*
X0160519Y0097767D01*
X0160746Y0097850D01*
X0160971Y0097938D01*
X0161194Y0098032D01*
X0161414Y0098131D01*
X0161632Y0098236D01*
X0161847Y0098345D01*
X0162060Y0098460D01*
X0162270Y0098580D01*
X0162476Y0098705D01*
X0162680Y0098835D01*
X0162881Y0098970D01*
X0163078Y0099110D01*
X0163272Y0099254D01*
X0163462Y0099403D01*
X0163648Y0099557D01*
X0163831Y0099715D01*
X0164010Y0099877D01*
X0164185Y0100044D01*
X0164356Y0100215D01*
X0164523Y0100390D01*
X0164685Y0100569D01*
X0164843Y0100752D01*
X0164997Y0100938D01*
X0165146Y0101128D01*
X0165290Y0101322D01*
X0165430Y0101519D01*
X0165565Y0101720D01*
X0165695Y0101924D01*
X0165820Y0102130D01*
X0165940Y0102340D01*
X0166055Y0102553D01*
X0166164Y0102768D01*
X0166269Y0102986D01*
X0166368Y0103206D01*
X0166462Y0103429D01*
X0166550Y0103654D01*
X0166633Y0103881D01*
X0166711Y0104110D01*
X0166782Y0104341D01*
X0166849Y0104573D01*
X0166909Y0104807D01*
X0166964Y0105042D01*
X0167014Y0105279D01*
X0167057Y0105516D01*
X0167095Y0105755D01*
X0167127Y0105995D01*
X0167153Y0106235D01*
X0167174Y0106476D01*
X0167188Y0106717D01*
X0167197Y0106958D01*
X0167200Y0107200D01*
X0167200Y0142200D01*
X0167198Y0142340D01*
X0167192Y0142480D01*
X0167182Y0142620D01*
X0167169Y0142760D01*
X0167151Y0142899D01*
X0167129Y0143038D01*
X0167104Y0143175D01*
X0167075Y0143313D01*
X0167042Y0143449D01*
X0167005Y0143584D01*
X0166964Y0143718D01*
X0166919Y0143851D01*
X0166871Y0143983D01*
X0166819Y0144113D01*
X0166764Y0144242D01*
X0166705Y0144369D01*
X0166642Y0144495D01*
X0166576Y0144619D01*
X0166507Y0144740D01*
X0166434Y0144860D01*
X0166357Y0144978D01*
X0166278Y0145093D01*
X0166195Y0145207D01*
X0166109Y0145317D01*
X0166020Y0145426D01*
X0165928Y0145532D01*
X0165833Y0145635D01*
X0165736Y0145736D01*
X0165635Y0145833D01*
X0165532Y0145928D01*
X0165426Y0146020D01*
X0165317Y0146109D01*
X0165207Y0146195D01*
X0165093Y0146278D01*
X0164978Y0146357D01*
X0164860Y0146434D01*
X0164740Y0146507D01*
X0164619Y0146576D01*
X0164495Y0146642D01*
X0164369Y0146705D01*
X0164242Y0146764D01*
X0164113Y0146819D01*
X0163983Y0146871D01*
X0163851Y0146919D01*
X0163718Y0146964D01*
X0163584Y0147005D01*
X0163449Y0147042D01*
X0163313Y0147075D01*
X0163175Y0147104D01*
X0163038Y0147129D01*
X0162899Y0147151D01*
X0162760Y0147169D01*
X0162620Y0147182D01*
X0162480Y0147192D01*
X0162340Y0147198D01*
X0162200Y0147200D01*
X0162060Y0147198D01*
X0161920Y0147192D01*
X0161780Y0147182D01*
X0161640Y0147169D01*
X0161501Y0147151D01*
X0161362Y0147129D01*
X0161225Y0147104D01*
X0161087Y0147075D01*
X0160951Y0147042D01*
X0160816Y0147005D01*
X0160682Y0146964D01*
X0160549Y0146919D01*
X0160417Y0146871D01*
X0160287Y0146819D01*
X0160158Y0146764D01*
X0160031Y0146705D01*
X0159905Y0146642D01*
X0159781Y0146576D01*
X0159660Y0146507D01*
X0159540Y0146434D01*
X0159422Y0146357D01*
X0159307Y0146278D01*
X0159193Y0146195D01*
X0159083Y0146109D01*
X0158974Y0146020D01*
X0158868Y0145928D01*
X0158765Y0145833D01*
X0158664Y0145736D01*
X0158567Y0145635D01*
X0158472Y0145532D01*
X0158380Y0145426D01*
X0158291Y0145317D01*
X0158205Y0145207D01*
X0158122Y0145093D01*
X0158043Y0144978D01*
X0157966Y0144860D01*
X0157893Y0144740D01*
X0157824Y0144619D01*
X0157758Y0144495D01*
X0157695Y0144369D01*
X0157636Y0144242D01*
X0157581Y0144113D01*
X0157529Y0143983D01*
X0157481Y0143851D01*
X0157436Y0143718D01*
X0157395Y0143584D01*
X0157358Y0143449D01*
X0157325Y0143313D01*
X0157296Y0143175D01*
X0157271Y0143038D01*
X0157249Y0142899D01*
X0157231Y0142760D01*
X0157218Y0142620D01*
X0157208Y0142480D01*
X0157202Y0142340D01*
X0157200Y0142200D01*
X0157200Y0112200D01*
X0157198Y0112060D01*
X0157192Y0111920D01*
X0157182Y0111780D01*
X0157169Y0111640D01*
X0157151Y0111501D01*
X0157129Y0111362D01*
X0157104Y0111225D01*
X0157075Y0111087D01*
X0157042Y0110951D01*
X0157005Y0110816D01*
X0156964Y0110682D01*
X0156919Y0110549D01*
X0156871Y0110417D01*
X0156819Y0110287D01*
X0156764Y0110158D01*
X0156705Y0110031D01*
X0156642Y0109905D01*
X0156576Y0109781D01*
X0156507Y0109660D01*
X0156434Y0109540D01*
X0156357Y0109422D01*
X0156278Y0109307D01*
X0156195Y0109193D01*
X0156109Y0109083D01*
X0156020Y0108974D01*
X0155928Y0108868D01*
X0155833Y0108765D01*
X0155736Y0108664D01*
X0155635Y0108567D01*
X0155532Y0108472D01*
X0155426Y0108380D01*
X0155317Y0108291D01*
X0155207Y0108205D01*
X0155093Y0108122D01*
X0154978Y0108043D01*
X0154860Y0107966D01*
X0154740Y0107893D01*
X0154619Y0107824D01*
X0154495Y0107758D01*
X0154369Y0107695D01*
X0154242Y0107636D01*
X0154113Y0107581D01*
X0153983Y0107529D01*
X0153851Y0107481D01*
X0153718Y0107436D01*
X0153584Y0107395D01*
X0153449Y0107358D01*
X0153313Y0107325D01*
X0153175Y0107296D01*
X0153038Y0107271D01*
X0152899Y0107249D01*
X0152760Y0107231D01*
X0152620Y0107218D01*
X0152480Y0107208D01*
X0152340Y0107202D01*
X0152200Y0107200D01*
X0122200Y0107200D01*
X0122060Y0107202D01*
X0121920Y0107208D01*
X0121780Y0107218D01*
X0121640Y0107231D01*
X0121501Y0107249D01*
X0121362Y0107271D01*
X0121225Y0107296D01*
X0121087Y0107325D01*
X0120951Y0107358D01*
X0120816Y0107395D01*
X0120682Y0107436D01*
X0120549Y0107481D01*
X0120417Y0107529D01*
X0120287Y0107581D01*
X0120158Y0107636D01*
X0120031Y0107695D01*
X0119905Y0107758D01*
X0119781Y0107824D01*
X0119660Y0107893D01*
X0119540Y0107966D01*
X0119422Y0108043D01*
X0119307Y0108122D01*
X0119193Y0108205D01*
X0119083Y0108291D01*
X0118974Y0108380D01*
X0118868Y0108472D01*
X0118765Y0108567D01*
X0118664Y0108664D01*
X0118567Y0108765D01*
X0118472Y0108868D01*
X0118380Y0108974D01*
X0118291Y0109083D01*
X0118205Y0109193D01*
X0118122Y0109307D01*
X0118043Y0109422D01*
X0117966Y0109540D01*
X0117893Y0109660D01*
X0117824Y0109781D01*
X0117758Y0109905D01*
X0117695Y0110031D01*
X0117636Y0110158D01*
X0117581Y0110287D01*
X0117529Y0110417D01*
X0117481Y0110549D01*
X0117436Y0110682D01*
X0117395Y0110816D01*
X0117358Y0110951D01*
X0117325Y0111087D01*
X0117296Y0111225D01*
X0117271Y0111362D01*
X0117249Y0111501D01*
X0117231Y0111640D01*
X0117218Y0111780D01*
X0117208Y0111920D01*
X0117202Y0112060D01*
X0117200Y0112200D01*
X0177200Y0102200D02*
X0177200Y0127200D01*
X0177203Y0127442D01*
X0177212Y0127683D01*
X0177226Y0127924D01*
X0177247Y0128165D01*
X0177273Y0128405D01*
X0177305Y0128645D01*
X0177343Y0128884D01*
X0177386Y0129121D01*
X0177436Y0129358D01*
X0177491Y0129593D01*
X0177551Y0129827D01*
X0177618Y0130059D01*
X0177689Y0130290D01*
X0177767Y0130519D01*
X0177850Y0130746D01*
X0177938Y0130971D01*
X0178032Y0131194D01*
X0178131Y0131414D01*
X0178236Y0131632D01*
X0178345Y0131847D01*
X0178460Y0132060D01*
X0178580Y0132270D01*
X0178705Y0132476D01*
X0178835Y0132680D01*
X0178970Y0132881D01*
X0179110Y0133078D01*
X0179254Y0133272D01*
X0179403Y0133462D01*
X0179557Y0133648D01*
X0179715Y0133831D01*
X0179877Y0134010D01*
X0180044Y0134185D01*
X0180215Y0134356D01*
X0180390Y0134523D01*
X0180569Y0134685D01*
X0180752Y0134843D01*
X0180938Y0134997D01*
X0181128Y0135146D01*
X0181322Y0135290D01*
X0181519Y0135430D01*
X0181720Y0135565D01*
X0181924Y0135695D01*
X0182130Y0135820D01*
X0182340Y0135940D01*
X0182553Y0136055D01*
X0182768Y0136164D01*
X0182986Y0136269D01*
X0183206Y0136368D01*
X0183429Y0136462D01*
X0183654Y0136550D01*
X0183881Y0136633D01*
X0184110Y0136711D01*
X0184341Y0136782D01*
X0184573Y0136849D01*
X0184807Y0136909D01*
X0185042Y0136964D01*
X0185279Y0137014D01*
X0185516Y0137057D01*
X0185755Y0137095D01*
X0185995Y0137127D01*
X0186235Y0137153D01*
X0186476Y0137174D01*
X0186717Y0137188D01*
X0186958Y0137197D01*
X0187200Y0137200D01*
X0227200Y0137200D01*
X0227442Y0137197D01*
X0227683Y0137188D01*
X0227924Y0137174D01*
X0228165Y0137153D01*
X0228405Y0137127D01*
X0228645Y0137095D01*
X0228884Y0137057D01*
X0229121Y0137014D01*
X0229358Y0136964D01*
X0229593Y0136909D01*
X0229827Y0136849D01*
X0230059Y0136782D01*
X0230290Y0136711D01*
X0230519Y0136633D01*
X0230746Y0136550D01*
X0230971Y0136462D01*
X0231194Y0136368D01*
X0231414Y0136269D01*
X0231632Y0136164D01*
X0231847Y0136055D01*
X0232060Y0135940D01*
X0232270Y0135820D01*
X0232476Y0135695D01*
X0232680Y0135565D01*
X0232881Y0135430D01*
X0233078Y0135290D01*
X0233272Y0135146D01*
X0233462Y0134997D01*
X0233648Y0134843D01*
X0233831Y0134685D01*
X0234010Y0134523D01*
X0234185Y0134356D01*
X0234356Y0134185D01*
X0234523Y0134010D01*
X0234685Y0133831D01*
X0234843Y0133648D01*
X0234997Y0133462D01*
X0235146Y0133272D01*
X0235290Y0133078D01*
X0235430Y0132881D01*
X0235565Y0132680D01*
X0235695Y0132476D01*
X0235820Y0132270D01*
X0235940Y0132060D01*
X0236055Y0131847D01*
X0236164Y0131632D01*
X0236269Y0131414D01*
X0236368Y0131194D01*
X0236462Y0130971D01*
X0236550Y0130746D01*
X0236633Y0130519D01*
X0236711Y0130290D01*
X0236782Y0130059D01*
X0236849Y0129827D01*
X0236909Y0129593D01*
X0236964Y0129358D01*
X0237014Y0129121D01*
X0237057Y0128884D01*
X0237095Y0128645D01*
X0237127Y0128405D01*
X0237153Y0128165D01*
X0237174Y0127924D01*
X0237188Y0127683D01*
X0237197Y0127442D01*
X0237200Y0127200D01*
X0237200Y0107200D01*
X0237197Y0106958D01*
X0237188Y0106717D01*
X0237174Y0106476D01*
X0237153Y0106235D01*
X0237127Y0105995D01*
X0237095Y0105755D01*
X0237057Y0105516D01*
X0237014Y0105279D01*
X0236964Y0105042D01*
X0236909Y0104807D01*
X0236849Y0104573D01*
X0236782Y0104341D01*
X0236711Y0104110D01*
X0236633Y0103881D01*
X0236550Y0103654D01*
X0236462Y0103429D01*
X0236368Y0103206D01*
X0236269Y0102986D01*
X0236164Y0102768D01*
X0236055Y0102553D01*
X0235940Y0102340D01*
X0235820Y0102130D01*
X0235695Y0101924D01*
X0235565Y0101720D01*
X0235430Y0101519D01*
X0235290Y0101322D01*
X0235146Y0101128D01*
X0234997Y0100938D01*
X0234843Y0100752D01*
X0234685Y0100569D01*
X0234523Y0100390D01*
X0234356Y0100215D01*
X0234185Y0100044D01*
X0234010Y0099877D01*
X0233831Y0099715D01*
X0233648Y0099557D01*
X0233462Y0099403D01*
X0233272Y0099254D01*
X0233078Y0099110D01*
X0232881Y0098970D01*
X0232680Y0098835D01*
X0232476Y0098705D01*
X0232270Y0098580D01*
X0232060Y0098460D01*
X0231847Y0098345D01*
X0231632Y0098236D01*
X0231414Y0098131D01*
X0231194Y0098032D01*
X0230971Y0097938D01*
X0230746Y0097850D01*
X0230519Y0097767D01*
X0230290Y0097689D01*
X0230059Y0097618D01*
X0229827Y0097551D01*
X0229593Y0097491D01*
X0229358Y0097436D01*
X0229121Y0097386D01*
X0228884Y0097343D01*
X0228645Y0097305D01*
X0228405Y0097273D01*
X0228165Y0097247D01*
X0227924Y0097226D01*
X0227683Y0097212D01*
X0227442Y0097203D01*
X0227200Y0097200D01*
X0202200Y0097200D01*
X0202060Y0097202D01*
X0201920Y0097208D01*
X0201780Y0097218D01*
X0201640Y0097231D01*
X0201501Y0097249D01*
X0201362Y0097271D01*
X0201225Y0097296D01*
X0201087Y0097325D01*
X0200951Y0097358D01*
X0200816Y0097395D01*
X0200682Y0097436D01*
X0200549Y0097481D01*
X0200417Y0097529D01*
X0200287Y0097581D01*
X0200158Y0097636D01*
X0200031Y0097695D01*
X0199905Y0097758D01*
X0199781Y0097824D01*
X0199660Y0097893D01*
X0199540Y0097966D01*
X0199422Y0098043D01*
X0199307Y0098122D01*
X0199193Y0098205D01*
X0199083Y0098291D01*
X0198974Y0098380D01*
X0198868Y0098472D01*
X0198765Y0098567D01*
X0198664Y0098664D01*
X0198567Y0098765D01*
X0198472Y0098868D01*
X0198380Y0098974D01*
X0198291Y0099083D01*
X0198205Y0099193D01*
X0198122Y0099307D01*
X0198043Y0099422D01*
X0197966Y0099540D01*
X0197893Y0099660D01*
X0197824Y0099781D01*
X0197758Y0099905D01*
X0197695Y0100031D01*
X0197636Y0100158D01*
X0197581Y0100287D01*
X0197529Y0100417D01*
X0197481Y0100549D01*
X0197436Y0100682D01*
X0197395Y0100816D01*
X0197358Y0100951D01*
X0197325Y0101087D01*
X0197296Y0101225D01*
X0197271Y0101362D01*
X0197249Y0101501D01*
X0197231Y0101640D01*
X0197218Y0101780D01*
X0197208Y0101920D01*
X0197202Y0102060D01*
X0197200Y0102200D01*
X0197202Y0102340D01*
X0197208Y0102480D01*
X0197218Y0102620D01*
X0197231Y0102760D01*
X0197249Y0102899D01*
X0197271Y0103038D01*
X0197296Y0103175D01*
X0197325Y0103313D01*
X0197358Y0103449D01*
X0197395Y0103584D01*
X0197436Y0103718D01*
X0197481Y0103851D01*
X0197529Y0103983D01*
X0197581Y0104113D01*
X0197636Y0104242D01*
X0197695Y0104369D01*
X0197758Y0104495D01*
X0197824Y0104619D01*
X0197893Y0104740D01*
X0197966Y0104860D01*
X0198043Y0104978D01*
X0198122Y0105093D01*
X0198205Y0105207D01*
X0198291Y0105317D01*
X0198380Y0105426D01*
X0198472Y0105532D01*
X0198567Y0105635D01*
X0198664Y0105736D01*
X0198765Y0105833D01*
X0198868Y0105928D01*
X0198974Y0106020D01*
X0199083Y0106109D01*
X0199193Y0106195D01*
X0199307Y0106278D01*
X0199422Y0106357D01*
X0199540Y0106434D01*
X0199660Y0106507D01*
X0199781Y0106576D01*
X0199905Y0106642D01*
X0200031Y0106705D01*
X0200158Y0106764D01*
X0200287Y0106819D01*
X0200417Y0106871D01*
X0200549Y0106919D01*
X0200682Y0106964D01*
X0200816Y0107005D01*
X0200951Y0107042D01*
X0201087Y0107075D01*
X0201225Y0107104D01*
X0201362Y0107129D01*
X0201501Y0107151D01*
X0201640Y0107169D01*
X0201780Y0107182D01*
X0201920Y0107192D01*
X0202060Y0107198D01*
X0202200Y0107200D01*
X0222200Y0107200D01*
X0222340Y0107202D01*
X0222480Y0107208D01*
X0222620Y0107218D01*
X0222760Y0107231D01*
X0222899Y0107249D01*
X0223038Y0107271D01*
X0223175Y0107296D01*
X0223313Y0107325D01*
X0223449Y0107358D01*
X0223584Y0107395D01*
X0223718Y0107436D01*
X0223851Y0107481D01*
X0223983Y0107529D01*
X0224113Y0107581D01*
X0224242Y0107636D01*
X0224369Y0107695D01*
X0224495Y0107758D01*
X0224619Y0107824D01*
X0224740Y0107893D01*
X0224860Y0107966D01*
X0224978Y0108043D01*
X0225093Y0108122D01*
X0225207Y0108205D01*
X0225317Y0108291D01*
X0225426Y0108380D01*
X0225532Y0108472D01*
X0225635Y0108567D01*
X0225736Y0108664D01*
X0225833Y0108765D01*
X0225928Y0108868D01*
X0226020Y0108974D01*
X0226109Y0109083D01*
X0226195Y0109193D01*
X0226278Y0109307D01*
X0226357Y0109422D01*
X0226434Y0109540D01*
X0226507Y0109660D01*
X0226576Y0109781D01*
X0226642Y0109905D01*
X0226705Y0110031D01*
X0226764Y0110158D01*
X0226819Y0110287D01*
X0226871Y0110417D01*
X0226919Y0110549D01*
X0226964Y0110682D01*
X0227005Y0110816D01*
X0227042Y0110951D01*
X0227075Y0111087D01*
X0227104Y0111225D01*
X0227129Y0111362D01*
X0227151Y0111501D01*
X0227169Y0111640D01*
X0227182Y0111780D01*
X0227192Y0111920D01*
X0227198Y0112060D01*
X0227200Y0112200D01*
X0227200Y0122200D01*
X0227198Y0122340D01*
X0227192Y0122480D01*
X0227182Y0122620D01*
X0227169Y0122760D01*
X0227151Y0122899D01*
X0227129Y0123038D01*
X0227104Y0123175D01*
X0227075Y0123313D01*
X0227042Y0123449D01*
X0227005Y0123584D01*
X0226964Y0123718D01*
X0226919Y0123851D01*
X0226871Y0123983D01*
X0226819Y0124113D01*
X0226764Y0124242D01*
X0226705Y0124369D01*
X0226642Y0124495D01*
X0226576Y0124619D01*
X0226507Y0124740D01*
X0226434Y0124860D01*
X0226357Y0124978D01*
X0226278Y0125093D01*
X0226195Y0125207D01*
X0226109Y0125317D01*
X0226020Y0125426D01*
X0225928Y0125532D01*
X0225833Y0125635D01*
X0225736Y0125736D01*
X0225635Y0125833D01*
X0225532Y0125928D01*
X0225426Y0126020D01*
X0225317Y0126109D01*
X0225207Y0126195D01*
X0225093Y0126278D01*
X0224978Y0126357D01*
X0224860Y0126434D01*
X0224740Y0126507D01*
X0224619Y0126576D01*
X0224495Y0126642D01*
X0224369Y0126705D01*
X0224242Y0126764D01*
X0224113Y0126819D01*
X0223983Y0126871D01*
X0223851Y0126919D01*
X0223718Y0126964D01*
X0223584Y0127005D01*
X0223449Y0127042D01*
X0223313Y0127075D01*
X0223175Y0127104D01*
X0223038Y0127129D01*
X0222899Y0127151D01*
X0222760Y0127169D01*
X0222620Y0127182D01*
X0222480Y0127192D01*
X0222340Y0127198D01*
X0222200Y0127200D01*
X0192200Y0127200D01*
X0192060Y0127198D01*
X0191920Y0127192D01*
X0191780Y0127182D01*
X0191640Y0127169D01*
X0191501Y0127151D01*
X0191362Y0127129D01*
X0191225Y0127104D01*
X0191087Y0127075D01*
X0190951Y0127042D01*
X0190816Y0127005D01*
X0190682Y0126964D01*
X0190549Y0126919D01*
X0190417Y0126871D01*
X0190287Y0126819D01*
X0190158Y0126764D01*
X0190031Y0126705D01*
X0189905Y0126642D01*
X0189781Y0126576D01*
X0189660Y0126507D01*
X0189540Y0126434D01*
X0189422Y0126357D01*
X0189307Y0126278D01*
X0189193Y0126195D01*
X0189083Y0126109D01*
X0188974Y0126020D01*
X0188868Y0125928D01*
X0188765Y0125833D01*
X0188664Y0125736D01*
X0188567Y0125635D01*
X0188472Y0125532D01*
X0188380Y0125426D01*
X0188291Y0125317D01*
X0188205Y0125207D01*
X0188122Y0125093D01*
X0188043Y0124978D01*
X0187966Y0124860D01*
X0187893Y0124740D01*
X0187824Y0124619D01*
X0187758Y0124495D01*
X0187695Y0124369D01*
X0187636Y0124242D01*
X0187581Y0124113D01*
X0187529Y0123983D01*
X0187481Y0123851D01*
X0187436Y0123718D01*
X0187395Y0123584D01*
X0187358Y0123449D01*
X0187325Y0123313D01*
X0187296Y0123175D01*
X0187271Y0123038D01*
X0187249Y0122899D01*
X0187231Y0122760D01*
X0187218Y0122620D01*
X0187208Y0122480D01*
X0187202Y0122340D01*
X0187200Y0122200D01*
X0187200Y0102200D01*
X0187198Y0102060D01*
X0187192Y0101920D01*
X0187182Y0101780D01*
X0187169Y0101640D01*
X0187151Y0101501D01*
X0187129Y0101362D01*
X0187104Y0101225D01*
X0187075Y0101087D01*
X0187042Y0100951D01*
X0187005Y0100816D01*
X0186964Y0100682D01*
X0186919Y0100549D01*
X0186871Y0100417D01*
X0186819Y0100287D01*
X0186764Y0100158D01*
X0186705Y0100031D01*
X0186642Y0099905D01*
X0186576Y0099781D01*
X0186507Y0099660D01*
X0186434Y0099540D01*
X0186357Y0099422D01*
X0186278Y0099307D01*
X0186195Y0099193D01*
X0186109Y0099083D01*
X0186020Y0098974D01*
X0185928Y0098868D01*
X0185833Y0098765D01*
X0185736Y0098664D01*
X0185635Y0098567D01*
X0185532Y0098472D01*
X0185426Y0098380D01*
X0185317Y0098291D01*
X0185207Y0098205D01*
X0185093Y0098122D01*
X0184978Y0098043D01*
X0184860Y0097966D01*
X0184740Y0097893D01*
X0184619Y0097824D01*
X0184495Y0097758D01*
X0184369Y0097695D01*
X0184242Y0097636D01*
X0184113Y0097581D01*
X0183983Y0097529D01*
X0183851Y0097481D01*
X0183718Y0097436D01*
X0183584Y0097395D01*
X0183449Y0097358D01*
X0183313Y0097325D01*
X0183175Y0097296D01*
X0183038Y0097271D01*
X0182899Y0097249D01*
X0182760Y0097231D01*
X0182620Y0097218D01*
X0182480Y0097208D01*
X0182340Y0097202D01*
X0182200Y0097200D01*
X0182060Y0097202D01*
X0181920Y0097208D01*
X0181780Y0097218D01*
X0181640Y0097231D01*
X0181501Y0097249D01*
X0181362Y0097271D01*
X0181225Y0097296D01*
X0181087Y0097325D01*
X0180951Y0097358D01*
X0180816Y0097395D01*
X0180682Y0097436D01*
X0180549Y0097481D01*
X0180417Y0097529D01*
X0180287Y0097581D01*
X0180158Y0097636D01*
X0180031Y0097695D01*
X0179905Y0097758D01*
X0179781Y0097824D01*
X0179660Y0097893D01*
X0179540Y0097966D01*
X0179422Y0098043D01*
X0179307Y0098122D01*
X0179193Y0098205D01*
X0179083Y0098291D01*
X0178974Y0098380D01*
X0178868Y0098472D01*
X0178765Y0098567D01*
X0178664Y0098664D01*
X0178567Y0098765D01*
X0178472Y0098868D01*
X0178380Y0098974D01*
X0178291Y0099083D01*
X0178205Y0099193D01*
X0178122Y0099307D01*
X0178043Y0099422D01*
X0177966Y0099540D01*
X0177893Y0099660D01*
X0177824Y0099781D01*
X0177758Y0099905D01*
X0177695Y0100031D01*
X0177636Y0100158D01*
X0177581Y0100287D01*
X0177529Y0100417D01*
X0177481Y0100549D01*
X0177436Y0100682D01*
X0177395Y0100816D01*
X0177358Y0100951D01*
X0177325Y0101087D01*
X0177296Y0101225D01*
X0177271Y0101362D01*
X0177249Y0101501D01*
X0177231Y0101640D01*
X0177218Y0101780D01*
X0177208Y0101920D01*
X0177202Y0102060D01*
X0177200Y0102200D01*
M02*
