G75*
%MOIN*%
%OFA0B0*%
%FSLAX25Y25*%
%IPPOS*%
%LPD*%
%AMOC8*
5,1,8,0,0,1.08239X$1,22.5*
%
%ADD10C,0.07600*%
%ADD11R,0.07600X0.07600*%
%ADD12C,0.06000*%
%ADD13R,0.05150X0.05150*%
%ADD14C,0.10039*%
%ADD15C,0.05000*%
%ADD16C,0.02400*%
D10*
X0037200Y0177200D03*
X0127200Y0177200D03*
X0217200Y0177200D03*
D11*
X0237200Y0177200D03*
X0147200Y0177200D03*
X0057200Y0177200D03*
D12*
X0057200Y0222200D03*
X0067200Y0222200D03*
X0077200Y0222200D03*
X0107200Y0222200D03*
X0117200Y0222200D03*
X0127200Y0222200D03*
X0147200Y0222200D03*
X0157200Y0222200D03*
X0167200Y0222200D03*
X0197200Y0222200D03*
X0207200Y0222200D03*
X0217200Y0222200D03*
X0237200Y0222200D03*
X0247200Y0222200D03*
X0257200Y0222200D03*
X0167200Y0047200D03*
X0157200Y0047200D03*
X0127200Y0047200D03*
X0117200Y0047200D03*
X0107200Y0047200D03*
X0037200Y0222200D03*
X0027200Y0222200D03*
X0017200Y0222200D03*
D13*
X0022200Y0147200D03*
X0072200Y0147200D03*
X0112200Y0147200D03*
X0162200Y0147200D03*
X0202200Y0147200D03*
X0252200Y0147200D03*
X0252200Y0077200D03*
X0202200Y0077200D03*
X0162200Y0077200D03*
X0112200Y0077200D03*
X0072200Y0077200D03*
X0022200Y0077200D03*
D14*
X0022180Y0047791D02*
X0032220Y0047791D01*
X0032220Y0032200D02*
X0022180Y0032200D01*
X0022180Y0016609D02*
X0032220Y0016609D01*
X0242180Y0016609D02*
X0252220Y0016609D01*
X0252220Y0032200D02*
X0242180Y0032200D01*
X0242180Y0047791D02*
X0252220Y0047791D01*
D15*
X0232200Y0062200D02*
X0232200Y0016609D01*
X0247200Y0016609D01*
X0232200Y0016609D02*
X0027200Y0016609D01*
X0017791Y0016609D01*
X0012200Y0022200D01*
X0012200Y0067200D01*
X0022200Y0077200D01*
X0032200Y0087200D01*
X0102200Y0087200D01*
X0112200Y0077200D01*
X0112200Y0147200D02*
X0127200Y0162200D01*
X0127200Y0177200D01*
X0127200Y0202200D01*
X0157200Y0202200D01*
X0167200Y0212200D01*
X0167200Y0222200D01*
X0127200Y0222200D02*
X0127200Y0202200D01*
X0077200Y0212200D02*
X0067200Y0202200D01*
X0037200Y0202200D01*
X0037200Y0222200D01*
X0037200Y0202200D02*
X0037200Y0177200D01*
X0037200Y0162200D01*
X0022200Y0147200D01*
X0077200Y0212200D02*
X0077200Y0222200D01*
X0202200Y0147200D02*
X0217200Y0162200D01*
X0217200Y0177200D01*
X0217200Y0202200D01*
X0247200Y0202200D01*
X0257200Y0212200D01*
X0257200Y0222200D01*
X0217200Y0222200D02*
X0217200Y0202200D01*
X0217200Y0077200D02*
X0202200Y0077200D01*
X0217200Y0077200D02*
X0232200Y0062200D01*
D16*
X0007400Y0007400D02*
X0007400Y0117200D01*
X0045412Y0117200D01*
X0063131Y0099481D01*
X0064481Y0098131D01*
X0066245Y0097400D01*
X0105212Y0097400D01*
X0117400Y0085212D01*
X0117400Y0064188D01*
X0107012Y0053800D01*
X0105887Y0053800D01*
X0103461Y0052795D01*
X0101605Y0050939D01*
X0100600Y0048513D01*
X0100600Y0045887D01*
X0101605Y0043461D01*
X0103461Y0041605D01*
X0105887Y0040600D01*
X0108513Y0040600D01*
X0110939Y0041605D01*
X0112200Y0042866D01*
X0112400Y0042666D01*
X0112400Y0041245D01*
X0113131Y0039481D01*
X0114481Y0038131D01*
X0119481Y0033131D01*
X0121245Y0032400D01*
X0153155Y0032400D01*
X0154919Y0033131D01*
X0159919Y0038131D01*
X0161269Y0039481D01*
X0162000Y0041245D01*
X0162000Y0042666D01*
X0162200Y0042866D01*
X0163461Y0041605D01*
X0165887Y0040600D01*
X0168513Y0040600D01*
X0170939Y0041605D01*
X0172795Y0043461D01*
X0173800Y0045887D01*
X0173800Y0047012D01*
X0189919Y0063131D01*
X0191269Y0064481D01*
X0192000Y0066245D01*
X0192000Y0080212D01*
X0214188Y0102400D01*
X0257400Y0102400D01*
X0257400Y0082241D01*
X0256814Y0082827D01*
X0255491Y0083375D01*
X0248909Y0083375D01*
X0247586Y0082827D01*
X0246573Y0081814D01*
X0246025Y0080491D01*
X0246025Y0073909D01*
X0246573Y0072586D01*
X0247586Y0071573D01*
X0248909Y0071025D01*
X0255491Y0071025D01*
X0256814Y0071573D01*
X0257400Y0072159D01*
X0257400Y0054800D01*
X0257102Y0055098D01*
X0253934Y0056410D01*
X0240466Y0056410D01*
X0237298Y0055098D01*
X0234873Y0052673D01*
X0233561Y0049505D01*
X0233561Y0046076D01*
X0234873Y0042908D01*
X0237298Y0040483D01*
X0238475Y0039995D01*
X0237298Y0039507D01*
X0234873Y0037083D01*
X0233561Y0033915D01*
X0233561Y0030485D01*
X0234873Y0027317D01*
X0237298Y0024893D01*
X0240401Y0023607D01*
X0239855Y0023461D01*
X0238980Y0023098D01*
X0238161Y0022625D01*
X0237410Y0022049D01*
X0236741Y0021380D01*
X0236164Y0020629D01*
X0235691Y0019809D01*
X0235329Y0018935D01*
X0235084Y0018021D01*
X0234961Y0017083D01*
X0246727Y0017083D01*
X0246727Y0016136D01*
X0247673Y0016136D01*
X0247673Y0009390D01*
X0252693Y0009390D01*
X0253631Y0009513D01*
X0254545Y0009758D01*
X0255420Y0010120D01*
X0256239Y0010594D01*
X0256990Y0011170D01*
X0257659Y0011839D01*
X0258236Y0012590D01*
X0258709Y0013409D01*
X0259071Y0014284D01*
X0259316Y0015198D01*
X0259439Y0016136D01*
X0247673Y0016136D01*
X0247673Y0017083D01*
X0259439Y0017083D01*
X0259316Y0018021D01*
X0259071Y0018935D01*
X0258709Y0019809D01*
X0258236Y0020629D01*
X0257659Y0021380D01*
X0256990Y0022049D01*
X0256239Y0022625D01*
X0255420Y0023098D01*
X0254545Y0023461D01*
X0253999Y0023607D01*
X0257102Y0024893D01*
X0259527Y0027317D01*
X0259853Y0028103D01*
X0259919Y0028131D01*
X0261269Y0029481D01*
X0262200Y0030412D01*
X0262200Y0007400D01*
X0007400Y0007400D01*
X0007400Y0009396D02*
X0021663Y0009396D01*
X0021707Y0009390D02*
X0026727Y0009390D01*
X0026727Y0016136D01*
X0027673Y0016136D01*
X0027673Y0009390D01*
X0032693Y0009390D01*
X0033631Y0009513D01*
X0034545Y0009758D01*
X0035420Y0010120D01*
X0036239Y0010594D01*
X0036990Y0011170D01*
X0037659Y0011839D01*
X0038236Y0012590D01*
X0038709Y0013409D01*
X0039071Y0014284D01*
X0039316Y0015198D01*
X0039439Y0016136D01*
X0027673Y0016136D01*
X0027673Y0017083D01*
X0039439Y0017083D01*
X0039316Y0018021D01*
X0039071Y0018935D01*
X0038709Y0019809D01*
X0038236Y0020629D01*
X0037659Y0021380D01*
X0036990Y0022049D01*
X0036239Y0022625D01*
X0035420Y0023098D01*
X0034545Y0023461D01*
X0033999Y0023607D01*
X0037102Y0024893D01*
X0039527Y0027317D01*
X0040839Y0030485D01*
X0040839Y0033915D01*
X0039527Y0037083D01*
X0037102Y0039507D01*
X0035925Y0039995D01*
X0037102Y0040483D01*
X0039527Y0042908D01*
X0040839Y0046076D01*
X0040839Y0049505D01*
X0039527Y0052673D01*
X0037102Y0055098D01*
X0033934Y0056410D01*
X0020466Y0056410D01*
X0017298Y0055098D01*
X0014873Y0052673D01*
X0013561Y0049505D01*
X0013561Y0046076D01*
X0014873Y0042908D01*
X0017298Y0040483D01*
X0018475Y0039995D01*
X0017298Y0039507D01*
X0014873Y0037083D01*
X0013561Y0033915D01*
X0013561Y0030485D01*
X0014873Y0027317D01*
X0017298Y0024893D01*
X0020401Y0023607D01*
X0019855Y0023461D01*
X0018980Y0023098D01*
X0018161Y0022625D01*
X0017410Y0022049D01*
X0016741Y0021380D01*
X0016164Y0020629D01*
X0015691Y0019809D01*
X0015329Y0018935D01*
X0015084Y0018021D01*
X0014961Y0017083D01*
X0026727Y0017083D01*
X0026727Y0016136D01*
X0014961Y0016136D01*
X0015084Y0015198D01*
X0015329Y0014284D01*
X0015691Y0013409D01*
X0016164Y0012590D01*
X0016741Y0011839D01*
X0017410Y0011170D01*
X0018161Y0010594D01*
X0018980Y0010120D01*
X0019855Y0009758D01*
X0020769Y0009513D01*
X0021707Y0009390D01*
X0016786Y0011794D02*
X0007400Y0011794D01*
X0007400Y0014193D02*
X0015367Y0014193D01*
X0015352Y0018990D02*
X0007400Y0018990D01*
X0007400Y0021388D02*
X0016749Y0021388D01*
X0019968Y0023787D02*
X0007400Y0023787D01*
X0007400Y0026185D02*
X0016005Y0026185D01*
X0014348Y0028584D02*
X0007400Y0028584D01*
X0007400Y0030982D02*
X0013561Y0030982D01*
X0013561Y0033381D02*
X0007400Y0033381D01*
X0007400Y0035779D02*
X0014333Y0035779D01*
X0015968Y0038178D02*
X0007400Y0038178D01*
X0007400Y0040576D02*
X0017205Y0040576D01*
X0014845Y0042975D02*
X0007400Y0042975D01*
X0007400Y0045373D02*
X0013852Y0045373D01*
X0013561Y0047772D02*
X0007400Y0047772D01*
X0007400Y0050170D02*
X0013836Y0050170D01*
X0014830Y0052569D02*
X0007400Y0052569D01*
X0007400Y0054967D02*
X0017167Y0054967D01*
X0007400Y0057366D02*
X0046070Y0057366D01*
X0045257Y0055888D02*
X0043786Y0050158D01*
X0043786Y0044242D01*
X0045257Y0038512D01*
X0048107Y0033328D01*
X0052157Y0029016D01*
X0057152Y0025846D01*
X0062778Y0024018D01*
X0068682Y0023647D01*
X0074493Y0024755D01*
X0079845Y0027274D01*
X0079846Y0027274D01*
X0084404Y0031045D01*
X0087881Y0035831D01*
X0090059Y0041331D01*
X0090800Y0047200D01*
X0090059Y0053069D01*
X0087881Y0058569D01*
X0087881Y0058569D01*
X0084404Y0063355D01*
X0084404Y0063355D01*
X0084404Y0063355D01*
X0079846Y0067126D01*
X0079845Y0067126D01*
X0074493Y0069645D01*
X0074493Y0069645D01*
X0068682Y0070753D01*
X0062778Y0070382D01*
X0057152Y0068554D01*
X0052157Y0065384D01*
X0048107Y0061072D01*
X0048107Y0061072D01*
X0045257Y0055888D01*
X0045257Y0055888D01*
X0045021Y0054967D02*
X0037233Y0054967D01*
X0039570Y0052569D02*
X0044405Y0052569D01*
X0043789Y0050170D02*
X0040564Y0050170D01*
X0040839Y0047772D02*
X0043786Y0047772D01*
X0043786Y0045373D02*
X0040548Y0045373D01*
X0039555Y0042975D02*
X0044112Y0042975D01*
X0044727Y0040576D02*
X0037195Y0040576D01*
X0038432Y0038178D02*
X0045441Y0038178D01*
X0045257Y0038512D02*
X0045257Y0038512D01*
X0046760Y0035779D02*
X0040067Y0035779D01*
X0040839Y0033381D02*
X0048078Y0033381D01*
X0048107Y0033328D02*
X0048107Y0033328D01*
X0050310Y0030982D02*
X0040839Y0030982D01*
X0040052Y0028584D02*
X0052838Y0028584D01*
X0052157Y0029016D02*
X0052157Y0029016D01*
X0056617Y0026185D02*
X0038395Y0026185D01*
X0034432Y0023787D02*
X0066456Y0023787D01*
X0068682Y0023647D02*
X0068682Y0023647D01*
X0069416Y0023787D02*
X0206456Y0023787D01*
X0208682Y0023647D02*
X0202778Y0024018D01*
X0202778Y0024018D01*
X0197152Y0025846D01*
X0197152Y0025846D01*
X0192157Y0029016D01*
X0192157Y0029016D01*
X0188107Y0033328D01*
X0188107Y0033328D01*
X0185257Y0038512D01*
X0185257Y0038512D01*
X0183786Y0044242D01*
X0183786Y0050158D01*
X0185257Y0055888D01*
X0185257Y0055888D01*
X0188107Y0061072D01*
X0188107Y0061072D01*
X0192157Y0065384D01*
X0192157Y0065384D01*
X0197152Y0068554D01*
X0197152Y0068554D01*
X0202778Y0070382D01*
X0202778Y0070382D01*
X0208682Y0070753D01*
X0208682Y0070753D01*
X0214493Y0069645D01*
X0214493Y0069645D01*
X0219845Y0067126D01*
X0219846Y0067126D01*
X0224404Y0063355D01*
X0224404Y0063355D01*
X0227881Y0058569D01*
X0227881Y0058569D01*
X0230059Y0053069D01*
X0230800Y0047200D01*
X0230800Y0047200D01*
X0230059Y0041331D01*
X0227881Y0035831D01*
X0224404Y0031045D01*
X0224404Y0031045D01*
X0219846Y0027274D01*
X0219845Y0027274D01*
X0214493Y0024755D01*
X0214493Y0024755D01*
X0208682Y0023647D01*
X0208682Y0023647D01*
X0209416Y0023787D02*
X0239968Y0023787D01*
X0236749Y0021388D02*
X0037651Y0021388D01*
X0039048Y0018990D02*
X0235352Y0018990D01*
X0234961Y0016136D02*
X0235084Y0015198D01*
X0235329Y0014284D01*
X0235691Y0013409D01*
X0236164Y0012590D01*
X0236741Y0011839D01*
X0237410Y0011170D01*
X0238161Y0010594D01*
X0238980Y0010120D01*
X0239855Y0009758D01*
X0240769Y0009513D01*
X0241707Y0009390D01*
X0246727Y0009390D01*
X0246727Y0016136D01*
X0234961Y0016136D01*
X0235367Y0014193D02*
X0039033Y0014193D01*
X0037614Y0011794D02*
X0236786Y0011794D01*
X0241663Y0009396D02*
X0032737Y0009396D01*
X0027673Y0009396D02*
X0026727Y0009396D01*
X0026727Y0011794D02*
X0027673Y0011794D01*
X0027673Y0014193D02*
X0026727Y0014193D01*
X0026727Y0016591D02*
X0007400Y0016591D01*
X0027673Y0016591D02*
X0246727Y0016591D01*
X0247673Y0016591D02*
X0262200Y0016591D01*
X0262200Y0014193D02*
X0259033Y0014193D01*
X0257614Y0011794D02*
X0262200Y0011794D01*
X0262200Y0009396D02*
X0252737Y0009396D01*
X0247673Y0009396D02*
X0246727Y0009396D01*
X0246727Y0011794D02*
X0247673Y0011794D01*
X0247673Y0014193D02*
X0246727Y0014193D01*
X0254432Y0023787D02*
X0262200Y0023787D01*
X0262200Y0026185D02*
X0258395Y0026185D01*
X0260372Y0028584D02*
X0262200Y0028584D01*
X0261269Y0029481D02*
X0261269Y0029481D01*
X0257200Y0032200D02*
X0247200Y0032200D01*
X0257200Y0032200D02*
X0262200Y0037200D01*
X0262200Y0107200D01*
X0212200Y0107200D01*
X0187200Y0082200D01*
X0187200Y0067200D01*
X0167200Y0047200D01*
X0172309Y0042975D02*
X0184112Y0042975D01*
X0183786Y0045373D02*
X0173587Y0045373D01*
X0174560Y0047772D02*
X0183786Y0047772D01*
X0183789Y0050170D02*
X0176958Y0050170D01*
X0179357Y0052569D02*
X0184405Y0052569D01*
X0185021Y0054967D02*
X0181755Y0054967D01*
X0184154Y0057366D02*
X0186070Y0057366D01*
X0186552Y0059764D02*
X0187388Y0059764D01*
X0188951Y0062163D02*
X0189132Y0062163D01*
X0191302Y0064561D02*
X0191384Y0064561D01*
X0192157Y0065384D02*
X0192157Y0065384D01*
X0192000Y0066960D02*
X0194640Y0066960D01*
X0192000Y0069358D02*
X0199627Y0069358D01*
X0199336Y0072425D02*
X0202200Y0072425D01*
X0205064Y0072425D01*
X0205624Y0072575D01*
X0206126Y0072865D01*
X0206535Y0073274D01*
X0206825Y0073776D01*
X0206975Y0074336D01*
X0206975Y0077200D01*
X0206975Y0080064D01*
X0206825Y0080624D01*
X0206535Y0081126D01*
X0206126Y0081535D01*
X0205624Y0081825D01*
X0205064Y0081975D01*
X0202200Y0081975D01*
X0199336Y0081975D01*
X0198776Y0081825D01*
X0198274Y0081535D01*
X0197865Y0081126D01*
X0197575Y0080624D01*
X0197425Y0080064D01*
X0197425Y0077200D01*
X0202200Y0077200D01*
X0202200Y0077200D01*
X0202200Y0081975D01*
X0202200Y0077200D01*
X0206975Y0077200D01*
X0202200Y0077200D01*
X0202200Y0077200D01*
X0202200Y0072425D01*
X0202200Y0077200D01*
X0202200Y0077200D01*
X0202200Y0077200D01*
X0197425Y0077200D01*
X0197425Y0074336D01*
X0197575Y0073776D01*
X0197865Y0073274D01*
X0198274Y0072865D01*
X0198776Y0072575D01*
X0199336Y0072425D01*
X0197473Y0074155D02*
X0192000Y0074155D01*
X0192000Y0071757D02*
X0247402Y0071757D01*
X0246025Y0074155D02*
X0206927Y0074155D01*
X0206975Y0076554D02*
X0246025Y0076554D01*
X0246025Y0078952D02*
X0206975Y0078952D01*
X0206310Y0081351D02*
X0246381Y0081351D01*
X0257400Y0083749D02*
X0195538Y0083749D01*
X0197936Y0086148D02*
X0257400Y0086148D01*
X0257400Y0088546D02*
X0200335Y0088546D01*
X0202733Y0090945D02*
X0257400Y0090945D01*
X0257400Y0093343D02*
X0205132Y0093343D01*
X0207530Y0095742D02*
X0257400Y0095742D01*
X0257400Y0098140D02*
X0209929Y0098140D01*
X0212327Y0100539D02*
X0257400Y0100539D01*
X0262200Y0107200D02*
X0262200Y0224271D01*
X0259271Y0227200D01*
X0255129Y0227200D01*
X0250129Y0222200D01*
X0247200Y0222200D01*
X0249522Y0228382D02*
X0248513Y0228800D01*
X0245887Y0228800D01*
X0243461Y0227795D01*
X0242200Y0226534D01*
X0240939Y0227795D01*
X0238513Y0228800D01*
X0235887Y0228800D01*
X0233461Y0227795D01*
X0231605Y0225939D01*
X0230600Y0223513D01*
X0230600Y0220887D01*
X0231605Y0218461D01*
X0233461Y0216605D01*
X0235887Y0215600D01*
X0238513Y0215600D01*
X0240939Y0216605D01*
X0242200Y0217866D01*
X0243461Y0216605D01*
X0245887Y0215600D01*
X0248513Y0215600D01*
X0250939Y0216605D01*
X0252194Y0217860D01*
X0252848Y0218131D01*
X0253382Y0218664D01*
X0253812Y0218234D01*
X0254475Y0217753D01*
X0255204Y0217381D01*
X0255982Y0217128D01*
X0256791Y0217000D01*
X0257200Y0217000D01*
X0257400Y0217000D01*
X0257400Y0152241D01*
X0256814Y0152827D01*
X0255491Y0153375D01*
X0248909Y0153375D01*
X0247586Y0152827D01*
X0246573Y0151814D01*
X0246025Y0150491D01*
X0246025Y0143909D01*
X0246573Y0142586D01*
X0247586Y0141573D01*
X0248909Y0141025D01*
X0255491Y0141025D01*
X0256814Y0141573D01*
X0257400Y0142159D01*
X0257400Y0132200D01*
X0187200Y0132200D01*
X0187200Y0139318D01*
X0189493Y0139755D01*
X0194845Y0142274D01*
X0194846Y0142274D01*
X0197425Y0144408D01*
X0197425Y0144336D01*
X0197575Y0143776D01*
X0197865Y0143274D01*
X0198274Y0142865D01*
X0198776Y0142575D01*
X0199336Y0142425D01*
X0202200Y0142425D01*
X0205064Y0142425D01*
X0205624Y0142575D01*
X0206126Y0142865D01*
X0206535Y0143274D01*
X0206825Y0143776D01*
X0206975Y0144336D01*
X0206975Y0147200D01*
X0206975Y0150064D01*
X0206825Y0150624D01*
X0206535Y0151126D01*
X0206126Y0151535D01*
X0205624Y0151825D01*
X0205064Y0151975D01*
X0203334Y0151975D01*
X0205059Y0156331D01*
X0205800Y0162200D01*
X0205059Y0168069D01*
X0202881Y0173569D01*
X0202881Y0173569D01*
X0199404Y0178355D01*
X0199404Y0178355D01*
X0199404Y0178355D01*
X0194846Y0182126D01*
X0194845Y0182126D01*
X0189493Y0184645D01*
X0189493Y0184645D01*
X0187200Y0185082D01*
X0187200Y0231988D01*
X0254168Y0231997D01*
X0252410Y0231269D01*
X0249522Y0228382D01*
X0251199Y0230059D02*
X0187200Y0230059D01*
X0187200Y0227660D02*
X0193326Y0227660D01*
X0193461Y0227795D02*
X0191605Y0225939D01*
X0190600Y0223513D01*
X0190600Y0220887D01*
X0191605Y0218461D01*
X0193461Y0216605D01*
X0195887Y0215600D01*
X0198513Y0215600D01*
X0200939Y0216605D01*
X0202200Y0217866D01*
X0203461Y0216605D01*
X0205887Y0215600D01*
X0208513Y0215600D01*
X0210939Y0216605D01*
X0212795Y0218461D01*
X0213047Y0219069D01*
X0213234Y0218812D01*
X0213812Y0218234D01*
X0214475Y0217753D01*
X0215204Y0217381D01*
X0215982Y0217128D01*
X0216791Y0217000D01*
X0217200Y0217000D01*
X0217609Y0217000D01*
X0218418Y0217128D01*
X0219196Y0217381D01*
X0219925Y0217753D01*
X0220588Y0218234D01*
X0221166Y0218812D01*
X0221647Y0219475D01*
X0222019Y0220204D01*
X0222272Y0220982D01*
X0222400Y0221791D01*
X0222400Y0222200D01*
X0222400Y0222609D01*
X0222272Y0223418D01*
X0222019Y0224196D01*
X0221647Y0224925D01*
X0221166Y0225588D01*
X0220588Y0226166D01*
X0219925Y0226647D01*
X0219196Y0227019D01*
X0218418Y0227272D01*
X0217609Y0227400D01*
X0217200Y0227400D01*
X0217200Y0222200D01*
X0217200Y0222200D01*
X0222400Y0222200D01*
X0217200Y0222200D01*
X0217200Y0222200D01*
X0217200Y0227400D01*
X0216791Y0227400D01*
X0215982Y0227272D01*
X0215204Y0227019D01*
X0214475Y0226647D01*
X0213812Y0226166D01*
X0213234Y0225588D01*
X0213047Y0225331D01*
X0212795Y0225939D01*
X0210939Y0227795D01*
X0208513Y0228800D01*
X0205887Y0228800D01*
X0203461Y0227795D01*
X0202200Y0226534D01*
X0200939Y0227795D01*
X0198513Y0228800D01*
X0195887Y0228800D01*
X0193461Y0227795D01*
X0191324Y0225262D02*
X0187200Y0225262D01*
X0187200Y0222863D02*
X0190600Y0222863D01*
X0190775Y0220465D02*
X0187200Y0220465D01*
X0187200Y0218066D02*
X0192000Y0218066D01*
X0195724Y0215668D02*
X0187200Y0215668D01*
X0187200Y0213269D02*
X0257400Y0213269D01*
X0257400Y0210870D02*
X0187200Y0210870D01*
X0187200Y0208472D02*
X0257400Y0208472D01*
X0257400Y0206073D02*
X0187200Y0206073D01*
X0187200Y0203675D02*
X0257400Y0203675D01*
X0257400Y0201276D02*
X0187200Y0201276D01*
X0187200Y0198878D02*
X0257400Y0198878D01*
X0257400Y0196479D02*
X0187200Y0196479D01*
X0187200Y0194081D02*
X0257400Y0194081D01*
X0257400Y0191682D02*
X0187200Y0191682D01*
X0187200Y0189284D02*
X0257400Y0189284D01*
X0257400Y0186885D02*
X0187200Y0186885D01*
X0189829Y0184487D02*
X0232411Y0184487D01*
X0232684Y0184600D02*
X0231361Y0184052D01*
X0230348Y0183039D01*
X0229800Y0181716D01*
X0229800Y0172684D01*
X0230348Y0171361D01*
X0231361Y0170348D01*
X0232684Y0169800D01*
X0241716Y0169800D01*
X0243039Y0170348D01*
X0244052Y0171361D01*
X0244600Y0172684D01*
X0244600Y0181716D01*
X0244052Y0183039D01*
X0243039Y0184052D01*
X0241716Y0184600D01*
X0232684Y0184600D01*
X0229954Y0182088D02*
X0220680Y0182088D01*
X0220345Y0182332D02*
X0219503Y0182760D01*
X0218605Y0183052D01*
X0217672Y0183200D01*
X0217200Y0183200D01*
X0217200Y0177200D01*
X0223200Y0177200D01*
X0223200Y0177672D01*
X0223052Y0178605D01*
X0222760Y0179503D01*
X0222332Y0180345D01*
X0221777Y0181109D01*
X0221109Y0181777D01*
X0220345Y0182332D01*
X0217200Y0182088D02*
X0217200Y0182088D01*
X0217200Y0183200D02*
X0216728Y0183200D01*
X0215795Y0183052D01*
X0214897Y0182760D01*
X0214055Y0182332D01*
X0213291Y0181777D01*
X0212623Y0181109D01*
X0212068Y0180345D01*
X0211640Y0179503D01*
X0211348Y0178605D01*
X0211200Y0177672D01*
X0211200Y0177200D01*
X0217200Y0177200D01*
X0217200Y0177200D01*
X0217200Y0177200D01*
X0223200Y0177200D01*
X0223200Y0176728D01*
X0223052Y0175795D01*
X0222760Y0174897D01*
X0222332Y0174055D01*
X0221777Y0173291D01*
X0221109Y0172623D01*
X0220345Y0172068D01*
X0219503Y0171640D01*
X0218605Y0171348D01*
X0217672Y0171200D01*
X0217200Y0171200D01*
X0217200Y0177200D01*
X0217200Y0177200D01*
X0217200Y0177200D01*
X0217200Y0183200D01*
X0217200Y0179690D02*
X0217200Y0179690D01*
X0217200Y0177291D02*
X0217200Y0177291D01*
X0217200Y0177200D02*
X0211200Y0177200D01*
X0211200Y0176728D01*
X0211348Y0175795D01*
X0211640Y0174897D01*
X0212068Y0174055D01*
X0212623Y0173291D01*
X0213291Y0172623D01*
X0214055Y0172068D01*
X0214897Y0171640D01*
X0215795Y0171348D01*
X0216728Y0171200D01*
X0217200Y0171200D01*
X0217200Y0177200D01*
X0217200Y0174893D02*
X0217200Y0174893D01*
X0217200Y0172494D02*
X0217200Y0172494D01*
X0220931Y0172494D02*
X0229879Y0172494D01*
X0229800Y0174893D02*
X0222758Y0174893D01*
X0223200Y0177291D02*
X0229800Y0177291D01*
X0229800Y0179690D02*
X0222665Y0179690D01*
X0213720Y0182088D02*
X0194891Y0182088D01*
X0197790Y0179690D02*
X0211735Y0179690D01*
X0211200Y0177291D02*
X0200177Y0177291D01*
X0201919Y0174893D02*
X0211642Y0174893D01*
X0213469Y0172494D02*
X0203306Y0172494D01*
X0204256Y0170096D02*
X0231970Y0170096D01*
X0242430Y0170096D02*
X0257400Y0170096D01*
X0257400Y0172494D02*
X0244521Y0172494D01*
X0244600Y0174893D02*
X0257400Y0174893D01*
X0257400Y0177291D02*
X0244600Y0177291D01*
X0244600Y0179690D02*
X0257400Y0179690D01*
X0257400Y0182088D02*
X0244446Y0182088D01*
X0241989Y0184487D02*
X0257400Y0184487D01*
X0257400Y0167697D02*
X0205106Y0167697D01*
X0205059Y0168069D02*
X0205059Y0168069D01*
X0205409Y0165299D02*
X0257400Y0165299D01*
X0257400Y0162900D02*
X0205712Y0162900D01*
X0205585Y0160502D02*
X0257400Y0160502D01*
X0257400Y0158103D02*
X0205282Y0158103D01*
X0205059Y0156331D02*
X0205059Y0156331D01*
X0204811Y0155705D02*
X0257400Y0155705D01*
X0257400Y0153306D02*
X0255656Y0153306D01*
X0248744Y0153306D02*
X0203861Y0153306D01*
X0206661Y0150908D02*
X0246198Y0150908D01*
X0246025Y0148509D02*
X0206975Y0148509D01*
X0206975Y0147200D02*
X0202200Y0147200D01*
X0202200Y0147200D01*
X0206975Y0147200D01*
X0206975Y0146111D02*
X0246025Y0146111D01*
X0246107Y0143712D02*
X0206788Y0143712D01*
X0202200Y0143712D02*
X0202200Y0143712D01*
X0202200Y0142425D02*
X0202200Y0147200D01*
X0202200Y0147200D01*
X0202200Y0142425D01*
X0202200Y0146111D02*
X0202200Y0146111D01*
X0197612Y0143712D02*
X0196584Y0143712D01*
X0192805Y0141314D02*
X0248213Y0141314D01*
X0256187Y0141314D02*
X0257400Y0141314D01*
X0257400Y0138915D02*
X0187200Y0138915D01*
X0187200Y0136517D02*
X0257400Y0136517D01*
X0257400Y0134118D02*
X0187200Y0134118D01*
X0189493Y0139755D02*
X0189493Y0139755D01*
X0177200Y0139206D02*
X0177200Y0132200D01*
X0097200Y0132200D01*
X0097200Y0139318D01*
X0099493Y0139755D01*
X0104845Y0142274D01*
X0104846Y0142274D01*
X0107425Y0144408D01*
X0107425Y0144336D01*
X0107575Y0143776D01*
X0107865Y0143274D01*
X0108274Y0142865D01*
X0108776Y0142575D01*
X0109336Y0142425D01*
X0112200Y0142425D01*
X0115064Y0142425D01*
X0115624Y0142575D01*
X0116126Y0142865D01*
X0116535Y0143274D01*
X0116825Y0143776D01*
X0116975Y0144336D01*
X0116975Y0147200D01*
X0116975Y0150064D01*
X0116825Y0150624D01*
X0116535Y0151126D01*
X0116126Y0151535D01*
X0115624Y0151825D01*
X0115064Y0151975D01*
X0113334Y0151975D01*
X0115059Y0156331D01*
X0115800Y0162200D01*
X0115059Y0168069D01*
X0112881Y0173569D01*
X0109404Y0178355D01*
X0109404Y0178355D01*
X0104846Y0182126D01*
X0104845Y0182126D01*
X0099493Y0184645D01*
X0099493Y0184645D01*
X0097200Y0185082D01*
X0097200Y0231974D01*
X0177200Y0231986D01*
X0177200Y0185194D01*
X0172152Y0183554D01*
X0172152Y0183554D01*
X0167157Y0180384D01*
X0167157Y0180384D01*
X0163107Y0176072D01*
X0163107Y0176072D01*
X0160257Y0170888D01*
X0158786Y0165158D01*
X0158786Y0159242D01*
X0160257Y0153512D01*
X0160333Y0153375D01*
X0158909Y0153375D01*
X0157586Y0152827D01*
X0156573Y0151814D01*
X0156025Y0150491D01*
X0156025Y0143909D01*
X0156573Y0142586D01*
X0157586Y0141573D01*
X0158909Y0141025D01*
X0165491Y0141025D01*
X0166814Y0141573D01*
X0167827Y0142586D01*
X0168156Y0143382D01*
X0172152Y0140846D01*
X0177200Y0139206D01*
X0177200Y0138915D02*
X0097200Y0138915D01*
X0097200Y0136517D02*
X0177200Y0136517D01*
X0177200Y0134118D02*
X0097200Y0134118D01*
X0099493Y0139755D02*
X0099493Y0139755D01*
X0102805Y0141314D02*
X0158213Y0141314D01*
X0156107Y0143712D02*
X0116788Y0143712D01*
X0116975Y0146111D02*
X0156025Y0146111D01*
X0156025Y0148509D02*
X0116975Y0148509D01*
X0116975Y0147200D02*
X0112200Y0147200D01*
X0112200Y0147200D01*
X0116975Y0147200D01*
X0112200Y0147200D02*
X0112200Y0142425D01*
X0112200Y0147200D01*
X0112200Y0147200D01*
X0112200Y0146111D02*
X0112200Y0146111D01*
X0112200Y0143712D02*
X0112200Y0143712D01*
X0107612Y0143712D02*
X0106584Y0143712D01*
X0116661Y0150908D02*
X0156198Y0150908D01*
X0158744Y0153306D02*
X0113861Y0153306D01*
X0114811Y0155705D02*
X0159694Y0155705D01*
X0160257Y0153512D02*
X0160257Y0153512D01*
X0159079Y0158103D02*
X0115282Y0158103D01*
X0115059Y0156331D02*
X0115059Y0156331D01*
X0115585Y0160502D02*
X0158786Y0160502D01*
X0158786Y0162900D02*
X0115712Y0162900D01*
X0115409Y0165299D02*
X0158822Y0165299D01*
X0159438Y0167697D02*
X0115106Y0167697D01*
X0114256Y0170096D02*
X0141970Y0170096D01*
X0141361Y0170348D02*
X0142684Y0169800D01*
X0151716Y0169800D01*
X0153039Y0170348D01*
X0154052Y0171361D01*
X0154600Y0172684D01*
X0154600Y0181716D01*
X0154052Y0183039D01*
X0153039Y0184052D01*
X0151716Y0184600D01*
X0142684Y0184600D01*
X0141361Y0184052D01*
X0140348Y0183039D01*
X0139800Y0181716D01*
X0139800Y0172684D01*
X0140348Y0171361D01*
X0141361Y0170348D01*
X0139879Y0172494D02*
X0130931Y0172494D01*
X0131109Y0172623D02*
X0131777Y0173291D01*
X0132332Y0174055D01*
X0132760Y0174897D01*
X0133052Y0175795D01*
X0133200Y0176728D01*
X0133200Y0177200D01*
X0133200Y0177672D01*
X0133052Y0178605D01*
X0132760Y0179503D01*
X0132332Y0180345D01*
X0131777Y0181109D01*
X0131109Y0181777D01*
X0130345Y0182332D01*
X0129503Y0182760D01*
X0128605Y0183052D01*
X0127672Y0183200D01*
X0127200Y0183200D01*
X0127200Y0177200D01*
X0133200Y0177200D01*
X0127200Y0177200D01*
X0127200Y0177200D01*
X0127200Y0177200D01*
X0127200Y0171200D01*
X0127672Y0171200D01*
X0128605Y0171348D01*
X0129503Y0171640D01*
X0130345Y0172068D01*
X0131109Y0172623D01*
X0132758Y0174893D02*
X0139800Y0174893D01*
X0139800Y0177291D02*
X0133200Y0177291D01*
X0132665Y0179690D02*
X0139800Y0179690D01*
X0139954Y0182088D02*
X0130680Y0182088D01*
X0127200Y0182088D02*
X0127200Y0182088D01*
X0127200Y0183200D02*
X0126728Y0183200D01*
X0125795Y0183052D01*
X0124897Y0182760D01*
X0124055Y0182332D01*
X0123291Y0181777D01*
X0122623Y0181109D01*
X0122068Y0180345D01*
X0121640Y0179503D01*
X0121348Y0178605D01*
X0121200Y0177672D01*
X0121200Y0177200D01*
X0127200Y0177200D01*
X0127200Y0177200D01*
X0127200Y0177200D01*
X0127200Y0183200D01*
X0127200Y0179690D02*
X0127200Y0179690D01*
X0127200Y0177291D02*
X0127200Y0177291D01*
X0127200Y0177200D02*
X0121200Y0177200D01*
X0121200Y0176728D01*
X0121348Y0175795D01*
X0121640Y0174897D01*
X0122068Y0174055D01*
X0122623Y0173291D01*
X0123291Y0172623D01*
X0124055Y0172068D01*
X0124897Y0171640D01*
X0125795Y0171348D01*
X0126728Y0171200D01*
X0127200Y0171200D01*
X0127200Y0177200D01*
X0127200Y0174893D02*
X0127200Y0174893D01*
X0127200Y0172494D02*
X0127200Y0172494D01*
X0123469Y0172494D02*
X0113306Y0172494D01*
X0112881Y0173569D02*
X0112881Y0173569D01*
X0111919Y0174893D02*
X0121642Y0174893D01*
X0121200Y0177291D02*
X0110177Y0177291D01*
X0107790Y0179690D02*
X0121735Y0179690D01*
X0123720Y0182088D02*
X0104891Y0182088D01*
X0099829Y0184487D02*
X0142411Y0184487D01*
X0151989Y0184487D02*
X0175023Y0184487D01*
X0177200Y0186885D02*
X0097200Y0186885D01*
X0097200Y0189284D02*
X0177200Y0189284D01*
X0177200Y0191682D02*
X0097200Y0191682D01*
X0097200Y0194081D02*
X0177200Y0194081D01*
X0177200Y0196479D02*
X0097200Y0196479D01*
X0097200Y0198878D02*
X0177200Y0198878D01*
X0177200Y0201276D02*
X0097200Y0201276D01*
X0097200Y0203675D02*
X0177200Y0203675D01*
X0177200Y0206073D02*
X0097200Y0206073D01*
X0097200Y0208472D02*
X0177200Y0208472D01*
X0177200Y0210870D02*
X0097200Y0210870D01*
X0097200Y0213269D02*
X0177200Y0213269D01*
X0177200Y0215668D02*
X0158676Y0215668D01*
X0158513Y0215600D02*
X0160939Y0216605D01*
X0162795Y0218461D01*
X0163047Y0219069D01*
X0163234Y0218812D01*
X0163812Y0218234D01*
X0164475Y0217753D01*
X0165204Y0217381D01*
X0165982Y0217128D01*
X0166791Y0217000D01*
X0167200Y0217000D01*
X0167609Y0217000D01*
X0168418Y0217128D01*
X0169196Y0217381D01*
X0169925Y0217753D01*
X0170588Y0218234D01*
X0171166Y0218812D01*
X0171647Y0219475D01*
X0172019Y0220204D01*
X0172272Y0220982D01*
X0172400Y0221791D01*
X0172400Y0222200D01*
X0172400Y0222609D01*
X0172272Y0223418D01*
X0172019Y0224196D01*
X0171647Y0224925D01*
X0171166Y0225588D01*
X0170588Y0226166D01*
X0169925Y0226647D01*
X0169196Y0227019D01*
X0168418Y0227272D01*
X0167609Y0227400D01*
X0167200Y0227400D01*
X0167200Y0222200D01*
X0167200Y0222200D01*
X0172400Y0222200D01*
X0167200Y0222200D01*
X0167200Y0222200D01*
X0167200Y0227400D01*
X0166791Y0227400D01*
X0165982Y0227272D01*
X0165204Y0227019D01*
X0164475Y0226647D01*
X0163812Y0226166D01*
X0163234Y0225588D01*
X0163047Y0225331D01*
X0162795Y0225939D01*
X0160939Y0227795D01*
X0158513Y0228800D01*
X0155887Y0228800D01*
X0153461Y0227795D01*
X0152200Y0226534D01*
X0150939Y0227795D01*
X0148513Y0228800D01*
X0145887Y0228800D01*
X0143461Y0227795D01*
X0141605Y0225939D01*
X0140600Y0223513D01*
X0140600Y0220887D01*
X0141605Y0218461D01*
X0143461Y0216605D01*
X0145887Y0215600D01*
X0148513Y0215600D01*
X0150939Y0216605D01*
X0152200Y0217866D01*
X0153461Y0216605D01*
X0155887Y0215600D01*
X0158513Y0215600D01*
X0155724Y0215668D02*
X0148676Y0215668D01*
X0145724Y0215668D02*
X0118676Y0215668D01*
X0118513Y0215600D02*
X0120939Y0216605D01*
X0122795Y0218461D01*
X0123047Y0219069D01*
X0123234Y0218812D01*
X0123812Y0218234D01*
X0124475Y0217753D01*
X0125204Y0217381D01*
X0125982Y0217128D01*
X0126791Y0217000D01*
X0127200Y0217000D01*
X0127609Y0217000D01*
X0128418Y0217128D01*
X0129196Y0217381D01*
X0129925Y0217753D01*
X0130588Y0218234D01*
X0131166Y0218812D01*
X0131647Y0219475D01*
X0132019Y0220204D01*
X0132272Y0220982D01*
X0132400Y0221791D01*
X0132400Y0222200D01*
X0132400Y0222609D01*
X0132272Y0223418D01*
X0132019Y0224196D01*
X0131647Y0224925D01*
X0131166Y0225588D01*
X0130588Y0226166D01*
X0129925Y0226647D01*
X0129196Y0227019D01*
X0128418Y0227272D01*
X0127609Y0227400D01*
X0127200Y0227400D01*
X0127200Y0222200D01*
X0127200Y0222200D01*
X0132400Y0222200D01*
X0127200Y0222200D01*
X0127200Y0222200D01*
X0127200Y0227400D01*
X0126791Y0227400D01*
X0125982Y0227272D01*
X0125204Y0227019D01*
X0124475Y0226647D01*
X0123812Y0226166D01*
X0123234Y0225588D01*
X0123047Y0225331D01*
X0122795Y0225939D01*
X0120939Y0227795D01*
X0118513Y0228800D01*
X0115887Y0228800D01*
X0113461Y0227795D01*
X0112200Y0226534D01*
X0110939Y0227795D01*
X0108513Y0228800D01*
X0105887Y0228800D01*
X0103461Y0227795D01*
X0101605Y0225939D01*
X0100600Y0223513D01*
X0100600Y0220887D01*
X0101605Y0218461D01*
X0103461Y0216605D01*
X0105887Y0215600D01*
X0108513Y0215600D01*
X0110939Y0216605D01*
X0112200Y0217866D01*
X0113461Y0216605D01*
X0115887Y0215600D01*
X0118513Y0215600D01*
X0115724Y0215668D02*
X0108676Y0215668D01*
X0105724Y0215668D02*
X0097200Y0215668D01*
X0097200Y0218066D02*
X0102000Y0218066D01*
X0100775Y0220465D02*
X0097200Y0220465D01*
X0097200Y0222863D02*
X0100600Y0222863D01*
X0101324Y0225262D02*
X0097200Y0225262D01*
X0097200Y0227660D02*
X0103326Y0227660D01*
X0097200Y0230059D02*
X0177200Y0230059D01*
X0177200Y0227660D02*
X0161074Y0227660D01*
X0153326Y0227660D02*
X0151074Y0227660D01*
X0143326Y0227660D02*
X0121074Y0227660D01*
X0127200Y0225262D02*
X0127200Y0225262D01*
X0127200Y0222863D02*
X0127200Y0222863D01*
X0127200Y0222200D02*
X0127200Y0217000D01*
X0127200Y0222200D01*
X0127200Y0222200D01*
X0127200Y0220465D02*
X0127200Y0220465D01*
X0127200Y0218066D02*
X0127200Y0218066D01*
X0130357Y0218066D02*
X0142000Y0218066D01*
X0140775Y0220465D02*
X0132104Y0220465D01*
X0132360Y0222863D02*
X0140600Y0222863D01*
X0141324Y0225262D02*
X0131403Y0225262D01*
X0124043Y0218066D02*
X0122400Y0218066D01*
X0113326Y0227660D02*
X0111074Y0227660D01*
X0087200Y0227660D02*
X0071074Y0227660D01*
X0070939Y0227795D02*
X0068513Y0228800D01*
X0065887Y0228800D01*
X0063461Y0227795D01*
X0062200Y0226534D01*
X0060939Y0227795D01*
X0058513Y0228800D01*
X0055887Y0228800D01*
X0053461Y0227795D01*
X0051605Y0225939D01*
X0050600Y0223513D01*
X0050600Y0220887D01*
X0051605Y0218461D01*
X0053461Y0216605D01*
X0055887Y0215600D01*
X0058513Y0215600D01*
X0060939Y0216605D01*
X0062200Y0217866D01*
X0063461Y0216605D01*
X0065887Y0215600D01*
X0068513Y0215600D01*
X0070939Y0216605D01*
X0072795Y0218461D01*
X0073047Y0219069D01*
X0073234Y0218812D01*
X0073812Y0218234D01*
X0074475Y0217753D01*
X0075204Y0217381D01*
X0075982Y0217128D01*
X0076791Y0217000D01*
X0077200Y0217000D01*
X0077609Y0217000D01*
X0078418Y0217128D01*
X0079196Y0217381D01*
X0079925Y0217753D01*
X0080588Y0218234D01*
X0081166Y0218812D01*
X0081647Y0219475D01*
X0082019Y0220204D01*
X0082272Y0220982D01*
X0082400Y0221791D01*
X0082400Y0222200D01*
X0082400Y0222609D01*
X0082272Y0223418D01*
X0082019Y0224196D01*
X0081647Y0224925D01*
X0081166Y0225588D01*
X0080588Y0226166D01*
X0079925Y0226647D01*
X0079196Y0227019D01*
X0078418Y0227272D01*
X0077609Y0227400D01*
X0077200Y0227400D01*
X0077200Y0222200D01*
X0077200Y0222200D01*
X0082400Y0222200D01*
X0077200Y0222200D01*
X0077200Y0222200D01*
X0077200Y0227400D01*
X0076791Y0227400D01*
X0075982Y0227272D01*
X0075204Y0227019D01*
X0074475Y0226647D01*
X0073812Y0226166D01*
X0073234Y0225588D01*
X0073047Y0225331D01*
X0072795Y0225939D01*
X0070939Y0227795D01*
X0063326Y0227660D02*
X0061074Y0227660D01*
X0053326Y0227660D02*
X0031074Y0227660D01*
X0030939Y0227795D02*
X0028513Y0228800D01*
X0025887Y0228800D01*
X0023461Y0227795D01*
X0022200Y0226534D01*
X0020939Y0227795D01*
X0018513Y0228800D01*
X0015887Y0228800D01*
X0013461Y0227795D01*
X0011605Y0225939D01*
X0010600Y0223513D01*
X0010600Y0220887D01*
X0011605Y0218461D01*
X0013461Y0216605D01*
X0015887Y0215600D01*
X0018513Y0215600D01*
X0020939Y0216605D01*
X0022200Y0217866D01*
X0023461Y0216605D01*
X0025887Y0215600D01*
X0028513Y0215600D01*
X0030939Y0216605D01*
X0032795Y0218461D01*
X0033047Y0219069D01*
X0033234Y0218812D01*
X0033812Y0218234D01*
X0034475Y0217753D01*
X0035204Y0217381D01*
X0035982Y0217128D01*
X0036791Y0217000D01*
X0037200Y0217000D01*
X0037609Y0217000D01*
X0038418Y0217128D01*
X0039196Y0217381D01*
X0039925Y0217753D01*
X0040588Y0218234D01*
X0041166Y0218812D01*
X0041647Y0219475D01*
X0042019Y0220204D01*
X0042272Y0220982D01*
X0042400Y0221791D01*
X0042400Y0222200D01*
X0042400Y0222609D01*
X0042272Y0223418D01*
X0042019Y0224196D01*
X0041647Y0224925D01*
X0041166Y0225588D01*
X0040588Y0226166D01*
X0039925Y0226647D01*
X0039196Y0227019D01*
X0038418Y0227272D01*
X0037609Y0227400D01*
X0037200Y0227400D01*
X0037200Y0222200D01*
X0037200Y0222200D01*
X0042400Y0222200D01*
X0037200Y0222200D01*
X0037200Y0222200D01*
X0037200Y0227400D01*
X0036791Y0227400D01*
X0035982Y0227272D01*
X0035204Y0227019D01*
X0034475Y0226647D01*
X0033812Y0226166D01*
X0033234Y0225588D01*
X0033047Y0225331D01*
X0032795Y0225939D01*
X0030939Y0227795D01*
X0037200Y0225262D02*
X0037200Y0225262D01*
X0037200Y0222863D02*
X0037200Y0222863D01*
X0037200Y0222200D02*
X0037200Y0217000D01*
X0037200Y0222200D01*
X0037200Y0222200D01*
X0037200Y0220465D02*
X0037200Y0220465D01*
X0037200Y0218066D02*
X0037200Y0218066D01*
X0040357Y0218066D02*
X0052000Y0218066D01*
X0050775Y0220465D02*
X0042104Y0220465D01*
X0042360Y0222863D02*
X0050600Y0222863D01*
X0051324Y0225262D02*
X0041403Y0225262D01*
X0034043Y0218066D02*
X0032400Y0218066D01*
X0028676Y0215668D02*
X0055724Y0215668D01*
X0058676Y0215668D02*
X0065724Y0215668D01*
X0068676Y0215668D02*
X0087200Y0215668D01*
X0087200Y0218066D02*
X0080357Y0218066D01*
X0082104Y0220465D02*
X0087200Y0220465D01*
X0087200Y0222863D02*
X0082360Y0222863D01*
X0081403Y0225262D02*
X0087200Y0225262D01*
X0087200Y0230059D02*
X0007400Y0230059D01*
X0007400Y0231961D02*
X0087200Y0231973D01*
X0087200Y0185194D01*
X0082152Y0183554D01*
X0082152Y0183554D01*
X0077157Y0180384D01*
X0077157Y0180384D01*
X0073107Y0176072D01*
X0073107Y0176072D01*
X0070257Y0170888D01*
X0068786Y0165158D01*
X0068786Y0159242D01*
X0070257Y0153512D01*
X0070333Y0153375D01*
X0068909Y0153375D01*
X0067586Y0152827D01*
X0066573Y0151814D01*
X0066025Y0150491D01*
X0066025Y0143909D01*
X0066573Y0142586D01*
X0067586Y0141573D01*
X0068909Y0141025D01*
X0071587Y0141025D01*
X0080412Y0132200D01*
X0007400Y0132200D01*
X0007400Y0231961D01*
X0007400Y0227660D02*
X0013326Y0227660D01*
X0011324Y0225262D02*
X0007400Y0225262D01*
X0007400Y0222863D02*
X0010600Y0222863D01*
X0010775Y0220465D02*
X0007400Y0220465D01*
X0007400Y0218066D02*
X0012000Y0218066D01*
X0015724Y0215668D02*
X0007400Y0215668D01*
X0007400Y0213269D02*
X0087200Y0213269D01*
X0087200Y0210870D02*
X0007400Y0210870D01*
X0007400Y0208472D02*
X0087200Y0208472D01*
X0087200Y0206073D02*
X0007400Y0206073D01*
X0007400Y0203675D02*
X0087200Y0203675D01*
X0087200Y0201276D02*
X0007400Y0201276D01*
X0007400Y0198878D02*
X0087200Y0198878D01*
X0087200Y0196479D02*
X0007400Y0196479D01*
X0007400Y0194081D02*
X0087200Y0194081D01*
X0087200Y0191682D02*
X0007400Y0191682D01*
X0007400Y0189284D02*
X0087200Y0189284D01*
X0087200Y0186885D02*
X0007400Y0186885D01*
X0007400Y0184487D02*
X0052411Y0184487D01*
X0052684Y0184600D02*
X0051361Y0184052D01*
X0050348Y0183039D01*
X0049800Y0181716D01*
X0049800Y0172684D01*
X0050348Y0171361D01*
X0051361Y0170348D01*
X0052684Y0169800D01*
X0061716Y0169800D01*
X0063039Y0170348D01*
X0064052Y0171361D01*
X0064600Y0172684D01*
X0064600Y0181716D01*
X0064052Y0183039D01*
X0063039Y0184052D01*
X0061716Y0184600D01*
X0052684Y0184600D01*
X0049954Y0182088D02*
X0040680Y0182088D01*
X0040345Y0182332D02*
X0039503Y0182760D01*
X0038605Y0183052D01*
X0037672Y0183200D01*
X0037200Y0183200D01*
X0037200Y0177200D01*
X0043200Y0177200D01*
X0043200Y0177672D01*
X0043052Y0178605D01*
X0042760Y0179503D01*
X0042332Y0180345D01*
X0041777Y0181109D01*
X0041109Y0181777D01*
X0040345Y0182332D01*
X0037200Y0182088D02*
X0037200Y0182088D01*
X0037200Y0183200D02*
X0036728Y0183200D01*
X0035795Y0183052D01*
X0034897Y0182760D01*
X0034055Y0182332D01*
X0033291Y0181777D01*
X0032623Y0181109D01*
X0032068Y0180345D01*
X0031640Y0179503D01*
X0031348Y0178605D01*
X0031200Y0177672D01*
X0031200Y0177200D01*
X0037200Y0177200D01*
X0037200Y0177200D01*
X0037200Y0177200D01*
X0043200Y0177200D01*
X0043200Y0176728D01*
X0043052Y0175795D01*
X0042760Y0174897D01*
X0042332Y0174055D01*
X0041777Y0173291D01*
X0041109Y0172623D01*
X0040345Y0172068D01*
X0039503Y0171640D01*
X0038605Y0171348D01*
X0037672Y0171200D01*
X0037200Y0171200D01*
X0037200Y0177200D01*
X0037200Y0177200D01*
X0037200Y0177200D01*
X0037200Y0183200D01*
X0037200Y0179690D02*
X0037200Y0179690D01*
X0037200Y0177291D02*
X0037200Y0177291D01*
X0037200Y0177200D02*
X0031200Y0177200D01*
X0031200Y0176728D01*
X0031348Y0175795D01*
X0031640Y0174897D01*
X0032068Y0174055D01*
X0032623Y0173291D01*
X0033291Y0172623D01*
X0034055Y0172068D01*
X0034897Y0171640D01*
X0035795Y0171348D01*
X0036728Y0171200D01*
X0037200Y0171200D01*
X0037200Y0177200D01*
X0037200Y0174893D02*
X0037200Y0174893D01*
X0037200Y0172494D02*
X0037200Y0172494D01*
X0040931Y0172494D02*
X0049879Y0172494D01*
X0049800Y0174893D02*
X0042758Y0174893D01*
X0043200Y0177291D02*
X0049800Y0177291D01*
X0049800Y0179690D02*
X0042665Y0179690D01*
X0033720Y0182088D02*
X0007400Y0182088D01*
X0007400Y0179690D02*
X0031735Y0179690D01*
X0031200Y0177291D02*
X0007400Y0177291D01*
X0007400Y0174893D02*
X0031642Y0174893D01*
X0033469Y0172494D02*
X0007400Y0172494D01*
X0007400Y0170096D02*
X0051970Y0170096D01*
X0062430Y0170096D02*
X0070054Y0170096D01*
X0070257Y0170888D02*
X0070257Y0170888D01*
X0071141Y0172494D02*
X0064521Y0172494D01*
X0064600Y0174893D02*
X0072459Y0174893D01*
X0074252Y0177291D02*
X0064600Y0177291D01*
X0064600Y0179690D02*
X0076505Y0179690D01*
X0079842Y0182088D02*
X0064446Y0182088D01*
X0061989Y0184487D02*
X0085023Y0184487D01*
X0069438Y0167697D02*
X0007400Y0167697D01*
X0007400Y0165299D02*
X0068822Y0165299D01*
X0068786Y0162900D02*
X0007400Y0162900D01*
X0007400Y0160502D02*
X0068786Y0160502D01*
X0069079Y0158103D02*
X0007400Y0158103D01*
X0007400Y0155705D02*
X0069694Y0155705D01*
X0070257Y0153512D02*
X0070257Y0153512D01*
X0068744Y0153306D02*
X0007400Y0153306D01*
X0007400Y0150908D02*
X0017739Y0150908D01*
X0017865Y0151126D02*
X0017575Y0150624D01*
X0017425Y0150064D01*
X0017425Y0147200D01*
X0022200Y0147200D01*
X0067200Y0102200D01*
X0107200Y0102200D01*
X0122200Y0087200D01*
X0122200Y0062200D01*
X0107200Y0047200D01*
X0101287Y0050170D02*
X0090425Y0050170D01*
X0090728Y0047772D02*
X0100600Y0047772D01*
X0100813Y0045373D02*
X0090569Y0045373D01*
X0090266Y0042975D02*
X0102091Y0042975D01*
X0103235Y0052569D02*
X0090122Y0052569D01*
X0090059Y0053069D02*
X0090059Y0053069D01*
X0089307Y0054967D02*
X0108179Y0054967D01*
X0110578Y0057366D02*
X0088357Y0057366D01*
X0087013Y0059764D02*
X0112976Y0059764D01*
X0115375Y0062163D02*
X0085270Y0062163D01*
X0082946Y0064561D02*
X0117400Y0064561D01*
X0117400Y0066960D02*
X0080047Y0066960D01*
X0075102Y0069358D02*
X0117400Y0069358D01*
X0117400Y0071757D02*
X0076998Y0071757D01*
X0076814Y0071573D02*
X0077827Y0072586D01*
X0078375Y0073909D01*
X0078375Y0080491D01*
X0077827Y0081814D01*
X0076814Y0082827D01*
X0075491Y0083375D01*
X0068909Y0083375D01*
X0067586Y0082827D01*
X0066573Y0081814D01*
X0066025Y0080491D01*
X0066025Y0073909D01*
X0066573Y0072586D01*
X0067586Y0071573D01*
X0068909Y0071025D01*
X0075491Y0071025D01*
X0076814Y0071573D01*
X0078375Y0074155D02*
X0107473Y0074155D01*
X0107425Y0074336D02*
X0107575Y0073776D01*
X0107865Y0073274D01*
X0108274Y0072865D01*
X0108776Y0072575D01*
X0109336Y0072425D01*
X0112200Y0072425D01*
X0115064Y0072425D01*
X0115624Y0072575D01*
X0116126Y0072865D01*
X0116535Y0073274D01*
X0116825Y0073776D01*
X0116975Y0074336D01*
X0116975Y0077200D01*
X0116975Y0080064D01*
X0116825Y0080624D01*
X0116535Y0081126D01*
X0116126Y0081535D01*
X0115624Y0081825D01*
X0115064Y0081975D01*
X0112200Y0081975D01*
X0109336Y0081975D01*
X0108776Y0081825D01*
X0108274Y0081535D01*
X0107865Y0081126D01*
X0107575Y0080624D01*
X0107425Y0080064D01*
X0107425Y0077200D01*
X0112200Y0077200D01*
X0112200Y0077200D01*
X0112200Y0081975D01*
X0112200Y0077200D01*
X0116975Y0077200D01*
X0112200Y0077200D01*
X0112200Y0077200D01*
X0112200Y0072425D01*
X0112200Y0077200D01*
X0112200Y0077200D01*
X0112200Y0077200D01*
X0107425Y0077200D01*
X0107425Y0074336D01*
X0107425Y0076554D02*
X0078375Y0076554D01*
X0078375Y0078952D02*
X0107425Y0078952D01*
X0108090Y0081351D02*
X0078019Y0081351D01*
X0066381Y0081351D02*
X0026310Y0081351D01*
X0026126Y0081535D02*
X0025624Y0081825D01*
X0025064Y0081975D01*
X0022200Y0081975D01*
X0019336Y0081975D01*
X0018776Y0081825D01*
X0018274Y0081535D01*
X0017865Y0081126D01*
X0017575Y0080624D01*
X0017425Y0080064D01*
X0017425Y0077200D01*
X0022200Y0077200D01*
X0022200Y0077200D01*
X0022200Y0081975D01*
X0022200Y0077200D01*
X0026975Y0077200D01*
X0026975Y0080064D01*
X0026825Y0080624D01*
X0026535Y0081126D01*
X0026126Y0081535D01*
X0026975Y0078952D02*
X0066025Y0078952D01*
X0066025Y0076554D02*
X0026975Y0076554D01*
X0026975Y0077200D02*
X0022200Y0077200D01*
X0022200Y0077200D01*
X0022200Y0072425D01*
X0025064Y0072425D01*
X0025624Y0072575D01*
X0026126Y0072865D01*
X0026535Y0073274D01*
X0026825Y0073776D01*
X0026975Y0074336D01*
X0026975Y0077200D01*
X0026927Y0074155D02*
X0066025Y0074155D01*
X0067402Y0071757D02*
X0007400Y0071757D01*
X0007400Y0074155D02*
X0017473Y0074155D01*
X0017425Y0074336D02*
X0017575Y0073776D01*
X0017865Y0073274D01*
X0018274Y0072865D01*
X0018776Y0072575D01*
X0019336Y0072425D01*
X0022200Y0072425D01*
X0022200Y0077200D01*
X0022200Y0077200D01*
X0022200Y0077200D01*
X0017425Y0077200D01*
X0017425Y0074336D01*
X0017425Y0076554D02*
X0007400Y0076554D01*
X0007400Y0078952D02*
X0017425Y0078952D01*
X0018090Y0081351D02*
X0007400Y0081351D01*
X0007400Y0083749D02*
X0117400Y0083749D01*
X0117400Y0081351D02*
X0116310Y0081351D01*
X0116975Y0078952D02*
X0117400Y0078952D01*
X0117400Y0076554D02*
X0116975Y0076554D01*
X0116927Y0074155D02*
X0117400Y0074155D01*
X0112200Y0074155D02*
X0112200Y0074155D01*
X0112200Y0076554D02*
X0112200Y0076554D01*
X0112200Y0078952D02*
X0112200Y0078952D01*
X0112200Y0081351D02*
X0112200Y0081351D01*
X0116464Y0086148D02*
X0007400Y0086148D01*
X0007400Y0088546D02*
X0114065Y0088546D01*
X0111667Y0090945D02*
X0007400Y0090945D01*
X0007400Y0093343D02*
X0109268Y0093343D01*
X0106870Y0095742D02*
X0007400Y0095742D01*
X0007400Y0098140D02*
X0064471Y0098140D01*
X0063131Y0099481D02*
X0063131Y0099481D01*
X0062073Y0100539D02*
X0007400Y0100539D01*
X0007400Y0102937D02*
X0059674Y0102937D01*
X0057276Y0105336D02*
X0007400Y0105336D01*
X0007400Y0107734D02*
X0054877Y0107734D01*
X0052479Y0110133D02*
X0007400Y0110133D01*
X0007400Y0112532D02*
X0050080Y0112532D01*
X0047682Y0114930D02*
X0007400Y0114930D01*
X0007400Y0134118D02*
X0078494Y0134118D01*
X0076095Y0136517D02*
X0007400Y0136517D01*
X0007400Y0138915D02*
X0073697Y0138915D01*
X0068213Y0141314D02*
X0007400Y0141314D01*
X0007400Y0143712D02*
X0017612Y0143712D01*
X0017575Y0143776D02*
X0017865Y0143274D01*
X0018274Y0142865D01*
X0018776Y0142575D01*
X0019336Y0142425D01*
X0022200Y0142425D01*
X0025064Y0142425D01*
X0025624Y0142575D01*
X0026126Y0142865D01*
X0026535Y0143274D01*
X0026825Y0143776D01*
X0026975Y0144336D01*
X0026975Y0147200D01*
X0026975Y0150064D01*
X0026825Y0150624D01*
X0026535Y0151126D01*
X0026126Y0151535D01*
X0025624Y0151825D01*
X0025064Y0151975D01*
X0022200Y0151975D01*
X0019336Y0151975D01*
X0018776Y0151825D01*
X0018274Y0151535D01*
X0017865Y0151126D01*
X0017425Y0148509D02*
X0007400Y0148509D01*
X0007400Y0146111D02*
X0017425Y0146111D01*
X0017425Y0147200D02*
X0017425Y0144336D01*
X0017575Y0143776D01*
X0017425Y0147200D02*
X0022200Y0147200D01*
X0022200Y0147200D01*
X0022200Y0151975D01*
X0022200Y0147200D01*
X0026975Y0147200D01*
X0022200Y0147200D01*
X0022200Y0147200D01*
X0022200Y0142425D01*
X0022200Y0147200D01*
X0022200Y0147200D01*
X0022200Y0147200D01*
X0022200Y0146111D02*
X0022200Y0146111D01*
X0022200Y0148509D02*
X0022200Y0148509D01*
X0022200Y0150908D02*
X0022200Y0150908D01*
X0026661Y0150908D02*
X0066198Y0150908D01*
X0066025Y0148509D02*
X0026975Y0148509D01*
X0026975Y0146111D02*
X0066025Y0146111D01*
X0066107Y0143712D02*
X0026788Y0143712D01*
X0022200Y0143712D02*
X0022200Y0143712D01*
X0072200Y0147200D02*
X0127200Y0092200D01*
X0127200Y0047200D01*
X0117200Y0047200D02*
X0117200Y0042200D01*
X0122200Y0037200D01*
X0152200Y0037200D01*
X0157200Y0042200D01*
X0157200Y0047200D01*
X0161723Y0040576D02*
X0184727Y0040576D01*
X0185441Y0038178D02*
X0159966Y0038178D01*
X0157567Y0035779D02*
X0186760Y0035779D01*
X0188078Y0033381D02*
X0155169Y0033381D01*
X0190310Y0030982D02*
X0084328Y0030982D01*
X0084404Y0031045D02*
X0084404Y0031045D01*
X0084404Y0031045D01*
X0086101Y0033381D02*
X0119231Y0033381D01*
X0116833Y0035779D02*
X0087843Y0035779D01*
X0087881Y0035831D02*
X0087881Y0035831D01*
X0088810Y0038178D02*
X0114434Y0038178D01*
X0112677Y0040576D02*
X0089760Y0040576D01*
X0090059Y0041331D02*
X0090059Y0041331D01*
X0081429Y0028584D02*
X0192838Y0028584D01*
X0196617Y0026185D02*
X0077532Y0026185D01*
X0074493Y0024755D02*
X0074493Y0024755D01*
X0062778Y0024018D02*
X0062778Y0024018D01*
X0057152Y0025846D02*
X0057152Y0025846D01*
X0047388Y0059764D02*
X0007400Y0059764D01*
X0007400Y0062163D02*
X0049132Y0062163D01*
X0051384Y0064561D02*
X0007400Y0064561D01*
X0007400Y0066960D02*
X0054640Y0066960D01*
X0057152Y0068554D02*
X0057152Y0068554D01*
X0059627Y0069358D02*
X0007400Y0069358D01*
X0022200Y0074155D02*
X0022200Y0074155D01*
X0022200Y0076554D02*
X0022200Y0076554D01*
X0022200Y0078952D02*
X0022200Y0078952D01*
X0022200Y0081351D02*
X0022200Y0081351D01*
X0152430Y0170096D02*
X0160054Y0170096D01*
X0160257Y0170888D02*
X0160257Y0170888D01*
X0161141Y0172494D02*
X0154521Y0172494D01*
X0154600Y0174893D02*
X0162459Y0174893D01*
X0164252Y0177291D02*
X0154600Y0177291D01*
X0154600Y0179690D02*
X0166505Y0179690D01*
X0167157Y0180384D02*
X0167157Y0180384D01*
X0169842Y0182088D02*
X0154446Y0182088D01*
X0162400Y0218066D02*
X0164043Y0218066D01*
X0167200Y0218066D02*
X0167200Y0218066D01*
X0167200Y0217000D02*
X0167200Y0222200D01*
X0167200Y0222200D01*
X0167200Y0217000D01*
X0170357Y0218066D02*
X0177200Y0218066D01*
X0177200Y0220465D02*
X0172104Y0220465D01*
X0172360Y0222863D02*
X0177200Y0222863D01*
X0177200Y0225262D02*
X0171403Y0225262D01*
X0167200Y0225262D02*
X0167200Y0225262D01*
X0167200Y0222863D02*
X0167200Y0222863D01*
X0167200Y0220465D02*
X0167200Y0220465D01*
X0198676Y0215668D02*
X0205724Y0215668D01*
X0208676Y0215668D02*
X0235724Y0215668D01*
X0238676Y0215668D02*
X0245724Y0215668D01*
X0248676Y0215668D02*
X0257400Y0215668D01*
X0257200Y0217000D02*
X0257200Y0222200D01*
X0257200Y0222200D01*
X0257200Y0217000D01*
X0257200Y0218066D02*
X0257200Y0218066D01*
X0257200Y0220465D02*
X0257200Y0220465D01*
X0254043Y0218066D02*
X0252692Y0218066D01*
X0243326Y0227660D02*
X0241074Y0227660D01*
X0233326Y0227660D02*
X0211074Y0227660D01*
X0217200Y0225262D02*
X0217200Y0225262D01*
X0217200Y0222863D02*
X0217200Y0222863D01*
X0217200Y0222200D02*
X0217200Y0217000D01*
X0217200Y0222200D01*
X0217200Y0222200D01*
X0217200Y0220465D02*
X0217200Y0220465D01*
X0217200Y0218066D02*
X0217200Y0218066D01*
X0220357Y0218066D02*
X0232000Y0218066D01*
X0230775Y0220465D02*
X0222104Y0220465D01*
X0222360Y0222863D02*
X0230600Y0222863D01*
X0231324Y0225262D02*
X0221403Y0225262D01*
X0214043Y0218066D02*
X0212400Y0218066D01*
X0203326Y0227660D02*
X0201074Y0227660D01*
X0171415Y0141314D02*
X0166187Y0141314D01*
X0193139Y0081351D02*
X0198090Y0081351D01*
X0197425Y0078952D02*
X0192000Y0078952D01*
X0192000Y0076554D02*
X0197425Y0076554D01*
X0202200Y0076554D02*
X0202200Y0076554D01*
X0202200Y0078952D02*
X0202200Y0078952D01*
X0202200Y0081351D02*
X0202200Y0081351D01*
X0202200Y0074155D02*
X0202200Y0074155D01*
X0215102Y0069358D02*
X0257400Y0069358D01*
X0257400Y0066960D02*
X0220047Y0066960D01*
X0222946Y0064561D02*
X0257400Y0064561D01*
X0257400Y0062163D02*
X0225270Y0062163D01*
X0224404Y0063355D02*
X0224404Y0063355D01*
X0227013Y0059764D02*
X0257400Y0059764D01*
X0257400Y0057366D02*
X0228357Y0057366D01*
X0229307Y0054967D02*
X0237167Y0054967D01*
X0234830Y0052569D02*
X0230122Y0052569D01*
X0230059Y0053069D02*
X0230059Y0053069D01*
X0230425Y0050170D02*
X0233836Y0050170D01*
X0233561Y0047772D02*
X0230728Y0047772D01*
X0230569Y0045373D02*
X0233852Y0045373D01*
X0234845Y0042975D02*
X0230266Y0042975D01*
X0229760Y0040576D02*
X0237205Y0040576D01*
X0235968Y0038178D02*
X0228810Y0038178D01*
X0227843Y0035779D02*
X0234333Y0035779D01*
X0233561Y0033381D02*
X0226101Y0033381D01*
X0224328Y0030982D02*
X0233561Y0030982D01*
X0234348Y0028584D02*
X0221429Y0028584D01*
X0217532Y0026185D02*
X0236005Y0026185D01*
X0257651Y0021388D02*
X0262200Y0021388D01*
X0262200Y0018990D02*
X0259048Y0018990D01*
X0257400Y0054967D02*
X0257233Y0054967D01*
X0257400Y0071757D02*
X0256998Y0071757D01*
X0077200Y0217000D02*
X0077200Y0222200D01*
X0077200Y0222200D01*
X0077200Y0217000D01*
X0077200Y0218066D02*
X0077200Y0218066D01*
X0077200Y0220465D02*
X0077200Y0220465D01*
X0077200Y0222863D02*
X0077200Y0222863D01*
X0077200Y0225262D02*
X0077200Y0225262D01*
X0074043Y0218066D02*
X0072400Y0218066D01*
X0025724Y0215668D02*
X0018676Y0215668D01*
X0021074Y0227660D02*
X0023326Y0227660D01*
M02*
