G75*
%MOIN*%
%OFA0B0*%
%FSLAX25Y25*%
%IPPOS*%
%LPD*%
%AMOC8*
5,1,8,0,0,1.08239X$1,22.5*
%
%ADD10C,0.08400*%
%ADD11R,0.08400X0.08400*%
%ADD12C,0.06800*%
%ADD13R,0.05950X0.05950*%
%ADD14C,0.16942*%
%ADD15C,0.10839*%
D10*
X0037200Y0177200D03*
X0127200Y0177200D03*
X0217200Y0177200D03*
D11*
X0237200Y0177200D03*
X0147200Y0177200D03*
X0057200Y0177200D03*
D12*
X0057200Y0222200D03*
X0067200Y0222200D03*
X0077200Y0222200D03*
X0107200Y0222200D03*
X0117200Y0222200D03*
X0127200Y0222200D03*
X0147200Y0222200D03*
X0157200Y0222200D03*
X0167200Y0222200D03*
X0197200Y0222200D03*
X0207200Y0222200D03*
X0217200Y0222200D03*
X0237200Y0222200D03*
X0247200Y0222200D03*
X0257200Y0222200D03*
X0167200Y0047200D03*
X0157200Y0047200D03*
X0127200Y0047200D03*
X0117200Y0047200D03*
X0107200Y0047200D03*
X0037200Y0222200D03*
X0027200Y0222200D03*
X0017200Y0222200D03*
D13*
X0022200Y0147200D03*
X0072200Y0147200D03*
X0112200Y0147200D03*
X0162200Y0147200D03*
X0202200Y0147200D03*
X0252200Y0147200D03*
X0252200Y0077200D03*
X0202200Y0077200D03*
X0162200Y0077200D03*
X0112200Y0077200D03*
X0072200Y0077200D03*
X0022200Y0077200D03*
D14*
X0067200Y0047200D03*
X0092200Y0162200D03*
X0182200Y0162200D03*
X0207200Y0047200D03*
D15*
X0032220Y0016609D02*
X0022180Y0016609D01*
X0022180Y0032200D02*
X0032220Y0032200D01*
X0032220Y0047791D02*
X0022180Y0047791D01*
X0242180Y0047791D02*
X0252220Y0047791D01*
X0252220Y0032200D02*
X0242180Y0032200D01*
X0242180Y0016609D02*
X0252220Y0016609D01*
M02*
