G75*
%MOIN*%
%OFA0B0*%
%FSLAX25Y25*%
%IPPOS*%
%LPD*%
%AMOC8*
5,1,8,0,0,1.08239X$1,22.5*
%
%ADD10C,0.00000*%
%ADD11C,0.00400*%
%ADD12C,0.00300*%
%ADD13C,0.00800*%
%ADD14C,0.01000*%
%ADD15C,0.00500*%
%ADD16R,0.01181X0.00591*%
%ADD17R,0.01181X0.01181*%
%ADD18C,0.00600*%
D10*
X0002200Y0002200D02*
X0002200Y0237161D01*
X0272200Y0237200D01*
X0272200Y0002200D01*
X0002200Y0002200D01*
X0059129Y0047200D02*
X0059131Y0047398D01*
X0059139Y0047596D01*
X0059151Y0047794D01*
X0059168Y0047991D01*
X0059190Y0048188D01*
X0059216Y0048384D01*
X0059248Y0048580D01*
X0059284Y0048775D01*
X0059325Y0048968D01*
X0059371Y0049161D01*
X0059421Y0049353D01*
X0059477Y0049543D01*
X0059536Y0049732D01*
X0059601Y0049919D01*
X0059670Y0050105D01*
X0059743Y0050289D01*
X0059821Y0050471D01*
X0059904Y0050651D01*
X0059991Y0050829D01*
X0060082Y0051005D01*
X0060178Y0051178D01*
X0060277Y0051349D01*
X0060381Y0051518D01*
X0060489Y0051684D01*
X0060601Y0051847D01*
X0060717Y0052008D01*
X0060837Y0052166D01*
X0060961Y0052320D01*
X0061089Y0052472D01*
X0061220Y0052620D01*
X0061355Y0052765D01*
X0061493Y0052907D01*
X0061635Y0053045D01*
X0061780Y0053180D01*
X0061928Y0053311D01*
X0062080Y0053439D01*
X0062234Y0053563D01*
X0062392Y0053683D01*
X0062553Y0053799D01*
X0062716Y0053911D01*
X0062882Y0054019D01*
X0063051Y0054123D01*
X0063222Y0054222D01*
X0063395Y0054318D01*
X0063571Y0054409D01*
X0063749Y0054496D01*
X0063929Y0054579D01*
X0064111Y0054657D01*
X0064295Y0054730D01*
X0064481Y0054799D01*
X0064668Y0054864D01*
X0064857Y0054923D01*
X0065047Y0054979D01*
X0065239Y0055029D01*
X0065432Y0055075D01*
X0065625Y0055116D01*
X0065820Y0055152D01*
X0066016Y0055184D01*
X0066212Y0055210D01*
X0066409Y0055232D01*
X0066606Y0055249D01*
X0066804Y0055261D01*
X0067002Y0055269D01*
X0067200Y0055271D01*
X0067398Y0055269D01*
X0067596Y0055261D01*
X0067794Y0055249D01*
X0067991Y0055232D01*
X0068188Y0055210D01*
X0068384Y0055184D01*
X0068580Y0055152D01*
X0068775Y0055116D01*
X0068968Y0055075D01*
X0069161Y0055029D01*
X0069353Y0054979D01*
X0069543Y0054923D01*
X0069732Y0054864D01*
X0069919Y0054799D01*
X0070105Y0054730D01*
X0070289Y0054657D01*
X0070471Y0054579D01*
X0070651Y0054496D01*
X0070829Y0054409D01*
X0071005Y0054318D01*
X0071178Y0054222D01*
X0071349Y0054123D01*
X0071518Y0054019D01*
X0071684Y0053911D01*
X0071847Y0053799D01*
X0072008Y0053683D01*
X0072166Y0053563D01*
X0072320Y0053439D01*
X0072472Y0053311D01*
X0072620Y0053180D01*
X0072765Y0053045D01*
X0072907Y0052907D01*
X0073045Y0052765D01*
X0073180Y0052620D01*
X0073311Y0052472D01*
X0073439Y0052320D01*
X0073563Y0052166D01*
X0073683Y0052008D01*
X0073799Y0051847D01*
X0073911Y0051684D01*
X0074019Y0051518D01*
X0074123Y0051349D01*
X0074222Y0051178D01*
X0074318Y0051005D01*
X0074409Y0050829D01*
X0074496Y0050651D01*
X0074579Y0050471D01*
X0074657Y0050289D01*
X0074730Y0050105D01*
X0074799Y0049919D01*
X0074864Y0049732D01*
X0074923Y0049543D01*
X0074979Y0049353D01*
X0075029Y0049161D01*
X0075075Y0048968D01*
X0075116Y0048775D01*
X0075152Y0048580D01*
X0075184Y0048384D01*
X0075210Y0048188D01*
X0075232Y0047991D01*
X0075249Y0047794D01*
X0075261Y0047596D01*
X0075269Y0047398D01*
X0075271Y0047200D01*
X0075269Y0047002D01*
X0075261Y0046804D01*
X0075249Y0046606D01*
X0075232Y0046409D01*
X0075210Y0046212D01*
X0075184Y0046016D01*
X0075152Y0045820D01*
X0075116Y0045625D01*
X0075075Y0045432D01*
X0075029Y0045239D01*
X0074979Y0045047D01*
X0074923Y0044857D01*
X0074864Y0044668D01*
X0074799Y0044481D01*
X0074730Y0044295D01*
X0074657Y0044111D01*
X0074579Y0043929D01*
X0074496Y0043749D01*
X0074409Y0043571D01*
X0074318Y0043395D01*
X0074222Y0043222D01*
X0074123Y0043051D01*
X0074019Y0042882D01*
X0073911Y0042716D01*
X0073799Y0042553D01*
X0073683Y0042392D01*
X0073563Y0042234D01*
X0073439Y0042080D01*
X0073311Y0041928D01*
X0073180Y0041780D01*
X0073045Y0041635D01*
X0072907Y0041493D01*
X0072765Y0041355D01*
X0072620Y0041220D01*
X0072472Y0041089D01*
X0072320Y0040961D01*
X0072166Y0040837D01*
X0072008Y0040717D01*
X0071847Y0040601D01*
X0071684Y0040489D01*
X0071518Y0040381D01*
X0071349Y0040277D01*
X0071178Y0040178D01*
X0071005Y0040082D01*
X0070829Y0039991D01*
X0070651Y0039904D01*
X0070471Y0039821D01*
X0070289Y0039743D01*
X0070105Y0039670D01*
X0069919Y0039601D01*
X0069732Y0039536D01*
X0069543Y0039477D01*
X0069353Y0039421D01*
X0069161Y0039371D01*
X0068968Y0039325D01*
X0068775Y0039284D01*
X0068580Y0039248D01*
X0068384Y0039216D01*
X0068188Y0039190D01*
X0067991Y0039168D01*
X0067794Y0039151D01*
X0067596Y0039139D01*
X0067398Y0039131D01*
X0067200Y0039129D01*
X0067002Y0039131D01*
X0066804Y0039139D01*
X0066606Y0039151D01*
X0066409Y0039168D01*
X0066212Y0039190D01*
X0066016Y0039216D01*
X0065820Y0039248D01*
X0065625Y0039284D01*
X0065432Y0039325D01*
X0065239Y0039371D01*
X0065047Y0039421D01*
X0064857Y0039477D01*
X0064668Y0039536D01*
X0064481Y0039601D01*
X0064295Y0039670D01*
X0064111Y0039743D01*
X0063929Y0039821D01*
X0063749Y0039904D01*
X0063571Y0039991D01*
X0063395Y0040082D01*
X0063222Y0040178D01*
X0063051Y0040277D01*
X0062882Y0040381D01*
X0062716Y0040489D01*
X0062553Y0040601D01*
X0062392Y0040717D01*
X0062234Y0040837D01*
X0062080Y0040961D01*
X0061928Y0041089D01*
X0061780Y0041220D01*
X0061635Y0041355D01*
X0061493Y0041493D01*
X0061355Y0041635D01*
X0061220Y0041780D01*
X0061089Y0041928D01*
X0060961Y0042080D01*
X0060837Y0042234D01*
X0060717Y0042392D01*
X0060601Y0042553D01*
X0060489Y0042716D01*
X0060381Y0042882D01*
X0060277Y0043051D01*
X0060178Y0043222D01*
X0060082Y0043395D01*
X0059991Y0043571D01*
X0059904Y0043749D01*
X0059821Y0043929D01*
X0059743Y0044111D01*
X0059670Y0044295D01*
X0059601Y0044481D01*
X0059536Y0044668D01*
X0059477Y0044857D01*
X0059421Y0045047D01*
X0059371Y0045239D01*
X0059325Y0045432D01*
X0059284Y0045625D01*
X0059248Y0045820D01*
X0059216Y0046016D01*
X0059190Y0046212D01*
X0059168Y0046409D01*
X0059151Y0046606D01*
X0059139Y0046804D01*
X0059131Y0047002D01*
X0059129Y0047200D01*
X0084129Y0162200D02*
X0084131Y0162398D01*
X0084139Y0162596D01*
X0084151Y0162794D01*
X0084168Y0162991D01*
X0084190Y0163188D01*
X0084216Y0163384D01*
X0084248Y0163580D01*
X0084284Y0163775D01*
X0084325Y0163968D01*
X0084371Y0164161D01*
X0084421Y0164353D01*
X0084477Y0164543D01*
X0084536Y0164732D01*
X0084601Y0164919D01*
X0084670Y0165105D01*
X0084743Y0165289D01*
X0084821Y0165471D01*
X0084904Y0165651D01*
X0084991Y0165829D01*
X0085082Y0166005D01*
X0085178Y0166178D01*
X0085277Y0166349D01*
X0085381Y0166518D01*
X0085489Y0166684D01*
X0085601Y0166847D01*
X0085717Y0167008D01*
X0085837Y0167166D01*
X0085961Y0167320D01*
X0086089Y0167472D01*
X0086220Y0167620D01*
X0086355Y0167765D01*
X0086493Y0167907D01*
X0086635Y0168045D01*
X0086780Y0168180D01*
X0086928Y0168311D01*
X0087080Y0168439D01*
X0087234Y0168563D01*
X0087392Y0168683D01*
X0087553Y0168799D01*
X0087716Y0168911D01*
X0087882Y0169019D01*
X0088051Y0169123D01*
X0088222Y0169222D01*
X0088395Y0169318D01*
X0088571Y0169409D01*
X0088749Y0169496D01*
X0088929Y0169579D01*
X0089111Y0169657D01*
X0089295Y0169730D01*
X0089481Y0169799D01*
X0089668Y0169864D01*
X0089857Y0169923D01*
X0090047Y0169979D01*
X0090239Y0170029D01*
X0090432Y0170075D01*
X0090625Y0170116D01*
X0090820Y0170152D01*
X0091016Y0170184D01*
X0091212Y0170210D01*
X0091409Y0170232D01*
X0091606Y0170249D01*
X0091804Y0170261D01*
X0092002Y0170269D01*
X0092200Y0170271D01*
X0092398Y0170269D01*
X0092596Y0170261D01*
X0092794Y0170249D01*
X0092991Y0170232D01*
X0093188Y0170210D01*
X0093384Y0170184D01*
X0093580Y0170152D01*
X0093775Y0170116D01*
X0093968Y0170075D01*
X0094161Y0170029D01*
X0094353Y0169979D01*
X0094543Y0169923D01*
X0094732Y0169864D01*
X0094919Y0169799D01*
X0095105Y0169730D01*
X0095289Y0169657D01*
X0095471Y0169579D01*
X0095651Y0169496D01*
X0095829Y0169409D01*
X0096005Y0169318D01*
X0096178Y0169222D01*
X0096349Y0169123D01*
X0096518Y0169019D01*
X0096684Y0168911D01*
X0096847Y0168799D01*
X0097008Y0168683D01*
X0097166Y0168563D01*
X0097320Y0168439D01*
X0097472Y0168311D01*
X0097620Y0168180D01*
X0097765Y0168045D01*
X0097907Y0167907D01*
X0098045Y0167765D01*
X0098180Y0167620D01*
X0098311Y0167472D01*
X0098439Y0167320D01*
X0098563Y0167166D01*
X0098683Y0167008D01*
X0098799Y0166847D01*
X0098911Y0166684D01*
X0099019Y0166518D01*
X0099123Y0166349D01*
X0099222Y0166178D01*
X0099318Y0166005D01*
X0099409Y0165829D01*
X0099496Y0165651D01*
X0099579Y0165471D01*
X0099657Y0165289D01*
X0099730Y0165105D01*
X0099799Y0164919D01*
X0099864Y0164732D01*
X0099923Y0164543D01*
X0099979Y0164353D01*
X0100029Y0164161D01*
X0100075Y0163968D01*
X0100116Y0163775D01*
X0100152Y0163580D01*
X0100184Y0163384D01*
X0100210Y0163188D01*
X0100232Y0162991D01*
X0100249Y0162794D01*
X0100261Y0162596D01*
X0100269Y0162398D01*
X0100271Y0162200D01*
X0100269Y0162002D01*
X0100261Y0161804D01*
X0100249Y0161606D01*
X0100232Y0161409D01*
X0100210Y0161212D01*
X0100184Y0161016D01*
X0100152Y0160820D01*
X0100116Y0160625D01*
X0100075Y0160432D01*
X0100029Y0160239D01*
X0099979Y0160047D01*
X0099923Y0159857D01*
X0099864Y0159668D01*
X0099799Y0159481D01*
X0099730Y0159295D01*
X0099657Y0159111D01*
X0099579Y0158929D01*
X0099496Y0158749D01*
X0099409Y0158571D01*
X0099318Y0158395D01*
X0099222Y0158222D01*
X0099123Y0158051D01*
X0099019Y0157882D01*
X0098911Y0157716D01*
X0098799Y0157553D01*
X0098683Y0157392D01*
X0098563Y0157234D01*
X0098439Y0157080D01*
X0098311Y0156928D01*
X0098180Y0156780D01*
X0098045Y0156635D01*
X0097907Y0156493D01*
X0097765Y0156355D01*
X0097620Y0156220D01*
X0097472Y0156089D01*
X0097320Y0155961D01*
X0097166Y0155837D01*
X0097008Y0155717D01*
X0096847Y0155601D01*
X0096684Y0155489D01*
X0096518Y0155381D01*
X0096349Y0155277D01*
X0096178Y0155178D01*
X0096005Y0155082D01*
X0095829Y0154991D01*
X0095651Y0154904D01*
X0095471Y0154821D01*
X0095289Y0154743D01*
X0095105Y0154670D01*
X0094919Y0154601D01*
X0094732Y0154536D01*
X0094543Y0154477D01*
X0094353Y0154421D01*
X0094161Y0154371D01*
X0093968Y0154325D01*
X0093775Y0154284D01*
X0093580Y0154248D01*
X0093384Y0154216D01*
X0093188Y0154190D01*
X0092991Y0154168D01*
X0092794Y0154151D01*
X0092596Y0154139D01*
X0092398Y0154131D01*
X0092200Y0154129D01*
X0092002Y0154131D01*
X0091804Y0154139D01*
X0091606Y0154151D01*
X0091409Y0154168D01*
X0091212Y0154190D01*
X0091016Y0154216D01*
X0090820Y0154248D01*
X0090625Y0154284D01*
X0090432Y0154325D01*
X0090239Y0154371D01*
X0090047Y0154421D01*
X0089857Y0154477D01*
X0089668Y0154536D01*
X0089481Y0154601D01*
X0089295Y0154670D01*
X0089111Y0154743D01*
X0088929Y0154821D01*
X0088749Y0154904D01*
X0088571Y0154991D01*
X0088395Y0155082D01*
X0088222Y0155178D01*
X0088051Y0155277D01*
X0087882Y0155381D01*
X0087716Y0155489D01*
X0087553Y0155601D01*
X0087392Y0155717D01*
X0087234Y0155837D01*
X0087080Y0155961D01*
X0086928Y0156089D01*
X0086780Y0156220D01*
X0086635Y0156355D01*
X0086493Y0156493D01*
X0086355Y0156635D01*
X0086220Y0156780D01*
X0086089Y0156928D01*
X0085961Y0157080D01*
X0085837Y0157234D01*
X0085717Y0157392D01*
X0085601Y0157553D01*
X0085489Y0157716D01*
X0085381Y0157882D01*
X0085277Y0158051D01*
X0085178Y0158222D01*
X0085082Y0158395D01*
X0084991Y0158571D01*
X0084904Y0158749D01*
X0084821Y0158929D01*
X0084743Y0159111D01*
X0084670Y0159295D01*
X0084601Y0159481D01*
X0084536Y0159668D01*
X0084477Y0159857D01*
X0084421Y0160047D01*
X0084371Y0160239D01*
X0084325Y0160432D01*
X0084284Y0160625D01*
X0084248Y0160820D01*
X0084216Y0161016D01*
X0084190Y0161212D01*
X0084168Y0161409D01*
X0084151Y0161606D01*
X0084139Y0161804D01*
X0084131Y0162002D01*
X0084129Y0162200D01*
X0174129Y0162200D02*
X0174131Y0162398D01*
X0174139Y0162596D01*
X0174151Y0162794D01*
X0174168Y0162991D01*
X0174190Y0163188D01*
X0174216Y0163384D01*
X0174248Y0163580D01*
X0174284Y0163775D01*
X0174325Y0163968D01*
X0174371Y0164161D01*
X0174421Y0164353D01*
X0174477Y0164543D01*
X0174536Y0164732D01*
X0174601Y0164919D01*
X0174670Y0165105D01*
X0174743Y0165289D01*
X0174821Y0165471D01*
X0174904Y0165651D01*
X0174991Y0165829D01*
X0175082Y0166005D01*
X0175178Y0166178D01*
X0175277Y0166349D01*
X0175381Y0166518D01*
X0175489Y0166684D01*
X0175601Y0166847D01*
X0175717Y0167008D01*
X0175837Y0167166D01*
X0175961Y0167320D01*
X0176089Y0167472D01*
X0176220Y0167620D01*
X0176355Y0167765D01*
X0176493Y0167907D01*
X0176635Y0168045D01*
X0176780Y0168180D01*
X0176928Y0168311D01*
X0177080Y0168439D01*
X0177234Y0168563D01*
X0177392Y0168683D01*
X0177553Y0168799D01*
X0177716Y0168911D01*
X0177882Y0169019D01*
X0178051Y0169123D01*
X0178222Y0169222D01*
X0178395Y0169318D01*
X0178571Y0169409D01*
X0178749Y0169496D01*
X0178929Y0169579D01*
X0179111Y0169657D01*
X0179295Y0169730D01*
X0179481Y0169799D01*
X0179668Y0169864D01*
X0179857Y0169923D01*
X0180047Y0169979D01*
X0180239Y0170029D01*
X0180432Y0170075D01*
X0180625Y0170116D01*
X0180820Y0170152D01*
X0181016Y0170184D01*
X0181212Y0170210D01*
X0181409Y0170232D01*
X0181606Y0170249D01*
X0181804Y0170261D01*
X0182002Y0170269D01*
X0182200Y0170271D01*
X0182398Y0170269D01*
X0182596Y0170261D01*
X0182794Y0170249D01*
X0182991Y0170232D01*
X0183188Y0170210D01*
X0183384Y0170184D01*
X0183580Y0170152D01*
X0183775Y0170116D01*
X0183968Y0170075D01*
X0184161Y0170029D01*
X0184353Y0169979D01*
X0184543Y0169923D01*
X0184732Y0169864D01*
X0184919Y0169799D01*
X0185105Y0169730D01*
X0185289Y0169657D01*
X0185471Y0169579D01*
X0185651Y0169496D01*
X0185829Y0169409D01*
X0186005Y0169318D01*
X0186178Y0169222D01*
X0186349Y0169123D01*
X0186518Y0169019D01*
X0186684Y0168911D01*
X0186847Y0168799D01*
X0187008Y0168683D01*
X0187166Y0168563D01*
X0187320Y0168439D01*
X0187472Y0168311D01*
X0187620Y0168180D01*
X0187765Y0168045D01*
X0187907Y0167907D01*
X0188045Y0167765D01*
X0188180Y0167620D01*
X0188311Y0167472D01*
X0188439Y0167320D01*
X0188563Y0167166D01*
X0188683Y0167008D01*
X0188799Y0166847D01*
X0188911Y0166684D01*
X0189019Y0166518D01*
X0189123Y0166349D01*
X0189222Y0166178D01*
X0189318Y0166005D01*
X0189409Y0165829D01*
X0189496Y0165651D01*
X0189579Y0165471D01*
X0189657Y0165289D01*
X0189730Y0165105D01*
X0189799Y0164919D01*
X0189864Y0164732D01*
X0189923Y0164543D01*
X0189979Y0164353D01*
X0190029Y0164161D01*
X0190075Y0163968D01*
X0190116Y0163775D01*
X0190152Y0163580D01*
X0190184Y0163384D01*
X0190210Y0163188D01*
X0190232Y0162991D01*
X0190249Y0162794D01*
X0190261Y0162596D01*
X0190269Y0162398D01*
X0190271Y0162200D01*
X0190269Y0162002D01*
X0190261Y0161804D01*
X0190249Y0161606D01*
X0190232Y0161409D01*
X0190210Y0161212D01*
X0190184Y0161016D01*
X0190152Y0160820D01*
X0190116Y0160625D01*
X0190075Y0160432D01*
X0190029Y0160239D01*
X0189979Y0160047D01*
X0189923Y0159857D01*
X0189864Y0159668D01*
X0189799Y0159481D01*
X0189730Y0159295D01*
X0189657Y0159111D01*
X0189579Y0158929D01*
X0189496Y0158749D01*
X0189409Y0158571D01*
X0189318Y0158395D01*
X0189222Y0158222D01*
X0189123Y0158051D01*
X0189019Y0157882D01*
X0188911Y0157716D01*
X0188799Y0157553D01*
X0188683Y0157392D01*
X0188563Y0157234D01*
X0188439Y0157080D01*
X0188311Y0156928D01*
X0188180Y0156780D01*
X0188045Y0156635D01*
X0187907Y0156493D01*
X0187765Y0156355D01*
X0187620Y0156220D01*
X0187472Y0156089D01*
X0187320Y0155961D01*
X0187166Y0155837D01*
X0187008Y0155717D01*
X0186847Y0155601D01*
X0186684Y0155489D01*
X0186518Y0155381D01*
X0186349Y0155277D01*
X0186178Y0155178D01*
X0186005Y0155082D01*
X0185829Y0154991D01*
X0185651Y0154904D01*
X0185471Y0154821D01*
X0185289Y0154743D01*
X0185105Y0154670D01*
X0184919Y0154601D01*
X0184732Y0154536D01*
X0184543Y0154477D01*
X0184353Y0154421D01*
X0184161Y0154371D01*
X0183968Y0154325D01*
X0183775Y0154284D01*
X0183580Y0154248D01*
X0183384Y0154216D01*
X0183188Y0154190D01*
X0182991Y0154168D01*
X0182794Y0154151D01*
X0182596Y0154139D01*
X0182398Y0154131D01*
X0182200Y0154129D01*
X0182002Y0154131D01*
X0181804Y0154139D01*
X0181606Y0154151D01*
X0181409Y0154168D01*
X0181212Y0154190D01*
X0181016Y0154216D01*
X0180820Y0154248D01*
X0180625Y0154284D01*
X0180432Y0154325D01*
X0180239Y0154371D01*
X0180047Y0154421D01*
X0179857Y0154477D01*
X0179668Y0154536D01*
X0179481Y0154601D01*
X0179295Y0154670D01*
X0179111Y0154743D01*
X0178929Y0154821D01*
X0178749Y0154904D01*
X0178571Y0154991D01*
X0178395Y0155082D01*
X0178222Y0155178D01*
X0178051Y0155277D01*
X0177882Y0155381D01*
X0177716Y0155489D01*
X0177553Y0155601D01*
X0177392Y0155717D01*
X0177234Y0155837D01*
X0177080Y0155961D01*
X0176928Y0156089D01*
X0176780Y0156220D01*
X0176635Y0156355D01*
X0176493Y0156493D01*
X0176355Y0156635D01*
X0176220Y0156780D01*
X0176089Y0156928D01*
X0175961Y0157080D01*
X0175837Y0157234D01*
X0175717Y0157392D01*
X0175601Y0157553D01*
X0175489Y0157716D01*
X0175381Y0157882D01*
X0175277Y0158051D01*
X0175178Y0158222D01*
X0175082Y0158395D01*
X0174991Y0158571D01*
X0174904Y0158749D01*
X0174821Y0158929D01*
X0174743Y0159111D01*
X0174670Y0159295D01*
X0174601Y0159481D01*
X0174536Y0159668D01*
X0174477Y0159857D01*
X0174421Y0160047D01*
X0174371Y0160239D01*
X0174325Y0160432D01*
X0174284Y0160625D01*
X0174248Y0160820D01*
X0174216Y0161016D01*
X0174190Y0161212D01*
X0174168Y0161409D01*
X0174151Y0161606D01*
X0174139Y0161804D01*
X0174131Y0162002D01*
X0174129Y0162200D01*
X0199129Y0047200D02*
X0199131Y0047398D01*
X0199139Y0047596D01*
X0199151Y0047794D01*
X0199168Y0047991D01*
X0199190Y0048188D01*
X0199216Y0048384D01*
X0199248Y0048580D01*
X0199284Y0048775D01*
X0199325Y0048968D01*
X0199371Y0049161D01*
X0199421Y0049353D01*
X0199477Y0049543D01*
X0199536Y0049732D01*
X0199601Y0049919D01*
X0199670Y0050105D01*
X0199743Y0050289D01*
X0199821Y0050471D01*
X0199904Y0050651D01*
X0199991Y0050829D01*
X0200082Y0051005D01*
X0200178Y0051178D01*
X0200277Y0051349D01*
X0200381Y0051518D01*
X0200489Y0051684D01*
X0200601Y0051847D01*
X0200717Y0052008D01*
X0200837Y0052166D01*
X0200961Y0052320D01*
X0201089Y0052472D01*
X0201220Y0052620D01*
X0201355Y0052765D01*
X0201493Y0052907D01*
X0201635Y0053045D01*
X0201780Y0053180D01*
X0201928Y0053311D01*
X0202080Y0053439D01*
X0202234Y0053563D01*
X0202392Y0053683D01*
X0202553Y0053799D01*
X0202716Y0053911D01*
X0202882Y0054019D01*
X0203051Y0054123D01*
X0203222Y0054222D01*
X0203395Y0054318D01*
X0203571Y0054409D01*
X0203749Y0054496D01*
X0203929Y0054579D01*
X0204111Y0054657D01*
X0204295Y0054730D01*
X0204481Y0054799D01*
X0204668Y0054864D01*
X0204857Y0054923D01*
X0205047Y0054979D01*
X0205239Y0055029D01*
X0205432Y0055075D01*
X0205625Y0055116D01*
X0205820Y0055152D01*
X0206016Y0055184D01*
X0206212Y0055210D01*
X0206409Y0055232D01*
X0206606Y0055249D01*
X0206804Y0055261D01*
X0207002Y0055269D01*
X0207200Y0055271D01*
X0207398Y0055269D01*
X0207596Y0055261D01*
X0207794Y0055249D01*
X0207991Y0055232D01*
X0208188Y0055210D01*
X0208384Y0055184D01*
X0208580Y0055152D01*
X0208775Y0055116D01*
X0208968Y0055075D01*
X0209161Y0055029D01*
X0209353Y0054979D01*
X0209543Y0054923D01*
X0209732Y0054864D01*
X0209919Y0054799D01*
X0210105Y0054730D01*
X0210289Y0054657D01*
X0210471Y0054579D01*
X0210651Y0054496D01*
X0210829Y0054409D01*
X0211005Y0054318D01*
X0211178Y0054222D01*
X0211349Y0054123D01*
X0211518Y0054019D01*
X0211684Y0053911D01*
X0211847Y0053799D01*
X0212008Y0053683D01*
X0212166Y0053563D01*
X0212320Y0053439D01*
X0212472Y0053311D01*
X0212620Y0053180D01*
X0212765Y0053045D01*
X0212907Y0052907D01*
X0213045Y0052765D01*
X0213180Y0052620D01*
X0213311Y0052472D01*
X0213439Y0052320D01*
X0213563Y0052166D01*
X0213683Y0052008D01*
X0213799Y0051847D01*
X0213911Y0051684D01*
X0214019Y0051518D01*
X0214123Y0051349D01*
X0214222Y0051178D01*
X0214318Y0051005D01*
X0214409Y0050829D01*
X0214496Y0050651D01*
X0214579Y0050471D01*
X0214657Y0050289D01*
X0214730Y0050105D01*
X0214799Y0049919D01*
X0214864Y0049732D01*
X0214923Y0049543D01*
X0214979Y0049353D01*
X0215029Y0049161D01*
X0215075Y0048968D01*
X0215116Y0048775D01*
X0215152Y0048580D01*
X0215184Y0048384D01*
X0215210Y0048188D01*
X0215232Y0047991D01*
X0215249Y0047794D01*
X0215261Y0047596D01*
X0215269Y0047398D01*
X0215271Y0047200D01*
X0215269Y0047002D01*
X0215261Y0046804D01*
X0215249Y0046606D01*
X0215232Y0046409D01*
X0215210Y0046212D01*
X0215184Y0046016D01*
X0215152Y0045820D01*
X0215116Y0045625D01*
X0215075Y0045432D01*
X0215029Y0045239D01*
X0214979Y0045047D01*
X0214923Y0044857D01*
X0214864Y0044668D01*
X0214799Y0044481D01*
X0214730Y0044295D01*
X0214657Y0044111D01*
X0214579Y0043929D01*
X0214496Y0043749D01*
X0214409Y0043571D01*
X0214318Y0043395D01*
X0214222Y0043222D01*
X0214123Y0043051D01*
X0214019Y0042882D01*
X0213911Y0042716D01*
X0213799Y0042553D01*
X0213683Y0042392D01*
X0213563Y0042234D01*
X0213439Y0042080D01*
X0213311Y0041928D01*
X0213180Y0041780D01*
X0213045Y0041635D01*
X0212907Y0041493D01*
X0212765Y0041355D01*
X0212620Y0041220D01*
X0212472Y0041089D01*
X0212320Y0040961D01*
X0212166Y0040837D01*
X0212008Y0040717D01*
X0211847Y0040601D01*
X0211684Y0040489D01*
X0211518Y0040381D01*
X0211349Y0040277D01*
X0211178Y0040178D01*
X0211005Y0040082D01*
X0210829Y0039991D01*
X0210651Y0039904D01*
X0210471Y0039821D01*
X0210289Y0039743D01*
X0210105Y0039670D01*
X0209919Y0039601D01*
X0209732Y0039536D01*
X0209543Y0039477D01*
X0209353Y0039421D01*
X0209161Y0039371D01*
X0208968Y0039325D01*
X0208775Y0039284D01*
X0208580Y0039248D01*
X0208384Y0039216D01*
X0208188Y0039190D01*
X0207991Y0039168D01*
X0207794Y0039151D01*
X0207596Y0039139D01*
X0207398Y0039131D01*
X0207200Y0039129D01*
X0207002Y0039131D01*
X0206804Y0039139D01*
X0206606Y0039151D01*
X0206409Y0039168D01*
X0206212Y0039190D01*
X0206016Y0039216D01*
X0205820Y0039248D01*
X0205625Y0039284D01*
X0205432Y0039325D01*
X0205239Y0039371D01*
X0205047Y0039421D01*
X0204857Y0039477D01*
X0204668Y0039536D01*
X0204481Y0039601D01*
X0204295Y0039670D01*
X0204111Y0039743D01*
X0203929Y0039821D01*
X0203749Y0039904D01*
X0203571Y0039991D01*
X0203395Y0040082D01*
X0203222Y0040178D01*
X0203051Y0040277D01*
X0202882Y0040381D01*
X0202716Y0040489D01*
X0202553Y0040601D01*
X0202392Y0040717D01*
X0202234Y0040837D01*
X0202080Y0040961D01*
X0201928Y0041089D01*
X0201780Y0041220D01*
X0201635Y0041355D01*
X0201493Y0041493D01*
X0201355Y0041635D01*
X0201220Y0041780D01*
X0201089Y0041928D01*
X0200961Y0042080D01*
X0200837Y0042234D01*
X0200717Y0042392D01*
X0200601Y0042553D01*
X0200489Y0042716D01*
X0200381Y0042882D01*
X0200277Y0043051D01*
X0200178Y0043222D01*
X0200082Y0043395D01*
X0199991Y0043571D01*
X0199904Y0043749D01*
X0199821Y0043929D01*
X0199743Y0044111D01*
X0199670Y0044295D01*
X0199601Y0044481D01*
X0199536Y0044668D01*
X0199477Y0044857D01*
X0199421Y0045047D01*
X0199371Y0045239D01*
X0199325Y0045432D01*
X0199284Y0045625D01*
X0199248Y0045820D01*
X0199216Y0046016D01*
X0199190Y0046212D01*
X0199168Y0046409D01*
X0199151Y0046606D01*
X0199139Y0046804D01*
X0199131Y0047002D01*
X0199129Y0047200D01*
D11*
X0183823Y0022004D02*
X0183823Y0017400D01*
X0181521Y0017400D01*
X0180754Y0018167D01*
X0180754Y0019702D01*
X0181521Y0020469D01*
X0183823Y0020469D01*
X0179219Y0020469D02*
X0178452Y0020469D01*
X0176917Y0018935D01*
X0176917Y0020469D02*
X0176917Y0017400D01*
X0175382Y0017400D02*
X0173080Y0017400D01*
X0172313Y0018167D01*
X0173080Y0018935D01*
X0175382Y0018935D01*
X0175382Y0019702D02*
X0175382Y0017400D01*
X0175382Y0019702D02*
X0174615Y0020469D01*
X0173080Y0020469D01*
X0170778Y0019702D02*
X0170778Y0018167D01*
X0170011Y0017400D01*
X0168476Y0017400D01*
X0167709Y0018167D01*
X0167709Y0019702D01*
X0168476Y0020469D01*
X0170011Y0020469D01*
X0170778Y0019702D01*
X0166174Y0020469D02*
X0165407Y0019702D01*
X0163105Y0019702D01*
X0163105Y0017400D02*
X0163105Y0022004D01*
X0165407Y0022004D01*
X0166174Y0021237D01*
X0166174Y0020469D01*
X0165407Y0019702D02*
X0166174Y0018935D01*
X0166174Y0018167D01*
X0165407Y0017400D01*
X0163105Y0017400D01*
X0163489Y0012004D02*
X0164256Y0011237D01*
X0161187Y0008167D01*
X0161954Y0007400D01*
X0163489Y0007400D01*
X0164256Y0008167D01*
X0164256Y0011237D01*
X0163489Y0012004D02*
X0161954Y0012004D01*
X0161187Y0011237D01*
X0161187Y0008167D01*
X0159652Y0007400D02*
X0156583Y0007400D01*
X0159652Y0010469D01*
X0159652Y0011237D01*
X0158885Y0012004D01*
X0157350Y0012004D01*
X0156583Y0011237D01*
X0150444Y0010469D02*
X0150444Y0006633D01*
X0149677Y0005865D01*
X0148910Y0005865D01*
X0148142Y0007400D02*
X0147375Y0008167D01*
X0147375Y0010469D01*
X0145840Y0010469D02*
X0145073Y0010469D01*
X0143538Y0008935D01*
X0142004Y0008935D02*
X0139702Y0008935D01*
X0138935Y0008167D01*
X0139702Y0007400D01*
X0142004Y0007400D01*
X0142004Y0009702D01*
X0141237Y0010469D01*
X0139702Y0010469D01*
X0137400Y0010469D02*
X0137400Y0007400D01*
X0135098Y0007400D01*
X0134331Y0008167D01*
X0134331Y0010469D01*
X0132796Y0009702D02*
X0132796Y0007400D01*
X0132796Y0009702D02*
X0132029Y0010469D01*
X0129727Y0010469D01*
X0129727Y0007400D01*
X0128192Y0007400D02*
X0128192Y0009702D01*
X0127425Y0010469D01*
X0125890Y0010469D01*
X0125890Y0008935D02*
X0125123Y0008167D01*
X0125890Y0007400D01*
X0128192Y0007400D01*
X0128192Y0008935D02*
X0125890Y0008935D01*
X0122821Y0008167D02*
X0122821Y0012004D01*
X0123588Y0012004D02*
X0122053Y0012004D01*
X0122821Y0008167D02*
X0122053Y0007400D01*
X0121286Y0007400D01*
X0120519Y0008167D01*
X0114380Y0007400D02*
X0111311Y0007400D01*
X0114380Y0010469D01*
X0114380Y0011237D01*
X0113613Y0012004D01*
X0112078Y0012004D01*
X0111311Y0011237D01*
X0109776Y0008167D02*
X0109009Y0008167D01*
X0109009Y0007400D01*
X0109776Y0007400D01*
X0109776Y0008167D01*
X0107474Y0007400D02*
X0104405Y0007400D01*
X0105940Y0007400D02*
X0105940Y0012004D01*
X0104405Y0010469D01*
X0102870Y0010469D02*
X0101336Y0007400D01*
X0099801Y0010469D01*
X0098650Y0017400D02*
X0100952Y0017400D01*
X0101719Y0018167D01*
X0101719Y0021237D01*
X0100952Y0022004D01*
X0098650Y0022004D01*
X0098650Y0017400D01*
X0097116Y0017400D02*
X0094046Y0017400D01*
X0094046Y0022004D01*
X0097116Y0022004D01*
X0095581Y0019702D02*
X0094046Y0019702D01*
X0092512Y0017400D02*
X0089442Y0017400D01*
X0089442Y0022004D01*
X0107858Y0022004D02*
X0107858Y0017400D01*
X0110927Y0017400D02*
X0110927Y0022004D01*
X0109393Y0020469D01*
X0107858Y0022004D01*
X0113229Y0020469D02*
X0114764Y0020469D01*
X0115531Y0019702D01*
X0115531Y0017400D01*
X0113229Y0017400D01*
X0112462Y0018167D01*
X0113229Y0018935D01*
X0115531Y0018935D01*
X0117066Y0020469D02*
X0118601Y0020469D01*
X0117833Y0021237D02*
X0117833Y0018167D01*
X0118601Y0017400D01*
X0120135Y0017400D02*
X0120135Y0020469D01*
X0120135Y0018935D02*
X0121670Y0020469D01*
X0122437Y0020469D01*
X0123972Y0020469D02*
X0124739Y0020469D01*
X0124739Y0017400D01*
X0123972Y0017400D02*
X0125506Y0017400D01*
X0127041Y0017400D02*
X0130110Y0020469D01*
X0127041Y0020469D02*
X0130110Y0017400D01*
X0136249Y0017400D02*
X0136249Y0022004D01*
X0138551Y0022004D01*
X0139318Y0021237D01*
X0139318Y0019702D01*
X0138551Y0018935D01*
X0136249Y0018935D01*
X0140853Y0019702D02*
X0140853Y0018167D01*
X0141620Y0017400D01*
X0143155Y0017400D01*
X0143922Y0018167D01*
X0143922Y0019702D01*
X0143155Y0020469D01*
X0141620Y0020469D01*
X0140853Y0019702D01*
X0145457Y0020469D02*
X0145457Y0018167D01*
X0146224Y0017400D01*
X0146991Y0018167D01*
X0147759Y0017400D01*
X0148526Y0018167D01*
X0148526Y0020469D01*
X0150061Y0019702D02*
X0150828Y0020469D01*
X0152363Y0020469D01*
X0153130Y0019702D01*
X0153130Y0018935D01*
X0150061Y0018935D01*
X0150061Y0019702D02*
X0150061Y0018167D01*
X0150828Y0017400D01*
X0152363Y0017400D01*
X0154665Y0017400D02*
X0154665Y0020469D01*
X0154665Y0018935D02*
X0156199Y0020469D01*
X0156967Y0020469D01*
X0165791Y0010469D02*
X0167325Y0012004D01*
X0167325Y0007400D01*
X0165791Y0007400D02*
X0168860Y0007400D01*
X0170395Y0008167D02*
X0170395Y0008935D01*
X0171162Y0009702D01*
X0172697Y0009702D01*
X0173464Y0008935D01*
X0173464Y0008167D01*
X0172697Y0007400D01*
X0171162Y0007400D01*
X0170395Y0008167D01*
X0171162Y0009702D02*
X0170395Y0010469D01*
X0170395Y0011237D01*
X0171162Y0012004D01*
X0172697Y0012004D01*
X0173464Y0011237D01*
X0173464Y0010469D01*
X0172697Y0009702D01*
X0150444Y0007400D02*
X0148142Y0007400D01*
X0143538Y0007400D02*
X0143538Y0010469D01*
X0124739Y0022004D02*
X0124739Y0022771D01*
X0103200Y0061180D02*
X0103800Y0061780D01*
X0103200Y0061180D02*
X0101999Y0061180D01*
X0101398Y0061780D01*
X0101398Y0064182D01*
X0101999Y0064783D01*
X0103200Y0064783D01*
X0103800Y0064182D01*
X0100117Y0064783D02*
X0100117Y0061780D01*
X0099516Y0061180D01*
X0098315Y0061180D01*
X0097715Y0061780D01*
X0097715Y0064783D01*
X0119698Y0082400D02*
X0119698Y0085469D01*
X0120465Y0087004D02*
X0117396Y0087004D01*
X0117396Y0090073D02*
X0120465Y0090073D01*
X0122000Y0088539D01*
X0120465Y0087004D01*
X0122000Y0091608D02*
X0122000Y0093142D01*
X0122000Y0092375D02*
X0117396Y0092375D01*
X0117396Y0091608D02*
X0117396Y0093142D01*
X0117396Y0094677D02*
X0122000Y0097746D01*
X0117396Y0097746D01*
X0117396Y0094677D02*
X0122000Y0094677D01*
X0152396Y0094677D02*
X0157000Y0097746D01*
X0152396Y0097746D01*
X0152396Y0094677D02*
X0157000Y0094677D01*
X0157000Y0093142D02*
X0157000Y0091608D01*
X0157000Y0092375D02*
X0152396Y0092375D01*
X0152396Y0091608D02*
X0152396Y0093142D01*
X0152396Y0090073D02*
X0155465Y0090073D01*
X0157000Y0088539D01*
X0155465Y0087004D01*
X0152396Y0087004D01*
X0154698Y0085469D02*
X0154698Y0082400D01*
X0153163Y0083935D02*
X0156233Y0083935D01*
X0156282Y0064783D02*
X0156282Y0061180D01*
X0153800Y0061180D02*
X0153800Y0063582D01*
X0152599Y0064783D01*
X0151398Y0063582D01*
X0151398Y0061180D01*
X0150117Y0061780D02*
X0150117Y0064182D01*
X0149516Y0064783D01*
X0147715Y0064783D01*
X0147715Y0061180D01*
X0149516Y0061180D01*
X0150117Y0061780D01*
X0151398Y0062981D02*
X0153800Y0062981D01*
X0155081Y0064783D02*
X0157483Y0064783D01*
X0158764Y0063582D02*
X0159965Y0064783D01*
X0161166Y0063582D01*
X0161166Y0061180D01*
X0161166Y0062981D02*
X0158764Y0062981D01*
X0158764Y0063582D02*
X0158764Y0061180D01*
X0207396Y0087004D02*
X0210465Y0087004D01*
X0212000Y0088539D01*
X0210465Y0090073D01*
X0207396Y0090073D01*
X0207396Y0091608D02*
X0207396Y0093142D01*
X0207396Y0092375D02*
X0212000Y0092375D01*
X0212000Y0091608D02*
X0212000Y0093142D01*
X0212000Y0094677D02*
X0207396Y0094677D01*
X0212000Y0097746D01*
X0207396Y0097746D01*
X0209698Y0085469D02*
X0209698Y0082400D01*
X0231088Y0061571D02*
X0233390Y0061571D01*
X0234157Y0060804D01*
X0234157Y0059269D01*
X0233390Y0058502D01*
X0231088Y0058502D01*
X0231088Y0056967D02*
X0231088Y0061571D01*
X0235692Y0061571D02*
X0235692Y0056967D01*
X0237227Y0058502D01*
X0238761Y0056967D01*
X0238761Y0061571D01*
X0240296Y0061571D02*
X0242598Y0061571D01*
X0243365Y0060804D01*
X0243365Y0059269D01*
X0242598Y0058502D01*
X0240296Y0058502D01*
X0241831Y0058502D02*
X0243365Y0056967D01*
X0244900Y0057734D02*
X0245667Y0056967D01*
X0247202Y0056967D01*
X0247969Y0057734D01*
X0247969Y0060804D01*
X0247202Y0061571D01*
X0245667Y0061571D01*
X0244900Y0060804D01*
X0244900Y0057734D01*
X0249504Y0057734D02*
X0250271Y0056967D01*
X0251806Y0056967D01*
X0252573Y0057734D01*
X0252573Y0061571D01*
X0254108Y0061571D02*
X0257177Y0061571D01*
X0255642Y0061571D02*
X0255642Y0056967D01*
X0249504Y0057734D02*
X0249504Y0061571D01*
X0240296Y0061571D02*
X0240296Y0056967D01*
X0244698Y0082400D02*
X0244698Y0085469D01*
X0245465Y0087004D02*
X0242396Y0087004D01*
X0242396Y0090073D02*
X0245465Y0090073D01*
X0247000Y0088539D01*
X0245465Y0087004D01*
X0246233Y0083935D02*
X0243163Y0083935D01*
X0242396Y0091608D02*
X0242396Y0093142D01*
X0242396Y0092375D02*
X0247000Y0092375D01*
X0247000Y0091608D02*
X0247000Y0093142D01*
X0247000Y0094677D02*
X0242396Y0094677D01*
X0247000Y0097746D01*
X0242396Y0097746D01*
X0244698Y0122400D02*
X0244698Y0125469D01*
X0245465Y0127004D02*
X0242396Y0127004D01*
X0242396Y0130073D02*
X0245465Y0130073D01*
X0247000Y0128539D01*
X0245465Y0127004D01*
X0246233Y0123935D02*
X0243163Y0123935D01*
X0243163Y0131608D02*
X0242396Y0132375D01*
X0242396Y0133910D01*
X0243163Y0134677D01*
X0246233Y0134677D01*
X0247000Y0133910D01*
X0247000Y0132375D01*
X0246233Y0131608D01*
X0243163Y0131608D01*
X0242396Y0136212D02*
X0246233Y0136212D01*
X0247000Y0136979D01*
X0247000Y0138514D01*
X0246233Y0139281D01*
X0242396Y0139281D01*
X0242396Y0140816D02*
X0242396Y0143885D01*
X0242396Y0142350D02*
X0247000Y0142350D01*
X0212000Y0142350D02*
X0207396Y0142350D01*
X0207396Y0140816D02*
X0207396Y0143885D01*
X0207396Y0139281D02*
X0211233Y0139281D01*
X0212000Y0138514D01*
X0212000Y0136979D01*
X0211233Y0136212D01*
X0207396Y0136212D01*
X0208163Y0134677D02*
X0207396Y0133910D01*
X0207396Y0132375D01*
X0208163Y0131608D01*
X0211233Y0131608D01*
X0212000Y0132375D01*
X0212000Y0133910D01*
X0211233Y0134677D01*
X0208163Y0134677D01*
X0207396Y0130073D02*
X0210465Y0130073D01*
X0212000Y0128539D01*
X0210465Y0127004D01*
X0207396Y0127004D01*
X0209698Y0125469D02*
X0209698Y0122400D01*
X0157000Y0128539D02*
X0155465Y0130073D01*
X0152396Y0130073D01*
X0153163Y0131608D02*
X0152396Y0132375D01*
X0152396Y0133910D01*
X0153163Y0134677D01*
X0156233Y0134677D01*
X0157000Y0133910D01*
X0157000Y0132375D01*
X0156233Y0131608D01*
X0153163Y0131608D01*
X0152396Y0136212D02*
X0156233Y0136212D01*
X0157000Y0136979D01*
X0157000Y0138514D01*
X0156233Y0139281D01*
X0152396Y0139281D01*
X0152396Y0140816D02*
X0152396Y0143885D01*
X0152396Y0142350D02*
X0157000Y0142350D01*
X0157000Y0128539D02*
X0155465Y0127004D01*
X0152396Y0127004D01*
X0154698Y0125469D02*
X0154698Y0122400D01*
X0153163Y0123935D02*
X0156233Y0123935D01*
X0122000Y0128539D02*
X0120465Y0130073D01*
X0117396Y0130073D01*
X0118163Y0131608D02*
X0117396Y0132375D01*
X0117396Y0133910D01*
X0118163Y0134677D01*
X0121233Y0134677D01*
X0122000Y0133910D01*
X0122000Y0132375D01*
X0121233Y0131608D01*
X0118163Y0131608D01*
X0117396Y0136212D02*
X0121233Y0136212D01*
X0122000Y0136979D01*
X0122000Y0138514D01*
X0121233Y0139281D01*
X0117396Y0139281D01*
X0117396Y0140816D02*
X0117396Y0143885D01*
X0117396Y0142350D02*
X0122000Y0142350D01*
X0122000Y0128539D02*
X0120465Y0127004D01*
X0117396Y0127004D01*
X0119698Y0125469D02*
X0119698Y0122400D01*
X0067000Y0128539D02*
X0065465Y0130073D01*
X0062396Y0130073D01*
X0063163Y0131608D02*
X0062396Y0132375D01*
X0062396Y0133910D01*
X0063163Y0134677D01*
X0066233Y0134677D01*
X0067000Y0133910D01*
X0067000Y0132375D01*
X0066233Y0131608D01*
X0063163Y0131608D01*
X0062396Y0136212D02*
X0066233Y0136212D01*
X0067000Y0136979D01*
X0067000Y0138514D01*
X0066233Y0139281D01*
X0062396Y0139281D01*
X0062396Y0140816D02*
X0062396Y0143885D01*
X0062396Y0142350D02*
X0067000Y0142350D01*
X0067000Y0128539D02*
X0065465Y0127004D01*
X0062396Y0127004D01*
X0064698Y0125469D02*
X0064698Y0122400D01*
X0063163Y0123935D02*
X0066233Y0123935D01*
X0067000Y0097746D02*
X0062396Y0097746D01*
X0062396Y0094677D02*
X0067000Y0097746D01*
X0067000Y0094677D02*
X0062396Y0094677D01*
X0062396Y0093142D02*
X0062396Y0091608D01*
X0062396Y0092375D02*
X0067000Y0092375D01*
X0067000Y0091608D02*
X0067000Y0093142D01*
X0065465Y0090073D02*
X0062396Y0090073D01*
X0062396Y0087004D02*
X0065465Y0087004D01*
X0067000Y0088539D01*
X0065465Y0090073D01*
X0064698Y0085469D02*
X0064698Y0082400D01*
X0063163Y0083935D02*
X0066233Y0083935D01*
X0032000Y0088539D02*
X0030465Y0087004D01*
X0027396Y0087004D01*
X0029698Y0085469D02*
X0029698Y0082400D01*
X0032000Y0088539D02*
X0030465Y0090073D01*
X0027396Y0090073D01*
X0027396Y0091608D02*
X0027396Y0093142D01*
X0027396Y0092375D02*
X0032000Y0092375D01*
X0032000Y0091608D02*
X0032000Y0093142D01*
X0032000Y0094677D02*
X0027396Y0094677D01*
X0032000Y0097746D01*
X0027396Y0097746D01*
X0029698Y0122400D02*
X0029698Y0125469D01*
X0030465Y0127004D02*
X0027396Y0127004D01*
X0027396Y0130073D02*
X0030465Y0130073D01*
X0032000Y0128539D01*
X0030465Y0127004D01*
X0031233Y0131608D02*
X0028163Y0131608D01*
X0027396Y0132375D01*
X0027396Y0133910D01*
X0028163Y0134677D01*
X0031233Y0134677D01*
X0032000Y0133910D01*
X0032000Y0132375D01*
X0031233Y0131608D01*
X0031233Y0136212D02*
X0027396Y0136212D01*
X0027396Y0139281D02*
X0031233Y0139281D01*
X0032000Y0138514D01*
X0032000Y0136979D01*
X0031233Y0136212D01*
X0027396Y0140816D02*
X0027396Y0143885D01*
X0027396Y0142350D02*
X0032000Y0142350D01*
X0024220Y0204620D02*
X0021818Y0204620D01*
X0023019Y0204620D02*
X0023019Y0208224D01*
X0021818Y0207023D01*
X0020537Y0207623D02*
X0019936Y0208224D01*
X0018735Y0208224D01*
X0018134Y0207623D01*
X0018134Y0207023D01*
X0018735Y0206422D01*
X0019936Y0206422D01*
X0020537Y0205821D01*
X0020537Y0205221D01*
X0019936Y0204620D01*
X0018735Y0204620D01*
X0018134Y0205221D01*
X0016853Y0205221D02*
X0016853Y0207623D01*
X0016253Y0208224D01*
X0014451Y0208224D01*
X0014451Y0204620D01*
X0016253Y0204620D01*
X0016853Y0205221D01*
X0013170Y0204620D02*
X0010768Y0204620D01*
X0010768Y0208224D01*
X0013170Y0208224D01*
X0011969Y0206422D02*
X0010768Y0206422D01*
X0009487Y0204620D02*
X0007085Y0204620D01*
X0007085Y0208224D01*
X0047085Y0208224D02*
X0047085Y0204620D01*
X0049487Y0204620D01*
X0050768Y0204620D02*
X0053170Y0204620D01*
X0054451Y0204620D02*
X0056253Y0204620D01*
X0056853Y0205221D01*
X0056853Y0207623D01*
X0056253Y0208224D01*
X0054451Y0208224D01*
X0054451Y0204620D01*
X0051969Y0206422D02*
X0050768Y0206422D01*
X0050768Y0208224D02*
X0050768Y0204620D01*
X0050768Y0208224D02*
X0053170Y0208224D01*
X0058134Y0207623D02*
X0058134Y0207023D01*
X0058735Y0206422D01*
X0059936Y0206422D01*
X0060537Y0205821D01*
X0060537Y0205221D01*
X0059936Y0204620D01*
X0058735Y0204620D01*
X0058134Y0205221D01*
X0058134Y0207623D02*
X0058735Y0208224D01*
X0059936Y0208224D01*
X0060537Y0207623D01*
X0061818Y0207623D02*
X0062418Y0208224D01*
X0063619Y0208224D01*
X0064220Y0207623D01*
X0064220Y0207023D01*
X0061818Y0204620D01*
X0064220Y0204620D01*
X0097085Y0204620D02*
X0099487Y0204620D01*
X0100768Y0204620D02*
X0103170Y0204620D01*
X0104451Y0204620D02*
X0106253Y0204620D01*
X0106853Y0205221D01*
X0106853Y0207623D01*
X0106253Y0208224D01*
X0104451Y0208224D01*
X0104451Y0204620D01*
X0101969Y0206422D02*
X0100768Y0206422D01*
X0100768Y0208224D02*
X0100768Y0204620D01*
X0097085Y0204620D02*
X0097085Y0208224D01*
X0100768Y0208224D02*
X0103170Y0208224D01*
X0108134Y0207623D02*
X0108134Y0207023D01*
X0108735Y0206422D01*
X0109936Y0206422D01*
X0110537Y0205821D01*
X0110537Y0205221D01*
X0109936Y0204620D01*
X0108735Y0204620D01*
X0108134Y0205221D01*
X0108134Y0207623D02*
X0108735Y0208224D01*
X0109936Y0208224D01*
X0110537Y0207623D01*
X0111818Y0207623D02*
X0112418Y0208224D01*
X0113619Y0208224D01*
X0114220Y0207623D01*
X0114220Y0207023D01*
X0113619Y0206422D01*
X0114220Y0205821D01*
X0114220Y0205221D01*
X0113619Y0204620D01*
X0112418Y0204620D01*
X0111818Y0205221D01*
X0113019Y0206422D02*
X0113619Y0206422D01*
X0137085Y0204620D02*
X0139487Y0204620D01*
X0140768Y0204620D02*
X0143170Y0204620D01*
X0144451Y0204620D02*
X0146253Y0204620D01*
X0146853Y0205221D01*
X0146853Y0207623D01*
X0146253Y0208224D01*
X0144451Y0208224D01*
X0144451Y0204620D01*
X0141969Y0206422D02*
X0140768Y0206422D01*
X0140768Y0208224D02*
X0140768Y0204620D01*
X0137085Y0204620D02*
X0137085Y0208224D01*
X0140768Y0208224D02*
X0143170Y0208224D01*
X0148134Y0207623D02*
X0148134Y0207023D01*
X0148735Y0206422D01*
X0149936Y0206422D01*
X0150537Y0205821D01*
X0150537Y0205221D01*
X0149936Y0204620D01*
X0148735Y0204620D01*
X0148134Y0205221D01*
X0148134Y0207623D02*
X0148735Y0208224D01*
X0149936Y0208224D01*
X0150537Y0207623D01*
X0151818Y0206422D02*
X0154220Y0206422D01*
X0153619Y0204620D02*
X0153619Y0208224D01*
X0151818Y0206422D01*
X0187085Y0204620D02*
X0189487Y0204620D01*
X0190768Y0204620D02*
X0193170Y0204620D01*
X0194451Y0204620D02*
X0196253Y0204620D01*
X0196853Y0205221D01*
X0196853Y0207623D01*
X0196253Y0208224D01*
X0194451Y0208224D01*
X0194451Y0204620D01*
X0191969Y0206422D02*
X0190768Y0206422D01*
X0190768Y0208224D02*
X0190768Y0204620D01*
X0187085Y0204620D02*
X0187085Y0208224D01*
X0190768Y0208224D02*
X0193170Y0208224D01*
X0198134Y0207623D02*
X0198134Y0207023D01*
X0198735Y0206422D01*
X0199936Y0206422D01*
X0200537Y0205821D01*
X0200537Y0205221D01*
X0199936Y0204620D01*
X0198735Y0204620D01*
X0198134Y0205221D01*
X0198134Y0207623D02*
X0198735Y0208224D01*
X0199936Y0208224D01*
X0200537Y0207623D01*
X0201818Y0208224D02*
X0201818Y0206422D01*
X0203019Y0207023D01*
X0203619Y0207023D01*
X0204220Y0206422D01*
X0204220Y0205221D01*
X0203619Y0204620D01*
X0202418Y0204620D01*
X0201818Y0205221D01*
X0201818Y0208224D02*
X0204220Y0208224D01*
X0227085Y0208224D02*
X0227085Y0204620D01*
X0229487Y0204620D01*
X0230768Y0204620D02*
X0233170Y0204620D01*
X0234451Y0204620D02*
X0236253Y0204620D01*
X0236853Y0205221D01*
X0236853Y0207623D01*
X0236253Y0208224D01*
X0234451Y0208224D01*
X0234451Y0204620D01*
X0231969Y0206422D02*
X0230768Y0206422D01*
X0230768Y0208224D02*
X0230768Y0204620D01*
X0230768Y0208224D02*
X0233170Y0208224D01*
X0238134Y0207623D02*
X0238134Y0207023D01*
X0238735Y0206422D01*
X0239936Y0206422D01*
X0240537Y0205821D01*
X0240537Y0205221D01*
X0239936Y0204620D01*
X0238735Y0204620D01*
X0238134Y0205221D01*
X0238134Y0207623D02*
X0238735Y0208224D01*
X0239936Y0208224D01*
X0240537Y0207623D01*
X0241818Y0206422D02*
X0243019Y0207623D01*
X0244220Y0208224D01*
X0243619Y0206422D02*
X0241818Y0206422D01*
X0241818Y0205221D01*
X0242418Y0204620D01*
X0243619Y0204620D01*
X0244220Y0205221D01*
X0244220Y0205821D01*
X0243619Y0206422D01*
X0029108Y0061571D02*
X0029108Y0056967D01*
X0026039Y0061571D01*
X0026039Y0056967D01*
X0024504Y0056967D02*
X0022969Y0056967D01*
X0023737Y0056967D02*
X0023737Y0061571D01*
X0024504Y0061571D02*
X0022969Y0061571D01*
X0021435Y0060804D02*
X0021435Y0059269D01*
X0020667Y0058502D01*
X0018365Y0058502D01*
X0019900Y0058502D02*
X0021435Y0056967D01*
X0018365Y0056967D02*
X0018365Y0061571D01*
X0020667Y0061571D01*
X0021435Y0060804D01*
X0016831Y0061571D02*
X0016831Y0056967D01*
X0015296Y0058502D01*
X0013761Y0056967D01*
X0013761Y0061571D01*
X0012227Y0060804D02*
X0012227Y0059269D01*
X0011459Y0058502D01*
X0009157Y0058502D01*
X0009157Y0056967D02*
X0009157Y0061571D01*
X0011459Y0061571D01*
X0012227Y0060804D01*
D12*
X0012347Y0051046D02*
X0016050Y0051046D01*
X0012347Y0048578D01*
X0016050Y0048578D01*
X0016050Y0047357D02*
X0016050Y0046122D01*
X0016050Y0046739D02*
X0012347Y0046739D01*
X0012347Y0046122D02*
X0012347Y0047357D01*
X0012347Y0044908D02*
X0014816Y0044908D01*
X0016050Y0043674D01*
X0014816Y0042439D01*
X0012347Y0042439D01*
X0012347Y0036660D02*
X0012347Y0034192D01*
X0012347Y0035426D02*
X0016050Y0035426D01*
X0016050Y0032977D02*
X0013581Y0032977D01*
X0012347Y0031743D01*
X0013581Y0030508D01*
X0016050Y0030508D01*
X0015433Y0029294D02*
X0012964Y0029294D01*
X0012347Y0028677D01*
X0012347Y0026825D01*
X0016050Y0026825D01*
X0016050Y0028677D01*
X0015433Y0029294D01*
X0014198Y0030508D02*
X0014198Y0032977D01*
X0012964Y0021660D02*
X0012347Y0021043D01*
X0012347Y0019192D01*
X0016050Y0019192D01*
X0016050Y0021043D01*
X0015433Y0021660D01*
X0012964Y0021660D01*
X0012347Y0017977D02*
X0016050Y0017977D01*
X0012347Y0015508D01*
X0016050Y0015508D01*
X0015433Y0014294D02*
X0014198Y0014294D01*
X0014198Y0013060D01*
X0012964Y0014294D02*
X0012347Y0013677D01*
X0012347Y0012442D01*
X0012964Y0011825D01*
X0015433Y0011825D01*
X0016050Y0012442D01*
X0016050Y0013677D01*
X0015433Y0014294D01*
X0096825Y0028967D02*
X0097442Y0028350D01*
X0098677Y0028350D01*
X0099294Y0028967D01*
X0099294Y0030202D01*
X0098060Y0030202D01*
X0099294Y0031436D02*
X0098677Y0032053D01*
X0097442Y0032053D01*
X0096825Y0031436D01*
X0096825Y0028967D01*
X0100508Y0028350D02*
X0100508Y0032053D01*
X0102977Y0028350D01*
X0102977Y0032053D01*
X0104192Y0032053D02*
X0106043Y0032053D01*
X0106660Y0031436D01*
X0106660Y0028967D01*
X0106043Y0028350D01*
X0104192Y0028350D01*
X0104192Y0032053D01*
X0112439Y0032053D02*
X0112439Y0028350D01*
X0114291Y0028350D01*
X0114908Y0028967D01*
X0114908Y0031436D01*
X0114291Y0032053D01*
X0112439Y0032053D01*
X0116122Y0032053D02*
X0117357Y0032053D01*
X0116739Y0032053D02*
X0116739Y0028350D01*
X0116122Y0028350D02*
X0117357Y0028350D01*
X0118578Y0028350D02*
X0118578Y0032053D01*
X0121046Y0028350D01*
X0121046Y0032053D01*
X0126825Y0030202D02*
X0129294Y0030202D01*
X0130508Y0030202D02*
X0131743Y0030819D01*
X0132360Y0030819D01*
X0132977Y0030202D01*
X0132977Y0028967D01*
X0132360Y0028350D01*
X0131126Y0028350D01*
X0130508Y0028967D01*
X0130508Y0030202D02*
X0130508Y0032053D01*
X0132977Y0032053D01*
X0134192Y0032053D02*
X0134192Y0029584D01*
X0135426Y0028350D01*
X0136660Y0029584D01*
X0136660Y0032053D01*
X0128060Y0031436D02*
X0128060Y0028967D01*
X0149281Y0028350D02*
X0150515Y0028350D01*
X0149898Y0028350D02*
X0149898Y0032053D01*
X0149281Y0032053D02*
X0150515Y0032053D01*
X0151736Y0032053D02*
X0154205Y0028350D01*
X0154205Y0032053D01*
X0151736Y0032053D02*
X0151736Y0028350D01*
X0166825Y0028967D02*
X0167442Y0028350D01*
X0168677Y0028350D01*
X0169294Y0028967D01*
X0169294Y0031436D01*
X0168677Y0032053D01*
X0167442Y0032053D01*
X0166825Y0031436D01*
X0166825Y0028967D01*
X0170508Y0028967D02*
X0171126Y0028350D01*
X0172360Y0028350D01*
X0172977Y0028967D01*
X0172977Y0032053D01*
X0174192Y0032053D02*
X0176660Y0032053D01*
X0175426Y0032053D02*
X0175426Y0028350D01*
X0170508Y0028967D02*
X0170508Y0032053D01*
X0257347Y0031743D02*
X0258581Y0030508D01*
X0261050Y0030508D01*
X0260433Y0029294D02*
X0257964Y0029294D01*
X0257347Y0028677D01*
X0257347Y0026825D01*
X0261050Y0026825D01*
X0261050Y0028677D01*
X0260433Y0029294D01*
X0259198Y0030508D02*
X0259198Y0032977D01*
X0258581Y0032977D02*
X0261050Y0032977D01*
X0261050Y0035426D02*
X0257347Y0035426D01*
X0257347Y0034192D02*
X0257347Y0036660D01*
X0258581Y0032977D02*
X0257347Y0031743D01*
X0257964Y0021660D02*
X0257347Y0021043D01*
X0257347Y0019192D01*
X0261050Y0019192D01*
X0261050Y0021043D01*
X0260433Y0021660D01*
X0257964Y0021660D01*
X0257347Y0017977D02*
X0261050Y0017977D01*
X0257347Y0015508D01*
X0261050Y0015508D01*
X0260433Y0014294D02*
X0259198Y0014294D01*
X0259198Y0013060D01*
X0257964Y0014294D02*
X0257347Y0013677D01*
X0257347Y0012442D01*
X0257964Y0011825D01*
X0260433Y0011825D01*
X0261050Y0012442D01*
X0261050Y0013677D01*
X0260433Y0014294D01*
X0259816Y0042439D02*
X0257347Y0042439D01*
X0259816Y0042439D02*
X0261050Y0043674D01*
X0259816Y0044908D01*
X0257347Y0044908D01*
X0257347Y0046122D02*
X0257347Y0047357D01*
X0257347Y0046739D02*
X0261050Y0046739D01*
X0261050Y0046122D02*
X0261050Y0047357D01*
X0261050Y0048578D02*
X0257347Y0048578D01*
X0261050Y0051046D01*
X0257347Y0051046D01*
X0234583Y0160350D02*
X0234583Y0163252D01*
X0236518Y0163252D01*
X0235550Y0161801D02*
X0234583Y0161801D01*
X0233571Y0162285D02*
X0233571Y0160350D01*
X0232120Y0160350D01*
X0231636Y0160834D01*
X0231636Y0162285D01*
X0230625Y0162769D02*
X0228690Y0160834D01*
X0229173Y0160350D01*
X0230141Y0160350D01*
X0230625Y0160834D01*
X0230625Y0162769D01*
X0230141Y0163252D01*
X0229173Y0163252D01*
X0228690Y0162769D01*
X0228690Y0160834D01*
X0227678Y0160834D02*
X0227194Y0160350D01*
X0226227Y0160350D01*
X0225743Y0160834D01*
X0227678Y0162769D01*
X0227678Y0160834D01*
X0227678Y0162769D02*
X0227194Y0163252D01*
X0226227Y0163252D01*
X0225743Y0162769D01*
X0225743Y0160834D01*
X0224731Y0160834D02*
X0224248Y0160350D01*
X0223280Y0160350D01*
X0222797Y0160834D01*
X0224731Y0162769D01*
X0224731Y0160834D01*
X0222797Y0160834D02*
X0222797Y0162769D01*
X0223280Y0163252D01*
X0224248Y0163252D01*
X0224731Y0162769D01*
X0221785Y0160350D02*
X0219850Y0160350D01*
X0220817Y0160350D02*
X0220817Y0163252D01*
X0219850Y0162285D01*
X0224967Y0188850D02*
X0226202Y0188850D01*
X0226819Y0189467D01*
X0228033Y0189467D02*
X0228650Y0188850D01*
X0229885Y0188850D01*
X0230502Y0189467D01*
X0230502Y0190084D01*
X0229885Y0190702D01*
X0229268Y0190702D01*
X0229885Y0190702D02*
X0230502Y0191319D01*
X0230502Y0191936D01*
X0229885Y0192553D01*
X0228650Y0192553D01*
X0228033Y0191936D01*
X0226819Y0191936D02*
X0226202Y0192553D01*
X0224967Y0192553D01*
X0224350Y0191936D01*
X0224350Y0189467D01*
X0224967Y0188850D01*
X0247617Y0193350D02*
X0250086Y0193350D01*
X0251301Y0193350D02*
X0253769Y0193350D01*
X0254984Y0193350D02*
X0254984Y0197053D01*
X0256835Y0197053D01*
X0257452Y0196436D01*
X0257452Y0193967D01*
X0256835Y0193350D01*
X0254984Y0193350D01*
X0252535Y0195202D02*
X0251301Y0195202D01*
X0251301Y0197053D02*
X0251301Y0193350D01*
X0247617Y0193350D02*
X0247617Y0197053D01*
X0251301Y0197053D02*
X0253769Y0197053D01*
X0258667Y0196436D02*
X0259284Y0197053D01*
X0260518Y0197053D01*
X0261136Y0196436D01*
X0261136Y0195819D01*
X0260518Y0195202D01*
X0261136Y0194584D01*
X0261136Y0193967D01*
X0260518Y0193350D01*
X0259284Y0193350D01*
X0258667Y0193967D01*
X0259901Y0195202D02*
X0260518Y0195202D01*
X0263964Y0198584D02*
X0266433Y0198584D01*
X0265198Y0197350D02*
X0265198Y0199819D01*
X0257885Y0181053D02*
X0256650Y0181053D01*
X0256033Y0180436D01*
X0254819Y0180436D02*
X0254819Y0179202D01*
X0254202Y0178584D01*
X0252350Y0178584D01*
X0252350Y0177350D02*
X0252350Y0181053D01*
X0254202Y0181053D01*
X0254819Y0180436D01*
X0253584Y0178584D02*
X0254819Y0177350D01*
X0256033Y0177967D02*
X0256650Y0177350D01*
X0257885Y0177350D01*
X0258502Y0177967D01*
X0258502Y0178584D01*
X0257885Y0179202D01*
X0257268Y0179202D01*
X0257885Y0179202D02*
X0258502Y0179819D01*
X0258502Y0180436D01*
X0257885Y0181053D01*
X0257885Y0176053D02*
X0256650Y0176053D01*
X0256033Y0175436D01*
X0254819Y0175436D02*
X0254819Y0174819D01*
X0254202Y0174202D01*
X0254819Y0173584D01*
X0254819Y0172967D01*
X0254202Y0172350D01*
X0252967Y0172350D01*
X0252350Y0172967D01*
X0253584Y0174202D02*
X0254202Y0174202D01*
X0254819Y0175436D02*
X0254202Y0176053D01*
X0252967Y0176053D01*
X0252350Y0175436D01*
X0256033Y0172967D02*
X0256650Y0172350D01*
X0257885Y0172350D01*
X0258502Y0172967D01*
X0258502Y0173584D01*
X0257885Y0174202D01*
X0257268Y0174202D01*
X0257885Y0174202D02*
X0258502Y0174819D01*
X0258502Y0175436D01*
X0257885Y0176053D01*
X0259716Y0175436D02*
X0259716Y0172967D01*
X0262185Y0175436D01*
X0262185Y0172967D01*
X0261568Y0172350D01*
X0260333Y0172350D01*
X0259716Y0172967D01*
X0259716Y0175436D02*
X0260333Y0176053D01*
X0261568Y0176053D01*
X0262185Y0175436D01*
X0176433Y0198584D02*
X0173964Y0198584D01*
X0175198Y0197350D02*
X0175198Y0199819D01*
X0171136Y0196436D02*
X0170518Y0197053D01*
X0169284Y0197053D01*
X0168667Y0196436D01*
X0167452Y0196436D02*
X0166835Y0197053D01*
X0164984Y0197053D01*
X0164984Y0193350D01*
X0166835Y0193350D01*
X0167452Y0193967D01*
X0167452Y0196436D01*
X0168667Y0193350D02*
X0171136Y0195819D01*
X0171136Y0196436D01*
X0171136Y0193350D02*
X0168667Y0193350D01*
X0163769Y0193350D02*
X0161301Y0193350D01*
X0161301Y0197053D01*
X0163769Y0197053D01*
X0162535Y0195202D02*
X0161301Y0195202D01*
X0160086Y0193350D02*
X0157617Y0193350D01*
X0157617Y0197053D01*
X0162350Y0181053D02*
X0164202Y0181053D01*
X0164819Y0180436D01*
X0164819Y0179202D01*
X0164202Y0178584D01*
X0162350Y0178584D01*
X0162350Y0177350D02*
X0162350Y0181053D01*
X0166033Y0180436D02*
X0166650Y0181053D01*
X0167885Y0181053D01*
X0168502Y0180436D01*
X0168502Y0179819D01*
X0166033Y0177350D01*
X0168502Y0177350D01*
X0167885Y0176053D02*
X0166650Y0176053D01*
X0166033Y0175436D01*
X0164819Y0175436D02*
X0164819Y0174819D01*
X0164202Y0174202D01*
X0164819Y0173584D01*
X0164819Y0172967D01*
X0164202Y0172350D01*
X0162967Y0172350D01*
X0162350Y0172967D01*
X0163584Y0174202D02*
X0164202Y0174202D01*
X0164819Y0175436D02*
X0164202Y0176053D01*
X0162967Y0176053D01*
X0162350Y0175436D01*
X0164819Y0177350D02*
X0163584Y0178584D01*
X0167885Y0176053D02*
X0168502Y0175436D01*
X0168502Y0174819D01*
X0167885Y0174202D01*
X0168502Y0173584D01*
X0168502Y0172967D01*
X0167885Y0172350D01*
X0166650Y0172350D01*
X0166033Y0172967D01*
X0167268Y0174202D02*
X0167885Y0174202D01*
X0169716Y0172967D02*
X0169716Y0175436D01*
X0170333Y0176053D01*
X0171568Y0176053D01*
X0172185Y0175436D01*
X0169716Y0172967D01*
X0170333Y0172350D01*
X0171568Y0172350D01*
X0172185Y0172967D01*
X0172185Y0175436D01*
X0146518Y0163252D02*
X0144583Y0163252D01*
X0144583Y0160350D01*
X0143571Y0160350D02*
X0143571Y0162285D01*
X0144583Y0161801D02*
X0145550Y0161801D01*
X0143571Y0160350D02*
X0142120Y0160350D01*
X0141636Y0160834D01*
X0141636Y0162285D01*
X0140625Y0162769D02*
X0138690Y0160834D01*
X0139173Y0160350D01*
X0140141Y0160350D01*
X0140625Y0160834D01*
X0140625Y0162769D01*
X0140141Y0163252D01*
X0139173Y0163252D01*
X0138690Y0162769D01*
X0138690Y0160834D01*
X0137678Y0160834D02*
X0137194Y0160350D01*
X0136227Y0160350D01*
X0135743Y0160834D01*
X0137678Y0162769D01*
X0137678Y0160834D01*
X0137678Y0162769D02*
X0137194Y0163252D01*
X0136227Y0163252D01*
X0135743Y0162769D01*
X0135743Y0160834D01*
X0134731Y0160834D02*
X0134248Y0160350D01*
X0133280Y0160350D01*
X0132797Y0160834D01*
X0134731Y0162769D01*
X0134731Y0160834D01*
X0132797Y0160834D02*
X0132797Y0162769D01*
X0133280Y0163252D01*
X0134248Y0163252D01*
X0134731Y0162769D01*
X0131785Y0160350D02*
X0129850Y0160350D01*
X0130817Y0160350D02*
X0130817Y0163252D01*
X0129850Y0162285D01*
X0134967Y0188850D02*
X0136202Y0188850D01*
X0136819Y0189467D01*
X0138033Y0188850D02*
X0140502Y0191319D01*
X0140502Y0191936D01*
X0139885Y0192553D01*
X0138650Y0192553D01*
X0138033Y0191936D01*
X0136819Y0191936D02*
X0136202Y0192553D01*
X0134967Y0192553D01*
X0134350Y0191936D01*
X0134350Y0189467D01*
X0134967Y0188850D01*
X0138033Y0188850D02*
X0140502Y0188850D01*
X0086433Y0198584D02*
X0083964Y0198584D01*
X0085198Y0197350D02*
X0085198Y0199819D01*
X0079901Y0197053D02*
X0079901Y0193350D01*
X0078667Y0193350D02*
X0081136Y0193350D01*
X0078667Y0195819D02*
X0079901Y0197053D01*
X0077452Y0196436D02*
X0077452Y0193967D01*
X0076835Y0193350D01*
X0074984Y0193350D01*
X0074984Y0197053D01*
X0076835Y0197053D01*
X0077452Y0196436D01*
X0073769Y0197053D02*
X0071301Y0197053D01*
X0071301Y0193350D01*
X0073769Y0193350D01*
X0072535Y0195202D02*
X0071301Y0195202D01*
X0070086Y0193350D02*
X0067617Y0193350D01*
X0067617Y0197053D01*
X0072350Y0181053D02*
X0074202Y0181053D01*
X0074819Y0180436D01*
X0074819Y0179202D01*
X0074202Y0178584D01*
X0072350Y0178584D01*
X0072350Y0177350D02*
X0072350Y0181053D01*
X0076033Y0179819D02*
X0077268Y0181053D01*
X0077268Y0177350D01*
X0078502Y0177350D02*
X0076033Y0177350D01*
X0074819Y0177350D02*
X0073584Y0178584D01*
X0072967Y0176053D02*
X0074202Y0176053D01*
X0074819Y0175436D01*
X0074819Y0174819D01*
X0074202Y0174202D01*
X0074819Y0173584D01*
X0074819Y0172967D01*
X0074202Y0172350D01*
X0072967Y0172350D01*
X0072350Y0172967D01*
X0073584Y0174202D02*
X0074202Y0174202D01*
X0076033Y0175436D02*
X0076650Y0176053D01*
X0077885Y0176053D01*
X0078502Y0175436D01*
X0078502Y0174819D01*
X0077885Y0174202D01*
X0078502Y0173584D01*
X0078502Y0172967D01*
X0077885Y0172350D01*
X0076650Y0172350D01*
X0076033Y0172967D01*
X0077268Y0174202D02*
X0077885Y0174202D01*
X0079716Y0172967D02*
X0079716Y0175436D01*
X0080333Y0176053D01*
X0081568Y0176053D01*
X0082185Y0175436D01*
X0079716Y0172967D01*
X0080333Y0172350D01*
X0081568Y0172350D01*
X0082185Y0172967D01*
X0082185Y0175436D01*
X0072967Y0176053D02*
X0072350Y0175436D01*
X0056518Y0163252D02*
X0054583Y0163252D01*
X0054583Y0160350D01*
X0053571Y0160350D02*
X0053571Y0162285D01*
X0054583Y0161801D02*
X0055550Y0161801D01*
X0053571Y0160350D02*
X0052120Y0160350D01*
X0051636Y0160834D01*
X0051636Y0162285D01*
X0050625Y0162769D02*
X0048690Y0160834D01*
X0049173Y0160350D01*
X0050141Y0160350D01*
X0050625Y0160834D01*
X0050625Y0162769D01*
X0050141Y0163252D01*
X0049173Y0163252D01*
X0048690Y0162769D01*
X0048690Y0160834D01*
X0047678Y0160834D02*
X0047194Y0160350D01*
X0046227Y0160350D01*
X0045743Y0160834D01*
X0047678Y0162769D01*
X0047678Y0160834D01*
X0047678Y0162769D02*
X0047194Y0163252D01*
X0046227Y0163252D01*
X0045743Y0162769D01*
X0045743Y0160834D01*
X0044731Y0160834D02*
X0044248Y0160350D01*
X0043280Y0160350D01*
X0042797Y0160834D01*
X0044731Y0162769D01*
X0044731Y0160834D01*
X0042797Y0160834D02*
X0042797Y0162769D01*
X0043280Y0163252D01*
X0044248Y0163252D01*
X0044731Y0162769D01*
X0041785Y0160350D02*
X0039850Y0160350D01*
X0040817Y0160350D02*
X0040817Y0163252D01*
X0039850Y0162285D01*
X0044967Y0188850D02*
X0046202Y0188850D01*
X0046819Y0189467D01*
X0048033Y0188850D02*
X0050502Y0188850D01*
X0049268Y0188850D02*
X0049268Y0192553D01*
X0048033Y0191319D01*
X0046819Y0191936D02*
X0046202Y0192553D01*
X0044967Y0192553D01*
X0044350Y0191936D01*
X0044350Y0189467D01*
X0044967Y0188850D01*
D13*
X0039700Y0182200D02*
X0034700Y0182200D01*
X0025700Y0177200D02*
X0025706Y0177728D01*
X0025726Y0178255D01*
X0025758Y0178782D01*
X0025804Y0179307D01*
X0025862Y0179832D01*
X0025933Y0180355D01*
X0026017Y0180876D01*
X0026113Y0181394D01*
X0026222Y0181911D01*
X0026344Y0182424D01*
X0026479Y0182934D01*
X0026626Y0183441D01*
X0026785Y0183944D01*
X0026957Y0184443D01*
X0027141Y0184938D01*
X0027337Y0185428D01*
X0027544Y0185913D01*
X0027764Y0186392D01*
X0027996Y0186867D01*
X0028239Y0187335D01*
X0028493Y0187797D01*
X0028759Y0188253D01*
X0029036Y0188702D01*
X0029323Y0189145D01*
X0029622Y0189580D01*
X0029931Y0190008D01*
X0030251Y0190427D01*
X0030580Y0190839D01*
X0030920Y0191243D01*
X0031270Y0191639D01*
X0031629Y0192025D01*
X0031997Y0192403D01*
X0032375Y0192771D01*
X0032761Y0193130D01*
X0033157Y0193480D01*
X0033561Y0193820D01*
X0033973Y0194149D01*
X0034392Y0194469D01*
X0034820Y0194778D01*
X0035255Y0195077D01*
X0035698Y0195364D01*
X0036147Y0195641D01*
X0036603Y0195907D01*
X0037065Y0196161D01*
X0037533Y0196404D01*
X0038008Y0196636D01*
X0038487Y0196856D01*
X0038972Y0197063D01*
X0039462Y0197259D01*
X0039957Y0197443D01*
X0040456Y0197615D01*
X0040959Y0197774D01*
X0041466Y0197921D01*
X0041976Y0198056D01*
X0042489Y0198178D01*
X0043006Y0198287D01*
X0043524Y0198383D01*
X0044045Y0198467D01*
X0044568Y0198538D01*
X0045093Y0198596D01*
X0045618Y0198642D01*
X0046145Y0198674D01*
X0046672Y0198694D01*
X0047200Y0198700D01*
X0047728Y0198694D01*
X0048255Y0198674D01*
X0048782Y0198642D01*
X0049307Y0198596D01*
X0049832Y0198538D01*
X0050355Y0198467D01*
X0050876Y0198383D01*
X0051394Y0198287D01*
X0051911Y0198178D01*
X0052424Y0198056D01*
X0052934Y0197921D01*
X0053441Y0197774D01*
X0053944Y0197615D01*
X0054443Y0197443D01*
X0054938Y0197259D01*
X0055428Y0197063D01*
X0055913Y0196856D01*
X0056392Y0196636D01*
X0056867Y0196404D01*
X0057335Y0196161D01*
X0057797Y0195907D01*
X0058253Y0195641D01*
X0058702Y0195364D01*
X0059145Y0195077D01*
X0059580Y0194778D01*
X0060008Y0194469D01*
X0060427Y0194149D01*
X0060839Y0193820D01*
X0061243Y0193480D01*
X0061639Y0193130D01*
X0062025Y0192771D01*
X0062403Y0192403D01*
X0062771Y0192025D01*
X0063130Y0191639D01*
X0063480Y0191243D01*
X0063820Y0190839D01*
X0064149Y0190427D01*
X0064469Y0190008D01*
X0064778Y0189580D01*
X0065077Y0189145D01*
X0065364Y0188702D01*
X0065641Y0188253D01*
X0065907Y0187797D01*
X0066161Y0187335D01*
X0066404Y0186867D01*
X0066636Y0186392D01*
X0066856Y0185913D01*
X0067063Y0185428D01*
X0067259Y0184938D01*
X0067443Y0184443D01*
X0067615Y0183944D01*
X0067774Y0183441D01*
X0067921Y0182934D01*
X0068056Y0182424D01*
X0068178Y0181911D01*
X0068287Y0181394D01*
X0068383Y0180876D01*
X0068467Y0180355D01*
X0068538Y0179832D01*
X0068596Y0179307D01*
X0068642Y0178782D01*
X0068674Y0178255D01*
X0068694Y0177728D01*
X0068700Y0177200D01*
X0068694Y0176672D01*
X0068674Y0176145D01*
X0068642Y0175618D01*
X0068596Y0175093D01*
X0068538Y0174568D01*
X0068467Y0174045D01*
X0068383Y0173524D01*
X0068287Y0173006D01*
X0068178Y0172489D01*
X0068056Y0171976D01*
X0067921Y0171466D01*
X0067774Y0170959D01*
X0067615Y0170456D01*
X0067443Y0169957D01*
X0067259Y0169462D01*
X0067063Y0168972D01*
X0066856Y0168487D01*
X0066636Y0168008D01*
X0066404Y0167533D01*
X0066161Y0167065D01*
X0065907Y0166603D01*
X0065641Y0166147D01*
X0065364Y0165698D01*
X0065077Y0165255D01*
X0064778Y0164820D01*
X0064469Y0164392D01*
X0064149Y0163973D01*
X0063820Y0163561D01*
X0063480Y0163157D01*
X0063130Y0162761D01*
X0062771Y0162375D01*
X0062403Y0161997D01*
X0062025Y0161629D01*
X0061639Y0161270D01*
X0061243Y0160920D01*
X0060839Y0160580D01*
X0060427Y0160251D01*
X0060008Y0159931D01*
X0059580Y0159622D01*
X0059145Y0159323D01*
X0058702Y0159036D01*
X0058253Y0158759D01*
X0057797Y0158493D01*
X0057335Y0158239D01*
X0056867Y0157996D01*
X0056392Y0157764D01*
X0055913Y0157544D01*
X0055428Y0157337D01*
X0054938Y0157141D01*
X0054443Y0156957D01*
X0053944Y0156785D01*
X0053441Y0156626D01*
X0052934Y0156479D01*
X0052424Y0156344D01*
X0051911Y0156222D01*
X0051394Y0156113D01*
X0050876Y0156017D01*
X0050355Y0155933D01*
X0049832Y0155862D01*
X0049307Y0155804D01*
X0048782Y0155758D01*
X0048255Y0155726D01*
X0047728Y0155706D01*
X0047200Y0155700D01*
X0046672Y0155706D01*
X0046145Y0155726D01*
X0045618Y0155758D01*
X0045093Y0155804D01*
X0044568Y0155862D01*
X0044045Y0155933D01*
X0043524Y0156017D01*
X0043006Y0156113D01*
X0042489Y0156222D01*
X0041976Y0156344D01*
X0041466Y0156479D01*
X0040959Y0156626D01*
X0040456Y0156785D01*
X0039957Y0156957D01*
X0039462Y0157141D01*
X0038972Y0157337D01*
X0038487Y0157544D01*
X0038008Y0157764D01*
X0037533Y0157996D01*
X0037065Y0158239D01*
X0036603Y0158493D01*
X0036147Y0158759D01*
X0035698Y0159036D01*
X0035255Y0159323D01*
X0034820Y0159622D01*
X0034392Y0159931D01*
X0033973Y0160251D01*
X0033561Y0160580D01*
X0033157Y0160920D01*
X0032761Y0161270D01*
X0032375Y0161629D01*
X0031997Y0161997D01*
X0031629Y0162375D01*
X0031270Y0162761D01*
X0030920Y0163157D01*
X0030580Y0163561D01*
X0030251Y0163973D01*
X0029931Y0164392D01*
X0029622Y0164820D01*
X0029323Y0165255D01*
X0029036Y0165698D01*
X0028759Y0166147D01*
X0028493Y0166603D01*
X0028239Y0167065D01*
X0027996Y0167533D01*
X0027764Y0168008D01*
X0027544Y0168487D01*
X0027337Y0168972D01*
X0027141Y0169462D01*
X0026957Y0169957D01*
X0026785Y0170456D01*
X0026626Y0170959D01*
X0026479Y0171466D01*
X0026344Y0171976D01*
X0026222Y0172489D01*
X0026113Y0173006D01*
X0026017Y0173524D01*
X0025933Y0174045D01*
X0025862Y0174568D01*
X0025804Y0175093D01*
X0025758Y0175618D01*
X0025726Y0176145D01*
X0025706Y0176672D01*
X0025700Y0177200D01*
X0124700Y0182200D02*
X0129700Y0182200D01*
X0115700Y0177200D02*
X0115706Y0177728D01*
X0115726Y0178255D01*
X0115758Y0178782D01*
X0115804Y0179307D01*
X0115862Y0179832D01*
X0115933Y0180355D01*
X0116017Y0180876D01*
X0116113Y0181394D01*
X0116222Y0181911D01*
X0116344Y0182424D01*
X0116479Y0182934D01*
X0116626Y0183441D01*
X0116785Y0183944D01*
X0116957Y0184443D01*
X0117141Y0184938D01*
X0117337Y0185428D01*
X0117544Y0185913D01*
X0117764Y0186392D01*
X0117996Y0186867D01*
X0118239Y0187335D01*
X0118493Y0187797D01*
X0118759Y0188253D01*
X0119036Y0188702D01*
X0119323Y0189145D01*
X0119622Y0189580D01*
X0119931Y0190008D01*
X0120251Y0190427D01*
X0120580Y0190839D01*
X0120920Y0191243D01*
X0121270Y0191639D01*
X0121629Y0192025D01*
X0121997Y0192403D01*
X0122375Y0192771D01*
X0122761Y0193130D01*
X0123157Y0193480D01*
X0123561Y0193820D01*
X0123973Y0194149D01*
X0124392Y0194469D01*
X0124820Y0194778D01*
X0125255Y0195077D01*
X0125698Y0195364D01*
X0126147Y0195641D01*
X0126603Y0195907D01*
X0127065Y0196161D01*
X0127533Y0196404D01*
X0128008Y0196636D01*
X0128487Y0196856D01*
X0128972Y0197063D01*
X0129462Y0197259D01*
X0129957Y0197443D01*
X0130456Y0197615D01*
X0130959Y0197774D01*
X0131466Y0197921D01*
X0131976Y0198056D01*
X0132489Y0198178D01*
X0133006Y0198287D01*
X0133524Y0198383D01*
X0134045Y0198467D01*
X0134568Y0198538D01*
X0135093Y0198596D01*
X0135618Y0198642D01*
X0136145Y0198674D01*
X0136672Y0198694D01*
X0137200Y0198700D01*
X0137728Y0198694D01*
X0138255Y0198674D01*
X0138782Y0198642D01*
X0139307Y0198596D01*
X0139832Y0198538D01*
X0140355Y0198467D01*
X0140876Y0198383D01*
X0141394Y0198287D01*
X0141911Y0198178D01*
X0142424Y0198056D01*
X0142934Y0197921D01*
X0143441Y0197774D01*
X0143944Y0197615D01*
X0144443Y0197443D01*
X0144938Y0197259D01*
X0145428Y0197063D01*
X0145913Y0196856D01*
X0146392Y0196636D01*
X0146867Y0196404D01*
X0147335Y0196161D01*
X0147797Y0195907D01*
X0148253Y0195641D01*
X0148702Y0195364D01*
X0149145Y0195077D01*
X0149580Y0194778D01*
X0150008Y0194469D01*
X0150427Y0194149D01*
X0150839Y0193820D01*
X0151243Y0193480D01*
X0151639Y0193130D01*
X0152025Y0192771D01*
X0152403Y0192403D01*
X0152771Y0192025D01*
X0153130Y0191639D01*
X0153480Y0191243D01*
X0153820Y0190839D01*
X0154149Y0190427D01*
X0154469Y0190008D01*
X0154778Y0189580D01*
X0155077Y0189145D01*
X0155364Y0188702D01*
X0155641Y0188253D01*
X0155907Y0187797D01*
X0156161Y0187335D01*
X0156404Y0186867D01*
X0156636Y0186392D01*
X0156856Y0185913D01*
X0157063Y0185428D01*
X0157259Y0184938D01*
X0157443Y0184443D01*
X0157615Y0183944D01*
X0157774Y0183441D01*
X0157921Y0182934D01*
X0158056Y0182424D01*
X0158178Y0181911D01*
X0158287Y0181394D01*
X0158383Y0180876D01*
X0158467Y0180355D01*
X0158538Y0179832D01*
X0158596Y0179307D01*
X0158642Y0178782D01*
X0158674Y0178255D01*
X0158694Y0177728D01*
X0158700Y0177200D01*
X0158694Y0176672D01*
X0158674Y0176145D01*
X0158642Y0175618D01*
X0158596Y0175093D01*
X0158538Y0174568D01*
X0158467Y0174045D01*
X0158383Y0173524D01*
X0158287Y0173006D01*
X0158178Y0172489D01*
X0158056Y0171976D01*
X0157921Y0171466D01*
X0157774Y0170959D01*
X0157615Y0170456D01*
X0157443Y0169957D01*
X0157259Y0169462D01*
X0157063Y0168972D01*
X0156856Y0168487D01*
X0156636Y0168008D01*
X0156404Y0167533D01*
X0156161Y0167065D01*
X0155907Y0166603D01*
X0155641Y0166147D01*
X0155364Y0165698D01*
X0155077Y0165255D01*
X0154778Y0164820D01*
X0154469Y0164392D01*
X0154149Y0163973D01*
X0153820Y0163561D01*
X0153480Y0163157D01*
X0153130Y0162761D01*
X0152771Y0162375D01*
X0152403Y0161997D01*
X0152025Y0161629D01*
X0151639Y0161270D01*
X0151243Y0160920D01*
X0150839Y0160580D01*
X0150427Y0160251D01*
X0150008Y0159931D01*
X0149580Y0159622D01*
X0149145Y0159323D01*
X0148702Y0159036D01*
X0148253Y0158759D01*
X0147797Y0158493D01*
X0147335Y0158239D01*
X0146867Y0157996D01*
X0146392Y0157764D01*
X0145913Y0157544D01*
X0145428Y0157337D01*
X0144938Y0157141D01*
X0144443Y0156957D01*
X0143944Y0156785D01*
X0143441Y0156626D01*
X0142934Y0156479D01*
X0142424Y0156344D01*
X0141911Y0156222D01*
X0141394Y0156113D01*
X0140876Y0156017D01*
X0140355Y0155933D01*
X0139832Y0155862D01*
X0139307Y0155804D01*
X0138782Y0155758D01*
X0138255Y0155726D01*
X0137728Y0155706D01*
X0137200Y0155700D01*
X0136672Y0155706D01*
X0136145Y0155726D01*
X0135618Y0155758D01*
X0135093Y0155804D01*
X0134568Y0155862D01*
X0134045Y0155933D01*
X0133524Y0156017D01*
X0133006Y0156113D01*
X0132489Y0156222D01*
X0131976Y0156344D01*
X0131466Y0156479D01*
X0130959Y0156626D01*
X0130456Y0156785D01*
X0129957Y0156957D01*
X0129462Y0157141D01*
X0128972Y0157337D01*
X0128487Y0157544D01*
X0128008Y0157764D01*
X0127533Y0157996D01*
X0127065Y0158239D01*
X0126603Y0158493D01*
X0126147Y0158759D01*
X0125698Y0159036D01*
X0125255Y0159323D01*
X0124820Y0159622D01*
X0124392Y0159931D01*
X0123973Y0160251D01*
X0123561Y0160580D01*
X0123157Y0160920D01*
X0122761Y0161270D01*
X0122375Y0161629D01*
X0121997Y0161997D01*
X0121629Y0162375D01*
X0121270Y0162761D01*
X0120920Y0163157D01*
X0120580Y0163561D01*
X0120251Y0163973D01*
X0119931Y0164392D01*
X0119622Y0164820D01*
X0119323Y0165255D01*
X0119036Y0165698D01*
X0118759Y0166147D01*
X0118493Y0166603D01*
X0118239Y0167065D01*
X0117996Y0167533D01*
X0117764Y0168008D01*
X0117544Y0168487D01*
X0117337Y0168972D01*
X0117141Y0169462D01*
X0116957Y0169957D01*
X0116785Y0170456D01*
X0116626Y0170959D01*
X0116479Y0171466D01*
X0116344Y0171976D01*
X0116222Y0172489D01*
X0116113Y0173006D01*
X0116017Y0173524D01*
X0115933Y0174045D01*
X0115862Y0174568D01*
X0115804Y0175093D01*
X0115758Y0175618D01*
X0115726Y0176145D01*
X0115706Y0176672D01*
X0115700Y0177200D01*
X0214700Y0182200D02*
X0219700Y0182200D01*
X0205700Y0177200D02*
X0205706Y0177728D01*
X0205726Y0178255D01*
X0205758Y0178782D01*
X0205804Y0179307D01*
X0205862Y0179832D01*
X0205933Y0180355D01*
X0206017Y0180876D01*
X0206113Y0181394D01*
X0206222Y0181911D01*
X0206344Y0182424D01*
X0206479Y0182934D01*
X0206626Y0183441D01*
X0206785Y0183944D01*
X0206957Y0184443D01*
X0207141Y0184938D01*
X0207337Y0185428D01*
X0207544Y0185913D01*
X0207764Y0186392D01*
X0207996Y0186867D01*
X0208239Y0187335D01*
X0208493Y0187797D01*
X0208759Y0188253D01*
X0209036Y0188702D01*
X0209323Y0189145D01*
X0209622Y0189580D01*
X0209931Y0190008D01*
X0210251Y0190427D01*
X0210580Y0190839D01*
X0210920Y0191243D01*
X0211270Y0191639D01*
X0211629Y0192025D01*
X0211997Y0192403D01*
X0212375Y0192771D01*
X0212761Y0193130D01*
X0213157Y0193480D01*
X0213561Y0193820D01*
X0213973Y0194149D01*
X0214392Y0194469D01*
X0214820Y0194778D01*
X0215255Y0195077D01*
X0215698Y0195364D01*
X0216147Y0195641D01*
X0216603Y0195907D01*
X0217065Y0196161D01*
X0217533Y0196404D01*
X0218008Y0196636D01*
X0218487Y0196856D01*
X0218972Y0197063D01*
X0219462Y0197259D01*
X0219957Y0197443D01*
X0220456Y0197615D01*
X0220959Y0197774D01*
X0221466Y0197921D01*
X0221976Y0198056D01*
X0222489Y0198178D01*
X0223006Y0198287D01*
X0223524Y0198383D01*
X0224045Y0198467D01*
X0224568Y0198538D01*
X0225093Y0198596D01*
X0225618Y0198642D01*
X0226145Y0198674D01*
X0226672Y0198694D01*
X0227200Y0198700D01*
X0227728Y0198694D01*
X0228255Y0198674D01*
X0228782Y0198642D01*
X0229307Y0198596D01*
X0229832Y0198538D01*
X0230355Y0198467D01*
X0230876Y0198383D01*
X0231394Y0198287D01*
X0231911Y0198178D01*
X0232424Y0198056D01*
X0232934Y0197921D01*
X0233441Y0197774D01*
X0233944Y0197615D01*
X0234443Y0197443D01*
X0234938Y0197259D01*
X0235428Y0197063D01*
X0235913Y0196856D01*
X0236392Y0196636D01*
X0236867Y0196404D01*
X0237335Y0196161D01*
X0237797Y0195907D01*
X0238253Y0195641D01*
X0238702Y0195364D01*
X0239145Y0195077D01*
X0239580Y0194778D01*
X0240008Y0194469D01*
X0240427Y0194149D01*
X0240839Y0193820D01*
X0241243Y0193480D01*
X0241639Y0193130D01*
X0242025Y0192771D01*
X0242403Y0192403D01*
X0242771Y0192025D01*
X0243130Y0191639D01*
X0243480Y0191243D01*
X0243820Y0190839D01*
X0244149Y0190427D01*
X0244469Y0190008D01*
X0244778Y0189580D01*
X0245077Y0189145D01*
X0245364Y0188702D01*
X0245641Y0188253D01*
X0245907Y0187797D01*
X0246161Y0187335D01*
X0246404Y0186867D01*
X0246636Y0186392D01*
X0246856Y0185913D01*
X0247063Y0185428D01*
X0247259Y0184938D01*
X0247443Y0184443D01*
X0247615Y0183944D01*
X0247774Y0183441D01*
X0247921Y0182934D01*
X0248056Y0182424D01*
X0248178Y0181911D01*
X0248287Y0181394D01*
X0248383Y0180876D01*
X0248467Y0180355D01*
X0248538Y0179832D01*
X0248596Y0179307D01*
X0248642Y0178782D01*
X0248674Y0178255D01*
X0248694Y0177728D01*
X0248700Y0177200D01*
X0248694Y0176672D01*
X0248674Y0176145D01*
X0248642Y0175618D01*
X0248596Y0175093D01*
X0248538Y0174568D01*
X0248467Y0174045D01*
X0248383Y0173524D01*
X0248287Y0173006D01*
X0248178Y0172489D01*
X0248056Y0171976D01*
X0247921Y0171466D01*
X0247774Y0170959D01*
X0247615Y0170456D01*
X0247443Y0169957D01*
X0247259Y0169462D01*
X0247063Y0168972D01*
X0246856Y0168487D01*
X0246636Y0168008D01*
X0246404Y0167533D01*
X0246161Y0167065D01*
X0245907Y0166603D01*
X0245641Y0166147D01*
X0245364Y0165698D01*
X0245077Y0165255D01*
X0244778Y0164820D01*
X0244469Y0164392D01*
X0244149Y0163973D01*
X0243820Y0163561D01*
X0243480Y0163157D01*
X0243130Y0162761D01*
X0242771Y0162375D01*
X0242403Y0161997D01*
X0242025Y0161629D01*
X0241639Y0161270D01*
X0241243Y0160920D01*
X0240839Y0160580D01*
X0240427Y0160251D01*
X0240008Y0159931D01*
X0239580Y0159622D01*
X0239145Y0159323D01*
X0238702Y0159036D01*
X0238253Y0158759D01*
X0237797Y0158493D01*
X0237335Y0158239D01*
X0236867Y0157996D01*
X0236392Y0157764D01*
X0235913Y0157544D01*
X0235428Y0157337D01*
X0234938Y0157141D01*
X0234443Y0156957D01*
X0233944Y0156785D01*
X0233441Y0156626D01*
X0232934Y0156479D01*
X0232424Y0156344D01*
X0231911Y0156222D01*
X0231394Y0156113D01*
X0230876Y0156017D01*
X0230355Y0155933D01*
X0229832Y0155862D01*
X0229307Y0155804D01*
X0228782Y0155758D01*
X0228255Y0155726D01*
X0227728Y0155706D01*
X0227200Y0155700D01*
X0226672Y0155706D01*
X0226145Y0155726D01*
X0225618Y0155758D01*
X0225093Y0155804D01*
X0224568Y0155862D01*
X0224045Y0155933D01*
X0223524Y0156017D01*
X0223006Y0156113D01*
X0222489Y0156222D01*
X0221976Y0156344D01*
X0221466Y0156479D01*
X0220959Y0156626D01*
X0220456Y0156785D01*
X0219957Y0156957D01*
X0219462Y0157141D01*
X0218972Y0157337D01*
X0218487Y0157544D01*
X0218008Y0157764D01*
X0217533Y0157996D01*
X0217065Y0158239D01*
X0216603Y0158493D01*
X0216147Y0158759D01*
X0215698Y0159036D01*
X0215255Y0159323D01*
X0214820Y0159622D01*
X0214392Y0159931D01*
X0213973Y0160251D01*
X0213561Y0160580D01*
X0213157Y0160920D01*
X0212761Y0161270D01*
X0212375Y0161629D01*
X0211997Y0161997D01*
X0211629Y0162375D01*
X0211270Y0162761D01*
X0210920Y0163157D01*
X0210580Y0163561D01*
X0210251Y0163973D01*
X0209931Y0164392D01*
X0209622Y0164820D01*
X0209323Y0165255D01*
X0209036Y0165698D01*
X0208759Y0166147D01*
X0208493Y0166603D01*
X0208239Y0167065D01*
X0207996Y0167533D01*
X0207764Y0168008D01*
X0207544Y0168487D01*
X0207337Y0168972D01*
X0207141Y0169462D01*
X0206957Y0169957D01*
X0206785Y0170456D01*
X0206626Y0170959D01*
X0206479Y0171466D01*
X0206344Y0171976D01*
X0206222Y0172489D01*
X0206113Y0173006D01*
X0206017Y0173524D01*
X0205933Y0174045D01*
X0205862Y0174568D01*
X0205804Y0175093D01*
X0205758Y0175618D01*
X0205726Y0176145D01*
X0205706Y0176672D01*
X0205700Y0177200D01*
X0227712Y0054995D02*
X0266196Y0054995D01*
X0266196Y0009503D01*
X0227712Y0009503D01*
X0227712Y0016590D01*
X0237259Y0016590D01*
X0237259Y0047909D01*
X0227712Y0047909D01*
X0227712Y0016590D01*
X0227712Y0047909D02*
X0227712Y0054995D01*
X0046196Y0054995D02*
X0046196Y0009503D01*
X0007712Y0009503D01*
X0007712Y0016590D01*
X0017259Y0016590D01*
X0017259Y0047909D01*
X0007712Y0047909D01*
X0007712Y0016590D01*
X0007712Y0047909D02*
X0007712Y0054995D01*
X0046196Y0054995D01*
D14*
X0097515Y0059798D02*
X0097515Y0034602D01*
X0136885Y0034602D01*
X0136885Y0059798D01*
X0127043Y0059798D01*
X0127043Y0057043D01*
X0107357Y0057043D01*
X0107357Y0059798D01*
X0097515Y0059798D01*
X0147515Y0059798D02*
X0147515Y0034602D01*
X0176885Y0034602D01*
X0176885Y0059798D01*
X0167043Y0059798D01*
X0167043Y0057043D01*
X0157357Y0057043D01*
X0157357Y0059798D01*
X0147515Y0059798D01*
X0147357Y0209602D02*
X0137515Y0209602D01*
X0137515Y0234798D01*
X0176885Y0234798D01*
X0176885Y0209602D01*
X0167043Y0209602D01*
X0167043Y0212357D01*
X0147357Y0212357D01*
X0147357Y0209602D01*
X0136885Y0209602D02*
X0136885Y0234798D01*
X0097515Y0234798D01*
X0097515Y0209602D01*
X0107357Y0209602D01*
X0107357Y0212357D01*
X0127043Y0212357D01*
X0127043Y0209602D01*
X0136885Y0209602D01*
X0187515Y0209602D02*
X0197357Y0209602D01*
X0197357Y0212357D01*
X0217043Y0212357D01*
X0217043Y0209602D01*
X0226885Y0209602D01*
X0226885Y0234798D01*
X0187515Y0234798D01*
X0187515Y0209602D01*
X0227515Y0209602D02*
X0237357Y0209602D01*
X0237357Y0212357D01*
X0257043Y0212357D01*
X0257043Y0209602D01*
X0266885Y0209602D01*
X0266885Y0234798D01*
X0227515Y0234798D01*
X0227515Y0209602D01*
X0086885Y0209602D02*
X0086885Y0234798D01*
X0047515Y0234798D01*
X0047515Y0209602D01*
X0057357Y0209602D01*
X0057357Y0212357D01*
X0077043Y0212357D01*
X0077043Y0209602D01*
X0086885Y0209602D01*
X0046885Y0209602D02*
X0046885Y0234798D01*
X0007515Y0234798D01*
X0007515Y0209602D01*
X0017357Y0209602D01*
X0017357Y0212357D01*
X0037043Y0212357D01*
X0037043Y0209602D01*
X0046885Y0209602D01*
D15*
X0017200Y0152200D02*
X0077200Y0152200D01*
X0077200Y0072200D01*
X0017200Y0072200D01*
X0017200Y0152200D01*
X0082200Y0104700D02*
X0092200Y0104700D01*
X0094700Y0099700D02*
X0094840Y0099702D01*
X0094980Y0099708D01*
X0095120Y0099718D01*
X0095260Y0099731D01*
X0095399Y0099749D01*
X0095538Y0099771D01*
X0095675Y0099796D01*
X0095813Y0099825D01*
X0095949Y0099858D01*
X0096084Y0099895D01*
X0096218Y0099936D01*
X0096351Y0099981D01*
X0096483Y0100029D01*
X0096613Y0100081D01*
X0096742Y0100136D01*
X0096869Y0100195D01*
X0096995Y0100258D01*
X0097119Y0100324D01*
X0097240Y0100393D01*
X0097360Y0100466D01*
X0097478Y0100543D01*
X0097593Y0100622D01*
X0097707Y0100705D01*
X0097817Y0100791D01*
X0097926Y0100880D01*
X0098032Y0100972D01*
X0098135Y0101067D01*
X0098236Y0101164D01*
X0098333Y0101265D01*
X0098428Y0101368D01*
X0098520Y0101474D01*
X0098609Y0101583D01*
X0098695Y0101693D01*
X0098778Y0101807D01*
X0098857Y0101922D01*
X0098934Y0102040D01*
X0099007Y0102160D01*
X0099076Y0102281D01*
X0099142Y0102405D01*
X0099205Y0102531D01*
X0099264Y0102658D01*
X0099319Y0102787D01*
X0099371Y0102917D01*
X0099419Y0103049D01*
X0099464Y0103182D01*
X0099505Y0103316D01*
X0099542Y0103451D01*
X0099575Y0103587D01*
X0099604Y0103725D01*
X0099629Y0103862D01*
X0099651Y0104001D01*
X0099669Y0104140D01*
X0099682Y0104280D01*
X0099692Y0104420D01*
X0099698Y0104560D01*
X0099700Y0104700D01*
X0099700Y0119700D01*
X0099698Y0119840D01*
X0099692Y0119980D01*
X0099682Y0120120D01*
X0099669Y0120260D01*
X0099651Y0120399D01*
X0099629Y0120538D01*
X0099604Y0120675D01*
X0099575Y0120813D01*
X0099542Y0120949D01*
X0099505Y0121084D01*
X0099464Y0121218D01*
X0099419Y0121351D01*
X0099371Y0121483D01*
X0099319Y0121613D01*
X0099264Y0121742D01*
X0099205Y0121869D01*
X0099142Y0121995D01*
X0099076Y0122119D01*
X0099007Y0122240D01*
X0098934Y0122360D01*
X0098857Y0122478D01*
X0098778Y0122593D01*
X0098695Y0122707D01*
X0098609Y0122817D01*
X0098520Y0122926D01*
X0098428Y0123032D01*
X0098333Y0123135D01*
X0098236Y0123236D01*
X0098135Y0123333D01*
X0098032Y0123428D01*
X0097926Y0123520D01*
X0097817Y0123609D01*
X0097707Y0123695D01*
X0097593Y0123778D01*
X0097478Y0123857D01*
X0097360Y0123934D01*
X0097240Y0124007D01*
X0097119Y0124076D01*
X0096995Y0124142D01*
X0096869Y0124205D01*
X0096742Y0124264D01*
X0096613Y0124319D01*
X0096483Y0124371D01*
X0096351Y0124419D01*
X0096218Y0124464D01*
X0096084Y0124505D01*
X0095949Y0124542D01*
X0095813Y0124575D01*
X0095675Y0124604D01*
X0095538Y0124629D01*
X0095399Y0124651D01*
X0095260Y0124669D01*
X0095120Y0124682D01*
X0094980Y0124692D01*
X0094840Y0124698D01*
X0094700Y0124700D01*
X0089700Y0124700D01*
X0087200Y0127200D02*
X0094700Y0127200D01*
X0094840Y0127202D01*
X0094980Y0127208D01*
X0095120Y0127218D01*
X0095260Y0127231D01*
X0095399Y0127249D01*
X0095538Y0127271D01*
X0095675Y0127296D01*
X0095813Y0127325D01*
X0095949Y0127358D01*
X0096084Y0127395D01*
X0096218Y0127436D01*
X0096351Y0127481D01*
X0096483Y0127529D01*
X0096613Y0127581D01*
X0096742Y0127636D01*
X0096869Y0127695D01*
X0096995Y0127758D01*
X0097119Y0127824D01*
X0097240Y0127893D01*
X0097360Y0127966D01*
X0097478Y0128043D01*
X0097593Y0128122D01*
X0097707Y0128205D01*
X0097817Y0128291D01*
X0097926Y0128380D01*
X0098032Y0128472D01*
X0098135Y0128567D01*
X0098236Y0128664D01*
X0098333Y0128765D01*
X0098428Y0128868D01*
X0098520Y0128974D01*
X0098609Y0129083D01*
X0098695Y0129193D01*
X0098778Y0129307D01*
X0098857Y0129422D01*
X0098934Y0129540D01*
X0099007Y0129660D01*
X0099076Y0129781D01*
X0099142Y0129905D01*
X0099205Y0130031D01*
X0099264Y0130158D01*
X0099319Y0130287D01*
X0099371Y0130417D01*
X0099419Y0130549D01*
X0099464Y0130682D01*
X0099505Y0130816D01*
X0099542Y0130951D01*
X0099575Y0131087D01*
X0099604Y0131225D01*
X0099629Y0131362D01*
X0099651Y0131501D01*
X0099669Y0131640D01*
X0099682Y0131780D01*
X0099692Y0131920D01*
X0099698Y0132060D01*
X0099700Y0132200D01*
X0099700Y0147200D01*
X0099698Y0147340D01*
X0099692Y0147480D01*
X0099682Y0147620D01*
X0099669Y0147760D01*
X0099651Y0147899D01*
X0099629Y0148038D01*
X0099604Y0148175D01*
X0099575Y0148313D01*
X0099542Y0148449D01*
X0099505Y0148584D01*
X0099464Y0148718D01*
X0099419Y0148851D01*
X0099371Y0148983D01*
X0099319Y0149113D01*
X0099264Y0149242D01*
X0099205Y0149369D01*
X0099142Y0149495D01*
X0099076Y0149619D01*
X0099007Y0149740D01*
X0098934Y0149860D01*
X0098857Y0149978D01*
X0098778Y0150093D01*
X0098695Y0150207D01*
X0098609Y0150317D01*
X0098520Y0150426D01*
X0098428Y0150532D01*
X0098333Y0150635D01*
X0098236Y0150736D01*
X0098135Y0150833D01*
X0098032Y0150928D01*
X0097926Y0151020D01*
X0097817Y0151109D01*
X0097707Y0151195D01*
X0097593Y0151278D01*
X0097478Y0151357D01*
X0097360Y0151434D01*
X0097240Y0151507D01*
X0097119Y0151576D01*
X0096995Y0151642D01*
X0096869Y0151705D01*
X0096742Y0151764D01*
X0096613Y0151819D01*
X0096483Y0151871D01*
X0096351Y0151919D01*
X0096218Y0151964D01*
X0096084Y0152005D01*
X0095949Y0152042D01*
X0095813Y0152075D01*
X0095675Y0152104D01*
X0095538Y0152129D01*
X0095399Y0152151D01*
X0095260Y0152169D01*
X0095120Y0152182D01*
X0094980Y0152192D01*
X0094840Y0152198D01*
X0094700Y0152200D01*
X0087200Y0152200D01*
X0087102Y0152198D01*
X0087004Y0152192D01*
X0086906Y0152183D01*
X0086809Y0152169D01*
X0086712Y0152152D01*
X0086616Y0152131D01*
X0086521Y0152106D01*
X0086427Y0152078D01*
X0086335Y0152045D01*
X0086243Y0152010D01*
X0086153Y0151970D01*
X0086065Y0151928D01*
X0085978Y0151881D01*
X0085894Y0151832D01*
X0085811Y0151779D01*
X0085731Y0151723D01*
X0085652Y0151663D01*
X0085576Y0151601D01*
X0085503Y0151536D01*
X0085432Y0151468D01*
X0085364Y0151397D01*
X0085299Y0151324D01*
X0085237Y0151248D01*
X0085177Y0151169D01*
X0085121Y0151089D01*
X0085068Y0151006D01*
X0085019Y0150922D01*
X0084972Y0150835D01*
X0084930Y0150747D01*
X0084890Y0150657D01*
X0084855Y0150565D01*
X0084822Y0150473D01*
X0084794Y0150379D01*
X0084769Y0150284D01*
X0084748Y0150188D01*
X0084731Y0150091D01*
X0084717Y0149994D01*
X0084708Y0149896D01*
X0084702Y0149798D01*
X0084700Y0149700D01*
X0084702Y0149602D01*
X0084708Y0149504D01*
X0084717Y0149406D01*
X0084731Y0149309D01*
X0084748Y0149212D01*
X0084769Y0149116D01*
X0084794Y0149021D01*
X0084822Y0148927D01*
X0084855Y0148835D01*
X0084890Y0148743D01*
X0084930Y0148653D01*
X0084972Y0148565D01*
X0085019Y0148478D01*
X0085068Y0148394D01*
X0085121Y0148311D01*
X0085177Y0148231D01*
X0085237Y0148152D01*
X0085299Y0148076D01*
X0085364Y0148003D01*
X0085432Y0147932D01*
X0085503Y0147864D01*
X0085576Y0147799D01*
X0085652Y0147737D01*
X0085731Y0147677D01*
X0085811Y0147621D01*
X0085894Y0147568D01*
X0085978Y0147519D01*
X0086065Y0147472D01*
X0086153Y0147430D01*
X0086243Y0147390D01*
X0086335Y0147355D01*
X0086427Y0147322D01*
X0086521Y0147294D01*
X0086616Y0147269D01*
X0086712Y0147248D01*
X0086809Y0147231D01*
X0086906Y0147217D01*
X0087004Y0147208D01*
X0087102Y0147202D01*
X0087200Y0147200D01*
X0092200Y0147200D01*
X0092298Y0147198D01*
X0092396Y0147192D01*
X0092494Y0147183D01*
X0092591Y0147169D01*
X0092688Y0147152D01*
X0092784Y0147131D01*
X0092879Y0147106D01*
X0092973Y0147078D01*
X0093065Y0147045D01*
X0093157Y0147010D01*
X0093247Y0146970D01*
X0093335Y0146928D01*
X0093422Y0146881D01*
X0093506Y0146832D01*
X0093589Y0146779D01*
X0093669Y0146723D01*
X0093748Y0146663D01*
X0093824Y0146601D01*
X0093897Y0146536D01*
X0093968Y0146468D01*
X0094036Y0146397D01*
X0094101Y0146324D01*
X0094163Y0146248D01*
X0094223Y0146169D01*
X0094279Y0146089D01*
X0094332Y0146006D01*
X0094381Y0145922D01*
X0094428Y0145835D01*
X0094470Y0145747D01*
X0094510Y0145657D01*
X0094545Y0145565D01*
X0094578Y0145473D01*
X0094606Y0145379D01*
X0094631Y0145284D01*
X0094652Y0145188D01*
X0094669Y0145091D01*
X0094683Y0144994D01*
X0094692Y0144896D01*
X0094698Y0144798D01*
X0094700Y0144700D01*
X0094700Y0142200D01*
X0089700Y0142200D01*
X0089602Y0142198D01*
X0089504Y0142192D01*
X0089406Y0142183D01*
X0089309Y0142169D01*
X0089212Y0142152D01*
X0089116Y0142131D01*
X0089021Y0142106D01*
X0088927Y0142078D01*
X0088835Y0142045D01*
X0088743Y0142010D01*
X0088653Y0141970D01*
X0088565Y0141928D01*
X0088478Y0141881D01*
X0088394Y0141832D01*
X0088311Y0141779D01*
X0088231Y0141723D01*
X0088152Y0141663D01*
X0088076Y0141601D01*
X0088003Y0141536D01*
X0087932Y0141468D01*
X0087864Y0141397D01*
X0087799Y0141324D01*
X0087737Y0141248D01*
X0087677Y0141169D01*
X0087621Y0141089D01*
X0087568Y0141006D01*
X0087519Y0140922D01*
X0087472Y0140835D01*
X0087430Y0140747D01*
X0087390Y0140657D01*
X0087355Y0140565D01*
X0087322Y0140473D01*
X0087294Y0140379D01*
X0087269Y0140284D01*
X0087248Y0140188D01*
X0087231Y0140091D01*
X0087217Y0139994D01*
X0087208Y0139896D01*
X0087202Y0139798D01*
X0087200Y0139700D01*
X0087202Y0139602D01*
X0087208Y0139504D01*
X0087217Y0139406D01*
X0087231Y0139309D01*
X0087248Y0139212D01*
X0087269Y0139116D01*
X0087294Y0139021D01*
X0087322Y0138927D01*
X0087355Y0138835D01*
X0087390Y0138743D01*
X0087430Y0138653D01*
X0087472Y0138565D01*
X0087519Y0138478D01*
X0087568Y0138394D01*
X0087621Y0138311D01*
X0087677Y0138231D01*
X0087737Y0138152D01*
X0087799Y0138076D01*
X0087864Y0138003D01*
X0087932Y0137932D01*
X0088003Y0137864D01*
X0088076Y0137799D01*
X0088152Y0137737D01*
X0088231Y0137677D01*
X0088311Y0137621D01*
X0088394Y0137568D01*
X0088478Y0137519D01*
X0088565Y0137472D01*
X0088653Y0137430D01*
X0088743Y0137390D01*
X0088835Y0137355D01*
X0088927Y0137322D01*
X0089021Y0137294D01*
X0089116Y0137269D01*
X0089212Y0137248D01*
X0089309Y0137231D01*
X0089406Y0137217D01*
X0089504Y0137208D01*
X0089602Y0137202D01*
X0089700Y0137200D01*
X0094700Y0137200D01*
X0094700Y0134700D01*
X0094698Y0134602D01*
X0094692Y0134504D01*
X0094683Y0134406D01*
X0094669Y0134309D01*
X0094652Y0134212D01*
X0094631Y0134116D01*
X0094606Y0134021D01*
X0094578Y0133927D01*
X0094545Y0133835D01*
X0094510Y0133743D01*
X0094470Y0133653D01*
X0094428Y0133565D01*
X0094381Y0133478D01*
X0094332Y0133394D01*
X0094279Y0133311D01*
X0094223Y0133231D01*
X0094163Y0133152D01*
X0094101Y0133076D01*
X0094036Y0133003D01*
X0093968Y0132932D01*
X0093897Y0132864D01*
X0093824Y0132799D01*
X0093748Y0132737D01*
X0093669Y0132677D01*
X0093589Y0132621D01*
X0093506Y0132568D01*
X0093422Y0132519D01*
X0093335Y0132472D01*
X0093247Y0132430D01*
X0093157Y0132390D01*
X0093065Y0132355D01*
X0092973Y0132322D01*
X0092879Y0132294D01*
X0092784Y0132269D01*
X0092688Y0132248D01*
X0092591Y0132231D01*
X0092494Y0132217D01*
X0092396Y0132208D01*
X0092298Y0132202D01*
X0092200Y0132200D01*
X0087200Y0132200D01*
X0087102Y0132198D01*
X0087004Y0132192D01*
X0086906Y0132183D01*
X0086809Y0132169D01*
X0086712Y0132152D01*
X0086616Y0132131D01*
X0086521Y0132106D01*
X0086427Y0132078D01*
X0086335Y0132045D01*
X0086243Y0132010D01*
X0086153Y0131970D01*
X0086065Y0131928D01*
X0085978Y0131881D01*
X0085894Y0131832D01*
X0085811Y0131779D01*
X0085731Y0131723D01*
X0085652Y0131663D01*
X0085576Y0131601D01*
X0085503Y0131536D01*
X0085432Y0131468D01*
X0085364Y0131397D01*
X0085299Y0131324D01*
X0085237Y0131248D01*
X0085177Y0131169D01*
X0085121Y0131089D01*
X0085068Y0131006D01*
X0085019Y0130922D01*
X0084972Y0130835D01*
X0084930Y0130747D01*
X0084890Y0130657D01*
X0084855Y0130565D01*
X0084822Y0130473D01*
X0084794Y0130379D01*
X0084769Y0130284D01*
X0084748Y0130188D01*
X0084731Y0130091D01*
X0084717Y0129994D01*
X0084708Y0129896D01*
X0084702Y0129798D01*
X0084700Y0129700D01*
X0084702Y0129602D01*
X0084708Y0129504D01*
X0084717Y0129406D01*
X0084731Y0129309D01*
X0084748Y0129212D01*
X0084769Y0129116D01*
X0084794Y0129021D01*
X0084822Y0128927D01*
X0084855Y0128835D01*
X0084890Y0128743D01*
X0084930Y0128653D01*
X0084972Y0128565D01*
X0085019Y0128478D01*
X0085068Y0128394D01*
X0085121Y0128311D01*
X0085177Y0128231D01*
X0085237Y0128152D01*
X0085299Y0128076D01*
X0085364Y0128003D01*
X0085432Y0127932D01*
X0085503Y0127864D01*
X0085576Y0127799D01*
X0085652Y0127737D01*
X0085731Y0127677D01*
X0085811Y0127621D01*
X0085894Y0127568D01*
X0085978Y0127519D01*
X0086065Y0127472D01*
X0086153Y0127430D01*
X0086243Y0127390D01*
X0086335Y0127355D01*
X0086427Y0127322D01*
X0086521Y0127294D01*
X0086616Y0127269D01*
X0086712Y0127248D01*
X0086809Y0127231D01*
X0086906Y0127217D01*
X0087004Y0127208D01*
X0087102Y0127202D01*
X0087200Y0127200D01*
X0084700Y0119700D02*
X0084700Y0109700D01*
X0084702Y0109602D01*
X0084708Y0109504D01*
X0084717Y0109406D01*
X0084731Y0109309D01*
X0084748Y0109212D01*
X0084769Y0109116D01*
X0084794Y0109021D01*
X0084822Y0108927D01*
X0084855Y0108835D01*
X0084890Y0108743D01*
X0084930Y0108653D01*
X0084972Y0108565D01*
X0085019Y0108478D01*
X0085068Y0108394D01*
X0085121Y0108311D01*
X0085177Y0108231D01*
X0085237Y0108152D01*
X0085299Y0108076D01*
X0085364Y0108003D01*
X0085432Y0107932D01*
X0085503Y0107864D01*
X0085576Y0107799D01*
X0085652Y0107737D01*
X0085731Y0107677D01*
X0085811Y0107621D01*
X0085894Y0107568D01*
X0085978Y0107519D01*
X0086065Y0107472D01*
X0086153Y0107430D01*
X0086243Y0107390D01*
X0086335Y0107355D01*
X0086427Y0107322D01*
X0086521Y0107294D01*
X0086616Y0107269D01*
X0086712Y0107248D01*
X0086809Y0107231D01*
X0086906Y0107217D01*
X0087004Y0107208D01*
X0087102Y0107202D01*
X0087200Y0107200D01*
X0087298Y0107202D01*
X0087396Y0107208D01*
X0087494Y0107217D01*
X0087591Y0107231D01*
X0087688Y0107248D01*
X0087784Y0107269D01*
X0087879Y0107294D01*
X0087973Y0107322D01*
X0088065Y0107355D01*
X0088157Y0107390D01*
X0088247Y0107430D01*
X0088335Y0107472D01*
X0088422Y0107519D01*
X0088506Y0107568D01*
X0088589Y0107621D01*
X0088669Y0107677D01*
X0088748Y0107737D01*
X0088824Y0107799D01*
X0088897Y0107864D01*
X0088968Y0107932D01*
X0089036Y0108003D01*
X0089101Y0108076D01*
X0089163Y0108152D01*
X0089223Y0108231D01*
X0089279Y0108311D01*
X0089332Y0108394D01*
X0089381Y0108478D01*
X0089428Y0108565D01*
X0089470Y0108653D01*
X0089510Y0108743D01*
X0089545Y0108835D01*
X0089578Y0108927D01*
X0089606Y0109021D01*
X0089631Y0109116D01*
X0089652Y0109212D01*
X0089669Y0109309D01*
X0089683Y0109406D01*
X0089692Y0109504D01*
X0089698Y0109602D01*
X0089700Y0109700D01*
X0089700Y0117200D01*
X0084700Y0119700D02*
X0084702Y0119840D01*
X0084708Y0119980D01*
X0084718Y0120120D01*
X0084731Y0120260D01*
X0084749Y0120399D01*
X0084771Y0120538D01*
X0084796Y0120675D01*
X0084825Y0120813D01*
X0084858Y0120949D01*
X0084895Y0121084D01*
X0084936Y0121218D01*
X0084981Y0121351D01*
X0085029Y0121483D01*
X0085081Y0121613D01*
X0085136Y0121742D01*
X0085195Y0121869D01*
X0085258Y0121995D01*
X0085324Y0122119D01*
X0085393Y0122240D01*
X0085466Y0122360D01*
X0085543Y0122478D01*
X0085622Y0122593D01*
X0085705Y0122707D01*
X0085791Y0122817D01*
X0085880Y0122926D01*
X0085972Y0123032D01*
X0086067Y0123135D01*
X0086164Y0123236D01*
X0086265Y0123333D01*
X0086368Y0123428D01*
X0086474Y0123520D01*
X0086583Y0123609D01*
X0086693Y0123695D01*
X0086807Y0123778D01*
X0086922Y0123857D01*
X0087040Y0123934D01*
X0087160Y0124007D01*
X0087281Y0124076D01*
X0087405Y0124142D01*
X0087531Y0124205D01*
X0087658Y0124264D01*
X0087787Y0124319D01*
X0087917Y0124371D01*
X0088049Y0124419D01*
X0088182Y0124464D01*
X0088316Y0124505D01*
X0088451Y0124542D01*
X0088587Y0124575D01*
X0088725Y0124604D01*
X0088862Y0124629D01*
X0089001Y0124651D01*
X0089140Y0124669D01*
X0089280Y0124682D01*
X0089420Y0124692D01*
X0089560Y0124698D01*
X0089700Y0124700D01*
X0092200Y0119700D02*
X0092298Y0119698D01*
X0092396Y0119692D01*
X0092494Y0119683D01*
X0092591Y0119669D01*
X0092688Y0119652D01*
X0092784Y0119631D01*
X0092879Y0119606D01*
X0092973Y0119578D01*
X0093065Y0119545D01*
X0093157Y0119510D01*
X0093247Y0119470D01*
X0093335Y0119428D01*
X0093422Y0119381D01*
X0093506Y0119332D01*
X0093589Y0119279D01*
X0093669Y0119223D01*
X0093748Y0119163D01*
X0093824Y0119101D01*
X0093897Y0119036D01*
X0093968Y0118968D01*
X0094036Y0118897D01*
X0094101Y0118824D01*
X0094163Y0118748D01*
X0094223Y0118669D01*
X0094279Y0118589D01*
X0094332Y0118506D01*
X0094381Y0118422D01*
X0094428Y0118335D01*
X0094470Y0118247D01*
X0094510Y0118157D01*
X0094545Y0118065D01*
X0094578Y0117973D01*
X0094606Y0117879D01*
X0094631Y0117784D01*
X0094652Y0117688D01*
X0094669Y0117591D01*
X0094683Y0117494D01*
X0094692Y0117396D01*
X0094698Y0117298D01*
X0094700Y0117200D01*
X0094700Y0107200D01*
X0094698Y0107102D01*
X0094692Y0107004D01*
X0094683Y0106906D01*
X0094669Y0106809D01*
X0094652Y0106712D01*
X0094631Y0106616D01*
X0094606Y0106521D01*
X0094578Y0106427D01*
X0094545Y0106335D01*
X0094510Y0106243D01*
X0094470Y0106153D01*
X0094428Y0106065D01*
X0094381Y0105978D01*
X0094332Y0105894D01*
X0094279Y0105811D01*
X0094223Y0105731D01*
X0094163Y0105652D01*
X0094101Y0105576D01*
X0094036Y0105503D01*
X0093968Y0105432D01*
X0093897Y0105364D01*
X0093824Y0105299D01*
X0093748Y0105237D01*
X0093669Y0105177D01*
X0093589Y0105121D01*
X0093506Y0105068D01*
X0093422Y0105019D01*
X0093335Y0104972D01*
X0093247Y0104930D01*
X0093157Y0104890D01*
X0093065Y0104855D01*
X0092973Y0104822D01*
X0092879Y0104794D01*
X0092784Y0104769D01*
X0092688Y0104748D01*
X0092591Y0104731D01*
X0092494Y0104717D01*
X0092396Y0104708D01*
X0092298Y0104702D01*
X0092200Y0104700D01*
X0094700Y0099700D02*
X0082200Y0099700D01*
X0082102Y0099702D01*
X0082004Y0099708D01*
X0081906Y0099717D01*
X0081809Y0099731D01*
X0081712Y0099748D01*
X0081616Y0099769D01*
X0081521Y0099794D01*
X0081427Y0099822D01*
X0081335Y0099855D01*
X0081243Y0099890D01*
X0081153Y0099930D01*
X0081065Y0099972D01*
X0080978Y0100019D01*
X0080894Y0100068D01*
X0080811Y0100121D01*
X0080731Y0100177D01*
X0080652Y0100237D01*
X0080576Y0100299D01*
X0080503Y0100364D01*
X0080432Y0100432D01*
X0080364Y0100503D01*
X0080299Y0100576D01*
X0080237Y0100652D01*
X0080177Y0100731D01*
X0080121Y0100811D01*
X0080068Y0100894D01*
X0080019Y0100978D01*
X0079972Y0101065D01*
X0079930Y0101153D01*
X0079890Y0101243D01*
X0079855Y0101335D01*
X0079822Y0101427D01*
X0079794Y0101521D01*
X0079769Y0101616D01*
X0079748Y0101712D01*
X0079731Y0101809D01*
X0079717Y0101906D01*
X0079708Y0102004D01*
X0079702Y0102102D01*
X0079700Y0102200D01*
X0079702Y0102298D01*
X0079708Y0102396D01*
X0079717Y0102494D01*
X0079731Y0102591D01*
X0079748Y0102688D01*
X0079769Y0102784D01*
X0079794Y0102879D01*
X0079822Y0102973D01*
X0079855Y0103065D01*
X0079890Y0103157D01*
X0079930Y0103247D01*
X0079972Y0103335D01*
X0080019Y0103422D01*
X0080068Y0103506D01*
X0080121Y0103589D01*
X0080177Y0103669D01*
X0080237Y0103748D01*
X0080299Y0103824D01*
X0080364Y0103897D01*
X0080432Y0103968D01*
X0080503Y0104036D01*
X0080576Y0104101D01*
X0080652Y0104163D01*
X0080731Y0104223D01*
X0080811Y0104279D01*
X0080894Y0104332D01*
X0080978Y0104381D01*
X0081065Y0104428D01*
X0081153Y0104470D01*
X0081243Y0104510D01*
X0081335Y0104545D01*
X0081427Y0104578D01*
X0081521Y0104606D01*
X0081616Y0104631D01*
X0081712Y0104652D01*
X0081809Y0104669D01*
X0081906Y0104683D01*
X0082004Y0104692D01*
X0082102Y0104698D01*
X0082200Y0104700D01*
X0089700Y0097200D02*
X0097200Y0097200D01*
X0097298Y0097198D01*
X0097396Y0097192D01*
X0097494Y0097183D01*
X0097591Y0097169D01*
X0097688Y0097152D01*
X0097784Y0097131D01*
X0097879Y0097106D01*
X0097973Y0097078D01*
X0098065Y0097045D01*
X0098157Y0097010D01*
X0098247Y0096970D01*
X0098335Y0096928D01*
X0098422Y0096881D01*
X0098506Y0096832D01*
X0098589Y0096779D01*
X0098669Y0096723D01*
X0098748Y0096663D01*
X0098824Y0096601D01*
X0098897Y0096536D01*
X0098968Y0096468D01*
X0099036Y0096397D01*
X0099101Y0096324D01*
X0099163Y0096248D01*
X0099223Y0096169D01*
X0099279Y0096089D01*
X0099332Y0096006D01*
X0099381Y0095922D01*
X0099428Y0095835D01*
X0099470Y0095747D01*
X0099510Y0095657D01*
X0099545Y0095565D01*
X0099578Y0095473D01*
X0099606Y0095379D01*
X0099631Y0095284D01*
X0099652Y0095188D01*
X0099669Y0095091D01*
X0099683Y0094994D01*
X0099692Y0094896D01*
X0099698Y0094798D01*
X0099700Y0094700D01*
X0099698Y0094602D01*
X0099692Y0094504D01*
X0099683Y0094406D01*
X0099669Y0094309D01*
X0099652Y0094212D01*
X0099631Y0094116D01*
X0099606Y0094021D01*
X0099578Y0093927D01*
X0099545Y0093835D01*
X0099510Y0093743D01*
X0099470Y0093653D01*
X0099428Y0093565D01*
X0099381Y0093478D01*
X0099332Y0093394D01*
X0099279Y0093311D01*
X0099223Y0093231D01*
X0099163Y0093152D01*
X0099101Y0093076D01*
X0099036Y0093003D01*
X0098968Y0092932D01*
X0098897Y0092864D01*
X0098824Y0092799D01*
X0098748Y0092737D01*
X0098669Y0092677D01*
X0098589Y0092621D01*
X0098506Y0092568D01*
X0098422Y0092519D01*
X0098335Y0092472D01*
X0098247Y0092430D01*
X0098157Y0092390D01*
X0098065Y0092355D01*
X0097973Y0092322D01*
X0097879Y0092294D01*
X0097784Y0092269D01*
X0097688Y0092248D01*
X0097591Y0092231D01*
X0097494Y0092217D01*
X0097396Y0092208D01*
X0097298Y0092202D01*
X0097200Y0092200D01*
X0092200Y0092200D01*
X0092102Y0092198D01*
X0092004Y0092192D01*
X0091906Y0092183D01*
X0091809Y0092169D01*
X0091712Y0092152D01*
X0091616Y0092131D01*
X0091521Y0092106D01*
X0091427Y0092078D01*
X0091335Y0092045D01*
X0091243Y0092010D01*
X0091153Y0091970D01*
X0091065Y0091928D01*
X0090978Y0091881D01*
X0090894Y0091832D01*
X0090811Y0091779D01*
X0090731Y0091723D01*
X0090652Y0091663D01*
X0090576Y0091601D01*
X0090503Y0091536D01*
X0090432Y0091468D01*
X0090364Y0091397D01*
X0090299Y0091324D01*
X0090237Y0091248D01*
X0090177Y0091169D01*
X0090121Y0091089D01*
X0090068Y0091006D01*
X0090019Y0090922D01*
X0089972Y0090835D01*
X0089930Y0090747D01*
X0089890Y0090657D01*
X0089855Y0090565D01*
X0089822Y0090473D01*
X0089794Y0090379D01*
X0089769Y0090284D01*
X0089748Y0090188D01*
X0089731Y0090091D01*
X0089717Y0089994D01*
X0089708Y0089896D01*
X0089702Y0089798D01*
X0089700Y0089700D01*
X0089700Y0079700D01*
X0084700Y0077200D02*
X0084702Y0077060D01*
X0084708Y0076920D01*
X0084718Y0076780D01*
X0084731Y0076640D01*
X0084749Y0076501D01*
X0084771Y0076362D01*
X0084796Y0076225D01*
X0084825Y0076087D01*
X0084858Y0075951D01*
X0084895Y0075816D01*
X0084936Y0075682D01*
X0084981Y0075549D01*
X0085029Y0075417D01*
X0085081Y0075287D01*
X0085136Y0075158D01*
X0085195Y0075031D01*
X0085258Y0074905D01*
X0085324Y0074781D01*
X0085393Y0074660D01*
X0085466Y0074540D01*
X0085543Y0074422D01*
X0085622Y0074307D01*
X0085705Y0074193D01*
X0085791Y0074083D01*
X0085880Y0073974D01*
X0085972Y0073868D01*
X0086067Y0073765D01*
X0086164Y0073664D01*
X0086265Y0073567D01*
X0086368Y0073472D01*
X0086474Y0073380D01*
X0086583Y0073291D01*
X0086693Y0073205D01*
X0086807Y0073122D01*
X0086922Y0073043D01*
X0087040Y0072966D01*
X0087160Y0072893D01*
X0087281Y0072824D01*
X0087405Y0072758D01*
X0087531Y0072695D01*
X0087658Y0072636D01*
X0087787Y0072581D01*
X0087917Y0072529D01*
X0088049Y0072481D01*
X0088182Y0072436D01*
X0088316Y0072395D01*
X0088451Y0072358D01*
X0088587Y0072325D01*
X0088725Y0072296D01*
X0088862Y0072271D01*
X0089001Y0072249D01*
X0089140Y0072231D01*
X0089280Y0072218D01*
X0089420Y0072208D01*
X0089560Y0072202D01*
X0089700Y0072200D01*
X0094700Y0072200D01*
X0094840Y0072202D01*
X0094980Y0072208D01*
X0095120Y0072218D01*
X0095260Y0072231D01*
X0095399Y0072249D01*
X0095538Y0072271D01*
X0095675Y0072296D01*
X0095813Y0072325D01*
X0095949Y0072358D01*
X0096084Y0072395D01*
X0096218Y0072436D01*
X0096351Y0072481D01*
X0096483Y0072529D01*
X0096613Y0072581D01*
X0096742Y0072636D01*
X0096869Y0072695D01*
X0096995Y0072758D01*
X0097119Y0072824D01*
X0097240Y0072893D01*
X0097360Y0072966D01*
X0097478Y0073043D01*
X0097593Y0073122D01*
X0097707Y0073205D01*
X0097817Y0073291D01*
X0097926Y0073380D01*
X0098032Y0073472D01*
X0098135Y0073567D01*
X0098236Y0073664D01*
X0098333Y0073765D01*
X0098428Y0073868D01*
X0098520Y0073974D01*
X0098609Y0074083D01*
X0098695Y0074193D01*
X0098778Y0074307D01*
X0098857Y0074422D01*
X0098934Y0074540D01*
X0099007Y0074660D01*
X0099076Y0074781D01*
X0099142Y0074905D01*
X0099205Y0075031D01*
X0099264Y0075158D01*
X0099319Y0075287D01*
X0099371Y0075417D01*
X0099419Y0075549D01*
X0099464Y0075682D01*
X0099505Y0075816D01*
X0099542Y0075951D01*
X0099575Y0076087D01*
X0099604Y0076225D01*
X0099629Y0076362D01*
X0099651Y0076501D01*
X0099669Y0076640D01*
X0099682Y0076780D01*
X0099692Y0076920D01*
X0099698Y0077060D01*
X0099700Y0077200D01*
X0099700Y0087200D01*
X0099698Y0087298D01*
X0099692Y0087396D01*
X0099683Y0087494D01*
X0099669Y0087591D01*
X0099652Y0087688D01*
X0099631Y0087784D01*
X0099606Y0087879D01*
X0099578Y0087973D01*
X0099545Y0088065D01*
X0099510Y0088157D01*
X0099470Y0088247D01*
X0099428Y0088335D01*
X0099381Y0088422D01*
X0099332Y0088506D01*
X0099279Y0088589D01*
X0099223Y0088669D01*
X0099163Y0088748D01*
X0099101Y0088824D01*
X0099036Y0088897D01*
X0098968Y0088968D01*
X0098897Y0089036D01*
X0098824Y0089101D01*
X0098748Y0089163D01*
X0098669Y0089223D01*
X0098589Y0089279D01*
X0098506Y0089332D01*
X0098422Y0089381D01*
X0098335Y0089428D01*
X0098247Y0089470D01*
X0098157Y0089510D01*
X0098065Y0089545D01*
X0097973Y0089578D01*
X0097879Y0089606D01*
X0097784Y0089631D01*
X0097688Y0089652D01*
X0097591Y0089669D01*
X0097494Y0089683D01*
X0097396Y0089692D01*
X0097298Y0089698D01*
X0097200Y0089700D01*
X0097102Y0089698D01*
X0097004Y0089692D01*
X0096906Y0089683D01*
X0096809Y0089669D01*
X0096712Y0089652D01*
X0096616Y0089631D01*
X0096521Y0089606D01*
X0096427Y0089578D01*
X0096335Y0089545D01*
X0096243Y0089510D01*
X0096153Y0089470D01*
X0096065Y0089428D01*
X0095978Y0089381D01*
X0095894Y0089332D01*
X0095811Y0089279D01*
X0095731Y0089223D01*
X0095652Y0089163D01*
X0095576Y0089101D01*
X0095503Y0089036D01*
X0095432Y0088968D01*
X0095364Y0088897D01*
X0095299Y0088824D01*
X0095237Y0088748D01*
X0095177Y0088669D01*
X0095121Y0088589D01*
X0095068Y0088506D01*
X0095019Y0088422D01*
X0094972Y0088335D01*
X0094930Y0088247D01*
X0094890Y0088157D01*
X0094855Y0088065D01*
X0094822Y0087973D01*
X0094794Y0087879D01*
X0094769Y0087784D01*
X0094748Y0087688D01*
X0094731Y0087591D01*
X0094717Y0087494D01*
X0094708Y0087396D01*
X0094702Y0087298D01*
X0094700Y0087200D01*
X0094700Y0079700D01*
X0094698Y0079602D01*
X0094692Y0079504D01*
X0094683Y0079406D01*
X0094669Y0079309D01*
X0094652Y0079212D01*
X0094631Y0079116D01*
X0094606Y0079021D01*
X0094578Y0078927D01*
X0094545Y0078835D01*
X0094510Y0078743D01*
X0094470Y0078653D01*
X0094428Y0078565D01*
X0094381Y0078478D01*
X0094332Y0078394D01*
X0094279Y0078311D01*
X0094223Y0078231D01*
X0094163Y0078152D01*
X0094101Y0078076D01*
X0094036Y0078003D01*
X0093968Y0077932D01*
X0093897Y0077864D01*
X0093824Y0077799D01*
X0093748Y0077737D01*
X0093669Y0077677D01*
X0093589Y0077621D01*
X0093506Y0077568D01*
X0093422Y0077519D01*
X0093335Y0077472D01*
X0093247Y0077430D01*
X0093157Y0077390D01*
X0093065Y0077355D01*
X0092973Y0077322D01*
X0092879Y0077294D01*
X0092784Y0077269D01*
X0092688Y0077248D01*
X0092591Y0077231D01*
X0092494Y0077217D01*
X0092396Y0077208D01*
X0092298Y0077202D01*
X0092200Y0077200D01*
X0092102Y0077202D01*
X0092004Y0077208D01*
X0091906Y0077217D01*
X0091809Y0077231D01*
X0091712Y0077248D01*
X0091616Y0077269D01*
X0091521Y0077294D01*
X0091427Y0077322D01*
X0091335Y0077355D01*
X0091243Y0077390D01*
X0091153Y0077430D01*
X0091065Y0077472D01*
X0090978Y0077519D01*
X0090894Y0077568D01*
X0090811Y0077621D01*
X0090731Y0077677D01*
X0090652Y0077737D01*
X0090576Y0077799D01*
X0090503Y0077864D01*
X0090432Y0077932D01*
X0090364Y0078003D01*
X0090299Y0078076D01*
X0090237Y0078152D01*
X0090177Y0078231D01*
X0090121Y0078311D01*
X0090068Y0078394D01*
X0090019Y0078478D01*
X0089972Y0078565D01*
X0089930Y0078653D01*
X0089890Y0078743D01*
X0089855Y0078835D01*
X0089822Y0078927D01*
X0089794Y0079021D01*
X0089769Y0079116D01*
X0089748Y0079212D01*
X0089731Y0079309D01*
X0089717Y0079406D01*
X0089708Y0079504D01*
X0089702Y0079602D01*
X0089700Y0079700D01*
X0084700Y0077200D02*
X0084700Y0092200D01*
X0084702Y0092340D01*
X0084708Y0092480D01*
X0084718Y0092620D01*
X0084731Y0092760D01*
X0084749Y0092899D01*
X0084771Y0093038D01*
X0084796Y0093175D01*
X0084825Y0093313D01*
X0084858Y0093449D01*
X0084895Y0093584D01*
X0084936Y0093718D01*
X0084981Y0093851D01*
X0085029Y0093983D01*
X0085081Y0094113D01*
X0085136Y0094242D01*
X0085195Y0094369D01*
X0085258Y0094495D01*
X0085324Y0094619D01*
X0085393Y0094740D01*
X0085466Y0094860D01*
X0085543Y0094978D01*
X0085622Y0095093D01*
X0085705Y0095207D01*
X0085791Y0095317D01*
X0085880Y0095426D01*
X0085972Y0095532D01*
X0086067Y0095635D01*
X0086164Y0095736D01*
X0086265Y0095833D01*
X0086368Y0095928D01*
X0086474Y0096020D01*
X0086583Y0096109D01*
X0086693Y0096195D01*
X0086807Y0096278D01*
X0086922Y0096357D01*
X0087040Y0096434D01*
X0087160Y0096507D01*
X0087281Y0096576D01*
X0087405Y0096642D01*
X0087531Y0096705D01*
X0087658Y0096764D01*
X0087787Y0096819D01*
X0087917Y0096871D01*
X0088049Y0096919D01*
X0088182Y0096964D01*
X0088316Y0097005D01*
X0088451Y0097042D01*
X0088587Y0097075D01*
X0088725Y0097104D01*
X0088862Y0097129D01*
X0089001Y0097151D01*
X0089140Y0097169D01*
X0089280Y0097182D01*
X0089420Y0097192D01*
X0089560Y0097198D01*
X0089700Y0097200D01*
X0089700Y0117200D02*
X0089702Y0117298D01*
X0089708Y0117396D01*
X0089717Y0117494D01*
X0089731Y0117591D01*
X0089748Y0117688D01*
X0089769Y0117784D01*
X0089794Y0117879D01*
X0089822Y0117973D01*
X0089855Y0118065D01*
X0089890Y0118157D01*
X0089930Y0118247D01*
X0089972Y0118335D01*
X0090019Y0118422D01*
X0090068Y0118506D01*
X0090121Y0118589D01*
X0090177Y0118669D01*
X0090237Y0118748D01*
X0090299Y0118824D01*
X0090364Y0118897D01*
X0090432Y0118968D01*
X0090503Y0119036D01*
X0090576Y0119101D01*
X0090652Y0119163D01*
X0090731Y0119223D01*
X0090811Y0119279D01*
X0090894Y0119332D01*
X0090978Y0119381D01*
X0091065Y0119428D01*
X0091153Y0119470D01*
X0091243Y0119510D01*
X0091335Y0119545D01*
X0091427Y0119578D01*
X0091521Y0119606D01*
X0091616Y0119631D01*
X0091712Y0119652D01*
X0091809Y0119669D01*
X0091906Y0119683D01*
X0092004Y0119692D01*
X0092102Y0119698D01*
X0092200Y0119700D01*
X0107200Y0152200D02*
X0167200Y0152200D01*
X0167200Y0072200D01*
X0107200Y0072200D01*
X0107200Y0152200D01*
X0174700Y0119700D02*
X0174700Y0109700D01*
X0174702Y0109602D01*
X0174708Y0109504D01*
X0174717Y0109406D01*
X0174731Y0109309D01*
X0174748Y0109212D01*
X0174769Y0109116D01*
X0174794Y0109021D01*
X0174822Y0108927D01*
X0174855Y0108835D01*
X0174890Y0108743D01*
X0174930Y0108653D01*
X0174972Y0108565D01*
X0175019Y0108478D01*
X0175068Y0108394D01*
X0175121Y0108311D01*
X0175177Y0108231D01*
X0175237Y0108152D01*
X0175299Y0108076D01*
X0175364Y0108003D01*
X0175432Y0107932D01*
X0175503Y0107864D01*
X0175576Y0107799D01*
X0175652Y0107737D01*
X0175731Y0107677D01*
X0175811Y0107621D01*
X0175894Y0107568D01*
X0175978Y0107519D01*
X0176065Y0107472D01*
X0176153Y0107430D01*
X0176243Y0107390D01*
X0176335Y0107355D01*
X0176427Y0107322D01*
X0176521Y0107294D01*
X0176616Y0107269D01*
X0176712Y0107248D01*
X0176809Y0107231D01*
X0176906Y0107217D01*
X0177004Y0107208D01*
X0177102Y0107202D01*
X0177200Y0107200D01*
X0177298Y0107202D01*
X0177396Y0107208D01*
X0177494Y0107217D01*
X0177591Y0107231D01*
X0177688Y0107248D01*
X0177784Y0107269D01*
X0177879Y0107294D01*
X0177973Y0107322D01*
X0178065Y0107355D01*
X0178157Y0107390D01*
X0178247Y0107430D01*
X0178335Y0107472D01*
X0178422Y0107519D01*
X0178506Y0107568D01*
X0178589Y0107621D01*
X0178669Y0107677D01*
X0178748Y0107737D01*
X0178824Y0107799D01*
X0178897Y0107864D01*
X0178968Y0107932D01*
X0179036Y0108003D01*
X0179101Y0108076D01*
X0179163Y0108152D01*
X0179223Y0108231D01*
X0179279Y0108311D01*
X0179332Y0108394D01*
X0179381Y0108478D01*
X0179428Y0108565D01*
X0179470Y0108653D01*
X0179510Y0108743D01*
X0179545Y0108835D01*
X0179578Y0108927D01*
X0179606Y0109021D01*
X0179631Y0109116D01*
X0179652Y0109212D01*
X0179669Y0109309D01*
X0179683Y0109406D01*
X0179692Y0109504D01*
X0179698Y0109602D01*
X0179700Y0109700D01*
X0179700Y0117200D01*
X0174700Y0119700D02*
X0174702Y0119840D01*
X0174708Y0119980D01*
X0174718Y0120120D01*
X0174731Y0120260D01*
X0174749Y0120399D01*
X0174771Y0120538D01*
X0174796Y0120675D01*
X0174825Y0120813D01*
X0174858Y0120949D01*
X0174895Y0121084D01*
X0174936Y0121218D01*
X0174981Y0121351D01*
X0175029Y0121483D01*
X0175081Y0121613D01*
X0175136Y0121742D01*
X0175195Y0121869D01*
X0175258Y0121995D01*
X0175324Y0122119D01*
X0175393Y0122240D01*
X0175466Y0122360D01*
X0175543Y0122478D01*
X0175622Y0122593D01*
X0175705Y0122707D01*
X0175791Y0122817D01*
X0175880Y0122926D01*
X0175972Y0123032D01*
X0176067Y0123135D01*
X0176164Y0123236D01*
X0176265Y0123333D01*
X0176368Y0123428D01*
X0176474Y0123520D01*
X0176583Y0123609D01*
X0176693Y0123695D01*
X0176807Y0123778D01*
X0176922Y0123857D01*
X0177040Y0123934D01*
X0177160Y0124007D01*
X0177281Y0124076D01*
X0177405Y0124142D01*
X0177531Y0124205D01*
X0177658Y0124264D01*
X0177787Y0124319D01*
X0177917Y0124371D01*
X0178049Y0124419D01*
X0178182Y0124464D01*
X0178316Y0124505D01*
X0178451Y0124542D01*
X0178587Y0124575D01*
X0178725Y0124604D01*
X0178862Y0124629D01*
X0179001Y0124651D01*
X0179140Y0124669D01*
X0179280Y0124682D01*
X0179420Y0124692D01*
X0179560Y0124698D01*
X0179700Y0124700D01*
X0184700Y0124700D01*
X0184700Y0127200D02*
X0177200Y0127200D01*
X0177102Y0127202D01*
X0177004Y0127208D01*
X0176906Y0127217D01*
X0176809Y0127231D01*
X0176712Y0127248D01*
X0176616Y0127269D01*
X0176521Y0127294D01*
X0176427Y0127322D01*
X0176335Y0127355D01*
X0176243Y0127390D01*
X0176153Y0127430D01*
X0176065Y0127472D01*
X0175978Y0127519D01*
X0175894Y0127568D01*
X0175811Y0127621D01*
X0175731Y0127677D01*
X0175652Y0127737D01*
X0175576Y0127799D01*
X0175503Y0127864D01*
X0175432Y0127932D01*
X0175364Y0128003D01*
X0175299Y0128076D01*
X0175237Y0128152D01*
X0175177Y0128231D01*
X0175121Y0128311D01*
X0175068Y0128394D01*
X0175019Y0128478D01*
X0174972Y0128565D01*
X0174930Y0128653D01*
X0174890Y0128743D01*
X0174855Y0128835D01*
X0174822Y0128927D01*
X0174794Y0129021D01*
X0174769Y0129116D01*
X0174748Y0129212D01*
X0174731Y0129309D01*
X0174717Y0129406D01*
X0174708Y0129504D01*
X0174702Y0129602D01*
X0174700Y0129700D01*
X0174702Y0129798D01*
X0174708Y0129896D01*
X0174717Y0129994D01*
X0174731Y0130091D01*
X0174748Y0130188D01*
X0174769Y0130284D01*
X0174794Y0130379D01*
X0174822Y0130473D01*
X0174855Y0130565D01*
X0174890Y0130657D01*
X0174930Y0130747D01*
X0174972Y0130835D01*
X0175019Y0130922D01*
X0175068Y0131006D01*
X0175121Y0131089D01*
X0175177Y0131169D01*
X0175237Y0131248D01*
X0175299Y0131324D01*
X0175364Y0131397D01*
X0175432Y0131468D01*
X0175503Y0131536D01*
X0175576Y0131601D01*
X0175652Y0131663D01*
X0175731Y0131723D01*
X0175811Y0131779D01*
X0175894Y0131832D01*
X0175978Y0131881D01*
X0176065Y0131928D01*
X0176153Y0131970D01*
X0176243Y0132010D01*
X0176335Y0132045D01*
X0176427Y0132078D01*
X0176521Y0132106D01*
X0176616Y0132131D01*
X0176712Y0132152D01*
X0176809Y0132169D01*
X0176906Y0132183D01*
X0177004Y0132192D01*
X0177102Y0132198D01*
X0177200Y0132200D01*
X0182200Y0132200D01*
X0182298Y0132202D01*
X0182396Y0132208D01*
X0182494Y0132217D01*
X0182591Y0132231D01*
X0182688Y0132248D01*
X0182784Y0132269D01*
X0182879Y0132294D01*
X0182973Y0132322D01*
X0183065Y0132355D01*
X0183157Y0132390D01*
X0183247Y0132430D01*
X0183335Y0132472D01*
X0183422Y0132519D01*
X0183506Y0132568D01*
X0183589Y0132621D01*
X0183669Y0132677D01*
X0183748Y0132737D01*
X0183824Y0132799D01*
X0183897Y0132864D01*
X0183968Y0132932D01*
X0184036Y0133003D01*
X0184101Y0133076D01*
X0184163Y0133152D01*
X0184223Y0133231D01*
X0184279Y0133311D01*
X0184332Y0133394D01*
X0184381Y0133478D01*
X0184428Y0133565D01*
X0184470Y0133653D01*
X0184510Y0133743D01*
X0184545Y0133835D01*
X0184578Y0133927D01*
X0184606Y0134021D01*
X0184631Y0134116D01*
X0184652Y0134212D01*
X0184669Y0134309D01*
X0184683Y0134406D01*
X0184692Y0134504D01*
X0184698Y0134602D01*
X0184700Y0134700D01*
X0184700Y0137200D01*
X0179700Y0137200D01*
X0179602Y0137202D01*
X0179504Y0137208D01*
X0179406Y0137217D01*
X0179309Y0137231D01*
X0179212Y0137248D01*
X0179116Y0137269D01*
X0179021Y0137294D01*
X0178927Y0137322D01*
X0178835Y0137355D01*
X0178743Y0137390D01*
X0178653Y0137430D01*
X0178565Y0137472D01*
X0178478Y0137519D01*
X0178394Y0137568D01*
X0178311Y0137621D01*
X0178231Y0137677D01*
X0178152Y0137737D01*
X0178076Y0137799D01*
X0178003Y0137864D01*
X0177932Y0137932D01*
X0177864Y0138003D01*
X0177799Y0138076D01*
X0177737Y0138152D01*
X0177677Y0138231D01*
X0177621Y0138311D01*
X0177568Y0138394D01*
X0177519Y0138478D01*
X0177472Y0138565D01*
X0177430Y0138653D01*
X0177390Y0138743D01*
X0177355Y0138835D01*
X0177322Y0138927D01*
X0177294Y0139021D01*
X0177269Y0139116D01*
X0177248Y0139212D01*
X0177231Y0139309D01*
X0177217Y0139406D01*
X0177208Y0139504D01*
X0177202Y0139602D01*
X0177200Y0139700D01*
X0177202Y0139798D01*
X0177208Y0139896D01*
X0177217Y0139994D01*
X0177231Y0140091D01*
X0177248Y0140188D01*
X0177269Y0140284D01*
X0177294Y0140379D01*
X0177322Y0140473D01*
X0177355Y0140565D01*
X0177390Y0140657D01*
X0177430Y0140747D01*
X0177472Y0140835D01*
X0177519Y0140922D01*
X0177568Y0141006D01*
X0177621Y0141089D01*
X0177677Y0141169D01*
X0177737Y0141248D01*
X0177799Y0141324D01*
X0177864Y0141397D01*
X0177932Y0141468D01*
X0178003Y0141536D01*
X0178076Y0141601D01*
X0178152Y0141663D01*
X0178231Y0141723D01*
X0178311Y0141779D01*
X0178394Y0141832D01*
X0178478Y0141881D01*
X0178565Y0141928D01*
X0178653Y0141970D01*
X0178743Y0142010D01*
X0178835Y0142045D01*
X0178927Y0142078D01*
X0179021Y0142106D01*
X0179116Y0142131D01*
X0179212Y0142152D01*
X0179309Y0142169D01*
X0179406Y0142183D01*
X0179504Y0142192D01*
X0179602Y0142198D01*
X0179700Y0142200D01*
X0184700Y0142200D01*
X0184700Y0144700D01*
X0189700Y0147200D02*
X0189698Y0147340D01*
X0189692Y0147480D01*
X0189682Y0147620D01*
X0189669Y0147760D01*
X0189651Y0147899D01*
X0189629Y0148038D01*
X0189604Y0148175D01*
X0189575Y0148313D01*
X0189542Y0148449D01*
X0189505Y0148584D01*
X0189464Y0148718D01*
X0189419Y0148851D01*
X0189371Y0148983D01*
X0189319Y0149113D01*
X0189264Y0149242D01*
X0189205Y0149369D01*
X0189142Y0149495D01*
X0189076Y0149619D01*
X0189007Y0149740D01*
X0188934Y0149860D01*
X0188857Y0149978D01*
X0188778Y0150093D01*
X0188695Y0150207D01*
X0188609Y0150317D01*
X0188520Y0150426D01*
X0188428Y0150532D01*
X0188333Y0150635D01*
X0188236Y0150736D01*
X0188135Y0150833D01*
X0188032Y0150928D01*
X0187926Y0151020D01*
X0187817Y0151109D01*
X0187707Y0151195D01*
X0187593Y0151278D01*
X0187478Y0151357D01*
X0187360Y0151434D01*
X0187240Y0151507D01*
X0187119Y0151576D01*
X0186995Y0151642D01*
X0186869Y0151705D01*
X0186742Y0151764D01*
X0186613Y0151819D01*
X0186483Y0151871D01*
X0186351Y0151919D01*
X0186218Y0151964D01*
X0186084Y0152005D01*
X0185949Y0152042D01*
X0185813Y0152075D01*
X0185675Y0152104D01*
X0185538Y0152129D01*
X0185399Y0152151D01*
X0185260Y0152169D01*
X0185120Y0152182D01*
X0184980Y0152192D01*
X0184840Y0152198D01*
X0184700Y0152200D01*
X0177200Y0152200D01*
X0177102Y0152198D01*
X0177004Y0152192D01*
X0176906Y0152183D01*
X0176809Y0152169D01*
X0176712Y0152152D01*
X0176616Y0152131D01*
X0176521Y0152106D01*
X0176427Y0152078D01*
X0176335Y0152045D01*
X0176243Y0152010D01*
X0176153Y0151970D01*
X0176065Y0151928D01*
X0175978Y0151881D01*
X0175894Y0151832D01*
X0175811Y0151779D01*
X0175731Y0151723D01*
X0175652Y0151663D01*
X0175576Y0151601D01*
X0175503Y0151536D01*
X0175432Y0151468D01*
X0175364Y0151397D01*
X0175299Y0151324D01*
X0175237Y0151248D01*
X0175177Y0151169D01*
X0175121Y0151089D01*
X0175068Y0151006D01*
X0175019Y0150922D01*
X0174972Y0150835D01*
X0174930Y0150747D01*
X0174890Y0150657D01*
X0174855Y0150565D01*
X0174822Y0150473D01*
X0174794Y0150379D01*
X0174769Y0150284D01*
X0174748Y0150188D01*
X0174731Y0150091D01*
X0174717Y0149994D01*
X0174708Y0149896D01*
X0174702Y0149798D01*
X0174700Y0149700D01*
X0174702Y0149602D01*
X0174708Y0149504D01*
X0174717Y0149406D01*
X0174731Y0149309D01*
X0174748Y0149212D01*
X0174769Y0149116D01*
X0174794Y0149021D01*
X0174822Y0148927D01*
X0174855Y0148835D01*
X0174890Y0148743D01*
X0174930Y0148653D01*
X0174972Y0148565D01*
X0175019Y0148478D01*
X0175068Y0148394D01*
X0175121Y0148311D01*
X0175177Y0148231D01*
X0175237Y0148152D01*
X0175299Y0148076D01*
X0175364Y0148003D01*
X0175432Y0147932D01*
X0175503Y0147864D01*
X0175576Y0147799D01*
X0175652Y0147737D01*
X0175731Y0147677D01*
X0175811Y0147621D01*
X0175894Y0147568D01*
X0175978Y0147519D01*
X0176065Y0147472D01*
X0176153Y0147430D01*
X0176243Y0147390D01*
X0176335Y0147355D01*
X0176427Y0147322D01*
X0176521Y0147294D01*
X0176616Y0147269D01*
X0176712Y0147248D01*
X0176809Y0147231D01*
X0176906Y0147217D01*
X0177004Y0147208D01*
X0177102Y0147202D01*
X0177200Y0147200D01*
X0182200Y0147200D01*
X0182298Y0147198D01*
X0182396Y0147192D01*
X0182494Y0147183D01*
X0182591Y0147169D01*
X0182688Y0147152D01*
X0182784Y0147131D01*
X0182879Y0147106D01*
X0182973Y0147078D01*
X0183065Y0147045D01*
X0183157Y0147010D01*
X0183247Y0146970D01*
X0183335Y0146928D01*
X0183422Y0146881D01*
X0183506Y0146832D01*
X0183589Y0146779D01*
X0183669Y0146723D01*
X0183748Y0146663D01*
X0183824Y0146601D01*
X0183897Y0146536D01*
X0183968Y0146468D01*
X0184036Y0146397D01*
X0184101Y0146324D01*
X0184163Y0146248D01*
X0184223Y0146169D01*
X0184279Y0146089D01*
X0184332Y0146006D01*
X0184381Y0145922D01*
X0184428Y0145835D01*
X0184470Y0145747D01*
X0184510Y0145657D01*
X0184545Y0145565D01*
X0184578Y0145473D01*
X0184606Y0145379D01*
X0184631Y0145284D01*
X0184652Y0145188D01*
X0184669Y0145091D01*
X0184683Y0144994D01*
X0184692Y0144896D01*
X0184698Y0144798D01*
X0184700Y0144700D01*
X0189700Y0147200D02*
X0189700Y0132200D01*
X0189698Y0132060D01*
X0189692Y0131920D01*
X0189682Y0131780D01*
X0189669Y0131640D01*
X0189651Y0131501D01*
X0189629Y0131362D01*
X0189604Y0131225D01*
X0189575Y0131087D01*
X0189542Y0130951D01*
X0189505Y0130816D01*
X0189464Y0130682D01*
X0189419Y0130549D01*
X0189371Y0130417D01*
X0189319Y0130287D01*
X0189264Y0130158D01*
X0189205Y0130031D01*
X0189142Y0129905D01*
X0189076Y0129781D01*
X0189007Y0129660D01*
X0188934Y0129540D01*
X0188857Y0129422D01*
X0188778Y0129307D01*
X0188695Y0129193D01*
X0188609Y0129083D01*
X0188520Y0128974D01*
X0188428Y0128868D01*
X0188333Y0128765D01*
X0188236Y0128664D01*
X0188135Y0128567D01*
X0188032Y0128472D01*
X0187926Y0128380D01*
X0187817Y0128291D01*
X0187707Y0128205D01*
X0187593Y0128122D01*
X0187478Y0128043D01*
X0187360Y0127966D01*
X0187240Y0127893D01*
X0187119Y0127824D01*
X0186995Y0127758D01*
X0186869Y0127695D01*
X0186742Y0127636D01*
X0186613Y0127581D01*
X0186483Y0127529D01*
X0186351Y0127481D01*
X0186218Y0127436D01*
X0186084Y0127395D01*
X0185949Y0127358D01*
X0185813Y0127325D01*
X0185675Y0127296D01*
X0185538Y0127271D01*
X0185399Y0127249D01*
X0185260Y0127231D01*
X0185120Y0127218D01*
X0184980Y0127208D01*
X0184840Y0127202D01*
X0184700Y0127200D01*
X0184700Y0124700D02*
X0184840Y0124698D01*
X0184980Y0124692D01*
X0185120Y0124682D01*
X0185260Y0124669D01*
X0185399Y0124651D01*
X0185538Y0124629D01*
X0185675Y0124604D01*
X0185813Y0124575D01*
X0185949Y0124542D01*
X0186084Y0124505D01*
X0186218Y0124464D01*
X0186351Y0124419D01*
X0186483Y0124371D01*
X0186613Y0124319D01*
X0186742Y0124264D01*
X0186869Y0124205D01*
X0186995Y0124142D01*
X0187119Y0124076D01*
X0187240Y0124007D01*
X0187360Y0123934D01*
X0187478Y0123857D01*
X0187593Y0123778D01*
X0187707Y0123695D01*
X0187817Y0123609D01*
X0187926Y0123520D01*
X0188032Y0123428D01*
X0188135Y0123333D01*
X0188236Y0123236D01*
X0188333Y0123135D01*
X0188428Y0123032D01*
X0188520Y0122926D01*
X0188609Y0122817D01*
X0188695Y0122707D01*
X0188778Y0122593D01*
X0188857Y0122478D01*
X0188934Y0122360D01*
X0189007Y0122240D01*
X0189076Y0122119D01*
X0189142Y0121995D01*
X0189205Y0121869D01*
X0189264Y0121742D01*
X0189319Y0121613D01*
X0189371Y0121483D01*
X0189419Y0121351D01*
X0189464Y0121218D01*
X0189505Y0121084D01*
X0189542Y0120949D01*
X0189575Y0120813D01*
X0189604Y0120675D01*
X0189629Y0120538D01*
X0189651Y0120399D01*
X0189669Y0120260D01*
X0189682Y0120120D01*
X0189692Y0119980D01*
X0189698Y0119840D01*
X0189700Y0119700D01*
X0189700Y0104700D01*
X0189698Y0104560D01*
X0189692Y0104420D01*
X0189682Y0104280D01*
X0189669Y0104140D01*
X0189651Y0104001D01*
X0189629Y0103862D01*
X0189604Y0103725D01*
X0189575Y0103587D01*
X0189542Y0103451D01*
X0189505Y0103316D01*
X0189464Y0103182D01*
X0189419Y0103049D01*
X0189371Y0102917D01*
X0189319Y0102787D01*
X0189264Y0102658D01*
X0189205Y0102531D01*
X0189142Y0102405D01*
X0189076Y0102281D01*
X0189007Y0102160D01*
X0188934Y0102040D01*
X0188857Y0101922D01*
X0188778Y0101807D01*
X0188695Y0101693D01*
X0188609Y0101583D01*
X0188520Y0101474D01*
X0188428Y0101368D01*
X0188333Y0101265D01*
X0188236Y0101164D01*
X0188135Y0101067D01*
X0188032Y0100972D01*
X0187926Y0100880D01*
X0187817Y0100791D01*
X0187707Y0100705D01*
X0187593Y0100622D01*
X0187478Y0100543D01*
X0187360Y0100466D01*
X0187240Y0100393D01*
X0187119Y0100324D01*
X0186995Y0100258D01*
X0186869Y0100195D01*
X0186742Y0100136D01*
X0186613Y0100081D01*
X0186483Y0100029D01*
X0186351Y0099981D01*
X0186218Y0099936D01*
X0186084Y0099895D01*
X0185949Y0099858D01*
X0185813Y0099825D01*
X0185675Y0099796D01*
X0185538Y0099771D01*
X0185399Y0099749D01*
X0185260Y0099731D01*
X0185120Y0099718D01*
X0184980Y0099708D01*
X0184840Y0099702D01*
X0184700Y0099700D01*
X0172200Y0099700D01*
X0172102Y0099702D01*
X0172004Y0099708D01*
X0171906Y0099717D01*
X0171809Y0099731D01*
X0171712Y0099748D01*
X0171616Y0099769D01*
X0171521Y0099794D01*
X0171427Y0099822D01*
X0171335Y0099855D01*
X0171243Y0099890D01*
X0171153Y0099930D01*
X0171065Y0099972D01*
X0170978Y0100019D01*
X0170894Y0100068D01*
X0170811Y0100121D01*
X0170731Y0100177D01*
X0170652Y0100237D01*
X0170576Y0100299D01*
X0170503Y0100364D01*
X0170432Y0100432D01*
X0170364Y0100503D01*
X0170299Y0100576D01*
X0170237Y0100652D01*
X0170177Y0100731D01*
X0170121Y0100811D01*
X0170068Y0100894D01*
X0170019Y0100978D01*
X0169972Y0101065D01*
X0169930Y0101153D01*
X0169890Y0101243D01*
X0169855Y0101335D01*
X0169822Y0101427D01*
X0169794Y0101521D01*
X0169769Y0101616D01*
X0169748Y0101712D01*
X0169731Y0101809D01*
X0169717Y0101906D01*
X0169708Y0102004D01*
X0169702Y0102102D01*
X0169700Y0102200D01*
X0169702Y0102298D01*
X0169708Y0102396D01*
X0169717Y0102494D01*
X0169731Y0102591D01*
X0169748Y0102688D01*
X0169769Y0102784D01*
X0169794Y0102879D01*
X0169822Y0102973D01*
X0169855Y0103065D01*
X0169890Y0103157D01*
X0169930Y0103247D01*
X0169972Y0103335D01*
X0170019Y0103422D01*
X0170068Y0103506D01*
X0170121Y0103589D01*
X0170177Y0103669D01*
X0170237Y0103748D01*
X0170299Y0103824D01*
X0170364Y0103897D01*
X0170432Y0103968D01*
X0170503Y0104036D01*
X0170576Y0104101D01*
X0170652Y0104163D01*
X0170731Y0104223D01*
X0170811Y0104279D01*
X0170894Y0104332D01*
X0170978Y0104381D01*
X0171065Y0104428D01*
X0171153Y0104470D01*
X0171243Y0104510D01*
X0171335Y0104545D01*
X0171427Y0104578D01*
X0171521Y0104606D01*
X0171616Y0104631D01*
X0171712Y0104652D01*
X0171809Y0104669D01*
X0171906Y0104683D01*
X0172004Y0104692D01*
X0172102Y0104698D01*
X0172200Y0104700D01*
X0182200Y0104700D01*
X0182298Y0104702D01*
X0182396Y0104708D01*
X0182494Y0104717D01*
X0182591Y0104731D01*
X0182688Y0104748D01*
X0182784Y0104769D01*
X0182879Y0104794D01*
X0182973Y0104822D01*
X0183065Y0104855D01*
X0183157Y0104890D01*
X0183247Y0104930D01*
X0183335Y0104972D01*
X0183422Y0105019D01*
X0183506Y0105068D01*
X0183589Y0105121D01*
X0183669Y0105177D01*
X0183748Y0105237D01*
X0183824Y0105299D01*
X0183897Y0105364D01*
X0183968Y0105432D01*
X0184036Y0105503D01*
X0184101Y0105576D01*
X0184163Y0105652D01*
X0184223Y0105731D01*
X0184279Y0105811D01*
X0184332Y0105894D01*
X0184381Y0105978D01*
X0184428Y0106065D01*
X0184470Y0106153D01*
X0184510Y0106243D01*
X0184545Y0106335D01*
X0184578Y0106427D01*
X0184606Y0106521D01*
X0184631Y0106616D01*
X0184652Y0106712D01*
X0184669Y0106809D01*
X0184683Y0106906D01*
X0184692Y0107004D01*
X0184698Y0107102D01*
X0184700Y0107200D01*
X0184700Y0117200D01*
X0184698Y0117298D01*
X0184692Y0117396D01*
X0184683Y0117494D01*
X0184669Y0117591D01*
X0184652Y0117688D01*
X0184631Y0117784D01*
X0184606Y0117879D01*
X0184578Y0117973D01*
X0184545Y0118065D01*
X0184510Y0118157D01*
X0184470Y0118247D01*
X0184428Y0118335D01*
X0184381Y0118422D01*
X0184332Y0118506D01*
X0184279Y0118589D01*
X0184223Y0118669D01*
X0184163Y0118748D01*
X0184101Y0118824D01*
X0184036Y0118897D01*
X0183968Y0118968D01*
X0183897Y0119036D01*
X0183824Y0119101D01*
X0183748Y0119163D01*
X0183669Y0119223D01*
X0183589Y0119279D01*
X0183506Y0119332D01*
X0183422Y0119381D01*
X0183335Y0119428D01*
X0183247Y0119470D01*
X0183157Y0119510D01*
X0183065Y0119545D01*
X0182973Y0119578D01*
X0182879Y0119606D01*
X0182784Y0119631D01*
X0182688Y0119652D01*
X0182591Y0119669D01*
X0182494Y0119683D01*
X0182396Y0119692D01*
X0182298Y0119698D01*
X0182200Y0119700D01*
X0182102Y0119698D01*
X0182004Y0119692D01*
X0181906Y0119683D01*
X0181809Y0119669D01*
X0181712Y0119652D01*
X0181616Y0119631D01*
X0181521Y0119606D01*
X0181427Y0119578D01*
X0181335Y0119545D01*
X0181243Y0119510D01*
X0181153Y0119470D01*
X0181065Y0119428D01*
X0180978Y0119381D01*
X0180894Y0119332D01*
X0180811Y0119279D01*
X0180731Y0119223D01*
X0180652Y0119163D01*
X0180576Y0119101D01*
X0180503Y0119036D01*
X0180432Y0118968D01*
X0180364Y0118897D01*
X0180299Y0118824D01*
X0180237Y0118748D01*
X0180177Y0118669D01*
X0180121Y0118589D01*
X0180068Y0118506D01*
X0180019Y0118422D01*
X0179972Y0118335D01*
X0179930Y0118247D01*
X0179890Y0118157D01*
X0179855Y0118065D01*
X0179822Y0117973D01*
X0179794Y0117879D01*
X0179769Y0117784D01*
X0179748Y0117688D01*
X0179731Y0117591D01*
X0179717Y0117494D01*
X0179708Y0117396D01*
X0179702Y0117298D01*
X0179700Y0117200D01*
X0179700Y0097200D02*
X0187200Y0097200D01*
X0187298Y0097198D01*
X0187396Y0097192D01*
X0187494Y0097183D01*
X0187591Y0097169D01*
X0187688Y0097152D01*
X0187784Y0097131D01*
X0187879Y0097106D01*
X0187973Y0097078D01*
X0188065Y0097045D01*
X0188157Y0097010D01*
X0188247Y0096970D01*
X0188335Y0096928D01*
X0188422Y0096881D01*
X0188506Y0096832D01*
X0188589Y0096779D01*
X0188669Y0096723D01*
X0188748Y0096663D01*
X0188824Y0096601D01*
X0188897Y0096536D01*
X0188968Y0096468D01*
X0189036Y0096397D01*
X0189101Y0096324D01*
X0189163Y0096248D01*
X0189223Y0096169D01*
X0189279Y0096089D01*
X0189332Y0096006D01*
X0189381Y0095922D01*
X0189428Y0095835D01*
X0189470Y0095747D01*
X0189510Y0095657D01*
X0189545Y0095565D01*
X0189578Y0095473D01*
X0189606Y0095379D01*
X0189631Y0095284D01*
X0189652Y0095188D01*
X0189669Y0095091D01*
X0189683Y0094994D01*
X0189692Y0094896D01*
X0189698Y0094798D01*
X0189700Y0094700D01*
X0189698Y0094602D01*
X0189692Y0094504D01*
X0189683Y0094406D01*
X0189669Y0094309D01*
X0189652Y0094212D01*
X0189631Y0094116D01*
X0189606Y0094021D01*
X0189578Y0093927D01*
X0189545Y0093835D01*
X0189510Y0093743D01*
X0189470Y0093653D01*
X0189428Y0093565D01*
X0189381Y0093478D01*
X0189332Y0093394D01*
X0189279Y0093311D01*
X0189223Y0093231D01*
X0189163Y0093152D01*
X0189101Y0093076D01*
X0189036Y0093003D01*
X0188968Y0092932D01*
X0188897Y0092864D01*
X0188824Y0092799D01*
X0188748Y0092737D01*
X0188669Y0092677D01*
X0188589Y0092621D01*
X0188506Y0092568D01*
X0188422Y0092519D01*
X0188335Y0092472D01*
X0188247Y0092430D01*
X0188157Y0092390D01*
X0188065Y0092355D01*
X0187973Y0092322D01*
X0187879Y0092294D01*
X0187784Y0092269D01*
X0187688Y0092248D01*
X0187591Y0092231D01*
X0187494Y0092217D01*
X0187396Y0092208D01*
X0187298Y0092202D01*
X0187200Y0092200D01*
X0182200Y0092200D01*
X0182102Y0092198D01*
X0182004Y0092192D01*
X0181906Y0092183D01*
X0181809Y0092169D01*
X0181712Y0092152D01*
X0181616Y0092131D01*
X0181521Y0092106D01*
X0181427Y0092078D01*
X0181335Y0092045D01*
X0181243Y0092010D01*
X0181153Y0091970D01*
X0181065Y0091928D01*
X0180978Y0091881D01*
X0180894Y0091832D01*
X0180811Y0091779D01*
X0180731Y0091723D01*
X0180652Y0091663D01*
X0180576Y0091601D01*
X0180503Y0091536D01*
X0180432Y0091468D01*
X0180364Y0091397D01*
X0180299Y0091324D01*
X0180237Y0091248D01*
X0180177Y0091169D01*
X0180121Y0091089D01*
X0180068Y0091006D01*
X0180019Y0090922D01*
X0179972Y0090835D01*
X0179930Y0090747D01*
X0179890Y0090657D01*
X0179855Y0090565D01*
X0179822Y0090473D01*
X0179794Y0090379D01*
X0179769Y0090284D01*
X0179748Y0090188D01*
X0179731Y0090091D01*
X0179717Y0089994D01*
X0179708Y0089896D01*
X0179702Y0089798D01*
X0179700Y0089700D01*
X0179700Y0079700D01*
X0174700Y0077200D02*
X0174702Y0077060D01*
X0174708Y0076920D01*
X0174718Y0076780D01*
X0174731Y0076640D01*
X0174749Y0076501D01*
X0174771Y0076362D01*
X0174796Y0076225D01*
X0174825Y0076087D01*
X0174858Y0075951D01*
X0174895Y0075816D01*
X0174936Y0075682D01*
X0174981Y0075549D01*
X0175029Y0075417D01*
X0175081Y0075287D01*
X0175136Y0075158D01*
X0175195Y0075031D01*
X0175258Y0074905D01*
X0175324Y0074781D01*
X0175393Y0074660D01*
X0175466Y0074540D01*
X0175543Y0074422D01*
X0175622Y0074307D01*
X0175705Y0074193D01*
X0175791Y0074083D01*
X0175880Y0073974D01*
X0175972Y0073868D01*
X0176067Y0073765D01*
X0176164Y0073664D01*
X0176265Y0073567D01*
X0176368Y0073472D01*
X0176474Y0073380D01*
X0176583Y0073291D01*
X0176693Y0073205D01*
X0176807Y0073122D01*
X0176922Y0073043D01*
X0177040Y0072966D01*
X0177160Y0072893D01*
X0177281Y0072824D01*
X0177405Y0072758D01*
X0177531Y0072695D01*
X0177658Y0072636D01*
X0177787Y0072581D01*
X0177917Y0072529D01*
X0178049Y0072481D01*
X0178182Y0072436D01*
X0178316Y0072395D01*
X0178451Y0072358D01*
X0178587Y0072325D01*
X0178725Y0072296D01*
X0178862Y0072271D01*
X0179001Y0072249D01*
X0179140Y0072231D01*
X0179280Y0072218D01*
X0179420Y0072208D01*
X0179560Y0072202D01*
X0179700Y0072200D01*
X0184700Y0072200D01*
X0184840Y0072202D01*
X0184980Y0072208D01*
X0185120Y0072218D01*
X0185260Y0072231D01*
X0185399Y0072249D01*
X0185538Y0072271D01*
X0185675Y0072296D01*
X0185813Y0072325D01*
X0185949Y0072358D01*
X0186084Y0072395D01*
X0186218Y0072436D01*
X0186351Y0072481D01*
X0186483Y0072529D01*
X0186613Y0072581D01*
X0186742Y0072636D01*
X0186869Y0072695D01*
X0186995Y0072758D01*
X0187119Y0072824D01*
X0187240Y0072893D01*
X0187360Y0072966D01*
X0187478Y0073043D01*
X0187593Y0073122D01*
X0187707Y0073205D01*
X0187817Y0073291D01*
X0187926Y0073380D01*
X0188032Y0073472D01*
X0188135Y0073567D01*
X0188236Y0073664D01*
X0188333Y0073765D01*
X0188428Y0073868D01*
X0188520Y0073974D01*
X0188609Y0074083D01*
X0188695Y0074193D01*
X0188778Y0074307D01*
X0188857Y0074422D01*
X0188934Y0074540D01*
X0189007Y0074660D01*
X0189076Y0074781D01*
X0189142Y0074905D01*
X0189205Y0075031D01*
X0189264Y0075158D01*
X0189319Y0075287D01*
X0189371Y0075417D01*
X0189419Y0075549D01*
X0189464Y0075682D01*
X0189505Y0075816D01*
X0189542Y0075951D01*
X0189575Y0076087D01*
X0189604Y0076225D01*
X0189629Y0076362D01*
X0189651Y0076501D01*
X0189669Y0076640D01*
X0189682Y0076780D01*
X0189692Y0076920D01*
X0189698Y0077060D01*
X0189700Y0077200D01*
X0189700Y0087200D01*
X0189698Y0087298D01*
X0189692Y0087396D01*
X0189683Y0087494D01*
X0189669Y0087591D01*
X0189652Y0087688D01*
X0189631Y0087784D01*
X0189606Y0087879D01*
X0189578Y0087973D01*
X0189545Y0088065D01*
X0189510Y0088157D01*
X0189470Y0088247D01*
X0189428Y0088335D01*
X0189381Y0088422D01*
X0189332Y0088506D01*
X0189279Y0088589D01*
X0189223Y0088669D01*
X0189163Y0088748D01*
X0189101Y0088824D01*
X0189036Y0088897D01*
X0188968Y0088968D01*
X0188897Y0089036D01*
X0188824Y0089101D01*
X0188748Y0089163D01*
X0188669Y0089223D01*
X0188589Y0089279D01*
X0188506Y0089332D01*
X0188422Y0089381D01*
X0188335Y0089428D01*
X0188247Y0089470D01*
X0188157Y0089510D01*
X0188065Y0089545D01*
X0187973Y0089578D01*
X0187879Y0089606D01*
X0187784Y0089631D01*
X0187688Y0089652D01*
X0187591Y0089669D01*
X0187494Y0089683D01*
X0187396Y0089692D01*
X0187298Y0089698D01*
X0187200Y0089700D01*
X0187102Y0089698D01*
X0187004Y0089692D01*
X0186906Y0089683D01*
X0186809Y0089669D01*
X0186712Y0089652D01*
X0186616Y0089631D01*
X0186521Y0089606D01*
X0186427Y0089578D01*
X0186335Y0089545D01*
X0186243Y0089510D01*
X0186153Y0089470D01*
X0186065Y0089428D01*
X0185978Y0089381D01*
X0185894Y0089332D01*
X0185811Y0089279D01*
X0185731Y0089223D01*
X0185652Y0089163D01*
X0185576Y0089101D01*
X0185503Y0089036D01*
X0185432Y0088968D01*
X0185364Y0088897D01*
X0185299Y0088824D01*
X0185237Y0088748D01*
X0185177Y0088669D01*
X0185121Y0088589D01*
X0185068Y0088506D01*
X0185019Y0088422D01*
X0184972Y0088335D01*
X0184930Y0088247D01*
X0184890Y0088157D01*
X0184855Y0088065D01*
X0184822Y0087973D01*
X0184794Y0087879D01*
X0184769Y0087784D01*
X0184748Y0087688D01*
X0184731Y0087591D01*
X0184717Y0087494D01*
X0184708Y0087396D01*
X0184702Y0087298D01*
X0184700Y0087200D01*
X0184700Y0079700D01*
X0184698Y0079602D01*
X0184692Y0079504D01*
X0184683Y0079406D01*
X0184669Y0079309D01*
X0184652Y0079212D01*
X0184631Y0079116D01*
X0184606Y0079021D01*
X0184578Y0078927D01*
X0184545Y0078835D01*
X0184510Y0078743D01*
X0184470Y0078653D01*
X0184428Y0078565D01*
X0184381Y0078478D01*
X0184332Y0078394D01*
X0184279Y0078311D01*
X0184223Y0078231D01*
X0184163Y0078152D01*
X0184101Y0078076D01*
X0184036Y0078003D01*
X0183968Y0077932D01*
X0183897Y0077864D01*
X0183824Y0077799D01*
X0183748Y0077737D01*
X0183669Y0077677D01*
X0183589Y0077621D01*
X0183506Y0077568D01*
X0183422Y0077519D01*
X0183335Y0077472D01*
X0183247Y0077430D01*
X0183157Y0077390D01*
X0183065Y0077355D01*
X0182973Y0077322D01*
X0182879Y0077294D01*
X0182784Y0077269D01*
X0182688Y0077248D01*
X0182591Y0077231D01*
X0182494Y0077217D01*
X0182396Y0077208D01*
X0182298Y0077202D01*
X0182200Y0077200D01*
X0182102Y0077202D01*
X0182004Y0077208D01*
X0181906Y0077217D01*
X0181809Y0077231D01*
X0181712Y0077248D01*
X0181616Y0077269D01*
X0181521Y0077294D01*
X0181427Y0077322D01*
X0181335Y0077355D01*
X0181243Y0077390D01*
X0181153Y0077430D01*
X0181065Y0077472D01*
X0180978Y0077519D01*
X0180894Y0077568D01*
X0180811Y0077621D01*
X0180731Y0077677D01*
X0180652Y0077737D01*
X0180576Y0077799D01*
X0180503Y0077864D01*
X0180432Y0077932D01*
X0180364Y0078003D01*
X0180299Y0078076D01*
X0180237Y0078152D01*
X0180177Y0078231D01*
X0180121Y0078311D01*
X0180068Y0078394D01*
X0180019Y0078478D01*
X0179972Y0078565D01*
X0179930Y0078653D01*
X0179890Y0078743D01*
X0179855Y0078835D01*
X0179822Y0078927D01*
X0179794Y0079021D01*
X0179769Y0079116D01*
X0179748Y0079212D01*
X0179731Y0079309D01*
X0179717Y0079406D01*
X0179708Y0079504D01*
X0179702Y0079602D01*
X0179700Y0079700D01*
X0174700Y0077200D02*
X0174700Y0092200D01*
X0174702Y0092340D01*
X0174708Y0092480D01*
X0174718Y0092620D01*
X0174731Y0092760D01*
X0174749Y0092899D01*
X0174771Y0093038D01*
X0174796Y0093175D01*
X0174825Y0093313D01*
X0174858Y0093449D01*
X0174895Y0093584D01*
X0174936Y0093718D01*
X0174981Y0093851D01*
X0175029Y0093983D01*
X0175081Y0094113D01*
X0175136Y0094242D01*
X0175195Y0094369D01*
X0175258Y0094495D01*
X0175324Y0094619D01*
X0175393Y0094740D01*
X0175466Y0094860D01*
X0175543Y0094978D01*
X0175622Y0095093D01*
X0175705Y0095207D01*
X0175791Y0095317D01*
X0175880Y0095426D01*
X0175972Y0095532D01*
X0176067Y0095635D01*
X0176164Y0095736D01*
X0176265Y0095833D01*
X0176368Y0095928D01*
X0176474Y0096020D01*
X0176583Y0096109D01*
X0176693Y0096195D01*
X0176807Y0096278D01*
X0176922Y0096357D01*
X0177040Y0096434D01*
X0177160Y0096507D01*
X0177281Y0096576D01*
X0177405Y0096642D01*
X0177531Y0096705D01*
X0177658Y0096764D01*
X0177787Y0096819D01*
X0177917Y0096871D01*
X0178049Y0096919D01*
X0178182Y0096964D01*
X0178316Y0097005D01*
X0178451Y0097042D01*
X0178587Y0097075D01*
X0178725Y0097104D01*
X0178862Y0097129D01*
X0179001Y0097151D01*
X0179140Y0097169D01*
X0179280Y0097182D01*
X0179420Y0097192D01*
X0179560Y0097198D01*
X0179700Y0097200D01*
X0197200Y0072200D02*
X0257200Y0072200D01*
X0257200Y0152200D01*
X0197200Y0152200D01*
X0197200Y0072200D01*
D16*
X0166609Y0199838D03*
X0166609Y0204562D03*
X0076609Y0204562D03*
X0076609Y0199838D03*
X0256609Y0199838D03*
X0256609Y0204562D03*
D17*
X0256609Y0202200D03*
X0166609Y0202200D03*
X0076609Y0202200D03*
D18*
X0083735Y0162200D02*
X0083738Y0162408D01*
X0083745Y0162615D01*
X0083758Y0162823D01*
X0083776Y0163030D01*
X0083799Y0163236D01*
X0083827Y0163442D01*
X0083860Y0163647D01*
X0083898Y0163851D01*
X0083941Y0164055D01*
X0083989Y0164257D01*
X0084042Y0164458D01*
X0084100Y0164657D01*
X0084162Y0164855D01*
X0084230Y0165052D01*
X0084302Y0165247D01*
X0084379Y0165439D01*
X0084461Y0165630D01*
X0084548Y0165819D01*
X0084639Y0166006D01*
X0084735Y0166190D01*
X0084835Y0166372D01*
X0084939Y0166552D01*
X0085048Y0166729D01*
X0085162Y0166903D01*
X0085279Y0167074D01*
X0085401Y0167243D01*
X0085527Y0167408D01*
X0085656Y0167570D01*
X0085790Y0167729D01*
X0085928Y0167885D01*
X0086069Y0168037D01*
X0086214Y0168186D01*
X0086363Y0168331D01*
X0086515Y0168472D01*
X0086671Y0168610D01*
X0086830Y0168744D01*
X0086992Y0168873D01*
X0087157Y0168999D01*
X0087326Y0169121D01*
X0087497Y0169238D01*
X0087671Y0169352D01*
X0087848Y0169461D01*
X0088028Y0169565D01*
X0088210Y0169665D01*
X0088394Y0169761D01*
X0088581Y0169852D01*
X0088770Y0169939D01*
X0088961Y0170021D01*
X0089153Y0170098D01*
X0089348Y0170170D01*
X0089545Y0170238D01*
X0089743Y0170300D01*
X0089942Y0170358D01*
X0090143Y0170411D01*
X0090345Y0170459D01*
X0090549Y0170502D01*
X0090753Y0170540D01*
X0090958Y0170573D01*
X0091164Y0170601D01*
X0091370Y0170624D01*
X0091577Y0170642D01*
X0091785Y0170655D01*
X0091992Y0170662D01*
X0092200Y0170665D01*
X0092408Y0170662D01*
X0092615Y0170655D01*
X0092823Y0170642D01*
X0093030Y0170624D01*
X0093236Y0170601D01*
X0093442Y0170573D01*
X0093647Y0170540D01*
X0093851Y0170502D01*
X0094055Y0170459D01*
X0094257Y0170411D01*
X0094458Y0170358D01*
X0094657Y0170300D01*
X0094855Y0170238D01*
X0095052Y0170170D01*
X0095247Y0170098D01*
X0095439Y0170021D01*
X0095630Y0169939D01*
X0095819Y0169852D01*
X0096006Y0169761D01*
X0096190Y0169665D01*
X0096372Y0169565D01*
X0096552Y0169461D01*
X0096729Y0169352D01*
X0096903Y0169238D01*
X0097074Y0169121D01*
X0097243Y0168999D01*
X0097408Y0168873D01*
X0097570Y0168744D01*
X0097729Y0168610D01*
X0097885Y0168472D01*
X0098037Y0168331D01*
X0098186Y0168186D01*
X0098331Y0168037D01*
X0098472Y0167885D01*
X0098610Y0167729D01*
X0098744Y0167570D01*
X0098873Y0167408D01*
X0098999Y0167243D01*
X0099121Y0167074D01*
X0099238Y0166903D01*
X0099352Y0166729D01*
X0099461Y0166552D01*
X0099565Y0166372D01*
X0099665Y0166190D01*
X0099761Y0166006D01*
X0099852Y0165819D01*
X0099939Y0165630D01*
X0100021Y0165439D01*
X0100098Y0165247D01*
X0100170Y0165052D01*
X0100238Y0164855D01*
X0100300Y0164657D01*
X0100358Y0164458D01*
X0100411Y0164257D01*
X0100459Y0164055D01*
X0100502Y0163851D01*
X0100540Y0163647D01*
X0100573Y0163442D01*
X0100601Y0163236D01*
X0100624Y0163030D01*
X0100642Y0162823D01*
X0100655Y0162615D01*
X0100662Y0162408D01*
X0100665Y0162200D01*
X0100662Y0161992D01*
X0100655Y0161785D01*
X0100642Y0161577D01*
X0100624Y0161370D01*
X0100601Y0161164D01*
X0100573Y0160958D01*
X0100540Y0160753D01*
X0100502Y0160549D01*
X0100459Y0160345D01*
X0100411Y0160143D01*
X0100358Y0159942D01*
X0100300Y0159743D01*
X0100238Y0159545D01*
X0100170Y0159348D01*
X0100098Y0159153D01*
X0100021Y0158961D01*
X0099939Y0158770D01*
X0099852Y0158581D01*
X0099761Y0158394D01*
X0099665Y0158210D01*
X0099565Y0158028D01*
X0099461Y0157848D01*
X0099352Y0157671D01*
X0099238Y0157497D01*
X0099121Y0157326D01*
X0098999Y0157157D01*
X0098873Y0156992D01*
X0098744Y0156830D01*
X0098610Y0156671D01*
X0098472Y0156515D01*
X0098331Y0156363D01*
X0098186Y0156214D01*
X0098037Y0156069D01*
X0097885Y0155928D01*
X0097729Y0155790D01*
X0097570Y0155656D01*
X0097408Y0155527D01*
X0097243Y0155401D01*
X0097074Y0155279D01*
X0096903Y0155162D01*
X0096729Y0155048D01*
X0096552Y0154939D01*
X0096372Y0154835D01*
X0096190Y0154735D01*
X0096006Y0154639D01*
X0095819Y0154548D01*
X0095630Y0154461D01*
X0095439Y0154379D01*
X0095247Y0154302D01*
X0095052Y0154230D01*
X0094855Y0154162D01*
X0094657Y0154100D01*
X0094458Y0154042D01*
X0094257Y0153989D01*
X0094055Y0153941D01*
X0093851Y0153898D01*
X0093647Y0153860D01*
X0093442Y0153827D01*
X0093236Y0153799D01*
X0093030Y0153776D01*
X0092823Y0153758D01*
X0092615Y0153745D01*
X0092408Y0153738D01*
X0092200Y0153735D01*
X0091992Y0153738D01*
X0091785Y0153745D01*
X0091577Y0153758D01*
X0091370Y0153776D01*
X0091164Y0153799D01*
X0090958Y0153827D01*
X0090753Y0153860D01*
X0090549Y0153898D01*
X0090345Y0153941D01*
X0090143Y0153989D01*
X0089942Y0154042D01*
X0089743Y0154100D01*
X0089545Y0154162D01*
X0089348Y0154230D01*
X0089153Y0154302D01*
X0088961Y0154379D01*
X0088770Y0154461D01*
X0088581Y0154548D01*
X0088394Y0154639D01*
X0088210Y0154735D01*
X0088028Y0154835D01*
X0087848Y0154939D01*
X0087671Y0155048D01*
X0087497Y0155162D01*
X0087326Y0155279D01*
X0087157Y0155401D01*
X0086992Y0155527D01*
X0086830Y0155656D01*
X0086671Y0155790D01*
X0086515Y0155928D01*
X0086363Y0156069D01*
X0086214Y0156214D01*
X0086069Y0156363D01*
X0085928Y0156515D01*
X0085790Y0156671D01*
X0085656Y0156830D01*
X0085527Y0156992D01*
X0085401Y0157157D01*
X0085279Y0157326D01*
X0085162Y0157497D01*
X0085048Y0157671D01*
X0084939Y0157848D01*
X0084835Y0158028D01*
X0084735Y0158210D01*
X0084639Y0158394D01*
X0084548Y0158581D01*
X0084461Y0158770D01*
X0084379Y0158961D01*
X0084302Y0159153D01*
X0084230Y0159348D01*
X0084162Y0159545D01*
X0084100Y0159743D01*
X0084042Y0159942D01*
X0083989Y0160143D01*
X0083941Y0160345D01*
X0083898Y0160549D01*
X0083860Y0160753D01*
X0083827Y0160958D01*
X0083799Y0161164D01*
X0083776Y0161370D01*
X0083758Y0161577D01*
X0083745Y0161785D01*
X0083738Y0161992D01*
X0083735Y0162200D01*
X0074500Y0162200D02*
X0074505Y0162634D01*
X0074521Y0163068D01*
X0074548Y0163502D01*
X0074585Y0163935D01*
X0074633Y0164367D01*
X0074692Y0164797D01*
X0074761Y0165226D01*
X0074840Y0165653D01*
X0074930Y0166078D01*
X0075030Y0166501D01*
X0075141Y0166921D01*
X0075262Y0167338D01*
X0075393Y0167752D01*
X0075535Y0168163D01*
X0075686Y0168570D01*
X0075847Y0168973D01*
X0076018Y0169373D01*
X0076199Y0169768D01*
X0076390Y0170158D01*
X0076590Y0170544D01*
X0076799Y0170924D01*
X0077018Y0171300D01*
X0077246Y0171669D01*
X0077483Y0172034D01*
X0077729Y0172392D01*
X0077983Y0172744D01*
X0078246Y0173090D01*
X0078518Y0173429D01*
X0078797Y0173761D01*
X0079085Y0174087D01*
X0079381Y0174405D01*
X0079684Y0174716D01*
X0079995Y0175019D01*
X0080313Y0175315D01*
X0080639Y0175603D01*
X0080971Y0175882D01*
X0081310Y0176154D01*
X0081656Y0176417D01*
X0082008Y0176671D01*
X0082366Y0176917D01*
X0082731Y0177154D01*
X0083100Y0177382D01*
X0083476Y0177601D01*
X0083856Y0177810D01*
X0084242Y0178010D01*
X0084632Y0178201D01*
X0085027Y0178382D01*
X0085427Y0178553D01*
X0085830Y0178714D01*
X0086237Y0178865D01*
X0086648Y0179007D01*
X0087062Y0179138D01*
X0087479Y0179259D01*
X0087899Y0179370D01*
X0088322Y0179470D01*
X0088747Y0179560D01*
X0089174Y0179639D01*
X0089603Y0179708D01*
X0090033Y0179767D01*
X0090465Y0179815D01*
X0090898Y0179852D01*
X0091332Y0179879D01*
X0091766Y0179895D01*
X0092200Y0179900D01*
X0092634Y0179895D01*
X0093068Y0179879D01*
X0093502Y0179852D01*
X0093935Y0179815D01*
X0094367Y0179767D01*
X0094797Y0179708D01*
X0095226Y0179639D01*
X0095653Y0179560D01*
X0096078Y0179470D01*
X0096501Y0179370D01*
X0096921Y0179259D01*
X0097338Y0179138D01*
X0097752Y0179007D01*
X0098163Y0178865D01*
X0098570Y0178714D01*
X0098973Y0178553D01*
X0099373Y0178382D01*
X0099768Y0178201D01*
X0100158Y0178010D01*
X0100544Y0177810D01*
X0100924Y0177601D01*
X0101300Y0177382D01*
X0101669Y0177154D01*
X0102034Y0176917D01*
X0102392Y0176671D01*
X0102744Y0176417D01*
X0103090Y0176154D01*
X0103429Y0175882D01*
X0103761Y0175603D01*
X0104087Y0175315D01*
X0104405Y0175019D01*
X0104716Y0174716D01*
X0105019Y0174405D01*
X0105315Y0174087D01*
X0105603Y0173761D01*
X0105882Y0173429D01*
X0106154Y0173090D01*
X0106417Y0172744D01*
X0106671Y0172392D01*
X0106917Y0172034D01*
X0107154Y0171669D01*
X0107382Y0171300D01*
X0107601Y0170924D01*
X0107810Y0170544D01*
X0108010Y0170158D01*
X0108201Y0169768D01*
X0108382Y0169373D01*
X0108553Y0168973D01*
X0108714Y0168570D01*
X0108865Y0168163D01*
X0109007Y0167752D01*
X0109138Y0167338D01*
X0109259Y0166921D01*
X0109370Y0166501D01*
X0109470Y0166078D01*
X0109560Y0165653D01*
X0109639Y0165226D01*
X0109708Y0164797D01*
X0109767Y0164367D01*
X0109815Y0163935D01*
X0109852Y0163502D01*
X0109879Y0163068D01*
X0109895Y0162634D01*
X0109900Y0162200D01*
X0109895Y0161766D01*
X0109879Y0161332D01*
X0109852Y0160898D01*
X0109815Y0160465D01*
X0109767Y0160033D01*
X0109708Y0159603D01*
X0109639Y0159174D01*
X0109560Y0158747D01*
X0109470Y0158322D01*
X0109370Y0157899D01*
X0109259Y0157479D01*
X0109138Y0157062D01*
X0109007Y0156648D01*
X0108865Y0156237D01*
X0108714Y0155830D01*
X0108553Y0155427D01*
X0108382Y0155027D01*
X0108201Y0154632D01*
X0108010Y0154242D01*
X0107810Y0153856D01*
X0107601Y0153476D01*
X0107382Y0153100D01*
X0107154Y0152731D01*
X0106917Y0152366D01*
X0106671Y0152008D01*
X0106417Y0151656D01*
X0106154Y0151310D01*
X0105882Y0150971D01*
X0105603Y0150639D01*
X0105315Y0150313D01*
X0105019Y0149995D01*
X0104716Y0149684D01*
X0104405Y0149381D01*
X0104087Y0149085D01*
X0103761Y0148797D01*
X0103429Y0148518D01*
X0103090Y0148246D01*
X0102744Y0147983D01*
X0102392Y0147729D01*
X0102034Y0147483D01*
X0101669Y0147246D01*
X0101300Y0147018D01*
X0100924Y0146799D01*
X0100544Y0146590D01*
X0100158Y0146390D01*
X0099768Y0146199D01*
X0099373Y0146018D01*
X0098973Y0145847D01*
X0098570Y0145686D01*
X0098163Y0145535D01*
X0097752Y0145393D01*
X0097338Y0145262D01*
X0096921Y0145141D01*
X0096501Y0145030D01*
X0096078Y0144930D01*
X0095653Y0144840D01*
X0095226Y0144761D01*
X0094797Y0144692D01*
X0094367Y0144633D01*
X0093935Y0144585D01*
X0093502Y0144548D01*
X0093068Y0144521D01*
X0092634Y0144505D01*
X0092200Y0144500D01*
X0091766Y0144505D01*
X0091332Y0144521D01*
X0090898Y0144548D01*
X0090465Y0144585D01*
X0090033Y0144633D01*
X0089603Y0144692D01*
X0089174Y0144761D01*
X0088747Y0144840D01*
X0088322Y0144930D01*
X0087899Y0145030D01*
X0087479Y0145141D01*
X0087062Y0145262D01*
X0086648Y0145393D01*
X0086237Y0145535D01*
X0085830Y0145686D01*
X0085427Y0145847D01*
X0085027Y0146018D01*
X0084632Y0146199D01*
X0084242Y0146390D01*
X0083856Y0146590D01*
X0083476Y0146799D01*
X0083100Y0147018D01*
X0082731Y0147246D01*
X0082366Y0147483D01*
X0082008Y0147729D01*
X0081656Y0147983D01*
X0081310Y0148246D01*
X0080971Y0148518D01*
X0080639Y0148797D01*
X0080313Y0149085D01*
X0079995Y0149381D01*
X0079684Y0149684D01*
X0079381Y0149995D01*
X0079085Y0150313D01*
X0078797Y0150639D01*
X0078518Y0150971D01*
X0078246Y0151310D01*
X0077983Y0151656D01*
X0077729Y0152008D01*
X0077483Y0152366D01*
X0077246Y0152731D01*
X0077018Y0153100D01*
X0076799Y0153476D01*
X0076590Y0153856D01*
X0076390Y0154242D01*
X0076199Y0154632D01*
X0076018Y0155027D01*
X0075847Y0155427D01*
X0075686Y0155830D01*
X0075535Y0156237D01*
X0075393Y0156648D01*
X0075262Y0157062D01*
X0075141Y0157479D01*
X0075030Y0157899D01*
X0074930Y0158322D01*
X0074840Y0158747D01*
X0074761Y0159174D01*
X0074692Y0159603D01*
X0074633Y0160033D01*
X0074585Y0160465D01*
X0074548Y0160898D01*
X0074521Y0161332D01*
X0074505Y0161766D01*
X0074500Y0162200D01*
X0173735Y0162200D02*
X0173738Y0162408D01*
X0173745Y0162615D01*
X0173758Y0162823D01*
X0173776Y0163030D01*
X0173799Y0163236D01*
X0173827Y0163442D01*
X0173860Y0163647D01*
X0173898Y0163851D01*
X0173941Y0164055D01*
X0173989Y0164257D01*
X0174042Y0164458D01*
X0174100Y0164657D01*
X0174162Y0164855D01*
X0174230Y0165052D01*
X0174302Y0165247D01*
X0174379Y0165439D01*
X0174461Y0165630D01*
X0174548Y0165819D01*
X0174639Y0166006D01*
X0174735Y0166190D01*
X0174835Y0166372D01*
X0174939Y0166552D01*
X0175048Y0166729D01*
X0175162Y0166903D01*
X0175279Y0167074D01*
X0175401Y0167243D01*
X0175527Y0167408D01*
X0175656Y0167570D01*
X0175790Y0167729D01*
X0175928Y0167885D01*
X0176069Y0168037D01*
X0176214Y0168186D01*
X0176363Y0168331D01*
X0176515Y0168472D01*
X0176671Y0168610D01*
X0176830Y0168744D01*
X0176992Y0168873D01*
X0177157Y0168999D01*
X0177326Y0169121D01*
X0177497Y0169238D01*
X0177671Y0169352D01*
X0177848Y0169461D01*
X0178028Y0169565D01*
X0178210Y0169665D01*
X0178394Y0169761D01*
X0178581Y0169852D01*
X0178770Y0169939D01*
X0178961Y0170021D01*
X0179153Y0170098D01*
X0179348Y0170170D01*
X0179545Y0170238D01*
X0179743Y0170300D01*
X0179942Y0170358D01*
X0180143Y0170411D01*
X0180345Y0170459D01*
X0180549Y0170502D01*
X0180753Y0170540D01*
X0180958Y0170573D01*
X0181164Y0170601D01*
X0181370Y0170624D01*
X0181577Y0170642D01*
X0181785Y0170655D01*
X0181992Y0170662D01*
X0182200Y0170665D01*
X0182408Y0170662D01*
X0182615Y0170655D01*
X0182823Y0170642D01*
X0183030Y0170624D01*
X0183236Y0170601D01*
X0183442Y0170573D01*
X0183647Y0170540D01*
X0183851Y0170502D01*
X0184055Y0170459D01*
X0184257Y0170411D01*
X0184458Y0170358D01*
X0184657Y0170300D01*
X0184855Y0170238D01*
X0185052Y0170170D01*
X0185247Y0170098D01*
X0185439Y0170021D01*
X0185630Y0169939D01*
X0185819Y0169852D01*
X0186006Y0169761D01*
X0186190Y0169665D01*
X0186372Y0169565D01*
X0186552Y0169461D01*
X0186729Y0169352D01*
X0186903Y0169238D01*
X0187074Y0169121D01*
X0187243Y0168999D01*
X0187408Y0168873D01*
X0187570Y0168744D01*
X0187729Y0168610D01*
X0187885Y0168472D01*
X0188037Y0168331D01*
X0188186Y0168186D01*
X0188331Y0168037D01*
X0188472Y0167885D01*
X0188610Y0167729D01*
X0188744Y0167570D01*
X0188873Y0167408D01*
X0188999Y0167243D01*
X0189121Y0167074D01*
X0189238Y0166903D01*
X0189352Y0166729D01*
X0189461Y0166552D01*
X0189565Y0166372D01*
X0189665Y0166190D01*
X0189761Y0166006D01*
X0189852Y0165819D01*
X0189939Y0165630D01*
X0190021Y0165439D01*
X0190098Y0165247D01*
X0190170Y0165052D01*
X0190238Y0164855D01*
X0190300Y0164657D01*
X0190358Y0164458D01*
X0190411Y0164257D01*
X0190459Y0164055D01*
X0190502Y0163851D01*
X0190540Y0163647D01*
X0190573Y0163442D01*
X0190601Y0163236D01*
X0190624Y0163030D01*
X0190642Y0162823D01*
X0190655Y0162615D01*
X0190662Y0162408D01*
X0190665Y0162200D01*
X0190662Y0161992D01*
X0190655Y0161785D01*
X0190642Y0161577D01*
X0190624Y0161370D01*
X0190601Y0161164D01*
X0190573Y0160958D01*
X0190540Y0160753D01*
X0190502Y0160549D01*
X0190459Y0160345D01*
X0190411Y0160143D01*
X0190358Y0159942D01*
X0190300Y0159743D01*
X0190238Y0159545D01*
X0190170Y0159348D01*
X0190098Y0159153D01*
X0190021Y0158961D01*
X0189939Y0158770D01*
X0189852Y0158581D01*
X0189761Y0158394D01*
X0189665Y0158210D01*
X0189565Y0158028D01*
X0189461Y0157848D01*
X0189352Y0157671D01*
X0189238Y0157497D01*
X0189121Y0157326D01*
X0188999Y0157157D01*
X0188873Y0156992D01*
X0188744Y0156830D01*
X0188610Y0156671D01*
X0188472Y0156515D01*
X0188331Y0156363D01*
X0188186Y0156214D01*
X0188037Y0156069D01*
X0187885Y0155928D01*
X0187729Y0155790D01*
X0187570Y0155656D01*
X0187408Y0155527D01*
X0187243Y0155401D01*
X0187074Y0155279D01*
X0186903Y0155162D01*
X0186729Y0155048D01*
X0186552Y0154939D01*
X0186372Y0154835D01*
X0186190Y0154735D01*
X0186006Y0154639D01*
X0185819Y0154548D01*
X0185630Y0154461D01*
X0185439Y0154379D01*
X0185247Y0154302D01*
X0185052Y0154230D01*
X0184855Y0154162D01*
X0184657Y0154100D01*
X0184458Y0154042D01*
X0184257Y0153989D01*
X0184055Y0153941D01*
X0183851Y0153898D01*
X0183647Y0153860D01*
X0183442Y0153827D01*
X0183236Y0153799D01*
X0183030Y0153776D01*
X0182823Y0153758D01*
X0182615Y0153745D01*
X0182408Y0153738D01*
X0182200Y0153735D01*
X0181992Y0153738D01*
X0181785Y0153745D01*
X0181577Y0153758D01*
X0181370Y0153776D01*
X0181164Y0153799D01*
X0180958Y0153827D01*
X0180753Y0153860D01*
X0180549Y0153898D01*
X0180345Y0153941D01*
X0180143Y0153989D01*
X0179942Y0154042D01*
X0179743Y0154100D01*
X0179545Y0154162D01*
X0179348Y0154230D01*
X0179153Y0154302D01*
X0178961Y0154379D01*
X0178770Y0154461D01*
X0178581Y0154548D01*
X0178394Y0154639D01*
X0178210Y0154735D01*
X0178028Y0154835D01*
X0177848Y0154939D01*
X0177671Y0155048D01*
X0177497Y0155162D01*
X0177326Y0155279D01*
X0177157Y0155401D01*
X0176992Y0155527D01*
X0176830Y0155656D01*
X0176671Y0155790D01*
X0176515Y0155928D01*
X0176363Y0156069D01*
X0176214Y0156214D01*
X0176069Y0156363D01*
X0175928Y0156515D01*
X0175790Y0156671D01*
X0175656Y0156830D01*
X0175527Y0156992D01*
X0175401Y0157157D01*
X0175279Y0157326D01*
X0175162Y0157497D01*
X0175048Y0157671D01*
X0174939Y0157848D01*
X0174835Y0158028D01*
X0174735Y0158210D01*
X0174639Y0158394D01*
X0174548Y0158581D01*
X0174461Y0158770D01*
X0174379Y0158961D01*
X0174302Y0159153D01*
X0174230Y0159348D01*
X0174162Y0159545D01*
X0174100Y0159743D01*
X0174042Y0159942D01*
X0173989Y0160143D01*
X0173941Y0160345D01*
X0173898Y0160549D01*
X0173860Y0160753D01*
X0173827Y0160958D01*
X0173799Y0161164D01*
X0173776Y0161370D01*
X0173758Y0161577D01*
X0173745Y0161785D01*
X0173738Y0161992D01*
X0173735Y0162200D01*
X0164500Y0162200D02*
X0164505Y0162634D01*
X0164521Y0163068D01*
X0164548Y0163502D01*
X0164585Y0163935D01*
X0164633Y0164367D01*
X0164692Y0164797D01*
X0164761Y0165226D01*
X0164840Y0165653D01*
X0164930Y0166078D01*
X0165030Y0166501D01*
X0165141Y0166921D01*
X0165262Y0167338D01*
X0165393Y0167752D01*
X0165535Y0168163D01*
X0165686Y0168570D01*
X0165847Y0168973D01*
X0166018Y0169373D01*
X0166199Y0169768D01*
X0166390Y0170158D01*
X0166590Y0170544D01*
X0166799Y0170924D01*
X0167018Y0171300D01*
X0167246Y0171669D01*
X0167483Y0172034D01*
X0167729Y0172392D01*
X0167983Y0172744D01*
X0168246Y0173090D01*
X0168518Y0173429D01*
X0168797Y0173761D01*
X0169085Y0174087D01*
X0169381Y0174405D01*
X0169684Y0174716D01*
X0169995Y0175019D01*
X0170313Y0175315D01*
X0170639Y0175603D01*
X0170971Y0175882D01*
X0171310Y0176154D01*
X0171656Y0176417D01*
X0172008Y0176671D01*
X0172366Y0176917D01*
X0172731Y0177154D01*
X0173100Y0177382D01*
X0173476Y0177601D01*
X0173856Y0177810D01*
X0174242Y0178010D01*
X0174632Y0178201D01*
X0175027Y0178382D01*
X0175427Y0178553D01*
X0175830Y0178714D01*
X0176237Y0178865D01*
X0176648Y0179007D01*
X0177062Y0179138D01*
X0177479Y0179259D01*
X0177899Y0179370D01*
X0178322Y0179470D01*
X0178747Y0179560D01*
X0179174Y0179639D01*
X0179603Y0179708D01*
X0180033Y0179767D01*
X0180465Y0179815D01*
X0180898Y0179852D01*
X0181332Y0179879D01*
X0181766Y0179895D01*
X0182200Y0179900D01*
X0182634Y0179895D01*
X0183068Y0179879D01*
X0183502Y0179852D01*
X0183935Y0179815D01*
X0184367Y0179767D01*
X0184797Y0179708D01*
X0185226Y0179639D01*
X0185653Y0179560D01*
X0186078Y0179470D01*
X0186501Y0179370D01*
X0186921Y0179259D01*
X0187338Y0179138D01*
X0187752Y0179007D01*
X0188163Y0178865D01*
X0188570Y0178714D01*
X0188973Y0178553D01*
X0189373Y0178382D01*
X0189768Y0178201D01*
X0190158Y0178010D01*
X0190544Y0177810D01*
X0190924Y0177601D01*
X0191300Y0177382D01*
X0191669Y0177154D01*
X0192034Y0176917D01*
X0192392Y0176671D01*
X0192744Y0176417D01*
X0193090Y0176154D01*
X0193429Y0175882D01*
X0193761Y0175603D01*
X0194087Y0175315D01*
X0194405Y0175019D01*
X0194716Y0174716D01*
X0195019Y0174405D01*
X0195315Y0174087D01*
X0195603Y0173761D01*
X0195882Y0173429D01*
X0196154Y0173090D01*
X0196417Y0172744D01*
X0196671Y0172392D01*
X0196917Y0172034D01*
X0197154Y0171669D01*
X0197382Y0171300D01*
X0197601Y0170924D01*
X0197810Y0170544D01*
X0198010Y0170158D01*
X0198201Y0169768D01*
X0198382Y0169373D01*
X0198553Y0168973D01*
X0198714Y0168570D01*
X0198865Y0168163D01*
X0199007Y0167752D01*
X0199138Y0167338D01*
X0199259Y0166921D01*
X0199370Y0166501D01*
X0199470Y0166078D01*
X0199560Y0165653D01*
X0199639Y0165226D01*
X0199708Y0164797D01*
X0199767Y0164367D01*
X0199815Y0163935D01*
X0199852Y0163502D01*
X0199879Y0163068D01*
X0199895Y0162634D01*
X0199900Y0162200D01*
X0199895Y0161766D01*
X0199879Y0161332D01*
X0199852Y0160898D01*
X0199815Y0160465D01*
X0199767Y0160033D01*
X0199708Y0159603D01*
X0199639Y0159174D01*
X0199560Y0158747D01*
X0199470Y0158322D01*
X0199370Y0157899D01*
X0199259Y0157479D01*
X0199138Y0157062D01*
X0199007Y0156648D01*
X0198865Y0156237D01*
X0198714Y0155830D01*
X0198553Y0155427D01*
X0198382Y0155027D01*
X0198201Y0154632D01*
X0198010Y0154242D01*
X0197810Y0153856D01*
X0197601Y0153476D01*
X0197382Y0153100D01*
X0197154Y0152731D01*
X0196917Y0152366D01*
X0196671Y0152008D01*
X0196417Y0151656D01*
X0196154Y0151310D01*
X0195882Y0150971D01*
X0195603Y0150639D01*
X0195315Y0150313D01*
X0195019Y0149995D01*
X0194716Y0149684D01*
X0194405Y0149381D01*
X0194087Y0149085D01*
X0193761Y0148797D01*
X0193429Y0148518D01*
X0193090Y0148246D01*
X0192744Y0147983D01*
X0192392Y0147729D01*
X0192034Y0147483D01*
X0191669Y0147246D01*
X0191300Y0147018D01*
X0190924Y0146799D01*
X0190544Y0146590D01*
X0190158Y0146390D01*
X0189768Y0146199D01*
X0189373Y0146018D01*
X0188973Y0145847D01*
X0188570Y0145686D01*
X0188163Y0145535D01*
X0187752Y0145393D01*
X0187338Y0145262D01*
X0186921Y0145141D01*
X0186501Y0145030D01*
X0186078Y0144930D01*
X0185653Y0144840D01*
X0185226Y0144761D01*
X0184797Y0144692D01*
X0184367Y0144633D01*
X0183935Y0144585D01*
X0183502Y0144548D01*
X0183068Y0144521D01*
X0182634Y0144505D01*
X0182200Y0144500D01*
X0181766Y0144505D01*
X0181332Y0144521D01*
X0180898Y0144548D01*
X0180465Y0144585D01*
X0180033Y0144633D01*
X0179603Y0144692D01*
X0179174Y0144761D01*
X0178747Y0144840D01*
X0178322Y0144930D01*
X0177899Y0145030D01*
X0177479Y0145141D01*
X0177062Y0145262D01*
X0176648Y0145393D01*
X0176237Y0145535D01*
X0175830Y0145686D01*
X0175427Y0145847D01*
X0175027Y0146018D01*
X0174632Y0146199D01*
X0174242Y0146390D01*
X0173856Y0146590D01*
X0173476Y0146799D01*
X0173100Y0147018D01*
X0172731Y0147246D01*
X0172366Y0147483D01*
X0172008Y0147729D01*
X0171656Y0147983D01*
X0171310Y0148246D01*
X0170971Y0148518D01*
X0170639Y0148797D01*
X0170313Y0149085D01*
X0169995Y0149381D01*
X0169684Y0149684D01*
X0169381Y0149995D01*
X0169085Y0150313D01*
X0168797Y0150639D01*
X0168518Y0150971D01*
X0168246Y0151310D01*
X0167983Y0151656D01*
X0167729Y0152008D01*
X0167483Y0152366D01*
X0167246Y0152731D01*
X0167018Y0153100D01*
X0166799Y0153476D01*
X0166590Y0153856D01*
X0166390Y0154242D01*
X0166199Y0154632D01*
X0166018Y0155027D01*
X0165847Y0155427D01*
X0165686Y0155830D01*
X0165535Y0156237D01*
X0165393Y0156648D01*
X0165262Y0157062D01*
X0165141Y0157479D01*
X0165030Y0157899D01*
X0164930Y0158322D01*
X0164840Y0158747D01*
X0164761Y0159174D01*
X0164692Y0159603D01*
X0164633Y0160033D01*
X0164585Y0160465D01*
X0164548Y0160898D01*
X0164521Y0161332D01*
X0164505Y0161766D01*
X0164500Y0162200D01*
X0198735Y0047200D02*
X0198738Y0047408D01*
X0198745Y0047615D01*
X0198758Y0047823D01*
X0198776Y0048030D01*
X0198799Y0048236D01*
X0198827Y0048442D01*
X0198860Y0048647D01*
X0198898Y0048851D01*
X0198941Y0049055D01*
X0198989Y0049257D01*
X0199042Y0049458D01*
X0199100Y0049657D01*
X0199162Y0049855D01*
X0199230Y0050052D01*
X0199302Y0050247D01*
X0199379Y0050439D01*
X0199461Y0050630D01*
X0199548Y0050819D01*
X0199639Y0051006D01*
X0199735Y0051190D01*
X0199835Y0051372D01*
X0199939Y0051552D01*
X0200048Y0051729D01*
X0200162Y0051903D01*
X0200279Y0052074D01*
X0200401Y0052243D01*
X0200527Y0052408D01*
X0200656Y0052570D01*
X0200790Y0052729D01*
X0200928Y0052885D01*
X0201069Y0053037D01*
X0201214Y0053186D01*
X0201363Y0053331D01*
X0201515Y0053472D01*
X0201671Y0053610D01*
X0201830Y0053744D01*
X0201992Y0053873D01*
X0202157Y0053999D01*
X0202326Y0054121D01*
X0202497Y0054238D01*
X0202671Y0054352D01*
X0202848Y0054461D01*
X0203028Y0054565D01*
X0203210Y0054665D01*
X0203394Y0054761D01*
X0203581Y0054852D01*
X0203770Y0054939D01*
X0203961Y0055021D01*
X0204153Y0055098D01*
X0204348Y0055170D01*
X0204545Y0055238D01*
X0204743Y0055300D01*
X0204942Y0055358D01*
X0205143Y0055411D01*
X0205345Y0055459D01*
X0205549Y0055502D01*
X0205753Y0055540D01*
X0205958Y0055573D01*
X0206164Y0055601D01*
X0206370Y0055624D01*
X0206577Y0055642D01*
X0206785Y0055655D01*
X0206992Y0055662D01*
X0207200Y0055665D01*
X0207408Y0055662D01*
X0207615Y0055655D01*
X0207823Y0055642D01*
X0208030Y0055624D01*
X0208236Y0055601D01*
X0208442Y0055573D01*
X0208647Y0055540D01*
X0208851Y0055502D01*
X0209055Y0055459D01*
X0209257Y0055411D01*
X0209458Y0055358D01*
X0209657Y0055300D01*
X0209855Y0055238D01*
X0210052Y0055170D01*
X0210247Y0055098D01*
X0210439Y0055021D01*
X0210630Y0054939D01*
X0210819Y0054852D01*
X0211006Y0054761D01*
X0211190Y0054665D01*
X0211372Y0054565D01*
X0211552Y0054461D01*
X0211729Y0054352D01*
X0211903Y0054238D01*
X0212074Y0054121D01*
X0212243Y0053999D01*
X0212408Y0053873D01*
X0212570Y0053744D01*
X0212729Y0053610D01*
X0212885Y0053472D01*
X0213037Y0053331D01*
X0213186Y0053186D01*
X0213331Y0053037D01*
X0213472Y0052885D01*
X0213610Y0052729D01*
X0213744Y0052570D01*
X0213873Y0052408D01*
X0213999Y0052243D01*
X0214121Y0052074D01*
X0214238Y0051903D01*
X0214352Y0051729D01*
X0214461Y0051552D01*
X0214565Y0051372D01*
X0214665Y0051190D01*
X0214761Y0051006D01*
X0214852Y0050819D01*
X0214939Y0050630D01*
X0215021Y0050439D01*
X0215098Y0050247D01*
X0215170Y0050052D01*
X0215238Y0049855D01*
X0215300Y0049657D01*
X0215358Y0049458D01*
X0215411Y0049257D01*
X0215459Y0049055D01*
X0215502Y0048851D01*
X0215540Y0048647D01*
X0215573Y0048442D01*
X0215601Y0048236D01*
X0215624Y0048030D01*
X0215642Y0047823D01*
X0215655Y0047615D01*
X0215662Y0047408D01*
X0215665Y0047200D01*
X0215662Y0046992D01*
X0215655Y0046785D01*
X0215642Y0046577D01*
X0215624Y0046370D01*
X0215601Y0046164D01*
X0215573Y0045958D01*
X0215540Y0045753D01*
X0215502Y0045549D01*
X0215459Y0045345D01*
X0215411Y0045143D01*
X0215358Y0044942D01*
X0215300Y0044743D01*
X0215238Y0044545D01*
X0215170Y0044348D01*
X0215098Y0044153D01*
X0215021Y0043961D01*
X0214939Y0043770D01*
X0214852Y0043581D01*
X0214761Y0043394D01*
X0214665Y0043210D01*
X0214565Y0043028D01*
X0214461Y0042848D01*
X0214352Y0042671D01*
X0214238Y0042497D01*
X0214121Y0042326D01*
X0213999Y0042157D01*
X0213873Y0041992D01*
X0213744Y0041830D01*
X0213610Y0041671D01*
X0213472Y0041515D01*
X0213331Y0041363D01*
X0213186Y0041214D01*
X0213037Y0041069D01*
X0212885Y0040928D01*
X0212729Y0040790D01*
X0212570Y0040656D01*
X0212408Y0040527D01*
X0212243Y0040401D01*
X0212074Y0040279D01*
X0211903Y0040162D01*
X0211729Y0040048D01*
X0211552Y0039939D01*
X0211372Y0039835D01*
X0211190Y0039735D01*
X0211006Y0039639D01*
X0210819Y0039548D01*
X0210630Y0039461D01*
X0210439Y0039379D01*
X0210247Y0039302D01*
X0210052Y0039230D01*
X0209855Y0039162D01*
X0209657Y0039100D01*
X0209458Y0039042D01*
X0209257Y0038989D01*
X0209055Y0038941D01*
X0208851Y0038898D01*
X0208647Y0038860D01*
X0208442Y0038827D01*
X0208236Y0038799D01*
X0208030Y0038776D01*
X0207823Y0038758D01*
X0207615Y0038745D01*
X0207408Y0038738D01*
X0207200Y0038735D01*
X0206992Y0038738D01*
X0206785Y0038745D01*
X0206577Y0038758D01*
X0206370Y0038776D01*
X0206164Y0038799D01*
X0205958Y0038827D01*
X0205753Y0038860D01*
X0205549Y0038898D01*
X0205345Y0038941D01*
X0205143Y0038989D01*
X0204942Y0039042D01*
X0204743Y0039100D01*
X0204545Y0039162D01*
X0204348Y0039230D01*
X0204153Y0039302D01*
X0203961Y0039379D01*
X0203770Y0039461D01*
X0203581Y0039548D01*
X0203394Y0039639D01*
X0203210Y0039735D01*
X0203028Y0039835D01*
X0202848Y0039939D01*
X0202671Y0040048D01*
X0202497Y0040162D01*
X0202326Y0040279D01*
X0202157Y0040401D01*
X0201992Y0040527D01*
X0201830Y0040656D01*
X0201671Y0040790D01*
X0201515Y0040928D01*
X0201363Y0041069D01*
X0201214Y0041214D01*
X0201069Y0041363D01*
X0200928Y0041515D01*
X0200790Y0041671D01*
X0200656Y0041830D01*
X0200527Y0041992D01*
X0200401Y0042157D01*
X0200279Y0042326D01*
X0200162Y0042497D01*
X0200048Y0042671D01*
X0199939Y0042848D01*
X0199835Y0043028D01*
X0199735Y0043210D01*
X0199639Y0043394D01*
X0199548Y0043581D01*
X0199461Y0043770D01*
X0199379Y0043961D01*
X0199302Y0044153D01*
X0199230Y0044348D01*
X0199162Y0044545D01*
X0199100Y0044743D01*
X0199042Y0044942D01*
X0198989Y0045143D01*
X0198941Y0045345D01*
X0198898Y0045549D01*
X0198860Y0045753D01*
X0198827Y0045958D01*
X0198799Y0046164D01*
X0198776Y0046370D01*
X0198758Y0046577D01*
X0198745Y0046785D01*
X0198738Y0046992D01*
X0198735Y0047200D01*
X0189500Y0047200D02*
X0189505Y0047634D01*
X0189521Y0048068D01*
X0189548Y0048502D01*
X0189585Y0048935D01*
X0189633Y0049367D01*
X0189692Y0049797D01*
X0189761Y0050226D01*
X0189840Y0050653D01*
X0189930Y0051078D01*
X0190030Y0051501D01*
X0190141Y0051921D01*
X0190262Y0052338D01*
X0190393Y0052752D01*
X0190535Y0053163D01*
X0190686Y0053570D01*
X0190847Y0053973D01*
X0191018Y0054373D01*
X0191199Y0054768D01*
X0191390Y0055158D01*
X0191590Y0055544D01*
X0191799Y0055924D01*
X0192018Y0056300D01*
X0192246Y0056669D01*
X0192483Y0057034D01*
X0192729Y0057392D01*
X0192983Y0057744D01*
X0193246Y0058090D01*
X0193518Y0058429D01*
X0193797Y0058761D01*
X0194085Y0059087D01*
X0194381Y0059405D01*
X0194684Y0059716D01*
X0194995Y0060019D01*
X0195313Y0060315D01*
X0195639Y0060603D01*
X0195971Y0060882D01*
X0196310Y0061154D01*
X0196656Y0061417D01*
X0197008Y0061671D01*
X0197366Y0061917D01*
X0197731Y0062154D01*
X0198100Y0062382D01*
X0198476Y0062601D01*
X0198856Y0062810D01*
X0199242Y0063010D01*
X0199632Y0063201D01*
X0200027Y0063382D01*
X0200427Y0063553D01*
X0200830Y0063714D01*
X0201237Y0063865D01*
X0201648Y0064007D01*
X0202062Y0064138D01*
X0202479Y0064259D01*
X0202899Y0064370D01*
X0203322Y0064470D01*
X0203747Y0064560D01*
X0204174Y0064639D01*
X0204603Y0064708D01*
X0205033Y0064767D01*
X0205465Y0064815D01*
X0205898Y0064852D01*
X0206332Y0064879D01*
X0206766Y0064895D01*
X0207200Y0064900D01*
X0207634Y0064895D01*
X0208068Y0064879D01*
X0208502Y0064852D01*
X0208935Y0064815D01*
X0209367Y0064767D01*
X0209797Y0064708D01*
X0210226Y0064639D01*
X0210653Y0064560D01*
X0211078Y0064470D01*
X0211501Y0064370D01*
X0211921Y0064259D01*
X0212338Y0064138D01*
X0212752Y0064007D01*
X0213163Y0063865D01*
X0213570Y0063714D01*
X0213973Y0063553D01*
X0214373Y0063382D01*
X0214768Y0063201D01*
X0215158Y0063010D01*
X0215544Y0062810D01*
X0215924Y0062601D01*
X0216300Y0062382D01*
X0216669Y0062154D01*
X0217034Y0061917D01*
X0217392Y0061671D01*
X0217744Y0061417D01*
X0218090Y0061154D01*
X0218429Y0060882D01*
X0218761Y0060603D01*
X0219087Y0060315D01*
X0219405Y0060019D01*
X0219716Y0059716D01*
X0220019Y0059405D01*
X0220315Y0059087D01*
X0220603Y0058761D01*
X0220882Y0058429D01*
X0221154Y0058090D01*
X0221417Y0057744D01*
X0221671Y0057392D01*
X0221917Y0057034D01*
X0222154Y0056669D01*
X0222382Y0056300D01*
X0222601Y0055924D01*
X0222810Y0055544D01*
X0223010Y0055158D01*
X0223201Y0054768D01*
X0223382Y0054373D01*
X0223553Y0053973D01*
X0223714Y0053570D01*
X0223865Y0053163D01*
X0224007Y0052752D01*
X0224138Y0052338D01*
X0224259Y0051921D01*
X0224370Y0051501D01*
X0224470Y0051078D01*
X0224560Y0050653D01*
X0224639Y0050226D01*
X0224708Y0049797D01*
X0224767Y0049367D01*
X0224815Y0048935D01*
X0224852Y0048502D01*
X0224879Y0048068D01*
X0224895Y0047634D01*
X0224900Y0047200D01*
X0224895Y0046766D01*
X0224879Y0046332D01*
X0224852Y0045898D01*
X0224815Y0045465D01*
X0224767Y0045033D01*
X0224708Y0044603D01*
X0224639Y0044174D01*
X0224560Y0043747D01*
X0224470Y0043322D01*
X0224370Y0042899D01*
X0224259Y0042479D01*
X0224138Y0042062D01*
X0224007Y0041648D01*
X0223865Y0041237D01*
X0223714Y0040830D01*
X0223553Y0040427D01*
X0223382Y0040027D01*
X0223201Y0039632D01*
X0223010Y0039242D01*
X0222810Y0038856D01*
X0222601Y0038476D01*
X0222382Y0038100D01*
X0222154Y0037731D01*
X0221917Y0037366D01*
X0221671Y0037008D01*
X0221417Y0036656D01*
X0221154Y0036310D01*
X0220882Y0035971D01*
X0220603Y0035639D01*
X0220315Y0035313D01*
X0220019Y0034995D01*
X0219716Y0034684D01*
X0219405Y0034381D01*
X0219087Y0034085D01*
X0218761Y0033797D01*
X0218429Y0033518D01*
X0218090Y0033246D01*
X0217744Y0032983D01*
X0217392Y0032729D01*
X0217034Y0032483D01*
X0216669Y0032246D01*
X0216300Y0032018D01*
X0215924Y0031799D01*
X0215544Y0031590D01*
X0215158Y0031390D01*
X0214768Y0031199D01*
X0214373Y0031018D01*
X0213973Y0030847D01*
X0213570Y0030686D01*
X0213163Y0030535D01*
X0212752Y0030393D01*
X0212338Y0030262D01*
X0211921Y0030141D01*
X0211501Y0030030D01*
X0211078Y0029930D01*
X0210653Y0029840D01*
X0210226Y0029761D01*
X0209797Y0029692D01*
X0209367Y0029633D01*
X0208935Y0029585D01*
X0208502Y0029548D01*
X0208068Y0029521D01*
X0207634Y0029505D01*
X0207200Y0029500D01*
X0206766Y0029505D01*
X0206332Y0029521D01*
X0205898Y0029548D01*
X0205465Y0029585D01*
X0205033Y0029633D01*
X0204603Y0029692D01*
X0204174Y0029761D01*
X0203747Y0029840D01*
X0203322Y0029930D01*
X0202899Y0030030D01*
X0202479Y0030141D01*
X0202062Y0030262D01*
X0201648Y0030393D01*
X0201237Y0030535D01*
X0200830Y0030686D01*
X0200427Y0030847D01*
X0200027Y0031018D01*
X0199632Y0031199D01*
X0199242Y0031390D01*
X0198856Y0031590D01*
X0198476Y0031799D01*
X0198100Y0032018D01*
X0197731Y0032246D01*
X0197366Y0032483D01*
X0197008Y0032729D01*
X0196656Y0032983D01*
X0196310Y0033246D01*
X0195971Y0033518D01*
X0195639Y0033797D01*
X0195313Y0034085D01*
X0194995Y0034381D01*
X0194684Y0034684D01*
X0194381Y0034995D01*
X0194085Y0035313D01*
X0193797Y0035639D01*
X0193518Y0035971D01*
X0193246Y0036310D01*
X0192983Y0036656D01*
X0192729Y0037008D01*
X0192483Y0037366D01*
X0192246Y0037731D01*
X0192018Y0038100D01*
X0191799Y0038476D01*
X0191590Y0038856D01*
X0191390Y0039242D01*
X0191199Y0039632D01*
X0191018Y0040027D01*
X0190847Y0040427D01*
X0190686Y0040830D01*
X0190535Y0041237D01*
X0190393Y0041648D01*
X0190262Y0042062D01*
X0190141Y0042479D01*
X0190030Y0042899D01*
X0189930Y0043322D01*
X0189840Y0043747D01*
X0189761Y0044174D01*
X0189692Y0044603D01*
X0189633Y0045033D01*
X0189585Y0045465D01*
X0189548Y0045898D01*
X0189521Y0046332D01*
X0189505Y0046766D01*
X0189500Y0047200D01*
X0058735Y0047200D02*
X0058738Y0047408D01*
X0058745Y0047615D01*
X0058758Y0047823D01*
X0058776Y0048030D01*
X0058799Y0048236D01*
X0058827Y0048442D01*
X0058860Y0048647D01*
X0058898Y0048851D01*
X0058941Y0049055D01*
X0058989Y0049257D01*
X0059042Y0049458D01*
X0059100Y0049657D01*
X0059162Y0049855D01*
X0059230Y0050052D01*
X0059302Y0050247D01*
X0059379Y0050439D01*
X0059461Y0050630D01*
X0059548Y0050819D01*
X0059639Y0051006D01*
X0059735Y0051190D01*
X0059835Y0051372D01*
X0059939Y0051552D01*
X0060048Y0051729D01*
X0060162Y0051903D01*
X0060279Y0052074D01*
X0060401Y0052243D01*
X0060527Y0052408D01*
X0060656Y0052570D01*
X0060790Y0052729D01*
X0060928Y0052885D01*
X0061069Y0053037D01*
X0061214Y0053186D01*
X0061363Y0053331D01*
X0061515Y0053472D01*
X0061671Y0053610D01*
X0061830Y0053744D01*
X0061992Y0053873D01*
X0062157Y0053999D01*
X0062326Y0054121D01*
X0062497Y0054238D01*
X0062671Y0054352D01*
X0062848Y0054461D01*
X0063028Y0054565D01*
X0063210Y0054665D01*
X0063394Y0054761D01*
X0063581Y0054852D01*
X0063770Y0054939D01*
X0063961Y0055021D01*
X0064153Y0055098D01*
X0064348Y0055170D01*
X0064545Y0055238D01*
X0064743Y0055300D01*
X0064942Y0055358D01*
X0065143Y0055411D01*
X0065345Y0055459D01*
X0065549Y0055502D01*
X0065753Y0055540D01*
X0065958Y0055573D01*
X0066164Y0055601D01*
X0066370Y0055624D01*
X0066577Y0055642D01*
X0066785Y0055655D01*
X0066992Y0055662D01*
X0067200Y0055665D01*
X0067408Y0055662D01*
X0067615Y0055655D01*
X0067823Y0055642D01*
X0068030Y0055624D01*
X0068236Y0055601D01*
X0068442Y0055573D01*
X0068647Y0055540D01*
X0068851Y0055502D01*
X0069055Y0055459D01*
X0069257Y0055411D01*
X0069458Y0055358D01*
X0069657Y0055300D01*
X0069855Y0055238D01*
X0070052Y0055170D01*
X0070247Y0055098D01*
X0070439Y0055021D01*
X0070630Y0054939D01*
X0070819Y0054852D01*
X0071006Y0054761D01*
X0071190Y0054665D01*
X0071372Y0054565D01*
X0071552Y0054461D01*
X0071729Y0054352D01*
X0071903Y0054238D01*
X0072074Y0054121D01*
X0072243Y0053999D01*
X0072408Y0053873D01*
X0072570Y0053744D01*
X0072729Y0053610D01*
X0072885Y0053472D01*
X0073037Y0053331D01*
X0073186Y0053186D01*
X0073331Y0053037D01*
X0073472Y0052885D01*
X0073610Y0052729D01*
X0073744Y0052570D01*
X0073873Y0052408D01*
X0073999Y0052243D01*
X0074121Y0052074D01*
X0074238Y0051903D01*
X0074352Y0051729D01*
X0074461Y0051552D01*
X0074565Y0051372D01*
X0074665Y0051190D01*
X0074761Y0051006D01*
X0074852Y0050819D01*
X0074939Y0050630D01*
X0075021Y0050439D01*
X0075098Y0050247D01*
X0075170Y0050052D01*
X0075238Y0049855D01*
X0075300Y0049657D01*
X0075358Y0049458D01*
X0075411Y0049257D01*
X0075459Y0049055D01*
X0075502Y0048851D01*
X0075540Y0048647D01*
X0075573Y0048442D01*
X0075601Y0048236D01*
X0075624Y0048030D01*
X0075642Y0047823D01*
X0075655Y0047615D01*
X0075662Y0047408D01*
X0075665Y0047200D01*
X0075662Y0046992D01*
X0075655Y0046785D01*
X0075642Y0046577D01*
X0075624Y0046370D01*
X0075601Y0046164D01*
X0075573Y0045958D01*
X0075540Y0045753D01*
X0075502Y0045549D01*
X0075459Y0045345D01*
X0075411Y0045143D01*
X0075358Y0044942D01*
X0075300Y0044743D01*
X0075238Y0044545D01*
X0075170Y0044348D01*
X0075098Y0044153D01*
X0075021Y0043961D01*
X0074939Y0043770D01*
X0074852Y0043581D01*
X0074761Y0043394D01*
X0074665Y0043210D01*
X0074565Y0043028D01*
X0074461Y0042848D01*
X0074352Y0042671D01*
X0074238Y0042497D01*
X0074121Y0042326D01*
X0073999Y0042157D01*
X0073873Y0041992D01*
X0073744Y0041830D01*
X0073610Y0041671D01*
X0073472Y0041515D01*
X0073331Y0041363D01*
X0073186Y0041214D01*
X0073037Y0041069D01*
X0072885Y0040928D01*
X0072729Y0040790D01*
X0072570Y0040656D01*
X0072408Y0040527D01*
X0072243Y0040401D01*
X0072074Y0040279D01*
X0071903Y0040162D01*
X0071729Y0040048D01*
X0071552Y0039939D01*
X0071372Y0039835D01*
X0071190Y0039735D01*
X0071006Y0039639D01*
X0070819Y0039548D01*
X0070630Y0039461D01*
X0070439Y0039379D01*
X0070247Y0039302D01*
X0070052Y0039230D01*
X0069855Y0039162D01*
X0069657Y0039100D01*
X0069458Y0039042D01*
X0069257Y0038989D01*
X0069055Y0038941D01*
X0068851Y0038898D01*
X0068647Y0038860D01*
X0068442Y0038827D01*
X0068236Y0038799D01*
X0068030Y0038776D01*
X0067823Y0038758D01*
X0067615Y0038745D01*
X0067408Y0038738D01*
X0067200Y0038735D01*
X0066992Y0038738D01*
X0066785Y0038745D01*
X0066577Y0038758D01*
X0066370Y0038776D01*
X0066164Y0038799D01*
X0065958Y0038827D01*
X0065753Y0038860D01*
X0065549Y0038898D01*
X0065345Y0038941D01*
X0065143Y0038989D01*
X0064942Y0039042D01*
X0064743Y0039100D01*
X0064545Y0039162D01*
X0064348Y0039230D01*
X0064153Y0039302D01*
X0063961Y0039379D01*
X0063770Y0039461D01*
X0063581Y0039548D01*
X0063394Y0039639D01*
X0063210Y0039735D01*
X0063028Y0039835D01*
X0062848Y0039939D01*
X0062671Y0040048D01*
X0062497Y0040162D01*
X0062326Y0040279D01*
X0062157Y0040401D01*
X0061992Y0040527D01*
X0061830Y0040656D01*
X0061671Y0040790D01*
X0061515Y0040928D01*
X0061363Y0041069D01*
X0061214Y0041214D01*
X0061069Y0041363D01*
X0060928Y0041515D01*
X0060790Y0041671D01*
X0060656Y0041830D01*
X0060527Y0041992D01*
X0060401Y0042157D01*
X0060279Y0042326D01*
X0060162Y0042497D01*
X0060048Y0042671D01*
X0059939Y0042848D01*
X0059835Y0043028D01*
X0059735Y0043210D01*
X0059639Y0043394D01*
X0059548Y0043581D01*
X0059461Y0043770D01*
X0059379Y0043961D01*
X0059302Y0044153D01*
X0059230Y0044348D01*
X0059162Y0044545D01*
X0059100Y0044743D01*
X0059042Y0044942D01*
X0058989Y0045143D01*
X0058941Y0045345D01*
X0058898Y0045549D01*
X0058860Y0045753D01*
X0058827Y0045958D01*
X0058799Y0046164D01*
X0058776Y0046370D01*
X0058758Y0046577D01*
X0058745Y0046785D01*
X0058738Y0046992D01*
X0058735Y0047200D01*
X0049500Y0047200D02*
X0049505Y0047634D01*
X0049521Y0048068D01*
X0049548Y0048502D01*
X0049585Y0048935D01*
X0049633Y0049367D01*
X0049692Y0049797D01*
X0049761Y0050226D01*
X0049840Y0050653D01*
X0049930Y0051078D01*
X0050030Y0051501D01*
X0050141Y0051921D01*
X0050262Y0052338D01*
X0050393Y0052752D01*
X0050535Y0053163D01*
X0050686Y0053570D01*
X0050847Y0053973D01*
X0051018Y0054373D01*
X0051199Y0054768D01*
X0051390Y0055158D01*
X0051590Y0055544D01*
X0051799Y0055924D01*
X0052018Y0056300D01*
X0052246Y0056669D01*
X0052483Y0057034D01*
X0052729Y0057392D01*
X0052983Y0057744D01*
X0053246Y0058090D01*
X0053518Y0058429D01*
X0053797Y0058761D01*
X0054085Y0059087D01*
X0054381Y0059405D01*
X0054684Y0059716D01*
X0054995Y0060019D01*
X0055313Y0060315D01*
X0055639Y0060603D01*
X0055971Y0060882D01*
X0056310Y0061154D01*
X0056656Y0061417D01*
X0057008Y0061671D01*
X0057366Y0061917D01*
X0057731Y0062154D01*
X0058100Y0062382D01*
X0058476Y0062601D01*
X0058856Y0062810D01*
X0059242Y0063010D01*
X0059632Y0063201D01*
X0060027Y0063382D01*
X0060427Y0063553D01*
X0060830Y0063714D01*
X0061237Y0063865D01*
X0061648Y0064007D01*
X0062062Y0064138D01*
X0062479Y0064259D01*
X0062899Y0064370D01*
X0063322Y0064470D01*
X0063747Y0064560D01*
X0064174Y0064639D01*
X0064603Y0064708D01*
X0065033Y0064767D01*
X0065465Y0064815D01*
X0065898Y0064852D01*
X0066332Y0064879D01*
X0066766Y0064895D01*
X0067200Y0064900D01*
X0067634Y0064895D01*
X0068068Y0064879D01*
X0068502Y0064852D01*
X0068935Y0064815D01*
X0069367Y0064767D01*
X0069797Y0064708D01*
X0070226Y0064639D01*
X0070653Y0064560D01*
X0071078Y0064470D01*
X0071501Y0064370D01*
X0071921Y0064259D01*
X0072338Y0064138D01*
X0072752Y0064007D01*
X0073163Y0063865D01*
X0073570Y0063714D01*
X0073973Y0063553D01*
X0074373Y0063382D01*
X0074768Y0063201D01*
X0075158Y0063010D01*
X0075544Y0062810D01*
X0075924Y0062601D01*
X0076300Y0062382D01*
X0076669Y0062154D01*
X0077034Y0061917D01*
X0077392Y0061671D01*
X0077744Y0061417D01*
X0078090Y0061154D01*
X0078429Y0060882D01*
X0078761Y0060603D01*
X0079087Y0060315D01*
X0079405Y0060019D01*
X0079716Y0059716D01*
X0080019Y0059405D01*
X0080315Y0059087D01*
X0080603Y0058761D01*
X0080882Y0058429D01*
X0081154Y0058090D01*
X0081417Y0057744D01*
X0081671Y0057392D01*
X0081917Y0057034D01*
X0082154Y0056669D01*
X0082382Y0056300D01*
X0082601Y0055924D01*
X0082810Y0055544D01*
X0083010Y0055158D01*
X0083201Y0054768D01*
X0083382Y0054373D01*
X0083553Y0053973D01*
X0083714Y0053570D01*
X0083865Y0053163D01*
X0084007Y0052752D01*
X0084138Y0052338D01*
X0084259Y0051921D01*
X0084370Y0051501D01*
X0084470Y0051078D01*
X0084560Y0050653D01*
X0084639Y0050226D01*
X0084708Y0049797D01*
X0084767Y0049367D01*
X0084815Y0048935D01*
X0084852Y0048502D01*
X0084879Y0048068D01*
X0084895Y0047634D01*
X0084900Y0047200D01*
X0084895Y0046766D01*
X0084879Y0046332D01*
X0084852Y0045898D01*
X0084815Y0045465D01*
X0084767Y0045033D01*
X0084708Y0044603D01*
X0084639Y0044174D01*
X0084560Y0043747D01*
X0084470Y0043322D01*
X0084370Y0042899D01*
X0084259Y0042479D01*
X0084138Y0042062D01*
X0084007Y0041648D01*
X0083865Y0041237D01*
X0083714Y0040830D01*
X0083553Y0040427D01*
X0083382Y0040027D01*
X0083201Y0039632D01*
X0083010Y0039242D01*
X0082810Y0038856D01*
X0082601Y0038476D01*
X0082382Y0038100D01*
X0082154Y0037731D01*
X0081917Y0037366D01*
X0081671Y0037008D01*
X0081417Y0036656D01*
X0081154Y0036310D01*
X0080882Y0035971D01*
X0080603Y0035639D01*
X0080315Y0035313D01*
X0080019Y0034995D01*
X0079716Y0034684D01*
X0079405Y0034381D01*
X0079087Y0034085D01*
X0078761Y0033797D01*
X0078429Y0033518D01*
X0078090Y0033246D01*
X0077744Y0032983D01*
X0077392Y0032729D01*
X0077034Y0032483D01*
X0076669Y0032246D01*
X0076300Y0032018D01*
X0075924Y0031799D01*
X0075544Y0031590D01*
X0075158Y0031390D01*
X0074768Y0031199D01*
X0074373Y0031018D01*
X0073973Y0030847D01*
X0073570Y0030686D01*
X0073163Y0030535D01*
X0072752Y0030393D01*
X0072338Y0030262D01*
X0071921Y0030141D01*
X0071501Y0030030D01*
X0071078Y0029930D01*
X0070653Y0029840D01*
X0070226Y0029761D01*
X0069797Y0029692D01*
X0069367Y0029633D01*
X0068935Y0029585D01*
X0068502Y0029548D01*
X0068068Y0029521D01*
X0067634Y0029505D01*
X0067200Y0029500D01*
X0066766Y0029505D01*
X0066332Y0029521D01*
X0065898Y0029548D01*
X0065465Y0029585D01*
X0065033Y0029633D01*
X0064603Y0029692D01*
X0064174Y0029761D01*
X0063747Y0029840D01*
X0063322Y0029930D01*
X0062899Y0030030D01*
X0062479Y0030141D01*
X0062062Y0030262D01*
X0061648Y0030393D01*
X0061237Y0030535D01*
X0060830Y0030686D01*
X0060427Y0030847D01*
X0060027Y0031018D01*
X0059632Y0031199D01*
X0059242Y0031390D01*
X0058856Y0031590D01*
X0058476Y0031799D01*
X0058100Y0032018D01*
X0057731Y0032246D01*
X0057366Y0032483D01*
X0057008Y0032729D01*
X0056656Y0032983D01*
X0056310Y0033246D01*
X0055971Y0033518D01*
X0055639Y0033797D01*
X0055313Y0034085D01*
X0054995Y0034381D01*
X0054684Y0034684D01*
X0054381Y0034995D01*
X0054085Y0035313D01*
X0053797Y0035639D01*
X0053518Y0035971D01*
X0053246Y0036310D01*
X0052983Y0036656D01*
X0052729Y0037008D01*
X0052483Y0037366D01*
X0052246Y0037731D01*
X0052018Y0038100D01*
X0051799Y0038476D01*
X0051590Y0038856D01*
X0051390Y0039242D01*
X0051199Y0039632D01*
X0051018Y0040027D01*
X0050847Y0040427D01*
X0050686Y0040830D01*
X0050535Y0041237D01*
X0050393Y0041648D01*
X0050262Y0042062D01*
X0050141Y0042479D01*
X0050030Y0042899D01*
X0049930Y0043322D01*
X0049840Y0043747D01*
X0049761Y0044174D01*
X0049692Y0044603D01*
X0049633Y0045033D01*
X0049585Y0045465D01*
X0049548Y0045898D01*
X0049521Y0046332D01*
X0049505Y0046766D01*
X0049500Y0047200D01*
M02*
