%
M48
M72
T01C0.0315
T02C0.0354
T03C0.0400
T04C0.0669
T05C0.1614
%
T01
X2220Y7720
X7220Y7720
X11220Y7720
X16220Y7720
X20220Y7720
X25220Y7720
X25220Y14720
X20220Y14720
X16220Y14720
X11220Y14720
X7220Y14720
X2220Y14720
T02
X3720Y17720
X5720Y17720
X12720Y17720
X14720Y17720
X21720Y17720
X23720Y17720
T03
X23720Y22220
X24720Y22220
X25720Y22220
X21720Y22220
X20720Y22220
X19720Y22220
X16720Y22220
X15720Y22220
X14720Y22220
X12720Y22220
X11720Y22220
X10720Y22220
X7720Y22220
X6720Y22220
X5720Y22220
X3720Y22220
X2720Y22220
X1720Y22220
X10720Y4720
X11720Y4720
X12720Y4720
X15720Y4720
X16720Y4720
T04
X2720Y1661
X2720Y3220
X2720Y4779
X24720Y4779
X24720Y3220
X24720Y1661
T05
X20720Y4720
X18220Y16220
X9220Y16220
X6720Y4720
M30
