G75*
%MOIN*%
%OFA0B0*%
%FSLAX25Y25*%
%IPPOS*%
%LPD*%
%AMOC8*
5,1,8,0,0,1.08239X$1,22.5*
%
%ADD10C,0.00000*%
D10*
X0002200Y0002200D02*
X0002200Y0237161D01*
X0272200Y0237200D01*
X0272200Y0002200D01*
X0002200Y0002200D01*
X0059129Y0047200D02*
X0059131Y0047398D01*
X0059139Y0047596D01*
X0059151Y0047794D01*
X0059168Y0047991D01*
X0059190Y0048188D01*
X0059216Y0048384D01*
X0059248Y0048580D01*
X0059284Y0048775D01*
X0059325Y0048968D01*
X0059371Y0049161D01*
X0059421Y0049353D01*
X0059477Y0049543D01*
X0059536Y0049732D01*
X0059601Y0049919D01*
X0059670Y0050105D01*
X0059743Y0050289D01*
X0059821Y0050471D01*
X0059904Y0050651D01*
X0059991Y0050829D01*
X0060082Y0051005D01*
X0060178Y0051178D01*
X0060277Y0051349D01*
X0060381Y0051518D01*
X0060489Y0051684D01*
X0060601Y0051847D01*
X0060717Y0052008D01*
X0060837Y0052166D01*
X0060961Y0052320D01*
X0061089Y0052472D01*
X0061220Y0052620D01*
X0061355Y0052765D01*
X0061493Y0052907D01*
X0061635Y0053045D01*
X0061780Y0053180D01*
X0061928Y0053311D01*
X0062080Y0053439D01*
X0062234Y0053563D01*
X0062392Y0053683D01*
X0062553Y0053799D01*
X0062716Y0053911D01*
X0062882Y0054019D01*
X0063051Y0054123D01*
X0063222Y0054222D01*
X0063395Y0054318D01*
X0063571Y0054409D01*
X0063749Y0054496D01*
X0063929Y0054579D01*
X0064111Y0054657D01*
X0064295Y0054730D01*
X0064481Y0054799D01*
X0064668Y0054864D01*
X0064857Y0054923D01*
X0065047Y0054979D01*
X0065239Y0055029D01*
X0065432Y0055075D01*
X0065625Y0055116D01*
X0065820Y0055152D01*
X0066016Y0055184D01*
X0066212Y0055210D01*
X0066409Y0055232D01*
X0066606Y0055249D01*
X0066804Y0055261D01*
X0067002Y0055269D01*
X0067200Y0055271D01*
X0067398Y0055269D01*
X0067596Y0055261D01*
X0067794Y0055249D01*
X0067991Y0055232D01*
X0068188Y0055210D01*
X0068384Y0055184D01*
X0068580Y0055152D01*
X0068775Y0055116D01*
X0068968Y0055075D01*
X0069161Y0055029D01*
X0069353Y0054979D01*
X0069543Y0054923D01*
X0069732Y0054864D01*
X0069919Y0054799D01*
X0070105Y0054730D01*
X0070289Y0054657D01*
X0070471Y0054579D01*
X0070651Y0054496D01*
X0070829Y0054409D01*
X0071005Y0054318D01*
X0071178Y0054222D01*
X0071349Y0054123D01*
X0071518Y0054019D01*
X0071684Y0053911D01*
X0071847Y0053799D01*
X0072008Y0053683D01*
X0072166Y0053563D01*
X0072320Y0053439D01*
X0072472Y0053311D01*
X0072620Y0053180D01*
X0072765Y0053045D01*
X0072907Y0052907D01*
X0073045Y0052765D01*
X0073180Y0052620D01*
X0073311Y0052472D01*
X0073439Y0052320D01*
X0073563Y0052166D01*
X0073683Y0052008D01*
X0073799Y0051847D01*
X0073911Y0051684D01*
X0074019Y0051518D01*
X0074123Y0051349D01*
X0074222Y0051178D01*
X0074318Y0051005D01*
X0074409Y0050829D01*
X0074496Y0050651D01*
X0074579Y0050471D01*
X0074657Y0050289D01*
X0074730Y0050105D01*
X0074799Y0049919D01*
X0074864Y0049732D01*
X0074923Y0049543D01*
X0074979Y0049353D01*
X0075029Y0049161D01*
X0075075Y0048968D01*
X0075116Y0048775D01*
X0075152Y0048580D01*
X0075184Y0048384D01*
X0075210Y0048188D01*
X0075232Y0047991D01*
X0075249Y0047794D01*
X0075261Y0047596D01*
X0075269Y0047398D01*
X0075271Y0047200D01*
X0075269Y0047002D01*
X0075261Y0046804D01*
X0075249Y0046606D01*
X0075232Y0046409D01*
X0075210Y0046212D01*
X0075184Y0046016D01*
X0075152Y0045820D01*
X0075116Y0045625D01*
X0075075Y0045432D01*
X0075029Y0045239D01*
X0074979Y0045047D01*
X0074923Y0044857D01*
X0074864Y0044668D01*
X0074799Y0044481D01*
X0074730Y0044295D01*
X0074657Y0044111D01*
X0074579Y0043929D01*
X0074496Y0043749D01*
X0074409Y0043571D01*
X0074318Y0043395D01*
X0074222Y0043222D01*
X0074123Y0043051D01*
X0074019Y0042882D01*
X0073911Y0042716D01*
X0073799Y0042553D01*
X0073683Y0042392D01*
X0073563Y0042234D01*
X0073439Y0042080D01*
X0073311Y0041928D01*
X0073180Y0041780D01*
X0073045Y0041635D01*
X0072907Y0041493D01*
X0072765Y0041355D01*
X0072620Y0041220D01*
X0072472Y0041089D01*
X0072320Y0040961D01*
X0072166Y0040837D01*
X0072008Y0040717D01*
X0071847Y0040601D01*
X0071684Y0040489D01*
X0071518Y0040381D01*
X0071349Y0040277D01*
X0071178Y0040178D01*
X0071005Y0040082D01*
X0070829Y0039991D01*
X0070651Y0039904D01*
X0070471Y0039821D01*
X0070289Y0039743D01*
X0070105Y0039670D01*
X0069919Y0039601D01*
X0069732Y0039536D01*
X0069543Y0039477D01*
X0069353Y0039421D01*
X0069161Y0039371D01*
X0068968Y0039325D01*
X0068775Y0039284D01*
X0068580Y0039248D01*
X0068384Y0039216D01*
X0068188Y0039190D01*
X0067991Y0039168D01*
X0067794Y0039151D01*
X0067596Y0039139D01*
X0067398Y0039131D01*
X0067200Y0039129D01*
X0067002Y0039131D01*
X0066804Y0039139D01*
X0066606Y0039151D01*
X0066409Y0039168D01*
X0066212Y0039190D01*
X0066016Y0039216D01*
X0065820Y0039248D01*
X0065625Y0039284D01*
X0065432Y0039325D01*
X0065239Y0039371D01*
X0065047Y0039421D01*
X0064857Y0039477D01*
X0064668Y0039536D01*
X0064481Y0039601D01*
X0064295Y0039670D01*
X0064111Y0039743D01*
X0063929Y0039821D01*
X0063749Y0039904D01*
X0063571Y0039991D01*
X0063395Y0040082D01*
X0063222Y0040178D01*
X0063051Y0040277D01*
X0062882Y0040381D01*
X0062716Y0040489D01*
X0062553Y0040601D01*
X0062392Y0040717D01*
X0062234Y0040837D01*
X0062080Y0040961D01*
X0061928Y0041089D01*
X0061780Y0041220D01*
X0061635Y0041355D01*
X0061493Y0041493D01*
X0061355Y0041635D01*
X0061220Y0041780D01*
X0061089Y0041928D01*
X0060961Y0042080D01*
X0060837Y0042234D01*
X0060717Y0042392D01*
X0060601Y0042553D01*
X0060489Y0042716D01*
X0060381Y0042882D01*
X0060277Y0043051D01*
X0060178Y0043222D01*
X0060082Y0043395D01*
X0059991Y0043571D01*
X0059904Y0043749D01*
X0059821Y0043929D01*
X0059743Y0044111D01*
X0059670Y0044295D01*
X0059601Y0044481D01*
X0059536Y0044668D01*
X0059477Y0044857D01*
X0059421Y0045047D01*
X0059371Y0045239D01*
X0059325Y0045432D01*
X0059284Y0045625D01*
X0059248Y0045820D01*
X0059216Y0046016D01*
X0059190Y0046212D01*
X0059168Y0046409D01*
X0059151Y0046606D01*
X0059139Y0046804D01*
X0059131Y0047002D01*
X0059129Y0047200D01*
X0084129Y0162200D02*
X0084131Y0162398D01*
X0084139Y0162596D01*
X0084151Y0162794D01*
X0084168Y0162991D01*
X0084190Y0163188D01*
X0084216Y0163384D01*
X0084248Y0163580D01*
X0084284Y0163775D01*
X0084325Y0163968D01*
X0084371Y0164161D01*
X0084421Y0164353D01*
X0084477Y0164543D01*
X0084536Y0164732D01*
X0084601Y0164919D01*
X0084670Y0165105D01*
X0084743Y0165289D01*
X0084821Y0165471D01*
X0084904Y0165651D01*
X0084991Y0165829D01*
X0085082Y0166005D01*
X0085178Y0166178D01*
X0085277Y0166349D01*
X0085381Y0166518D01*
X0085489Y0166684D01*
X0085601Y0166847D01*
X0085717Y0167008D01*
X0085837Y0167166D01*
X0085961Y0167320D01*
X0086089Y0167472D01*
X0086220Y0167620D01*
X0086355Y0167765D01*
X0086493Y0167907D01*
X0086635Y0168045D01*
X0086780Y0168180D01*
X0086928Y0168311D01*
X0087080Y0168439D01*
X0087234Y0168563D01*
X0087392Y0168683D01*
X0087553Y0168799D01*
X0087716Y0168911D01*
X0087882Y0169019D01*
X0088051Y0169123D01*
X0088222Y0169222D01*
X0088395Y0169318D01*
X0088571Y0169409D01*
X0088749Y0169496D01*
X0088929Y0169579D01*
X0089111Y0169657D01*
X0089295Y0169730D01*
X0089481Y0169799D01*
X0089668Y0169864D01*
X0089857Y0169923D01*
X0090047Y0169979D01*
X0090239Y0170029D01*
X0090432Y0170075D01*
X0090625Y0170116D01*
X0090820Y0170152D01*
X0091016Y0170184D01*
X0091212Y0170210D01*
X0091409Y0170232D01*
X0091606Y0170249D01*
X0091804Y0170261D01*
X0092002Y0170269D01*
X0092200Y0170271D01*
X0092398Y0170269D01*
X0092596Y0170261D01*
X0092794Y0170249D01*
X0092991Y0170232D01*
X0093188Y0170210D01*
X0093384Y0170184D01*
X0093580Y0170152D01*
X0093775Y0170116D01*
X0093968Y0170075D01*
X0094161Y0170029D01*
X0094353Y0169979D01*
X0094543Y0169923D01*
X0094732Y0169864D01*
X0094919Y0169799D01*
X0095105Y0169730D01*
X0095289Y0169657D01*
X0095471Y0169579D01*
X0095651Y0169496D01*
X0095829Y0169409D01*
X0096005Y0169318D01*
X0096178Y0169222D01*
X0096349Y0169123D01*
X0096518Y0169019D01*
X0096684Y0168911D01*
X0096847Y0168799D01*
X0097008Y0168683D01*
X0097166Y0168563D01*
X0097320Y0168439D01*
X0097472Y0168311D01*
X0097620Y0168180D01*
X0097765Y0168045D01*
X0097907Y0167907D01*
X0098045Y0167765D01*
X0098180Y0167620D01*
X0098311Y0167472D01*
X0098439Y0167320D01*
X0098563Y0167166D01*
X0098683Y0167008D01*
X0098799Y0166847D01*
X0098911Y0166684D01*
X0099019Y0166518D01*
X0099123Y0166349D01*
X0099222Y0166178D01*
X0099318Y0166005D01*
X0099409Y0165829D01*
X0099496Y0165651D01*
X0099579Y0165471D01*
X0099657Y0165289D01*
X0099730Y0165105D01*
X0099799Y0164919D01*
X0099864Y0164732D01*
X0099923Y0164543D01*
X0099979Y0164353D01*
X0100029Y0164161D01*
X0100075Y0163968D01*
X0100116Y0163775D01*
X0100152Y0163580D01*
X0100184Y0163384D01*
X0100210Y0163188D01*
X0100232Y0162991D01*
X0100249Y0162794D01*
X0100261Y0162596D01*
X0100269Y0162398D01*
X0100271Y0162200D01*
X0100269Y0162002D01*
X0100261Y0161804D01*
X0100249Y0161606D01*
X0100232Y0161409D01*
X0100210Y0161212D01*
X0100184Y0161016D01*
X0100152Y0160820D01*
X0100116Y0160625D01*
X0100075Y0160432D01*
X0100029Y0160239D01*
X0099979Y0160047D01*
X0099923Y0159857D01*
X0099864Y0159668D01*
X0099799Y0159481D01*
X0099730Y0159295D01*
X0099657Y0159111D01*
X0099579Y0158929D01*
X0099496Y0158749D01*
X0099409Y0158571D01*
X0099318Y0158395D01*
X0099222Y0158222D01*
X0099123Y0158051D01*
X0099019Y0157882D01*
X0098911Y0157716D01*
X0098799Y0157553D01*
X0098683Y0157392D01*
X0098563Y0157234D01*
X0098439Y0157080D01*
X0098311Y0156928D01*
X0098180Y0156780D01*
X0098045Y0156635D01*
X0097907Y0156493D01*
X0097765Y0156355D01*
X0097620Y0156220D01*
X0097472Y0156089D01*
X0097320Y0155961D01*
X0097166Y0155837D01*
X0097008Y0155717D01*
X0096847Y0155601D01*
X0096684Y0155489D01*
X0096518Y0155381D01*
X0096349Y0155277D01*
X0096178Y0155178D01*
X0096005Y0155082D01*
X0095829Y0154991D01*
X0095651Y0154904D01*
X0095471Y0154821D01*
X0095289Y0154743D01*
X0095105Y0154670D01*
X0094919Y0154601D01*
X0094732Y0154536D01*
X0094543Y0154477D01*
X0094353Y0154421D01*
X0094161Y0154371D01*
X0093968Y0154325D01*
X0093775Y0154284D01*
X0093580Y0154248D01*
X0093384Y0154216D01*
X0093188Y0154190D01*
X0092991Y0154168D01*
X0092794Y0154151D01*
X0092596Y0154139D01*
X0092398Y0154131D01*
X0092200Y0154129D01*
X0092002Y0154131D01*
X0091804Y0154139D01*
X0091606Y0154151D01*
X0091409Y0154168D01*
X0091212Y0154190D01*
X0091016Y0154216D01*
X0090820Y0154248D01*
X0090625Y0154284D01*
X0090432Y0154325D01*
X0090239Y0154371D01*
X0090047Y0154421D01*
X0089857Y0154477D01*
X0089668Y0154536D01*
X0089481Y0154601D01*
X0089295Y0154670D01*
X0089111Y0154743D01*
X0088929Y0154821D01*
X0088749Y0154904D01*
X0088571Y0154991D01*
X0088395Y0155082D01*
X0088222Y0155178D01*
X0088051Y0155277D01*
X0087882Y0155381D01*
X0087716Y0155489D01*
X0087553Y0155601D01*
X0087392Y0155717D01*
X0087234Y0155837D01*
X0087080Y0155961D01*
X0086928Y0156089D01*
X0086780Y0156220D01*
X0086635Y0156355D01*
X0086493Y0156493D01*
X0086355Y0156635D01*
X0086220Y0156780D01*
X0086089Y0156928D01*
X0085961Y0157080D01*
X0085837Y0157234D01*
X0085717Y0157392D01*
X0085601Y0157553D01*
X0085489Y0157716D01*
X0085381Y0157882D01*
X0085277Y0158051D01*
X0085178Y0158222D01*
X0085082Y0158395D01*
X0084991Y0158571D01*
X0084904Y0158749D01*
X0084821Y0158929D01*
X0084743Y0159111D01*
X0084670Y0159295D01*
X0084601Y0159481D01*
X0084536Y0159668D01*
X0084477Y0159857D01*
X0084421Y0160047D01*
X0084371Y0160239D01*
X0084325Y0160432D01*
X0084284Y0160625D01*
X0084248Y0160820D01*
X0084216Y0161016D01*
X0084190Y0161212D01*
X0084168Y0161409D01*
X0084151Y0161606D01*
X0084139Y0161804D01*
X0084131Y0162002D01*
X0084129Y0162200D01*
X0174129Y0162200D02*
X0174131Y0162398D01*
X0174139Y0162596D01*
X0174151Y0162794D01*
X0174168Y0162991D01*
X0174190Y0163188D01*
X0174216Y0163384D01*
X0174248Y0163580D01*
X0174284Y0163775D01*
X0174325Y0163968D01*
X0174371Y0164161D01*
X0174421Y0164353D01*
X0174477Y0164543D01*
X0174536Y0164732D01*
X0174601Y0164919D01*
X0174670Y0165105D01*
X0174743Y0165289D01*
X0174821Y0165471D01*
X0174904Y0165651D01*
X0174991Y0165829D01*
X0175082Y0166005D01*
X0175178Y0166178D01*
X0175277Y0166349D01*
X0175381Y0166518D01*
X0175489Y0166684D01*
X0175601Y0166847D01*
X0175717Y0167008D01*
X0175837Y0167166D01*
X0175961Y0167320D01*
X0176089Y0167472D01*
X0176220Y0167620D01*
X0176355Y0167765D01*
X0176493Y0167907D01*
X0176635Y0168045D01*
X0176780Y0168180D01*
X0176928Y0168311D01*
X0177080Y0168439D01*
X0177234Y0168563D01*
X0177392Y0168683D01*
X0177553Y0168799D01*
X0177716Y0168911D01*
X0177882Y0169019D01*
X0178051Y0169123D01*
X0178222Y0169222D01*
X0178395Y0169318D01*
X0178571Y0169409D01*
X0178749Y0169496D01*
X0178929Y0169579D01*
X0179111Y0169657D01*
X0179295Y0169730D01*
X0179481Y0169799D01*
X0179668Y0169864D01*
X0179857Y0169923D01*
X0180047Y0169979D01*
X0180239Y0170029D01*
X0180432Y0170075D01*
X0180625Y0170116D01*
X0180820Y0170152D01*
X0181016Y0170184D01*
X0181212Y0170210D01*
X0181409Y0170232D01*
X0181606Y0170249D01*
X0181804Y0170261D01*
X0182002Y0170269D01*
X0182200Y0170271D01*
X0182398Y0170269D01*
X0182596Y0170261D01*
X0182794Y0170249D01*
X0182991Y0170232D01*
X0183188Y0170210D01*
X0183384Y0170184D01*
X0183580Y0170152D01*
X0183775Y0170116D01*
X0183968Y0170075D01*
X0184161Y0170029D01*
X0184353Y0169979D01*
X0184543Y0169923D01*
X0184732Y0169864D01*
X0184919Y0169799D01*
X0185105Y0169730D01*
X0185289Y0169657D01*
X0185471Y0169579D01*
X0185651Y0169496D01*
X0185829Y0169409D01*
X0186005Y0169318D01*
X0186178Y0169222D01*
X0186349Y0169123D01*
X0186518Y0169019D01*
X0186684Y0168911D01*
X0186847Y0168799D01*
X0187008Y0168683D01*
X0187166Y0168563D01*
X0187320Y0168439D01*
X0187472Y0168311D01*
X0187620Y0168180D01*
X0187765Y0168045D01*
X0187907Y0167907D01*
X0188045Y0167765D01*
X0188180Y0167620D01*
X0188311Y0167472D01*
X0188439Y0167320D01*
X0188563Y0167166D01*
X0188683Y0167008D01*
X0188799Y0166847D01*
X0188911Y0166684D01*
X0189019Y0166518D01*
X0189123Y0166349D01*
X0189222Y0166178D01*
X0189318Y0166005D01*
X0189409Y0165829D01*
X0189496Y0165651D01*
X0189579Y0165471D01*
X0189657Y0165289D01*
X0189730Y0165105D01*
X0189799Y0164919D01*
X0189864Y0164732D01*
X0189923Y0164543D01*
X0189979Y0164353D01*
X0190029Y0164161D01*
X0190075Y0163968D01*
X0190116Y0163775D01*
X0190152Y0163580D01*
X0190184Y0163384D01*
X0190210Y0163188D01*
X0190232Y0162991D01*
X0190249Y0162794D01*
X0190261Y0162596D01*
X0190269Y0162398D01*
X0190271Y0162200D01*
X0190269Y0162002D01*
X0190261Y0161804D01*
X0190249Y0161606D01*
X0190232Y0161409D01*
X0190210Y0161212D01*
X0190184Y0161016D01*
X0190152Y0160820D01*
X0190116Y0160625D01*
X0190075Y0160432D01*
X0190029Y0160239D01*
X0189979Y0160047D01*
X0189923Y0159857D01*
X0189864Y0159668D01*
X0189799Y0159481D01*
X0189730Y0159295D01*
X0189657Y0159111D01*
X0189579Y0158929D01*
X0189496Y0158749D01*
X0189409Y0158571D01*
X0189318Y0158395D01*
X0189222Y0158222D01*
X0189123Y0158051D01*
X0189019Y0157882D01*
X0188911Y0157716D01*
X0188799Y0157553D01*
X0188683Y0157392D01*
X0188563Y0157234D01*
X0188439Y0157080D01*
X0188311Y0156928D01*
X0188180Y0156780D01*
X0188045Y0156635D01*
X0187907Y0156493D01*
X0187765Y0156355D01*
X0187620Y0156220D01*
X0187472Y0156089D01*
X0187320Y0155961D01*
X0187166Y0155837D01*
X0187008Y0155717D01*
X0186847Y0155601D01*
X0186684Y0155489D01*
X0186518Y0155381D01*
X0186349Y0155277D01*
X0186178Y0155178D01*
X0186005Y0155082D01*
X0185829Y0154991D01*
X0185651Y0154904D01*
X0185471Y0154821D01*
X0185289Y0154743D01*
X0185105Y0154670D01*
X0184919Y0154601D01*
X0184732Y0154536D01*
X0184543Y0154477D01*
X0184353Y0154421D01*
X0184161Y0154371D01*
X0183968Y0154325D01*
X0183775Y0154284D01*
X0183580Y0154248D01*
X0183384Y0154216D01*
X0183188Y0154190D01*
X0182991Y0154168D01*
X0182794Y0154151D01*
X0182596Y0154139D01*
X0182398Y0154131D01*
X0182200Y0154129D01*
X0182002Y0154131D01*
X0181804Y0154139D01*
X0181606Y0154151D01*
X0181409Y0154168D01*
X0181212Y0154190D01*
X0181016Y0154216D01*
X0180820Y0154248D01*
X0180625Y0154284D01*
X0180432Y0154325D01*
X0180239Y0154371D01*
X0180047Y0154421D01*
X0179857Y0154477D01*
X0179668Y0154536D01*
X0179481Y0154601D01*
X0179295Y0154670D01*
X0179111Y0154743D01*
X0178929Y0154821D01*
X0178749Y0154904D01*
X0178571Y0154991D01*
X0178395Y0155082D01*
X0178222Y0155178D01*
X0178051Y0155277D01*
X0177882Y0155381D01*
X0177716Y0155489D01*
X0177553Y0155601D01*
X0177392Y0155717D01*
X0177234Y0155837D01*
X0177080Y0155961D01*
X0176928Y0156089D01*
X0176780Y0156220D01*
X0176635Y0156355D01*
X0176493Y0156493D01*
X0176355Y0156635D01*
X0176220Y0156780D01*
X0176089Y0156928D01*
X0175961Y0157080D01*
X0175837Y0157234D01*
X0175717Y0157392D01*
X0175601Y0157553D01*
X0175489Y0157716D01*
X0175381Y0157882D01*
X0175277Y0158051D01*
X0175178Y0158222D01*
X0175082Y0158395D01*
X0174991Y0158571D01*
X0174904Y0158749D01*
X0174821Y0158929D01*
X0174743Y0159111D01*
X0174670Y0159295D01*
X0174601Y0159481D01*
X0174536Y0159668D01*
X0174477Y0159857D01*
X0174421Y0160047D01*
X0174371Y0160239D01*
X0174325Y0160432D01*
X0174284Y0160625D01*
X0174248Y0160820D01*
X0174216Y0161016D01*
X0174190Y0161212D01*
X0174168Y0161409D01*
X0174151Y0161606D01*
X0174139Y0161804D01*
X0174131Y0162002D01*
X0174129Y0162200D01*
X0199129Y0047200D02*
X0199131Y0047398D01*
X0199139Y0047596D01*
X0199151Y0047794D01*
X0199168Y0047991D01*
X0199190Y0048188D01*
X0199216Y0048384D01*
X0199248Y0048580D01*
X0199284Y0048775D01*
X0199325Y0048968D01*
X0199371Y0049161D01*
X0199421Y0049353D01*
X0199477Y0049543D01*
X0199536Y0049732D01*
X0199601Y0049919D01*
X0199670Y0050105D01*
X0199743Y0050289D01*
X0199821Y0050471D01*
X0199904Y0050651D01*
X0199991Y0050829D01*
X0200082Y0051005D01*
X0200178Y0051178D01*
X0200277Y0051349D01*
X0200381Y0051518D01*
X0200489Y0051684D01*
X0200601Y0051847D01*
X0200717Y0052008D01*
X0200837Y0052166D01*
X0200961Y0052320D01*
X0201089Y0052472D01*
X0201220Y0052620D01*
X0201355Y0052765D01*
X0201493Y0052907D01*
X0201635Y0053045D01*
X0201780Y0053180D01*
X0201928Y0053311D01*
X0202080Y0053439D01*
X0202234Y0053563D01*
X0202392Y0053683D01*
X0202553Y0053799D01*
X0202716Y0053911D01*
X0202882Y0054019D01*
X0203051Y0054123D01*
X0203222Y0054222D01*
X0203395Y0054318D01*
X0203571Y0054409D01*
X0203749Y0054496D01*
X0203929Y0054579D01*
X0204111Y0054657D01*
X0204295Y0054730D01*
X0204481Y0054799D01*
X0204668Y0054864D01*
X0204857Y0054923D01*
X0205047Y0054979D01*
X0205239Y0055029D01*
X0205432Y0055075D01*
X0205625Y0055116D01*
X0205820Y0055152D01*
X0206016Y0055184D01*
X0206212Y0055210D01*
X0206409Y0055232D01*
X0206606Y0055249D01*
X0206804Y0055261D01*
X0207002Y0055269D01*
X0207200Y0055271D01*
X0207398Y0055269D01*
X0207596Y0055261D01*
X0207794Y0055249D01*
X0207991Y0055232D01*
X0208188Y0055210D01*
X0208384Y0055184D01*
X0208580Y0055152D01*
X0208775Y0055116D01*
X0208968Y0055075D01*
X0209161Y0055029D01*
X0209353Y0054979D01*
X0209543Y0054923D01*
X0209732Y0054864D01*
X0209919Y0054799D01*
X0210105Y0054730D01*
X0210289Y0054657D01*
X0210471Y0054579D01*
X0210651Y0054496D01*
X0210829Y0054409D01*
X0211005Y0054318D01*
X0211178Y0054222D01*
X0211349Y0054123D01*
X0211518Y0054019D01*
X0211684Y0053911D01*
X0211847Y0053799D01*
X0212008Y0053683D01*
X0212166Y0053563D01*
X0212320Y0053439D01*
X0212472Y0053311D01*
X0212620Y0053180D01*
X0212765Y0053045D01*
X0212907Y0052907D01*
X0213045Y0052765D01*
X0213180Y0052620D01*
X0213311Y0052472D01*
X0213439Y0052320D01*
X0213563Y0052166D01*
X0213683Y0052008D01*
X0213799Y0051847D01*
X0213911Y0051684D01*
X0214019Y0051518D01*
X0214123Y0051349D01*
X0214222Y0051178D01*
X0214318Y0051005D01*
X0214409Y0050829D01*
X0214496Y0050651D01*
X0214579Y0050471D01*
X0214657Y0050289D01*
X0214730Y0050105D01*
X0214799Y0049919D01*
X0214864Y0049732D01*
X0214923Y0049543D01*
X0214979Y0049353D01*
X0215029Y0049161D01*
X0215075Y0048968D01*
X0215116Y0048775D01*
X0215152Y0048580D01*
X0215184Y0048384D01*
X0215210Y0048188D01*
X0215232Y0047991D01*
X0215249Y0047794D01*
X0215261Y0047596D01*
X0215269Y0047398D01*
X0215271Y0047200D01*
X0215269Y0047002D01*
X0215261Y0046804D01*
X0215249Y0046606D01*
X0215232Y0046409D01*
X0215210Y0046212D01*
X0215184Y0046016D01*
X0215152Y0045820D01*
X0215116Y0045625D01*
X0215075Y0045432D01*
X0215029Y0045239D01*
X0214979Y0045047D01*
X0214923Y0044857D01*
X0214864Y0044668D01*
X0214799Y0044481D01*
X0214730Y0044295D01*
X0214657Y0044111D01*
X0214579Y0043929D01*
X0214496Y0043749D01*
X0214409Y0043571D01*
X0214318Y0043395D01*
X0214222Y0043222D01*
X0214123Y0043051D01*
X0214019Y0042882D01*
X0213911Y0042716D01*
X0213799Y0042553D01*
X0213683Y0042392D01*
X0213563Y0042234D01*
X0213439Y0042080D01*
X0213311Y0041928D01*
X0213180Y0041780D01*
X0213045Y0041635D01*
X0212907Y0041493D01*
X0212765Y0041355D01*
X0212620Y0041220D01*
X0212472Y0041089D01*
X0212320Y0040961D01*
X0212166Y0040837D01*
X0212008Y0040717D01*
X0211847Y0040601D01*
X0211684Y0040489D01*
X0211518Y0040381D01*
X0211349Y0040277D01*
X0211178Y0040178D01*
X0211005Y0040082D01*
X0210829Y0039991D01*
X0210651Y0039904D01*
X0210471Y0039821D01*
X0210289Y0039743D01*
X0210105Y0039670D01*
X0209919Y0039601D01*
X0209732Y0039536D01*
X0209543Y0039477D01*
X0209353Y0039421D01*
X0209161Y0039371D01*
X0208968Y0039325D01*
X0208775Y0039284D01*
X0208580Y0039248D01*
X0208384Y0039216D01*
X0208188Y0039190D01*
X0207991Y0039168D01*
X0207794Y0039151D01*
X0207596Y0039139D01*
X0207398Y0039131D01*
X0207200Y0039129D01*
X0207002Y0039131D01*
X0206804Y0039139D01*
X0206606Y0039151D01*
X0206409Y0039168D01*
X0206212Y0039190D01*
X0206016Y0039216D01*
X0205820Y0039248D01*
X0205625Y0039284D01*
X0205432Y0039325D01*
X0205239Y0039371D01*
X0205047Y0039421D01*
X0204857Y0039477D01*
X0204668Y0039536D01*
X0204481Y0039601D01*
X0204295Y0039670D01*
X0204111Y0039743D01*
X0203929Y0039821D01*
X0203749Y0039904D01*
X0203571Y0039991D01*
X0203395Y0040082D01*
X0203222Y0040178D01*
X0203051Y0040277D01*
X0202882Y0040381D01*
X0202716Y0040489D01*
X0202553Y0040601D01*
X0202392Y0040717D01*
X0202234Y0040837D01*
X0202080Y0040961D01*
X0201928Y0041089D01*
X0201780Y0041220D01*
X0201635Y0041355D01*
X0201493Y0041493D01*
X0201355Y0041635D01*
X0201220Y0041780D01*
X0201089Y0041928D01*
X0200961Y0042080D01*
X0200837Y0042234D01*
X0200717Y0042392D01*
X0200601Y0042553D01*
X0200489Y0042716D01*
X0200381Y0042882D01*
X0200277Y0043051D01*
X0200178Y0043222D01*
X0200082Y0043395D01*
X0199991Y0043571D01*
X0199904Y0043749D01*
X0199821Y0043929D01*
X0199743Y0044111D01*
X0199670Y0044295D01*
X0199601Y0044481D01*
X0199536Y0044668D01*
X0199477Y0044857D01*
X0199421Y0045047D01*
X0199371Y0045239D01*
X0199325Y0045432D01*
X0199284Y0045625D01*
X0199248Y0045820D01*
X0199216Y0046016D01*
X0199190Y0046212D01*
X0199168Y0046409D01*
X0199151Y0046606D01*
X0199139Y0046804D01*
X0199131Y0047002D01*
X0199129Y0047200D01*
M02*
