G75*
%MOIN*%
%OFA0B0*%
%FSLAX25Y25*%
%IPPOS*%
%LPD*%
%AMOC8*
5,1,8,0,0,1.08239X$1,22.5*
%
%ADD10C,0.07600*%
%ADD11R,0.07600X0.07600*%
%ADD12C,0.06000*%
%ADD13R,0.05150X0.05150*%
%ADD14R,0.04724X0.04724*%
%ADD15R,0.05118X0.06299*%
%ADD16C,0.10039*%
%ADD17C,0.02400*%
%ADD18C,0.05000*%
D10*
X0037200Y0177200D03*
X0127200Y0177200D03*
X0217200Y0177200D03*
D11*
X0237200Y0177200D03*
X0147200Y0177200D03*
X0057200Y0177200D03*
D12*
X0057200Y0222200D03*
X0067200Y0222200D03*
X0077200Y0222200D03*
X0107200Y0222200D03*
X0117200Y0222200D03*
X0127200Y0222200D03*
X0147200Y0222200D03*
X0157200Y0222200D03*
X0167200Y0222200D03*
X0197200Y0222200D03*
X0207200Y0222200D03*
X0217200Y0222200D03*
X0237200Y0222200D03*
X0247200Y0222200D03*
X0257200Y0222200D03*
X0167200Y0047200D03*
X0157200Y0047200D03*
X0127200Y0047200D03*
X0117200Y0047200D03*
X0107200Y0047200D03*
X0037200Y0222200D03*
X0027200Y0222200D03*
X0017200Y0222200D03*
D13*
X0022200Y0147200D03*
X0072200Y0147200D03*
X0112200Y0147200D03*
X0162200Y0147200D03*
X0202200Y0147200D03*
X0252200Y0147200D03*
X0252200Y0077200D03*
X0202200Y0077200D03*
X0162200Y0077200D03*
X0112200Y0077200D03*
X0072200Y0077200D03*
X0022200Y0077200D03*
D14*
X0073066Y0202200D03*
X0073066Y0202200D03*
X0081334Y0202200D03*
X0081334Y0202200D03*
X0163066Y0202200D03*
X0163066Y0202200D03*
X0171334Y0202200D03*
X0171334Y0202200D03*
X0253066Y0202200D03*
X0253066Y0202200D03*
X0261334Y0202200D03*
X0261334Y0202200D03*
D15*
X0260940Y0187200D03*
X0260940Y0187200D03*
X0253460Y0187200D03*
X0253460Y0187200D03*
X0170940Y0187200D03*
X0170940Y0187200D03*
X0163460Y0187200D03*
X0163460Y0187200D03*
X0080940Y0187200D03*
X0080940Y0187200D03*
X0073460Y0187200D03*
X0073460Y0187200D03*
D16*
X0032220Y0047791D02*
X0022180Y0047791D01*
X0022180Y0032200D02*
X0032220Y0032200D01*
X0032220Y0016609D02*
X0022180Y0016609D01*
X0242180Y0016609D02*
X0252220Y0016609D01*
X0252220Y0032200D02*
X0242180Y0032200D01*
X0242180Y0047791D02*
X0252220Y0047791D01*
D17*
X0012200Y0030412D02*
X0012200Y0007400D01*
X0267000Y0007400D01*
X0267000Y0097200D01*
X0123988Y0097200D01*
X0126269Y0094919D01*
X0127000Y0093155D01*
X0127000Y0061245D01*
X0126269Y0059481D01*
X0124919Y0058131D01*
X0122000Y0055212D01*
X0122000Y0051734D01*
X0122200Y0051534D01*
X0123461Y0052795D01*
X0125887Y0053800D01*
X0128513Y0053800D01*
X0130939Y0052795D01*
X0132795Y0050939D01*
X0133800Y0048513D01*
X0133800Y0045887D01*
X0132795Y0043461D01*
X0130939Y0041605D01*
X0128513Y0040600D01*
X0125887Y0040600D01*
X0123461Y0041605D01*
X0122200Y0042866D01*
X0120939Y0041605D01*
X0118513Y0040600D01*
X0115887Y0040600D01*
X0113461Y0041605D01*
X0112200Y0042866D01*
X0110939Y0041605D01*
X0108513Y0040600D01*
X0105887Y0040600D01*
X0103461Y0041605D01*
X0101605Y0043461D01*
X0100600Y0045887D01*
X0100600Y0048513D01*
X0101605Y0050939D01*
X0103461Y0052795D01*
X0105887Y0053800D01*
X0108513Y0053800D01*
X0110939Y0052795D01*
X0112200Y0051534D01*
X0112400Y0051734D01*
X0112400Y0058155D01*
X0113131Y0059919D01*
X0117400Y0064188D01*
X0117400Y0072159D01*
X0116814Y0071573D01*
X0115491Y0071025D01*
X0108909Y0071025D01*
X0107586Y0071573D01*
X0106573Y0072586D01*
X0106025Y0073909D01*
X0106025Y0080491D01*
X0106573Y0081814D01*
X0107586Y0082827D01*
X0108909Y0083375D01*
X0115491Y0083375D01*
X0116814Y0082827D01*
X0117400Y0082241D01*
X0117400Y0090212D01*
X0110412Y0097200D01*
X0017000Y0097200D01*
X0017000Y0082241D01*
X0017586Y0082827D01*
X0018909Y0083375D01*
X0025491Y0083375D01*
X0026814Y0082827D01*
X0027827Y0081814D01*
X0028375Y0080491D01*
X0028375Y0073909D01*
X0027827Y0072586D01*
X0026814Y0071573D01*
X0025491Y0071025D01*
X0018909Y0071025D01*
X0017586Y0071573D01*
X0017000Y0072159D01*
X0017000Y0052820D01*
X0017410Y0053230D01*
X0018161Y0053806D01*
X0018980Y0054280D01*
X0019855Y0054642D01*
X0020769Y0054887D01*
X0021707Y0055010D01*
X0026727Y0055010D01*
X0026727Y0048264D01*
X0027673Y0048264D01*
X0027673Y0055010D01*
X0032693Y0055010D01*
X0033631Y0054887D01*
X0034545Y0054642D01*
X0035420Y0054280D01*
X0036239Y0053806D01*
X0036990Y0053230D01*
X0037659Y0052561D01*
X0038236Y0051810D01*
X0038709Y0050991D01*
X0039071Y0050116D01*
X0039316Y0049202D01*
X0039439Y0048264D01*
X0027673Y0048264D01*
X0027673Y0047317D01*
X0039439Y0047317D01*
X0039316Y0046379D01*
X0039071Y0045465D01*
X0038709Y0044591D01*
X0038236Y0043771D01*
X0037659Y0043020D01*
X0036990Y0042351D01*
X0036239Y0041775D01*
X0035420Y0041302D01*
X0034545Y0040939D01*
X0033999Y0040793D01*
X0037102Y0039507D01*
X0039527Y0037083D01*
X0040839Y0033915D01*
X0040839Y0030485D01*
X0039527Y0027317D01*
X0037102Y0024893D01*
X0035925Y0024405D01*
X0037102Y0023917D01*
X0039527Y0021492D01*
X0040839Y0018324D01*
X0040839Y0014895D01*
X0039527Y0011727D01*
X0037102Y0009302D01*
X0033934Y0007990D01*
X0020466Y0007990D01*
X0017298Y0009302D01*
X0014873Y0011727D01*
X0013561Y0014895D01*
X0013561Y0018324D01*
X0014873Y0021492D01*
X0017298Y0023917D01*
X0018475Y0024405D01*
X0017298Y0024893D01*
X0014873Y0027317D01*
X0014547Y0028103D01*
X0014481Y0028131D01*
X0013131Y0029481D01*
X0012200Y0030412D01*
X0012200Y0028584D02*
X0014028Y0028584D01*
X0017200Y0032200D02*
X0027200Y0032200D01*
X0017200Y0032200D02*
X0012200Y0037200D01*
X0012200Y0112200D01*
X0102200Y0112200D01*
X0122200Y0092200D01*
X0122200Y0062200D01*
X0117200Y0057200D01*
X0117200Y0047200D01*
X0112400Y0052569D02*
X0111165Y0052569D01*
X0112400Y0054967D02*
X0089307Y0054967D01*
X0090059Y0053069D02*
X0087881Y0058569D01*
X0087881Y0058569D01*
X0084404Y0063355D01*
X0084404Y0063355D01*
X0084404Y0063355D01*
X0079846Y0067126D01*
X0079845Y0067126D01*
X0074493Y0069645D01*
X0074493Y0069645D01*
X0068682Y0070753D01*
X0062778Y0070382D01*
X0062778Y0070382D01*
X0057152Y0068554D01*
X0057152Y0068554D01*
X0052157Y0065384D01*
X0052157Y0065384D01*
X0048107Y0061072D01*
X0048107Y0061072D01*
X0045257Y0055888D01*
X0043786Y0050158D01*
X0043786Y0044242D01*
X0045257Y0038512D01*
X0048107Y0033328D01*
X0052157Y0029016D01*
X0057152Y0025846D01*
X0062778Y0024018D01*
X0068682Y0023647D01*
X0074493Y0024755D01*
X0079845Y0027274D01*
X0084404Y0031045D01*
X0087881Y0035831D01*
X0090059Y0041331D01*
X0090800Y0047200D01*
X0090059Y0053069D01*
X0090059Y0053069D01*
X0090122Y0052569D02*
X0103235Y0052569D01*
X0101287Y0050170D02*
X0090425Y0050170D01*
X0090728Y0047772D02*
X0100600Y0047772D01*
X0100813Y0045373D02*
X0090569Y0045373D01*
X0090266Y0042975D02*
X0102091Y0042975D01*
X0090059Y0041331D02*
X0090059Y0041331D01*
X0089760Y0040576D02*
X0184727Y0040576D01*
X0185257Y0038512D02*
X0185257Y0038512D01*
X0188107Y0033328D01*
X0192157Y0029016D01*
X0197152Y0025846D01*
X0202778Y0024018D01*
X0208682Y0023647D01*
X0214493Y0024755D01*
X0219845Y0027274D01*
X0219846Y0027274D01*
X0224404Y0031045D01*
X0227881Y0035831D01*
X0230059Y0041331D01*
X0230800Y0047200D01*
X0230800Y0047200D01*
X0230059Y0053069D01*
X0227881Y0058569D01*
X0227881Y0058569D01*
X0224404Y0063355D01*
X0224404Y0063355D01*
X0224404Y0063355D01*
X0219846Y0067126D01*
X0219845Y0067126D01*
X0214493Y0069645D01*
X0214493Y0069645D01*
X0208682Y0070753D01*
X0202778Y0070382D01*
X0202778Y0070382D01*
X0197152Y0068554D01*
X0197152Y0068554D01*
X0192157Y0065384D01*
X0192157Y0065384D01*
X0188107Y0061072D01*
X0188107Y0061072D01*
X0185257Y0055888D01*
X0183786Y0050158D01*
X0183786Y0044242D01*
X0185257Y0038512D01*
X0185441Y0038178D02*
X0088810Y0038178D01*
X0087881Y0035831D02*
X0087881Y0035831D01*
X0087843Y0035779D02*
X0186760Y0035779D01*
X0188078Y0033381D02*
X0086101Y0033381D01*
X0084404Y0031045D02*
X0084404Y0031045D01*
X0084404Y0031045D01*
X0084328Y0030982D02*
X0190310Y0030982D01*
X0192157Y0029016D02*
X0192157Y0029016D01*
X0192838Y0028584D02*
X0081429Y0028584D01*
X0077532Y0026185D02*
X0196617Y0026185D01*
X0197152Y0025846D02*
X0197152Y0025846D01*
X0202778Y0024018D02*
X0202778Y0024018D01*
X0206456Y0023787D02*
X0069416Y0023787D01*
X0066456Y0023787D02*
X0037233Y0023787D01*
X0038395Y0026185D02*
X0056617Y0026185D01*
X0057152Y0025846D02*
X0057152Y0025846D01*
X0052838Y0028584D02*
X0040052Y0028584D01*
X0040839Y0030982D02*
X0050310Y0030982D01*
X0052157Y0029016D02*
X0052157Y0029016D01*
X0048107Y0033328D02*
X0048107Y0033328D01*
X0048078Y0033381D02*
X0040839Y0033381D01*
X0040067Y0035779D02*
X0046760Y0035779D01*
X0045441Y0038178D02*
X0038432Y0038178D01*
X0034522Y0040576D02*
X0044727Y0040576D01*
X0045257Y0038512D02*
X0045257Y0038512D01*
X0044112Y0042975D02*
X0037614Y0042975D01*
X0039033Y0045373D02*
X0043786Y0045373D01*
X0043786Y0047772D02*
X0027673Y0047772D01*
X0027673Y0050170D02*
X0026727Y0050170D01*
X0026727Y0052569D02*
X0027673Y0052569D01*
X0027673Y0054967D02*
X0026727Y0054967D01*
X0021381Y0054967D02*
X0017000Y0054967D01*
X0017000Y0057366D02*
X0046070Y0057366D01*
X0045257Y0055888D02*
X0045257Y0055888D01*
X0045021Y0054967D02*
X0033019Y0054967D01*
X0037652Y0052569D02*
X0044405Y0052569D01*
X0043789Y0050170D02*
X0039049Y0050170D01*
X0047388Y0059764D02*
X0017000Y0059764D01*
X0017000Y0062163D02*
X0049132Y0062163D01*
X0051384Y0064561D02*
X0017000Y0064561D01*
X0017000Y0066960D02*
X0054640Y0066960D01*
X0052157Y0065384D02*
X0052157Y0065384D01*
X0059627Y0069358D02*
X0017000Y0069358D01*
X0017000Y0071757D02*
X0017402Y0071757D01*
X0026998Y0071757D02*
X0107402Y0071757D01*
X0106025Y0074155D02*
X0076927Y0074155D01*
X0076975Y0074336D02*
X0076975Y0077200D01*
X0076975Y0080064D01*
X0076825Y0080624D01*
X0076535Y0081126D01*
X0076126Y0081535D01*
X0075624Y0081825D01*
X0075064Y0081975D01*
X0072200Y0081975D01*
X0069336Y0081975D01*
X0068776Y0081825D01*
X0068274Y0081535D01*
X0067865Y0081126D01*
X0067575Y0080624D01*
X0067425Y0080064D01*
X0067425Y0077200D01*
X0072200Y0077200D01*
X0072200Y0077200D01*
X0072200Y0081975D01*
X0072200Y0077200D01*
X0076975Y0077200D01*
X0072200Y0077200D01*
X0072200Y0077200D01*
X0072200Y0072425D01*
X0075064Y0072425D01*
X0075624Y0072575D01*
X0076126Y0072865D01*
X0076535Y0073274D01*
X0076825Y0073776D01*
X0076975Y0074336D01*
X0076975Y0076554D02*
X0106025Y0076554D01*
X0106025Y0078952D02*
X0076975Y0078952D01*
X0076310Y0081351D02*
X0106381Y0081351D01*
X0117400Y0083749D02*
X0017000Y0083749D01*
X0017000Y0086148D02*
X0117400Y0086148D01*
X0117400Y0088546D02*
X0017000Y0088546D01*
X0017000Y0090945D02*
X0116667Y0090945D01*
X0114268Y0093343D02*
X0017000Y0093343D01*
X0017000Y0095742D02*
X0111870Y0095742D01*
X0125446Y0095742D02*
X0267000Y0095742D01*
X0267000Y0093343D02*
X0126922Y0093343D01*
X0127000Y0090945D02*
X0267000Y0090945D01*
X0267000Y0088546D02*
X0127000Y0088546D01*
X0127000Y0086148D02*
X0267000Y0086148D01*
X0267000Y0083749D02*
X0127000Y0083749D01*
X0127000Y0081351D02*
X0158090Y0081351D01*
X0158274Y0081535D02*
X0157865Y0081126D01*
X0157575Y0080624D01*
X0157425Y0080064D01*
X0157425Y0077200D01*
X0162200Y0077200D01*
X0162200Y0077200D01*
X0162200Y0081975D01*
X0159336Y0081975D01*
X0158776Y0081825D01*
X0158274Y0081535D01*
X0157425Y0078952D02*
X0127000Y0078952D01*
X0127000Y0076554D02*
X0157425Y0076554D01*
X0157425Y0077200D02*
X0157425Y0074336D01*
X0157575Y0073776D01*
X0157865Y0073274D01*
X0158274Y0072865D01*
X0158776Y0072575D01*
X0159336Y0072425D01*
X0162200Y0072425D01*
X0165064Y0072425D01*
X0165624Y0072575D01*
X0166126Y0072865D01*
X0166535Y0073274D01*
X0166825Y0073776D01*
X0166975Y0074336D01*
X0166975Y0077200D01*
X0166975Y0080064D01*
X0166825Y0080624D01*
X0166535Y0081126D01*
X0166126Y0081535D01*
X0165624Y0081825D01*
X0165064Y0081975D01*
X0162200Y0081975D01*
X0162200Y0077200D01*
X0166975Y0077200D01*
X0162200Y0077200D01*
X0162200Y0077200D01*
X0162200Y0072425D01*
X0162200Y0077200D01*
X0162200Y0077200D01*
X0162200Y0077200D01*
X0157425Y0077200D01*
X0157473Y0074155D02*
X0127000Y0074155D01*
X0127000Y0071757D02*
X0197402Y0071757D01*
X0197586Y0071573D02*
X0198909Y0071025D01*
X0205491Y0071025D01*
X0206814Y0071573D01*
X0207827Y0072586D01*
X0208375Y0073909D01*
X0208375Y0080491D01*
X0207827Y0081814D01*
X0206814Y0082827D01*
X0205491Y0083375D01*
X0198909Y0083375D01*
X0197586Y0082827D01*
X0196573Y0081814D01*
X0196025Y0080491D01*
X0196025Y0073909D01*
X0196573Y0072586D01*
X0197586Y0071573D01*
X0199627Y0069358D02*
X0127000Y0069358D01*
X0127000Y0066960D02*
X0194640Y0066960D01*
X0191384Y0064561D02*
X0127000Y0064561D01*
X0127000Y0062163D02*
X0189132Y0062163D01*
X0187388Y0059764D02*
X0126387Y0059764D01*
X0124154Y0057366D02*
X0186070Y0057366D01*
X0185257Y0055888D02*
X0185257Y0055888D01*
X0185021Y0054967D02*
X0122000Y0054967D01*
X0122000Y0052569D02*
X0123235Y0052569D01*
X0131165Y0052569D02*
X0153235Y0052569D01*
X0153461Y0052795D02*
X0151605Y0050939D01*
X0150600Y0048513D01*
X0150600Y0045887D01*
X0151605Y0043461D01*
X0153461Y0041605D01*
X0155887Y0040600D01*
X0158513Y0040600D01*
X0160939Y0041605D01*
X0162200Y0042866D01*
X0163461Y0041605D01*
X0165887Y0040600D01*
X0168513Y0040600D01*
X0170939Y0041605D01*
X0172795Y0043461D01*
X0173800Y0045887D01*
X0173800Y0048513D01*
X0172795Y0050939D01*
X0170939Y0052795D01*
X0168513Y0053800D01*
X0165887Y0053800D01*
X0163461Y0052795D01*
X0162200Y0051534D01*
X0160939Y0052795D01*
X0158513Y0053800D01*
X0155887Y0053800D01*
X0153461Y0052795D01*
X0151287Y0050170D02*
X0133113Y0050170D01*
X0133800Y0047772D02*
X0150600Y0047772D01*
X0150813Y0045373D02*
X0133587Y0045373D01*
X0132309Y0042975D02*
X0152091Y0042975D01*
X0161165Y0052569D02*
X0163235Y0052569D01*
X0171165Y0052569D02*
X0184405Y0052569D01*
X0183789Y0050170D02*
X0173113Y0050170D01*
X0173800Y0047772D02*
X0183786Y0047772D01*
X0183786Y0045373D02*
X0173587Y0045373D01*
X0172309Y0042975D02*
X0184112Y0042975D01*
X0188107Y0033328D02*
X0188107Y0033328D01*
X0208682Y0023647D02*
X0208682Y0023647D01*
X0209416Y0023787D02*
X0237167Y0023787D01*
X0237298Y0023917D02*
X0234873Y0021492D01*
X0233561Y0018324D01*
X0233561Y0014895D01*
X0234873Y0011727D01*
X0237298Y0009302D01*
X0240466Y0007990D01*
X0253934Y0007990D01*
X0257102Y0009302D01*
X0259527Y0011727D01*
X0260839Y0014895D01*
X0260839Y0018324D01*
X0259527Y0021492D01*
X0257102Y0023917D01*
X0255925Y0024405D01*
X0257102Y0024893D01*
X0259527Y0027317D01*
X0260839Y0030485D01*
X0260839Y0033915D01*
X0259527Y0037083D01*
X0257102Y0039507D01*
X0253999Y0040793D01*
X0254545Y0040939D01*
X0255420Y0041302D01*
X0256239Y0041775D01*
X0256990Y0042351D01*
X0257659Y0043020D01*
X0258236Y0043771D01*
X0258709Y0044591D01*
X0259071Y0045465D01*
X0259316Y0046379D01*
X0259439Y0047317D01*
X0247673Y0047317D01*
X0247673Y0048264D01*
X0246727Y0048264D01*
X0246727Y0055010D01*
X0241707Y0055010D01*
X0240769Y0054887D01*
X0239855Y0054642D01*
X0238980Y0054280D01*
X0238161Y0053806D01*
X0237410Y0053230D01*
X0236741Y0052561D01*
X0236164Y0051810D01*
X0235691Y0050991D01*
X0235329Y0050116D01*
X0235084Y0049202D01*
X0234961Y0048264D01*
X0246727Y0048264D01*
X0246727Y0047317D01*
X0234961Y0047317D01*
X0235084Y0046379D01*
X0235329Y0045465D01*
X0235691Y0044591D01*
X0236164Y0043771D01*
X0236741Y0043020D01*
X0237410Y0042351D01*
X0238161Y0041775D01*
X0238980Y0041302D01*
X0239855Y0040939D01*
X0240401Y0040793D01*
X0237298Y0039507D01*
X0234873Y0037083D01*
X0233561Y0033915D01*
X0233561Y0030485D01*
X0234873Y0027317D01*
X0237298Y0024893D01*
X0238475Y0024405D01*
X0237298Y0023917D01*
X0236005Y0026185D02*
X0217532Y0026185D01*
X0214493Y0024755D02*
X0214493Y0024755D01*
X0221429Y0028584D02*
X0234348Y0028584D01*
X0233561Y0030982D02*
X0224328Y0030982D01*
X0224404Y0031045D02*
X0224404Y0031045D01*
X0226101Y0033381D02*
X0233561Y0033381D01*
X0234333Y0035779D02*
X0227843Y0035779D01*
X0227881Y0035831D02*
X0227881Y0035831D01*
X0228810Y0038178D02*
X0235968Y0038178D01*
X0239878Y0040576D02*
X0229760Y0040576D01*
X0230059Y0041331D02*
X0230059Y0041331D01*
X0230266Y0042975D02*
X0236786Y0042975D01*
X0235367Y0045373D02*
X0230569Y0045373D01*
X0230728Y0047772D02*
X0246727Y0047772D01*
X0247673Y0047772D02*
X0267000Y0047772D01*
X0267000Y0050170D02*
X0259049Y0050170D01*
X0259071Y0050116D02*
X0258709Y0050991D01*
X0258236Y0051810D01*
X0257659Y0052561D01*
X0256990Y0053230D01*
X0256239Y0053806D01*
X0255420Y0054280D01*
X0254545Y0054642D01*
X0253631Y0054887D01*
X0252693Y0055010D01*
X0247673Y0055010D01*
X0247673Y0048264D01*
X0259439Y0048264D01*
X0259316Y0049202D01*
X0259071Y0050116D01*
X0257652Y0052569D02*
X0267000Y0052569D01*
X0267000Y0054967D02*
X0253019Y0054967D01*
X0247673Y0054967D02*
X0246727Y0054967D01*
X0246727Y0052569D02*
X0247673Y0052569D01*
X0247673Y0050170D02*
X0246727Y0050170D01*
X0241381Y0054967D02*
X0229307Y0054967D01*
X0230122Y0052569D02*
X0236748Y0052569D01*
X0235351Y0050170D02*
X0230425Y0050170D01*
X0228357Y0057366D02*
X0267000Y0057366D01*
X0267000Y0059764D02*
X0227013Y0059764D01*
X0225270Y0062163D02*
X0267000Y0062163D01*
X0267000Y0064561D02*
X0222946Y0064561D01*
X0220047Y0066960D02*
X0267000Y0066960D01*
X0267000Y0069358D02*
X0215102Y0069358D01*
X0208682Y0070753D02*
X0208682Y0070753D01*
X0206998Y0071757D02*
X0267000Y0071757D01*
X0267000Y0074155D02*
X0256927Y0074155D01*
X0256975Y0074336D02*
X0256975Y0077200D01*
X0256975Y0080064D01*
X0256825Y0080624D01*
X0256535Y0081126D01*
X0256126Y0081535D01*
X0255624Y0081825D01*
X0255064Y0081975D01*
X0252200Y0081975D01*
X0249336Y0081975D01*
X0248776Y0081825D01*
X0248274Y0081535D01*
X0247865Y0081126D01*
X0247575Y0080624D01*
X0247425Y0080064D01*
X0247425Y0077200D01*
X0252200Y0077200D01*
X0252200Y0077200D01*
X0252200Y0081975D01*
X0252200Y0077200D01*
X0256975Y0077200D01*
X0252200Y0077200D01*
X0252200Y0077200D01*
X0252200Y0072425D01*
X0255064Y0072425D01*
X0255624Y0072575D01*
X0256126Y0072865D01*
X0256535Y0073274D01*
X0256825Y0073776D01*
X0256975Y0074336D01*
X0256975Y0076554D02*
X0267000Y0076554D01*
X0267000Y0078952D02*
X0256975Y0078952D01*
X0256310Y0081351D02*
X0267000Y0081351D01*
X0252200Y0081351D02*
X0252200Y0081351D01*
X0252200Y0078952D02*
X0252200Y0078952D01*
X0252200Y0077200D02*
X0252200Y0077200D01*
X0252200Y0077200D01*
X0252200Y0072425D01*
X0249336Y0072425D01*
X0248776Y0072575D01*
X0248274Y0072865D01*
X0247865Y0073274D01*
X0247575Y0073776D01*
X0247425Y0074336D01*
X0247425Y0077200D01*
X0252200Y0077200D01*
X0252200Y0076554D02*
X0252200Y0076554D01*
X0252200Y0074155D02*
X0252200Y0074155D01*
X0247473Y0074155D02*
X0208375Y0074155D01*
X0208375Y0076554D02*
X0247425Y0076554D01*
X0247425Y0078952D02*
X0208375Y0078952D01*
X0208019Y0081351D02*
X0248090Y0081351D01*
X0259033Y0045373D02*
X0267000Y0045373D01*
X0267000Y0042975D02*
X0257614Y0042975D01*
X0254522Y0040576D02*
X0267000Y0040576D01*
X0267000Y0038178D02*
X0258432Y0038178D01*
X0260067Y0035779D02*
X0267000Y0035779D01*
X0267000Y0033381D02*
X0260839Y0033381D01*
X0260839Y0030982D02*
X0267000Y0030982D01*
X0267000Y0028584D02*
X0260052Y0028584D01*
X0258395Y0026185D02*
X0267000Y0026185D01*
X0267000Y0023787D02*
X0257233Y0023787D01*
X0259570Y0021388D02*
X0267000Y0021388D01*
X0267000Y0018990D02*
X0260564Y0018990D01*
X0260839Y0016591D02*
X0267000Y0016591D01*
X0267000Y0014193D02*
X0260548Y0014193D01*
X0259555Y0011794D02*
X0267000Y0011794D01*
X0267000Y0009396D02*
X0257196Y0009396D01*
X0237204Y0009396D02*
X0037196Y0009396D01*
X0039555Y0011794D02*
X0234845Y0011794D01*
X0233852Y0014193D02*
X0040548Y0014193D01*
X0040839Y0016591D02*
X0233561Y0016591D01*
X0233836Y0018990D02*
X0040564Y0018990D01*
X0039570Y0021388D02*
X0234830Y0021388D01*
X0196025Y0074155D02*
X0166927Y0074155D01*
X0166975Y0076554D02*
X0196025Y0076554D01*
X0196025Y0078952D02*
X0166975Y0078952D01*
X0166310Y0081351D02*
X0196381Y0081351D01*
X0162200Y0081351D02*
X0162200Y0081351D01*
X0162200Y0078952D02*
X0162200Y0078952D01*
X0162200Y0076554D02*
X0162200Y0076554D01*
X0162200Y0074155D02*
X0162200Y0074155D01*
X0117400Y0071757D02*
X0116998Y0071757D01*
X0117400Y0069358D02*
X0075102Y0069358D01*
X0072200Y0072425D02*
X0072200Y0077200D01*
X0072200Y0077200D01*
X0072200Y0077200D01*
X0067425Y0077200D01*
X0067425Y0074336D01*
X0067575Y0073776D01*
X0067865Y0073274D01*
X0068274Y0072865D01*
X0068776Y0072575D01*
X0069336Y0072425D01*
X0072200Y0072425D01*
X0072200Y0074155D02*
X0072200Y0074155D01*
X0072200Y0076554D02*
X0072200Y0076554D01*
X0072200Y0078952D02*
X0072200Y0078952D01*
X0072200Y0081351D02*
X0072200Y0081351D01*
X0068090Y0081351D02*
X0028019Y0081351D01*
X0028375Y0078952D02*
X0067425Y0078952D01*
X0067425Y0076554D02*
X0028375Y0076554D01*
X0028375Y0074155D02*
X0067473Y0074155D01*
X0068682Y0070753D02*
X0068682Y0070753D01*
X0080047Y0066960D02*
X0117400Y0066960D01*
X0117400Y0064561D02*
X0082946Y0064561D01*
X0085270Y0062163D02*
X0115375Y0062163D01*
X0113067Y0059764D02*
X0087013Y0059764D01*
X0088357Y0057366D02*
X0112400Y0057366D01*
X0097200Y0132200D02*
X0097200Y0139318D01*
X0099493Y0139755D01*
X0104845Y0142274D01*
X0104846Y0142274D01*
X0106229Y0143418D01*
X0106573Y0142586D01*
X0107586Y0141573D01*
X0108909Y0141025D01*
X0115491Y0141025D01*
X0116814Y0141573D01*
X0117827Y0142586D01*
X0118375Y0143909D01*
X0118375Y0150491D01*
X0117827Y0151814D01*
X0116814Y0152827D01*
X0115491Y0153375D01*
X0113888Y0153375D01*
X0115059Y0156331D01*
X0115800Y0162200D01*
X0115059Y0168069D01*
X0112881Y0173569D01*
X0112881Y0173569D01*
X0109404Y0178355D01*
X0109404Y0178355D01*
X0109404Y0178355D01*
X0104846Y0182126D01*
X0104845Y0182126D01*
X0099493Y0184645D01*
X0099493Y0184645D01*
X0097200Y0185082D01*
X0097200Y0222400D01*
X0102000Y0222400D01*
X0102000Y0222200D01*
X0107200Y0222200D01*
X0107200Y0222200D01*
X0107200Y0217000D01*
X0107609Y0217000D01*
X0108418Y0217128D01*
X0109196Y0217381D01*
X0109925Y0217753D01*
X0110588Y0218234D01*
X0111018Y0218664D01*
X0111552Y0218131D01*
X0112206Y0217860D01*
X0113461Y0216605D01*
X0115887Y0215600D01*
X0118513Y0215600D01*
X0120939Y0216605D01*
X0122200Y0217866D01*
X0123461Y0216605D01*
X0125887Y0215600D01*
X0128513Y0215600D01*
X0130939Y0216605D01*
X0132795Y0218461D01*
X0133800Y0220887D01*
X0133800Y0223513D01*
X0132795Y0225939D01*
X0130939Y0227795D01*
X0128513Y0228800D01*
X0125887Y0228800D01*
X0123461Y0227795D01*
X0122200Y0226534D01*
X0120939Y0227795D01*
X0118513Y0228800D01*
X0115887Y0228800D01*
X0114878Y0228382D01*
X0113340Y0229919D01*
X0111990Y0231269D01*
X0110283Y0231976D01*
X0164136Y0231984D01*
X0162410Y0231269D01*
X0161060Y0229919D01*
X0159522Y0228382D01*
X0158513Y0228800D01*
X0155887Y0228800D01*
X0153461Y0227795D01*
X0151605Y0225939D01*
X0151353Y0225331D01*
X0151166Y0225588D01*
X0150588Y0226166D01*
X0149925Y0226647D01*
X0149196Y0227019D01*
X0148418Y0227272D01*
X0147609Y0227400D01*
X0147200Y0227400D01*
X0147200Y0222200D01*
X0147200Y0222200D01*
X0147200Y0217000D01*
X0147609Y0217000D01*
X0148418Y0217128D01*
X0149196Y0217381D01*
X0149925Y0217753D01*
X0150588Y0218234D01*
X0151166Y0218812D01*
X0151353Y0219069D01*
X0151605Y0218461D01*
X0153461Y0216605D01*
X0155887Y0215600D01*
X0158266Y0215600D01*
X0158266Y0207216D01*
X0157652Y0206601D01*
X0157104Y0205278D01*
X0157104Y0199122D01*
X0157652Y0197799D01*
X0158665Y0196786D01*
X0159988Y0196238D01*
X0166140Y0196238D01*
X0166140Y0193200D01*
X0165490Y0192550D01*
X0163539Y0192550D01*
X0163539Y0187280D01*
X0163380Y0187280D01*
X0163380Y0192550D01*
X0160611Y0192550D01*
X0160052Y0192400D01*
X0159550Y0192110D01*
X0159140Y0191700D01*
X0158851Y0191199D01*
X0158701Y0190639D01*
X0158701Y0187280D01*
X0163380Y0187280D01*
X0163380Y0187120D01*
X0163539Y0187120D01*
X0163539Y0181850D01*
X0165490Y0181850D01*
X0166342Y0180998D01*
X0167421Y0180552D01*
X0167157Y0180384D01*
X0167157Y0180384D01*
X0163107Y0176072D01*
X0163107Y0176072D01*
X0160257Y0170888D01*
X0158786Y0165158D01*
X0158786Y0159242D01*
X0160257Y0153512D01*
X0161103Y0151975D01*
X0159336Y0151975D01*
X0158776Y0151825D01*
X0158274Y0151535D01*
X0157865Y0151126D01*
X0157575Y0150624D01*
X0157425Y0150064D01*
X0157425Y0147200D01*
X0162200Y0147200D01*
X0162200Y0142425D01*
X0165064Y0142425D01*
X0165624Y0142575D01*
X0166126Y0142865D01*
X0166535Y0143274D01*
X0166825Y0143776D01*
X0166949Y0144238D01*
X0167157Y0144016D01*
X0172152Y0140846D01*
X0177200Y0139206D01*
X0177200Y0132200D01*
X0097200Y0132200D01*
X0097200Y0134118D02*
X0177200Y0134118D01*
X0177200Y0136517D02*
X0097200Y0136517D01*
X0097200Y0138915D02*
X0177200Y0138915D01*
X0172152Y0140846D02*
X0172152Y0140846D01*
X0171415Y0141314D02*
X0116187Y0141314D01*
X0118293Y0143712D02*
X0157612Y0143712D01*
X0157575Y0143776D02*
X0157865Y0143274D01*
X0158274Y0142865D01*
X0158776Y0142575D01*
X0159336Y0142425D01*
X0162200Y0142425D01*
X0162200Y0147200D01*
X0162200Y0147200D01*
X0162200Y0147200D01*
X0157425Y0147200D01*
X0157425Y0144336D01*
X0157575Y0143776D01*
X0157425Y0146111D02*
X0118375Y0146111D01*
X0118375Y0148509D02*
X0157425Y0148509D01*
X0157739Y0150908D02*
X0118202Y0150908D01*
X0115656Y0153306D02*
X0160371Y0153306D01*
X0160257Y0153512D02*
X0160257Y0153512D01*
X0159694Y0155705D02*
X0114811Y0155705D01*
X0115059Y0156331D02*
X0115059Y0156331D01*
X0115282Y0158103D02*
X0159079Y0158103D01*
X0158786Y0160502D02*
X0115585Y0160502D01*
X0115712Y0162900D02*
X0158786Y0162900D01*
X0158822Y0165299D02*
X0115409Y0165299D01*
X0115106Y0167697D02*
X0159438Y0167697D01*
X0160054Y0170096D02*
X0129386Y0170096D01*
X0128672Y0169800D02*
X0131392Y0170927D01*
X0133473Y0173008D01*
X0134600Y0175728D01*
X0134600Y0178672D01*
X0133473Y0181392D01*
X0131392Y0183473D01*
X0128672Y0184600D01*
X0125728Y0184600D01*
X0123008Y0183473D01*
X0120927Y0181392D01*
X0119800Y0178672D01*
X0119800Y0175728D01*
X0120927Y0173008D01*
X0123008Y0170927D01*
X0125728Y0169800D01*
X0128672Y0169800D01*
X0132959Y0172494D02*
X0141383Y0172494D01*
X0141350Y0172551D02*
X0141640Y0172049D01*
X0142049Y0171640D01*
X0142551Y0171350D01*
X0143110Y0171200D01*
X0147200Y0171200D01*
X0151290Y0171200D01*
X0151849Y0171350D01*
X0152351Y0171640D01*
X0152760Y0172049D01*
X0153050Y0172551D01*
X0153200Y0173110D01*
X0153200Y0177200D01*
X0153200Y0181290D01*
X0153050Y0181849D01*
X0152760Y0182351D01*
X0152351Y0182760D01*
X0151849Y0183050D01*
X0151290Y0183200D01*
X0147200Y0183200D01*
X0147200Y0177200D01*
X0153200Y0177200D01*
X0147200Y0177200D01*
X0147200Y0177200D01*
X0147200Y0177200D01*
X0147200Y0171200D01*
X0147200Y0177200D01*
X0147200Y0177200D01*
X0147200Y0177200D01*
X0141200Y0177200D01*
X0141200Y0181290D01*
X0141350Y0181849D01*
X0141640Y0182351D01*
X0142049Y0182760D01*
X0142551Y0183050D01*
X0143110Y0183200D01*
X0147200Y0183200D01*
X0147200Y0177200D01*
X0141200Y0177200D01*
X0141200Y0173110D01*
X0141350Y0172551D01*
X0141200Y0174893D02*
X0134254Y0174893D01*
X0134600Y0177291D02*
X0141200Y0177291D01*
X0141200Y0179690D02*
X0134178Y0179690D01*
X0132777Y0182088D02*
X0141488Y0182088D01*
X0147200Y0182088D02*
X0147200Y0182088D01*
X0147200Y0179690D02*
X0147200Y0179690D01*
X0147200Y0177291D02*
X0147200Y0177291D01*
X0147200Y0174893D02*
X0147200Y0174893D01*
X0147200Y0172494D02*
X0147200Y0172494D01*
X0153017Y0172494D02*
X0161141Y0172494D01*
X0160257Y0170888D02*
X0160257Y0170888D01*
X0162459Y0174893D02*
X0153200Y0174893D01*
X0153200Y0177291D02*
X0164252Y0177291D01*
X0166505Y0179690D02*
X0153200Y0179690D01*
X0152912Y0182088D02*
X0159899Y0182088D01*
X0160052Y0182000D02*
X0160611Y0181850D01*
X0163380Y0181850D01*
X0163380Y0187120D01*
X0158701Y0187120D01*
X0158701Y0183761D01*
X0158851Y0183201D01*
X0159140Y0182700D01*
X0159550Y0182290D01*
X0160052Y0182000D01*
X0158701Y0184487D02*
X0128945Y0184487D01*
X0125455Y0184487D02*
X0099829Y0184487D01*
X0097200Y0186885D02*
X0158701Y0186885D01*
X0158701Y0189284D02*
X0097200Y0189284D01*
X0097200Y0191682D02*
X0159130Y0191682D01*
X0163380Y0191682D02*
X0163539Y0191682D01*
X0163539Y0189284D02*
X0163380Y0189284D01*
X0163460Y0187200D02*
X0147200Y0187200D01*
X0159405Y0196479D02*
X0097200Y0196479D01*
X0097200Y0194081D02*
X0166140Y0194081D01*
X0163539Y0186885D02*
X0163380Y0186885D01*
X0163380Y0184487D02*
X0163539Y0184487D01*
X0163539Y0182088D02*
X0163380Y0182088D01*
X0170940Y0187200D02*
X0170940Y0201806D01*
X0171334Y0202200D01*
X0163066Y0202200D02*
X0163066Y0218066D01*
X0167200Y0222200D01*
X0165129Y0227200D02*
X0199271Y0227200D01*
X0204271Y0222200D01*
X0207200Y0222200D01*
X0204878Y0228382D02*
X0203340Y0229919D01*
X0201990Y0231269D01*
X0200251Y0231990D01*
X0267000Y0231999D01*
X0267000Y0205993D01*
X0266748Y0206601D01*
X0265735Y0207614D01*
X0264412Y0208162D01*
X0258256Y0208162D01*
X0257866Y0208001D01*
X0257866Y0215600D01*
X0258513Y0215600D01*
X0260939Y0216605D01*
X0262795Y0218461D01*
X0263800Y0220887D01*
X0263800Y0223513D01*
X0262795Y0225939D01*
X0260939Y0227795D01*
X0258513Y0228800D01*
X0255887Y0228800D01*
X0253461Y0227795D01*
X0252200Y0226534D01*
X0250939Y0227795D01*
X0248513Y0228800D01*
X0245887Y0228800D01*
X0243461Y0227795D01*
X0241605Y0225939D01*
X0241353Y0225331D01*
X0241166Y0225588D01*
X0240588Y0226166D01*
X0239925Y0226647D01*
X0239196Y0227019D01*
X0238418Y0227272D01*
X0237609Y0227400D01*
X0237200Y0227400D01*
X0237200Y0222200D01*
X0237200Y0222200D01*
X0237200Y0222200D01*
X0232000Y0222200D01*
X0232000Y0222609D01*
X0232128Y0223418D01*
X0232381Y0224196D01*
X0232753Y0224925D01*
X0233234Y0225588D01*
X0233812Y0226166D01*
X0234475Y0226647D01*
X0235204Y0227019D01*
X0235982Y0227272D01*
X0236791Y0227400D01*
X0237200Y0227400D01*
X0237200Y0222200D01*
X0237200Y0217000D01*
X0237609Y0217000D01*
X0238418Y0217128D01*
X0239196Y0217381D01*
X0239925Y0217753D01*
X0240588Y0218234D01*
X0241166Y0218812D01*
X0241353Y0219069D01*
X0241605Y0218461D01*
X0243461Y0216605D01*
X0245887Y0215600D01*
X0248266Y0215600D01*
X0248266Y0207216D01*
X0247652Y0206601D01*
X0247104Y0205278D01*
X0247104Y0199122D01*
X0247652Y0197799D01*
X0248665Y0196786D01*
X0249988Y0196238D01*
X0256140Y0196238D01*
X0256140Y0193200D01*
X0255490Y0192550D01*
X0253539Y0192550D01*
X0253539Y0187280D01*
X0253380Y0187280D01*
X0253380Y0192550D01*
X0250611Y0192550D01*
X0250052Y0192400D01*
X0249550Y0192110D01*
X0249140Y0191700D01*
X0248851Y0191199D01*
X0248701Y0190639D01*
X0248701Y0187280D01*
X0253380Y0187280D01*
X0253380Y0187120D01*
X0253539Y0187120D01*
X0253539Y0181850D01*
X0255490Y0181850D01*
X0256342Y0180998D01*
X0257665Y0180450D01*
X0264215Y0180450D01*
X0265538Y0180998D01*
X0266551Y0182011D01*
X0267000Y0183095D01*
X0267000Y0132200D01*
X0187200Y0132200D01*
X0187200Y0139318D01*
X0189493Y0139755D01*
X0194845Y0142274D01*
X0194846Y0142274D01*
X0196229Y0143418D01*
X0196573Y0142586D01*
X0197586Y0141573D01*
X0198909Y0141025D01*
X0205491Y0141025D01*
X0206814Y0141573D01*
X0207827Y0142586D01*
X0208375Y0143909D01*
X0208375Y0150491D01*
X0207827Y0151814D01*
X0206814Y0152827D01*
X0205491Y0153375D01*
X0203888Y0153375D01*
X0205059Y0156331D01*
X0205800Y0162200D01*
X0205059Y0168069D01*
X0202881Y0173569D01*
X0202881Y0173569D01*
X0199404Y0178355D01*
X0199404Y0178355D01*
X0199404Y0178355D01*
X0194846Y0182126D01*
X0194845Y0182126D01*
X0189493Y0184645D01*
X0189493Y0184645D01*
X0187200Y0185082D01*
X0187200Y0222400D01*
X0192000Y0222400D01*
X0192000Y0222200D01*
X0197200Y0222200D01*
X0197200Y0217000D01*
X0197609Y0217000D01*
X0198418Y0217128D01*
X0199196Y0217381D01*
X0199925Y0217753D01*
X0200588Y0218234D01*
X0201018Y0218664D01*
X0201552Y0218131D01*
X0202206Y0217860D01*
X0203461Y0216605D01*
X0205887Y0215600D01*
X0208513Y0215600D01*
X0210939Y0216605D01*
X0212200Y0217866D01*
X0213461Y0216605D01*
X0215887Y0215600D01*
X0218513Y0215600D01*
X0220939Y0216605D01*
X0222795Y0218461D01*
X0223800Y0220887D01*
X0223800Y0223513D01*
X0222795Y0225939D01*
X0220939Y0227795D01*
X0218513Y0228800D01*
X0215887Y0228800D01*
X0213461Y0227795D01*
X0212200Y0226534D01*
X0210939Y0227795D01*
X0208513Y0228800D01*
X0205887Y0228800D01*
X0204878Y0228382D01*
X0203201Y0230059D02*
X0267000Y0230059D01*
X0267000Y0227660D02*
X0261074Y0227660D01*
X0263076Y0225262D02*
X0267000Y0225262D01*
X0267000Y0222863D02*
X0263800Y0222863D01*
X0263625Y0220465D02*
X0267000Y0220465D01*
X0267000Y0218066D02*
X0262400Y0218066D01*
X0258676Y0215668D02*
X0267000Y0215668D01*
X0267000Y0213269D02*
X0257866Y0213269D01*
X0257866Y0210870D02*
X0267000Y0210870D01*
X0267000Y0208472D02*
X0257866Y0208472D01*
X0261334Y0202200D02*
X0260940Y0201806D01*
X0260940Y0187200D01*
X0266583Y0182088D02*
X0267000Y0182088D01*
X0267000Y0179690D02*
X0243200Y0179690D01*
X0243200Y0181290D02*
X0243050Y0181849D01*
X0242760Y0182351D01*
X0242351Y0182760D01*
X0241849Y0183050D01*
X0241290Y0183200D01*
X0237200Y0183200D01*
X0237200Y0177200D01*
X0243200Y0177200D01*
X0243200Y0181290D01*
X0242912Y0182088D02*
X0249899Y0182088D01*
X0250052Y0182000D02*
X0250611Y0181850D01*
X0253380Y0181850D01*
X0253380Y0187120D01*
X0248701Y0187120D01*
X0248701Y0183761D01*
X0248851Y0183201D01*
X0249140Y0182700D01*
X0249550Y0182290D01*
X0250052Y0182000D01*
X0248701Y0184487D02*
X0218945Y0184487D01*
X0218672Y0184600D02*
X0215728Y0184600D01*
X0213008Y0183473D01*
X0210927Y0181392D01*
X0209800Y0178672D01*
X0209800Y0175728D01*
X0210927Y0173008D01*
X0213008Y0170927D01*
X0215728Y0169800D01*
X0218672Y0169800D01*
X0221392Y0170927D01*
X0223473Y0173008D01*
X0224600Y0175728D01*
X0224600Y0178672D01*
X0223473Y0181392D01*
X0221392Y0183473D01*
X0218672Y0184600D01*
X0222777Y0182088D02*
X0231488Y0182088D01*
X0231350Y0181849D02*
X0231200Y0181290D01*
X0231200Y0177200D01*
X0237200Y0177200D01*
X0237200Y0177200D01*
X0237200Y0177200D01*
X0243200Y0177200D01*
X0243200Y0173110D01*
X0243050Y0172551D01*
X0242760Y0172049D01*
X0242351Y0171640D01*
X0241849Y0171350D01*
X0241290Y0171200D01*
X0237200Y0171200D01*
X0237200Y0177200D01*
X0237200Y0177200D01*
X0237200Y0177200D01*
X0237200Y0183200D01*
X0233110Y0183200D01*
X0232551Y0183050D01*
X0232049Y0182760D01*
X0231640Y0182351D01*
X0231350Y0181849D01*
X0231200Y0179690D02*
X0224178Y0179690D01*
X0224600Y0177291D02*
X0231200Y0177291D01*
X0231200Y0177200D02*
X0231200Y0173110D01*
X0231350Y0172551D01*
X0231640Y0172049D01*
X0232049Y0171640D01*
X0232551Y0171350D01*
X0233110Y0171200D01*
X0237200Y0171200D01*
X0237200Y0177200D01*
X0231200Y0177200D01*
X0231200Y0174893D02*
X0224254Y0174893D01*
X0222959Y0172494D02*
X0231383Y0172494D01*
X0237200Y0172494D02*
X0237200Y0172494D01*
X0237200Y0174893D02*
X0237200Y0174893D01*
X0237200Y0177291D02*
X0237200Y0177291D01*
X0237200Y0179690D02*
X0237200Y0179690D01*
X0237200Y0182088D02*
X0237200Y0182088D01*
X0237200Y0187200D02*
X0253460Y0187200D01*
X0253539Y0186885D02*
X0253380Y0186885D01*
X0253380Y0184487D02*
X0253539Y0184487D01*
X0253539Y0182088D02*
X0253380Y0182088D01*
X0248701Y0186885D02*
X0187200Y0186885D01*
X0187200Y0189284D02*
X0248701Y0189284D01*
X0249130Y0191682D02*
X0187200Y0191682D01*
X0187200Y0194081D02*
X0256140Y0194081D01*
X0253539Y0191682D02*
X0253380Y0191682D01*
X0253380Y0189284D02*
X0253539Y0189284D01*
X0249405Y0196479D02*
X0187200Y0196479D01*
X0187200Y0198878D02*
X0247205Y0198878D01*
X0247104Y0201276D02*
X0187200Y0201276D01*
X0187200Y0203675D02*
X0247104Y0203675D01*
X0247433Y0206073D02*
X0187200Y0206073D01*
X0187200Y0208472D02*
X0248266Y0208472D01*
X0248266Y0210870D02*
X0187200Y0210870D01*
X0187200Y0213269D02*
X0248266Y0213269D01*
X0245724Y0215668D02*
X0218676Y0215668D01*
X0222400Y0218066D02*
X0234043Y0218066D01*
X0233812Y0218234D02*
X0234475Y0217753D01*
X0235204Y0217381D01*
X0235982Y0217128D01*
X0236791Y0217000D01*
X0237200Y0217000D01*
X0237200Y0222200D01*
X0237200Y0222200D01*
X0232000Y0222200D01*
X0232000Y0221791D01*
X0232128Y0220982D01*
X0232381Y0220204D01*
X0232753Y0219475D01*
X0233234Y0218812D01*
X0233812Y0218234D01*
X0232296Y0220465D02*
X0223625Y0220465D01*
X0223800Y0222863D02*
X0232040Y0222863D01*
X0232997Y0225262D02*
X0223076Y0225262D01*
X0221074Y0227660D02*
X0243326Y0227660D01*
X0251074Y0227660D02*
X0253326Y0227660D01*
X0257200Y0222200D02*
X0253066Y0218066D01*
X0253066Y0202200D01*
X0266967Y0206073D02*
X0267000Y0206073D01*
X0242000Y0218066D02*
X0240357Y0218066D01*
X0237200Y0218066D02*
X0237200Y0218066D01*
X0237200Y0220465D02*
X0237200Y0220465D01*
X0237200Y0222863D02*
X0237200Y0222863D01*
X0237200Y0225262D02*
X0237200Y0225262D01*
X0215724Y0215668D02*
X0208676Y0215668D01*
X0205724Y0215668D02*
X0187200Y0215668D01*
X0187200Y0218066D02*
X0194043Y0218066D01*
X0193812Y0218234D02*
X0194475Y0217753D01*
X0195204Y0217381D01*
X0195982Y0217128D01*
X0196791Y0217000D01*
X0197200Y0217000D01*
X0197200Y0222200D01*
X0197200Y0222200D01*
X0197200Y0222200D01*
X0192000Y0222200D01*
X0192000Y0221791D01*
X0192128Y0220982D01*
X0192381Y0220204D01*
X0192753Y0219475D01*
X0193234Y0218812D01*
X0193812Y0218234D01*
X0192296Y0220465D02*
X0187200Y0220465D01*
X0197200Y0220465D02*
X0197200Y0220465D01*
X0197200Y0218066D02*
X0197200Y0218066D01*
X0200357Y0218066D02*
X0201708Y0218066D01*
X0211074Y0227660D02*
X0213326Y0227660D01*
X0215455Y0184487D02*
X0189829Y0184487D01*
X0194891Y0182088D02*
X0211623Y0182088D01*
X0210222Y0179690D02*
X0197790Y0179690D01*
X0200177Y0177291D02*
X0209800Y0177291D01*
X0210146Y0174893D02*
X0201919Y0174893D01*
X0203306Y0172494D02*
X0211441Y0172494D01*
X0215014Y0170096D02*
X0204256Y0170096D01*
X0205059Y0168069D02*
X0205059Y0168069D01*
X0205106Y0167697D02*
X0267000Y0167697D01*
X0267000Y0165299D02*
X0205409Y0165299D01*
X0205712Y0162900D02*
X0267000Y0162900D01*
X0267000Y0160502D02*
X0205585Y0160502D01*
X0205282Y0158103D02*
X0267000Y0158103D01*
X0267000Y0155705D02*
X0204811Y0155705D01*
X0205059Y0156331D02*
X0205059Y0156331D01*
X0205656Y0153306D02*
X0267000Y0153306D01*
X0267000Y0150908D02*
X0256661Y0150908D01*
X0256535Y0151126D02*
X0256126Y0151535D01*
X0255624Y0151825D01*
X0255064Y0151975D01*
X0252200Y0151975D01*
X0249336Y0151975D01*
X0248776Y0151825D01*
X0248274Y0151535D01*
X0247865Y0151126D01*
X0247575Y0150624D01*
X0247425Y0150064D01*
X0247425Y0147200D01*
X0252200Y0147200D01*
X0252200Y0147200D01*
X0252200Y0151975D01*
X0252200Y0147200D01*
X0256975Y0147200D01*
X0256975Y0150064D01*
X0256825Y0150624D01*
X0256535Y0151126D01*
X0256975Y0148509D02*
X0267000Y0148509D01*
X0267000Y0146111D02*
X0256975Y0146111D01*
X0256975Y0147200D02*
X0252200Y0147200D01*
X0252200Y0147200D01*
X0252200Y0142425D01*
X0255064Y0142425D01*
X0255624Y0142575D01*
X0256126Y0142865D01*
X0256535Y0143274D01*
X0256825Y0143776D01*
X0256975Y0144336D01*
X0256975Y0147200D01*
X0256788Y0143712D02*
X0267000Y0143712D01*
X0267000Y0141314D02*
X0206187Y0141314D01*
X0208293Y0143712D02*
X0247612Y0143712D01*
X0247575Y0143776D02*
X0247865Y0143274D01*
X0248274Y0142865D01*
X0248776Y0142575D01*
X0249336Y0142425D01*
X0252200Y0142425D01*
X0252200Y0147200D01*
X0252200Y0147200D01*
X0252200Y0147200D01*
X0247425Y0147200D01*
X0247425Y0144336D01*
X0247575Y0143776D01*
X0247425Y0146111D02*
X0208375Y0146111D01*
X0208375Y0148509D02*
X0247425Y0148509D01*
X0247739Y0150908D02*
X0208202Y0150908D01*
X0198213Y0141314D02*
X0192805Y0141314D01*
X0189493Y0139755D02*
X0189493Y0139755D01*
X0187200Y0138915D02*
X0267000Y0138915D01*
X0267000Y0136517D02*
X0187200Y0136517D01*
X0187200Y0134118D02*
X0267000Y0134118D01*
X0252200Y0143712D02*
X0252200Y0143712D01*
X0252200Y0146111D02*
X0252200Y0146111D01*
X0252200Y0148509D02*
X0252200Y0148509D01*
X0252200Y0150908D02*
X0252200Y0150908D01*
X0267000Y0170096D02*
X0219386Y0170096D01*
X0243017Y0172494D02*
X0267000Y0172494D01*
X0267000Y0174893D02*
X0243200Y0174893D01*
X0243200Y0177291D02*
X0267000Y0177291D01*
X0167635Y0143712D02*
X0166788Y0143712D01*
X0167157Y0144016D02*
X0167157Y0144016D01*
X0162200Y0143712D02*
X0162200Y0143712D01*
X0162200Y0146111D02*
X0162200Y0146111D01*
X0125014Y0170096D02*
X0114256Y0170096D01*
X0115059Y0168069D02*
X0115059Y0168069D01*
X0113306Y0172494D02*
X0121441Y0172494D01*
X0120146Y0174893D02*
X0111919Y0174893D01*
X0110177Y0177291D02*
X0119800Y0177291D01*
X0120222Y0179690D02*
X0107790Y0179690D01*
X0104891Y0182088D02*
X0121623Y0182088D01*
X0097200Y0198878D02*
X0157205Y0198878D01*
X0157104Y0201276D02*
X0097200Y0201276D01*
X0097200Y0203675D02*
X0157104Y0203675D01*
X0157433Y0206073D02*
X0097200Y0206073D01*
X0097200Y0208472D02*
X0158266Y0208472D01*
X0158266Y0210870D02*
X0097200Y0210870D01*
X0097200Y0213269D02*
X0158266Y0213269D01*
X0155724Y0215668D02*
X0128676Y0215668D01*
X0125724Y0215668D02*
X0118676Y0215668D01*
X0115724Y0215668D02*
X0097200Y0215668D01*
X0097200Y0218066D02*
X0104043Y0218066D01*
X0103812Y0218234D02*
X0104475Y0217753D01*
X0105204Y0217381D01*
X0105982Y0217128D01*
X0106791Y0217000D01*
X0107200Y0217000D01*
X0107200Y0222200D01*
X0107200Y0222200D01*
X0102000Y0222200D01*
X0102000Y0221791D01*
X0102128Y0220982D01*
X0102381Y0220204D01*
X0102753Y0219475D01*
X0103234Y0218812D01*
X0103812Y0218234D01*
X0102296Y0220465D02*
X0097200Y0220465D01*
X0107200Y0220465D02*
X0107200Y0220465D01*
X0107200Y0218066D02*
X0107200Y0218066D01*
X0110357Y0218066D02*
X0111708Y0218066D01*
X0114271Y0222200D02*
X0109271Y0227200D01*
X0075129Y0227200D01*
X0070129Y0222200D01*
X0067200Y0222200D01*
X0069522Y0228382D02*
X0068513Y0228800D01*
X0065887Y0228800D01*
X0063461Y0227795D01*
X0061605Y0225939D01*
X0061353Y0225331D01*
X0061166Y0225588D01*
X0060588Y0226166D01*
X0059925Y0226647D01*
X0059196Y0227019D01*
X0058418Y0227272D01*
X0057609Y0227400D01*
X0057200Y0227400D01*
X0057200Y0222200D01*
X0057200Y0222200D01*
X0057200Y0217000D01*
X0057609Y0217000D01*
X0058418Y0217128D01*
X0059196Y0217381D01*
X0059925Y0217753D01*
X0060588Y0218234D01*
X0061166Y0218812D01*
X0061353Y0219069D01*
X0061605Y0218461D01*
X0063461Y0216605D01*
X0065887Y0215600D01*
X0068266Y0215600D01*
X0068266Y0207216D01*
X0067652Y0206601D01*
X0067104Y0205278D01*
X0067104Y0199122D01*
X0067652Y0197799D01*
X0068665Y0196786D01*
X0069988Y0196238D01*
X0076144Y0196238D01*
X0076534Y0196399D01*
X0076534Y0193481D01*
X0076342Y0193402D01*
X0075490Y0192550D01*
X0073539Y0192550D01*
X0073539Y0187280D01*
X0073380Y0187280D01*
X0073380Y0192550D01*
X0070611Y0192550D01*
X0070052Y0192400D01*
X0069550Y0192110D01*
X0069140Y0191700D01*
X0068851Y0191199D01*
X0068701Y0190639D01*
X0068701Y0187280D01*
X0073380Y0187280D01*
X0073380Y0187120D01*
X0073539Y0187120D01*
X0073539Y0181850D01*
X0075490Y0181850D01*
X0076342Y0180998D01*
X0077421Y0180552D01*
X0077157Y0180384D01*
X0077157Y0180384D01*
X0073107Y0176072D01*
X0073107Y0176072D01*
X0070257Y0170888D01*
X0068786Y0165158D01*
X0068786Y0159242D01*
X0070257Y0153512D01*
X0071103Y0151975D01*
X0069336Y0151975D01*
X0068776Y0151825D01*
X0068274Y0151535D01*
X0067865Y0151126D01*
X0067575Y0150624D01*
X0067425Y0150064D01*
X0067425Y0147200D01*
X0072200Y0147200D01*
X0072200Y0142425D01*
X0075064Y0142425D01*
X0075624Y0142575D01*
X0076126Y0142865D01*
X0076535Y0143274D01*
X0076825Y0143776D01*
X0076949Y0144238D01*
X0077157Y0144016D01*
X0082152Y0140846D01*
X0087200Y0139206D01*
X0087200Y0132200D01*
X0017000Y0132200D01*
X0017000Y0142159D01*
X0017586Y0141573D01*
X0018909Y0141025D01*
X0025491Y0141025D01*
X0026814Y0141573D01*
X0027827Y0142586D01*
X0028375Y0143909D01*
X0028375Y0150491D01*
X0027827Y0151814D01*
X0026814Y0152827D01*
X0025491Y0153375D01*
X0018909Y0153375D01*
X0017586Y0152827D01*
X0017000Y0152241D01*
X0017000Y0217000D01*
X0017200Y0217000D01*
X0017609Y0217000D01*
X0018418Y0217128D01*
X0019196Y0217381D01*
X0019925Y0217753D01*
X0020588Y0218234D01*
X0021018Y0218664D01*
X0021552Y0218131D01*
X0022206Y0217860D01*
X0023461Y0216605D01*
X0025887Y0215600D01*
X0028513Y0215600D01*
X0030939Y0216605D01*
X0032200Y0217866D01*
X0033461Y0216605D01*
X0035887Y0215600D01*
X0038513Y0215600D01*
X0040939Y0216605D01*
X0042795Y0218461D01*
X0043800Y0220887D01*
X0043800Y0223513D01*
X0042795Y0225939D01*
X0040939Y0227795D01*
X0038513Y0228800D01*
X0035887Y0228800D01*
X0033461Y0227795D01*
X0032200Y0226534D01*
X0030939Y0227795D01*
X0028513Y0228800D01*
X0025887Y0228800D01*
X0024878Y0228382D01*
X0023340Y0229919D01*
X0021990Y0231269D01*
X0020314Y0231963D01*
X0074104Y0231971D01*
X0072410Y0231269D01*
X0071060Y0229919D01*
X0069522Y0228382D01*
X0071199Y0230059D02*
X0023201Y0230059D01*
X0023340Y0229919D02*
X0023340Y0229919D01*
X0019271Y0227200D02*
X0024271Y0222200D01*
X0027200Y0222200D01*
X0031074Y0227660D02*
X0033326Y0227660D01*
X0041074Y0227660D02*
X0063326Y0227660D01*
X0057200Y0227400D02*
X0057200Y0222200D01*
X0057200Y0222200D01*
X0057200Y0222200D01*
X0052000Y0222200D01*
X0052000Y0222609D01*
X0052128Y0223418D01*
X0052381Y0224196D01*
X0052753Y0224925D01*
X0053234Y0225588D01*
X0053812Y0226166D01*
X0054475Y0226647D01*
X0055204Y0227019D01*
X0055982Y0227272D01*
X0056791Y0227400D01*
X0057200Y0227400D01*
X0057200Y0225262D02*
X0057200Y0225262D01*
X0057200Y0222863D02*
X0057200Y0222863D01*
X0057200Y0222200D02*
X0052000Y0222200D01*
X0052000Y0221791D01*
X0052128Y0220982D01*
X0052381Y0220204D01*
X0052753Y0219475D01*
X0053234Y0218812D01*
X0053812Y0218234D01*
X0054475Y0217753D01*
X0055204Y0217381D01*
X0055982Y0217128D01*
X0056791Y0217000D01*
X0057200Y0217000D01*
X0057200Y0222200D01*
X0057200Y0220465D02*
X0057200Y0220465D01*
X0057200Y0218066D02*
X0057200Y0218066D01*
X0054043Y0218066D02*
X0042400Y0218066D01*
X0043625Y0220465D02*
X0052296Y0220465D01*
X0052040Y0222863D02*
X0043800Y0222863D01*
X0043076Y0225262D02*
X0052997Y0225262D01*
X0060357Y0218066D02*
X0062000Y0218066D01*
X0065724Y0215668D02*
X0038676Y0215668D01*
X0035724Y0215668D02*
X0028676Y0215668D01*
X0025724Y0215668D02*
X0017000Y0215668D01*
X0017200Y0217000D02*
X0017200Y0222200D01*
X0017200Y0217000D01*
X0017200Y0218066D02*
X0017200Y0218066D01*
X0017200Y0220465D02*
X0017200Y0220465D01*
X0017200Y0222200D02*
X0017200Y0222200D01*
X0020357Y0218066D02*
X0021708Y0218066D01*
X0017000Y0213269D02*
X0068266Y0213269D01*
X0068266Y0210870D02*
X0017000Y0210870D01*
X0017000Y0208472D02*
X0068266Y0208472D01*
X0067433Y0206073D02*
X0017000Y0206073D01*
X0017000Y0203675D02*
X0067104Y0203675D01*
X0067104Y0201276D02*
X0017000Y0201276D01*
X0017000Y0198878D02*
X0067205Y0198878D01*
X0069405Y0196479D02*
X0017000Y0196479D01*
X0017000Y0194081D02*
X0076534Y0194081D01*
X0073539Y0191682D02*
X0073380Y0191682D01*
X0073380Y0189284D02*
X0073539Y0189284D01*
X0073460Y0187200D02*
X0057200Y0187200D01*
X0057200Y0183200D02*
X0053110Y0183200D01*
X0052551Y0183050D01*
X0052049Y0182760D01*
X0051640Y0182351D01*
X0051350Y0181849D01*
X0051200Y0181290D01*
X0051200Y0177200D01*
X0057200Y0177200D01*
X0063200Y0177200D01*
X0063200Y0181290D01*
X0063050Y0181849D01*
X0062760Y0182351D01*
X0062351Y0182760D01*
X0061849Y0183050D01*
X0061290Y0183200D01*
X0057200Y0183200D01*
X0057200Y0177200D01*
X0057200Y0177200D01*
X0057200Y0177200D01*
X0063200Y0177200D01*
X0063200Y0173110D01*
X0063050Y0172551D01*
X0062760Y0172049D01*
X0062351Y0171640D01*
X0061849Y0171350D01*
X0061290Y0171200D01*
X0057200Y0171200D01*
X0057200Y0177200D01*
X0057200Y0177200D01*
X0057200Y0177200D01*
X0057200Y0183200D01*
X0057200Y0182088D02*
X0057200Y0182088D01*
X0057200Y0179690D02*
X0057200Y0179690D01*
X0057200Y0177291D02*
X0057200Y0177291D01*
X0057200Y0177200D02*
X0051200Y0177200D01*
X0051200Y0173110D01*
X0051350Y0172551D01*
X0051640Y0172049D01*
X0052049Y0171640D01*
X0052551Y0171350D01*
X0053110Y0171200D01*
X0057200Y0171200D01*
X0057200Y0177200D01*
X0057200Y0174893D02*
X0057200Y0174893D01*
X0057200Y0172494D02*
X0057200Y0172494D01*
X0051383Y0172494D02*
X0042959Y0172494D01*
X0043473Y0173008D02*
X0044600Y0175728D01*
X0044600Y0178672D01*
X0043473Y0181392D01*
X0041392Y0183473D01*
X0038672Y0184600D01*
X0035728Y0184600D01*
X0033008Y0183473D01*
X0030927Y0181392D01*
X0029800Y0178672D01*
X0029800Y0175728D01*
X0030927Y0173008D01*
X0033008Y0170927D01*
X0035728Y0169800D01*
X0038672Y0169800D01*
X0041392Y0170927D01*
X0043473Y0173008D01*
X0044254Y0174893D02*
X0051200Y0174893D01*
X0051200Y0177291D02*
X0044600Y0177291D01*
X0044178Y0179690D02*
X0051200Y0179690D01*
X0051488Y0182088D02*
X0042777Y0182088D01*
X0038945Y0184487D02*
X0068701Y0184487D01*
X0068701Y0183761D02*
X0068851Y0183201D01*
X0069140Y0182700D01*
X0069550Y0182290D01*
X0070052Y0182000D01*
X0070611Y0181850D01*
X0073380Y0181850D01*
X0073380Y0187120D01*
X0068701Y0187120D01*
X0068701Y0183761D01*
X0069899Y0182088D02*
X0062912Y0182088D01*
X0063200Y0179690D02*
X0076505Y0179690D01*
X0077157Y0180384D02*
X0077157Y0180384D01*
X0074252Y0177291D02*
X0063200Y0177291D01*
X0063200Y0174893D02*
X0072459Y0174893D01*
X0071141Y0172494D02*
X0063017Y0172494D01*
X0070257Y0170888D02*
X0070257Y0170888D01*
X0070054Y0170096D02*
X0039386Y0170096D01*
X0035014Y0170096D02*
X0017000Y0170096D01*
X0017000Y0172494D02*
X0031441Y0172494D01*
X0030146Y0174893D02*
X0017000Y0174893D01*
X0017000Y0177291D02*
X0029800Y0177291D01*
X0030222Y0179690D02*
X0017000Y0179690D01*
X0017000Y0182088D02*
X0031623Y0182088D01*
X0035455Y0184487D02*
X0017000Y0184487D01*
X0017000Y0186885D02*
X0068701Y0186885D01*
X0068701Y0189284D02*
X0017000Y0189284D01*
X0017000Y0191682D02*
X0069130Y0191682D01*
X0073380Y0186885D02*
X0073539Y0186885D01*
X0073539Y0184487D02*
X0073380Y0184487D01*
X0073380Y0182088D02*
X0073539Y0182088D01*
X0080940Y0187200D02*
X0081334Y0187594D01*
X0081334Y0202200D01*
X0073066Y0202200D02*
X0073066Y0218066D01*
X0077200Y0222200D01*
X0113201Y0230059D02*
X0161199Y0230059D01*
X0165129Y0227200D02*
X0160129Y0222200D01*
X0157200Y0222200D01*
X0152000Y0218066D02*
X0150357Y0218066D01*
X0147200Y0218066D02*
X0147200Y0218066D01*
X0147200Y0217000D02*
X0147200Y0222200D01*
X0147200Y0222200D01*
X0147200Y0222200D01*
X0142000Y0222200D01*
X0142000Y0222609D01*
X0142128Y0223418D01*
X0142381Y0224196D01*
X0142753Y0224925D01*
X0143234Y0225588D01*
X0143812Y0226166D01*
X0144475Y0226647D01*
X0145204Y0227019D01*
X0145982Y0227272D01*
X0146791Y0227400D01*
X0147200Y0227400D01*
X0147200Y0222200D01*
X0142000Y0222200D01*
X0142000Y0221791D01*
X0142128Y0220982D01*
X0142381Y0220204D01*
X0142753Y0219475D01*
X0143234Y0218812D01*
X0143812Y0218234D01*
X0144475Y0217753D01*
X0145204Y0217381D01*
X0145982Y0217128D01*
X0146791Y0217000D01*
X0147200Y0217000D01*
X0144043Y0218066D02*
X0132400Y0218066D01*
X0133625Y0220465D02*
X0142296Y0220465D01*
X0142040Y0222863D02*
X0133800Y0222863D01*
X0133076Y0225262D02*
X0142997Y0225262D01*
X0147200Y0225262D02*
X0147200Y0225262D01*
X0147200Y0222863D02*
X0147200Y0222863D01*
X0147200Y0220465D02*
X0147200Y0220465D01*
X0153326Y0227660D02*
X0131074Y0227660D01*
X0123326Y0227660D02*
X0121074Y0227660D01*
X0117200Y0222200D02*
X0114271Y0222200D01*
X0069438Y0167697D02*
X0017000Y0167697D01*
X0017000Y0165299D02*
X0068822Y0165299D01*
X0068786Y0162900D02*
X0017000Y0162900D01*
X0017000Y0160502D02*
X0068786Y0160502D01*
X0069079Y0158103D02*
X0017000Y0158103D01*
X0017000Y0155705D02*
X0069694Y0155705D01*
X0070257Y0153512D02*
X0070257Y0153512D01*
X0070371Y0153306D02*
X0025656Y0153306D01*
X0028202Y0150908D02*
X0067739Y0150908D01*
X0067425Y0148509D02*
X0028375Y0148509D01*
X0028375Y0146111D02*
X0067425Y0146111D01*
X0067425Y0147200D02*
X0067425Y0144336D01*
X0067575Y0143776D01*
X0067865Y0143274D01*
X0068274Y0142865D01*
X0068776Y0142575D01*
X0069336Y0142425D01*
X0072200Y0142425D01*
X0072200Y0147200D01*
X0072200Y0147200D01*
X0072200Y0147200D01*
X0067425Y0147200D01*
X0067612Y0143712D02*
X0028293Y0143712D01*
X0026187Y0141314D02*
X0081415Y0141314D01*
X0082152Y0140846D02*
X0082152Y0140846D01*
X0087200Y0138915D02*
X0017000Y0138915D01*
X0017000Y0136517D02*
X0087200Y0136517D01*
X0087200Y0134118D02*
X0017000Y0134118D01*
X0017000Y0141314D02*
X0018213Y0141314D01*
X0018744Y0153306D02*
X0017000Y0153306D01*
X0012200Y0112200D02*
X0012200Y0224271D01*
X0015129Y0227200D01*
X0019271Y0227200D01*
X0072200Y0146111D02*
X0072200Y0146111D01*
X0072200Y0143712D02*
X0072200Y0143712D01*
X0076788Y0143712D02*
X0077635Y0143712D01*
X0077157Y0144016D02*
X0077157Y0144016D01*
X0099493Y0139755D02*
X0099493Y0139755D01*
X0102805Y0141314D02*
X0108213Y0141314D01*
X0016005Y0026185D02*
X0012200Y0026185D01*
X0012200Y0023787D02*
X0017167Y0023787D01*
X0014830Y0021388D02*
X0012200Y0021388D01*
X0012200Y0018990D02*
X0013836Y0018990D01*
X0013561Y0016591D02*
X0012200Y0016591D01*
X0012200Y0014193D02*
X0013852Y0014193D01*
X0014845Y0011794D02*
X0012200Y0011794D01*
X0012200Y0009396D02*
X0017204Y0009396D01*
D18*
X0047200Y0017791D02*
X0047200Y0032200D01*
X0036609Y0047791D01*
X0036609Y0061609D01*
X0052200Y0077200D01*
X0072200Y0077200D01*
X0036609Y0047791D02*
X0027200Y0047791D01*
X0047200Y0017791D02*
X0052791Y0012200D01*
X0172200Y0012200D01*
X0182200Y0022200D01*
X0182200Y0077200D01*
X0162200Y0077200D01*
X0182200Y0077200D02*
X0182200Y0082200D01*
X0192200Y0092200D01*
X0237200Y0092200D01*
X0252200Y0077200D01*
X0252200Y0047791D01*
X0247200Y0047791D01*
X0252200Y0147200D02*
X0237200Y0162200D01*
X0237200Y0177200D01*
X0237200Y0187200D01*
X0237200Y0197200D01*
X0212200Y0197200D01*
X0197200Y0212200D01*
X0197200Y0222200D01*
X0237200Y0222200D02*
X0237200Y0197200D01*
X0162200Y0147200D02*
X0147200Y0162200D01*
X0147200Y0177200D01*
X0147200Y0187200D01*
X0147200Y0197200D01*
X0122200Y0197200D01*
X0107200Y0212200D01*
X0107200Y0222200D01*
X0147200Y0222200D02*
X0147200Y0197200D01*
X0072200Y0147200D02*
X0057200Y0162200D01*
X0057200Y0177200D01*
X0057200Y0187200D01*
X0057200Y0197200D01*
X0032200Y0197200D01*
X0017200Y0212200D01*
X0017200Y0222200D01*
X0057200Y0222200D02*
X0057200Y0197200D01*
M02*
