%
M48
M72
T01C0.0360
T02C0.0394
T03C0.0400
T04C0.1260
%
T01
X10000Y15500
X10000Y16500
X11000Y16500
X11000Y15500
X12000Y15500
X12000Y16500
X13000Y16500
X13000Y15500
X14000Y15500
X14000Y16500
T02
X14000Y20500
X13000Y20500
X12000Y20500
X10400Y20500
X9400Y20500
X8400Y20500
X7400Y20500
X6400Y20500
X5400Y20500
X4400Y20500
X3400Y20500
X2400Y20500
X1400Y20500
X15000Y20500
X16000Y20500
X17000Y20500
X18000Y20500
X19000Y20500
X19000Y1500
X18000Y1500
X17000Y1500
X16000Y1500
X15000Y1500
X14000Y1500
X12000Y1500
X11000Y1500
X10000Y1500
X9000Y1500
X8000Y1500
X7000Y1500
X6000Y1500
X5000Y1500
T03
X4000Y6000
X4000Y7000
X4000Y8000
X4000Y9000
X8000Y9000
X8000Y8000
X8000Y7000
X8000Y6000
X11000Y3000
X12000Y3000
X14000Y3000
X15000Y3000
X16000Y3000
X17000Y3000
X18000Y3000
X19000Y3000
X16000Y6000
X16000Y7000
X16000Y8000
X16000Y9000
X12000Y9000
X12000Y8000
X12000Y7000
X12000Y6000
X5000Y16000
X4000Y16000
X3000Y16000
X5500Y19000
X6500Y19000
X7500Y19000
X8500Y19000
X18000Y19000
X19000Y19000
T04
X2000Y2000
X18500Y16500
M30
