G75*
%MOIN*%
%OFA0B0*%
%FSLAX25Y25*%
%IPPOS*%
%LPD*%
%AMOC8*
5,1,8,0,0,1.08239X$1,22.5*
%
%ADD10C,0.00000*%
D10*
X0005000Y0005000D02*
X0005000Y0215000D01*
X0194000Y0215000D01*
X0200000Y0209000D01*
X0200000Y0005000D01*
X0005000Y0005000D01*
X0005000Y0214961D01*
X0178701Y0165000D02*
X0178703Y0165158D01*
X0178709Y0165316D01*
X0178719Y0165474D01*
X0178733Y0165632D01*
X0178751Y0165789D01*
X0178772Y0165946D01*
X0178798Y0166102D01*
X0178828Y0166258D01*
X0178861Y0166413D01*
X0178899Y0166566D01*
X0178940Y0166719D01*
X0178985Y0166871D01*
X0179034Y0167022D01*
X0179087Y0167171D01*
X0179143Y0167319D01*
X0179203Y0167465D01*
X0179267Y0167610D01*
X0179335Y0167753D01*
X0179406Y0167895D01*
X0179480Y0168035D01*
X0179558Y0168172D01*
X0179640Y0168308D01*
X0179724Y0168442D01*
X0179813Y0168573D01*
X0179904Y0168702D01*
X0179999Y0168829D01*
X0180096Y0168954D01*
X0180197Y0169076D01*
X0180301Y0169195D01*
X0180408Y0169312D01*
X0180518Y0169426D01*
X0180631Y0169537D01*
X0180746Y0169646D01*
X0180864Y0169751D01*
X0180985Y0169853D01*
X0181108Y0169953D01*
X0181234Y0170049D01*
X0181362Y0170142D01*
X0181492Y0170232D01*
X0181625Y0170318D01*
X0181760Y0170402D01*
X0181896Y0170481D01*
X0182035Y0170558D01*
X0182176Y0170630D01*
X0182318Y0170700D01*
X0182462Y0170765D01*
X0182608Y0170827D01*
X0182755Y0170885D01*
X0182904Y0170940D01*
X0183054Y0170991D01*
X0183205Y0171038D01*
X0183357Y0171081D01*
X0183510Y0171120D01*
X0183665Y0171156D01*
X0183820Y0171187D01*
X0183976Y0171215D01*
X0184132Y0171239D01*
X0184289Y0171259D01*
X0184447Y0171275D01*
X0184604Y0171287D01*
X0184763Y0171295D01*
X0184921Y0171299D01*
X0185079Y0171299D01*
X0185237Y0171295D01*
X0185396Y0171287D01*
X0185553Y0171275D01*
X0185711Y0171259D01*
X0185868Y0171239D01*
X0186024Y0171215D01*
X0186180Y0171187D01*
X0186335Y0171156D01*
X0186490Y0171120D01*
X0186643Y0171081D01*
X0186795Y0171038D01*
X0186946Y0170991D01*
X0187096Y0170940D01*
X0187245Y0170885D01*
X0187392Y0170827D01*
X0187538Y0170765D01*
X0187682Y0170700D01*
X0187824Y0170630D01*
X0187965Y0170558D01*
X0188104Y0170481D01*
X0188240Y0170402D01*
X0188375Y0170318D01*
X0188508Y0170232D01*
X0188638Y0170142D01*
X0188766Y0170049D01*
X0188892Y0169953D01*
X0189015Y0169853D01*
X0189136Y0169751D01*
X0189254Y0169646D01*
X0189369Y0169537D01*
X0189482Y0169426D01*
X0189592Y0169312D01*
X0189699Y0169195D01*
X0189803Y0169076D01*
X0189904Y0168954D01*
X0190001Y0168829D01*
X0190096Y0168702D01*
X0190187Y0168573D01*
X0190276Y0168442D01*
X0190360Y0168308D01*
X0190442Y0168172D01*
X0190520Y0168035D01*
X0190594Y0167895D01*
X0190665Y0167753D01*
X0190733Y0167610D01*
X0190797Y0167465D01*
X0190857Y0167319D01*
X0190913Y0167171D01*
X0190966Y0167022D01*
X0191015Y0166871D01*
X0191060Y0166719D01*
X0191101Y0166566D01*
X0191139Y0166413D01*
X0191172Y0166258D01*
X0191202Y0166102D01*
X0191228Y0165946D01*
X0191249Y0165789D01*
X0191267Y0165632D01*
X0191281Y0165474D01*
X0191291Y0165316D01*
X0191297Y0165158D01*
X0191299Y0165000D01*
X0191297Y0164842D01*
X0191291Y0164684D01*
X0191281Y0164526D01*
X0191267Y0164368D01*
X0191249Y0164211D01*
X0191228Y0164054D01*
X0191202Y0163898D01*
X0191172Y0163742D01*
X0191139Y0163587D01*
X0191101Y0163434D01*
X0191060Y0163281D01*
X0191015Y0163129D01*
X0190966Y0162978D01*
X0190913Y0162829D01*
X0190857Y0162681D01*
X0190797Y0162535D01*
X0190733Y0162390D01*
X0190665Y0162247D01*
X0190594Y0162105D01*
X0190520Y0161965D01*
X0190442Y0161828D01*
X0190360Y0161692D01*
X0190276Y0161558D01*
X0190187Y0161427D01*
X0190096Y0161298D01*
X0190001Y0161171D01*
X0189904Y0161046D01*
X0189803Y0160924D01*
X0189699Y0160805D01*
X0189592Y0160688D01*
X0189482Y0160574D01*
X0189369Y0160463D01*
X0189254Y0160354D01*
X0189136Y0160249D01*
X0189015Y0160147D01*
X0188892Y0160047D01*
X0188766Y0159951D01*
X0188638Y0159858D01*
X0188508Y0159768D01*
X0188375Y0159682D01*
X0188240Y0159598D01*
X0188104Y0159519D01*
X0187965Y0159442D01*
X0187824Y0159370D01*
X0187682Y0159300D01*
X0187538Y0159235D01*
X0187392Y0159173D01*
X0187245Y0159115D01*
X0187096Y0159060D01*
X0186946Y0159009D01*
X0186795Y0158962D01*
X0186643Y0158919D01*
X0186490Y0158880D01*
X0186335Y0158844D01*
X0186180Y0158813D01*
X0186024Y0158785D01*
X0185868Y0158761D01*
X0185711Y0158741D01*
X0185553Y0158725D01*
X0185396Y0158713D01*
X0185237Y0158705D01*
X0185079Y0158701D01*
X0184921Y0158701D01*
X0184763Y0158705D01*
X0184604Y0158713D01*
X0184447Y0158725D01*
X0184289Y0158741D01*
X0184132Y0158761D01*
X0183976Y0158785D01*
X0183820Y0158813D01*
X0183665Y0158844D01*
X0183510Y0158880D01*
X0183357Y0158919D01*
X0183205Y0158962D01*
X0183054Y0159009D01*
X0182904Y0159060D01*
X0182755Y0159115D01*
X0182608Y0159173D01*
X0182462Y0159235D01*
X0182318Y0159300D01*
X0182176Y0159370D01*
X0182035Y0159442D01*
X0181896Y0159519D01*
X0181760Y0159598D01*
X0181625Y0159682D01*
X0181492Y0159768D01*
X0181362Y0159858D01*
X0181234Y0159951D01*
X0181108Y0160047D01*
X0180985Y0160147D01*
X0180864Y0160249D01*
X0180746Y0160354D01*
X0180631Y0160463D01*
X0180518Y0160574D01*
X0180408Y0160688D01*
X0180301Y0160805D01*
X0180197Y0160924D01*
X0180096Y0161046D01*
X0179999Y0161171D01*
X0179904Y0161298D01*
X0179813Y0161427D01*
X0179724Y0161558D01*
X0179640Y0161692D01*
X0179558Y0161828D01*
X0179480Y0161965D01*
X0179406Y0162105D01*
X0179335Y0162247D01*
X0179267Y0162390D01*
X0179203Y0162535D01*
X0179143Y0162681D01*
X0179087Y0162829D01*
X0179034Y0162978D01*
X0178985Y0163129D01*
X0178940Y0163281D01*
X0178899Y0163434D01*
X0178861Y0163587D01*
X0178828Y0163742D01*
X0178798Y0163898D01*
X0178772Y0164054D01*
X0178751Y0164211D01*
X0178733Y0164368D01*
X0178719Y0164526D01*
X0178709Y0164684D01*
X0178703Y0164842D01*
X0178701Y0165000D01*
X0198701Y0005000D02*
X0005000Y0005000D01*
X0013701Y0020000D02*
X0013703Y0020158D01*
X0013709Y0020316D01*
X0013719Y0020474D01*
X0013733Y0020632D01*
X0013751Y0020789D01*
X0013772Y0020946D01*
X0013798Y0021102D01*
X0013828Y0021258D01*
X0013861Y0021413D01*
X0013899Y0021566D01*
X0013940Y0021719D01*
X0013985Y0021871D01*
X0014034Y0022022D01*
X0014087Y0022171D01*
X0014143Y0022319D01*
X0014203Y0022465D01*
X0014267Y0022610D01*
X0014335Y0022753D01*
X0014406Y0022895D01*
X0014480Y0023035D01*
X0014558Y0023172D01*
X0014640Y0023308D01*
X0014724Y0023442D01*
X0014813Y0023573D01*
X0014904Y0023702D01*
X0014999Y0023829D01*
X0015096Y0023954D01*
X0015197Y0024076D01*
X0015301Y0024195D01*
X0015408Y0024312D01*
X0015518Y0024426D01*
X0015631Y0024537D01*
X0015746Y0024646D01*
X0015864Y0024751D01*
X0015985Y0024853D01*
X0016108Y0024953D01*
X0016234Y0025049D01*
X0016362Y0025142D01*
X0016492Y0025232D01*
X0016625Y0025318D01*
X0016760Y0025402D01*
X0016896Y0025481D01*
X0017035Y0025558D01*
X0017176Y0025630D01*
X0017318Y0025700D01*
X0017462Y0025765D01*
X0017608Y0025827D01*
X0017755Y0025885D01*
X0017904Y0025940D01*
X0018054Y0025991D01*
X0018205Y0026038D01*
X0018357Y0026081D01*
X0018510Y0026120D01*
X0018665Y0026156D01*
X0018820Y0026187D01*
X0018976Y0026215D01*
X0019132Y0026239D01*
X0019289Y0026259D01*
X0019447Y0026275D01*
X0019604Y0026287D01*
X0019763Y0026295D01*
X0019921Y0026299D01*
X0020079Y0026299D01*
X0020237Y0026295D01*
X0020396Y0026287D01*
X0020553Y0026275D01*
X0020711Y0026259D01*
X0020868Y0026239D01*
X0021024Y0026215D01*
X0021180Y0026187D01*
X0021335Y0026156D01*
X0021490Y0026120D01*
X0021643Y0026081D01*
X0021795Y0026038D01*
X0021946Y0025991D01*
X0022096Y0025940D01*
X0022245Y0025885D01*
X0022392Y0025827D01*
X0022538Y0025765D01*
X0022682Y0025700D01*
X0022824Y0025630D01*
X0022965Y0025558D01*
X0023104Y0025481D01*
X0023240Y0025402D01*
X0023375Y0025318D01*
X0023508Y0025232D01*
X0023638Y0025142D01*
X0023766Y0025049D01*
X0023892Y0024953D01*
X0024015Y0024853D01*
X0024136Y0024751D01*
X0024254Y0024646D01*
X0024369Y0024537D01*
X0024482Y0024426D01*
X0024592Y0024312D01*
X0024699Y0024195D01*
X0024803Y0024076D01*
X0024904Y0023954D01*
X0025001Y0023829D01*
X0025096Y0023702D01*
X0025187Y0023573D01*
X0025276Y0023442D01*
X0025360Y0023308D01*
X0025442Y0023172D01*
X0025520Y0023035D01*
X0025594Y0022895D01*
X0025665Y0022753D01*
X0025733Y0022610D01*
X0025797Y0022465D01*
X0025857Y0022319D01*
X0025913Y0022171D01*
X0025966Y0022022D01*
X0026015Y0021871D01*
X0026060Y0021719D01*
X0026101Y0021566D01*
X0026139Y0021413D01*
X0026172Y0021258D01*
X0026202Y0021102D01*
X0026228Y0020946D01*
X0026249Y0020789D01*
X0026267Y0020632D01*
X0026281Y0020474D01*
X0026291Y0020316D01*
X0026297Y0020158D01*
X0026299Y0020000D01*
X0026297Y0019842D01*
X0026291Y0019684D01*
X0026281Y0019526D01*
X0026267Y0019368D01*
X0026249Y0019211D01*
X0026228Y0019054D01*
X0026202Y0018898D01*
X0026172Y0018742D01*
X0026139Y0018587D01*
X0026101Y0018434D01*
X0026060Y0018281D01*
X0026015Y0018129D01*
X0025966Y0017978D01*
X0025913Y0017829D01*
X0025857Y0017681D01*
X0025797Y0017535D01*
X0025733Y0017390D01*
X0025665Y0017247D01*
X0025594Y0017105D01*
X0025520Y0016965D01*
X0025442Y0016828D01*
X0025360Y0016692D01*
X0025276Y0016558D01*
X0025187Y0016427D01*
X0025096Y0016298D01*
X0025001Y0016171D01*
X0024904Y0016046D01*
X0024803Y0015924D01*
X0024699Y0015805D01*
X0024592Y0015688D01*
X0024482Y0015574D01*
X0024369Y0015463D01*
X0024254Y0015354D01*
X0024136Y0015249D01*
X0024015Y0015147D01*
X0023892Y0015047D01*
X0023766Y0014951D01*
X0023638Y0014858D01*
X0023508Y0014768D01*
X0023375Y0014682D01*
X0023240Y0014598D01*
X0023104Y0014519D01*
X0022965Y0014442D01*
X0022824Y0014370D01*
X0022682Y0014300D01*
X0022538Y0014235D01*
X0022392Y0014173D01*
X0022245Y0014115D01*
X0022096Y0014060D01*
X0021946Y0014009D01*
X0021795Y0013962D01*
X0021643Y0013919D01*
X0021490Y0013880D01*
X0021335Y0013844D01*
X0021180Y0013813D01*
X0021024Y0013785D01*
X0020868Y0013761D01*
X0020711Y0013741D01*
X0020553Y0013725D01*
X0020396Y0013713D01*
X0020237Y0013705D01*
X0020079Y0013701D01*
X0019921Y0013701D01*
X0019763Y0013705D01*
X0019604Y0013713D01*
X0019447Y0013725D01*
X0019289Y0013741D01*
X0019132Y0013761D01*
X0018976Y0013785D01*
X0018820Y0013813D01*
X0018665Y0013844D01*
X0018510Y0013880D01*
X0018357Y0013919D01*
X0018205Y0013962D01*
X0018054Y0014009D01*
X0017904Y0014060D01*
X0017755Y0014115D01*
X0017608Y0014173D01*
X0017462Y0014235D01*
X0017318Y0014300D01*
X0017176Y0014370D01*
X0017035Y0014442D01*
X0016896Y0014519D01*
X0016760Y0014598D01*
X0016625Y0014682D01*
X0016492Y0014768D01*
X0016362Y0014858D01*
X0016234Y0014951D01*
X0016108Y0015047D01*
X0015985Y0015147D01*
X0015864Y0015249D01*
X0015746Y0015354D01*
X0015631Y0015463D01*
X0015518Y0015574D01*
X0015408Y0015688D01*
X0015301Y0015805D01*
X0015197Y0015924D01*
X0015096Y0016046D01*
X0014999Y0016171D01*
X0014904Y0016298D01*
X0014813Y0016427D01*
X0014724Y0016558D01*
X0014640Y0016692D01*
X0014558Y0016828D01*
X0014480Y0016965D01*
X0014406Y0017105D01*
X0014335Y0017247D01*
X0014267Y0017390D01*
X0014203Y0017535D01*
X0014143Y0017681D01*
X0014087Y0017829D01*
X0014034Y0017978D01*
X0013985Y0018129D01*
X0013940Y0018281D01*
X0013899Y0018434D01*
X0013861Y0018587D01*
X0013828Y0018742D01*
X0013798Y0018898D01*
X0013772Y0019054D01*
X0013751Y0019211D01*
X0013733Y0019368D01*
X0013719Y0019526D01*
X0013709Y0019684D01*
X0013703Y0019842D01*
X0013701Y0020000D01*
M02*
