G75*
%MOIN*%
%OFA0B0*%
%FSLAX25Y25*%
%IPPOS*%
%LPD*%
%AMOC8*
5,1,8,0,0,1.08239X$1,22.5*
%
%ADD10C,0.00000*%
%ADD11C,0.00400*%
%ADD12C,0.00300*%
D10*
X0005000Y0005000D02*
X0005000Y0215000D01*
X0194000Y0215000D01*
X0200000Y0209000D01*
X0200000Y0005000D01*
X0005000Y0005000D01*
X0005000Y0214961D01*
X0178701Y0165000D02*
X0178703Y0165158D01*
X0178709Y0165316D01*
X0178719Y0165474D01*
X0178733Y0165632D01*
X0178751Y0165789D01*
X0178772Y0165946D01*
X0178798Y0166102D01*
X0178828Y0166258D01*
X0178861Y0166413D01*
X0178899Y0166566D01*
X0178940Y0166719D01*
X0178985Y0166871D01*
X0179034Y0167022D01*
X0179087Y0167171D01*
X0179143Y0167319D01*
X0179203Y0167465D01*
X0179267Y0167610D01*
X0179335Y0167753D01*
X0179406Y0167895D01*
X0179480Y0168035D01*
X0179558Y0168172D01*
X0179640Y0168308D01*
X0179724Y0168442D01*
X0179813Y0168573D01*
X0179904Y0168702D01*
X0179999Y0168829D01*
X0180096Y0168954D01*
X0180197Y0169076D01*
X0180301Y0169195D01*
X0180408Y0169312D01*
X0180518Y0169426D01*
X0180631Y0169537D01*
X0180746Y0169646D01*
X0180864Y0169751D01*
X0180985Y0169853D01*
X0181108Y0169953D01*
X0181234Y0170049D01*
X0181362Y0170142D01*
X0181492Y0170232D01*
X0181625Y0170318D01*
X0181760Y0170402D01*
X0181896Y0170481D01*
X0182035Y0170558D01*
X0182176Y0170630D01*
X0182318Y0170700D01*
X0182462Y0170765D01*
X0182608Y0170827D01*
X0182755Y0170885D01*
X0182904Y0170940D01*
X0183054Y0170991D01*
X0183205Y0171038D01*
X0183357Y0171081D01*
X0183510Y0171120D01*
X0183665Y0171156D01*
X0183820Y0171187D01*
X0183976Y0171215D01*
X0184132Y0171239D01*
X0184289Y0171259D01*
X0184447Y0171275D01*
X0184604Y0171287D01*
X0184763Y0171295D01*
X0184921Y0171299D01*
X0185079Y0171299D01*
X0185237Y0171295D01*
X0185396Y0171287D01*
X0185553Y0171275D01*
X0185711Y0171259D01*
X0185868Y0171239D01*
X0186024Y0171215D01*
X0186180Y0171187D01*
X0186335Y0171156D01*
X0186490Y0171120D01*
X0186643Y0171081D01*
X0186795Y0171038D01*
X0186946Y0170991D01*
X0187096Y0170940D01*
X0187245Y0170885D01*
X0187392Y0170827D01*
X0187538Y0170765D01*
X0187682Y0170700D01*
X0187824Y0170630D01*
X0187965Y0170558D01*
X0188104Y0170481D01*
X0188240Y0170402D01*
X0188375Y0170318D01*
X0188508Y0170232D01*
X0188638Y0170142D01*
X0188766Y0170049D01*
X0188892Y0169953D01*
X0189015Y0169853D01*
X0189136Y0169751D01*
X0189254Y0169646D01*
X0189369Y0169537D01*
X0189482Y0169426D01*
X0189592Y0169312D01*
X0189699Y0169195D01*
X0189803Y0169076D01*
X0189904Y0168954D01*
X0190001Y0168829D01*
X0190096Y0168702D01*
X0190187Y0168573D01*
X0190276Y0168442D01*
X0190360Y0168308D01*
X0190442Y0168172D01*
X0190520Y0168035D01*
X0190594Y0167895D01*
X0190665Y0167753D01*
X0190733Y0167610D01*
X0190797Y0167465D01*
X0190857Y0167319D01*
X0190913Y0167171D01*
X0190966Y0167022D01*
X0191015Y0166871D01*
X0191060Y0166719D01*
X0191101Y0166566D01*
X0191139Y0166413D01*
X0191172Y0166258D01*
X0191202Y0166102D01*
X0191228Y0165946D01*
X0191249Y0165789D01*
X0191267Y0165632D01*
X0191281Y0165474D01*
X0191291Y0165316D01*
X0191297Y0165158D01*
X0191299Y0165000D01*
X0191297Y0164842D01*
X0191291Y0164684D01*
X0191281Y0164526D01*
X0191267Y0164368D01*
X0191249Y0164211D01*
X0191228Y0164054D01*
X0191202Y0163898D01*
X0191172Y0163742D01*
X0191139Y0163587D01*
X0191101Y0163434D01*
X0191060Y0163281D01*
X0191015Y0163129D01*
X0190966Y0162978D01*
X0190913Y0162829D01*
X0190857Y0162681D01*
X0190797Y0162535D01*
X0190733Y0162390D01*
X0190665Y0162247D01*
X0190594Y0162105D01*
X0190520Y0161965D01*
X0190442Y0161828D01*
X0190360Y0161692D01*
X0190276Y0161558D01*
X0190187Y0161427D01*
X0190096Y0161298D01*
X0190001Y0161171D01*
X0189904Y0161046D01*
X0189803Y0160924D01*
X0189699Y0160805D01*
X0189592Y0160688D01*
X0189482Y0160574D01*
X0189369Y0160463D01*
X0189254Y0160354D01*
X0189136Y0160249D01*
X0189015Y0160147D01*
X0188892Y0160047D01*
X0188766Y0159951D01*
X0188638Y0159858D01*
X0188508Y0159768D01*
X0188375Y0159682D01*
X0188240Y0159598D01*
X0188104Y0159519D01*
X0187965Y0159442D01*
X0187824Y0159370D01*
X0187682Y0159300D01*
X0187538Y0159235D01*
X0187392Y0159173D01*
X0187245Y0159115D01*
X0187096Y0159060D01*
X0186946Y0159009D01*
X0186795Y0158962D01*
X0186643Y0158919D01*
X0186490Y0158880D01*
X0186335Y0158844D01*
X0186180Y0158813D01*
X0186024Y0158785D01*
X0185868Y0158761D01*
X0185711Y0158741D01*
X0185553Y0158725D01*
X0185396Y0158713D01*
X0185237Y0158705D01*
X0185079Y0158701D01*
X0184921Y0158701D01*
X0184763Y0158705D01*
X0184604Y0158713D01*
X0184447Y0158725D01*
X0184289Y0158741D01*
X0184132Y0158761D01*
X0183976Y0158785D01*
X0183820Y0158813D01*
X0183665Y0158844D01*
X0183510Y0158880D01*
X0183357Y0158919D01*
X0183205Y0158962D01*
X0183054Y0159009D01*
X0182904Y0159060D01*
X0182755Y0159115D01*
X0182608Y0159173D01*
X0182462Y0159235D01*
X0182318Y0159300D01*
X0182176Y0159370D01*
X0182035Y0159442D01*
X0181896Y0159519D01*
X0181760Y0159598D01*
X0181625Y0159682D01*
X0181492Y0159768D01*
X0181362Y0159858D01*
X0181234Y0159951D01*
X0181108Y0160047D01*
X0180985Y0160147D01*
X0180864Y0160249D01*
X0180746Y0160354D01*
X0180631Y0160463D01*
X0180518Y0160574D01*
X0180408Y0160688D01*
X0180301Y0160805D01*
X0180197Y0160924D01*
X0180096Y0161046D01*
X0179999Y0161171D01*
X0179904Y0161298D01*
X0179813Y0161427D01*
X0179724Y0161558D01*
X0179640Y0161692D01*
X0179558Y0161828D01*
X0179480Y0161965D01*
X0179406Y0162105D01*
X0179335Y0162247D01*
X0179267Y0162390D01*
X0179203Y0162535D01*
X0179143Y0162681D01*
X0179087Y0162829D01*
X0179034Y0162978D01*
X0178985Y0163129D01*
X0178940Y0163281D01*
X0178899Y0163434D01*
X0178861Y0163587D01*
X0178828Y0163742D01*
X0178798Y0163898D01*
X0178772Y0164054D01*
X0178751Y0164211D01*
X0178733Y0164368D01*
X0178719Y0164526D01*
X0178709Y0164684D01*
X0178703Y0164842D01*
X0178701Y0165000D01*
X0198701Y0005000D02*
X0005000Y0005000D01*
X0013701Y0020000D02*
X0013703Y0020158D01*
X0013709Y0020316D01*
X0013719Y0020474D01*
X0013733Y0020632D01*
X0013751Y0020789D01*
X0013772Y0020946D01*
X0013798Y0021102D01*
X0013828Y0021258D01*
X0013861Y0021413D01*
X0013899Y0021566D01*
X0013940Y0021719D01*
X0013985Y0021871D01*
X0014034Y0022022D01*
X0014087Y0022171D01*
X0014143Y0022319D01*
X0014203Y0022465D01*
X0014267Y0022610D01*
X0014335Y0022753D01*
X0014406Y0022895D01*
X0014480Y0023035D01*
X0014558Y0023172D01*
X0014640Y0023308D01*
X0014724Y0023442D01*
X0014813Y0023573D01*
X0014904Y0023702D01*
X0014999Y0023829D01*
X0015096Y0023954D01*
X0015197Y0024076D01*
X0015301Y0024195D01*
X0015408Y0024312D01*
X0015518Y0024426D01*
X0015631Y0024537D01*
X0015746Y0024646D01*
X0015864Y0024751D01*
X0015985Y0024853D01*
X0016108Y0024953D01*
X0016234Y0025049D01*
X0016362Y0025142D01*
X0016492Y0025232D01*
X0016625Y0025318D01*
X0016760Y0025402D01*
X0016896Y0025481D01*
X0017035Y0025558D01*
X0017176Y0025630D01*
X0017318Y0025700D01*
X0017462Y0025765D01*
X0017608Y0025827D01*
X0017755Y0025885D01*
X0017904Y0025940D01*
X0018054Y0025991D01*
X0018205Y0026038D01*
X0018357Y0026081D01*
X0018510Y0026120D01*
X0018665Y0026156D01*
X0018820Y0026187D01*
X0018976Y0026215D01*
X0019132Y0026239D01*
X0019289Y0026259D01*
X0019447Y0026275D01*
X0019604Y0026287D01*
X0019763Y0026295D01*
X0019921Y0026299D01*
X0020079Y0026299D01*
X0020237Y0026295D01*
X0020396Y0026287D01*
X0020553Y0026275D01*
X0020711Y0026259D01*
X0020868Y0026239D01*
X0021024Y0026215D01*
X0021180Y0026187D01*
X0021335Y0026156D01*
X0021490Y0026120D01*
X0021643Y0026081D01*
X0021795Y0026038D01*
X0021946Y0025991D01*
X0022096Y0025940D01*
X0022245Y0025885D01*
X0022392Y0025827D01*
X0022538Y0025765D01*
X0022682Y0025700D01*
X0022824Y0025630D01*
X0022965Y0025558D01*
X0023104Y0025481D01*
X0023240Y0025402D01*
X0023375Y0025318D01*
X0023508Y0025232D01*
X0023638Y0025142D01*
X0023766Y0025049D01*
X0023892Y0024953D01*
X0024015Y0024853D01*
X0024136Y0024751D01*
X0024254Y0024646D01*
X0024369Y0024537D01*
X0024482Y0024426D01*
X0024592Y0024312D01*
X0024699Y0024195D01*
X0024803Y0024076D01*
X0024904Y0023954D01*
X0025001Y0023829D01*
X0025096Y0023702D01*
X0025187Y0023573D01*
X0025276Y0023442D01*
X0025360Y0023308D01*
X0025442Y0023172D01*
X0025520Y0023035D01*
X0025594Y0022895D01*
X0025665Y0022753D01*
X0025733Y0022610D01*
X0025797Y0022465D01*
X0025857Y0022319D01*
X0025913Y0022171D01*
X0025966Y0022022D01*
X0026015Y0021871D01*
X0026060Y0021719D01*
X0026101Y0021566D01*
X0026139Y0021413D01*
X0026172Y0021258D01*
X0026202Y0021102D01*
X0026228Y0020946D01*
X0026249Y0020789D01*
X0026267Y0020632D01*
X0026281Y0020474D01*
X0026291Y0020316D01*
X0026297Y0020158D01*
X0026299Y0020000D01*
X0026297Y0019842D01*
X0026291Y0019684D01*
X0026281Y0019526D01*
X0026267Y0019368D01*
X0026249Y0019211D01*
X0026228Y0019054D01*
X0026202Y0018898D01*
X0026172Y0018742D01*
X0026139Y0018587D01*
X0026101Y0018434D01*
X0026060Y0018281D01*
X0026015Y0018129D01*
X0025966Y0017978D01*
X0025913Y0017829D01*
X0025857Y0017681D01*
X0025797Y0017535D01*
X0025733Y0017390D01*
X0025665Y0017247D01*
X0025594Y0017105D01*
X0025520Y0016965D01*
X0025442Y0016828D01*
X0025360Y0016692D01*
X0025276Y0016558D01*
X0025187Y0016427D01*
X0025096Y0016298D01*
X0025001Y0016171D01*
X0024904Y0016046D01*
X0024803Y0015924D01*
X0024699Y0015805D01*
X0024592Y0015688D01*
X0024482Y0015574D01*
X0024369Y0015463D01*
X0024254Y0015354D01*
X0024136Y0015249D01*
X0024015Y0015147D01*
X0023892Y0015047D01*
X0023766Y0014951D01*
X0023638Y0014858D01*
X0023508Y0014768D01*
X0023375Y0014682D01*
X0023240Y0014598D01*
X0023104Y0014519D01*
X0022965Y0014442D01*
X0022824Y0014370D01*
X0022682Y0014300D01*
X0022538Y0014235D01*
X0022392Y0014173D01*
X0022245Y0014115D01*
X0022096Y0014060D01*
X0021946Y0014009D01*
X0021795Y0013962D01*
X0021643Y0013919D01*
X0021490Y0013880D01*
X0021335Y0013844D01*
X0021180Y0013813D01*
X0021024Y0013785D01*
X0020868Y0013761D01*
X0020711Y0013741D01*
X0020553Y0013725D01*
X0020396Y0013713D01*
X0020237Y0013705D01*
X0020079Y0013701D01*
X0019921Y0013701D01*
X0019763Y0013705D01*
X0019604Y0013713D01*
X0019447Y0013725D01*
X0019289Y0013741D01*
X0019132Y0013761D01*
X0018976Y0013785D01*
X0018820Y0013813D01*
X0018665Y0013844D01*
X0018510Y0013880D01*
X0018357Y0013919D01*
X0018205Y0013962D01*
X0018054Y0014009D01*
X0017904Y0014060D01*
X0017755Y0014115D01*
X0017608Y0014173D01*
X0017462Y0014235D01*
X0017318Y0014300D01*
X0017176Y0014370D01*
X0017035Y0014442D01*
X0016896Y0014519D01*
X0016760Y0014598D01*
X0016625Y0014682D01*
X0016492Y0014768D01*
X0016362Y0014858D01*
X0016234Y0014951D01*
X0016108Y0015047D01*
X0015985Y0015147D01*
X0015864Y0015249D01*
X0015746Y0015354D01*
X0015631Y0015463D01*
X0015518Y0015574D01*
X0015408Y0015688D01*
X0015301Y0015805D01*
X0015197Y0015924D01*
X0015096Y0016046D01*
X0014999Y0016171D01*
X0014904Y0016298D01*
X0014813Y0016427D01*
X0014724Y0016558D01*
X0014640Y0016692D01*
X0014558Y0016828D01*
X0014480Y0016965D01*
X0014406Y0017105D01*
X0014335Y0017247D01*
X0014267Y0017390D01*
X0014203Y0017535D01*
X0014143Y0017681D01*
X0014087Y0017829D01*
X0014034Y0017978D01*
X0013985Y0018129D01*
X0013940Y0018281D01*
X0013899Y0018434D01*
X0013861Y0018587D01*
X0013828Y0018742D01*
X0013798Y0018898D01*
X0013772Y0019054D01*
X0013751Y0019211D01*
X0013733Y0019368D01*
X0013719Y0019526D01*
X0013709Y0019684D01*
X0013703Y0019842D01*
X0013701Y0020000D01*
D11*
X0045200Y0037700D02*
X0049800Y0037700D01*
X0049800Y0038978D01*
X0049798Y0039048D01*
X0049792Y0039119D01*
X0049783Y0039188D01*
X0049769Y0039257D01*
X0049752Y0039326D01*
X0049731Y0039393D01*
X0049706Y0039459D01*
X0049678Y0039523D01*
X0049646Y0039586D01*
X0049611Y0039647D01*
X0049572Y0039706D01*
X0049531Y0039763D01*
X0049486Y0039817D01*
X0049438Y0039869D01*
X0049388Y0039918D01*
X0049334Y0039965D01*
X0049279Y0040008D01*
X0049221Y0040048D01*
X0049161Y0040085D01*
X0049099Y0040118D01*
X0049035Y0040148D01*
X0048970Y0040175D01*
X0048904Y0040198D01*
X0048836Y0040217D01*
X0048767Y0040232D01*
X0048698Y0040244D01*
X0048628Y0040252D01*
X0048557Y0040256D01*
X0048487Y0040256D01*
X0048416Y0040252D01*
X0048346Y0040244D01*
X0048277Y0040232D01*
X0048208Y0040217D01*
X0048140Y0040198D01*
X0048074Y0040175D01*
X0048009Y0040148D01*
X0047945Y0040118D01*
X0047883Y0040085D01*
X0047823Y0040048D01*
X0047765Y0040008D01*
X0047710Y0039965D01*
X0047656Y0039918D01*
X0047606Y0039869D01*
X0047558Y0039817D01*
X0047513Y0039763D01*
X0047472Y0039706D01*
X0047433Y0039647D01*
X0047398Y0039586D01*
X0047366Y0039523D01*
X0047338Y0039459D01*
X0047313Y0039393D01*
X0047292Y0039326D01*
X0047275Y0039257D01*
X0047261Y0039188D01*
X0047252Y0039119D01*
X0047246Y0039048D01*
X0047244Y0038978D01*
X0047244Y0037700D01*
X0047244Y0039233D02*
X0045200Y0040256D01*
X0045200Y0042171D02*
X0045200Y0044727D01*
X0045200Y0043449D02*
X0049800Y0043449D01*
X0048778Y0042171D01*
X0048778Y0046671D02*
X0049800Y0047949D01*
X0045200Y0047949D01*
X0045200Y0046671D02*
X0045200Y0049227D01*
X0060200Y0067700D02*
X0064800Y0067700D01*
X0064800Y0068978D01*
X0064798Y0069048D01*
X0064792Y0069119D01*
X0064783Y0069188D01*
X0064769Y0069257D01*
X0064752Y0069326D01*
X0064731Y0069393D01*
X0064706Y0069459D01*
X0064678Y0069523D01*
X0064646Y0069586D01*
X0064611Y0069647D01*
X0064572Y0069706D01*
X0064531Y0069763D01*
X0064486Y0069817D01*
X0064438Y0069869D01*
X0064388Y0069918D01*
X0064334Y0069965D01*
X0064279Y0070008D01*
X0064221Y0070048D01*
X0064161Y0070085D01*
X0064099Y0070118D01*
X0064035Y0070148D01*
X0063970Y0070175D01*
X0063904Y0070198D01*
X0063836Y0070217D01*
X0063767Y0070232D01*
X0063698Y0070244D01*
X0063628Y0070252D01*
X0063557Y0070256D01*
X0063487Y0070256D01*
X0063416Y0070252D01*
X0063346Y0070244D01*
X0063277Y0070232D01*
X0063208Y0070217D01*
X0063140Y0070198D01*
X0063074Y0070175D01*
X0063009Y0070148D01*
X0062945Y0070118D01*
X0062883Y0070085D01*
X0062823Y0070048D01*
X0062765Y0070008D01*
X0062710Y0069965D01*
X0062656Y0069918D01*
X0062606Y0069869D01*
X0062558Y0069817D01*
X0062513Y0069763D01*
X0062472Y0069706D01*
X0062433Y0069647D01*
X0062398Y0069586D01*
X0062366Y0069523D01*
X0062338Y0069459D01*
X0062313Y0069393D01*
X0062292Y0069326D01*
X0062275Y0069257D01*
X0062261Y0069188D01*
X0062252Y0069119D01*
X0062246Y0069048D01*
X0062244Y0068978D01*
X0062244Y0067700D01*
X0062244Y0069233D02*
X0060200Y0070256D01*
X0060200Y0072171D02*
X0060200Y0074727D01*
X0060200Y0073449D02*
X0064800Y0073449D01*
X0063778Y0072171D01*
X0060200Y0076671D02*
X0060200Y0079227D01*
X0060200Y0076671D02*
X0062756Y0078843D01*
X0064800Y0078077D02*
X0064798Y0078003D01*
X0064793Y0077929D01*
X0064783Y0077855D01*
X0064770Y0077782D01*
X0064754Y0077709D01*
X0064733Y0077638D01*
X0064709Y0077568D01*
X0064682Y0077499D01*
X0064651Y0077431D01*
X0064617Y0077365D01*
X0064580Y0077301D01*
X0064539Y0077239D01*
X0064495Y0077179D01*
X0064449Y0077121D01*
X0064399Y0077065D01*
X0064347Y0077012D01*
X0064292Y0076962D01*
X0064235Y0076915D01*
X0064175Y0076871D01*
X0064113Y0076829D01*
X0064050Y0076791D01*
X0063984Y0076756D01*
X0063917Y0076725D01*
X0063848Y0076697D01*
X0063778Y0076672D01*
X0062756Y0078843D02*
X0062803Y0078890D01*
X0062853Y0078934D01*
X0062905Y0078976D01*
X0062959Y0079015D01*
X0063015Y0079050D01*
X0063073Y0079083D01*
X0063133Y0079113D01*
X0063194Y0079139D01*
X0063257Y0079162D01*
X0063321Y0079181D01*
X0063385Y0079197D01*
X0063451Y0079210D01*
X0063517Y0079219D01*
X0063583Y0079224D01*
X0063650Y0079226D01*
X0063650Y0079227D02*
X0063717Y0079225D01*
X0063784Y0079219D01*
X0063850Y0079210D01*
X0063915Y0079196D01*
X0063980Y0079179D01*
X0064043Y0079158D01*
X0064105Y0079133D01*
X0064166Y0079105D01*
X0064225Y0079073D01*
X0064282Y0079038D01*
X0064337Y0078999D01*
X0064389Y0078958D01*
X0064439Y0078913D01*
X0064486Y0078866D01*
X0064531Y0078816D01*
X0064572Y0078764D01*
X0064611Y0078709D01*
X0064646Y0078652D01*
X0064678Y0078593D01*
X0064706Y0078532D01*
X0064731Y0078470D01*
X0064752Y0078407D01*
X0064769Y0078342D01*
X0064783Y0078277D01*
X0064792Y0078211D01*
X0064798Y0078144D01*
X0064800Y0078077D01*
X0049800Y0097700D02*
X0049800Y0098978D01*
X0049798Y0099048D01*
X0049792Y0099119D01*
X0049783Y0099188D01*
X0049769Y0099257D01*
X0049752Y0099326D01*
X0049731Y0099393D01*
X0049706Y0099459D01*
X0049678Y0099523D01*
X0049646Y0099586D01*
X0049611Y0099647D01*
X0049572Y0099706D01*
X0049531Y0099763D01*
X0049486Y0099817D01*
X0049438Y0099869D01*
X0049388Y0099918D01*
X0049334Y0099965D01*
X0049279Y0100008D01*
X0049221Y0100048D01*
X0049161Y0100085D01*
X0049099Y0100118D01*
X0049035Y0100148D01*
X0048970Y0100175D01*
X0048904Y0100198D01*
X0048836Y0100217D01*
X0048767Y0100232D01*
X0048698Y0100244D01*
X0048628Y0100252D01*
X0048557Y0100256D01*
X0048487Y0100256D01*
X0048416Y0100252D01*
X0048346Y0100244D01*
X0048277Y0100232D01*
X0048208Y0100217D01*
X0048140Y0100198D01*
X0048074Y0100175D01*
X0048009Y0100148D01*
X0047945Y0100118D01*
X0047883Y0100085D01*
X0047823Y0100048D01*
X0047765Y0100008D01*
X0047710Y0099965D01*
X0047656Y0099918D01*
X0047606Y0099869D01*
X0047558Y0099817D01*
X0047513Y0099763D01*
X0047472Y0099706D01*
X0047433Y0099647D01*
X0047398Y0099586D01*
X0047366Y0099523D01*
X0047338Y0099459D01*
X0047313Y0099393D01*
X0047292Y0099326D01*
X0047275Y0099257D01*
X0047261Y0099188D01*
X0047252Y0099119D01*
X0047246Y0099048D01*
X0047244Y0098978D01*
X0047244Y0097700D01*
X0047244Y0099233D02*
X0045200Y0100256D01*
X0045200Y0102171D02*
X0045200Y0104727D01*
X0045200Y0103449D02*
X0049800Y0103449D01*
X0048778Y0102171D01*
X0047500Y0109227D02*
X0047385Y0109225D01*
X0047271Y0109220D01*
X0047157Y0109211D01*
X0047043Y0109199D01*
X0046929Y0109184D01*
X0046816Y0109165D01*
X0046704Y0109142D01*
X0046592Y0109117D01*
X0046481Y0109087D01*
X0046371Y0109055D01*
X0046262Y0109019D01*
X0046154Y0108980D01*
X0046048Y0108938D01*
X0045943Y0108892D01*
X0045839Y0108844D01*
X0045784Y0108823D01*
X0045731Y0108799D01*
X0045679Y0108772D01*
X0045629Y0108741D01*
X0045581Y0108708D01*
X0045535Y0108671D01*
X0045491Y0108632D01*
X0045450Y0108590D01*
X0045412Y0108546D01*
X0045376Y0108499D01*
X0045344Y0108450D01*
X0045314Y0108399D01*
X0045288Y0108347D01*
X0045265Y0108293D01*
X0045245Y0108238D01*
X0045229Y0108181D01*
X0045216Y0108124D01*
X0045207Y0108066D01*
X0045202Y0108008D01*
X0045200Y0107949D01*
X0045202Y0107890D01*
X0045207Y0107832D01*
X0045216Y0107774D01*
X0045229Y0107717D01*
X0045245Y0107660D01*
X0045265Y0107605D01*
X0045288Y0107551D01*
X0045314Y0107499D01*
X0045344Y0107448D01*
X0045376Y0107399D01*
X0045412Y0107352D01*
X0045450Y0107308D01*
X0045491Y0107266D01*
X0045535Y0107227D01*
X0045581Y0107190D01*
X0045629Y0107157D01*
X0045679Y0107126D01*
X0045731Y0107099D01*
X0045784Y0107075D01*
X0045839Y0107054D01*
X0046222Y0106927D02*
X0048778Y0108971D01*
X0049161Y0108844D02*
X0049216Y0108823D01*
X0049269Y0108799D01*
X0049321Y0108772D01*
X0049371Y0108741D01*
X0049419Y0108708D01*
X0049465Y0108671D01*
X0049509Y0108632D01*
X0049550Y0108590D01*
X0049588Y0108546D01*
X0049624Y0108499D01*
X0049656Y0108450D01*
X0049686Y0108399D01*
X0049712Y0108347D01*
X0049735Y0108293D01*
X0049755Y0108238D01*
X0049771Y0108181D01*
X0049784Y0108124D01*
X0049793Y0108066D01*
X0049798Y0108008D01*
X0049800Y0107949D01*
X0049798Y0107890D01*
X0049793Y0107832D01*
X0049784Y0107774D01*
X0049771Y0107717D01*
X0049755Y0107660D01*
X0049735Y0107605D01*
X0049712Y0107551D01*
X0049686Y0107499D01*
X0049656Y0107448D01*
X0049624Y0107399D01*
X0049588Y0107352D01*
X0049550Y0107308D01*
X0049509Y0107266D01*
X0049465Y0107227D01*
X0049419Y0107190D01*
X0049371Y0107157D01*
X0049321Y0107126D01*
X0049269Y0107099D01*
X0049216Y0107075D01*
X0049161Y0107054D01*
X0049161Y0108844D02*
X0049057Y0108892D01*
X0048952Y0108938D01*
X0048846Y0108980D01*
X0048738Y0109019D01*
X0048629Y0109055D01*
X0048519Y0109087D01*
X0048408Y0109117D01*
X0048296Y0109142D01*
X0048184Y0109165D01*
X0048071Y0109184D01*
X0047957Y0109199D01*
X0047843Y0109211D01*
X0047729Y0109220D01*
X0047615Y0109225D01*
X0047500Y0109227D01*
X0047500Y0106671D02*
X0047615Y0106673D01*
X0047729Y0106678D01*
X0047843Y0106687D01*
X0047957Y0106699D01*
X0048071Y0106714D01*
X0048184Y0106733D01*
X0048296Y0106756D01*
X0048408Y0106781D01*
X0048519Y0106811D01*
X0048629Y0106843D01*
X0048738Y0106879D01*
X0048846Y0106918D01*
X0048952Y0106960D01*
X0049057Y0107006D01*
X0049161Y0107054D01*
X0047500Y0106671D02*
X0047385Y0106673D01*
X0047271Y0106678D01*
X0047157Y0106687D01*
X0047043Y0106699D01*
X0046929Y0106714D01*
X0046816Y0106733D01*
X0046704Y0106756D01*
X0046592Y0106781D01*
X0046481Y0106811D01*
X0046371Y0106843D01*
X0046262Y0106879D01*
X0046154Y0106918D01*
X0046048Y0106960D01*
X0045943Y0107006D01*
X0045839Y0107054D01*
X0045200Y0097700D02*
X0049800Y0097700D01*
X0052300Y0117700D02*
X0052300Y0120256D01*
X0052300Y0118978D02*
X0047700Y0118978D01*
X0048722Y0121900D02*
X0048722Y0124456D01*
X0049744Y0123689D02*
X0047700Y0123689D01*
X0048722Y0121900D02*
X0052300Y0122922D01*
X0060200Y0122700D02*
X0064800Y0122700D01*
X0064800Y0123978D01*
X0064798Y0124048D01*
X0064792Y0124119D01*
X0064783Y0124188D01*
X0064769Y0124257D01*
X0064752Y0124326D01*
X0064731Y0124393D01*
X0064706Y0124459D01*
X0064678Y0124523D01*
X0064646Y0124586D01*
X0064611Y0124647D01*
X0064572Y0124706D01*
X0064531Y0124763D01*
X0064486Y0124817D01*
X0064438Y0124869D01*
X0064388Y0124918D01*
X0064334Y0124965D01*
X0064279Y0125008D01*
X0064221Y0125048D01*
X0064161Y0125085D01*
X0064099Y0125118D01*
X0064035Y0125148D01*
X0063970Y0125175D01*
X0063904Y0125198D01*
X0063836Y0125217D01*
X0063767Y0125232D01*
X0063698Y0125244D01*
X0063628Y0125252D01*
X0063557Y0125256D01*
X0063487Y0125256D01*
X0063416Y0125252D01*
X0063346Y0125244D01*
X0063277Y0125232D01*
X0063208Y0125217D01*
X0063140Y0125198D01*
X0063074Y0125175D01*
X0063009Y0125148D01*
X0062945Y0125118D01*
X0062883Y0125085D01*
X0062823Y0125048D01*
X0062765Y0125008D01*
X0062710Y0124965D01*
X0062656Y0124918D01*
X0062606Y0124869D01*
X0062558Y0124817D01*
X0062513Y0124763D01*
X0062472Y0124706D01*
X0062433Y0124647D01*
X0062398Y0124586D01*
X0062366Y0124523D01*
X0062338Y0124459D01*
X0062313Y0124393D01*
X0062292Y0124326D01*
X0062275Y0124257D01*
X0062261Y0124188D01*
X0062252Y0124119D01*
X0062246Y0124048D01*
X0062244Y0123978D01*
X0062244Y0122700D01*
X0062244Y0124233D02*
X0060200Y0125256D01*
X0060200Y0127171D02*
X0060200Y0129727D01*
X0060200Y0128449D02*
X0064800Y0128449D01*
X0063778Y0127171D01*
X0062756Y0131671D02*
X0061478Y0131671D01*
X0062756Y0131671D02*
X0062756Y0133204D01*
X0062756Y0131671D02*
X0062845Y0131673D01*
X0062934Y0131679D01*
X0063023Y0131688D01*
X0063111Y0131702D01*
X0063198Y0131719D01*
X0063285Y0131741D01*
X0063371Y0131766D01*
X0063455Y0131794D01*
X0063538Y0131827D01*
X0063620Y0131863D01*
X0063700Y0131902D01*
X0063778Y0131945D01*
X0063854Y0131991D01*
X0063928Y0132041D01*
X0064000Y0132093D01*
X0064070Y0132149D01*
X0064137Y0132208D01*
X0064201Y0132270D01*
X0064263Y0132334D01*
X0064322Y0132401D01*
X0064378Y0132471D01*
X0064430Y0132543D01*
X0064480Y0132617D01*
X0064526Y0132693D01*
X0064569Y0132771D01*
X0064608Y0132851D01*
X0064644Y0132933D01*
X0064677Y0133016D01*
X0064705Y0133100D01*
X0064730Y0133186D01*
X0064752Y0133273D01*
X0064769Y0133360D01*
X0064783Y0133448D01*
X0064792Y0133537D01*
X0064798Y0133626D01*
X0064800Y0133715D01*
X0062755Y0133204D02*
X0062753Y0133266D01*
X0062748Y0133327D01*
X0062738Y0133388D01*
X0062725Y0133449D01*
X0062709Y0133508D01*
X0062689Y0133566D01*
X0062665Y0133623D01*
X0062638Y0133679D01*
X0062608Y0133733D01*
X0062574Y0133785D01*
X0062538Y0133834D01*
X0062498Y0133882D01*
X0062456Y0133927D01*
X0062411Y0133969D01*
X0062363Y0134009D01*
X0062314Y0134045D01*
X0062262Y0134079D01*
X0062208Y0134109D01*
X0062152Y0134136D01*
X0062095Y0134160D01*
X0062037Y0134180D01*
X0061978Y0134196D01*
X0061917Y0134209D01*
X0061856Y0134219D01*
X0061795Y0134224D01*
X0061733Y0134226D01*
X0061733Y0134227D02*
X0061478Y0134227D01*
X0061408Y0134225D01*
X0061337Y0134219D01*
X0061268Y0134210D01*
X0061199Y0134196D01*
X0061130Y0134179D01*
X0061063Y0134158D01*
X0060997Y0134133D01*
X0060933Y0134105D01*
X0060870Y0134073D01*
X0060809Y0134038D01*
X0060750Y0133999D01*
X0060693Y0133958D01*
X0060639Y0133913D01*
X0060587Y0133865D01*
X0060538Y0133815D01*
X0060491Y0133761D01*
X0060448Y0133706D01*
X0060408Y0133648D01*
X0060371Y0133588D01*
X0060338Y0133526D01*
X0060308Y0133462D01*
X0060281Y0133397D01*
X0060258Y0133331D01*
X0060239Y0133263D01*
X0060224Y0133194D01*
X0060212Y0133125D01*
X0060204Y0133055D01*
X0060200Y0132984D01*
X0060200Y0132914D01*
X0060204Y0132843D01*
X0060212Y0132773D01*
X0060224Y0132704D01*
X0060239Y0132635D01*
X0060258Y0132567D01*
X0060281Y0132501D01*
X0060308Y0132436D01*
X0060338Y0132372D01*
X0060371Y0132310D01*
X0060408Y0132250D01*
X0060448Y0132192D01*
X0060491Y0132137D01*
X0060538Y0132083D01*
X0060587Y0132033D01*
X0060639Y0131985D01*
X0060693Y0131940D01*
X0060750Y0131899D01*
X0060809Y0131860D01*
X0060870Y0131825D01*
X0060933Y0131793D01*
X0060997Y0131765D01*
X0061063Y0131740D01*
X0061130Y0131719D01*
X0061199Y0131702D01*
X0061268Y0131688D01*
X0061337Y0131679D01*
X0061408Y0131673D01*
X0061478Y0131671D01*
X0087700Y0123178D02*
X0087700Y0121900D01*
X0087700Y0123178D02*
X0087702Y0123248D01*
X0087708Y0123319D01*
X0087717Y0123388D01*
X0087731Y0123457D01*
X0087748Y0123526D01*
X0087769Y0123593D01*
X0087794Y0123659D01*
X0087822Y0123723D01*
X0087854Y0123786D01*
X0087889Y0123847D01*
X0087928Y0123906D01*
X0087969Y0123963D01*
X0088014Y0124017D01*
X0088062Y0124069D01*
X0088112Y0124118D01*
X0088166Y0124165D01*
X0088221Y0124208D01*
X0088279Y0124248D01*
X0088339Y0124285D01*
X0088401Y0124318D01*
X0088465Y0124348D01*
X0088530Y0124375D01*
X0088596Y0124398D01*
X0088664Y0124417D01*
X0088733Y0124432D01*
X0088802Y0124444D01*
X0088872Y0124452D01*
X0088943Y0124456D01*
X0089013Y0124456D01*
X0089084Y0124452D01*
X0089154Y0124444D01*
X0089223Y0124432D01*
X0089292Y0124417D01*
X0089360Y0124398D01*
X0089426Y0124375D01*
X0089491Y0124348D01*
X0089555Y0124318D01*
X0089617Y0124285D01*
X0089677Y0124248D01*
X0089735Y0124208D01*
X0089790Y0124165D01*
X0089844Y0124118D01*
X0089894Y0124069D01*
X0089942Y0124017D01*
X0089987Y0123963D01*
X0090028Y0123906D01*
X0090067Y0123847D01*
X0090102Y0123786D01*
X0090134Y0123723D01*
X0090162Y0123659D01*
X0090187Y0123593D01*
X0090208Y0123526D01*
X0090225Y0123457D01*
X0090239Y0123388D01*
X0090248Y0123319D01*
X0090254Y0123248D01*
X0090256Y0123178D01*
X0090256Y0123433D02*
X0090256Y0122411D01*
X0090256Y0123433D02*
X0090258Y0123496D01*
X0090264Y0123559D01*
X0090273Y0123621D01*
X0090287Y0123682D01*
X0090304Y0123743D01*
X0090325Y0123802D01*
X0090350Y0123860D01*
X0090378Y0123917D01*
X0090409Y0123971D01*
X0090444Y0124023D01*
X0090482Y0124074D01*
X0090523Y0124122D01*
X0090567Y0124167D01*
X0090613Y0124209D01*
X0090662Y0124249D01*
X0090713Y0124285D01*
X0090767Y0124318D01*
X0090822Y0124348D01*
X0090880Y0124374D01*
X0090938Y0124397D01*
X0090998Y0124416D01*
X0091059Y0124431D01*
X0091121Y0124443D01*
X0091184Y0124451D01*
X0091247Y0124455D01*
X0091309Y0124455D01*
X0091372Y0124451D01*
X0091435Y0124443D01*
X0091497Y0124431D01*
X0091558Y0124416D01*
X0091618Y0124397D01*
X0091676Y0124374D01*
X0091734Y0124348D01*
X0091789Y0124318D01*
X0091843Y0124285D01*
X0091894Y0124249D01*
X0091943Y0124209D01*
X0091989Y0124167D01*
X0092033Y0124122D01*
X0092074Y0124074D01*
X0092112Y0124023D01*
X0092147Y0123971D01*
X0092178Y0123917D01*
X0092206Y0123860D01*
X0092231Y0123802D01*
X0092252Y0123743D01*
X0092269Y0123682D01*
X0092283Y0123621D01*
X0092292Y0123559D01*
X0092298Y0123496D01*
X0092300Y0123433D01*
X0092300Y0121900D01*
X0092300Y0120256D02*
X0092300Y0117700D01*
X0092300Y0118978D02*
X0087700Y0118978D01*
X0100200Y0122700D02*
X0104800Y0122700D01*
X0104800Y0123978D01*
X0104798Y0124048D01*
X0104792Y0124119D01*
X0104783Y0124188D01*
X0104769Y0124257D01*
X0104752Y0124326D01*
X0104731Y0124393D01*
X0104706Y0124459D01*
X0104678Y0124523D01*
X0104646Y0124586D01*
X0104611Y0124647D01*
X0104572Y0124706D01*
X0104531Y0124763D01*
X0104486Y0124817D01*
X0104438Y0124869D01*
X0104388Y0124918D01*
X0104334Y0124965D01*
X0104279Y0125008D01*
X0104221Y0125048D01*
X0104161Y0125085D01*
X0104099Y0125118D01*
X0104035Y0125148D01*
X0103970Y0125175D01*
X0103904Y0125198D01*
X0103836Y0125217D01*
X0103767Y0125232D01*
X0103698Y0125244D01*
X0103628Y0125252D01*
X0103557Y0125256D01*
X0103487Y0125256D01*
X0103416Y0125252D01*
X0103346Y0125244D01*
X0103277Y0125232D01*
X0103208Y0125217D01*
X0103140Y0125198D01*
X0103074Y0125175D01*
X0103009Y0125148D01*
X0102945Y0125118D01*
X0102883Y0125085D01*
X0102823Y0125048D01*
X0102765Y0125008D01*
X0102710Y0124965D01*
X0102656Y0124918D01*
X0102606Y0124869D01*
X0102558Y0124817D01*
X0102513Y0124763D01*
X0102472Y0124706D01*
X0102433Y0124647D01*
X0102398Y0124586D01*
X0102366Y0124523D01*
X0102338Y0124459D01*
X0102313Y0124393D01*
X0102292Y0124326D01*
X0102275Y0124257D01*
X0102261Y0124188D01*
X0102252Y0124119D01*
X0102246Y0124048D01*
X0102244Y0123978D01*
X0102244Y0122700D01*
X0102244Y0124233D02*
X0100200Y0125256D01*
X0100200Y0127171D02*
X0100200Y0129727D01*
X0100200Y0128449D02*
X0104800Y0128449D01*
X0103778Y0127171D01*
X0102756Y0131671D02*
X0104800Y0131671D01*
X0104800Y0134227D01*
X0102756Y0133204D02*
X0102756Y0131671D01*
X0102755Y0133204D02*
X0102753Y0133266D01*
X0102748Y0133327D01*
X0102738Y0133388D01*
X0102725Y0133449D01*
X0102709Y0133508D01*
X0102689Y0133566D01*
X0102665Y0133623D01*
X0102638Y0133679D01*
X0102608Y0133733D01*
X0102574Y0133785D01*
X0102538Y0133834D01*
X0102498Y0133882D01*
X0102456Y0133927D01*
X0102411Y0133969D01*
X0102363Y0134009D01*
X0102314Y0134045D01*
X0102262Y0134079D01*
X0102208Y0134109D01*
X0102152Y0134136D01*
X0102095Y0134160D01*
X0102037Y0134180D01*
X0101978Y0134196D01*
X0101917Y0134209D01*
X0101856Y0134219D01*
X0101795Y0134224D01*
X0101733Y0134226D01*
X0101733Y0134227D02*
X0101222Y0134227D01*
X0101222Y0134226D02*
X0101160Y0134224D01*
X0101099Y0134219D01*
X0101038Y0134209D01*
X0100977Y0134196D01*
X0100918Y0134180D01*
X0100860Y0134160D01*
X0100803Y0134136D01*
X0100747Y0134109D01*
X0100693Y0134079D01*
X0100641Y0134045D01*
X0100592Y0134009D01*
X0100544Y0133969D01*
X0100499Y0133927D01*
X0100457Y0133882D01*
X0100417Y0133834D01*
X0100381Y0133785D01*
X0100347Y0133733D01*
X0100317Y0133679D01*
X0100290Y0133623D01*
X0100266Y0133566D01*
X0100246Y0133508D01*
X0100230Y0133449D01*
X0100217Y0133388D01*
X0100207Y0133327D01*
X0100202Y0133266D01*
X0100200Y0133204D01*
X0100200Y0131671D01*
X0089800Y0104727D02*
X0085200Y0103449D01*
X0085200Y0100256D02*
X0087244Y0099233D01*
X0087244Y0098978D02*
X0087244Y0097700D01*
X0087244Y0098978D02*
X0087246Y0099048D01*
X0087252Y0099119D01*
X0087261Y0099188D01*
X0087275Y0099257D01*
X0087292Y0099326D01*
X0087313Y0099393D01*
X0087338Y0099459D01*
X0087366Y0099523D01*
X0087398Y0099586D01*
X0087433Y0099647D01*
X0087472Y0099706D01*
X0087513Y0099763D01*
X0087558Y0099817D01*
X0087606Y0099869D01*
X0087656Y0099918D01*
X0087710Y0099965D01*
X0087765Y0100008D01*
X0087823Y0100048D01*
X0087883Y0100085D01*
X0087945Y0100118D01*
X0088009Y0100148D01*
X0088074Y0100175D01*
X0088140Y0100198D01*
X0088208Y0100217D01*
X0088277Y0100232D01*
X0088346Y0100244D01*
X0088416Y0100252D01*
X0088487Y0100256D01*
X0088557Y0100256D01*
X0088628Y0100252D01*
X0088698Y0100244D01*
X0088767Y0100232D01*
X0088836Y0100217D01*
X0088904Y0100198D01*
X0088970Y0100175D01*
X0089035Y0100148D01*
X0089099Y0100118D01*
X0089161Y0100085D01*
X0089221Y0100048D01*
X0089279Y0100008D01*
X0089334Y0099965D01*
X0089388Y0099918D01*
X0089438Y0099869D01*
X0089486Y0099817D01*
X0089531Y0099763D01*
X0089572Y0099706D01*
X0089611Y0099647D01*
X0089646Y0099586D01*
X0089678Y0099523D01*
X0089706Y0099459D01*
X0089731Y0099393D01*
X0089752Y0099326D01*
X0089769Y0099257D01*
X0089783Y0099188D01*
X0089792Y0099119D01*
X0089798Y0099048D01*
X0089800Y0098978D01*
X0089800Y0097700D01*
X0085200Y0097700D01*
X0089289Y0102171D02*
X0089800Y0102171D01*
X0089800Y0104727D01*
X0102244Y0074727D02*
X0103522Y0074727D01*
X0102244Y0074727D02*
X0102244Y0073193D01*
X0102244Y0074726D02*
X0102155Y0074724D01*
X0102066Y0074718D01*
X0101977Y0074709D01*
X0101889Y0074695D01*
X0101802Y0074678D01*
X0101715Y0074656D01*
X0101629Y0074631D01*
X0101545Y0074603D01*
X0101462Y0074570D01*
X0101380Y0074534D01*
X0101300Y0074495D01*
X0101222Y0074452D01*
X0101146Y0074406D01*
X0101072Y0074356D01*
X0101000Y0074304D01*
X0100930Y0074248D01*
X0100863Y0074189D01*
X0100799Y0074127D01*
X0100737Y0074063D01*
X0100678Y0073996D01*
X0100622Y0073926D01*
X0100570Y0073854D01*
X0100520Y0073780D01*
X0100474Y0073704D01*
X0100431Y0073626D01*
X0100392Y0073546D01*
X0100356Y0073464D01*
X0100323Y0073381D01*
X0100295Y0073297D01*
X0100270Y0073211D01*
X0100248Y0073124D01*
X0100231Y0073037D01*
X0100217Y0072949D01*
X0100208Y0072860D01*
X0100202Y0072771D01*
X0100200Y0072682D01*
X0100200Y0070256D02*
X0102244Y0069233D01*
X0102244Y0068978D02*
X0102244Y0067700D01*
X0102244Y0068978D02*
X0102246Y0069048D01*
X0102252Y0069119D01*
X0102261Y0069188D01*
X0102275Y0069257D01*
X0102292Y0069326D01*
X0102313Y0069393D01*
X0102338Y0069459D01*
X0102366Y0069523D01*
X0102398Y0069586D01*
X0102433Y0069647D01*
X0102472Y0069706D01*
X0102513Y0069763D01*
X0102558Y0069817D01*
X0102606Y0069869D01*
X0102656Y0069918D01*
X0102710Y0069965D01*
X0102765Y0070008D01*
X0102823Y0070048D01*
X0102883Y0070085D01*
X0102945Y0070118D01*
X0103009Y0070148D01*
X0103074Y0070175D01*
X0103140Y0070198D01*
X0103208Y0070217D01*
X0103277Y0070232D01*
X0103346Y0070244D01*
X0103416Y0070252D01*
X0103487Y0070256D01*
X0103557Y0070256D01*
X0103628Y0070252D01*
X0103698Y0070244D01*
X0103767Y0070232D01*
X0103836Y0070217D01*
X0103904Y0070198D01*
X0103970Y0070175D01*
X0104035Y0070148D01*
X0104099Y0070118D01*
X0104161Y0070085D01*
X0104221Y0070048D01*
X0104279Y0070008D01*
X0104334Y0069965D01*
X0104388Y0069918D01*
X0104438Y0069869D01*
X0104486Y0069817D01*
X0104531Y0069763D01*
X0104572Y0069706D01*
X0104611Y0069647D01*
X0104646Y0069586D01*
X0104678Y0069523D01*
X0104706Y0069459D01*
X0104731Y0069393D01*
X0104752Y0069326D01*
X0104769Y0069257D01*
X0104783Y0069188D01*
X0104792Y0069119D01*
X0104798Y0069048D01*
X0104800Y0068978D01*
X0104800Y0067700D01*
X0100200Y0067700D01*
X0103267Y0072171D02*
X0103522Y0072171D01*
X0103267Y0072171D02*
X0103205Y0072173D01*
X0103144Y0072178D01*
X0103083Y0072188D01*
X0103022Y0072201D01*
X0102963Y0072217D01*
X0102905Y0072237D01*
X0102848Y0072261D01*
X0102792Y0072288D01*
X0102738Y0072318D01*
X0102686Y0072352D01*
X0102637Y0072388D01*
X0102589Y0072428D01*
X0102544Y0072470D01*
X0102502Y0072515D01*
X0102462Y0072563D01*
X0102426Y0072612D01*
X0102392Y0072664D01*
X0102362Y0072718D01*
X0102335Y0072774D01*
X0102311Y0072831D01*
X0102291Y0072889D01*
X0102275Y0072948D01*
X0102262Y0073009D01*
X0102252Y0073070D01*
X0102247Y0073131D01*
X0102245Y0073193D01*
X0103522Y0072171D02*
X0103592Y0072173D01*
X0103663Y0072179D01*
X0103732Y0072188D01*
X0103801Y0072202D01*
X0103870Y0072219D01*
X0103937Y0072240D01*
X0104003Y0072265D01*
X0104067Y0072293D01*
X0104130Y0072325D01*
X0104191Y0072360D01*
X0104250Y0072399D01*
X0104307Y0072440D01*
X0104361Y0072485D01*
X0104413Y0072533D01*
X0104462Y0072583D01*
X0104509Y0072637D01*
X0104552Y0072692D01*
X0104592Y0072750D01*
X0104629Y0072810D01*
X0104662Y0072872D01*
X0104692Y0072936D01*
X0104719Y0073001D01*
X0104742Y0073067D01*
X0104761Y0073135D01*
X0104776Y0073204D01*
X0104788Y0073273D01*
X0104796Y0073343D01*
X0104800Y0073414D01*
X0104800Y0073484D01*
X0104796Y0073555D01*
X0104788Y0073625D01*
X0104776Y0073694D01*
X0104761Y0073763D01*
X0104742Y0073831D01*
X0104719Y0073897D01*
X0104692Y0073962D01*
X0104662Y0074026D01*
X0104629Y0074088D01*
X0104592Y0074148D01*
X0104552Y0074206D01*
X0104509Y0074261D01*
X0104462Y0074315D01*
X0104413Y0074365D01*
X0104361Y0074413D01*
X0104307Y0074458D01*
X0104250Y0074499D01*
X0104191Y0074538D01*
X0104130Y0074573D01*
X0104067Y0074605D01*
X0104003Y0074633D01*
X0103937Y0074658D01*
X0103870Y0074679D01*
X0103801Y0074696D01*
X0103732Y0074710D01*
X0103663Y0074719D01*
X0103592Y0074725D01*
X0103522Y0074727D01*
X0125200Y0097700D02*
X0129800Y0097700D01*
X0129800Y0098978D01*
X0129798Y0099048D01*
X0129792Y0099119D01*
X0129783Y0099188D01*
X0129769Y0099257D01*
X0129752Y0099326D01*
X0129731Y0099393D01*
X0129706Y0099459D01*
X0129678Y0099523D01*
X0129646Y0099586D01*
X0129611Y0099647D01*
X0129572Y0099706D01*
X0129531Y0099763D01*
X0129486Y0099817D01*
X0129438Y0099869D01*
X0129388Y0099918D01*
X0129334Y0099965D01*
X0129279Y0100008D01*
X0129221Y0100048D01*
X0129161Y0100085D01*
X0129099Y0100118D01*
X0129035Y0100148D01*
X0128970Y0100175D01*
X0128904Y0100198D01*
X0128836Y0100217D01*
X0128767Y0100232D01*
X0128698Y0100244D01*
X0128628Y0100252D01*
X0128557Y0100256D01*
X0128487Y0100256D01*
X0128416Y0100252D01*
X0128346Y0100244D01*
X0128277Y0100232D01*
X0128208Y0100217D01*
X0128140Y0100198D01*
X0128074Y0100175D01*
X0128009Y0100148D01*
X0127945Y0100118D01*
X0127883Y0100085D01*
X0127823Y0100048D01*
X0127765Y0100008D01*
X0127710Y0099965D01*
X0127656Y0099918D01*
X0127606Y0099869D01*
X0127558Y0099817D01*
X0127513Y0099763D01*
X0127472Y0099706D01*
X0127433Y0099647D01*
X0127398Y0099586D01*
X0127366Y0099523D01*
X0127338Y0099459D01*
X0127313Y0099393D01*
X0127292Y0099326D01*
X0127275Y0099257D01*
X0127261Y0099188D01*
X0127252Y0099119D01*
X0127246Y0099048D01*
X0127244Y0098978D01*
X0127244Y0097700D01*
X0127244Y0099233D02*
X0125200Y0100256D01*
X0126222Y0102171D02*
X0126222Y0104727D01*
X0127244Y0103960D02*
X0125200Y0103960D01*
X0126222Y0102171D02*
X0129800Y0103193D01*
X0132300Y0117700D02*
X0132300Y0120256D01*
X0132300Y0118978D02*
X0127700Y0118978D01*
X0127700Y0121900D02*
X0127700Y0124456D01*
X0127700Y0121900D02*
X0130256Y0124072D01*
X0132300Y0123306D02*
X0132298Y0123232D01*
X0132293Y0123158D01*
X0132283Y0123084D01*
X0132270Y0123011D01*
X0132254Y0122938D01*
X0132233Y0122867D01*
X0132209Y0122797D01*
X0132182Y0122728D01*
X0132151Y0122660D01*
X0132117Y0122594D01*
X0132080Y0122530D01*
X0132039Y0122468D01*
X0131995Y0122408D01*
X0131949Y0122350D01*
X0131899Y0122294D01*
X0131847Y0122241D01*
X0131792Y0122191D01*
X0131735Y0122144D01*
X0131675Y0122100D01*
X0131613Y0122058D01*
X0131550Y0122020D01*
X0131484Y0121985D01*
X0131417Y0121954D01*
X0131348Y0121926D01*
X0131278Y0121901D01*
X0130256Y0124072D02*
X0130303Y0124119D01*
X0130353Y0124163D01*
X0130405Y0124205D01*
X0130459Y0124244D01*
X0130515Y0124279D01*
X0130573Y0124312D01*
X0130633Y0124342D01*
X0130694Y0124368D01*
X0130757Y0124391D01*
X0130821Y0124410D01*
X0130885Y0124426D01*
X0130951Y0124439D01*
X0131017Y0124448D01*
X0131083Y0124453D01*
X0131150Y0124455D01*
X0131150Y0124456D02*
X0131217Y0124454D01*
X0131284Y0124448D01*
X0131350Y0124439D01*
X0131415Y0124425D01*
X0131480Y0124408D01*
X0131543Y0124387D01*
X0131605Y0124362D01*
X0131666Y0124334D01*
X0131725Y0124302D01*
X0131782Y0124267D01*
X0131837Y0124228D01*
X0131889Y0124187D01*
X0131939Y0124142D01*
X0131986Y0124095D01*
X0132031Y0124045D01*
X0132072Y0123993D01*
X0132111Y0123938D01*
X0132146Y0123881D01*
X0132178Y0123822D01*
X0132206Y0123761D01*
X0132231Y0123699D01*
X0132252Y0123636D01*
X0132269Y0123571D01*
X0132283Y0123506D01*
X0132292Y0123440D01*
X0132298Y0123373D01*
X0132300Y0123306D01*
X0140200Y0122700D02*
X0144800Y0122700D01*
X0144800Y0123978D01*
X0144798Y0124048D01*
X0144792Y0124119D01*
X0144783Y0124188D01*
X0144769Y0124257D01*
X0144752Y0124326D01*
X0144731Y0124393D01*
X0144706Y0124459D01*
X0144678Y0124523D01*
X0144646Y0124586D01*
X0144611Y0124647D01*
X0144572Y0124706D01*
X0144531Y0124763D01*
X0144486Y0124817D01*
X0144438Y0124869D01*
X0144388Y0124918D01*
X0144334Y0124965D01*
X0144279Y0125008D01*
X0144221Y0125048D01*
X0144161Y0125085D01*
X0144099Y0125118D01*
X0144035Y0125148D01*
X0143970Y0125175D01*
X0143904Y0125198D01*
X0143836Y0125217D01*
X0143767Y0125232D01*
X0143698Y0125244D01*
X0143628Y0125252D01*
X0143557Y0125256D01*
X0143487Y0125256D01*
X0143416Y0125252D01*
X0143346Y0125244D01*
X0143277Y0125232D01*
X0143208Y0125217D01*
X0143140Y0125198D01*
X0143074Y0125175D01*
X0143009Y0125148D01*
X0142945Y0125118D01*
X0142883Y0125085D01*
X0142823Y0125048D01*
X0142765Y0125008D01*
X0142710Y0124965D01*
X0142656Y0124918D01*
X0142606Y0124869D01*
X0142558Y0124817D01*
X0142513Y0124763D01*
X0142472Y0124706D01*
X0142433Y0124647D01*
X0142398Y0124586D01*
X0142366Y0124523D01*
X0142338Y0124459D01*
X0142313Y0124393D01*
X0142292Y0124326D01*
X0142275Y0124257D01*
X0142261Y0124188D01*
X0142252Y0124119D01*
X0142246Y0124048D01*
X0142244Y0123978D01*
X0142244Y0122700D01*
X0142244Y0124233D02*
X0140200Y0125256D01*
X0140200Y0127171D02*
X0140200Y0129727D01*
X0140200Y0128449D02*
X0144800Y0128449D01*
X0143778Y0127171D01*
X0141222Y0131671D02*
X0141222Y0134227D01*
X0142244Y0133460D02*
X0140200Y0133460D01*
X0141222Y0131671D02*
X0144800Y0132693D01*
X0167700Y0124456D02*
X0167700Y0121900D01*
X0167700Y0123178D02*
X0172300Y0123178D01*
X0171278Y0121900D01*
X0172300Y0120256D02*
X0172300Y0117700D01*
X0172300Y0118978D02*
X0167700Y0118978D01*
X0180200Y0122700D02*
X0184800Y0122700D01*
X0184800Y0123978D01*
X0184798Y0124048D01*
X0184792Y0124119D01*
X0184783Y0124188D01*
X0184769Y0124257D01*
X0184752Y0124326D01*
X0184731Y0124393D01*
X0184706Y0124459D01*
X0184678Y0124523D01*
X0184646Y0124586D01*
X0184611Y0124647D01*
X0184572Y0124706D01*
X0184531Y0124763D01*
X0184486Y0124817D01*
X0184438Y0124869D01*
X0184388Y0124918D01*
X0184334Y0124965D01*
X0184279Y0125008D01*
X0184221Y0125048D01*
X0184161Y0125085D01*
X0184099Y0125118D01*
X0184035Y0125148D01*
X0183970Y0125175D01*
X0183904Y0125198D01*
X0183836Y0125217D01*
X0183767Y0125232D01*
X0183698Y0125244D01*
X0183628Y0125252D01*
X0183557Y0125256D01*
X0183487Y0125256D01*
X0183416Y0125252D01*
X0183346Y0125244D01*
X0183277Y0125232D01*
X0183208Y0125217D01*
X0183140Y0125198D01*
X0183074Y0125175D01*
X0183009Y0125148D01*
X0182945Y0125118D01*
X0182883Y0125085D01*
X0182823Y0125048D01*
X0182765Y0125008D01*
X0182710Y0124965D01*
X0182656Y0124918D01*
X0182606Y0124869D01*
X0182558Y0124817D01*
X0182513Y0124763D01*
X0182472Y0124706D01*
X0182433Y0124647D01*
X0182398Y0124586D01*
X0182366Y0124523D01*
X0182338Y0124459D01*
X0182313Y0124393D01*
X0182292Y0124326D01*
X0182275Y0124257D01*
X0182261Y0124188D01*
X0182252Y0124119D01*
X0182246Y0124048D01*
X0182244Y0123978D01*
X0182244Y0122700D01*
X0182244Y0124233D02*
X0180200Y0125256D01*
X0180200Y0127171D02*
X0180200Y0129727D01*
X0180200Y0128449D02*
X0184800Y0128449D01*
X0183778Y0127171D01*
X0184800Y0131671D02*
X0184800Y0133204D01*
X0184798Y0133267D01*
X0184792Y0133330D01*
X0184783Y0133392D01*
X0184769Y0133453D01*
X0184752Y0133514D01*
X0184731Y0133573D01*
X0184706Y0133631D01*
X0184678Y0133688D01*
X0184647Y0133742D01*
X0184612Y0133794D01*
X0184574Y0133845D01*
X0184533Y0133893D01*
X0184489Y0133938D01*
X0184443Y0133980D01*
X0184394Y0134020D01*
X0184343Y0134056D01*
X0184289Y0134089D01*
X0184234Y0134119D01*
X0184176Y0134145D01*
X0184118Y0134168D01*
X0184058Y0134187D01*
X0183997Y0134202D01*
X0183935Y0134214D01*
X0183872Y0134222D01*
X0183809Y0134226D01*
X0183747Y0134226D01*
X0183684Y0134222D01*
X0183621Y0134214D01*
X0183559Y0134202D01*
X0183498Y0134187D01*
X0183438Y0134168D01*
X0183380Y0134145D01*
X0183322Y0134119D01*
X0183267Y0134089D01*
X0183213Y0134056D01*
X0183162Y0134020D01*
X0183113Y0133980D01*
X0183067Y0133938D01*
X0183023Y0133893D01*
X0182982Y0133845D01*
X0182944Y0133794D01*
X0182909Y0133742D01*
X0182878Y0133688D01*
X0182850Y0133631D01*
X0182825Y0133573D01*
X0182804Y0133514D01*
X0182787Y0133453D01*
X0182773Y0133392D01*
X0182764Y0133330D01*
X0182758Y0133267D01*
X0182756Y0133204D01*
X0182756Y0132182D01*
X0182756Y0132949D02*
X0182754Y0133019D01*
X0182748Y0133090D01*
X0182739Y0133159D01*
X0182725Y0133228D01*
X0182708Y0133297D01*
X0182687Y0133364D01*
X0182662Y0133430D01*
X0182634Y0133494D01*
X0182602Y0133557D01*
X0182567Y0133618D01*
X0182528Y0133677D01*
X0182487Y0133734D01*
X0182442Y0133788D01*
X0182394Y0133840D01*
X0182344Y0133889D01*
X0182290Y0133936D01*
X0182235Y0133979D01*
X0182177Y0134019D01*
X0182117Y0134056D01*
X0182055Y0134089D01*
X0181991Y0134119D01*
X0181926Y0134146D01*
X0181860Y0134169D01*
X0181792Y0134188D01*
X0181723Y0134203D01*
X0181654Y0134215D01*
X0181584Y0134223D01*
X0181513Y0134227D01*
X0181443Y0134227D01*
X0181372Y0134223D01*
X0181302Y0134215D01*
X0181233Y0134203D01*
X0181164Y0134188D01*
X0181096Y0134169D01*
X0181030Y0134146D01*
X0180965Y0134119D01*
X0180901Y0134089D01*
X0180839Y0134056D01*
X0180779Y0134019D01*
X0180721Y0133979D01*
X0180666Y0133936D01*
X0180612Y0133889D01*
X0180562Y0133840D01*
X0180514Y0133788D01*
X0180469Y0133734D01*
X0180428Y0133677D01*
X0180389Y0133618D01*
X0180354Y0133557D01*
X0180322Y0133494D01*
X0180294Y0133430D01*
X0180269Y0133364D01*
X0180248Y0133297D01*
X0180231Y0133228D01*
X0180217Y0133159D01*
X0180208Y0133090D01*
X0180202Y0133019D01*
X0180200Y0132949D01*
X0180200Y0131671D01*
X0165200Y0104727D02*
X0165200Y0102171D01*
X0165200Y0103449D02*
X0169800Y0103449D01*
X0168778Y0102171D01*
X0169800Y0098978D02*
X0169798Y0099048D01*
X0169792Y0099119D01*
X0169783Y0099188D01*
X0169769Y0099257D01*
X0169752Y0099326D01*
X0169731Y0099393D01*
X0169706Y0099459D01*
X0169678Y0099523D01*
X0169646Y0099586D01*
X0169611Y0099647D01*
X0169572Y0099706D01*
X0169531Y0099763D01*
X0169486Y0099817D01*
X0169438Y0099869D01*
X0169388Y0099918D01*
X0169334Y0099965D01*
X0169279Y0100008D01*
X0169221Y0100048D01*
X0169161Y0100085D01*
X0169099Y0100118D01*
X0169035Y0100148D01*
X0168970Y0100175D01*
X0168904Y0100198D01*
X0168836Y0100217D01*
X0168767Y0100232D01*
X0168698Y0100244D01*
X0168628Y0100252D01*
X0168557Y0100256D01*
X0168487Y0100256D01*
X0168416Y0100252D01*
X0168346Y0100244D01*
X0168277Y0100232D01*
X0168208Y0100217D01*
X0168140Y0100198D01*
X0168074Y0100175D01*
X0168009Y0100148D01*
X0167945Y0100118D01*
X0167883Y0100085D01*
X0167823Y0100048D01*
X0167765Y0100008D01*
X0167710Y0099965D01*
X0167656Y0099918D01*
X0167606Y0099869D01*
X0167558Y0099817D01*
X0167513Y0099763D01*
X0167472Y0099706D01*
X0167433Y0099647D01*
X0167398Y0099586D01*
X0167366Y0099523D01*
X0167338Y0099459D01*
X0167313Y0099393D01*
X0167292Y0099326D01*
X0167275Y0099257D01*
X0167261Y0099188D01*
X0167252Y0099119D01*
X0167246Y0099048D01*
X0167244Y0098978D01*
X0167244Y0097700D01*
X0167244Y0099233D02*
X0165200Y0100256D01*
X0165200Y0097700D02*
X0169800Y0097700D01*
X0169800Y0098978D01*
X0182756Y0073704D02*
X0182756Y0072682D01*
X0182756Y0073704D02*
X0182758Y0073767D01*
X0182764Y0073830D01*
X0182773Y0073892D01*
X0182787Y0073953D01*
X0182804Y0074014D01*
X0182825Y0074073D01*
X0182850Y0074131D01*
X0182878Y0074188D01*
X0182909Y0074242D01*
X0182944Y0074294D01*
X0182982Y0074345D01*
X0183023Y0074393D01*
X0183067Y0074438D01*
X0183113Y0074480D01*
X0183162Y0074520D01*
X0183213Y0074556D01*
X0183267Y0074589D01*
X0183322Y0074619D01*
X0183380Y0074645D01*
X0183438Y0074668D01*
X0183498Y0074687D01*
X0183559Y0074702D01*
X0183621Y0074714D01*
X0183684Y0074722D01*
X0183747Y0074726D01*
X0183809Y0074726D01*
X0183872Y0074722D01*
X0183935Y0074714D01*
X0183997Y0074702D01*
X0184058Y0074687D01*
X0184118Y0074668D01*
X0184176Y0074645D01*
X0184234Y0074619D01*
X0184289Y0074589D01*
X0184343Y0074556D01*
X0184394Y0074520D01*
X0184443Y0074480D01*
X0184489Y0074438D01*
X0184533Y0074393D01*
X0184574Y0074345D01*
X0184612Y0074294D01*
X0184647Y0074242D01*
X0184678Y0074188D01*
X0184706Y0074131D01*
X0184731Y0074073D01*
X0184752Y0074014D01*
X0184769Y0073953D01*
X0184783Y0073892D01*
X0184792Y0073830D01*
X0184798Y0073767D01*
X0184800Y0073704D01*
X0184800Y0072171D01*
X0184800Y0068978D02*
X0184800Y0067700D01*
X0180200Y0067700D01*
X0182244Y0067700D02*
X0182244Y0068978D01*
X0182244Y0069233D02*
X0180200Y0070256D01*
X0180200Y0072171D02*
X0180200Y0073449D01*
X0180202Y0073519D01*
X0180208Y0073590D01*
X0180217Y0073659D01*
X0180231Y0073728D01*
X0180248Y0073797D01*
X0180269Y0073864D01*
X0180294Y0073930D01*
X0180322Y0073994D01*
X0180354Y0074057D01*
X0180389Y0074118D01*
X0180428Y0074177D01*
X0180469Y0074234D01*
X0180514Y0074288D01*
X0180562Y0074340D01*
X0180612Y0074389D01*
X0180666Y0074436D01*
X0180721Y0074479D01*
X0180779Y0074519D01*
X0180839Y0074556D01*
X0180901Y0074589D01*
X0180965Y0074619D01*
X0181030Y0074646D01*
X0181096Y0074669D01*
X0181164Y0074688D01*
X0181233Y0074703D01*
X0181302Y0074715D01*
X0181372Y0074723D01*
X0181443Y0074727D01*
X0181513Y0074727D01*
X0181584Y0074723D01*
X0181654Y0074715D01*
X0181723Y0074703D01*
X0181792Y0074688D01*
X0181860Y0074669D01*
X0181926Y0074646D01*
X0181991Y0074619D01*
X0182055Y0074589D01*
X0182117Y0074556D01*
X0182177Y0074519D01*
X0182235Y0074479D01*
X0182290Y0074436D01*
X0182344Y0074389D01*
X0182394Y0074340D01*
X0182442Y0074288D01*
X0182487Y0074234D01*
X0182528Y0074177D01*
X0182567Y0074118D01*
X0182602Y0074057D01*
X0182634Y0073994D01*
X0182662Y0073930D01*
X0182687Y0073864D01*
X0182708Y0073797D01*
X0182725Y0073728D01*
X0182739Y0073659D01*
X0182748Y0073590D01*
X0182754Y0073519D01*
X0182756Y0073449D01*
X0182244Y0068978D02*
X0182246Y0069048D01*
X0182252Y0069119D01*
X0182261Y0069188D01*
X0182275Y0069257D01*
X0182292Y0069326D01*
X0182313Y0069393D01*
X0182338Y0069459D01*
X0182366Y0069523D01*
X0182398Y0069586D01*
X0182433Y0069647D01*
X0182472Y0069706D01*
X0182513Y0069763D01*
X0182558Y0069817D01*
X0182606Y0069869D01*
X0182656Y0069918D01*
X0182710Y0069965D01*
X0182765Y0070008D01*
X0182823Y0070048D01*
X0182883Y0070085D01*
X0182945Y0070118D01*
X0183009Y0070148D01*
X0183074Y0070175D01*
X0183140Y0070198D01*
X0183208Y0070217D01*
X0183277Y0070232D01*
X0183346Y0070244D01*
X0183416Y0070252D01*
X0183487Y0070256D01*
X0183557Y0070256D01*
X0183628Y0070252D01*
X0183698Y0070244D01*
X0183767Y0070232D01*
X0183836Y0070217D01*
X0183904Y0070198D01*
X0183970Y0070175D01*
X0184035Y0070148D01*
X0184099Y0070118D01*
X0184161Y0070085D01*
X0184221Y0070048D01*
X0184279Y0070008D01*
X0184334Y0069965D01*
X0184388Y0069918D01*
X0184438Y0069869D01*
X0184486Y0069817D01*
X0184531Y0069763D01*
X0184572Y0069706D01*
X0184611Y0069647D01*
X0184646Y0069586D01*
X0184678Y0069523D01*
X0184706Y0069459D01*
X0184731Y0069393D01*
X0184752Y0069326D01*
X0184769Y0069257D01*
X0184783Y0069188D01*
X0184792Y0069119D01*
X0184798Y0069048D01*
X0184800Y0068978D01*
X0167756Y0044343D02*
X0165200Y0042171D01*
X0165200Y0044727D01*
X0168778Y0042172D02*
X0168848Y0042197D01*
X0168917Y0042225D01*
X0168984Y0042256D01*
X0169050Y0042291D01*
X0169113Y0042329D01*
X0169175Y0042371D01*
X0169235Y0042415D01*
X0169292Y0042462D01*
X0169347Y0042512D01*
X0169399Y0042565D01*
X0169449Y0042621D01*
X0169495Y0042679D01*
X0169539Y0042739D01*
X0169580Y0042801D01*
X0169617Y0042865D01*
X0169651Y0042931D01*
X0169682Y0042999D01*
X0169709Y0043068D01*
X0169733Y0043138D01*
X0169754Y0043209D01*
X0169770Y0043282D01*
X0169783Y0043355D01*
X0169793Y0043429D01*
X0169798Y0043503D01*
X0169800Y0043577D01*
X0169798Y0043644D01*
X0169792Y0043711D01*
X0169783Y0043777D01*
X0169769Y0043842D01*
X0169752Y0043907D01*
X0169731Y0043970D01*
X0169706Y0044032D01*
X0169678Y0044093D01*
X0169646Y0044152D01*
X0169611Y0044209D01*
X0169572Y0044264D01*
X0169531Y0044316D01*
X0169486Y0044366D01*
X0169439Y0044413D01*
X0169389Y0044458D01*
X0169337Y0044499D01*
X0169282Y0044538D01*
X0169225Y0044573D01*
X0169166Y0044605D01*
X0169105Y0044633D01*
X0169043Y0044658D01*
X0168980Y0044679D01*
X0168915Y0044696D01*
X0168850Y0044710D01*
X0168784Y0044719D01*
X0168717Y0044725D01*
X0168650Y0044727D01*
X0168650Y0044726D02*
X0168583Y0044724D01*
X0168517Y0044719D01*
X0168451Y0044710D01*
X0168385Y0044697D01*
X0168321Y0044681D01*
X0168257Y0044662D01*
X0168194Y0044639D01*
X0168133Y0044613D01*
X0168073Y0044583D01*
X0168015Y0044550D01*
X0167959Y0044515D01*
X0167905Y0044476D01*
X0167853Y0044434D01*
X0167803Y0044390D01*
X0167756Y0044343D01*
X0165200Y0040256D02*
X0167244Y0039233D01*
X0167244Y0038978D02*
X0167244Y0037700D01*
X0167244Y0038978D02*
X0167246Y0039048D01*
X0167252Y0039119D01*
X0167261Y0039188D01*
X0167275Y0039257D01*
X0167292Y0039326D01*
X0167313Y0039393D01*
X0167338Y0039459D01*
X0167366Y0039523D01*
X0167398Y0039586D01*
X0167433Y0039647D01*
X0167472Y0039706D01*
X0167513Y0039763D01*
X0167558Y0039817D01*
X0167606Y0039869D01*
X0167656Y0039918D01*
X0167710Y0039965D01*
X0167765Y0040008D01*
X0167823Y0040048D01*
X0167883Y0040085D01*
X0167945Y0040118D01*
X0168009Y0040148D01*
X0168074Y0040175D01*
X0168140Y0040198D01*
X0168208Y0040217D01*
X0168277Y0040232D01*
X0168346Y0040244D01*
X0168416Y0040252D01*
X0168487Y0040256D01*
X0168557Y0040256D01*
X0168628Y0040252D01*
X0168698Y0040244D01*
X0168767Y0040232D01*
X0168836Y0040217D01*
X0168904Y0040198D01*
X0168970Y0040175D01*
X0169035Y0040148D01*
X0169099Y0040118D01*
X0169161Y0040085D01*
X0169221Y0040048D01*
X0169279Y0040008D01*
X0169334Y0039965D01*
X0169388Y0039918D01*
X0169438Y0039869D01*
X0169486Y0039817D01*
X0169531Y0039763D01*
X0169572Y0039706D01*
X0169611Y0039647D01*
X0169646Y0039586D01*
X0169678Y0039523D01*
X0169706Y0039459D01*
X0169731Y0039393D01*
X0169752Y0039326D01*
X0169769Y0039257D01*
X0169783Y0039188D01*
X0169792Y0039119D01*
X0169798Y0039048D01*
X0169800Y0038978D01*
X0169800Y0037700D01*
X0165200Y0037700D01*
X0144800Y0067700D02*
X0140200Y0067700D01*
X0142244Y0067700D02*
X0142244Y0068978D01*
X0142244Y0069233D02*
X0140200Y0070256D01*
X0141478Y0072171D02*
X0142756Y0072171D01*
X0142756Y0073704D01*
X0142756Y0072171D02*
X0142845Y0072173D01*
X0142934Y0072179D01*
X0143023Y0072188D01*
X0143111Y0072202D01*
X0143198Y0072219D01*
X0143285Y0072241D01*
X0143371Y0072266D01*
X0143455Y0072294D01*
X0143538Y0072327D01*
X0143620Y0072363D01*
X0143700Y0072402D01*
X0143778Y0072445D01*
X0143854Y0072491D01*
X0143928Y0072541D01*
X0144000Y0072593D01*
X0144070Y0072649D01*
X0144137Y0072708D01*
X0144201Y0072770D01*
X0144263Y0072834D01*
X0144322Y0072901D01*
X0144378Y0072971D01*
X0144430Y0073043D01*
X0144480Y0073117D01*
X0144526Y0073193D01*
X0144569Y0073271D01*
X0144608Y0073351D01*
X0144644Y0073433D01*
X0144677Y0073516D01*
X0144705Y0073600D01*
X0144730Y0073686D01*
X0144752Y0073773D01*
X0144769Y0073860D01*
X0144783Y0073948D01*
X0144792Y0074037D01*
X0144798Y0074126D01*
X0144800Y0074215D01*
X0142755Y0073704D02*
X0142753Y0073766D01*
X0142748Y0073827D01*
X0142738Y0073888D01*
X0142725Y0073949D01*
X0142709Y0074008D01*
X0142689Y0074066D01*
X0142665Y0074123D01*
X0142638Y0074179D01*
X0142608Y0074233D01*
X0142574Y0074285D01*
X0142538Y0074334D01*
X0142498Y0074382D01*
X0142456Y0074427D01*
X0142411Y0074469D01*
X0142363Y0074509D01*
X0142314Y0074545D01*
X0142262Y0074579D01*
X0142208Y0074609D01*
X0142152Y0074636D01*
X0142095Y0074660D01*
X0142037Y0074680D01*
X0141978Y0074696D01*
X0141917Y0074709D01*
X0141856Y0074719D01*
X0141795Y0074724D01*
X0141733Y0074726D01*
X0141733Y0074727D02*
X0141478Y0074727D01*
X0141408Y0074725D01*
X0141337Y0074719D01*
X0141268Y0074710D01*
X0141199Y0074696D01*
X0141130Y0074679D01*
X0141063Y0074658D01*
X0140997Y0074633D01*
X0140933Y0074605D01*
X0140870Y0074573D01*
X0140809Y0074538D01*
X0140750Y0074499D01*
X0140693Y0074458D01*
X0140639Y0074413D01*
X0140587Y0074365D01*
X0140538Y0074315D01*
X0140491Y0074261D01*
X0140448Y0074206D01*
X0140408Y0074148D01*
X0140371Y0074088D01*
X0140338Y0074026D01*
X0140308Y0073962D01*
X0140281Y0073897D01*
X0140258Y0073831D01*
X0140239Y0073763D01*
X0140224Y0073694D01*
X0140212Y0073625D01*
X0140204Y0073555D01*
X0140200Y0073484D01*
X0140200Y0073414D01*
X0140204Y0073343D01*
X0140212Y0073273D01*
X0140224Y0073204D01*
X0140239Y0073135D01*
X0140258Y0073067D01*
X0140281Y0073001D01*
X0140308Y0072936D01*
X0140338Y0072872D01*
X0140371Y0072810D01*
X0140408Y0072750D01*
X0140448Y0072692D01*
X0140491Y0072637D01*
X0140538Y0072583D01*
X0140587Y0072533D01*
X0140639Y0072485D01*
X0140693Y0072440D01*
X0140750Y0072399D01*
X0140809Y0072360D01*
X0140870Y0072325D01*
X0140933Y0072293D01*
X0140997Y0072265D01*
X0141063Y0072240D01*
X0141130Y0072219D01*
X0141199Y0072202D01*
X0141268Y0072188D01*
X0141337Y0072179D01*
X0141408Y0072173D01*
X0141478Y0072171D01*
X0142244Y0068978D02*
X0142246Y0069048D01*
X0142252Y0069119D01*
X0142261Y0069188D01*
X0142275Y0069257D01*
X0142292Y0069326D01*
X0142313Y0069393D01*
X0142338Y0069459D01*
X0142366Y0069523D01*
X0142398Y0069586D01*
X0142433Y0069647D01*
X0142472Y0069706D01*
X0142513Y0069763D01*
X0142558Y0069817D01*
X0142606Y0069869D01*
X0142656Y0069918D01*
X0142710Y0069965D01*
X0142765Y0070008D01*
X0142823Y0070048D01*
X0142883Y0070085D01*
X0142945Y0070118D01*
X0143009Y0070148D01*
X0143074Y0070175D01*
X0143140Y0070198D01*
X0143208Y0070217D01*
X0143277Y0070232D01*
X0143346Y0070244D01*
X0143416Y0070252D01*
X0143487Y0070256D01*
X0143557Y0070256D01*
X0143628Y0070252D01*
X0143698Y0070244D01*
X0143767Y0070232D01*
X0143836Y0070217D01*
X0143904Y0070198D01*
X0143970Y0070175D01*
X0144035Y0070148D01*
X0144099Y0070118D01*
X0144161Y0070085D01*
X0144221Y0070048D01*
X0144279Y0070008D01*
X0144334Y0069965D01*
X0144388Y0069918D01*
X0144438Y0069869D01*
X0144486Y0069817D01*
X0144531Y0069763D01*
X0144572Y0069706D01*
X0144611Y0069647D01*
X0144646Y0069586D01*
X0144678Y0069523D01*
X0144706Y0069459D01*
X0144731Y0069393D01*
X0144752Y0069326D01*
X0144769Y0069257D01*
X0144783Y0069188D01*
X0144792Y0069119D01*
X0144798Y0069048D01*
X0144800Y0068978D01*
X0144800Y0067700D01*
X0129800Y0044727D02*
X0129800Y0042171D01*
X0127756Y0042171D01*
X0127756Y0043704D01*
X0127755Y0043704D02*
X0127753Y0043766D01*
X0127748Y0043827D01*
X0127738Y0043888D01*
X0127725Y0043949D01*
X0127709Y0044008D01*
X0127689Y0044066D01*
X0127665Y0044123D01*
X0127638Y0044179D01*
X0127608Y0044233D01*
X0127574Y0044285D01*
X0127538Y0044334D01*
X0127498Y0044382D01*
X0127456Y0044427D01*
X0127411Y0044469D01*
X0127363Y0044509D01*
X0127314Y0044545D01*
X0127262Y0044579D01*
X0127208Y0044609D01*
X0127152Y0044636D01*
X0127095Y0044660D01*
X0127037Y0044680D01*
X0126978Y0044696D01*
X0126917Y0044709D01*
X0126856Y0044719D01*
X0126795Y0044724D01*
X0126733Y0044726D01*
X0126733Y0044727D02*
X0126222Y0044727D01*
X0126222Y0044726D02*
X0126160Y0044724D01*
X0126099Y0044719D01*
X0126038Y0044709D01*
X0125977Y0044696D01*
X0125918Y0044680D01*
X0125860Y0044660D01*
X0125803Y0044636D01*
X0125747Y0044609D01*
X0125693Y0044579D01*
X0125641Y0044545D01*
X0125592Y0044509D01*
X0125544Y0044469D01*
X0125499Y0044427D01*
X0125457Y0044382D01*
X0125417Y0044334D01*
X0125381Y0044285D01*
X0125347Y0044233D01*
X0125317Y0044179D01*
X0125290Y0044123D01*
X0125266Y0044066D01*
X0125246Y0044008D01*
X0125230Y0043949D01*
X0125217Y0043888D01*
X0125207Y0043827D01*
X0125202Y0043766D01*
X0125200Y0043704D01*
X0125200Y0042171D01*
X0125200Y0040256D02*
X0127244Y0039233D01*
X0127244Y0038978D02*
X0127244Y0037700D01*
X0127244Y0038978D02*
X0127246Y0039048D01*
X0127252Y0039119D01*
X0127261Y0039188D01*
X0127275Y0039257D01*
X0127292Y0039326D01*
X0127313Y0039393D01*
X0127338Y0039459D01*
X0127366Y0039523D01*
X0127398Y0039586D01*
X0127433Y0039647D01*
X0127472Y0039706D01*
X0127513Y0039763D01*
X0127558Y0039817D01*
X0127606Y0039869D01*
X0127656Y0039918D01*
X0127710Y0039965D01*
X0127765Y0040008D01*
X0127823Y0040048D01*
X0127883Y0040085D01*
X0127945Y0040118D01*
X0128009Y0040148D01*
X0128074Y0040175D01*
X0128140Y0040198D01*
X0128208Y0040217D01*
X0128277Y0040232D01*
X0128346Y0040244D01*
X0128416Y0040252D01*
X0128487Y0040256D01*
X0128557Y0040256D01*
X0128628Y0040252D01*
X0128698Y0040244D01*
X0128767Y0040232D01*
X0128836Y0040217D01*
X0128904Y0040198D01*
X0128970Y0040175D01*
X0129035Y0040148D01*
X0129099Y0040118D01*
X0129161Y0040085D01*
X0129221Y0040048D01*
X0129279Y0040008D01*
X0129334Y0039965D01*
X0129388Y0039918D01*
X0129438Y0039869D01*
X0129486Y0039817D01*
X0129531Y0039763D01*
X0129572Y0039706D01*
X0129611Y0039647D01*
X0129646Y0039586D01*
X0129678Y0039523D01*
X0129706Y0039459D01*
X0129731Y0039393D01*
X0129752Y0039326D01*
X0129769Y0039257D01*
X0129783Y0039188D01*
X0129792Y0039119D01*
X0129798Y0039048D01*
X0129800Y0038978D01*
X0129800Y0037700D01*
X0125200Y0037700D01*
X0089800Y0037700D02*
X0089800Y0038978D01*
X0089798Y0039048D01*
X0089792Y0039119D01*
X0089783Y0039188D01*
X0089769Y0039257D01*
X0089752Y0039326D01*
X0089731Y0039393D01*
X0089706Y0039459D01*
X0089678Y0039523D01*
X0089646Y0039586D01*
X0089611Y0039647D01*
X0089572Y0039706D01*
X0089531Y0039763D01*
X0089486Y0039817D01*
X0089438Y0039869D01*
X0089388Y0039918D01*
X0089334Y0039965D01*
X0089279Y0040008D01*
X0089221Y0040048D01*
X0089161Y0040085D01*
X0089099Y0040118D01*
X0089035Y0040148D01*
X0088970Y0040175D01*
X0088904Y0040198D01*
X0088836Y0040217D01*
X0088767Y0040232D01*
X0088698Y0040244D01*
X0088628Y0040252D01*
X0088557Y0040256D01*
X0088487Y0040256D01*
X0088416Y0040252D01*
X0088346Y0040244D01*
X0088277Y0040232D01*
X0088208Y0040217D01*
X0088140Y0040198D01*
X0088074Y0040175D01*
X0088009Y0040148D01*
X0087945Y0040118D01*
X0087883Y0040085D01*
X0087823Y0040048D01*
X0087765Y0040008D01*
X0087710Y0039965D01*
X0087656Y0039918D01*
X0087606Y0039869D01*
X0087558Y0039817D01*
X0087513Y0039763D01*
X0087472Y0039706D01*
X0087433Y0039647D01*
X0087398Y0039586D01*
X0087366Y0039523D01*
X0087338Y0039459D01*
X0087313Y0039393D01*
X0087292Y0039326D01*
X0087275Y0039257D01*
X0087261Y0039188D01*
X0087252Y0039119D01*
X0087246Y0039048D01*
X0087244Y0038978D01*
X0087244Y0037700D01*
X0087244Y0039233D02*
X0085200Y0040256D01*
X0085200Y0037700D02*
X0089800Y0037700D01*
X0088778Y0042427D02*
X0088715Y0042429D01*
X0088652Y0042435D01*
X0088590Y0042444D01*
X0088529Y0042458D01*
X0088468Y0042475D01*
X0088409Y0042496D01*
X0088351Y0042521D01*
X0088294Y0042549D01*
X0088240Y0042580D01*
X0088188Y0042615D01*
X0088137Y0042653D01*
X0088089Y0042694D01*
X0088044Y0042738D01*
X0088002Y0042784D01*
X0087962Y0042833D01*
X0087926Y0042884D01*
X0087893Y0042938D01*
X0087863Y0042993D01*
X0087837Y0043051D01*
X0087814Y0043109D01*
X0087795Y0043169D01*
X0087780Y0043230D01*
X0087768Y0043292D01*
X0087760Y0043355D01*
X0087756Y0043418D01*
X0087756Y0043480D01*
X0087760Y0043543D01*
X0087768Y0043606D01*
X0087780Y0043668D01*
X0087795Y0043729D01*
X0087814Y0043789D01*
X0087837Y0043847D01*
X0087863Y0043905D01*
X0087893Y0043960D01*
X0087926Y0044014D01*
X0087962Y0044065D01*
X0088002Y0044114D01*
X0088044Y0044160D01*
X0088089Y0044204D01*
X0088137Y0044245D01*
X0088188Y0044283D01*
X0088240Y0044318D01*
X0088294Y0044349D01*
X0088351Y0044377D01*
X0088409Y0044402D01*
X0088468Y0044423D01*
X0088529Y0044440D01*
X0088590Y0044454D01*
X0088652Y0044463D01*
X0088715Y0044469D01*
X0088778Y0044471D01*
X0088841Y0044469D01*
X0088904Y0044463D01*
X0088966Y0044454D01*
X0089027Y0044440D01*
X0089088Y0044423D01*
X0089147Y0044402D01*
X0089205Y0044377D01*
X0089262Y0044349D01*
X0089316Y0044318D01*
X0089368Y0044283D01*
X0089419Y0044245D01*
X0089467Y0044204D01*
X0089512Y0044160D01*
X0089554Y0044114D01*
X0089594Y0044065D01*
X0089630Y0044014D01*
X0089663Y0043960D01*
X0089693Y0043905D01*
X0089719Y0043847D01*
X0089742Y0043789D01*
X0089761Y0043729D01*
X0089776Y0043668D01*
X0089788Y0043606D01*
X0089796Y0043543D01*
X0089800Y0043480D01*
X0089800Y0043418D01*
X0089796Y0043355D01*
X0089788Y0043292D01*
X0089776Y0043230D01*
X0089761Y0043169D01*
X0089742Y0043109D01*
X0089719Y0043051D01*
X0089693Y0042993D01*
X0089663Y0042938D01*
X0089630Y0042884D01*
X0089594Y0042833D01*
X0089554Y0042784D01*
X0089512Y0042738D01*
X0089467Y0042694D01*
X0089419Y0042653D01*
X0089368Y0042615D01*
X0089316Y0042580D01*
X0089262Y0042549D01*
X0089205Y0042521D01*
X0089147Y0042496D01*
X0089088Y0042475D01*
X0089027Y0042458D01*
X0088966Y0042444D01*
X0088904Y0042435D01*
X0088841Y0042429D01*
X0088778Y0042427D01*
X0086478Y0042171D02*
X0086408Y0042173D01*
X0086337Y0042179D01*
X0086268Y0042188D01*
X0086199Y0042202D01*
X0086130Y0042219D01*
X0086063Y0042240D01*
X0085997Y0042265D01*
X0085933Y0042293D01*
X0085870Y0042325D01*
X0085809Y0042360D01*
X0085750Y0042399D01*
X0085693Y0042440D01*
X0085639Y0042485D01*
X0085587Y0042533D01*
X0085538Y0042583D01*
X0085491Y0042637D01*
X0085448Y0042692D01*
X0085408Y0042750D01*
X0085371Y0042810D01*
X0085338Y0042872D01*
X0085308Y0042936D01*
X0085281Y0043001D01*
X0085258Y0043067D01*
X0085239Y0043135D01*
X0085224Y0043204D01*
X0085212Y0043273D01*
X0085204Y0043343D01*
X0085200Y0043414D01*
X0085200Y0043484D01*
X0085204Y0043555D01*
X0085212Y0043625D01*
X0085224Y0043694D01*
X0085239Y0043763D01*
X0085258Y0043831D01*
X0085281Y0043897D01*
X0085308Y0043962D01*
X0085338Y0044026D01*
X0085371Y0044088D01*
X0085408Y0044148D01*
X0085448Y0044206D01*
X0085491Y0044261D01*
X0085538Y0044315D01*
X0085587Y0044365D01*
X0085639Y0044413D01*
X0085693Y0044458D01*
X0085750Y0044499D01*
X0085809Y0044538D01*
X0085870Y0044573D01*
X0085933Y0044605D01*
X0085997Y0044633D01*
X0086063Y0044658D01*
X0086130Y0044679D01*
X0086199Y0044696D01*
X0086268Y0044710D01*
X0086337Y0044719D01*
X0086408Y0044725D01*
X0086478Y0044727D01*
X0086548Y0044725D01*
X0086619Y0044719D01*
X0086688Y0044710D01*
X0086757Y0044696D01*
X0086826Y0044679D01*
X0086893Y0044658D01*
X0086959Y0044633D01*
X0087023Y0044605D01*
X0087086Y0044573D01*
X0087147Y0044538D01*
X0087206Y0044499D01*
X0087263Y0044458D01*
X0087317Y0044413D01*
X0087369Y0044365D01*
X0087418Y0044315D01*
X0087465Y0044261D01*
X0087508Y0044206D01*
X0087548Y0044148D01*
X0087585Y0044088D01*
X0087618Y0044026D01*
X0087648Y0043962D01*
X0087675Y0043897D01*
X0087698Y0043831D01*
X0087717Y0043763D01*
X0087732Y0043694D01*
X0087744Y0043625D01*
X0087752Y0043555D01*
X0087756Y0043484D01*
X0087756Y0043414D01*
X0087752Y0043343D01*
X0087744Y0043273D01*
X0087732Y0043204D01*
X0087717Y0043135D01*
X0087698Y0043067D01*
X0087675Y0043001D01*
X0087648Y0042936D01*
X0087618Y0042872D01*
X0087585Y0042810D01*
X0087548Y0042750D01*
X0087508Y0042692D01*
X0087465Y0042637D01*
X0087418Y0042583D01*
X0087369Y0042533D01*
X0087317Y0042485D01*
X0087263Y0042440D01*
X0087206Y0042399D01*
X0087147Y0042360D01*
X0087086Y0042325D01*
X0087023Y0042293D01*
X0086959Y0042265D01*
X0086893Y0042240D01*
X0086826Y0042219D01*
X0086757Y0042202D01*
X0086688Y0042188D01*
X0086619Y0042179D01*
X0086548Y0042173D01*
X0086478Y0042171D01*
D12*
X0085150Y0052650D02*
X0085150Y0054706D01*
X0085150Y0053678D02*
X0088850Y0053678D01*
X0088028Y0052650D01*
X0087000Y0058305D02*
X0086894Y0058303D01*
X0086787Y0058298D01*
X0086681Y0058288D01*
X0086576Y0058275D01*
X0086471Y0058259D01*
X0086366Y0058238D01*
X0086263Y0058215D01*
X0086160Y0058187D01*
X0086058Y0058156D01*
X0085958Y0058121D01*
X0085858Y0058083D01*
X0085760Y0058042D01*
X0085664Y0057997D01*
X0085664Y0057998D02*
X0085615Y0057979D01*
X0085568Y0057957D01*
X0085522Y0057932D01*
X0085478Y0057904D01*
X0085436Y0057872D01*
X0085396Y0057838D01*
X0085358Y0057801D01*
X0085324Y0057762D01*
X0085292Y0057720D01*
X0085263Y0057677D01*
X0085237Y0057631D01*
X0085214Y0057584D01*
X0085195Y0057535D01*
X0085179Y0057485D01*
X0085166Y0057434D01*
X0085157Y0057383D01*
X0085152Y0057330D01*
X0085150Y0057278D01*
X0085152Y0057226D01*
X0085157Y0057173D01*
X0085166Y0057122D01*
X0085179Y0057071D01*
X0085195Y0057021D01*
X0085214Y0056972D01*
X0085237Y0056925D01*
X0085263Y0056879D01*
X0085292Y0056836D01*
X0085324Y0056794D01*
X0085358Y0056755D01*
X0085396Y0056718D01*
X0085436Y0056684D01*
X0085478Y0056652D01*
X0085522Y0056624D01*
X0085568Y0056599D01*
X0085615Y0056577D01*
X0085664Y0056558D01*
X0085972Y0056456D02*
X0088028Y0058100D01*
X0088336Y0057998D02*
X0088385Y0057979D01*
X0088432Y0057957D01*
X0088478Y0057932D01*
X0088522Y0057904D01*
X0088564Y0057872D01*
X0088604Y0057838D01*
X0088642Y0057801D01*
X0088676Y0057762D01*
X0088708Y0057720D01*
X0088737Y0057677D01*
X0088763Y0057631D01*
X0088786Y0057584D01*
X0088805Y0057535D01*
X0088821Y0057485D01*
X0088834Y0057434D01*
X0088843Y0057383D01*
X0088848Y0057330D01*
X0088850Y0057278D01*
X0088848Y0057226D01*
X0088843Y0057173D01*
X0088834Y0057122D01*
X0088821Y0057071D01*
X0088805Y0057021D01*
X0088786Y0056972D01*
X0088763Y0056925D01*
X0088737Y0056879D01*
X0088708Y0056836D01*
X0088676Y0056794D01*
X0088642Y0056755D01*
X0088604Y0056718D01*
X0088564Y0056684D01*
X0088522Y0056652D01*
X0088478Y0056624D01*
X0088432Y0056599D01*
X0088385Y0056577D01*
X0088336Y0056558D01*
X0088336Y0057997D02*
X0088240Y0058042D01*
X0088142Y0058083D01*
X0088042Y0058121D01*
X0087942Y0058156D01*
X0087840Y0058187D01*
X0087737Y0058215D01*
X0087634Y0058238D01*
X0087529Y0058259D01*
X0087424Y0058275D01*
X0087319Y0058288D01*
X0087213Y0058298D01*
X0087106Y0058303D01*
X0087000Y0058305D01*
X0087000Y0056250D02*
X0087106Y0056252D01*
X0087213Y0056257D01*
X0087319Y0056267D01*
X0087424Y0056280D01*
X0087529Y0056296D01*
X0087634Y0056317D01*
X0087737Y0056340D01*
X0087840Y0056368D01*
X0087942Y0056399D01*
X0088042Y0056434D01*
X0088142Y0056472D01*
X0088240Y0056513D01*
X0088336Y0056558D01*
X0087000Y0056250D02*
X0086894Y0056252D01*
X0086787Y0056257D01*
X0086681Y0056267D01*
X0086576Y0056280D01*
X0086471Y0056296D01*
X0086366Y0056317D01*
X0086263Y0056340D01*
X0086160Y0056368D01*
X0086058Y0056399D01*
X0085958Y0056434D01*
X0085858Y0056472D01*
X0085760Y0056513D01*
X0085664Y0056558D01*
X0085150Y0060022D02*
X0088850Y0060022D01*
X0087411Y0060844D02*
X0085150Y0062077D01*
X0086589Y0060022D02*
X0088850Y0062077D01*
X0100150Y0082650D02*
X0100150Y0084706D01*
X0100150Y0083678D02*
X0103850Y0083678D01*
X0103028Y0082650D01*
X0103850Y0086422D02*
X0100150Y0086422D01*
X0101589Y0086422D02*
X0103850Y0088477D01*
X0102411Y0087244D02*
X0100150Y0088477D01*
X0110150Y0097650D02*
X0110150Y0099706D01*
X0110150Y0101250D02*
X0110150Y0103306D01*
X0110664Y0106597D02*
X0110760Y0106642D01*
X0110858Y0106683D01*
X0110958Y0106721D01*
X0111058Y0106756D01*
X0111160Y0106787D01*
X0111263Y0106815D01*
X0111366Y0106838D01*
X0111471Y0106859D01*
X0111576Y0106875D01*
X0111681Y0106888D01*
X0111787Y0106898D01*
X0111894Y0106903D01*
X0112000Y0106905D01*
X0112000Y0104850D02*
X0112106Y0104852D01*
X0112213Y0104857D01*
X0112319Y0104867D01*
X0112424Y0104880D01*
X0112529Y0104896D01*
X0112634Y0104917D01*
X0112737Y0104940D01*
X0112840Y0104968D01*
X0112942Y0104999D01*
X0113042Y0105034D01*
X0113142Y0105072D01*
X0113240Y0105113D01*
X0113336Y0105158D01*
X0113850Y0105878D02*
X0113848Y0105930D01*
X0113843Y0105983D01*
X0113834Y0106034D01*
X0113821Y0106085D01*
X0113805Y0106135D01*
X0113786Y0106184D01*
X0113763Y0106231D01*
X0113737Y0106277D01*
X0113708Y0106320D01*
X0113676Y0106362D01*
X0113642Y0106401D01*
X0113604Y0106438D01*
X0113564Y0106472D01*
X0113522Y0106504D01*
X0113478Y0106532D01*
X0113432Y0106557D01*
X0113385Y0106579D01*
X0113336Y0106598D01*
X0113028Y0106700D02*
X0110972Y0105056D01*
X0110150Y0105878D02*
X0110152Y0105930D01*
X0110157Y0105983D01*
X0110166Y0106034D01*
X0110179Y0106085D01*
X0110195Y0106135D01*
X0110214Y0106184D01*
X0110237Y0106231D01*
X0110263Y0106277D01*
X0110292Y0106320D01*
X0110324Y0106362D01*
X0110358Y0106401D01*
X0110396Y0106438D01*
X0110436Y0106472D01*
X0110478Y0106504D01*
X0110522Y0106532D01*
X0110568Y0106557D01*
X0110615Y0106579D01*
X0110664Y0106598D01*
X0110150Y0105878D02*
X0110152Y0105826D01*
X0110157Y0105773D01*
X0110166Y0105722D01*
X0110179Y0105671D01*
X0110195Y0105621D01*
X0110214Y0105572D01*
X0110237Y0105525D01*
X0110263Y0105479D01*
X0110292Y0105436D01*
X0110324Y0105394D01*
X0110358Y0105355D01*
X0110396Y0105318D01*
X0110436Y0105284D01*
X0110478Y0105252D01*
X0110522Y0105224D01*
X0110568Y0105199D01*
X0110615Y0105177D01*
X0110664Y0105158D01*
X0112000Y0106905D02*
X0112106Y0106903D01*
X0112213Y0106898D01*
X0112319Y0106888D01*
X0112424Y0106875D01*
X0112529Y0106859D01*
X0112634Y0106838D01*
X0112737Y0106815D01*
X0112840Y0106787D01*
X0112942Y0106756D01*
X0113042Y0106721D01*
X0113142Y0106683D01*
X0113240Y0106642D01*
X0113336Y0106597D01*
X0113850Y0105878D02*
X0113848Y0105826D01*
X0113843Y0105773D01*
X0113834Y0105722D01*
X0113821Y0105671D01*
X0113805Y0105621D01*
X0113786Y0105572D01*
X0113763Y0105525D01*
X0113737Y0105479D01*
X0113708Y0105436D01*
X0113676Y0105394D01*
X0113642Y0105355D01*
X0113604Y0105318D01*
X0113564Y0105284D01*
X0113522Y0105252D01*
X0113478Y0105224D01*
X0113432Y0105199D01*
X0113385Y0105177D01*
X0113336Y0105158D01*
X0112206Y0102997D02*
X0110150Y0101250D01*
X0113028Y0101251D02*
X0113092Y0101274D01*
X0113155Y0101300D01*
X0113216Y0101330D01*
X0113275Y0101363D01*
X0113332Y0101400D01*
X0113387Y0101440D01*
X0113439Y0101483D01*
X0113489Y0101529D01*
X0113537Y0101577D01*
X0113581Y0101629D01*
X0113623Y0101682D01*
X0113661Y0101738D01*
X0113696Y0101796D01*
X0113728Y0101856D01*
X0113756Y0101918D01*
X0113781Y0101981D01*
X0113802Y0102046D01*
X0113819Y0102112D01*
X0113833Y0102178D01*
X0113842Y0102245D01*
X0113848Y0102313D01*
X0113850Y0102381D01*
X0113848Y0102439D01*
X0113843Y0102497D01*
X0113834Y0102554D01*
X0113821Y0102611D01*
X0113805Y0102667D01*
X0113785Y0102722D01*
X0113762Y0102775D01*
X0113736Y0102827D01*
X0113706Y0102877D01*
X0113673Y0102925D01*
X0113638Y0102971D01*
X0113599Y0103014D01*
X0113558Y0103055D01*
X0113515Y0103094D01*
X0113469Y0103129D01*
X0113421Y0103162D01*
X0113371Y0103192D01*
X0113319Y0103218D01*
X0113266Y0103241D01*
X0113211Y0103261D01*
X0113155Y0103277D01*
X0113098Y0103290D01*
X0113041Y0103299D01*
X0112983Y0103304D01*
X0112925Y0103306D01*
X0112863Y0103304D01*
X0112801Y0103298D01*
X0112740Y0103289D01*
X0112680Y0103275D01*
X0112620Y0103258D01*
X0112562Y0103237D01*
X0112505Y0103213D01*
X0112450Y0103185D01*
X0112396Y0103154D01*
X0112345Y0103119D01*
X0112296Y0103082D01*
X0112249Y0103041D01*
X0112205Y0102998D01*
X0112206Y0099397D02*
X0110150Y0097650D01*
X0113028Y0097651D02*
X0113092Y0097674D01*
X0113155Y0097700D01*
X0113216Y0097730D01*
X0113275Y0097763D01*
X0113332Y0097800D01*
X0113387Y0097840D01*
X0113439Y0097883D01*
X0113489Y0097929D01*
X0113537Y0097977D01*
X0113581Y0098029D01*
X0113623Y0098082D01*
X0113661Y0098138D01*
X0113696Y0098196D01*
X0113728Y0098256D01*
X0113756Y0098318D01*
X0113781Y0098381D01*
X0113802Y0098446D01*
X0113819Y0098512D01*
X0113833Y0098578D01*
X0113842Y0098645D01*
X0113848Y0098713D01*
X0113850Y0098781D01*
X0113848Y0098839D01*
X0113843Y0098897D01*
X0113834Y0098954D01*
X0113821Y0099011D01*
X0113805Y0099067D01*
X0113785Y0099122D01*
X0113762Y0099175D01*
X0113736Y0099227D01*
X0113706Y0099277D01*
X0113673Y0099325D01*
X0113638Y0099371D01*
X0113599Y0099414D01*
X0113558Y0099455D01*
X0113515Y0099494D01*
X0113469Y0099529D01*
X0113421Y0099562D01*
X0113371Y0099592D01*
X0113319Y0099618D01*
X0113266Y0099641D01*
X0113211Y0099661D01*
X0113155Y0099677D01*
X0113098Y0099690D01*
X0113041Y0099699D01*
X0112983Y0099704D01*
X0112925Y0099706D01*
X0112863Y0099704D01*
X0112801Y0099698D01*
X0112740Y0099689D01*
X0112680Y0099675D01*
X0112620Y0099658D01*
X0112562Y0099637D01*
X0112505Y0099613D01*
X0112450Y0099585D01*
X0112396Y0099554D01*
X0112345Y0099519D01*
X0112296Y0099482D01*
X0112249Y0099441D01*
X0112205Y0099398D01*
X0112000Y0104850D02*
X0111894Y0104852D01*
X0111787Y0104857D01*
X0111681Y0104867D01*
X0111576Y0104880D01*
X0111471Y0104896D01*
X0111366Y0104917D01*
X0111263Y0104940D01*
X0111160Y0104968D01*
X0111058Y0104999D01*
X0110958Y0105034D01*
X0110858Y0105072D01*
X0110760Y0105113D01*
X0110664Y0105158D01*
X0122650Y0132650D02*
X0126350Y0132650D01*
X0126350Y0133678D01*
X0126348Y0133734D01*
X0126342Y0133790D01*
X0126333Y0133845D01*
X0126320Y0133900D01*
X0126303Y0133953D01*
X0126282Y0134005D01*
X0126258Y0134056D01*
X0126230Y0134105D01*
X0126200Y0134152D01*
X0126166Y0134197D01*
X0126129Y0134239D01*
X0126089Y0134279D01*
X0126047Y0134316D01*
X0126002Y0134350D01*
X0125955Y0134380D01*
X0125906Y0134408D01*
X0125855Y0134432D01*
X0125803Y0134453D01*
X0125750Y0134470D01*
X0125695Y0134483D01*
X0125640Y0134492D01*
X0125584Y0134498D01*
X0125528Y0134500D01*
X0125472Y0134498D01*
X0125416Y0134492D01*
X0125361Y0134483D01*
X0125306Y0134470D01*
X0125253Y0134453D01*
X0125201Y0134432D01*
X0125150Y0134408D01*
X0125101Y0134380D01*
X0125054Y0134350D01*
X0125009Y0134316D01*
X0124967Y0134279D01*
X0124927Y0134239D01*
X0124890Y0134197D01*
X0124856Y0134152D01*
X0124826Y0134105D01*
X0124798Y0134056D01*
X0124774Y0134005D01*
X0124753Y0133953D01*
X0124736Y0133900D01*
X0124723Y0133845D01*
X0124714Y0133790D01*
X0124708Y0133734D01*
X0124706Y0133678D01*
X0124706Y0132650D01*
X0124706Y0133678D02*
X0124704Y0133741D01*
X0124698Y0133804D01*
X0124688Y0133867D01*
X0124675Y0133929D01*
X0124658Y0133990D01*
X0124637Y0134049D01*
X0124612Y0134108D01*
X0124584Y0134164D01*
X0124552Y0134219D01*
X0124517Y0134272D01*
X0124479Y0134322D01*
X0124438Y0134371D01*
X0124394Y0134416D01*
X0124347Y0134459D01*
X0124298Y0134498D01*
X0124246Y0134535D01*
X0124192Y0134568D01*
X0124136Y0134598D01*
X0124079Y0134625D01*
X0124020Y0134648D01*
X0123959Y0134667D01*
X0123898Y0134682D01*
X0123836Y0134694D01*
X0123773Y0134702D01*
X0123710Y0134706D01*
X0123646Y0134706D01*
X0123583Y0134702D01*
X0123520Y0134694D01*
X0123458Y0134682D01*
X0123397Y0134667D01*
X0123336Y0134648D01*
X0123277Y0134625D01*
X0123220Y0134598D01*
X0123164Y0134568D01*
X0123110Y0134535D01*
X0123058Y0134498D01*
X0123009Y0134459D01*
X0122962Y0134416D01*
X0122918Y0134371D01*
X0122877Y0134322D01*
X0122839Y0134272D01*
X0122804Y0134219D01*
X0122772Y0134164D01*
X0122744Y0134108D01*
X0122719Y0134049D01*
X0122698Y0133990D01*
X0122681Y0133929D01*
X0122668Y0133867D01*
X0122658Y0133804D01*
X0122652Y0133741D01*
X0122650Y0133678D01*
X0122650Y0132650D01*
X0123472Y0136068D02*
X0125528Y0136068D01*
X0125584Y0136070D01*
X0125640Y0136076D01*
X0125695Y0136085D01*
X0125750Y0136098D01*
X0125803Y0136115D01*
X0125855Y0136136D01*
X0125906Y0136160D01*
X0125955Y0136188D01*
X0126002Y0136218D01*
X0126047Y0136252D01*
X0126089Y0136289D01*
X0126129Y0136329D01*
X0126166Y0136371D01*
X0126200Y0136416D01*
X0126230Y0136463D01*
X0126258Y0136512D01*
X0126282Y0136563D01*
X0126303Y0136615D01*
X0126320Y0136668D01*
X0126333Y0136723D01*
X0126342Y0136778D01*
X0126348Y0136834D01*
X0126350Y0136890D01*
X0126350Y0137713D01*
X0125528Y0139284D02*
X0125472Y0139286D01*
X0125416Y0139292D01*
X0125361Y0139301D01*
X0125306Y0139314D01*
X0125253Y0139331D01*
X0125201Y0139352D01*
X0125150Y0139376D01*
X0125101Y0139404D01*
X0125054Y0139434D01*
X0125009Y0139468D01*
X0124967Y0139505D01*
X0124927Y0139545D01*
X0124890Y0139587D01*
X0124856Y0139632D01*
X0124826Y0139679D01*
X0124798Y0139728D01*
X0124774Y0139779D01*
X0124753Y0139831D01*
X0124736Y0139884D01*
X0124723Y0139939D01*
X0124714Y0139994D01*
X0124708Y0140050D01*
X0124706Y0140106D01*
X0124708Y0140162D01*
X0124714Y0140218D01*
X0124723Y0140273D01*
X0124736Y0140328D01*
X0124753Y0140381D01*
X0124774Y0140433D01*
X0124798Y0140484D01*
X0124826Y0140533D01*
X0124856Y0140580D01*
X0124890Y0140625D01*
X0124927Y0140667D01*
X0124967Y0140707D01*
X0125009Y0140744D01*
X0125054Y0140778D01*
X0125101Y0140808D01*
X0125150Y0140836D01*
X0125201Y0140860D01*
X0125253Y0140881D01*
X0125306Y0140898D01*
X0125361Y0140911D01*
X0125416Y0140920D01*
X0125472Y0140926D01*
X0125528Y0140928D01*
X0125584Y0140926D01*
X0125640Y0140920D01*
X0125695Y0140911D01*
X0125750Y0140898D01*
X0125803Y0140881D01*
X0125855Y0140860D01*
X0125906Y0140836D01*
X0125955Y0140808D01*
X0126002Y0140778D01*
X0126047Y0140744D01*
X0126089Y0140707D01*
X0126129Y0140667D01*
X0126166Y0140625D01*
X0126200Y0140580D01*
X0126230Y0140533D01*
X0126258Y0140484D01*
X0126282Y0140433D01*
X0126303Y0140381D01*
X0126320Y0140328D01*
X0126333Y0140273D01*
X0126342Y0140218D01*
X0126348Y0140162D01*
X0126350Y0140106D01*
X0126348Y0140050D01*
X0126342Y0139994D01*
X0126333Y0139939D01*
X0126320Y0139884D01*
X0126303Y0139831D01*
X0126282Y0139779D01*
X0126258Y0139728D01*
X0126230Y0139679D01*
X0126200Y0139632D01*
X0126166Y0139587D01*
X0126129Y0139545D01*
X0126089Y0139505D01*
X0126047Y0139468D01*
X0126002Y0139434D01*
X0125955Y0139404D01*
X0125906Y0139376D01*
X0125855Y0139352D01*
X0125803Y0139331D01*
X0125750Y0139314D01*
X0125695Y0139301D01*
X0125640Y0139292D01*
X0125584Y0139286D01*
X0125528Y0139284D01*
X0123678Y0139078D02*
X0123615Y0139080D01*
X0123552Y0139086D01*
X0123489Y0139096D01*
X0123427Y0139109D01*
X0123366Y0139126D01*
X0123307Y0139147D01*
X0123248Y0139172D01*
X0123192Y0139200D01*
X0123137Y0139232D01*
X0123084Y0139267D01*
X0123034Y0139305D01*
X0122985Y0139346D01*
X0122940Y0139390D01*
X0122897Y0139437D01*
X0122858Y0139486D01*
X0122821Y0139538D01*
X0122788Y0139592D01*
X0122758Y0139648D01*
X0122731Y0139705D01*
X0122708Y0139764D01*
X0122689Y0139825D01*
X0122674Y0139886D01*
X0122662Y0139948D01*
X0122654Y0140011D01*
X0122650Y0140074D01*
X0122650Y0140138D01*
X0122654Y0140201D01*
X0122662Y0140264D01*
X0122674Y0140326D01*
X0122689Y0140387D01*
X0122708Y0140448D01*
X0122731Y0140507D01*
X0122758Y0140564D01*
X0122788Y0140620D01*
X0122821Y0140674D01*
X0122858Y0140726D01*
X0122897Y0140775D01*
X0122940Y0140822D01*
X0122985Y0140866D01*
X0123034Y0140907D01*
X0123084Y0140945D01*
X0123137Y0140980D01*
X0123192Y0141012D01*
X0123248Y0141040D01*
X0123307Y0141065D01*
X0123366Y0141086D01*
X0123427Y0141103D01*
X0123489Y0141116D01*
X0123552Y0141126D01*
X0123615Y0141132D01*
X0123678Y0141134D01*
X0123741Y0141132D01*
X0123804Y0141126D01*
X0123867Y0141116D01*
X0123929Y0141103D01*
X0123990Y0141086D01*
X0124049Y0141065D01*
X0124108Y0141040D01*
X0124164Y0141012D01*
X0124219Y0140980D01*
X0124272Y0140945D01*
X0124322Y0140907D01*
X0124371Y0140866D01*
X0124416Y0140822D01*
X0124459Y0140775D01*
X0124498Y0140726D01*
X0124535Y0140674D01*
X0124568Y0140620D01*
X0124598Y0140564D01*
X0124625Y0140507D01*
X0124648Y0140448D01*
X0124667Y0140387D01*
X0124682Y0140326D01*
X0124694Y0140264D01*
X0124702Y0140201D01*
X0124706Y0140138D01*
X0124706Y0140074D01*
X0124702Y0140011D01*
X0124694Y0139948D01*
X0124682Y0139886D01*
X0124667Y0139825D01*
X0124648Y0139764D01*
X0124625Y0139705D01*
X0124598Y0139648D01*
X0124568Y0139592D01*
X0124535Y0139538D01*
X0124498Y0139486D01*
X0124459Y0139437D01*
X0124416Y0139390D01*
X0124371Y0139346D01*
X0124322Y0139305D01*
X0124272Y0139267D01*
X0124219Y0139232D01*
X0124164Y0139200D01*
X0124108Y0139172D01*
X0124049Y0139147D01*
X0123990Y0139126D01*
X0123929Y0139109D01*
X0123867Y0139096D01*
X0123804Y0139086D01*
X0123741Y0139080D01*
X0123678Y0139078D01*
X0122650Y0137713D02*
X0122650Y0136890D01*
X0122652Y0136834D01*
X0122658Y0136778D01*
X0122667Y0136723D01*
X0122680Y0136668D01*
X0122697Y0136615D01*
X0122718Y0136563D01*
X0122742Y0136512D01*
X0122770Y0136463D01*
X0122800Y0136416D01*
X0122834Y0136371D01*
X0122871Y0136329D01*
X0122911Y0136289D01*
X0122953Y0136252D01*
X0122998Y0136218D01*
X0123045Y0136188D01*
X0123094Y0136160D01*
X0123145Y0136136D01*
X0123197Y0136115D01*
X0123250Y0136098D01*
X0123305Y0136085D01*
X0123360Y0136076D01*
X0123416Y0136070D01*
X0123472Y0136068D01*
X0122650Y0142678D02*
X0122650Y0144734D01*
X0122650Y0143706D02*
X0126350Y0143706D01*
X0125528Y0142678D01*
X0125939Y0146278D02*
X0126350Y0146278D01*
X0126350Y0148334D01*
X0122650Y0147306D01*
X0140150Y0147077D02*
X0142411Y0145844D01*
X0141589Y0145022D02*
X0143850Y0147077D01*
X0143850Y0145022D02*
X0140150Y0145022D01*
X0140664Y0141558D02*
X0140760Y0141513D01*
X0140858Y0141472D01*
X0140958Y0141434D01*
X0141058Y0141399D01*
X0141160Y0141368D01*
X0141263Y0141340D01*
X0141366Y0141317D01*
X0141471Y0141296D01*
X0141576Y0141280D01*
X0141681Y0141267D01*
X0141787Y0141257D01*
X0141894Y0141252D01*
X0142000Y0141250D01*
X0142000Y0143305D02*
X0142106Y0143303D01*
X0142213Y0143298D01*
X0142319Y0143288D01*
X0142424Y0143275D01*
X0142529Y0143259D01*
X0142634Y0143238D01*
X0142737Y0143215D01*
X0142840Y0143187D01*
X0142942Y0143156D01*
X0143042Y0143121D01*
X0143142Y0143083D01*
X0143240Y0143042D01*
X0143336Y0142997D01*
X0143028Y0143100D02*
X0140972Y0141456D01*
X0140150Y0142278D02*
X0140152Y0142330D01*
X0140157Y0142383D01*
X0140166Y0142434D01*
X0140179Y0142485D01*
X0140195Y0142535D01*
X0140214Y0142584D01*
X0140237Y0142631D01*
X0140263Y0142677D01*
X0140292Y0142720D01*
X0140324Y0142762D01*
X0140358Y0142801D01*
X0140396Y0142838D01*
X0140436Y0142872D01*
X0140478Y0142904D01*
X0140522Y0142932D01*
X0140568Y0142957D01*
X0140615Y0142979D01*
X0140664Y0142998D01*
X0140150Y0142278D02*
X0140152Y0142226D01*
X0140157Y0142173D01*
X0140166Y0142122D01*
X0140179Y0142071D01*
X0140195Y0142021D01*
X0140214Y0141972D01*
X0140237Y0141925D01*
X0140263Y0141879D01*
X0140292Y0141836D01*
X0140324Y0141794D01*
X0140358Y0141755D01*
X0140396Y0141718D01*
X0140436Y0141684D01*
X0140478Y0141652D01*
X0140522Y0141624D01*
X0140568Y0141599D01*
X0140615Y0141577D01*
X0140664Y0141558D01*
X0140664Y0142997D02*
X0140760Y0143042D01*
X0140858Y0143083D01*
X0140958Y0143121D01*
X0141058Y0143156D01*
X0141160Y0143187D01*
X0141263Y0143215D01*
X0141366Y0143238D01*
X0141471Y0143259D01*
X0141576Y0143275D01*
X0141681Y0143288D01*
X0141787Y0143298D01*
X0141894Y0143303D01*
X0142000Y0143305D01*
X0142000Y0141250D02*
X0142106Y0141252D01*
X0142213Y0141257D01*
X0142319Y0141267D01*
X0142424Y0141280D01*
X0142529Y0141296D01*
X0142634Y0141317D01*
X0142737Y0141340D01*
X0142840Y0141368D01*
X0142942Y0141399D01*
X0143042Y0141434D01*
X0143142Y0141472D01*
X0143240Y0141513D01*
X0143336Y0141558D01*
X0143850Y0142278D02*
X0143848Y0142330D01*
X0143843Y0142383D01*
X0143834Y0142434D01*
X0143821Y0142485D01*
X0143805Y0142535D01*
X0143786Y0142584D01*
X0143763Y0142631D01*
X0143737Y0142677D01*
X0143708Y0142720D01*
X0143676Y0142762D01*
X0143642Y0142801D01*
X0143604Y0142838D01*
X0143564Y0142872D01*
X0143522Y0142904D01*
X0143478Y0142932D01*
X0143432Y0142957D01*
X0143385Y0142979D01*
X0143336Y0142998D01*
X0143850Y0142278D02*
X0143848Y0142226D01*
X0143843Y0142173D01*
X0143834Y0142122D01*
X0143821Y0142071D01*
X0143805Y0142021D01*
X0143786Y0141972D01*
X0143763Y0141925D01*
X0143737Y0141879D01*
X0143708Y0141836D01*
X0143676Y0141794D01*
X0143642Y0141755D01*
X0143604Y0141718D01*
X0143564Y0141684D01*
X0143522Y0141652D01*
X0143478Y0141624D01*
X0143432Y0141599D01*
X0143385Y0141577D01*
X0143336Y0141558D01*
X0140150Y0139706D02*
X0140150Y0137650D01*
X0140150Y0138678D02*
X0143850Y0138678D01*
X0143028Y0137650D01*
X0162650Y0137713D02*
X0162650Y0136890D01*
X0162652Y0136834D01*
X0162658Y0136778D01*
X0162667Y0136723D01*
X0162680Y0136668D01*
X0162697Y0136615D01*
X0162718Y0136563D01*
X0162742Y0136512D01*
X0162770Y0136463D01*
X0162800Y0136416D01*
X0162834Y0136371D01*
X0162871Y0136329D01*
X0162911Y0136289D01*
X0162953Y0136252D01*
X0162998Y0136218D01*
X0163045Y0136188D01*
X0163094Y0136160D01*
X0163145Y0136136D01*
X0163197Y0136115D01*
X0163250Y0136098D01*
X0163305Y0136085D01*
X0163360Y0136076D01*
X0163416Y0136070D01*
X0163472Y0136068D01*
X0165528Y0136068D01*
X0165584Y0136070D01*
X0165640Y0136076D01*
X0165695Y0136085D01*
X0165750Y0136098D01*
X0165803Y0136115D01*
X0165855Y0136136D01*
X0165906Y0136160D01*
X0165955Y0136188D01*
X0166002Y0136218D01*
X0166047Y0136252D01*
X0166089Y0136289D01*
X0166129Y0136329D01*
X0166166Y0136371D01*
X0166200Y0136416D01*
X0166230Y0136463D01*
X0166258Y0136512D01*
X0166282Y0136563D01*
X0166303Y0136615D01*
X0166320Y0136668D01*
X0166333Y0136723D01*
X0166342Y0136778D01*
X0166348Y0136834D01*
X0166350Y0136890D01*
X0166350Y0137713D01*
X0165528Y0139284D02*
X0165472Y0139286D01*
X0165416Y0139292D01*
X0165361Y0139301D01*
X0165306Y0139314D01*
X0165253Y0139331D01*
X0165201Y0139352D01*
X0165150Y0139376D01*
X0165101Y0139404D01*
X0165054Y0139434D01*
X0165009Y0139468D01*
X0164967Y0139505D01*
X0164927Y0139545D01*
X0164890Y0139587D01*
X0164856Y0139632D01*
X0164826Y0139679D01*
X0164798Y0139728D01*
X0164774Y0139779D01*
X0164753Y0139831D01*
X0164736Y0139884D01*
X0164723Y0139939D01*
X0164714Y0139994D01*
X0164708Y0140050D01*
X0164706Y0140106D01*
X0164708Y0140162D01*
X0164714Y0140218D01*
X0164723Y0140273D01*
X0164736Y0140328D01*
X0164753Y0140381D01*
X0164774Y0140433D01*
X0164798Y0140484D01*
X0164826Y0140533D01*
X0164856Y0140580D01*
X0164890Y0140625D01*
X0164927Y0140667D01*
X0164967Y0140707D01*
X0165009Y0140744D01*
X0165054Y0140778D01*
X0165101Y0140808D01*
X0165150Y0140836D01*
X0165201Y0140860D01*
X0165253Y0140881D01*
X0165306Y0140898D01*
X0165361Y0140911D01*
X0165416Y0140920D01*
X0165472Y0140926D01*
X0165528Y0140928D01*
X0165584Y0140926D01*
X0165640Y0140920D01*
X0165695Y0140911D01*
X0165750Y0140898D01*
X0165803Y0140881D01*
X0165855Y0140860D01*
X0165906Y0140836D01*
X0165955Y0140808D01*
X0166002Y0140778D01*
X0166047Y0140744D01*
X0166089Y0140707D01*
X0166129Y0140667D01*
X0166166Y0140625D01*
X0166200Y0140580D01*
X0166230Y0140533D01*
X0166258Y0140484D01*
X0166282Y0140433D01*
X0166303Y0140381D01*
X0166320Y0140328D01*
X0166333Y0140273D01*
X0166342Y0140218D01*
X0166348Y0140162D01*
X0166350Y0140106D01*
X0166348Y0140050D01*
X0166342Y0139994D01*
X0166333Y0139939D01*
X0166320Y0139884D01*
X0166303Y0139831D01*
X0166282Y0139779D01*
X0166258Y0139728D01*
X0166230Y0139679D01*
X0166200Y0139632D01*
X0166166Y0139587D01*
X0166129Y0139545D01*
X0166089Y0139505D01*
X0166047Y0139468D01*
X0166002Y0139434D01*
X0165955Y0139404D01*
X0165906Y0139376D01*
X0165855Y0139352D01*
X0165803Y0139331D01*
X0165750Y0139314D01*
X0165695Y0139301D01*
X0165640Y0139292D01*
X0165584Y0139286D01*
X0165528Y0139284D01*
X0163678Y0139078D02*
X0163615Y0139080D01*
X0163552Y0139086D01*
X0163489Y0139096D01*
X0163427Y0139109D01*
X0163366Y0139126D01*
X0163307Y0139147D01*
X0163248Y0139172D01*
X0163192Y0139200D01*
X0163137Y0139232D01*
X0163084Y0139267D01*
X0163034Y0139305D01*
X0162985Y0139346D01*
X0162940Y0139390D01*
X0162897Y0139437D01*
X0162858Y0139486D01*
X0162821Y0139538D01*
X0162788Y0139592D01*
X0162758Y0139648D01*
X0162731Y0139705D01*
X0162708Y0139764D01*
X0162689Y0139825D01*
X0162674Y0139886D01*
X0162662Y0139948D01*
X0162654Y0140011D01*
X0162650Y0140074D01*
X0162650Y0140138D01*
X0162654Y0140201D01*
X0162662Y0140264D01*
X0162674Y0140326D01*
X0162689Y0140387D01*
X0162708Y0140448D01*
X0162731Y0140507D01*
X0162758Y0140564D01*
X0162788Y0140620D01*
X0162821Y0140674D01*
X0162858Y0140726D01*
X0162897Y0140775D01*
X0162940Y0140822D01*
X0162985Y0140866D01*
X0163034Y0140907D01*
X0163084Y0140945D01*
X0163137Y0140980D01*
X0163192Y0141012D01*
X0163248Y0141040D01*
X0163307Y0141065D01*
X0163366Y0141086D01*
X0163427Y0141103D01*
X0163489Y0141116D01*
X0163552Y0141126D01*
X0163615Y0141132D01*
X0163678Y0141134D01*
X0163741Y0141132D01*
X0163804Y0141126D01*
X0163867Y0141116D01*
X0163929Y0141103D01*
X0163990Y0141086D01*
X0164049Y0141065D01*
X0164108Y0141040D01*
X0164164Y0141012D01*
X0164219Y0140980D01*
X0164272Y0140945D01*
X0164322Y0140907D01*
X0164371Y0140866D01*
X0164416Y0140822D01*
X0164459Y0140775D01*
X0164498Y0140726D01*
X0164535Y0140674D01*
X0164568Y0140620D01*
X0164598Y0140564D01*
X0164625Y0140507D01*
X0164648Y0140448D01*
X0164667Y0140387D01*
X0164682Y0140326D01*
X0164694Y0140264D01*
X0164702Y0140201D01*
X0164706Y0140138D01*
X0164706Y0140074D01*
X0164702Y0140011D01*
X0164694Y0139948D01*
X0164682Y0139886D01*
X0164667Y0139825D01*
X0164648Y0139764D01*
X0164625Y0139705D01*
X0164598Y0139648D01*
X0164568Y0139592D01*
X0164535Y0139538D01*
X0164498Y0139486D01*
X0164459Y0139437D01*
X0164416Y0139390D01*
X0164371Y0139346D01*
X0164322Y0139305D01*
X0164272Y0139267D01*
X0164219Y0139232D01*
X0164164Y0139200D01*
X0164108Y0139172D01*
X0164049Y0139147D01*
X0163990Y0139126D01*
X0163929Y0139109D01*
X0163867Y0139096D01*
X0163804Y0139086D01*
X0163741Y0139080D01*
X0163678Y0139078D01*
X0162650Y0142678D02*
X0162650Y0144734D01*
X0162650Y0143706D02*
X0166350Y0143706D01*
X0165528Y0142678D01*
X0165939Y0146278D02*
X0166350Y0146278D01*
X0166350Y0148334D01*
X0162650Y0147306D01*
X0162650Y0133678D02*
X0162650Y0132650D01*
X0166350Y0132650D01*
X0166350Y0133678D01*
X0166348Y0133734D01*
X0166342Y0133790D01*
X0166333Y0133845D01*
X0166320Y0133900D01*
X0166303Y0133953D01*
X0166282Y0134005D01*
X0166258Y0134056D01*
X0166230Y0134105D01*
X0166200Y0134152D01*
X0166166Y0134197D01*
X0166129Y0134239D01*
X0166089Y0134279D01*
X0166047Y0134316D01*
X0166002Y0134350D01*
X0165955Y0134380D01*
X0165906Y0134408D01*
X0165855Y0134432D01*
X0165803Y0134453D01*
X0165750Y0134470D01*
X0165695Y0134483D01*
X0165640Y0134492D01*
X0165584Y0134498D01*
X0165528Y0134500D01*
X0165472Y0134498D01*
X0165416Y0134492D01*
X0165361Y0134483D01*
X0165306Y0134470D01*
X0165253Y0134453D01*
X0165201Y0134432D01*
X0165150Y0134408D01*
X0165101Y0134380D01*
X0165054Y0134350D01*
X0165009Y0134316D01*
X0164967Y0134279D01*
X0164927Y0134239D01*
X0164890Y0134197D01*
X0164856Y0134152D01*
X0164826Y0134105D01*
X0164798Y0134056D01*
X0164774Y0134005D01*
X0164753Y0133953D01*
X0164736Y0133900D01*
X0164723Y0133845D01*
X0164714Y0133790D01*
X0164708Y0133734D01*
X0164706Y0133678D01*
X0164706Y0132650D01*
X0164706Y0133678D02*
X0164704Y0133741D01*
X0164698Y0133804D01*
X0164688Y0133867D01*
X0164675Y0133929D01*
X0164658Y0133990D01*
X0164637Y0134049D01*
X0164612Y0134108D01*
X0164584Y0134164D01*
X0164552Y0134219D01*
X0164517Y0134272D01*
X0164479Y0134322D01*
X0164438Y0134371D01*
X0164394Y0134416D01*
X0164347Y0134459D01*
X0164298Y0134498D01*
X0164246Y0134535D01*
X0164192Y0134568D01*
X0164136Y0134598D01*
X0164079Y0134625D01*
X0164020Y0134648D01*
X0163959Y0134667D01*
X0163898Y0134682D01*
X0163836Y0134694D01*
X0163773Y0134702D01*
X0163710Y0134706D01*
X0163646Y0134706D01*
X0163583Y0134702D01*
X0163520Y0134694D01*
X0163458Y0134682D01*
X0163397Y0134667D01*
X0163336Y0134648D01*
X0163277Y0134625D01*
X0163220Y0134598D01*
X0163164Y0134568D01*
X0163110Y0134535D01*
X0163058Y0134498D01*
X0163009Y0134459D01*
X0162962Y0134416D01*
X0162918Y0134371D01*
X0162877Y0134322D01*
X0162839Y0134272D01*
X0162804Y0134219D01*
X0162772Y0134164D01*
X0162744Y0134108D01*
X0162719Y0134049D01*
X0162698Y0133990D01*
X0162681Y0133929D01*
X0162668Y0133867D01*
X0162658Y0133804D01*
X0162652Y0133741D01*
X0162650Y0133678D01*
X0180150Y0137650D02*
X0180150Y0139706D01*
X0180150Y0138678D02*
X0183850Y0138678D01*
X0183028Y0137650D01*
X0182000Y0143305D02*
X0181894Y0143303D01*
X0181787Y0143298D01*
X0181681Y0143288D01*
X0181576Y0143275D01*
X0181471Y0143259D01*
X0181366Y0143238D01*
X0181263Y0143215D01*
X0181160Y0143187D01*
X0181058Y0143156D01*
X0180958Y0143121D01*
X0180858Y0143083D01*
X0180760Y0143042D01*
X0180664Y0142997D01*
X0180664Y0142998D02*
X0180615Y0142979D01*
X0180568Y0142957D01*
X0180522Y0142932D01*
X0180478Y0142904D01*
X0180436Y0142872D01*
X0180396Y0142838D01*
X0180358Y0142801D01*
X0180324Y0142762D01*
X0180292Y0142720D01*
X0180263Y0142677D01*
X0180237Y0142631D01*
X0180214Y0142584D01*
X0180195Y0142535D01*
X0180179Y0142485D01*
X0180166Y0142434D01*
X0180157Y0142383D01*
X0180152Y0142330D01*
X0180150Y0142278D01*
X0180152Y0142226D01*
X0180157Y0142173D01*
X0180166Y0142122D01*
X0180179Y0142071D01*
X0180195Y0142021D01*
X0180214Y0141972D01*
X0180237Y0141925D01*
X0180263Y0141879D01*
X0180292Y0141836D01*
X0180324Y0141794D01*
X0180358Y0141755D01*
X0180396Y0141718D01*
X0180436Y0141684D01*
X0180478Y0141652D01*
X0180522Y0141624D01*
X0180568Y0141599D01*
X0180615Y0141577D01*
X0180664Y0141558D01*
X0180972Y0141456D02*
X0183028Y0143100D01*
X0183336Y0142998D02*
X0183385Y0142979D01*
X0183432Y0142957D01*
X0183478Y0142932D01*
X0183522Y0142904D01*
X0183564Y0142872D01*
X0183604Y0142838D01*
X0183642Y0142801D01*
X0183676Y0142762D01*
X0183708Y0142720D01*
X0183737Y0142677D01*
X0183763Y0142631D01*
X0183786Y0142584D01*
X0183805Y0142535D01*
X0183821Y0142485D01*
X0183834Y0142434D01*
X0183843Y0142383D01*
X0183848Y0142330D01*
X0183850Y0142278D01*
X0183848Y0142226D01*
X0183843Y0142173D01*
X0183834Y0142122D01*
X0183821Y0142071D01*
X0183805Y0142021D01*
X0183786Y0141972D01*
X0183763Y0141925D01*
X0183737Y0141879D01*
X0183708Y0141836D01*
X0183676Y0141794D01*
X0183642Y0141755D01*
X0183604Y0141718D01*
X0183564Y0141684D01*
X0183522Y0141652D01*
X0183478Y0141624D01*
X0183432Y0141599D01*
X0183385Y0141577D01*
X0183336Y0141558D01*
X0183336Y0142997D02*
X0183240Y0143042D01*
X0183142Y0143083D01*
X0183042Y0143121D01*
X0182942Y0143156D01*
X0182840Y0143187D01*
X0182737Y0143215D01*
X0182634Y0143238D01*
X0182529Y0143259D01*
X0182424Y0143275D01*
X0182319Y0143288D01*
X0182213Y0143298D01*
X0182106Y0143303D01*
X0182000Y0143305D01*
X0182000Y0141250D02*
X0182106Y0141252D01*
X0182213Y0141257D01*
X0182319Y0141267D01*
X0182424Y0141280D01*
X0182529Y0141296D01*
X0182634Y0141317D01*
X0182737Y0141340D01*
X0182840Y0141368D01*
X0182942Y0141399D01*
X0183042Y0141434D01*
X0183142Y0141472D01*
X0183240Y0141513D01*
X0183336Y0141558D01*
X0182000Y0141250D02*
X0181894Y0141252D01*
X0181787Y0141257D01*
X0181681Y0141267D01*
X0181576Y0141280D01*
X0181471Y0141296D01*
X0181366Y0141317D01*
X0181263Y0141340D01*
X0181160Y0141368D01*
X0181058Y0141399D01*
X0180958Y0141434D01*
X0180858Y0141472D01*
X0180760Y0141513D01*
X0180664Y0141558D01*
X0180150Y0145022D02*
X0183850Y0145022D01*
X0182411Y0145844D02*
X0180150Y0147077D01*
X0181589Y0145022D02*
X0183850Y0147077D01*
X0152000Y0104850D02*
X0151894Y0104852D01*
X0151787Y0104857D01*
X0151681Y0104867D01*
X0151576Y0104880D01*
X0151471Y0104896D01*
X0151366Y0104917D01*
X0151263Y0104940D01*
X0151160Y0104968D01*
X0151058Y0104999D01*
X0150958Y0105034D01*
X0150858Y0105072D01*
X0150760Y0105113D01*
X0150664Y0105158D01*
X0150972Y0105056D02*
X0153028Y0106700D01*
X0153336Y0106598D02*
X0153385Y0106579D01*
X0153432Y0106557D01*
X0153478Y0106532D01*
X0153522Y0106504D01*
X0153564Y0106472D01*
X0153604Y0106438D01*
X0153642Y0106401D01*
X0153676Y0106362D01*
X0153708Y0106320D01*
X0153737Y0106277D01*
X0153763Y0106231D01*
X0153786Y0106184D01*
X0153805Y0106135D01*
X0153821Y0106085D01*
X0153834Y0106034D01*
X0153843Y0105983D01*
X0153848Y0105930D01*
X0153850Y0105878D01*
X0153848Y0105826D01*
X0153843Y0105773D01*
X0153834Y0105722D01*
X0153821Y0105671D01*
X0153805Y0105621D01*
X0153786Y0105572D01*
X0153763Y0105525D01*
X0153737Y0105479D01*
X0153708Y0105436D01*
X0153676Y0105394D01*
X0153642Y0105355D01*
X0153604Y0105318D01*
X0153564Y0105284D01*
X0153522Y0105252D01*
X0153478Y0105224D01*
X0153432Y0105199D01*
X0153385Y0105177D01*
X0153336Y0105158D01*
X0153336Y0106597D02*
X0153240Y0106642D01*
X0153142Y0106683D01*
X0153042Y0106721D01*
X0152942Y0106756D01*
X0152840Y0106787D01*
X0152737Y0106815D01*
X0152634Y0106838D01*
X0152529Y0106859D01*
X0152424Y0106875D01*
X0152319Y0106888D01*
X0152213Y0106898D01*
X0152106Y0106903D01*
X0152000Y0106905D01*
X0152000Y0104850D02*
X0152106Y0104852D01*
X0152213Y0104857D01*
X0152319Y0104867D01*
X0152424Y0104880D01*
X0152529Y0104896D01*
X0152634Y0104917D01*
X0152737Y0104940D01*
X0152840Y0104968D01*
X0152942Y0104999D01*
X0153042Y0105034D01*
X0153142Y0105072D01*
X0153240Y0105113D01*
X0153336Y0105158D01*
X0152000Y0106905D02*
X0151894Y0106903D01*
X0151787Y0106898D01*
X0151681Y0106888D01*
X0151576Y0106875D01*
X0151471Y0106859D01*
X0151366Y0106838D01*
X0151263Y0106815D01*
X0151160Y0106787D01*
X0151058Y0106756D01*
X0150958Y0106721D01*
X0150858Y0106683D01*
X0150760Y0106642D01*
X0150664Y0106597D01*
X0150664Y0106598D02*
X0150615Y0106579D01*
X0150568Y0106557D01*
X0150522Y0106532D01*
X0150478Y0106504D01*
X0150436Y0106472D01*
X0150396Y0106438D01*
X0150358Y0106401D01*
X0150324Y0106362D01*
X0150292Y0106320D01*
X0150263Y0106277D01*
X0150237Y0106231D01*
X0150214Y0106184D01*
X0150195Y0106135D01*
X0150179Y0106085D01*
X0150166Y0106034D01*
X0150157Y0105983D01*
X0150152Y0105930D01*
X0150150Y0105878D01*
X0150152Y0105826D01*
X0150157Y0105773D01*
X0150166Y0105722D01*
X0150179Y0105671D01*
X0150195Y0105621D01*
X0150214Y0105572D01*
X0150237Y0105525D01*
X0150263Y0105479D01*
X0150292Y0105436D01*
X0150324Y0105394D01*
X0150358Y0105355D01*
X0150396Y0105318D01*
X0150436Y0105284D01*
X0150478Y0105252D01*
X0150522Y0105224D01*
X0150568Y0105199D01*
X0150615Y0105177D01*
X0150664Y0105158D01*
X0150150Y0103306D02*
X0150150Y0101250D01*
X0152206Y0102997D01*
X0153850Y0102381D02*
X0153848Y0102313D01*
X0153842Y0102245D01*
X0153833Y0102178D01*
X0153819Y0102112D01*
X0153802Y0102046D01*
X0153781Y0101981D01*
X0153756Y0101918D01*
X0153728Y0101856D01*
X0153696Y0101796D01*
X0153661Y0101738D01*
X0153623Y0101682D01*
X0153581Y0101629D01*
X0153537Y0101577D01*
X0153489Y0101529D01*
X0153439Y0101483D01*
X0153387Y0101440D01*
X0153332Y0101400D01*
X0153275Y0101363D01*
X0153216Y0101330D01*
X0153155Y0101300D01*
X0153092Y0101274D01*
X0153028Y0101251D01*
X0152205Y0102998D02*
X0152249Y0103041D01*
X0152296Y0103082D01*
X0152345Y0103119D01*
X0152396Y0103154D01*
X0152450Y0103185D01*
X0152505Y0103213D01*
X0152562Y0103237D01*
X0152620Y0103258D01*
X0152680Y0103275D01*
X0152740Y0103289D01*
X0152801Y0103298D01*
X0152863Y0103304D01*
X0152925Y0103306D01*
X0152983Y0103304D01*
X0153041Y0103299D01*
X0153098Y0103290D01*
X0153155Y0103277D01*
X0153211Y0103261D01*
X0153266Y0103241D01*
X0153319Y0103218D01*
X0153371Y0103192D01*
X0153421Y0103162D01*
X0153469Y0103129D01*
X0153515Y0103094D01*
X0153558Y0103055D01*
X0153599Y0103014D01*
X0153638Y0102971D01*
X0153673Y0102925D01*
X0153706Y0102877D01*
X0153736Y0102827D01*
X0153762Y0102775D01*
X0153785Y0102722D01*
X0153805Y0102667D01*
X0153821Y0102611D01*
X0153834Y0102554D01*
X0153843Y0102497D01*
X0153848Y0102439D01*
X0153850Y0102381D01*
X0152206Y0099397D02*
X0150150Y0097650D01*
X0150150Y0099706D01*
X0153028Y0097651D02*
X0153092Y0097674D01*
X0153155Y0097700D01*
X0153216Y0097730D01*
X0153275Y0097763D01*
X0153332Y0097800D01*
X0153387Y0097840D01*
X0153439Y0097883D01*
X0153489Y0097929D01*
X0153537Y0097977D01*
X0153581Y0098029D01*
X0153623Y0098082D01*
X0153661Y0098138D01*
X0153696Y0098196D01*
X0153728Y0098256D01*
X0153756Y0098318D01*
X0153781Y0098381D01*
X0153802Y0098446D01*
X0153819Y0098512D01*
X0153833Y0098578D01*
X0153842Y0098645D01*
X0153848Y0098713D01*
X0153850Y0098781D01*
X0153848Y0098839D01*
X0153843Y0098897D01*
X0153834Y0098954D01*
X0153821Y0099011D01*
X0153805Y0099067D01*
X0153785Y0099122D01*
X0153762Y0099175D01*
X0153736Y0099227D01*
X0153706Y0099277D01*
X0153673Y0099325D01*
X0153638Y0099371D01*
X0153599Y0099414D01*
X0153558Y0099455D01*
X0153515Y0099494D01*
X0153469Y0099529D01*
X0153421Y0099562D01*
X0153371Y0099592D01*
X0153319Y0099618D01*
X0153266Y0099641D01*
X0153211Y0099661D01*
X0153155Y0099677D01*
X0153098Y0099690D01*
X0153041Y0099699D01*
X0152983Y0099704D01*
X0152925Y0099706D01*
X0152863Y0099704D01*
X0152801Y0099698D01*
X0152740Y0099689D01*
X0152680Y0099675D01*
X0152620Y0099658D01*
X0152562Y0099637D01*
X0152505Y0099613D01*
X0152450Y0099585D01*
X0152396Y0099554D01*
X0152345Y0099519D01*
X0152296Y0099482D01*
X0152249Y0099441D01*
X0152205Y0099398D01*
X0143850Y0088477D02*
X0141589Y0086422D01*
X0142411Y0087244D02*
X0140150Y0088477D01*
X0140150Y0086422D02*
X0143850Y0086422D01*
X0143850Y0083678D02*
X0143028Y0082650D01*
X0143850Y0083678D02*
X0140150Y0083678D01*
X0140150Y0082650D02*
X0140150Y0084706D01*
X0128850Y0062077D02*
X0126589Y0060022D01*
X0125664Y0056558D02*
X0125760Y0056513D01*
X0125858Y0056472D01*
X0125958Y0056434D01*
X0126058Y0056399D01*
X0126160Y0056368D01*
X0126263Y0056340D01*
X0126366Y0056317D01*
X0126471Y0056296D01*
X0126576Y0056280D01*
X0126681Y0056267D01*
X0126787Y0056257D01*
X0126894Y0056252D01*
X0127000Y0056250D01*
X0127000Y0058305D02*
X0127106Y0058303D01*
X0127213Y0058298D01*
X0127319Y0058288D01*
X0127424Y0058275D01*
X0127529Y0058259D01*
X0127634Y0058238D01*
X0127737Y0058215D01*
X0127840Y0058187D01*
X0127942Y0058156D01*
X0128042Y0058121D01*
X0128142Y0058083D01*
X0128240Y0058042D01*
X0128336Y0057997D01*
X0128028Y0058100D02*
X0125972Y0056456D01*
X0125150Y0057278D02*
X0125152Y0057330D01*
X0125157Y0057383D01*
X0125166Y0057434D01*
X0125179Y0057485D01*
X0125195Y0057535D01*
X0125214Y0057584D01*
X0125237Y0057631D01*
X0125263Y0057677D01*
X0125292Y0057720D01*
X0125324Y0057762D01*
X0125358Y0057801D01*
X0125396Y0057838D01*
X0125436Y0057872D01*
X0125478Y0057904D01*
X0125522Y0057932D01*
X0125568Y0057957D01*
X0125615Y0057979D01*
X0125664Y0057998D01*
X0125150Y0057278D02*
X0125152Y0057226D01*
X0125157Y0057173D01*
X0125166Y0057122D01*
X0125179Y0057071D01*
X0125195Y0057021D01*
X0125214Y0056972D01*
X0125237Y0056925D01*
X0125263Y0056879D01*
X0125292Y0056836D01*
X0125324Y0056794D01*
X0125358Y0056755D01*
X0125396Y0056718D01*
X0125436Y0056684D01*
X0125478Y0056652D01*
X0125522Y0056624D01*
X0125568Y0056599D01*
X0125615Y0056577D01*
X0125664Y0056558D01*
X0125664Y0057997D02*
X0125760Y0058042D01*
X0125858Y0058083D01*
X0125958Y0058121D01*
X0126058Y0058156D01*
X0126160Y0058187D01*
X0126263Y0058215D01*
X0126366Y0058238D01*
X0126471Y0058259D01*
X0126576Y0058275D01*
X0126681Y0058288D01*
X0126787Y0058298D01*
X0126894Y0058303D01*
X0127000Y0058305D01*
X0127000Y0056250D02*
X0127106Y0056252D01*
X0127213Y0056257D01*
X0127319Y0056267D01*
X0127424Y0056280D01*
X0127529Y0056296D01*
X0127634Y0056317D01*
X0127737Y0056340D01*
X0127840Y0056368D01*
X0127942Y0056399D01*
X0128042Y0056434D01*
X0128142Y0056472D01*
X0128240Y0056513D01*
X0128336Y0056558D01*
X0128850Y0057278D02*
X0128848Y0057330D01*
X0128843Y0057383D01*
X0128834Y0057434D01*
X0128821Y0057485D01*
X0128805Y0057535D01*
X0128786Y0057584D01*
X0128763Y0057631D01*
X0128737Y0057677D01*
X0128708Y0057720D01*
X0128676Y0057762D01*
X0128642Y0057801D01*
X0128604Y0057838D01*
X0128564Y0057872D01*
X0128522Y0057904D01*
X0128478Y0057932D01*
X0128432Y0057957D01*
X0128385Y0057979D01*
X0128336Y0057998D01*
X0128850Y0057278D02*
X0128848Y0057226D01*
X0128843Y0057173D01*
X0128834Y0057122D01*
X0128821Y0057071D01*
X0128805Y0057021D01*
X0128786Y0056972D01*
X0128763Y0056925D01*
X0128737Y0056879D01*
X0128708Y0056836D01*
X0128676Y0056794D01*
X0128642Y0056755D01*
X0128604Y0056718D01*
X0128564Y0056684D01*
X0128522Y0056652D01*
X0128478Y0056624D01*
X0128432Y0056599D01*
X0128385Y0056577D01*
X0128336Y0056558D01*
X0128850Y0060022D02*
X0125150Y0060022D01*
X0125150Y0062077D02*
X0127411Y0060844D01*
X0125150Y0054706D02*
X0125150Y0052650D01*
X0125150Y0053678D02*
X0128850Y0053678D01*
X0128028Y0052650D01*
X0165150Y0052650D02*
X0165150Y0054706D01*
X0165150Y0053678D02*
X0168850Y0053678D01*
X0168028Y0052650D01*
X0167000Y0058305D02*
X0166894Y0058303D01*
X0166787Y0058298D01*
X0166681Y0058288D01*
X0166576Y0058275D01*
X0166471Y0058259D01*
X0166366Y0058238D01*
X0166263Y0058215D01*
X0166160Y0058187D01*
X0166058Y0058156D01*
X0165958Y0058121D01*
X0165858Y0058083D01*
X0165760Y0058042D01*
X0165664Y0057997D01*
X0165664Y0057998D02*
X0165615Y0057979D01*
X0165568Y0057957D01*
X0165522Y0057932D01*
X0165478Y0057904D01*
X0165436Y0057872D01*
X0165396Y0057838D01*
X0165358Y0057801D01*
X0165324Y0057762D01*
X0165292Y0057720D01*
X0165263Y0057677D01*
X0165237Y0057631D01*
X0165214Y0057584D01*
X0165195Y0057535D01*
X0165179Y0057485D01*
X0165166Y0057434D01*
X0165157Y0057383D01*
X0165152Y0057330D01*
X0165150Y0057278D01*
X0165152Y0057226D01*
X0165157Y0057173D01*
X0165166Y0057122D01*
X0165179Y0057071D01*
X0165195Y0057021D01*
X0165214Y0056972D01*
X0165237Y0056925D01*
X0165263Y0056879D01*
X0165292Y0056836D01*
X0165324Y0056794D01*
X0165358Y0056755D01*
X0165396Y0056718D01*
X0165436Y0056684D01*
X0165478Y0056652D01*
X0165522Y0056624D01*
X0165568Y0056599D01*
X0165615Y0056577D01*
X0165664Y0056558D01*
X0165972Y0056456D02*
X0168028Y0058100D01*
X0168336Y0057998D02*
X0168385Y0057979D01*
X0168432Y0057957D01*
X0168478Y0057932D01*
X0168522Y0057904D01*
X0168564Y0057872D01*
X0168604Y0057838D01*
X0168642Y0057801D01*
X0168676Y0057762D01*
X0168708Y0057720D01*
X0168737Y0057677D01*
X0168763Y0057631D01*
X0168786Y0057584D01*
X0168805Y0057535D01*
X0168821Y0057485D01*
X0168834Y0057434D01*
X0168843Y0057383D01*
X0168848Y0057330D01*
X0168850Y0057278D01*
X0168848Y0057226D01*
X0168843Y0057173D01*
X0168834Y0057122D01*
X0168821Y0057071D01*
X0168805Y0057021D01*
X0168786Y0056972D01*
X0168763Y0056925D01*
X0168737Y0056879D01*
X0168708Y0056836D01*
X0168676Y0056794D01*
X0168642Y0056755D01*
X0168604Y0056718D01*
X0168564Y0056684D01*
X0168522Y0056652D01*
X0168478Y0056624D01*
X0168432Y0056599D01*
X0168385Y0056577D01*
X0168336Y0056558D01*
X0168336Y0057997D02*
X0168240Y0058042D01*
X0168142Y0058083D01*
X0168042Y0058121D01*
X0167942Y0058156D01*
X0167840Y0058187D01*
X0167737Y0058215D01*
X0167634Y0058238D01*
X0167529Y0058259D01*
X0167424Y0058275D01*
X0167319Y0058288D01*
X0167213Y0058298D01*
X0167106Y0058303D01*
X0167000Y0058305D01*
X0167000Y0056250D02*
X0167106Y0056252D01*
X0167213Y0056257D01*
X0167319Y0056267D01*
X0167424Y0056280D01*
X0167529Y0056296D01*
X0167634Y0056317D01*
X0167737Y0056340D01*
X0167840Y0056368D01*
X0167942Y0056399D01*
X0168042Y0056434D01*
X0168142Y0056472D01*
X0168240Y0056513D01*
X0168336Y0056558D01*
X0167000Y0056250D02*
X0166894Y0056252D01*
X0166787Y0056257D01*
X0166681Y0056267D01*
X0166576Y0056280D01*
X0166471Y0056296D01*
X0166366Y0056317D01*
X0166263Y0056340D01*
X0166160Y0056368D01*
X0166058Y0056399D01*
X0165958Y0056434D01*
X0165858Y0056472D01*
X0165760Y0056513D01*
X0165664Y0056558D01*
X0165150Y0060022D02*
X0168850Y0060022D01*
X0167411Y0060844D02*
X0165150Y0062077D01*
X0166589Y0060022D02*
X0168850Y0062077D01*
X0180150Y0082650D02*
X0180150Y0084706D01*
X0180150Y0083678D02*
X0183850Y0083678D01*
X0183028Y0082650D01*
X0183850Y0086422D02*
X0180150Y0086422D01*
X0181589Y0086422D02*
X0183850Y0088477D01*
X0182411Y0087244D02*
X0180150Y0088477D01*
X0103850Y0138678D02*
X0100150Y0138678D01*
X0100150Y0137650D02*
X0100150Y0139706D01*
X0100664Y0142997D02*
X0100760Y0143042D01*
X0100858Y0143083D01*
X0100958Y0143121D01*
X0101058Y0143156D01*
X0101160Y0143187D01*
X0101263Y0143215D01*
X0101366Y0143238D01*
X0101471Y0143259D01*
X0101576Y0143275D01*
X0101681Y0143288D01*
X0101787Y0143298D01*
X0101894Y0143303D01*
X0102000Y0143305D01*
X0102000Y0141250D02*
X0102106Y0141252D01*
X0102213Y0141257D01*
X0102319Y0141267D01*
X0102424Y0141280D01*
X0102529Y0141296D01*
X0102634Y0141317D01*
X0102737Y0141340D01*
X0102840Y0141368D01*
X0102942Y0141399D01*
X0103042Y0141434D01*
X0103142Y0141472D01*
X0103240Y0141513D01*
X0103336Y0141558D01*
X0103850Y0142278D02*
X0103848Y0142330D01*
X0103843Y0142383D01*
X0103834Y0142434D01*
X0103821Y0142485D01*
X0103805Y0142535D01*
X0103786Y0142584D01*
X0103763Y0142631D01*
X0103737Y0142677D01*
X0103708Y0142720D01*
X0103676Y0142762D01*
X0103642Y0142801D01*
X0103604Y0142838D01*
X0103564Y0142872D01*
X0103522Y0142904D01*
X0103478Y0142932D01*
X0103432Y0142957D01*
X0103385Y0142979D01*
X0103336Y0142998D01*
X0103028Y0143100D02*
X0100972Y0141456D01*
X0100150Y0142278D02*
X0100152Y0142330D01*
X0100157Y0142383D01*
X0100166Y0142434D01*
X0100179Y0142485D01*
X0100195Y0142535D01*
X0100214Y0142584D01*
X0100237Y0142631D01*
X0100263Y0142677D01*
X0100292Y0142720D01*
X0100324Y0142762D01*
X0100358Y0142801D01*
X0100396Y0142838D01*
X0100436Y0142872D01*
X0100478Y0142904D01*
X0100522Y0142932D01*
X0100568Y0142957D01*
X0100615Y0142979D01*
X0100664Y0142998D01*
X0100150Y0142278D02*
X0100152Y0142226D01*
X0100157Y0142173D01*
X0100166Y0142122D01*
X0100179Y0142071D01*
X0100195Y0142021D01*
X0100214Y0141972D01*
X0100237Y0141925D01*
X0100263Y0141879D01*
X0100292Y0141836D01*
X0100324Y0141794D01*
X0100358Y0141755D01*
X0100396Y0141718D01*
X0100436Y0141684D01*
X0100478Y0141652D01*
X0100522Y0141624D01*
X0100568Y0141599D01*
X0100615Y0141577D01*
X0100664Y0141558D01*
X0102000Y0143305D02*
X0102106Y0143303D01*
X0102213Y0143298D01*
X0102319Y0143288D01*
X0102424Y0143275D01*
X0102529Y0143259D01*
X0102634Y0143238D01*
X0102737Y0143215D01*
X0102840Y0143187D01*
X0102942Y0143156D01*
X0103042Y0143121D01*
X0103142Y0143083D01*
X0103240Y0143042D01*
X0103336Y0142997D01*
X0103850Y0142278D02*
X0103848Y0142226D01*
X0103843Y0142173D01*
X0103834Y0142122D01*
X0103821Y0142071D01*
X0103805Y0142021D01*
X0103786Y0141972D01*
X0103763Y0141925D01*
X0103737Y0141879D01*
X0103708Y0141836D01*
X0103676Y0141794D01*
X0103642Y0141755D01*
X0103604Y0141718D01*
X0103564Y0141684D01*
X0103522Y0141652D01*
X0103478Y0141624D01*
X0103432Y0141599D01*
X0103385Y0141577D01*
X0103336Y0141558D01*
X0102000Y0141250D02*
X0101894Y0141252D01*
X0101787Y0141257D01*
X0101681Y0141267D01*
X0101576Y0141280D01*
X0101471Y0141296D01*
X0101366Y0141317D01*
X0101263Y0141340D01*
X0101160Y0141368D01*
X0101058Y0141399D01*
X0100958Y0141434D01*
X0100858Y0141472D01*
X0100760Y0141513D01*
X0100664Y0141558D01*
X0100150Y0145022D02*
X0103850Y0145022D01*
X0102411Y0145844D02*
X0100150Y0147077D01*
X0101589Y0145022D02*
X0103850Y0147077D01*
X0103850Y0138678D02*
X0103028Y0137650D01*
X0086350Y0137713D02*
X0086350Y0136890D01*
X0086348Y0136834D01*
X0086342Y0136778D01*
X0086333Y0136723D01*
X0086320Y0136668D01*
X0086303Y0136615D01*
X0086282Y0136563D01*
X0086258Y0136512D01*
X0086230Y0136463D01*
X0086200Y0136416D01*
X0086166Y0136371D01*
X0086129Y0136329D01*
X0086089Y0136289D01*
X0086047Y0136252D01*
X0086002Y0136218D01*
X0085955Y0136188D01*
X0085906Y0136160D01*
X0085855Y0136136D01*
X0085803Y0136115D01*
X0085750Y0136098D01*
X0085695Y0136085D01*
X0085640Y0136076D01*
X0085584Y0136070D01*
X0085528Y0136068D01*
X0083472Y0136068D01*
X0083416Y0136070D01*
X0083360Y0136076D01*
X0083305Y0136085D01*
X0083250Y0136098D01*
X0083197Y0136115D01*
X0083145Y0136136D01*
X0083094Y0136160D01*
X0083045Y0136188D01*
X0082998Y0136218D01*
X0082953Y0136252D01*
X0082911Y0136289D01*
X0082871Y0136329D01*
X0082834Y0136371D01*
X0082800Y0136416D01*
X0082770Y0136463D01*
X0082742Y0136512D01*
X0082718Y0136563D01*
X0082697Y0136615D01*
X0082680Y0136668D01*
X0082667Y0136723D01*
X0082658Y0136778D01*
X0082652Y0136834D01*
X0082650Y0136890D01*
X0082650Y0137713D01*
X0083678Y0139078D02*
X0083615Y0139080D01*
X0083552Y0139086D01*
X0083489Y0139096D01*
X0083427Y0139109D01*
X0083366Y0139126D01*
X0083307Y0139147D01*
X0083248Y0139172D01*
X0083192Y0139200D01*
X0083137Y0139232D01*
X0083084Y0139267D01*
X0083034Y0139305D01*
X0082985Y0139346D01*
X0082940Y0139390D01*
X0082897Y0139437D01*
X0082858Y0139486D01*
X0082821Y0139538D01*
X0082788Y0139592D01*
X0082758Y0139648D01*
X0082731Y0139705D01*
X0082708Y0139764D01*
X0082689Y0139825D01*
X0082674Y0139886D01*
X0082662Y0139948D01*
X0082654Y0140011D01*
X0082650Y0140074D01*
X0082650Y0140138D01*
X0082654Y0140201D01*
X0082662Y0140264D01*
X0082674Y0140326D01*
X0082689Y0140387D01*
X0082708Y0140448D01*
X0082731Y0140507D01*
X0082758Y0140564D01*
X0082788Y0140620D01*
X0082821Y0140674D01*
X0082858Y0140726D01*
X0082897Y0140775D01*
X0082940Y0140822D01*
X0082985Y0140866D01*
X0083034Y0140907D01*
X0083084Y0140945D01*
X0083137Y0140980D01*
X0083192Y0141012D01*
X0083248Y0141040D01*
X0083307Y0141065D01*
X0083366Y0141086D01*
X0083427Y0141103D01*
X0083489Y0141116D01*
X0083552Y0141126D01*
X0083615Y0141132D01*
X0083678Y0141134D01*
X0083741Y0141132D01*
X0083804Y0141126D01*
X0083867Y0141116D01*
X0083929Y0141103D01*
X0083990Y0141086D01*
X0084049Y0141065D01*
X0084108Y0141040D01*
X0084164Y0141012D01*
X0084219Y0140980D01*
X0084272Y0140945D01*
X0084322Y0140907D01*
X0084371Y0140866D01*
X0084416Y0140822D01*
X0084459Y0140775D01*
X0084498Y0140726D01*
X0084535Y0140674D01*
X0084568Y0140620D01*
X0084598Y0140564D01*
X0084625Y0140507D01*
X0084648Y0140448D01*
X0084667Y0140387D01*
X0084682Y0140326D01*
X0084694Y0140264D01*
X0084702Y0140201D01*
X0084706Y0140138D01*
X0084706Y0140074D01*
X0084702Y0140011D01*
X0084694Y0139948D01*
X0084682Y0139886D01*
X0084667Y0139825D01*
X0084648Y0139764D01*
X0084625Y0139705D01*
X0084598Y0139648D01*
X0084568Y0139592D01*
X0084535Y0139538D01*
X0084498Y0139486D01*
X0084459Y0139437D01*
X0084416Y0139390D01*
X0084371Y0139346D01*
X0084322Y0139305D01*
X0084272Y0139267D01*
X0084219Y0139232D01*
X0084164Y0139200D01*
X0084108Y0139172D01*
X0084049Y0139147D01*
X0083990Y0139126D01*
X0083929Y0139109D01*
X0083867Y0139096D01*
X0083804Y0139086D01*
X0083741Y0139080D01*
X0083678Y0139078D01*
X0085528Y0139284D02*
X0085472Y0139286D01*
X0085416Y0139292D01*
X0085361Y0139301D01*
X0085306Y0139314D01*
X0085253Y0139331D01*
X0085201Y0139352D01*
X0085150Y0139376D01*
X0085101Y0139404D01*
X0085054Y0139434D01*
X0085009Y0139468D01*
X0084967Y0139505D01*
X0084927Y0139545D01*
X0084890Y0139587D01*
X0084856Y0139632D01*
X0084826Y0139679D01*
X0084798Y0139728D01*
X0084774Y0139779D01*
X0084753Y0139831D01*
X0084736Y0139884D01*
X0084723Y0139939D01*
X0084714Y0139994D01*
X0084708Y0140050D01*
X0084706Y0140106D01*
X0084708Y0140162D01*
X0084714Y0140218D01*
X0084723Y0140273D01*
X0084736Y0140328D01*
X0084753Y0140381D01*
X0084774Y0140433D01*
X0084798Y0140484D01*
X0084826Y0140533D01*
X0084856Y0140580D01*
X0084890Y0140625D01*
X0084927Y0140667D01*
X0084967Y0140707D01*
X0085009Y0140744D01*
X0085054Y0140778D01*
X0085101Y0140808D01*
X0085150Y0140836D01*
X0085201Y0140860D01*
X0085253Y0140881D01*
X0085306Y0140898D01*
X0085361Y0140911D01*
X0085416Y0140920D01*
X0085472Y0140926D01*
X0085528Y0140928D01*
X0085584Y0140926D01*
X0085640Y0140920D01*
X0085695Y0140911D01*
X0085750Y0140898D01*
X0085803Y0140881D01*
X0085855Y0140860D01*
X0085906Y0140836D01*
X0085955Y0140808D01*
X0086002Y0140778D01*
X0086047Y0140744D01*
X0086089Y0140707D01*
X0086129Y0140667D01*
X0086166Y0140625D01*
X0086200Y0140580D01*
X0086230Y0140533D01*
X0086258Y0140484D01*
X0086282Y0140433D01*
X0086303Y0140381D01*
X0086320Y0140328D01*
X0086333Y0140273D01*
X0086342Y0140218D01*
X0086348Y0140162D01*
X0086350Y0140106D01*
X0086348Y0140050D01*
X0086342Y0139994D01*
X0086333Y0139939D01*
X0086320Y0139884D01*
X0086303Y0139831D01*
X0086282Y0139779D01*
X0086258Y0139728D01*
X0086230Y0139679D01*
X0086200Y0139632D01*
X0086166Y0139587D01*
X0086129Y0139545D01*
X0086089Y0139505D01*
X0086047Y0139468D01*
X0086002Y0139434D01*
X0085955Y0139404D01*
X0085906Y0139376D01*
X0085855Y0139352D01*
X0085803Y0139331D01*
X0085750Y0139314D01*
X0085695Y0139301D01*
X0085640Y0139292D01*
X0085584Y0139286D01*
X0085528Y0139284D01*
X0085528Y0142678D02*
X0086350Y0143706D01*
X0082650Y0143706D01*
X0082650Y0142678D02*
X0082650Y0144734D01*
X0082650Y0147306D02*
X0086350Y0148334D01*
X0086350Y0146278D01*
X0085939Y0146278D01*
X0086350Y0133678D02*
X0086350Y0132650D01*
X0082650Y0132650D01*
X0082650Y0133678D01*
X0082652Y0133741D01*
X0082658Y0133804D01*
X0082668Y0133867D01*
X0082681Y0133929D01*
X0082698Y0133990D01*
X0082719Y0134049D01*
X0082744Y0134108D01*
X0082772Y0134164D01*
X0082804Y0134219D01*
X0082839Y0134272D01*
X0082877Y0134322D01*
X0082918Y0134371D01*
X0082962Y0134416D01*
X0083009Y0134459D01*
X0083058Y0134498D01*
X0083110Y0134535D01*
X0083164Y0134568D01*
X0083220Y0134598D01*
X0083277Y0134625D01*
X0083336Y0134648D01*
X0083397Y0134667D01*
X0083458Y0134682D01*
X0083520Y0134694D01*
X0083583Y0134702D01*
X0083646Y0134706D01*
X0083710Y0134706D01*
X0083773Y0134702D01*
X0083836Y0134694D01*
X0083898Y0134682D01*
X0083959Y0134667D01*
X0084020Y0134648D01*
X0084079Y0134625D01*
X0084136Y0134598D01*
X0084192Y0134568D01*
X0084246Y0134535D01*
X0084298Y0134498D01*
X0084347Y0134459D01*
X0084394Y0134416D01*
X0084438Y0134371D01*
X0084479Y0134322D01*
X0084517Y0134272D01*
X0084552Y0134219D01*
X0084584Y0134164D01*
X0084612Y0134108D01*
X0084637Y0134049D01*
X0084658Y0133990D01*
X0084675Y0133929D01*
X0084688Y0133867D01*
X0084698Y0133804D01*
X0084704Y0133741D01*
X0084706Y0133678D01*
X0084706Y0132650D01*
X0084706Y0133678D02*
X0084708Y0133734D01*
X0084714Y0133790D01*
X0084723Y0133845D01*
X0084736Y0133900D01*
X0084753Y0133953D01*
X0084774Y0134005D01*
X0084798Y0134056D01*
X0084826Y0134105D01*
X0084856Y0134152D01*
X0084890Y0134197D01*
X0084927Y0134239D01*
X0084967Y0134279D01*
X0085009Y0134316D01*
X0085054Y0134350D01*
X0085101Y0134380D01*
X0085150Y0134408D01*
X0085201Y0134432D01*
X0085253Y0134453D01*
X0085306Y0134470D01*
X0085361Y0134483D01*
X0085416Y0134492D01*
X0085472Y0134498D01*
X0085528Y0134500D01*
X0085584Y0134498D01*
X0085640Y0134492D01*
X0085695Y0134483D01*
X0085750Y0134470D01*
X0085803Y0134453D01*
X0085855Y0134432D01*
X0085906Y0134408D01*
X0085955Y0134380D01*
X0086002Y0134350D01*
X0086047Y0134316D01*
X0086089Y0134279D01*
X0086129Y0134239D01*
X0086166Y0134197D01*
X0086200Y0134152D01*
X0086230Y0134105D01*
X0086258Y0134056D01*
X0086282Y0134005D01*
X0086303Y0133953D01*
X0086320Y0133900D01*
X0086333Y0133845D01*
X0086342Y0133790D01*
X0086348Y0133734D01*
X0086350Y0133678D01*
X0063850Y0138678D02*
X0060150Y0138678D01*
X0060150Y0137650D02*
X0060150Y0139706D01*
X0060664Y0142997D02*
X0060760Y0143042D01*
X0060858Y0143083D01*
X0060958Y0143121D01*
X0061058Y0143156D01*
X0061160Y0143187D01*
X0061263Y0143215D01*
X0061366Y0143238D01*
X0061471Y0143259D01*
X0061576Y0143275D01*
X0061681Y0143288D01*
X0061787Y0143298D01*
X0061894Y0143303D01*
X0062000Y0143305D01*
X0062000Y0141250D02*
X0062106Y0141252D01*
X0062213Y0141257D01*
X0062319Y0141267D01*
X0062424Y0141280D01*
X0062529Y0141296D01*
X0062634Y0141317D01*
X0062737Y0141340D01*
X0062840Y0141368D01*
X0062942Y0141399D01*
X0063042Y0141434D01*
X0063142Y0141472D01*
X0063240Y0141513D01*
X0063336Y0141558D01*
X0063850Y0142278D02*
X0063848Y0142330D01*
X0063843Y0142383D01*
X0063834Y0142434D01*
X0063821Y0142485D01*
X0063805Y0142535D01*
X0063786Y0142584D01*
X0063763Y0142631D01*
X0063737Y0142677D01*
X0063708Y0142720D01*
X0063676Y0142762D01*
X0063642Y0142801D01*
X0063604Y0142838D01*
X0063564Y0142872D01*
X0063522Y0142904D01*
X0063478Y0142932D01*
X0063432Y0142957D01*
X0063385Y0142979D01*
X0063336Y0142998D01*
X0063028Y0143100D02*
X0060972Y0141456D01*
X0060150Y0142278D02*
X0060152Y0142330D01*
X0060157Y0142383D01*
X0060166Y0142434D01*
X0060179Y0142485D01*
X0060195Y0142535D01*
X0060214Y0142584D01*
X0060237Y0142631D01*
X0060263Y0142677D01*
X0060292Y0142720D01*
X0060324Y0142762D01*
X0060358Y0142801D01*
X0060396Y0142838D01*
X0060436Y0142872D01*
X0060478Y0142904D01*
X0060522Y0142932D01*
X0060568Y0142957D01*
X0060615Y0142979D01*
X0060664Y0142998D01*
X0060150Y0142278D02*
X0060152Y0142226D01*
X0060157Y0142173D01*
X0060166Y0142122D01*
X0060179Y0142071D01*
X0060195Y0142021D01*
X0060214Y0141972D01*
X0060237Y0141925D01*
X0060263Y0141879D01*
X0060292Y0141836D01*
X0060324Y0141794D01*
X0060358Y0141755D01*
X0060396Y0141718D01*
X0060436Y0141684D01*
X0060478Y0141652D01*
X0060522Y0141624D01*
X0060568Y0141599D01*
X0060615Y0141577D01*
X0060664Y0141558D01*
X0062000Y0143305D02*
X0062106Y0143303D01*
X0062213Y0143298D01*
X0062319Y0143288D01*
X0062424Y0143275D01*
X0062529Y0143259D01*
X0062634Y0143238D01*
X0062737Y0143215D01*
X0062840Y0143187D01*
X0062942Y0143156D01*
X0063042Y0143121D01*
X0063142Y0143083D01*
X0063240Y0143042D01*
X0063336Y0142997D01*
X0063850Y0142278D02*
X0063848Y0142226D01*
X0063843Y0142173D01*
X0063834Y0142122D01*
X0063821Y0142071D01*
X0063805Y0142021D01*
X0063786Y0141972D01*
X0063763Y0141925D01*
X0063737Y0141879D01*
X0063708Y0141836D01*
X0063676Y0141794D01*
X0063642Y0141755D01*
X0063604Y0141718D01*
X0063564Y0141684D01*
X0063522Y0141652D01*
X0063478Y0141624D01*
X0063432Y0141599D01*
X0063385Y0141577D01*
X0063336Y0141558D01*
X0062000Y0141250D02*
X0061894Y0141252D01*
X0061787Y0141257D01*
X0061681Y0141267D01*
X0061576Y0141280D01*
X0061471Y0141296D01*
X0061366Y0141317D01*
X0061263Y0141340D01*
X0061160Y0141368D01*
X0061058Y0141399D01*
X0060958Y0141434D01*
X0060858Y0141472D01*
X0060760Y0141513D01*
X0060664Y0141558D01*
X0060150Y0145022D02*
X0063850Y0145022D01*
X0062411Y0145844D02*
X0060150Y0147077D01*
X0061589Y0145022D02*
X0063850Y0147077D01*
X0063850Y0138678D02*
X0063028Y0137650D01*
X0046350Y0137713D02*
X0046350Y0136890D01*
X0046348Y0136834D01*
X0046342Y0136778D01*
X0046333Y0136723D01*
X0046320Y0136668D01*
X0046303Y0136615D01*
X0046282Y0136563D01*
X0046258Y0136512D01*
X0046230Y0136463D01*
X0046200Y0136416D01*
X0046166Y0136371D01*
X0046129Y0136329D01*
X0046089Y0136289D01*
X0046047Y0136252D01*
X0046002Y0136218D01*
X0045955Y0136188D01*
X0045906Y0136160D01*
X0045855Y0136136D01*
X0045803Y0136115D01*
X0045750Y0136098D01*
X0045695Y0136085D01*
X0045640Y0136076D01*
X0045584Y0136070D01*
X0045528Y0136068D01*
X0043472Y0136068D01*
X0043416Y0136070D01*
X0043360Y0136076D01*
X0043305Y0136085D01*
X0043250Y0136098D01*
X0043197Y0136115D01*
X0043145Y0136136D01*
X0043094Y0136160D01*
X0043045Y0136188D01*
X0042998Y0136218D01*
X0042953Y0136252D01*
X0042911Y0136289D01*
X0042871Y0136329D01*
X0042834Y0136371D01*
X0042800Y0136416D01*
X0042770Y0136463D01*
X0042742Y0136512D01*
X0042718Y0136563D01*
X0042697Y0136615D01*
X0042680Y0136668D01*
X0042667Y0136723D01*
X0042658Y0136778D01*
X0042652Y0136834D01*
X0042650Y0136890D01*
X0042650Y0137713D01*
X0043678Y0139078D02*
X0043615Y0139080D01*
X0043552Y0139086D01*
X0043489Y0139096D01*
X0043427Y0139109D01*
X0043366Y0139126D01*
X0043307Y0139147D01*
X0043248Y0139172D01*
X0043192Y0139200D01*
X0043137Y0139232D01*
X0043084Y0139267D01*
X0043034Y0139305D01*
X0042985Y0139346D01*
X0042940Y0139390D01*
X0042897Y0139437D01*
X0042858Y0139486D01*
X0042821Y0139538D01*
X0042788Y0139592D01*
X0042758Y0139648D01*
X0042731Y0139705D01*
X0042708Y0139764D01*
X0042689Y0139825D01*
X0042674Y0139886D01*
X0042662Y0139948D01*
X0042654Y0140011D01*
X0042650Y0140074D01*
X0042650Y0140138D01*
X0042654Y0140201D01*
X0042662Y0140264D01*
X0042674Y0140326D01*
X0042689Y0140387D01*
X0042708Y0140448D01*
X0042731Y0140507D01*
X0042758Y0140564D01*
X0042788Y0140620D01*
X0042821Y0140674D01*
X0042858Y0140726D01*
X0042897Y0140775D01*
X0042940Y0140822D01*
X0042985Y0140866D01*
X0043034Y0140907D01*
X0043084Y0140945D01*
X0043137Y0140980D01*
X0043192Y0141012D01*
X0043248Y0141040D01*
X0043307Y0141065D01*
X0043366Y0141086D01*
X0043427Y0141103D01*
X0043489Y0141116D01*
X0043552Y0141126D01*
X0043615Y0141132D01*
X0043678Y0141134D01*
X0043741Y0141132D01*
X0043804Y0141126D01*
X0043867Y0141116D01*
X0043929Y0141103D01*
X0043990Y0141086D01*
X0044049Y0141065D01*
X0044108Y0141040D01*
X0044164Y0141012D01*
X0044219Y0140980D01*
X0044272Y0140945D01*
X0044322Y0140907D01*
X0044371Y0140866D01*
X0044416Y0140822D01*
X0044459Y0140775D01*
X0044498Y0140726D01*
X0044535Y0140674D01*
X0044568Y0140620D01*
X0044598Y0140564D01*
X0044625Y0140507D01*
X0044648Y0140448D01*
X0044667Y0140387D01*
X0044682Y0140326D01*
X0044694Y0140264D01*
X0044702Y0140201D01*
X0044706Y0140138D01*
X0044706Y0140074D01*
X0044702Y0140011D01*
X0044694Y0139948D01*
X0044682Y0139886D01*
X0044667Y0139825D01*
X0044648Y0139764D01*
X0044625Y0139705D01*
X0044598Y0139648D01*
X0044568Y0139592D01*
X0044535Y0139538D01*
X0044498Y0139486D01*
X0044459Y0139437D01*
X0044416Y0139390D01*
X0044371Y0139346D01*
X0044322Y0139305D01*
X0044272Y0139267D01*
X0044219Y0139232D01*
X0044164Y0139200D01*
X0044108Y0139172D01*
X0044049Y0139147D01*
X0043990Y0139126D01*
X0043929Y0139109D01*
X0043867Y0139096D01*
X0043804Y0139086D01*
X0043741Y0139080D01*
X0043678Y0139078D01*
X0045528Y0139284D02*
X0045472Y0139286D01*
X0045416Y0139292D01*
X0045361Y0139301D01*
X0045306Y0139314D01*
X0045253Y0139331D01*
X0045201Y0139352D01*
X0045150Y0139376D01*
X0045101Y0139404D01*
X0045054Y0139434D01*
X0045009Y0139468D01*
X0044967Y0139505D01*
X0044927Y0139545D01*
X0044890Y0139587D01*
X0044856Y0139632D01*
X0044826Y0139679D01*
X0044798Y0139728D01*
X0044774Y0139779D01*
X0044753Y0139831D01*
X0044736Y0139884D01*
X0044723Y0139939D01*
X0044714Y0139994D01*
X0044708Y0140050D01*
X0044706Y0140106D01*
X0044708Y0140162D01*
X0044714Y0140218D01*
X0044723Y0140273D01*
X0044736Y0140328D01*
X0044753Y0140381D01*
X0044774Y0140433D01*
X0044798Y0140484D01*
X0044826Y0140533D01*
X0044856Y0140580D01*
X0044890Y0140625D01*
X0044927Y0140667D01*
X0044967Y0140707D01*
X0045009Y0140744D01*
X0045054Y0140778D01*
X0045101Y0140808D01*
X0045150Y0140836D01*
X0045201Y0140860D01*
X0045253Y0140881D01*
X0045306Y0140898D01*
X0045361Y0140911D01*
X0045416Y0140920D01*
X0045472Y0140926D01*
X0045528Y0140928D01*
X0045584Y0140926D01*
X0045640Y0140920D01*
X0045695Y0140911D01*
X0045750Y0140898D01*
X0045803Y0140881D01*
X0045855Y0140860D01*
X0045906Y0140836D01*
X0045955Y0140808D01*
X0046002Y0140778D01*
X0046047Y0140744D01*
X0046089Y0140707D01*
X0046129Y0140667D01*
X0046166Y0140625D01*
X0046200Y0140580D01*
X0046230Y0140533D01*
X0046258Y0140484D01*
X0046282Y0140433D01*
X0046303Y0140381D01*
X0046320Y0140328D01*
X0046333Y0140273D01*
X0046342Y0140218D01*
X0046348Y0140162D01*
X0046350Y0140106D01*
X0046348Y0140050D01*
X0046342Y0139994D01*
X0046333Y0139939D01*
X0046320Y0139884D01*
X0046303Y0139831D01*
X0046282Y0139779D01*
X0046258Y0139728D01*
X0046230Y0139679D01*
X0046200Y0139632D01*
X0046166Y0139587D01*
X0046129Y0139545D01*
X0046089Y0139505D01*
X0046047Y0139468D01*
X0046002Y0139434D01*
X0045955Y0139404D01*
X0045906Y0139376D01*
X0045855Y0139352D01*
X0045803Y0139331D01*
X0045750Y0139314D01*
X0045695Y0139301D01*
X0045640Y0139292D01*
X0045584Y0139286D01*
X0045528Y0139284D01*
X0045528Y0142678D02*
X0046350Y0143706D01*
X0042650Y0143706D01*
X0042650Y0142678D02*
X0042650Y0144734D01*
X0042650Y0147306D02*
X0046350Y0148334D01*
X0046350Y0146278D01*
X0045939Y0146278D01*
X0046350Y0133678D02*
X0046350Y0132650D01*
X0042650Y0132650D01*
X0042650Y0133678D01*
X0042652Y0133741D01*
X0042658Y0133804D01*
X0042668Y0133867D01*
X0042681Y0133929D01*
X0042698Y0133990D01*
X0042719Y0134049D01*
X0042744Y0134108D01*
X0042772Y0134164D01*
X0042804Y0134219D01*
X0042839Y0134272D01*
X0042877Y0134322D01*
X0042918Y0134371D01*
X0042962Y0134416D01*
X0043009Y0134459D01*
X0043058Y0134498D01*
X0043110Y0134535D01*
X0043164Y0134568D01*
X0043220Y0134598D01*
X0043277Y0134625D01*
X0043336Y0134648D01*
X0043397Y0134667D01*
X0043458Y0134682D01*
X0043520Y0134694D01*
X0043583Y0134702D01*
X0043646Y0134706D01*
X0043710Y0134706D01*
X0043773Y0134702D01*
X0043836Y0134694D01*
X0043898Y0134682D01*
X0043959Y0134667D01*
X0044020Y0134648D01*
X0044079Y0134625D01*
X0044136Y0134598D01*
X0044192Y0134568D01*
X0044246Y0134535D01*
X0044298Y0134498D01*
X0044347Y0134459D01*
X0044394Y0134416D01*
X0044438Y0134371D01*
X0044479Y0134322D01*
X0044517Y0134272D01*
X0044552Y0134219D01*
X0044584Y0134164D01*
X0044612Y0134108D01*
X0044637Y0134049D01*
X0044658Y0133990D01*
X0044675Y0133929D01*
X0044688Y0133867D01*
X0044698Y0133804D01*
X0044704Y0133741D01*
X0044706Y0133678D01*
X0044706Y0132650D01*
X0044706Y0133678D02*
X0044708Y0133734D01*
X0044714Y0133790D01*
X0044723Y0133845D01*
X0044736Y0133900D01*
X0044753Y0133953D01*
X0044774Y0134005D01*
X0044798Y0134056D01*
X0044826Y0134105D01*
X0044856Y0134152D01*
X0044890Y0134197D01*
X0044927Y0134239D01*
X0044967Y0134279D01*
X0045009Y0134316D01*
X0045054Y0134350D01*
X0045101Y0134380D01*
X0045150Y0134408D01*
X0045201Y0134432D01*
X0045253Y0134453D01*
X0045306Y0134470D01*
X0045361Y0134483D01*
X0045416Y0134492D01*
X0045472Y0134498D01*
X0045528Y0134500D01*
X0045584Y0134498D01*
X0045640Y0134492D01*
X0045695Y0134483D01*
X0045750Y0134470D01*
X0045803Y0134453D01*
X0045855Y0134432D01*
X0045906Y0134408D01*
X0045955Y0134380D01*
X0046002Y0134350D01*
X0046047Y0134316D01*
X0046089Y0134279D01*
X0046129Y0134239D01*
X0046166Y0134197D01*
X0046200Y0134152D01*
X0046230Y0134105D01*
X0046258Y0134056D01*
X0046282Y0134005D01*
X0046303Y0133953D01*
X0046320Y0133900D01*
X0046333Y0133845D01*
X0046342Y0133790D01*
X0046348Y0133734D01*
X0046350Y0133678D01*
X0032000Y0104850D02*
X0031894Y0104852D01*
X0031787Y0104857D01*
X0031681Y0104867D01*
X0031576Y0104880D01*
X0031471Y0104896D01*
X0031366Y0104917D01*
X0031263Y0104940D01*
X0031160Y0104968D01*
X0031058Y0104999D01*
X0030958Y0105034D01*
X0030858Y0105072D01*
X0030760Y0105113D01*
X0030664Y0105158D01*
X0030972Y0105056D02*
X0033028Y0106700D01*
X0033336Y0106598D02*
X0033385Y0106579D01*
X0033432Y0106557D01*
X0033478Y0106532D01*
X0033522Y0106504D01*
X0033564Y0106472D01*
X0033604Y0106438D01*
X0033642Y0106401D01*
X0033676Y0106362D01*
X0033708Y0106320D01*
X0033737Y0106277D01*
X0033763Y0106231D01*
X0033786Y0106184D01*
X0033805Y0106135D01*
X0033821Y0106085D01*
X0033834Y0106034D01*
X0033843Y0105983D01*
X0033848Y0105930D01*
X0033850Y0105878D01*
X0033848Y0105826D01*
X0033843Y0105773D01*
X0033834Y0105722D01*
X0033821Y0105671D01*
X0033805Y0105621D01*
X0033786Y0105572D01*
X0033763Y0105525D01*
X0033737Y0105479D01*
X0033708Y0105436D01*
X0033676Y0105394D01*
X0033642Y0105355D01*
X0033604Y0105318D01*
X0033564Y0105284D01*
X0033522Y0105252D01*
X0033478Y0105224D01*
X0033432Y0105199D01*
X0033385Y0105177D01*
X0033336Y0105158D01*
X0033336Y0106597D02*
X0033240Y0106642D01*
X0033142Y0106683D01*
X0033042Y0106721D01*
X0032942Y0106756D01*
X0032840Y0106787D01*
X0032737Y0106815D01*
X0032634Y0106838D01*
X0032529Y0106859D01*
X0032424Y0106875D01*
X0032319Y0106888D01*
X0032213Y0106898D01*
X0032106Y0106903D01*
X0032000Y0106905D01*
X0032000Y0104850D02*
X0032106Y0104852D01*
X0032213Y0104857D01*
X0032319Y0104867D01*
X0032424Y0104880D01*
X0032529Y0104896D01*
X0032634Y0104917D01*
X0032737Y0104940D01*
X0032840Y0104968D01*
X0032942Y0104999D01*
X0033042Y0105034D01*
X0033142Y0105072D01*
X0033240Y0105113D01*
X0033336Y0105158D01*
X0032000Y0106905D02*
X0031894Y0106903D01*
X0031787Y0106898D01*
X0031681Y0106888D01*
X0031576Y0106875D01*
X0031471Y0106859D01*
X0031366Y0106838D01*
X0031263Y0106815D01*
X0031160Y0106787D01*
X0031058Y0106756D01*
X0030958Y0106721D01*
X0030858Y0106683D01*
X0030760Y0106642D01*
X0030664Y0106597D01*
X0030664Y0106598D02*
X0030615Y0106579D01*
X0030568Y0106557D01*
X0030522Y0106532D01*
X0030478Y0106504D01*
X0030436Y0106472D01*
X0030396Y0106438D01*
X0030358Y0106401D01*
X0030324Y0106362D01*
X0030292Y0106320D01*
X0030263Y0106277D01*
X0030237Y0106231D01*
X0030214Y0106184D01*
X0030195Y0106135D01*
X0030179Y0106085D01*
X0030166Y0106034D01*
X0030157Y0105983D01*
X0030152Y0105930D01*
X0030150Y0105878D01*
X0030152Y0105826D01*
X0030157Y0105773D01*
X0030166Y0105722D01*
X0030179Y0105671D01*
X0030195Y0105621D01*
X0030214Y0105572D01*
X0030237Y0105525D01*
X0030263Y0105479D01*
X0030292Y0105436D01*
X0030324Y0105394D01*
X0030358Y0105355D01*
X0030396Y0105318D01*
X0030436Y0105284D01*
X0030478Y0105252D01*
X0030522Y0105224D01*
X0030568Y0105199D01*
X0030615Y0105177D01*
X0030664Y0105158D01*
X0030150Y0103306D02*
X0030150Y0101250D01*
X0032206Y0102997D01*
X0033850Y0102381D02*
X0033848Y0102313D01*
X0033842Y0102245D01*
X0033833Y0102178D01*
X0033819Y0102112D01*
X0033802Y0102046D01*
X0033781Y0101981D01*
X0033756Y0101918D01*
X0033728Y0101856D01*
X0033696Y0101796D01*
X0033661Y0101738D01*
X0033623Y0101682D01*
X0033581Y0101629D01*
X0033537Y0101577D01*
X0033489Y0101529D01*
X0033439Y0101483D01*
X0033387Y0101440D01*
X0033332Y0101400D01*
X0033275Y0101363D01*
X0033216Y0101330D01*
X0033155Y0101300D01*
X0033092Y0101274D01*
X0033028Y0101251D01*
X0032205Y0102998D02*
X0032249Y0103041D01*
X0032296Y0103082D01*
X0032345Y0103119D01*
X0032396Y0103154D01*
X0032450Y0103185D01*
X0032505Y0103213D01*
X0032562Y0103237D01*
X0032620Y0103258D01*
X0032680Y0103275D01*
X0032740Y0103289D01*
X0032801Y0103298D01*
X0032863Y0103304D01*
X0032925Y0103306D01*
X0032983Y0103304D01*
X0033041Y0103299D01*
X0033098Y0103290D01*
X0033155Y0103277D01*
X0033211Y0103261D01*
X0033266Y0103241D01*
X0033319Y0103218D01*
X0033371Y0103192D01*
X0033421Y0103162D01*
X0033469Y0103129D01*
X0033515Y0103094D01*
X0033558Y0103055D01*
X0033599Y0103014D01*
X0033638Y0102971D01*
X0033673Y0102925D01*
X0033706Y0102877D01*
X0033736Y0102827D01*
X0033762Y0102775D01*
X0033785Y0102722D01*
X0033805Y0102667D01*
X0033821Y0102611D01*
X0033834Y0102554D01*
X0033843Y0102497D01*
X0033848Y0102439D01*
X0033850Y0102381D01*
X0032206Y0099397D02*
X0030150Y0097650D01*
X0030150Y0099706D01*
X0033028Y0097651D02*
X0033092Y0097674D01*
X0033155Y0097700D01*
X0033216Y0097730D01*
X0033275Y0097763D01*
X0033332Y0097800D01*
X0033387Y0097840D01*
X0033439Y0097883D01*
X0033489Y0097929D01*
X0033537Y0097977D01*
X0033581Y0098029D01*
X0033623Y0098082D01*
X0033661Y0098138D01*
X0033696Y0098196D01*
X0033728Y0098256D01*
X0033756Y0098318D01*
X0033781Y0098381D01*
X0033802Y0098446D01*
X0033819Y0098512D01*
X0033833Y0098578D01*
X0033842Y0098645D01*
X0033848Y0098713D01*
X0033850Y0098781D01*
X0033848Y0098839D01*
X0033843Y0098897D01*
X0033834Y0098954D01*
X0033821Y0099011D01*
X0033805Y0099067D01*
X0033785Y0099122D01*
X0033762Y0099175D01*
X0033736Y0099227D01*
X0033706Y0099277D01*
X0033673Y0099325D01*
X0033638Y0099371D01*
X0033599Y0099414D01*
X0033558Y0099455D01*
X0033515Y0099494D01*
X0033469Y0099529D01*
X0033421Y0099562D01*
X0033371Y0099592D01*
X0033319Y0099618D01*
X0033266Y0099641D01*
X0033211Y0099661D01*
X0033155Y0099677D01*
X0033098Y0099690D01*
X0033041Y0099699D01*
X0032983Y0099704D01*
X0032925Y0099706D01*
X0032863Y0099704D01*
X0032801Y0099698D01*
X0032740Y0099689D01*
X0032680Y0099675D01*
X0032620Y0099658D01*
X0032562Y0099637D01*
X0032505Y0099613D01*
X0032450Y0099585D01*
X0032396Y0099554D01*
X0032345Y0099519D01*
X0032296Y0099482D01*
X0032249Y0099441D01*
X0032205Y0099398D01*
X0060150Y0088477D02*
X0062411Y0087244D01*
X0061589Y0086422D02*
X0063850Y0088477D01*
X0063850Y0086422D02*
X0060150Y0086422D01*
X0060150Y0084706D02*
X0060150Y0082650D01*
X0060150Y0083678D02*
X0063850Y0083678D01*
X0063028Y0082650D01*
X0070150Y0097650D02*
X0070150Y0099706D01*
X0070150Y0101250D02*
X0070150Y0103306D01*
X0070664Y0106597D02*
X0070760Y0106642D01*
X0070858Y0106683D01*
X0070958Y0106721D01*
X0071058Y0106756D01*
X0071160Y0106787D01*
X0071263Y0106815D01*
X0071366Y0106838D01*
X0071471Y0106859D01*
X0071576Y0106875D01*
X0071681Y0106888D01*
X0071787Y0106898D01*
X0071894Y0106903D01*
X0072000Y0106905D01*
X0072000Y0104850D02*
X0072106Y0104852D01*
X0072213Y0104857D01*
X0072319Y0104867D01*
X0072424Y0104880D01*
X0072529Y0104896D01*
X0072634Y0104917D01*
X0072737Y0104940D01*
X0072840Y0104968D01*
X0072942Y0104999D01*
X0073042Y0105034D01*
X0073142Y0105072D01*
X0073240Y0105113D01*
X0073336Y0105158D01*
X0073850Y0105878D02*
X0073848Y0105930D01*
X0073843Y0105983D01*
X0073834Y0106034D01*
X0073821Y0106085D01*
X0073805Y0106135D01*
X0073786Y0106184D01*
X0073763Y0106231D01*
X0073737Y0106277D01*
X0073708Y0106320D01*
X0073676Y0106362D01*
X0073642Y0106401D01*
X0073604Y0106438D01*
X0073564Y0106472D01*
X0073522Y0106504D01*
X0073478Y0106532D01*
X0073432Y0106557D01*
X0073385Y0106579D01*
X0073336Y0106598D01*
X0073028Y0106700D02*
X0070972Y0105056D01*
X0070150Y0105878D02*
X0070152Y0105930D01*
X0070157Y0105983D01*
X0070166Y0106034D01*
X0070179Y0106085D01*
X0070195Y0106135D01*
X0070214Y0106184D01*
X0070237Y0106231D01*
X0070263Y0106277D01*
X0070292Y0106320D01*
X0070324Y0106362D01*
X0070358Y0106401D01*
X0070396Y0106438D01*
X0070436Y0106472D01*
X0070478Y0106504D01*
X0070522Y0106532D01*
X0070568Y0106557D01*
X0070615Y0106579D01*
X0070664Y0106598D01*
X0070150Y0105878D02*
X0070152Y0105826D01*
X0070157Y0105773D01*
X0070166Y0105722D01*
X0070179Y0105671D01*
X0070195Y0105621D01*
X0070214Y0105572D01*
X0070237Y0105525D01*
X0070263Y0105479D01*
X0070292Y0105436D01*
X0070324Y0105394D01*
X0070358Y0105355D01*
X0070396Y0105318D01*
X0070436Y0105284D01*
X0070478Y0105252D01*
X0070522Y0105224D01*
X0070568Y0105199D01*
X0070615Y0105177D01*
X0070664Y0105158D01*
X0072000Y0106905D02*
X0072106Y0106903D01*
X0072213Y0106898D01*
X0072319Y0106888D01*
X0072424Y0106875D01*
X0072529Y0106859D01*
X0072634Y0106838D01*
X0072737Y0106815D01*
X0072840Y0106787D01*
X0072942Y0106756D01*
X0073042Y0106721D01*
X0073142Y0106683D01*
X0073240Y0106642D01*
X0073336Y0106597D01*
X0073850Y0105878D02*
X0073848Y0105826D01*
X0073843Y0105773D01*
X0073834Y0105722D01*
X0073821Y0105671D01*
X0073805Y0105621D01*
X0073786Y0105572D01*
X0073763Y0105525D01*
X0073737Y0105479D01*
X0073708Y0105436D01*
X0073676Y0105394D01*
X0073642Y0105355D01*
X0073604Y0105318D01*
X0073564Y0105284D01*
X0073522Y0105252D01*
X0073478Y0105224D01*
X0073432Y0105199D01*
X0073385Y0105177D01*
X0073336Y0105158D01*
X0072206Y0102997D02*
X0070150Y0101250D01*
X0073028Y0101251D02*
X0073092Y0101274D01*
X0073155Y0101300D01*
X0073216Y0101330D01*
X0073275Y0101363D01*
X0073332Y0101400D01*
X0073387Y0101440D01*
X0073439Y0101483D01*
X0073489Y0101529D01*
X0073537Y0101577D01*
X0073581Y0101629D01*
X0073623Y0101682D01*
X0073661Y0101738D01*
X0073696Y0101796D01*
X0073728Y0101856D01*
X0073756Y0101918D01*
X0073781Y0101981D01*
X0073802Y0102046D01*
X0073819Y0102112D01*
X0073833Y0102178D01*
X0073842Y0102245D01*
X0073848Y0102313D01*
X0073850Y0102381D01*
X0073848Y0102439D01*
X0073843Y0102497D01*
X0073834Y0102554D01*
X0073821Y0102611D01*
X0073805Y0102667D01*
X0073785Y0102722D01*
X0073762Y0102775D01*
X0073736Y0102827D01*
X0073706Y0102877D01*
X0073673Y0102925D01*
X0073638Y0102971D01*
X0073599Y0103014D01*
X0073558Y0103055D01*
X0073515Y0103094D01*
X0073469Y0103129D01*
X0073421Y0103162D01*
X0073371Y0103192D01*
X0073319Y0103218D01*
X0073266Y0103241D01*
X0073211Y0103261D01*
X0073155Y0103277D01*
X0073098Y0103290D01*
X0073041Y0103299D01*
X0072983Y0103304D01*
X0072925Y0103306D01*
X0072863Y0103304D01*
X0072801Y0103298D01*
X0072740Y0103289D01*
X0072680Y0103275D01*
X0072620Y0103258D01*
X0072562Y0103237D01*
X0072505Y0103213D01*
X0072450Y0103185D01*
X0072396Y0103154D01*
X0072345Y0103119D01*
X0072296Y0103082D01*
X0072249Y0103041D01*
X0072205Y0102998D01*
X0072206Y0099397D02*
X0070150Y0097650D01*
X0073028Y0097651D02*
X0073092Y0097674D01*
X0073155Y0097700D01*
X0073216Y0097730D01*
X0073275Y0097763D01*
X0073332Y0097800D01*
X0073387Y0097840D01*
X0073439Y0097883D01*
X0073489Y0097929D01*
X0073537Y0097977D01*
X0073581Y0098029D01*
X0073623Y0098082D01*
X0073661Y0098138D01*
X0073696Y0098196D01*
X0073728Y0098256D01*
X0073756Y0098318D01*
X0073781Y0098381D01*
X0073802Y0098446D01*
X0073819Y0098512D01*
X0073833Y0098578D01*
X0073842Y0098645D01*
X0073848Y0098713D01*
X0073850Y0098781D01*
X0073848Y0098839D01*
X0073843Y0098897D01*
X0073834Y0098954D01*
X0073821Y0099011D01*
X0073805Y0099067D01*
X0073785Y0099122D01*
X0073762Y0099175D01*
X0073736Y0099227D01*
X0073706Y0099277D01*
X0073673Y0099325D01*
X0073638Y0099371D01*
X0073599Y0099414D01*
X0073558Y0099455D01*
X0073515Y0099494D01*
X0073469Y0099529D01*
X0073421Y0099562D01*
X0073371Y0099592D01*
X0073319Y0099618D01*
X0073266Y0099641D01*
X0073211Y0099661D01*
X0073155Y0099677D01*
X0073098Y0099690D01*
X0073041Y0099699D01*
X0072983Y0099704D01*
X0072925Y0099706D01*
X0072863Y0099704D01*
X0072801Y0099698D01*
X0072740Y0099689D01*
X0072680Y0099675D01*
X0072620Y0099658D01*
X0072562Y0099637D01*
X0072505Y0099613D01*
X0072450Y0099585D01*
X0072396Y0099554D01*
X0072345Y0099519D01*
X0072296Y0099482D01*
X0072249Y0099441D01*
X0072205Y0099398D01*
X0072000Y0104850D02*
X0071894Y0104852D01*
X0071787Y0104857D01*
X0071681Y0104867D01*
X0071576Y0104880D01*
X0071471Y0104896D01*
X0071366Y0104917D01*
X0071263Y0104940D01*
X0071160Y0104968D01*
X0071058Y0104999D01*
X0070958Y0105034D01*
X0070858Y0105072D01*
X0070760Y0105113D01*
X0070664Y0105158D01*
X0048850Y0062077D02*
X0046589Y0060022D01*
X0045664Y0056558D02*
X0045760Y0056513D01*
X0045858Y0056472D01*
X0045958Y0056434D01*
X0046058Y0056399D01*
X0046160Y0056368D01*
X0046263Y0056340D01*
X0046366Y0056317D01*
X0046471Y0056296D01*
X0046576Y0056280D01*
X0046681Y0056267D01*
X0046787Y0056257D01*
X0046894Y0056252D01*
X0047000Y0056250D01*
X0047000Y0058305D02*
X0047106Y0058303D01*
X0047213Y0058298D01*
X0047319Y0058288D01*
X0047424Y0058275D01*
X0047529Y0058259D01*
X0047634Y0058238D01*
X0047737Y0058215D01*
X0047840Y0058187D01*
X0047942Y0058156D01*
X0048042Y0058121D01*
X0048142Y0058083D01*
X0048240Y0058042D01*
X0048336Y0057997D01*
X0048028Y0058100D02*
X0045972Y0056456D01*
X0045150Y0057278D02*
X0045152Y0057330D01*
X0045157Y0057383D01*
X0045166Y0057434D01*
X0045179Y0057485D01*
X0045195Y0057535D01*
X0045214Y0057584D01*
X0045237Y0057631D01*
X0045263Y0057677D01*
X0045292Y0057720D01*
X0045324Y0057762D01*
X0045358Y0057801D01*
X0045396Y0057838D01*
X0045436Y0057872D01*
X0045478Y0057904D01*
X0045522Y0057932D01*
X0045568Y0057957D01*
X0045615Y0057979D01*
X0045664Y0057998D01*
X0045150Y0057278D02*
X0045152Y0057226D01*
X0045157Y0057173D01*
X0045166Y0057122D01*
X0045179Y0057071D01*
X0045195Y0057021D01*
X0045214Y0056972D01*
X0045237Y0056925D01*
X0045263Y0056879D01*
X0045292Y0056836D01*
X0045324Y0056794D01*
X0045358Y0056755D01*
X0045396Y0056718D01*
X0045436Y0056684D01*
X0045478Y0056652D01*
X0045522Y0056624D01*
X0045568Y0056599D01*
X0045615Y0056577D01*
X0045664Y0056558D01*
X0045664Y0057997D02*
X0045760Y0058042D01*
X0045858Y0058083D01*
X0045958Y0058121D01*
X0046058Y0058156D01*
X0046160Y0058187D01*
X0046263Y0058215D01*
X0046366Y0058238D01*
X0046471Y0058259D01*
X0046576Y0058275D01*
X0046681Y0058288D01*
X0046787Y0058298D01*
X0046894Y0058303D01*
X0047000Y0058305D01*
X0047000Y0056250D02*
X0047106Y0056252D01*
X0047213Y0056257D01*
X0047319Y0056267D01*
X0047424Y0056280D01*
X0047529Y0056296D01*
X0047634Y0056317D01*
X0047737Y0056340D01*
X0047840Y0056368D01*
X0047942Y0056399D01*
X0048042Y0056434D01*
X0048142Y0056472D01*
X0048240Y0056513D01*
X0048336Y0056558D01*
X0048850Y0057278D02*
X0048848Y0057330D01*
X0048843Y0057383D01*
X0048834Y0057434D01*
X0048821Y0057485D01*
X0048805Y0057535D01*
X0048786Y0057584D01*
X0048763Y0057631D01*
X0048737Y0057677D01*
X0048708Y0057720D01*
X0048676Y0057762D01*
X0048642Y0057801D01*
X0048604Y0057838D01*
X0048564Y0057872D01*
X0048522Y0057904D01*
X0048478Y0057932D01*
X0048432Y0057957D01*
X0048385Y0057979D01*
X0048336Y0057998D01*
X0048850Y0057278D02*
X0048848Y0057226D01*
X0048843Y0057173D01*
X0048834Y0057122D01*
X0048821Y0057071D01*
X0048805Y0057021D01*
X0048786Y0056972D01*
X0048763Y0056925D01*
X0048737Y0056879D01*
X0048708Y0056836D01*
X0048676Y0056794D01*
X0048642Y0056755D01*
X0048604Y0056718D01*
X0048564Y0056684D01*
X0048522Y0056652D01*
X0048478Y0056624D01*
X0048432Y0056599D01*
X0048385Y0056577D01*
X0048336Y0056558D01*
X0048850Y0060022D02*
X0045150Y0060022D01*
X0045150Y0062077D02*
X0047411Y0060844D01*
X0045150Y0054706D02*
X0045150Y0052650D01*
X0045150Y0053678D02*
X0048850Y0053678D01*
X0048028Y0052650D01*
M02*
