G75*
%MOIN*%
%OFA0B0*%
%FSLAX25Y25*%
%IPPOS*%
%LPD*%
%AMOC8*
5,1,8,0,0,1.08239X$1,22.5*
%
%ADD10C,0.06000*%
%ADD11OC8,0.06600*%
%ADD12R,0.04724X0.04724*%
%ADD13R,0.05906X0.05118*%
%ADD14OC8,0.05600*%
%ADD15C,0.07400*%
%ADD16C,0.03200*%
%ADD17C,0.02400*%
%ADD18C,0.04000*%
D10*
X0040000Y0060000D03*
X0040000Y0070000D03*
X0040000Y0080000D03*
X0040000Y0090000D03*
X0080000Y0090000D03*
X0080000Y0080000D03*
X0080000Y0070000D03*
X0080000Y0060000D03*
X0120000Y0060000D03*
X0120000Y0070000D03*
X0120000Y0080000D03*
X0120000Y0090000D03*
X0160000Y0090000D03*
X0160000Y0080000D03*
X0160000Y0070000D03*
X0160000Y0060000D03*
X0050000Y0160000D03*
X0040000Y0160000D03*
X0030000Y0160000D03*
D11*
X0034000Y0205000D03*
X0024000Y0205000D03*
X0014000Y0205000D03*
X0044000Y0205000D03*
X0054000Y0205000D03*
X0064000Y0205000D03*
X0074000Y0205000D03*
X0084000Y0205000D03*
X0094000Y0205000D03*
X0104000Y0205000D03*
X0120000Y0205000D03*
X0130000Y0205000D03*
X0140000Y0205000D03*
X0150000Y0205000D03*
X0160000Y0205000D03*
X0170000Y0205000D03*
X0180000Y0205000D03*
X0190000Y0205000D03*
X0190000Y0015000D03*
X0180000Y0015000D03*
X0170000Y0015000D03*
X0160000Y0015000D03*
X0150000Y0015000D03*
X0140000Y0015000D03*
X0120000Y0015000D03*
X0110000Y0015000D03*
X0100000Y0015000D03*
X0090000Y0015000D03*
X0080000Y0015000D03*
X0070000Y0015000D03*
X0060000Y0015000D03*
X0050000Y0015000D03*
D12*
X0044134Y0135000D03*
X0044134Y0135000D03*
X0035866Y0135000D03*
X0035866Y0135000D03*
D13*
X0070000Y0141260D03*
X0070000Y0141260D03*
X0070000Y0148740D03*
X0070000Y0148740D03*
D14*
X0100000Y0155000D03*
X0100000Y0165000D03*
X0110000Y0165000D03*
X0110000Y0155000D03*
X0120000Y0155000D03*
X0120000Y0165000D03*
X0130000Y0165000D03*
X0130000Y0155000D03*
X0140000Y0155000D03*
X0140000Y0165000D03*
D15*
X0180000Y0190000D03*
X0190000Y0190000D03*
X0085000Y0190000D03*
X0075000Y0190000D03*
X0065000Y0190000D03*
X0055000Y0190000D03*
X0110000Y0030000D03*
X0120000Y0030000D03*
X0140000Y0030000D03*
X0150000Y0030000D03*
X0160000Y0030000D03*
X0170000Y0030000D03*
X0180000Y0030000D03*
X0190000Y0030000D03*
D16*
X0160000Y0070000D02*
X0160000Y0080000D01*
X0160000Y0070000D02*
X0120000Y0070000D01*
X0120000Y0080000D01*
X0120000Y0070000D02*
X0090000Y0070000D01*
X0090000Y0148740D01*
X0133740Y0148740D01*
X0140000Y0155000D01*
X0090000Y0148740D02*
X0070000Y0148740D01*
X0058740Y0160000D01*
X0050000Y0160000D01*
X0050394Y0141260D02*
X0070000Y0141260D01*
X0050394Y0141260D02*
X0044134Y0135000D01*
X0035866Y0135000D02*
X0030000Y0140866D01*
X0030000Y0160000D01*
X0040000Y0080000D02*
X0040000Y0070000D01*
X0080000Y0070000D01*
X0080000Y0080000D01*
X0080000Y0070000D02*
X0090000Y0070000D01*
X0090000Y0040000D01*
X0090000Y0015000D01*
D17*
X0032049Y0033906D02*
X0027644Y0036737D01*
X0027644Y0036737D01*
X0022619Y0038213D01*
X0017381Y0038213D01*
X0015000Y0037513D01*
X0015000Y0065000D01*
X0025000Y0075000D01*
X0025000Y0090000D01*
X0015000Y0100000D01*
X0015000Y0115000D01*
X0025000Y0125000D01*
X0025000Y0140000D01*
X0015000Y0150000D01*
X0015000Y0199300D01*
X0016361Y0199300D01*
X0019000Y0201939D01*
X0021639Y0199300D01*
X0026361Y0199300D01*
X0029000Y0201939D01*
X0031639Y0199300D01*
X0036361Y0199300D01*
X0039000Y0201939D01*
X0041639Y0199300D01*
X0046361Y0199300D01*
X0049000Y0201939D01*
X0051639Y0199300D01*
X0056361Y0199300D01*
X0059000Y0201939D01*
X0061639Y0199300D01*
X0066361Y0199300D01*
X0069000Y0201939D01*
X0071639Y0199300D01*
X0076361Y0199300D01*
X0079000Y0201939D01*
X0081639Y0199300D01*
X0086361Y0199300D01*
X0089000Y0201939D01*
X0091639Y0199300D01*
X0096361Y0199300D01*
X0099000Y0201939D01*
X0101639Y0199300D01*
X0106361Y0199300D01*
X0109700Y0202639D01*
X0109700Y0205000D01*
X0114300Y0205000D01*
X0114300Y0202639D01*
X0117639Y0199300D01*
X0122361Y0199300D01*
X0125000Y0201939D01*
X0127639Y0199300D01*
X0132361Y0199300D01*
X0135000Y0201939D01*
X0137639Y0199300D01*
X0142361Y0199300D01*
X0145000Y0201939D01*
X0147639Y0199300D01*
X0152361Y0199300D01*
X0155000Y0201939D01*
X0157639Y0199300D01*
X0162361Y0199300D01*
X0165000Y0201939D01*
X0167639Y0199300D01*
X0172361Y0199300D01*
X0175000Y0201939D01*
X0177639Y0199300D01*
X0182361Y0199300D01*
X0185000Y0201939D01*
X0187639Y0199300D01*
X0190000Y0199300D01*
X0190000Y0196100D01*
X0188787Y0196100D01*
X0186545Y0195171D01*
X0185000Y0193627D01*
X0183455Y0195171D01*
X0181213Y0196100D01*
X0178787Y0196100D01*
X0176545Y0195171D01*
X0174829Y0193455D01*
X0173900Y0191213D01*
X0173900Y0188787D01*
X0174829Y0186545D01*
X0176545Y0184829D01*
X0178787Y0183900D01*
X0181213Y0183900D01*
X0183455Y0184829D01*
X0185000Y0186373D01*
X0186545Y0184829D01*
X0188787Y0183900D01*
X0190000Y0183900D01*
X0190000Y0182513D01*
X0187619Y0183213D01*
X0182381Y0183213D01*
X0177356Y0181737D01*
X0172951Y0178906D01*
X0172951Y0178906D01*
X0169521Y0174948D01*
X0167345Y0170184D01*
X0166600Y0165000D01*
X0166600Y0165000D01*
X0167345Y0159816D01*
X0169521Y0155052D01*
X0172951Y0151094D01*
X0177356Y0148263D01*
X0177356Y0148263D01*
X0182381Y0146787D01*
X0187619Y0146787D01*
X0190000Y0147487D01*
X0190000Y0145000D01*
X0180000Y0135000D01*
X0180000Y0115000D01*
X0190000Y0105000D01*
X0190000Y0085000D01*
X0180000Y0075000D01*
X0180000Y0055000D01*
X0190000Y0045000D01*
X0190000Y0036100D01*
X0188787Y0036100D01*
X0186545Y0035171D01*
X0185000Y0033627D01*
X0183455Y0035171D01*
X0181213Y0036100D01*
X0178787Y0036100D01*
X0176545Y0035171D01*
X0175000Y0033627D01*
X0173455Y0035171D01*
X0171213Y0036100D01*
X0168787Y0036100D01*
X0166545Y0035171D01*
X0165000Y0033627D01*
X0163455Y0035171D01*
X0161213Y0036100D01*
X0158787Y0036100D01*
X0156545Y0035171D01*
X0155000Y0033627D01*
X0153455Y0035171D01*
X0151213Y0036100D01*
X0148787Y0036100D01*
X0146545Y0035171D01*
X0145000Y0033627D01*
X0143455Y0035171D01*
X0141213Y0036100D01*
X0138787Y0036100D01*
X0136545Y0035171D01*
X0134829Y0033455D01*
X0133900Y0031213D01*
X0133900Y0028787D01*
X0134829Y0026545D01*
X0136545Y0024829D01*
X0138787Y0023900D01*
X0141213Y0023900D01*
X0143455Y0024829D01*
X0145000Y0026373D01*
X0146545Y0024829D01*
X0148787Y0023900D01*
X0151213Y0023900D01*
X0153455Y0024829D01*
X0155000Y0026373D01*
X0156545Y0024829D01*
X0158787Y0023900D01*
X0161213Y0023900D01*
X0163455Y0024829D01*
X0165000Y0026373D01*
X0166545Y0024829D01*
X0168787Y0023900D01*
X0171213Y0023900D01*
X0173455Y0024829D01*
X0175000Y0026373D01*
X0176545Y0024829D01*
X0178787Y0023900D01*
X0181213Y0023900D01*
X0183455Y0024829D01*
X0185000Y0026373D01*
X0186545Y0024829D01*
X0188787Y0023900D01*
X0190000Y0023900D01*
X0190000Y0020700D01*
X0187639Y0020700D01*
X0185000Y0018061D01*
X0182361Y0020700D01*
X0177639Y0020700D01*
X0175000Y0018061D01*
X0172361Y0020700D01*
X0167639Y0020700D01*
X0165000Y0018061D01*
X0162361Y0020700D01*
X0157639Y0020700D01*
X0155000Y0018061D01*
X0152361Y0020700D01*
X0147639Y0020700D01*
X0145000Y0018061D01*
X0142361Y0020700D01*
X0137639Y0020700D01*
X0134300Y0017361D01*
X0134300Y0015000D01*
X0125700Y0015000D01*
X0125700Y0017361D01*
X0124400Y0018661D01*
X0124400Y0025773D01*
X0125171Y0026545D01*
X0126100Y0028787D01*
X0126100Y0031213D01*
X0125171Y0033455D01*
X0123455Y0035171D01*
X0121213Y0036100D01*
X0118787Y0036100D01*
X0116545Y0035171D01*
X0115000Y0033627D01*
X0113455Y0035171D01*
X0111213Y0036100D01*
X0108787Y0036100D01*
X0106545Y0035171D01*
X0104829Y0033455D01*
X0103900Y0031213D01*
X0103900Y0028787D01*
X0104829Y0026545D01*
X0106545Y0024829D01*
X0108787Y0023900D01*
X0111213Y0023900D01*
X0113455Y0024829D01*
X0115000Y0026373D01*
X0115600Y0025773D01*
X0115600Y0018661D01*
X0115000Y0018061D01*
X0112361Y0020700D01*
X0107639Y0020700D01*
X0105000Y0018061D01*
X0102361Y0020700D01*
X0097639Y0020700D01*
X0094859Y0017920D01*
X0092278Y0020500D01*
X0090000Y0020500D01*
X0090000Y0015000D01*
X0090000Y0015000D01*
X0090000Y0020500D01*
X0087722Y0020500D01*
X0085141Y0017920D01*
X0082361Y0020700D01*
X0077639Y0020700D01*
X0075000Y0018061D01*
X0072361Y0020700D01*
X0067639Y0020700D01*
X0065000Y0018061D01*
X0062361Y0020700D01*
X0057639Y0020700D01*
X0055000Y0018061D01*
X0052361Y0020700D01*
X0047639Y0020700D01*
X0044300Y0017361D01*
X0044300Y0015000D01*
X0037681Y0015000D01*
X0038400Y0020000D01*
X0037655Y0025184D01*
X0035479Y0029948D01*
X0032049Y0033906D01*
X0032049Y0033906D01*
X0032157Y0033782D02*
X0105155Y0033782D01*
X0103971Y0031384D02*
X0034235Y0031384D01*
X0035479Y0029948D02*
X0035479Y0029948D01*
X0035919Y0028985D02*
X0103900Y0028985D01*
X0104811Y0026587D02*
X0037014Y0026587D01*
X0037655Y0025184D02*
X0037655Y0025184D01*
X0037798Y0024188D02*
X0108091Y0024188D01*
X0111909Y0024188D02*
X0115600Y0024188D01*
X0115600Y0021790D02*
X0038143Y0021790D01*
X0038312Y0019391D02*
X0046330Y0019391D01*
X0044300Y0016993D02*
X0037968Y0016993D01*
X0053670Y0019391D02*
X0056330Y0019391D01*
X0063670Y0019391D02*
X0066330Y0019391D01*
X0073670Y0019391D02*
X0076330Y0019391D01*
X0083670Y0019391D02*
X0086613Y0019391D01*
X0090000Y0019391D02*
X0090000Y0019391D01*
X0090000Y0016993D02*
X0090000Y0016993D01*
X0093387Y0019391D02*
X0096330Y0019391D01*
X0103670Y0019391D02*
X0106330Y0019391D01*
X0113670Y0019391D02*
X0115600Y0019391D01*
X0124400Y0019391D02*
X0136330Y0019391D01*
X0134300Y0016993D02*
X0125700Y0016993D01*
X0124400Y0021790D02*
X0190000Y0021790D01*
X0188091Y0024188D02*
X0181909Y0024188D01*
X0178091Y0024188D02*
X0171909Y0024188D01*
X0168091Y0024188D02*
X0161909Y0024188D01*
X0158091Y0024188D02*
X0151909Y0024188D01*
X0148091Y0024188D02*
X0141909Y0024188D01*
X0138091Y0024188D02*
X0124400Y0024188D01*
X0125189Y0026587D02*
X0134811Y0026587D01*
X0133900Y0028985D02*
X0126100Y0028985D01*
X0126029Y0031384D02*
X0133971Y0031384D01*
X0135155Y0033782D02*
X0124845Y0033782D01*
X0115155Y0033782D02*
X0114845Y0033782D01*
X0118926Y0054600D02*
X0116941Y0055422D01*
X0115422Y0056941D01*
X0114600Y0058926D01*
X0114600Y0061074D01*
X0115422Y0063059D01*
X0116941Y0064578D01*
X0118224Y0065109D01*
X0118004Y0065181D01*
X0117275Y0065553D01*
X0116612Y0066034D01*
X0116034Y0066612D01*
X0115553Y0067275D01*
X0115181Y0068004D01*
X0114928Y0068782D01*
X0114800Y0069591D01*
X0114800Y0070000D01*
X0120000Y0070000D01*
X0125200Y0070000D01*
X0125200Y0070409D01*
X0125072Y0071218D01*
X0124819Y0071996D01*
X0124447Y0072725D01*
X0123966Y0073388D01*
X0123388Y0073966D01*
X0122725Y0074447D01*
X0121996Y0074819D01*
X0121439Y0075000D01*
X0121996Y0075181D01*
X0122725Y0075553D01*
X0123388Y0076034D01*
X0123966Y0076612D01*
X0124447Y0077275D01*
X0124819Y0078004D01*
X0125072Y0078782D01*
X0125200Y0079591D01*
X0125200Y0080000D01*
X0125200Y0080409D01*
X0125072Y0081218D01*
X0124819Y0081996D01*
X0124447Y0082725D01*
X0123966Y0083388D01*
X0123388Y0083966D01*
X0122725Y0084447D01*
X0121996Y0084819D01*
X0121776Y0084891D01*
X0123059Y0085422D01*
X0124578Y0086941D01*
X0125400Y0088926D01*
X0125400Y0091074D01*
X0124578Y0093059D01*
X0123059Y0094578D01*
X0121074Y0095400D01*
X0118926Y0095400D01*
X0116941Y0094578D01*
X0115422Y0093059D01*
X0114600Y0091074D01*
X0114600Y0088926D01*
X0115422Y0086941D01*
X0116941Y0085422D01*
X0118224Y0084891D01*
X0118004Y0084819D01*
X0117275Y0084447D01*
X0116612Y0083966D01*
X0116034Y0083388D01*
X0115553Y0082725D01*
X0115181Y0081996D01*
X0114928Y0081218D01*
X0114800Y0080409D01*
X0114800Y0080000D01*
X0120000Y0080000D01*
X0125200Y0080000D01*
X0120000Y0080000D01*
X0120000Y0080000D01*
X0120000Y0080000D01*
X0120000Y0074800D01*
X0120000Y0070000D01*
X0120000Y0070000D01*
X0120000Y0070000D01*
X0125200Y0070000D01*
X0125200Y0069591D01*
X0125072Y0068782D01*
X0124819Y0068004D01*
X0124447Y0067275D01*
X0123966Y0066612D01*
X0123388Y0066034D01*
X0122725Y0065553D01*
X0121996Y0065181D01*
X0121776Y0065109D01*
X0123059Y0064578D01*
X0124578Y0063059D01*
X0125400Y0061074D01*
X0125400Y0058926D01*
X0124578Y0056941D01*
X0123059Y0055422D01*
X0121074Y0054600D01*
X0118926Y0054600D01*
X0117070Y0055369D02*
X0082930Y0055369D01*
X0083059Y0055422D02*
X0084578Y0056941D01*
X0085400Y0058926D01*
X0085400Y0061074D01*
X0084578Y0063059D01*
X0083059Y0064578D01*
X0081776Y0065109D01*
X0081996Y0065181D01*
X0082725Y0065553D01*
X0083388Y0066034D01*
X0083966Y0066612D01*
X0084447Y0067275D01*
X0084819Y0068004D01*
X0085072Y0068782D01*
X0085200Y0069591D01*
X0085200Y0070000D01*
X0085200Y0070409D01*
X0085072Y0071218D01*
X0084819Y0071996D01*
X0084447Y0072725D01*
X0083966Y0073388D01*
X0083388Y0073966D01*
X0082725Y0074447D01*
X0081996Y0074819D01*
X0081439Y0075000D01*
X0081996Y0075181D01*
X0082725Y0075553D01*
X0083388Y0076034D01*
X0083966Y0076612D01*
X0084447Y0077275D01*
X0084819Y0078004D01*
X0085072Y0078782D01*
X0085200Y0079591D01*
X0085200Y0080000D01*
X0085200Y0080409D01*
X0085072Y0081218D01*
X0084819Y0081996D01*
X0084447Y0082725D01*
X0083966Y0083388D01*
X0083388Y0083966D01*
X0082725Y0084447D01*
X0081996Y0084819D01*
X0081776Y0084891D01*
X0083059Y0085422D01*
X0084578Y0086941D01*
X0085400Y0088926D01*
X0085400Y0091074D01*
X0084578Y0093059D01*
X0083059Y0094578D01*
X0081074Y0095400D01*
X0078926Y0095400D01*
X0076941Y0094578D01*
X0075422Y0093059D01*
X0074600Y0091074D01*
X0074600Y0088926D01*
X0075422Y0086941D01*
X0076941Y0085422D01*
X0078224Y0084891D01*
X0078004Y0084819D01*
X0077275Y0084447D01*
X0076612Y0083966D01*
X0076034Y0083388D01*
X0075553Y0082725D01*
X0075181Y0081996D01*
X0074928Y0081218D01*
X0074800Y0080409D01*
X0074800Y0080000D01*
X0080000Y0080000D01*
X0085200Y0080000D01*
X0080000Y0080000D01*
X0080000Y0080000D01*
X0080000Y0080000D01*
X0080000Y0074800D01*
X0080000Y0070000D01*
X0085200Y0070000D01*
X0080000Y0070000D01*
X0080000Y0070000D01*
X0080000Y0070000D01*
X0080000Y0070000D01*
X0074800Y0070000D01*
X0074800Y0070409D01*
X0074928Y0071218D01*
X0075181Y0071996D01*
X0075553Y0072725D01*
X0076034Y0073388D01*
X0076612Y0073966D01*
X0077275Y0074447D01*
X0078004Y0074819D01*
X0078561Y0075000D01*
X0078004Y0075181D01*
X0077275Y0075553D01*
X0076612Y0076034D01*
X0076034Y0076612D01*
X0075553Y0077275D01*
X0075181Y0078004D01*
X0074928Y0078782D01*
X0074800Y0079591D01*
X0074800Y0080000D01*
X0080000Y0080000D01*
X0080000Y0080000D01*
X0080000Y0070000D01*
X0074800Y0070000D01*
X0074800Y0069591D01*
X0074928Y0068782D01*
X0075181Y0068004D01*
X0075553Y0067275D01*
X0076034Y0066612D01*
X0076612Y0066034D01*
X0077275Y0065553D01*
X0078004Y0065181D01*
X0078224Y0065109D01*
X0076941Y0064578D01*
X0075422Y0063059D01*
X0074600Y0061074D01*
X0074600Y0058926D01*
X0075422Y0056941D01*
X0076941Y0055422D01*
X0078926Y0054600D01*
X0081074Y0054600D01*
X0083059Y0055422D01*
X0084920Y0057767D02*
X0115080Y0057767D01*
X0114600Y0060166D02*
X0085400Y0060166D01*
X0084783Y0062564D02*
X0115217Y0062564D01*
X0117870Y0064963D02*
X0082130Y0064963D01*
X0084492Y0067361D02*
X0115508Y0067361D01*
X0114800Y0069760D02*
X0085200Y0069760D01*
X0084736Y0072158D02*
X0115264Y0072158D01*
X0115181Y0071996D02*
X0114928Y0071218D01*
X0114800Y0070409D01*
X0114800Y0070000D01*
X0120000Y0070000D01*
X0120000Y0070000D01*
X0120000Y0080000D01*
X0120000Y0080000D01*
X0114800Y0080000D01*
X0114800Y0079591D01*
X0114928Y0078782D01*
X0115181Y0078004D01*
X0115553Y0077275D01*
X0116034Y0076612D01*
X0116612Y0076034D01*
X0117275Y0075553D01*
X0118004Y0075181D01*
X0118561Y0075000D01*
X0118004Y0074819D01*
X0117275Y0074447D01*
X0116612Y0073966D01*
X0116034Y0073388D01*
X0115553Y0072725D01*
X0115181Y0071996D01*
X0117489Y0074557D02*
X0082511Y0074557D01*
X0080000Y0074557D02*
X0080000Y0074557D01*
X0080000Y0076955D02*
X0080000Y0076955D01*
X0080000Y0079354D02*
X0080000Y0079354D01*
X0084215Y0076955D02*
X0115785Y0076955D01*
X0114838Y0079354D02*
X0085162Y0079354D01*
X0084898Y0081752D02*
X0115102Y0081752D01*
X0116866Y0084151D02*
X0083134Y0084151D01*
X0084186Y0086549D02*
X0115814Y0086549D01*
X0114600Y0088948D02*
X0085400Y0088948D01*
X0085287Y0091346D02*
X0114713Y0091346D01*
X0116108Y0093745D02*
X0083892Y0093745D01*
X0076108Y0093745D02*
X0043892Y0093745D01*
X0044578Y0093059D02*
X0043059Y0094578D01*
X0041074Y0095400D01*
X0038926Y0095400D01*
X0036941Y0094578D01*
X0035422Y0093059D01*
X0034600Y0091074D01*
X0034600Y0088926D01*
X0035422Y0086941D01*
X0036941Y0085422D01*
X0038224Y0084891D01*
X0038004Y0084819D01*
X0037275Y0084447D01*
X0036612Y0083966D01*
X0036034Y0083388D01*
X0035553Y0082725D01*
X0035181Y0081996D01*
X0034928Y0081218D01*
X0034800Y0080409D01*
X0034800Y0080000D01*
X0040000Y0080000D01*
X0045200Y0080000D01*
X0045200Y0080409D01*
X0045072Y0081218D01*
X0044819Y0081996D01*
X0044447Y0082725D01*
X0043966Y0083388D01*
X0043388Y0083966D01*
X0042725Y0084447D01*
X0041996Y0084819D01*
X0041776Y0084891D01*
X0043059Y0085422D01*
X0044578Y0086941D01*
X0045400Y0088926D01*
X0045400Y0091074D01*
X0044578Y0093059D01*
X0045287Y0091346D02*
X0074713Y0091346D01*
X0074600Y0088948D02*
X0045400Y0088948D01*
X0044186Y0086549D02*
X0075814Y0086549D01*
X0076866Y0084151D02*
X0043134Y0084151D01*
X0044898Y0081752D02*
X0075102Y0081752D01*
X0074838Y0079354D02*
X0045162Y0079354D01*
X0045200Y0079591D02*
X0045200Y0080000D01*
X0040000Y0080000D01*
X0040000Y0080000D01*
X0040000Y0080000D01*
X0040000Y0074800D01*
X0040000Y0070000D01*
X0045200Y0070000D01*
X0045200Y0070409D01*
X0045072Y0071218D01*
X0044819Y0071996D01*
X0044447Y0072725D01*
X0043966Y0073388D01*
X0043388Y0073966D01*
X0042725Y0074447D01*
X0041996Y0074819D01*
X0041439Y0075000D01*
X0041996Y0075181D01*
X0042725Y0075553D01*
X0043388Y0076034D01*
X0043966Y0076612D01*
X0044447Y0077275D01*
X0044819Y0078004D01*
X0045072Y0078782D01*
X0045200Y0079591D01*
X0044215Y0076955D02*
X0075785Y0076955D01*
X0077489Y0074557D02*
X0042511Y0074557D01*
X0044736Y0072158D02*
X0075264Y0072158D01*
X0074800Y0069760D02*
X0045200Y0069760D01*
X0045200Y0069591D02*
X0045200Y0070000D01*
X0040000Y0070000D01*
X0040000Y0070000D01*
X0040000Y0070000D01*
X0040000Y0070000D01*
X0034800Y0070000D01*
X0034800Y0070409D01*
X0034928Y0071218D01*
X0035181Y0071996D01*
X0035553Y0072725D01*
X0036034Y0073388D01*
X0036612Y0073966D01*
X0037275Y0074447D01*
X0038004Y0074819D01*
X0038561Y0075000D01*
X0038004Y0075181D01*
X0037275Y0075553D01*
X0036612Y0076034D01*
X0036034Y0076612D01*
X0035553Y0077275D01*
X0035181Y0078004D01*
X0034928Y0078782D01*
X0034800Y0079591D01*
X0034800Y0080000D01*
X0040000Y0080000D01*
X0040000Y0080000D01*
X0040000Y0070000D01*
X0034800Y0070000D01*
X0034800Y0069591D01*
X0034928Y0068782D01*
X0035181Y0068004D01*
X0035553Y0067275D01*
X0036034Y0066612D01*
X0036612Y0066034D01*
X0037275Y0065553D01*
X0038004Y0065181D01*
X0038224Y0065109D01*
X0036941Y0064578D01*
X0035422Y0063059D01*
X0034600Y0061074D01*
X0034600Y0058926D01*
X0035422Y0056941D01*
X0036941Y0055422D01*
X0038926Y0054600D01*
X0041074Y0054600D01*
X0043059Y0055422D01*
X0044578Y0056941D01*
X0045400Y0058926D01*
X0045400Y0061074D01*
X0044578Y0063059D01*
X0043059Y0064578D01*
X0041776Y0065109D01*
X0041996Y0065181D01*
X0042725Y0065553D01*
X0043388Y0066034D01*
X0043966Y0066612D01*
X0044447Y0067275D01*
X0044819Y0068004D01*
X0045072Y0068782D01*
X0045200Y0069591D01*
X0044492Y0067361D02*
X0075508Y0067361D01*
X0077870Y0064963D02*
X0042130Y0064963D01*
X0044783Y0062564D02*
X0075217Y0062564D01*
X0074600Y0060166D02*
X0045400Y0060166D01*
X0044920Y0057767D02*
X0075080Y0057767D01*
X0077070Y0055369D02*
X0042930Y0055369D01*
X0037070Y0055369D02*
X0015000Y0055369D01*
X0015000Y0057767D02*
X0035080Y0057767D01*
X0034600Y0060166D02*
X0015000Y0060166D01*
X0015000Y0062564D02*
X0035217Y0062564D01*
X0037870Y0064963D02*
X0015000Y0064963D01*
X0017361Y0067361D02*
X0035508Y0067361D01*
X0034800Y0069760D02*
X0019760Y0069760D01*
X0022158Y0072158D02*
X0035264Y0072158D01*
X0037489Y0074557D02*
X0024557Y0074557D01*
X0025000Y0076955D02*
X0035785Y0076955D01*
X0034838Y0079354D02*
X0025000Y0079354D01*
X0025000Y0081752D02*
X0035102Y0081752D01*
X0036866Y0084151D02*
X0025000Y0084151D01*
X0025000Y0086549D02*
X0035814Y0086549D01*
X0034600Y0088948D02*
X0025000Y0088948D01*
X0023654Y0091346D02*
X0034713Y0091346D01*
X0036108Y0093745D02*
X0021255Y0093745D01*
X0018857Y0096143D02*
X0190000Y0096143D01*
X0190000Y0093745D02*
X0163892Y0093745D01*
X0164578Y0093059D02*
X0163059Y0094578D01*
X0161074Y0095400D01*
X0158926Y0095400D01*
X0156941Y0094578D01*
X0155422Y0093059D01*
X0154600Y0091074D01*
X0154600Y0088926D01*
X0155422Y0086941D01*
X0156941Y0085422D01*
X0158224Y0084891D01*
X0158004Y0084819D01*
X0157275Y0084447D01*
X0156612Y0083966D01*
X0156034Y0083388D01*
X0155553Y0082725D01*
X0155181Y0081996D01*
X0154928Y0081218D01*
X0154800Y0080409D01*
X0154800Y0080000D01*
X0160000Y0080000D01*
X0165200Y0080000D01*
X0165200Y0080409D01*
X0165072Y0081218D01*
X0164819Y0081996D01*
X0164447Y0082725D01*
X0163966Y0083388D01*
X0163388Y0083966D01*
X0162725Y0084447D01*
X0161996Y0084819D01*
X0161776Y0084891D01*
X0163059Y0085422D01*
X0164578Y0086941D01*
X0165400Y0088926D01*
X0165400Y0091074D01*
X0164578Y0093059D01*
X0165287Y0091346D02*
X0190000Y0091346D01*
X0190000Y0088948D02*
X0165400Y0088948D01*
X0164186Y0086549D02*
X0190000Y0086549D01*
X0189151Y0084151D02*
X0163134Y0084151D01*
X0164898Y0081752D02*
X0186752Y0081752D01*
X0184354Y0079354D02*
X0165162Y0079354D01*
X0165200Y0079591D02*
X0165200Y0080000D01*
X0160000Y0080000D01*
X0160000Y0080000D01*
X0160000Y0080000D01*
X0160000Y0074800D01*
X0160000Y0070000D01*
X0165200Y0070000D01*
X0165200Y0070409D01*
X0165072Y0071218D01*
X0164819Y0071996D01*
X0164447Y0072725D01*
X0163966Y0073388D01*
X0163388Y0073966D01*
X0162725Y0074447D01*
X0161996Y0074819D01*
X0161439Y0075000D01*
X0161996Y0075181D01*
X0162725Y0075553D01*
X0163388Y0076034D01*
X0163966Y0076612D01*
X0164447Y0077275D01*
X0164819Y0078004D01*
X0165072Y0078782D01*
X0165200Y0079591D01*
X0164215Y0076955D02*
X0181955Y0076955D01*
X0180000Y0074557D02*
X0162511Y0074557D01*
X0160000Y0074557D02*
X0160000Y0074557D01*
X0158561Y0075000D02*
X0158004Y0074819D01*
X0157275Y0074447D01*
X0156612Y0073966D01*
X0156034Y0073388D01*
X0155553Y0072725D01*
X0155181Y0071996D01*
X0154928Y0071218D01*
X0154800Y0070409D01*
X0154800Y0070000D01*
X0160000Y0070000D01*
X0160000Y0070000D01*
X0160000Y0070000D01*
X0165200Y0070000D01*
X0165200Y0069591D01*
X0165072Y0068782D01*
X0164819Y0068004D01*
X0164447Y0067275D01*
X0163966Y0066612D01*
X0163388Y0066034D01*
X0162725Y0065553D01*
X0161996Y0065181D01*
X0161776Y0065109D01*
X0163059Y0064578D01*
X0164578Y0063059D01*
X0165400Y0061074D01*
X0165400Y0058926D01*
X0164578Y0056941D01*
X0163059Y0055422D01*
X0161074Y0054600D01*
X0158926Y0054600D01*
X0156941Y0055422D01*
X0155422Y0056941D01*
X0154600Y0058926D01*
X0154600Y0061074D01*
X0155422Y0063059D01*
X0156941Y0064578D01*
X0158224Y0065109D01*
X0158004Y0065181D01*
X0157275Y0065553D01*
X0156612Y0066034D01*
X0156034Y0066612D01*
X0155553Y0067275D01*
X0155181Y0068004D01*
X0154928Y0068782D01*
X0154800Y0069591D01*
X0154800Y0070000D01*
X0160000Y0070000D01*
X0160000Y0070000D01*
X0160000Y0080000D01*
X0160000Y0080000D01*
X0154800Y0080000D01*
X0154800Y0079591D01*
X0154928Y0078782D01*
X0155181Y0078004D01*
X0155553Y0077275D01*
X0156034Y0076612D01*
X0156612Y0076034D01*
X0157275Y0075553D01*
X0158004Y0075181D01*
X0158561Y0075000D01*
X0157489Y0074557D02*
X0122511Y0074557D01*
X0120000Y0074557D02*
X0120000Y0074557D01*
X0120000Y0076955D02*
X0120000Y0076955D01*
X0120000Y0079354D02*
X0120000Y0079354D01*
X0124215Y0076955D02*
X0155785Y0076955D01*
X0154838Y0079354D02*
X0125162Y0079354D01*
X0124898Y0081752D02*
X0155102Y0081752D01*
X0156866Y0084151D02*
X0123134Y0084151D01*
X0124186Y0086549D02*
X0155814Y0086549D01*
X0154600Y0088948D02*
X0125400Y0088948D01*
X0125287Y0091346D02*
X0154713Y0091346D01*
X0156108Y0093745D02*
X0123892Y0093745D01*
X0124736Y0072158D02*
X0155264Y0072158D01*
X0154800Y0069760D02*
X0125200Y0069760D01*
X0124492Y0067361D02*
X0155508Y0067361D01*
X0157870Y0064963D02*
X0122130Y0064963D01*
X0124783Y0062564D02*
X0155217Y0062564D01*
X0154600Y0060166D02*
X0125400Y0060166D01*
X0124920Y0057767D02*
X0155080Y0057767D01*
X0157070Y0055369D02*
X0122930Y0055369D01*
X0120000Y0072158D02*
X0120000Y0072158D01*
X0144845Y0033782D02*
X0145155Y0033782D01*
X0154845Y0033782D02*
X0155155Y0033782D01*
X0164845Y0033782D02*
X0165155Y0033782D01*
X0174845Y0033782D02*
X0175155Y0033782D01*
X0184845Y0033782D02*
X0185155Y0033782D01*
X0190000Y0036181D02*
X0028510Y0036181D01*
X0015000Y0038579D02*
X0190000Y0038579D01*
X0190000Y0040978D02*
X0015000Y0040978D01*
X0015000Y0043376D02*
X0190000Y0043376D01*
X0189225Y0045775D02*
X0015000Y0045775D01*
X0015000Y0048173D02*
X0186827Y0048173D01*
X0184428Y0050572D02*
X0015000Y0050572D01*
X0015000Y0052970D02*
X0182030Y0052970D01*
X0180000Y0055369D02*
X0162930Y0055369D01*
X0164920Y0057767D02*
X0180000Y0057767D01*
X0180000Y0060166D02*
X0165400Y0060166D01*
X0164783Y0062564D02*
X0180000Y0062564D01*
X0180000Y0064963D02*
X0162130Y0064963D01*
X0164492Y0067361D02*
X0180000Y0067361D01*
X0180000Y0069760D02*
X0165200Y0069760D01*
X0164736Y0072158D02*
X0180000Y0072158D01*
X0160000Y0072158D02*
X0160000Y0072158D01*
X0160000Y0076955D02*
X0160000Y0076955D01*
X0160000Y0079354D02*
X0160000Y0079354D01*
X0186864Y0108136D02*
X0015000Y0108136D01*
X0015000Y0110534D02*
X0184466Y0110534D01*
X0182067Y0112933D02*
X0015000Y0112933D01*
X0015332Y0115332D02*
X0180000Y0115332D01*
X0180000Y0117730D02*
X0017730Y0117730D01*
X0020129Y0120129D02*
X0180000Y0120129D01*
X0180000Y0122527D02*
X0022527Y0122527D01*
X0024926Y0124926D02*
X0180000Y0124926D01*
X0180000Y0127324D02*
X0025000Y0127324D01*
X0025000Y0129723D02*
X0180000Y0129723D01*
X0180000Y0132121D02*
X0048880Y0132121D01*
X0048896Y0132160D02*
X0048896Y0134105D01*
X0052051Y0137260D01*
X0065094Y0137260D01*
X0065688Y0136666D01*
X0066570Y0136301D01*
X0073430Y0136301D01*
X0074312Y0136666D01*
X0074987Y0137341D01*
X0075353Y0138223D01*
X0075353Y0144296D01*
X0074987Y0145178D01*
X0074941Y0145225D01*
X0075003Y0145332D01*
X0075153Y0145891D01*
X0075153Y0148661D01*
X0070080Y0148661D01*
X0070080Y0148820D01*
X0075153Y0148820D01*
X0075153Y0151589D01*
X0075003Y0152148D01*
X0074713Y0152650D01*
X0074304Y0153060D01*
X0073802Y0153349D01*
X0073242Y0153499D01*
X0070080Y0153499D01*
X0070080Y0148820D01*
X0069920Y0148820D01*
X0069920Y0148661D01*
X0064847Y0148661D01*
X0064847Y0145891D01*
X0064997Y0145332D01*
X0065039Y0145260D01*
X0049598Y0145260D01*
X0048128Y0144651D01*
X0047003Y0143526D01*
X0047003Y0143526D01*
X0043239Y0139762D01*
X0041294Y0139762D01*
X0040412Y0139397D01*
X0040000Y0138985D01*
X0039588Y0139397D01*
X0038706Y0139762D01*
X0036761Y0139762D01*
X0034000Y0142523D01*
X0034000Y0156363D01*
X0034578Y0156941D01*
X0035000Y0157960D01*
X0035422Y0156941D01*
X0036941Y0155422D01*
X0038926Y0154600D01*
X0041074Y0154600D01*
X0043059Y0155422D01*
X0044578Y0156941D01*
X0045109Y0158224D01*
X0045181Y0158004D01*
X0045553Y0157275D01*
X0046034Y0156612D01*
X0046612Y0156034D01*
X0047275Y0155553D01*
X0048004Y0155181D01*
X0048782Y0154928D01*
X0049591Y0154800D01*
X0050000Y0154800D01*
X0050409Y0154800D01*
X0051218Y0154928D01*
X0051996Y0155181D01*
X0052725Y0155553D01*
X0053388Y0156034D01*
X0053966Y0156612D01*
X0054447Y0157275D01*
X0054819Y0158004D01*
X0055072Y0158782D01*
X0055200Y0159591D01*
X0055200Y0160000D01*
X0055200Y0160409D01*
X0055072Y0161218D01*
X0054819Y0161996D01*
X0054447Y0162725D01*
X0053966Y0163388D01*
X0053388Y0163966D01*
X0052725Y0164447D01*
X0051996Y0164819D01*
X0051218Y0165072D01*
X0050409Y0165200D01*
X0050000Y0165200D01*
X0050000Y0160000D01*
X0050000Y0160000D01*
X0055200Y0160000D01*
X0050000Y0160000D01*
X0050000Y0160000D01*
X0050000Y0165200D01*
X0049591Y0165200D01*
X0048782Y0165072D01*
X0048004Y0164819D01*
X0047275Y0164447D01*
X0046612Y0163966D01*
X0046034Y0163388D01*
X0045553Y0162725D01*
X0045181Y0161996D01*
X0045109Y0161776D01*
X0044578Y0163059D01*
X0043059Y0164578D01*
X0041074Y0165400D01*
X0038926Y0165400D01*
X0036941Y0164578D01*
X0035422Y0163059D01*
X0035000Y0162040D01*
X0034578Y0163059D01*
X0033059Y0164578D01*
X0031074Y0165400D01*
X0028926Y0165400D01*
X0026941Y0164578D01*
X0025422Y0163059D01*
X0024600Y0161074D01*
X0024600Y0158926D01*
X0025422Y0156941D01*
X0026000Y0156363D01*
X0026000Y0140070D01*
X0026609Y0138600D01*
X0031104Y0134105D01*
X0031104Y0132160D01*
X0031469Y0131278D01*
X0032144Y0130603D01*
X0033027Y0130238D01*
X0038706Y0130238D01*
X0039588Y0130603D01*
X0040000Y0131015D01*
X0040412Y0130603D01*
X0041294Y0130238D01*
X0046973Y0130238D01*
X0047856Y0130603D01*
X0048531Y0131278D01*
X0048896Y0132160D01*
X0049310Y0134520D02*
X0180000Y0134520D01*
X0181918Y0136918D02*
X0074564Y0136918D01*
X0075353Y0139317D02*
X0184317Y0139317D01*
X0186715Y0141715D02*
X0075353Y0141715D01*
X0075353Y0144114D02*
X0189114Y0144114D01*
X0190000Y0146512D02*
X0075153Y0146512D01*
X0075153Y0148911D02*
X0176348Y0148911D01*
X0172951Y0151094D02*
X0172951Y0151094D01*
X0172764Y0151309D02*
X0143380Y0151309D01*
X0142071Y0150000D02*
X0145000Y0152929D01*
X0145000Y0155000D01*
X0145000Y0157071D01*
X0142212Y0159859D01*
X0145200Y0162846D01*
X0145200Y0167154D01*
X0142154Y0170200D01*
X0137846Y0170200D01*
X0135000Y0167354D01*
X0132154Y0170200D01*
X0127846Y0170200D01*
X0125000Y0167354D01*
X0122154Y0170200D01*
X0117846Y0170200D01*
X0115000Y0167354D01*
X0112154Y0170200D01*
X0107846Y0170200D01*
X0105000Y0167354D01*
X0102154Y0170200D01*
X0097846Y0170200D01*
X0094800Y0167154D01*
X0094800Y0162846D01*
X0097646Y0160000D01*
X0094800Y0157154D01*
X0094800Y0152846D01*
X0097846Y0149800D01*
X0102154Y0149800D01*
X0105000Y0152646D01*
X0107846Y0149800D01*
X0112154Y0149800D01*
X0115000Y0152646D01*
X0117846Y0149800D01*
X0122154Y0149800D01*
X0125000Y0152646D01*
X0127846Y0149800D01*
X0132154Y0149800D01*
X0135141Y0152788D01*
X0137929Y0150000D01*
X0140000Y0150000D01*
X0142071Y0150000D01*
X0140000Y0150000D02*
X0140000Y0155000D01*
X0145000Y0155000D01*
X0140000Y0155000D01*
X0140000Y0155000D01*
X0140000Y0155000D01*
X0140000Y0150000D01*
X0140000Y0151309D02*
X0140000Y0151309D01*
X0140000Y0153708D02*
X0140000Y0153708D01*
X0136620Y0151309D02*
X0133663Y0151309D01*
X0126337Y0151309D02*
X0123663Y0151309D01*
X0116337Y0151309D02*
X0113663Y0151309D01*
X0106337Y0151309D02*
X0103663Y0151309D01*
X0096337Y0151309D02*
X0075153Y0151309D01*
X0070080Y0151309D02*
X0069920Y0151309D01*
X0069920Y0153499D02*
X0066758Y0153499D01*
X0066198Y0153349D01*
X0065696Y0153060D01*
X0065287Y0152650D01*
X0064997Y0152148D01*
X0064847Y0151589D01*
X0064847Y0148820D01*
X0069920Y0148820D01*
X0069920Y0153499D01*
X0069920Y0148911D02*
X0070080Y0148911D01*
X0064847Y0148911D02*
X0034000Y0148911D01*
X0034000Y0151309D02*
X0064847Y0151309D01*
X0064847Y0146512D02*
X0034000Y0146512D01*
X0034000Y0144114D02*
X0047591Y0144114D01*
X0045192Y0141715D02*
X0034808Y0141715D01*
X0039668Y0139317D02*
X0040332Y0139317D01*
X0030690Y0134520D02*
X0025000Y0134520D01*
X0025000Y0136918D02*
X0028291Y0136918D01*
X0026312Y0139317D02*
X0025000Y0139317D01*
X0026000Y0141715D02*
X0023285Y0141715D01*
X0020886Y0144114D02*
X0026000Y0144114D01*
X0026000Y0146512D02*
X0018488Y0146512D01*
X0016089Y0148911D02*
X0026000Y0148911D01*
X0026000Y0151309D02*
X0015000Y0151309D01*
X0015000Y0153708D02*
X0026000Y0153708D01*
X0026000Y0156106D02*
X0015000Y0156106D01*
X0015000Y0158505D02*
X0024774Y0158505D01*
X0024600Y0160903D02*
X0015000Y0160903D01*
X0015000Y0163302D02*
X0025665Y0163302D01*
X0034335Y0163302D02*
X0035665Y0163302D01*
X0036257Y0156106D02*
X0034000Y0156106D01*
X0034000Y0153708D02*
X0094800Y0153708D01*
X0094800Y0156106D02*
X0053460Y0156106D01*
X0054982Y0158505D02*
X0096151Y0158505D01*
X0096743Y0160903D02*
X0055122Y0160903D01*
X0054029Y0163302D02*
X0094800Y0163302D01*
X0094800Y0165700D02*
X0015000Y0165700D01*
X0015000Y0168099D02*
X0095745Y0168099D01*
X0104255Y0168099D02*
X0105745Y0168099D01*
X0114255Y0168099D02*
X0115745Y0168099D01*
X0124255Y0168099D02*
X0125745Y0168099D01*
X0134255Y0168099D02*
X0135745Y0168099D01*
X0143257Y0160903D02*
X0167189Y0160903D01*
X0167345Y0159816D02*
X0167345Y0159816D01*
X0167944Y0158505D02*
X0143566Y0158505D01*
X0145000Y0156106D02*
X0169040Y0156106D01*
X0169521Y0155052D02*
X0169521Y0155052D01*
X0170686Y0153708D02*
X0145000Y0153708D01*
X0145200Y0163302D02*
X0166844Y0163302D01*
X0166701Y0165700D02*
X0145200Y0165700D01*
X0144255Y0168099D02*
X0167046Y0168099D01*
X0167345Y0170184D02*
X0167345Y0170184D01*
X0167488Y0170497D02*
X0015000Y0170497D01*
X0015000Y0172896D02*
X0168584Y0172896D01*
X0169521Y0174948D02*
X0169521Y0174948D01*
X0169821Y0175294D02*
X0015000Y0175294D01*
X0015000Y0177693D02*
X0171900Y0177693D01*
X0172951Y0178906D02*
X0172951Y0178906D01*
X0174795Y0180091D02*
X0015000Y0180091D01*
X0015000Y0182490D02*
X0179920Y0182490D01*
X0183515Y0184888D02*
X0186485Y0184888D01*
X0185856Y0194482D02*
X0184144Y0194482D01*
X0190000Y0196881D02*
X0015000Y0196881D01*
X0015000Y0199279D02*
X0190000Y0199279D01*
X0185261Y0201678D02*
X0184739Y0201678D01*
X0175856Y0194482D02*
X0089144Y0194482D01*
X0088455Y0195171D02*
X0090171Y0193455D01*
X0091100Y0191213D01*
X0091100Y0188787D01*
X0090171Y0186545D01*
X0088455Y0184829D01*
X0086213Y0183900D01*
X0083787Y0183900D01*
X0081545Y0184829D01*
X0080000Y0186373D01*
X0078455Y0184829D01*
X0076213Y0183900D01*
X0073787Y0183900D01*
X0071545Y0184829D01*
X0070000Y0186373D01*
X0068455Y0184829D01*
X0066213Y0183900D01*
X0063787Y0183900D01*
X0061545Y0184829D01*
X0060000Y0186373D01*
X0058455Y0184829D01*
X0056213Y0183900D01*
X0053787Y0183900D01*
X0051545Y0184829D01*
X0049829Y0186545D01*
X0048900Y0188787D01*
X0048900Y0191213D01*
X0049829Y0193455D01*
X0051545Y0195171D01*
X0053787Y0196100D01*
X0056213Y0196100D01*
X0058455Y0195171D01*
X0060000Y0193627D01*
X0061545Y0195171D01*
X0063787Y0196100D01*
X0066213Y0196100D01*
X0068455Y0195171D01*
X0070000Y0193627D01*
X0071545Y0195171D01*
X0073787Y0196100D01*
X0076213Y0196100D01*
X0078455Y0195171D01*
X0080000Y0193627D01*
X0081545Y0195171D01*
X0083787Y0196100D01*
X0086213Y0196100D01*
X0088455Y0195171D01*
X0090739Y0192084D02*
X0174261Y0192084D01*
X0173900Y0189685D02*
X0091100Y0189685D01*
X0090479Y0187287D02*
X0174521Y0187287D01*
X0176485Y0184888D02*
X0088515Y0184888D01*
X0081485Y0184888D02*
X0078515Y0184888D01*
X0071485Y0184888D02*
X0068515Y0184888D01*
X0061485Y0184888D02*
X0058515Y0184888D01*
X0051485Y0184888D02*
X0015000Y0184888D01*
X0015000Y0187287D02*
X0049521Y0187287D01*
X0048900Y0189685D02*
X0015000Y0189685D01*
X0015000Y0192084D02*
X0049261Y0192084D01*
X0050856Y0194482D02*
X0015000Y0194482D01*
X0018739Y0201678D02*
X0019261Y0201678D01*
X0028739Y0201678D02*
X0029261Y0201678D01*
X0038739Y0201678D02*
X0039261Y0201678D01*
X0048739Y0201678D02*
X0049261Y0201678D01*
X0058739Y0201678D02*
X0059261Y0201678D01*
X0059144Y0194482D02*
X0060856Y0194482D01*
X0069144Y0194482D02*
X0070856Y0194482D01*
X0069261Y0201678D02*
X0068739Y0201678D01*
X0078739Y0201678D02*
X0079261Y0201678D01*
X0079144Y0194482D02*
X0080856Y0194482D01*
X0088739Y0201678D02*
X0089261Y0201678D01*
X0098739Y0201678D02*
X0099261Y0201678D01*
X0108739Y0201678D02*
X0115261Y0201678D01*
X0114300Y0204076D02*
X0109700Y0204076D01*
X0124739Y0201678D02*
X0125261Y0201678D01*
X0134739Y0201678D02*
X0135261Y0201678D01*
X0144739Y0201678D02*
X0145261Y0201678D01*
X0154739Y0201678D02*
X0155261Y0201678D01*
X0164739Y0201678D02*
X0165261Y0201678D01*
X0174739Y0201678D02*
X0175261Y0201678D01*
X0177356Y0181737D02*
X0177356Y0181737D01*
X0189263Y0105737D02*
X0015000Y0105737D01*
X0015000Y0103339D02*
X0190000Y0103339D01*
X0190000Y0100940D02*
X0015000Y0100940D01*
X0016458Y0098542D02*
X0190000Y0098542D01*
X0186330Y0019391D02*
X0183670Y0019391D01*
X0176330Y0019391D02*
X0173670Y0019391D01*
X0166330Y0019391D02*
X0163670Y0019391D01*
X0156330Y0019391D02*
X0153670Y0019391D01*
X0146330Y0019391D02*
X0143670Y0019391D01*
X0080000Y0072158D02*
X0080000Y0072158D01*
X0040000Y0072158D02*
X0040000Y0072158D01*
X0040000Y0074557D02*
X0040000Y0074557D01*
X0040000Y0076955D02*
X0040000Y0076955D01*
X0040000Y0079354D02*
X0040000Y0079354D01*
X0031120Y0132121D02*
X0025000Y0132121D01*
X0043743Y0156106D02*
X0046540Y0156106D01*
X0050000Y0156106D02*
X0050000Y0156106D01*
X0050000Y0154800D02*
X0050000Y0160000D01*
X0050000Y0160000D01*
X0050000Y0154800D01*
X0050000Y0158505D02*
X0050000Y0158505D01*
X0050000Y0160903D02*
X0050000Y0160903D01*
X0050000Y0163302D02*
X0050000Y0163302D01*
X0045971Y0163302D02*
X0044335Y0163302D01*
X0051709Y0136918D02*
X0065436Y0136918D01*
D18*
X0120000Y0030000D02*
X0120000Y0015000D01*
M02*
