G75*
%MOIN*%
%OFA0B0*%
%FSLAX25Y25*%
%IPPOS*%
%LPD*%
%AMOC8*
5,1,8,0,0,1.08239X$1,22.5*
%
%ADD10C,0.00000*%
D10*
X0001000Y0001000D02*
X0001000Y0220961D01*
X0221000Y0221000D01*
X0221000Y0001000D01*
X0001000Y0001000D01*
X0065094Y0031000D02*
X0065096Y0031153D01*
X0065102Y0031307D01*
X0065112Y0031460D01*
X0065126Y0031612D01*
X0065144Y0031765D01*
X0065166Y0031916D01*
X0065191Y0032067D01*
X0065221Y0032218D01*
X0065255Y0032368D01*
X0065292Y0032516D01*
X0065333Y0032664D01*
X0065378Y0032810D01*
X0065427Y0032956D01*
X0065480Y0033100D01*
X0065536Y0033242D01*
X0065596Y0033383D01*
X0065660Y0033523D01*
X0065727Y0033661D01*
X0065798Y0033797D01*
X0065873Y0033931D01*
X0065950Y0034063D01*
X0066032Y0034193D01*
X0066116Y0034321D01*
X0066204Y0034447D01*
X0066295Y0034570D01*
X0066389Y0034691D01*
X0066487Y0034809D01*
X0066587Y0034925D01*
X0066691Y0035038D01*
X0066797Y0035149D01*
X0066906Y0035257D01*
X0067018Y0035362D01*
X0067132Y0035463D01*
X0067250Y0035562D01*
X0067369Y0035658D01*
X0067491Y0035751D01*
X0067616Y0035840D01*
X0067743Y0035927D01*
X0067872Y0036009D01*
X0068003Y0036089D01*
X0068136Y0036165D01*
X0068271Y0036238D01*
X0068408Y0036307D01*
X0068547Y0036372D01*
X0068687Y0036434D01*
X0068829Y0036492D01*
X0068972Y0036547D01*
X0069117Y0036598D01*
X0069263Y0036645D01*
X0069410Y0036688D01*
X0069558Y0036727D01*
X0069707Y0036763D01*
X0069857Y0036794D01*
X0070008Y0036822D01*
X0070159Y0036846D01*
X0070312Y0036866D01*
X0070464Y0036882D01*
X0070617Y0036894D01*
X0070770Y0036902D01*
X0070923Y0036906D01*
X0071077Y0036906D01*
X0071230Y0036902D01*
X0071383Y0036894D01*
X0071536Y0036882D01*
X0071688Y0036866D01*
X0071841Y0036846D01*
X0071992Y0036822D01*
X0072143Y0036794D01*
X0072293Y0036763D01*
X0072442Y0036727D01*
X0072590Y0036688D01*
X0072737Y0036645D01*
X0072883Y0036598D01*
X0073028Y0036547D01*
X0073171Y0036492D01*
X0073313Y0036434D01*
X0073453Y0036372D01*
X0073592Y0036307D01*
X0073729Y0036238D01*
X0073864Y0036165D01*
X0073997Y0036089D01*
X0074128Y0036009D01*
X0074257Y0035927D01*
X0074384Y0035840D01*
X0074509Y0035751D01*
X0074631Y0035658D01*
X0074750Y0035562D01*
X0074868Y0035463D01*
X0074982Y0035362D01*
X0075094Y0035257D01*
X0075203Y0035149D01*
X0075309Y0035038D01*
X0075413Y0034925D01*
X0075513Y0034809D01*
X0075611Y0034691D01*
X0075705Y0034570D01*
X0075796Y0034447D01*
X0075884Y0034321D01*
X0075968Y0034193D01*
X0076050Y0034063D01*
X0076127Y0033931D01*
X0076202Y0033797D01*
X0076273Y0033661D01*
X0076340Y0033523D01*
X0076404Y0033383D01*
X0076464Y0033242D01*
X0076520Y0033100D01*
X0076573Y0032956D01*
X0076622Y0032810D01*
X0076667Y0032664D01*
X0076708Y0032516D01*
X0076745Y0032368D01*
X0076779Y0032218D01*
X0076809Y0032067D01*
X0076834Y0031916D01*
X0076856Y0031765D01*
X0076874Y0031612D01*
X0076888Y0031460D01*
X0076898Y0031307D01*
X0076904Y0031153D01*
X0076906Y0031000D01*
X0076904Y0030847D01*
X0076898Y0030693D01*
X0076888Y0030540D01*
X0076874Y0030388D01*
X0076856Y0030235D01*
X0076834Y0030084D01*
X0076809Y0029933D01*
X0076779Y0029782D01*
X0076745Y0029632D01*
X0076708Y0029484D01*
X0076667Y0029336D01*
X0076622Y0029190D01*
X0076573Y0029044D01*
X0076520Y0028900D01*
X0076464Y0028758D01*
X0076404Y0028617D01*
X0076340Y0028477D01*
X0076273Y0028339D01*
X0076202Y0028203D01*
X0076127Y0028069D01*
X0076050Y0027937D01*
X0075968Y0027807D01*
X0075884Y0027679D01*
X0075796Y0027553D01*
X0075705Y0027430D01*
X0075611Y0027309D01*
X0075513Y0027191D01*
X0075413Y0027075D01*
X0075309Y0026962D01*
X0075203Y0026851D01*
X0075094Y0026743D01*
X0074982Y0026638D01*
X0074868Y0026537D01*
X0074750Y0026438D01*
X0074631Y0026342D01*
X0074509Y0026249D01*
X0074384Y0026160D01*
X0074257Y0026073D01*
X0074128Y0025991D01*
X0073997Y0025911D01*
X0073864Y0025835D01*
X0073729Y0025762D01*
X0073592Y0025693D01*
X0073453Y0025628D01*
X0073313Y0025566D01*
X0073171Y0025508D01*
X0073028Y0025453D01*
X0072883Y0025402D01*
X0072737Y0025355D01*
X0072590Y0025312D01*
X0072442Y0025273D01*
X0072293Y0025237D01*
X0072143Y0025206D01*
X0071992Y0025178D01*
X0071841Y0025154D01*
X0071688Y0025134D01*
X0071536Y0025118D01*
X0071383Y0025106D01*
X0071230Y0025098D01*
X0071077Y0025094D01*
X0070923Y0025094D01*
X0070770Y0025098D01*
X0070617Y0025106D01*
X0070464Y0025118D01*
X0070312Y0025134D01*
X0070159Y0025154D01*
X0070008Y0025178D01*
X0069857Y0025206D01*
X0069707Y0025237D01*
X0069558Y0025273D01*
X0069410Y0025312D01*
X0069263Y0025355D01*
X0069117Y0025402D01*
X0068972Y0025453D01*
X0068829Y0025508D01*
X0068687Y0025566D01*
X0068547Y0025628D01*
X0068408Y0025693D01*
X0068271Y0025762D01*
X0068136Y0025835D01*
X0068003Y0025911D01*
X0067872Y0025991D01*
X0067743Y0026073D01*
X0067616Y0026160D01*
X0067491Y0026249D01*
X0067369Y0026342D01*
X0067250Y0026438D01*
X0067132Y0026537D01*
X0067018Y0026638D01*
X0066906Y0026743D01*
X0066797Y0026851D01*
X0066691Y0026962D01*
X0066587Y0027075D01*
X0066487Y0027191D01*
X0066389Y0027309D01*
X0066295Y0027430D01*
X0066204Y0027553D01*
X0066116Y0027679D01*
X0066032Y0027807D01*
X0065950Y0027937D01*
X0065873Y0028069D01*
X0065798Y0028203D01*
X0065727Y0028339D01*
X0065660Y0028477D01*
X0065596Y0028617D01*
X0065536Y0028758D01*
X0065480Y0028900D01*
X0065427Y0029044D01*
X0065378Y0029190D01*
X0065333Y0029336D01*
X0065292Y0029484D01*
X0065255Y0029632D01*
X0065221Y0029782D01*
X0065191Y0029933D01*
X0065166Y0030084D01*
X0065144Y0030235D01*
X0065126Y0030388D01*
X0065112Y0030540D01*
X0065102Y0030693D01*
X0065096Y0030847D01*
X0065094Y0031000D01*
X0145094Y0031000D02*
X0145096Y0031153D01*
X0145102Y0031307D01*
X0145112Y0031460D01*
X0145126Y0031612D01*
X0145144Y0031765D01*
X0145166Y0031916D01*
X0145191Y0032067D01*
X0145221Y0032218D01*
X0145255Y0032368D01*
X0145292Y0032516D01*
X0145333Y0032664D01*
X0145378Y0032810D01*
X0145427Y0032956D01*
X0145480Y0033100D01*
X0145536Y0033242D01*
X0145596Y0033383D01*
X0145660Y0033523D01*
X0145727Y0033661D01*
X0145798Y0033797D01*
X0145873Y0033931D01*
X0145950Y0034063D01*
X0146032Y0034193D01*
X0146116Y0034321D01*
X0146204Y0034447D01*
X0146295Y0034570D01*
X0146389Y0034691D01*
X0146487Y0034809D01*
X0146587Y0034925D01*
X0146691Y0035038D01*
X0146797Y0035149D01*
X0146906Y0035257D01*
X0147018Y0035362D01*
X0147132Y0035463D01*
X0147250Y0035562D01*
X0147369Y0035658D01*
X0147491Y0035751D01*
X0147616Y0035840D01*
X0147743Y0035927D01*
X0147872Y0036009D01*
X0148003Y0036089D01*
X0148136Y0036165D01*
X0148271Y0036238D01*
X0148408Y0036307D01*
X0148547Y0036372D01*
X0148687Y0036434D01*
X0148829Y0036492D01*
X0148972Y0036547D01*
X0149117Y0036598D01*
X0149263Y0036645D01*
X0149410Y0036688D01*
X0149558Y0036727D01*
X0149707Y0036763D01*
X0149857Y0036794D01*
X0150008Y0036822D01*
X0150159Y0036846D01*
X0150312Y0036866D01*
X0150464Y0036882D01*
X0150617Y0036894D01*
X0150770Y0036902D01*
X0150923Y0036906D01*
X0151077Y0036906D01*
X0151230Y0036902D01*
X0151383Y0036894D01*
X0151536Y0036882D01*
X0151688Y0036866D01*
X0151841Y0036846D01*
X0151992Y0036822D01*
X0152143Y0036794D01*
X0152293Y0036763D01*
X0152442Y0036727D01*
X0152590Y0036688D01*
X0152737Y0036645D01*
X0152883Y0036598D01*
X0153028Y0036547D01*
X0153171Y0036492D01*
X0153313Y0036434D01*
X0153453Y0036372D01*
X0153592Y0036307D01*
X0153729Y0036238D01*
X0153864Y0036165D01*
X0153997Y0036089D01*
X0154128Y0036009D01*
X0154257Y0035927D01*
X0154384Y0035840D01*
X0154509Y0035751D01*
X0154631Y0035658D01*
X0154750Y0035562D01*
X0154868Y0035463D01*
X0154982Y0035362D01*
X0155094Y0035257D01*
X0155203Y0035149D01*
X0155309Y0035038D01*
X0155413Y0034925D01*
X0155513Y0034809D01*
X0155611Y0034691D01*
X0155705Y0034570D01*
X0155796Y0034447D01*
X0155884Y0034321D01*
X0155968Y0034193D01*
X0156050Y0034063D01*
X0156127Y0033931D01*
X0156202Y0033797D01*
X0156273Y0033661D01*
X0156340Y0033523D01*
X0156404Y0033383D01*
X0156464Y0033242D01*
X0156520Y0033100D01*
X0156573Y0032956D01*
X0156622Y0032810D01*
X0156667Y0032664D01*
X0156708Y0032516D01*
X0156745Y0032368D01*
X0156779Y0032218D01*
X0156809Y0032067D01*
X0156834Y0031916D01*
X0156856Y0031765D01*
X0156874Y0031612D01*
X0156888Y0031460D01*
X0156898Y0031307D01*
X0156904Y0031153D01*
X0156906Y0031000D01*
X0156904Y0030847D01*
X0156898Y0030693D01*
X0156888Y0030540D01*
X0156874Y0030388D01*
X0156856Y0030235D01*
X0156834Y0030084D01*
X0156809Y0029933D01*
X0156779Y0029782D01*
X0156745Y0029632D01*
X0156708Y0029484D01*
X0156667Y0029336D01*
X0156622Y0029190D01*
X0156573Y0029044D01*
X0156520Y0028900D01*
X0156464Y0028758D01*
X0156404Y0028617D01*
X0156340Y0028477D01*
X0156273Y0028339D01*
X0156202Y0028203D01*
X0156127Y0028069D01*
X0156050Y0027937D01*
X0155968Y0027807D01*
X0155884Y0027679D01*
X0155796Y0027553D01*
X0155705Y0027430D01*
X0155611Y0027309D01*
X0155513Y0027191D01*
X0155413Y0027075D01*
X0155309Y0026962D01*
X0155203Y0026851D01*
X0155094Y0026743D01*
X0154982Y0026638D01*
X0154868Y0026537D01*
X0154750Y0026438D01*
X0154631Y0026342D01*
X0154509Y0026249D01*
X0154384Y0026160D01*
X0154257Y0026073D01*
X0154128Y0025991D01*
X0153997Y0025911D01*
X0153864Y0025835D01*
X0153729Y0025762D01*
X0153592Y0025693D01*
X0153453Y0025628D01*
X0153313Y0025566D01*
X0153171Y0025508D01*
X0153028Y0025453D01*
X0152883Y0025402D01*
X0152737Y0025355D01*
X0152590Y0025312D01*
X0152442Y0025273D01*
X0152293Y0025237D01*
X0152143Y0025206D01*
X0151992Y0025178D01*
X0151841Y0025154D01*
X0151688Y0025134D01*
X0151536Y0025118D01*
X0151383Y0025106D01*
X0151230Y0025098D01*
X0151077Y0025094D01*
X0150923Y0025094D01*
X0150770Y0025098D01*
X0150617Y0025106D01*
X0150464Y0025118D01*
X0150312Y0025134D01*
X0150159Y0025154D01*
X0150008Y0025178D01*
X0149857Y0025206D01*
X0149707Y0025237D01*
X0149558Y0025273D01*
X0149410Y0025312D01*
X0149263Y0025355D01*
X0149117Y0025402D01*
X0148972Y0025453D01*
X0148829Y0025508D01*
X0148687Y0025566D01*
X0148547Y0025628D01*
X0148408Y0025693D01*
X0148271Y0025762D01*
X0148136Y0025835D01*
X0148003Y0025911D01*
X0147872Y0025991D01*
X0147743Y0026073D01*
X0147616Y0026160D01*
X0147491Y0026249D01*
X0147369Y0026342D01*
X0147250Y0026438D01*
X0147132Y0026537D01*
X0147018Y0026638D01*
X0146906Y0026743D01*
X0146797Y0026851D01*
X0146691Y0026962D01*
X0146587Y0027075D01*
X0146487Y0027191D01*
X0146389Y0027309D01*
X0146295Y0027430D01*
X0146204Y0027553D01*
X0146116Y0027679D01*
X0146032Y0027807D01*
X0145950Y0027937D01*
X0145873Y0028069D01*
X0145798Y0028203D01*
X0145727Y0028339D01*
X0145660Y0028477D01*
X0145596Y0028617D01*
X0145536Y0028758D01*
X0145480Y0028900D01*
X0145427Y0029044D01*
X0145378Y0029190D01*
X0145333Y0029336D01*
X0145292Y0029484D01*
X0145255Y0029632D01*
X0145221Y0029782D01*
X0145191Y0029933D01*
X0145166Y0030084D01*
X0145144Y0030235D01*
X0145126Y0030388D01*
X0145112Y0030540D01*
X0145102Y0030693D01*
X0145096Y0030847D01*
X0145094Y0031000D01*
X0145094Y0156000D02*
X0145096Y0156153D01*
X0145102Y0156307D01*
X0145112Y0156460D01*
X0145126Y0156612D01*
X0145144Y0156765D01*
X0145166Y0156916D01*
X0145191Y0157067D01*
X0145221Y0157218D01*
X0145255Y0157368D01*
X0145292Y0157516D01*
X0145333Y0157664D01*
X0145378Y0157810D01*
X0145427Y0157956D01*
X0145480Y0158100D01*
X0145536Y0158242D01*
X0145596Y0158383D01*
X0145660Y0158523D01*
X0145727Y0158661D01*
X0145798Y0158797D01*
X0145873Y0158931D01*
X0145950Y0159063D01*
X0146032Y0159193D01*
X0146116Y0159321D01*
X0146204Y0159447D01*
X0146295Y0159570D01*
X0146389Y0159691D01*
X0146487Y0159809D01*
X0146587Y0159925D01*
X0146691Y0160038D01*
X0146797Y0160149D01*
X0146906Y0160257D01*
X0147018Y0160362D01*
X0147132Y0160463D01*
X0147250Y0160562D01*
X0147369Y0160658D01*
X0147491Y0160751D01*
X0147616Y0160840D01*
X0147743Y0160927D01*
X0147872Y0161009D01*
X0148003Y0161089D01*
X0148136Y0161165D01*
X0148271Y0161238D01*
X0148408Y0161307D01*
X0148547Y0161372D01*
X0148687Y0161434D01*
X0148829Y0161492D01*
X0148972Y0161547D01*
X0149117Y0161598D01*
X0149263Y0161645D01*
X0149410Y0161688D01*
X0149558Y0161727D01*
X0149707Y0161763D01*
X0149857Y0161794D01*
X0150008Y0161822D01*
X0150159Y0161846D01*
X0150312Y0161866D01*
X0150464Y0161882D01*
X0150617Y0161894D01*
X0150770Y0161902D01*
X0150923Y0161906D01*
X0151077Y0161906D01*
X0151230Y0161902D01*
X0151383Y0161894D01*
X0151536Y0161882D01*
X0151688Y0161866D01*
X0151841Y0161846D01*
X0151992Y0161822D01*
X0152143Y0161794D01*
X0152293Y0161763D01*
X0152442Y0161727D01*
X0152590Y0161688D01*
X0152737Y0161645D01*
X0152883Y0161598D01*
X0153028Y0161547D01*
X0153171Y0161492D01*
X0153313Y0161434D01*
X0153453Y0161372D01*
X0153592Y0161307D01*
X0153729Y0161238D01*
X0153864Y0161165D01*
X0153997Y0161089D01*
X0154128Y0161009D01*
X0154257Y0160927D01*
X0154384Y0160840D01*
X0154509Y0160751D01*
X0154631Y0160658D01*
X0154750Y0160562D01*
X0154868Y0160463D01*
X0154982Y0160362D01*
X0155094Y0160257D01*
X0155203Y0160149D01*
X0155309Y0160038D01*
X0155413Y0159925D01*
X0155513Y0159809D01*
X0155611Y0159691D01*
X0155705Y0159570D01*
X0155796Y0159447D01*
X0155884Y0159321D01*
X0155968Y0159193D01*
X0156050Y0159063D01*
X0156127Y0158931D01*
X0156202Y0158797D01*
X0156273Y0158661D01*
X0156340Y0158523D01*
X0156404Y0158383D01*
X0156464Y0158242D01*
X0156520Y0158100D01*
X0156573Y0157956D01*
X0156622Y0157810D01*
X0156667Y0157664D01*
X0156708Y0157516D01*
X0156745Y0157368D01*
X0156779Y0157218D01*
X0156809Y0157067D01*
X0156834Y0156916D01*
X0156856Y0156765D01*
X0156874Y0156612D01*
X0156888Y0156460D01*
X0156898Y0156307D01*
X0156904Y0156153D01*
X0156906Y0156000D01*
X0156904Y0155847D01*
X0156898Y0155693D01*
X0156888Y0155540D01*
X0156874Y0155388D01*
X0156856Y0155235D01*
X0156834Y0155084D01*
X0156809Y0154933D01*
X0156779Y0154782D01*
X0156745Y0154632D01*
X0156708Y0154484D01*
X0156667Y0154336D01*
X0156622Y0154190D01*
X0156573Y0154044D01*
X0156520Y0153900D01*
X0156464Y0153758D01*
X0156404Y0153617D01*
X0156340Y0153477D01*
X0156273Y0153339D01*
X0156202Y0153203D01*
X0156127Y0153069D01*
X0156050Y0152937D01*
X0155968Y0152807D01*
X0155884Y0152679D01*
X0155796Y0152553D01*
X0155705Y0152430D01*
X0155611Y0152309D01*
X0155513Y0152191D01*
X0155413Y0152075D01*
X0155309Y0151962D01*
X0155203Y0151851D01*
X0155094Y0151743D01*
X0154982Y0151638D01*
X0154868Y0151537D01*
X0154750Y0151438D01*
X0154631Y0151342D01*
X0154509Y0151249D01*
X0154384Y0151160D01*
X0154257Y0151073D01*
X0154128Y0150991D01*
X0153997Y0150911D01*
X0153864Y0150835D01*
X0153729Y0150762D01*
X0153592Y0150693D01*
X0153453Y0150628D01*
X0153313Y0150566D01*
X0153171Y0150508D01*
X0153028Y0150453D01*
X0152883Y0150402D01*
X0152737Y0150355D01*
X0152590Y0150312D01*
X0152442Y0150273D01*
X0152293Y0150237D01*
X0152143Y0150206D01*
X0151992Y0150178D01*
X0151841Y0150154D01*
X0151688Y0150134D01*
X0151536Y0150118D01*
X0151383Y0150106D01*
X0151230Y0150098D01*
X0151077Y0150094D01*
X0150923Y0150094D01*
X0150770Y0150098D01*
X0150617Y0150106D01*
X0150464Y0150118D01*
X0150312Y0150134D01*
X0150159Y0150154D01*
X0150008Y0150178D01*
X0149857Y0150206D01*
X0149707Y0150237D01*
X0149558Y0150273D01*
X0149410Y0150312D01*
X0149263Y0150355D01*
X0149117Y0150402D01*
X0148972Y0150453D01*
X0148829Y0150508D01*
X0148687Y0150566D01*
X0148547Y0150628D01*
X0148408Y0150693D01*
X0148271Y0150762D01*
X0148136Y0150835D01*
X0148003Y0150911D01*
X0147872Y0150991D01*
X0147743Y0151073D01*
X0147616Y0151160D01*
X0147491Y0151249D01*
X0147369Y0151342D01*
X0147250Y0151438D01*
X0147132Y0151537D01*
X0147018Y0151638D01*
X0146906Y0151743D01*
X0146797Y0151851D01*
X0146691Y0151962D01*
X0146587Y0152075D01*
X0146487Y0152191D01*
X0146389Y0152309D01*
X0146295Y0152430D01*
X0146204Y0152553D01*
X0146116Y0152679D01*
X0146032Y0152807D01*
X0145950Y0152937D01*
X0145873Y0153069D01*
X0145798Y0153203D01*
X0145727Y0153339D01*
X0145660Y0153477D01*
X0145596Y0153617D01*
X0145536Y0153758D01*
X0145480Y0153900D01*
X0145427Y0154044D01*
X0145378Y0154190D01*
X0145333Y0154336D01*
X0145292Y0154484D01*
X0145255Y0154632D01*
X0145221Y0154782D01*
X0145191Y0154933D01*
X0145166Y0155084D01*
X0145144Y0155235D01*
X0145126Y0155388D01*
X0145112Y0155540D01*
X0145102Y0155693D01*
X0145096Y0155847D01*
X0145094Y0156000D01*
X0065094Y0156000D02*
X0065096Y0156153D01*
X0065102Y0156307D01*
X0065112Y0156460D01*
X0065126Y0156612D01*
X0065144Y0156765D01*
X0065166Y0156916D01*
X0065191Y0157067D01*
X0065221Y0157218D01*
X0065255Y0157368D01*
X0065292Y0157516D01*
X0065333Y0157664D01*
X0065378Y0157810D01*
X0065427Y0157956D01*
X0065480Y0158100D01*
X0065536Y0158242D01*
X0065596Y0158383D01*
X0065660Y0158523D01*
X0065727Y0158661D01*
X0065798Y0158797D01*
X0065873Y0158931D01*
X0065950Y0159063D01*
X0066032Y0159193D01*
X0066116Y0159321D01*
X0066204Y0159447D01*
X0066295Y0159570D01*
X0066389Y0159691D01*
X0066487Y0159809D01*
X0066587Y0159925D01*
X0066691Y0160038D01*
X0066797Y0160149D01*
X0066906Y0160257D01*
X0067018Y0160362D01*
X0067132Y0160463D01*
X0067250Y0160562D01*
X0067369Y0160658D01*
X0067491Y0160751D01*
X0067616Y0160840D01*
X0067743Y0160927D01*
X0067872Y0161009D01*
X0068003Y0161089D01*
X0068136Y0161165D01*
X0068271Y0161238D01*
X0068408Y0161307D01*
X0068547Y0161372D01*
X0068687Y0161434D01*
X0068829Y0161492D01*
X0068972Y0161547D01*
X0069117Y0161598D01*
X0069263Y0161645D01*
X0069410Y0161688D01*
X0069558Y0161727D01*
X0069707Y0161763D01*
X0069857Y0161794D01*
X0070008Y0161822D01*
X0070159Y0161846D01*
X0070312Y0161866D01*
X0070464Y0161882D01*
X0070617Y0161894D01*
X0070770Y0161902D01*
X0070923Y0161906D01*
X0071077Y0161906D01*
X0071230Y0161902D01*
X0071383Y0161894D01*
X0071536Y0161882D01*
X0071688Y0161866D01*
X0071841Y0161846D01*
X0071992Y0161822D01*
X0072143Y0161794D01*
X0072293Y0161763D01*
X0072442Y0161727D01*
X0072590Y0161688D01*
X0072737Y0161645D01*
X0072883Y0161598D01*
X0073028Y0161547D01*
X0073171Y0161492D01*
X0073313Y0161434D01*
X0073453Y0161372D01*
X0073592Y0161307D01*
X0073729Y0161238D01*
X0073864Y0161165D01*
X0073997Y0161089D01*
X0074128Y0161009D01*
X0074257Y0160927D01*
X0074384Y0160840D01*
X0074509Y0160751D01*
X0074631Y0160658D01*
X0074750Y0160562D01*
X0074868Y0160463D01*
X0074982Y0160362D01*
X0075094Y0160257D01*
X0075203Y0160149D01*
X0075309Y0160038D01*
X0075413Y0159925D01*
X0075513Y0159809D01*
X0075611Y0159691D01*
X0075705Y0159570D01*
X0075796Y0159447D01*
X0075884Y0159321D01*
X0075968Y0159193D01*
X0076050Y0159063D01*
X0076127Y0158931D01*
X0076202Y0158797D01*
X0076273Y0158661D01*
X0076340Y0158523D01*
X0076404Y0158383D01*
X0076464Y0158242D01*
X0076520Y0158100D01*
X0076573Y0157956D01*
X0076622Y0157810D01*
X0076667Y0157664D01*
X0076708Y0157516D01*
X0076745Y0157368D01*
X0076779Y0157218D01*
X0076809Y0157067D01*
X0076834Y0156916D01*
X0076856Y0156765D01*
X0076874Y0156612D01*
X0076888Y0156460D01*
X0076898Y0156307D01*
X0076904Y0156153D01*
X0076906Y0156000D01*
X0076904Y0155847D01*
X0076898Y0155693D01*
X0076888Y0155540D01*
X0076874Y0155388D01*
X0076856Y0155235D01*
X0076834Y0155084D01*
X0076809Y0154933D01*
X0076779Y0154782D01*
X0076745Y0154632D01*
X0076708Y0154484D01*
X0076667Y0154336D01*
X0076622Y0154190D01*
X0076573Y0154044D01*
X0076520Y0153900D01*
X0076464Y0153758D01*
X0076404Y0153617D01*
X0076340Y0153477D01*
X0076273Y0153339D01*
X0076202Y0153203D01*
X0076127Y0153069D01*
X0076050Y0152937D01*
X0075968Y0152807D01*
X0075884Y0152679D01*
X0075796Y0152553D01*
X0075705Y0152430D01*
X0075611Y0152309D01*
X0075513Y0152191D01*
X0075413Y0152075D01*
X0075309Y0151962D01*
X0075203Y0151851D01*
X0075094Y0151743D01*
X0074982Y0151638D01*
X0074868Y0151537D01*
X0074750Y0151438D01*
X0074631Y0151342D01*
X0074509Y0151249D01*
X0074384Y0151160D01*
X0074257Y0151073D01*
X0074128Y0150991D01*
X0073997Y0150911D01*
X0073864Y0150835D01*
X0073729Y0150762D01*
X0073592Y0150693D01*
X0073453Y0150628D01*
X0073313Y0150566D01*
X0073171Y0150508D01*
X0073028Y0150453D01*
X0072883Y0150402D01*
X0072737Y0150355D01*
X0072590Y0150312D01*
X0072442Y0150273D01*
X0072293Y0150237D01*
X0072143Y0150206D01*
X0071992Y0150178D01*
X0071841Y0150154D01*
X0071688Y0150134D01*
X0071536Y0150118D01*
X0071383Y0150106D01*
X0071230Y0150098D01*
X0071077Y0150094D01*
X0070923Y0150094D01*
X0070770Y0150098D01*
X0070617Y0150106D01*
X0070464Y0150118D01*
X0070312Y0150134D01*
X0070159Y0150154D01*
X0070008Y0150178D01*
X0069857Y0150206D01*
X0069707Y0150237D01*
X0069558Y0150273D01*
X0069410Y0150312D01*
X0069263Y0150355D01*
X0069117Y0150402D01*
X0068972Y0150453D01*
X0068829Y0150508D01*
X0068687Y0150566D01*
X0068547Y0150628D01*
X0068408Y0150693D01*
X0068271Y0150762D01*
X0068136Y0150835D01*
X0068003Y0150911D01*
X0067872Y0150991D01*
X0067743Y0151073D01*
X0067616Y0151160D01*
X0067491Y0151249D01*
X0067369Y0151342D01*
X0067250Y0151438D01*
X0067132Y0151537D01*
X0067018Y0151638D01*
X0066906Y0151743D01*
X0066797Y0151851D01*
X0066691Y0151962D01*
X0066587Y0152075D01*
X0066487Y0152191D01*
X0066389Y0152309D01*
X0066295Y0152430D01*
X0066204Y0152553D01*
X0066116Y0152679D01*
X0066032Y0152807D01*
X0065950Y0152937D01*
X0065873Y0153069D01*
X0065798Y0153203D01*
X0065727Y0153339D01*
X0065660Y0153477D01*
X0065596Y0153617D01*
X0065536Y0153758D01*
X0065480Y0153900D01*
X0065427Y0154044D01*
X0065378Y0154190D01*
X0065333Y0154336D01*
X0065292Y0154484D01*
X0065255Y0154632D01*
X0065221Y0154782D01*
X0065191Y0154933D01*
X0065166Y0155084D01*
X0065144Y0155235D01*
X0065126Y0155388D01*
X0065112Y0155540D01*
X0065102Y0155693D01*
X0065096Y0155847D01*
X0065094Y0156000D01*
M02*
