%
M48
M72
T01C0.0315
T02C0.0354
T03C0.0394
T04C0.0400
T05C0.1181
%
T01
X1600Y5100
X6600Y5100
X8600Y5100
X13600Y5100
X15600Y5100
X20600Y5100
X20600Y12100
X15600Y12100
X13600Y12100
X8600Y12100
X6600Y12100
X1600Y12100
T02
X2100Y15100
X4100Y15100
X10100Y15100
X12100Y15100
X18100Y15100
X20100Y15100
T03
X1600Y2600
X2600Y2600
X3600Y2600
X18600Y2600
X19600Y2600
X20600Y2600
T04
X12100Y2600
X11100Y2600
X10100Y2600
X9600Y18600
X9600Y19600
X9600Y20600
X6100Y20600
X6100Y19600
X6100Y18600
X2600Y18600
X2600Y19600
X2600Y20600
X13100Y20600
X13100Y19600
X13100Y18600
X16600Y18600
X16600Y19600
X16600Y20600
X20100Y20600
X20100Y19600
X20100Y18600
T05
X15100Y15600
X7100Y15600
X7100Y3100
X15100Y3100
M30
