G75*
%MOIN*%
%OFA0B0*%
%FSLAX25Y25*%
%IPPOS*%
%LPD*%
%AMOC8*
5,1,8,0,0,1.08239X$1,22.5*
%
%ADD10C,0.08400*%
%ADD11R,0.08400X0.08400*%
%ADD12C,0.06737*%
%ADD13C,0.06800*%
%ADD14R,0.05950X0.05950*%
%ADD15C,0.12611*%
D10*
X0021000Y0151000D03*
X0101000Y0151000D03*
X0181000Y0151000D03*
D11*
X0201000Y0151000D03*
X0121000Y0151000D03*
X0041000Y0151000D03*
D12*
X0016000Y0028969D02*
X0016000Y0023031D01*
X0026000Y0023031D02*
X0026000Y0028969D01*
X0036000Y0028969D02*
X0036000Y0023031D01*
X0186000Y0023031D02*
X0186000Y0028969D01*
X0196000Y0028969D02*
X0196000Y0023031D01*
X0206000Y0023031D02*
X0206000Y0028969D01*
D13*
X0121000Y0026000D03*
X0111000Y0026000D03*
X0101000Y0026000D03*
X0096000Y0186000D03*
X0096000Y0196000D03*
X0096000Y0206000D03*
X0061000Y0206000D03*
X0061000Y0196000D03*
X0061000Y0186000D03*
X0026000Y0186000D03*
X0026000Y0196000D03*
X0026000Y0206000D03*
X0131000Y0206000D03*
X0131000Y0196000D03*
X0131000Y0186000D03*
X0166000Y0186000D03*
X0166000Y0196000D03*
X0166000Y0206000D03*
X0201000Y0206000D03*
X0201000Y0196000D03*
X0201000Y0186000D03*
D14*
X0206000Y0121000D03*
X0156000Y0121000D03*
X0136000Y0121000D03*
X0086000Y0121000D03*
X0066000Y0121000D03*
X0016000Y0121000D03*
X0016000Y0051000D03*
X0066000Y0051000D03*
X0086000Y0051000D03*
X0136000Y0051000D03*
X0156000Y0051000D03*
X0206000Y0051000D03*
D15*
X0151000Y0031000D03*
X0071000Y0031000D03*
X0071000Y0156000D03*
X0151000Y0156000D03*
M02*
