G75*
%MOIN*%
%OFA0B0*%
%FSLAX25Y25*%
%IPPOS*%
%LPD*%
%AMOC8*
5,1,8,0,0,1.08239X$1,22.5*
%
%ADD10C,0.07600*%
%ADD11R,0.07600X0.07600*%
%ADD12C,0.05937*%
%ADD13C,0.06000*%
%ADD14R,0.05150X0.05150*%
%ADD15C,0.05000*%
%ADD16C,0.02400*%
%ADD17C,0.03200*%
D10*
X0021000Y0151000D03*
X0101000Y0151000D03*
X0181000Y0151000D03*
D11*
X0201000Y0151000D03*
X0121000Y0151000D03*
X0041000Y0151000D03*
D12*
X0016000Y0028969D02*
X0016000Y0023031D01*
X0026000Y0023031D02*
X0026000Y0028969D01*
X0036000Y0028969D02*
X0036000Y0023031D01*
X0186000Y0023031D02*
X0186000Y0028969D01*
X0196000Y0028969D02*
X0196000Y0023031D01*
X0206000Y0023031D02*
X0206000Y0028969D01*
D13*
X0121000Y0026000D03*
X0111000Y0026000D03*
X0101000Y0026000D03*
X0096000Y0186000D03*
X0096000Y0196000D03*
X0096000Y0206000D03*
X0061000Y0206000D03*
X0061000Y0196000D03*
X0061000Y0186000D03*
X0026000Y0186000D03*
X0026000Y0196000D03*
X0026000Y0206000D03*
X0131000Y0206000D03*
X0131000Y0196000D03*
X0131000Y0186000D03*
X0166000Y0186000D03*
X0166000Y0196000D03*
X0166000Y0206000D03*
X0201000Y0206000D03*
X0201000Y0196000D03*
X0201000Y0186000D03*
D14*
X0206000Y0121000D03*
X0156000Y0121000D03*
X0136000Y0121000D03*
X0086000Y0121000D03*
X0066000Y0121000D03*
X0016000Y0121000D03*
X0016000Y0051000D03*
X0066000Y0051000D03*
X0086000Y0051000D03*
X0136000Y0051000D03*
X0156000Y0051000D03*
X0206000Y0051000D03*
D15*
X0206000Y0026000D01*
X0206000Y0016000D01*
X0201000Y0011000D01*
X0131000Y0011000D01*
X0131000Y0046000D01*
X0136000Y0051000D01*
X0121000Y0026000D02*
X0121000Y0091000D01*
X0106000Y0106000D01*
X0081000Y0106000D01*
X0066000Y0121000D01*
X0056000Y0121000D01*
X0041000Y0136000D01*
X0041000Y0151000D01*
X0041000Y0206000D01*
X0026000Y0206000D01*
X0041000Y0206000D02*
X0061000Y0206000D01*
X0096000Y0206000D02*
X0121000Y0206000D01*
X0121000Y0151000D01*
X0121000Y0131000D01*
X0131000Y0121000D01*
X0136000Y0121000D01*
X0201000Y0126000D02*
X0201000Y0151000D01*
X0211000Y0161000D01*
X0211000Y0201000D01*
X0206000Y0206000D01*
X0201000Y0206000D01*
X0166000Y0206000D01*
X0131000Y0206000D02*
X0121000Y0206000D01*
X0201000Y0126000D02*
X0206000Y0121000D01*
X0131000Y0011000D02*
X0046000Y0011000D01*
X0036000Y0021000D01*
X0036000Y0026000D01*
X0036000Y0041000D01*
X0046000Y0051000D01*
X0066000Y0051000D01*
D16*
X0026000Y0026000D02*
X0026000Y0091000D01*
X0031000Y0096000D01*
X0091000Y0096000D01*
X0111000Y0076000D01*
X0111000Y0026000D01*
X0031000Y0096000D02*
X0031000Y0166000D01*
X0016000Y0181000D01*
X0016000Y0191000D01*
X0021000Y0196000D01*
X0026000Y0196000D01*
X0061000Y0196000D02*
X0096000Y0196000D01*
X0131000Y0196000D02*
X0166000Y0196000D01*
D17*
X0191000Y0191000D02*
X0191000Y0056000D01*
X0196000Y0051000D01*
X0196000Y0026000D01*
X0191000Y0191000D02*
X0196000Y0196000D01*
X0201000Y0196000D01*
M02*
